<?xml version="1.0" encoding="UTF-8"?><svg id="_レイヤー_2" xmlns="http://www.w3.org/2000/svg" xmlns:xlink="http://www.w3.org/1999/xlink" viewBox="0 0 81.84 88.1"><defs><style>.cls-1{stroke:#ea5514;stroke-width:4.49px;}.cls-1,.cls-2,.cls-3,.cls-4{fill:none;}.cls-1,.cls-2,.cls-3,.cls-4,.cls-5{stroke-miterlimit:2;}.cls-2{stroke-width:4.53px;}.cls-2,.cls-4{stroke:#c9a063;}.cls-6{fill:#f8b62d;}.cls-7{fill:#f39800;}.cls-8{fill:#85559f;}.cls-9{fill:#a73736;}.cls-10{fill:#ddd;}.cls-11{fill:#3779a6;}.cls-12{fill:#45b035;}.cls-3{stroke:#fff;stroke-width:7.69px;}.cls-4{stroke-width:2.72px;}.cls-5{fill:#fff;stroke:#ddd;stroke-width:2px;}.cls-13{fill:url(#_名称未設定グラデーション_6);}</style><linearGradient id="_名称未設定グラデーション_6" x1="33.76" y1="156.54" x2="114.66" y2="156.54" gradientTransform="translate(-32.81 -85.55)" gradientUnits="userSpaceOnUse"><stop offset="0" stop-color="#fff"/><stop offset=".61" stop-color="#2ea7e0"/><stop offset="1" stop-color="#f6b456"/></linearGradient></defs><g id="_レイヤー_1-2"><path class="cls-3" d="m.95,81.87c0-.22.52-.65,1.5-.64,3.16.21,5.36,2.23,8.12,2.26,3.6.04,3.99-2.72,4-4.1.05-5.38-6.07-7.18-6.03-11.43.07-6.72,10.78-10.36,16.96-10.3,6.39.06,9.31,2.49,9.3,3.91,0,.51-.45,1.7-2.27,1.69-.29,0-.57-4.51-8.06-4.58-7.81-.08-12.25,3.77-12.29,8.6-.04,4.21,6.04,5.95,5.99,11.18-.04,3.81-4.64,5.91-8.42,5.88-3.27-.03-5.87-1.58-8.12-2.22-.4-.11-.69-.08-.69-.22Z"/><path class="cls-3" d="m23.72,74.25c0,.61-.63,1.43-.63,1.91,0,.27.14.42.44.43.65,0,1.93-1.31,2.8-2,.11-.1.3-.17.46-.17.17,0,.32.09.31.3,0,.34-.22,1.01-.23,1.45,0,.25.14.38.38.38.97,0,3.22-1.63,3.79-2.11.04-.02.06-.04.11-.04.06,0,.13.04.12.13,0,.04-.02.11-.06.15-.81.79-3.78,2.7-5.11,2.69-.57,0-.71-.3-.71-.64,0-.34.15-.67.16-.82,0-.04-.02-.06-.04-.06-.42,0-1.7,1.57-3.43,1.55-.42,0-.92-.24-.92-.73,0-.99.86-1.57.87-2.21,0-.25-.14-.38-.38-.38-.36,0-.76.14-1.44.66-.15.1-.28.15-.34.15-.06,0-.08-.04-.08-.09,0-.06.04-.13.11-.19.6-.56,1.74-1.12,2.54-1.11.99,0,1.28.33,1.28.75Z"/><path class="cls-3" d="m31.14,72.43h-.19c-5.19-.05-7.56-3.11-7.54-5.66.02-1.86,1.3-3.43,3.66-3.4.95,0,1.92.29,2.69.87,0,.06-.02.11-.11.1h-.04c-.48-.09-.93-.14-1.33-.14-2.26-.02-3.34,1.27-3.36,2.83-.02,2.26,2.21,5.06,6.32,5.1,1.39-3.84,4.76-8.03,7.29-8,1.24.01,1.81.67,1.8,1.6-.02,2.17-3.14,5.87-7.74,6.59-.22.76-.33,1.49-.34,2.13-.01,1.12.34,1.88,1.2,1.89,1.05.01,2.2-.55,3.65-1.78.04-.02.06-.04.11-.04.06,0,.13.04.12.13,0,.04-.02.11-.06.15-1.28,1.08-3.48,2.6-5.02,2.59-1.16-.01-1.64-.86-1.62-2.15,0-.84.19-1.81.51-2.8Zm1.54-.45c3.64-.87,6.29-4.87,6.31-6.64,0-.53-.22-.85-.71-.85-1.94-.02-4.57,4.07-5.6,7.49Z"/><path class="cls-3" d="m37.26,72.49h-.19c-5.19-.05-7.56-3.11-7.54-5.66.02-1.86,1.3-3.42,3.66-3.4.95,0,1.92.29,2.69.87,0,.06-.02.11-.11.1h-.04c-.48-.09-.93-.14-1.33-.14-2.26-.02-3.34,1.28-3.36,2.84-.02,2.26,2.21,5.06,6.32,5.1,1.39-3.84,4.76-8.03,7.29-8,1.24.01,1.81.67,1.8,1.6-.02,2.17-3.14,5.87-7.74,6.59-.22.76-.33,1.49-.34,2.13-.01,1.12.34,1.88,1.2,1.89,1.05,0,2.2-.55,3.65-1.78.04-.02.06-.04.11-.04.06,0,.13.04.13.13,0,.04-.02.11-.07.15-1.28,1.08-3.48,2.6-5.02,2.59-1.16-.01-1.64-.86-1.62-2.15,0-.84.19-1.81.51-2.8Zm1.54-.45c3.64-.87,6.29-4.87,6.31-6.64,0-.53-.22-.85-.71-.85-1.94-.02-4.57,4.07-5.6,7.49Z"/><path class="cls-3" d="m45.34,76.3c0,.32.14.53.58.53,1.25.01,3.88-1.73,4.37-2.19.04-.04.06-.04.11-.04.06,0,.13.04.12.13,0,.04-.02.11-.06.15-.53.5-4.39,2.93-6.06,2.91-.49,0-.8-.22-.79-.75,0-.99.63-1.77.63-2.4,0-.19-.06-.28-.21-.28-.25,0-.57.16-1.31.66-.08.04-.15.06-.19.06-.08,0-.13-.04-.13-.11,0-.04.04-.1.11-.15.77-.67,1.76-1.14,2.48-1.14.59,0,.99.22.99.56,0,.4-.62,1.41-.63,2.04Zm1.31-4.44c0,.44-.47,1.05-.98,1.04-.4,0-.61-.32-.6-.64,0-.42.35-.9.98-.92.44,0,.61.22.61.51Z"/><path class="cls-3" d="m54.92,75.74c-.72.63-2.66,1.89-3.69,1.88-.57,0-.74-.28-.73-.68,0-.7.59-1.77.59-2.21,0-.21-.04-.32-.14-.32-.17,0-.36.12-1.12.62-.11.08-.23.12-.32.12-.06,0-.13-.04-.13-.08,0-.04.04-.08.13-.17.81-.65,1.55-1.1,2.35-1.09.84,0,1.09.35,1.09.79,0,.67-.61,1.6-.61,2.04,0,.08.04.13.15.13.59,0,1.99-.97,2.06-1.18.02-.08.02-.17.02-.23,0-.23-.08-.4-.12-.53-.02-.08-.04-.13-.04-.19,0-.25.98-1.04,1.21-1.04.08,0,.13.02.13.09-.01,1.05,1.12,1.49,1.88,1.49.49,0,.97-.16,1.31-.45.04-.02.06-.04.11-.04.06,0,.13.04.13.13,0,.04-.02.1-.07.15-.34.36-1.7,1.21-2.75,1.2-.46,0-.95-.13-1.32-.5l-.11.08Z"/><path class="cls-3" d="m66.03,74.82c-.02.19-.24.88-.25,1.47,0,.44.12.82.58.83,1.26.01,3.54-1.78,4.11-2.24.04-.02.06-.04.11-.04.06,0,.13.04.12.13,0,.04-.02.11-.06.15-1.21,1.04-3.63,2.66-5.04,2.65-1.14-.01-1.41-.6-1.4-1.17,0-.55.26-1.09.26-1.09-1.09,1.17-3.31,2.35-5.04,2.33-.99,0-1.43-.37-1.43-.86.01-1.24,2.82-3.39,6.51-3.35.11,0,.19.02.23.02.13.02.17.06.17.11,0,.06-.11.15-.21.15-2.87.01-4.3,1.65-4.31,2.55,0,.34.21.57.61.58,1.22.01,3.05-1.17,3.69-2.2.11-.17.78-.25,1.04-.24,0,0,.32,0,.31.24Z"/><path class="cls-3" d="m73.87,75.02c0,.34-.13.72-.37,1.16.04,0,.08,0,.15-.08.26-.31,1.49-1.1,2.65-1.09,1.77.02.7,2.07,1.46,2.08,1.27.01,3.29-1.63,3.86-2.09.04-.02.06-.04.11-.04.06,0,.13.04.12.13,0,.04-.02.11-.06.15-1.21,1.04-3.72,2.75-5.51,2.73-1.16-.01-.31-2.32-1.18-2.33-.25,0-1.29.35-2.23,1.77-.11.15-.59.33-.93.33-.19,0-.34-.07-.34-.21,0-.06.02-.13.07-.23.15-.4.73-1.62.74-2.36,0-.36-.12-.61-.5-.62-.51,0-1.25.54-1.76.93-.15.1-.28.15-.34.14-.06,0-.1-.04-.1-.09,0-.06.04-.13.13-.19.94-.81,1.85-1.21,2.52-1.2,1.03.03,1.54.44,1.53,1.11Z"/><path class="cls-1" d="m.95,81.87c0-.22.52-.65,1.5-.64,3.16.21,5.36,2.23,8.12,2.26,3.6.04,3.99-2.72,4-4.1.05-5.38-6.07-7.18-6.03-11.43.07-6.72,10.78-10.36,16.96-10.3,6.39.06,9.31,2.49,9.3,3.91,0,.51-.45,1.7-2.27,1.69-.29,0-.57-4.51-8.06-4.58-7.81-.08-12.25,3.77-12.29,8.6-.04,4.21,6.04,5.95,5.99,11.18-.04,3.81-4.64,5.91-8.42,5.88-3.27-.03-5.87-1.58-8.12-2.22-.4-.11-.69-.08-.69-.22Z"/><path class="cls-1" d="m23.72,74.25c0,.61-.63,1.43-.63,1.91,0,.27.14.42.44.43.65,0,1.93-1.31,2.8-2,.11-.1.3-.17.46-.17.17,0,.32.09.31.3,0,.34-.22,1.01-.23,1.45,0,.25.14.38.38.38.97,0,3.22-1.63,3.79-2.11.04-.02.06-.04.11-.04.06,0,.13.04.12.13,0,.04-.02.11-.06.15-.81.79-3.78,2.7-5.11,2.69-.57,0-.71-.3-.71-.64,0-.34.15-.67.16-.82,0-.04-.02-.06-.04-.06-.42,0-1.7,1.57-3.43,1.55-.42,0-.92-.24-.92-.73,0-.99.86-1.57.87-2.21,0-.25-.14-.38-.38-.38-.36,0-.76.14-1.44.66-.15.1-.28.15-.34.15-.06,0-.08-.04-.08-.09,0-.06.04-.13.11-.19.6-.56,1.74-1.12,2.54-1.11.99,0,1.28.33,1.28.75Z"/><path class="cls-1" d="m31.14,72.43h-.19c-5.19-.05-7.56-3.11-7.54-5.66.02-1.86,1.3-3.43,3.66-3.4.95,0,1.92.29,2.69.87,0,.06-.02.11-.11.1h-.04c-.48-.09-.93-.14-1.33-.14-2.26-.02-3.34,1.27-3.36,2.83-.02,2.26,2.21,5.06,6.32,5.1,1.39-3.84,4.76-8.03,7.29-8,1.24.01,1.81.67,1.8,1.6-.02,2.17-3.14,5.87-7.74,6.59-.22.76-.33,1.49-.34,2.13-.01,1.12.34,1.88,1.2,1.89,1.05.01,2.2-.55,3.65-1.78.04-.02.06-.04.11-.04.06,0,.13.04.12.13,0,.04-.02.11-.06.15-1.28,1.08-3.48,2.6-5.02,2.59-1.16-.01-1.64-.86-1.62-2.15,0-.84.19-1.81.51-2.8Zm1.54-.45c3.64-.87,6.29-4.87,6.31-6.64,0-.53-.22-.85-.71-.85-1.94-.02-4.57,4.07-5.6,7.49Z"/><path class="cls-1" d="m37.26,72.49h-.19c-5.19-.05-7.56-3.11-7.54-5.66.02-1.86,1.3-3.42,3.66-3.4.95,0,1.92.29,2.69.87,0,.06-.02.11-.11.1h-.04c-.48-.09-.93-.14-1.33-.14-2.26-.02-3.34,1.28-3.36,2.84-.02,2.26,2.21,5.06,6.32,5.1,1.39-3.84,4.76-8.03,7.29-8,1.24.01,1.81.67,1.8,1.6-.02,2.17-3.14,5.87-7.74,6.59-.22.76-.33,1.49-.34,2.13-.01,1.12.34,1.88,1.2,1.89,1.05,0,2.2-.55,3.65-1.78.04-.02.06-.04.11-.04.06,0,.13.04.13.13,0,.04-.02.11-.07.15-1.28,1.08-3.48,2.6-5.02,2.59-1.16-.01-1.64-.86-1.62-2.15,0-.84.19-1.81.51-2.8Zm1.54-.45c3.64-.87,6.29-4.87,6.31-6.64,0-.53-.22-.85-.71-.85-1.94-.02-4.57,4.07-5.6,7.49Z"/><path class="cls-1" d="m45.34,76.3c0,.32.14.53.58.53,1.25.01,3.88-1.73,4.37-2.19.04-.04.06-.04.11-.04.06,0,.13.04.12.13,0,.04-.02.11-.06.15-.53.5-4.39,2.93-6.06,2.91-.49,0-.8-.22-.79-.75,0-.99.63-1.77.63-2.4,0-.19-.06-.28-.21-.28-.25,0-.57.16-1.31.66-.08.04-.15.06-.19.06-.08,0-.13-.04-.13-.11,0-.04.04-.1.11-.15.77-.67,1.76-1.14,2.48-1.14.59,0,.99.22.99.56,0,.4-.62,1.41-.63,2.04Zm1.31-4.44c0,.44-.47,1.05-.98,1.04-.4,0-.61-.32-.6-.64,0-.42.35-.9.98-.92.44,0,.61.22.61.51Z"/><path class="cls-1" d="m54.92,75.74c-.72.63-2.66,1.89-3.69,1.88-.57,0-.74-.28-.73-.68,0-.7.59-1.77.59-2.21,0-.21-.04-.32-.14-.32-.17,0-.36.12-1.12.62-.11.08-.23.12-.32.12-.06,0-.13-.04-.13-.08,0-.04.04-.08.13-.17.81-.65,1.55-1.1,2.35-1.09.84,0,1.09.35,1.09.79,0,.67-.61,1.6-.61,2.04,0,.08.04.13.15.13.59,0,1.99-.97,2.06-1.18.02-.08.02-.17.02-.23,0-.23-.08-.4-.12-.53-.02-.08-.04-.13-.04-.19,0-.25.98-1.04,1.21-1.04.08,0,.13.02.13.09-.01,1.05,1.12,1.49,1.88,1.49.49,0,.97-.16,1.31-.45.04-.02.06-.04.11-.04.06,0,.13.04.13.13,0,.04-.02.1-.07.15-.34.36-1.7,1.21-2.75,1.2-.46,0-.95-.13-1.32-.5l-.11.08Z"/><path class="cls-1" d="m66.03,74.82c-.02.19-.24.88-.25,1.47,0,.44.12.82.58.83,1.26.01,3.54-1.78,4.11-2.24.04-.02.06-.04.11-.04.06,0,.13.04.12.13,0,.04-.02.11-.06.15-1.21,1.04-3.63,2.66-5.04,2.65-1.14-.01-1.41-.6-1.4-1.17,0-.55.26-1.09.26-1.09-1.09,1.17-3.31,2.35-5.04,2.33-.99,0-1.43-.37-1.43-.86.01-1.24,2.82-3.39,6.51-3.35.11,0,.19.02.23.02.13.02.17.06.17.11,0,.06-.11.15-.21.15-2.87.01-4.3,1.65-4.31,2.55,0,.34.21.57.61.58,1.22.01,3.05-1.17,3.69-2.2.11-.17.78-.25,1.04-.24,0,0,.32,0,.31.24Z"/><path class="cls-1" d="m73.87,75.02c0,.34-.13.72-.37,1.16.04,0,.08,0,.15-.08.26-.31,1.49-1.1,2.65-1.09,1.77.02.7,2.07,1.46,2.08,1.27.01,3.29-1.63,3.86-2.09.04-.02.06-.04.11-.04.06,0,.13.04.12.13,0,.04-.02.11-.06.15-1.21,1.04-3.72,2.75-5.51,2.73-1.16-.01-.31-2.32-1.18-2.33-.25,0-1.29.35-2.23,1.77-.11.15-.59.33-.93.33-.19,0-.34-.07-.34-.21,0-.06.02-.13.07-.23.15-.4.73-1.62.74-2.36,0-.36-.12-.61-.5-.62-.51,0-1.25.54-1.76.93-.15.1-.28.15-.34.14-.06,0-.1-.04-.1-.09,0-.06.04-.13.13-.19.94-.81,1.85-1.21,2.52-1.2,1.03.03,1.54.44,1.53,1.11Z"/><path class="cls-7" d="m.95,81.87c0-.22.52-.65,1.5-.64,3.16.21,5.36,2.23,8.12,2.26,3.6.04,3.99-2.72,4-4.1.05-5.38-6.07-7.18-6.03-11.43.07-6.72,10.78-10.36,16.96-10.3,6.39.06,9.31,2.49,9.3,3.91,0,.51-.45,1.7-2.27,1.69-.29,0-.57-4.51-8.06-4.58-7.81-.08-12.25,3.77-12.29,8.6-.04,4.21,6.04,5.95,5.99,11.18-.04,3.81-4.64,5.91-8.42,5.88-3.27-.03-5.87-1.58-8.12-2.22-.4-.11-.69-.08-.69-.22Z"/><path class="cls-7" d="m23.72,74.25c0,.61-.63,1.43-.63,1.91,0,.27.14.42.44.43.65,0,1.93-1.31,2.8-2,.11-.1.3-.17.46-.17.17,0,.32.09.31.3,0,.34-.22,1.01-.23,1.45,0,.25.14.38.38.38.97,0,3.22-1.63,3.79-2.11.04-.02.06-.04.11-.04.06,0,.13.04.12.13,0,.04-.02.11-.06.15-.81.79-3.78,2.7-5.11,2.69-.57,0-.71-.3-.71-.64,0-.34.15-.67.16-.82,0-.04-.02-.06-.04-.06-.42,0-1.7,1.57-3.43,1.55-.42,0-.92-.24-.92-.73,0-.99.86-1.57.87-2.21,0-.25-.14-.38-.38-.38-.36,0-.76.14-1.44.66-.15.1-.28.15-.34.15-.06,0-.08-.04-.08-.09,0-.06.04-.13.11-.19.6-.56,1.74-1.12,2.54-1.11.99,0,1.28.33,1.28.75Z"/><path class="cls-7" d="m31.14,72.43h-.19c-5.19-.05-7.56-3.11-7.54-5.66.02-1.86,1.3-3.43,3.66-3.4.95,0,1.92.29,2.69.87,0,.06-.02.11-.11.1h-.04c-.48-.09-.93-.14-1.33-.14-2.26-.02-3.34,1.27-3.36,2.83-.02,2.26,2.21,5.06,6.32,5.1,1.39-3.84,4.76-8.03,7.29-8,1.24.01,1.81.67,1.8,1.6-.02,2.17-3.14,5.87-7.74,6.59-.22.76-.33,1.49-.34,2.13-.01,1.12.34,1.88,1.2,1.89,1.05.01,2.2-.55,3.65-1.78.04-.02.06-.04.11-.04.06,0,.13.04.12.13,0,.04-.02.11-.06.15-1.28,1.08-3.48,2.6-5.02,2.59-1.16-.01-1.64-.86-1.62-2.15,0-.84.19-1.81.51-2.8Zm1.54-.45c3.64-.87,6.29-4.87,6.31-6.64,0-.53-.22-.85-.71-.85-1.94-.02-4.57,4.07-5.6,7.49Z"/><path class="cls-7" d="m37.26,72.49h-.19c-5.19-.05-7.56-3.11-7.54-5.66.02-1.86,1.3-3.42,3.66-3.4.95,0,1.92.29,2.69.87,0,.06-.02.11-.11.1h-.04c-.48-.09-.93-.14-1.33-.14-2.26-.02-3.34,1.28-3.36,2.84-.02,2.26,2.21,5.06,6.32,5.1,1.39-3.84,4.76-8.03,7.29-8,1.24.01,1.81.67,1.8,1.6-.02,2.17-3.14,5.87-7.74,6.59-.22.76-.33,1.49-.34,2.13-.01,1.12.34,1.88,1.2,1.89,1.05,0,2.2-.55,3.65-1.78.04-.02.06-.04.11-.04.06,0,.13.04.13.13,0,.04-.02.11-.07.15-1.28,1.08-3.48,2.6-5.02,2.59-1.16-.01-1.64-.86-1.62-2.15,0-.84.19-1.81.51-2.8Zm1.54-.45c3.64-.87,6.29-4.87,6.31-6.64,0-.53-.22-.85-.71-.85-1.94-.02-4.57,4.07-5.6,7.49Z"/><path class="cls-7" d="m45.34,76.3c0,.32.14.53.58.53,1.25.01,3.88-1.73,4.37-2.19.04-.04.06-.04.11-.04.06,0,.13.04.12.13,0,.04-.02.11-.06.15-.53.5-4.39,2.93-6.06,2.91-.49,0-.8-.22-.79-.75,0-.99.63-1.77.63-2.4,0-.19-.06-.28-.21-.28-.25,0-.57.16-1.31.66-.08.04-.15.06-.19.06-.08,0-.13-.04-.13-.11,0-.04.04-.1.11-.15.77-.67,1.76-1.14,2.48-1.14.59,0,.99.22.99.56,0,.4-.62,1.41-.63,2.04Zm1.31-4.44c0,.44-.47,1.05-.98,1.04-.4,0-.61-.32-.6-.64,0-.42.35-.9.98-.92.44,0,.61.22.61.51Z"/><path class="cls-7" d="m54.92,75.74c-.72.63-2.66,1.89-3.69,1.88-.57,0-.74-.28-.73-.68,0-.7.59-1.77.59-2.21,0-.21-.04-.32-.14-.32-.17,0-.36.12-1.12.62-.11.08-.23.12-.32.12-.06,0-.13-.04-.13-.08,0-.04.04-.08.13-.17.81-.65,1.55-1.1,2.35-1.09.84,0,1.09.35,1.09.79,0,.67-.61,1.6-.61,2.04,0,.08.04.13.15.13.59,0,1.99-.97,2.06-1.18.02-.08.02-.17.02-.23,0-.23-.08-.4-.12-.53-.02-.08-.04-.13-.04-.19,0-.25.98-1.04,1.21-1.04.08,0,.13.02.13.09-.01,1.05,1.12,1.49,1.88,1.49.49,0,.97-.16,1.31-.45.04-.02.06-.04.11-.04.06,0,.13.04.13.13,0,.04-.02.1-.07.15-.34.36-1.7,1.21-2.75,1.2-.46,0-.95-.13-1.32-.5l-.11.08Z"/><path class="cls-7" d="m66.03,74.82c-.02.19-.24.88-.25,1.47,0,.44.12.82.58.83,1.26.01,3.54-1.78,4.11-2.24.04-.02.06-.04.11-.04.06,0,.13.04.12.13,0,.04-.02.11-.06.15-1.21,1.04-3.63,2.66-5.04,2.65-1.14-.01-1.41-.6-1.4-1.17,0-.55.26-1.09.26-1.09-1.09,1.17-3.31,2.35-5.04,2.33-.99,0-1.43-.37-1.43-.86.01-1.24,2.82-3.39,6.51-3.35.11,0,.19.02.23.02.13.02.17.06.17.11,0,.06-.11.15-.21.15-2.87.01-4.3,1.65-4.31,2.55,0,.34.21.57.61.58,1.22.01,3.05-1.17,3.69-2.2.11-.17.78-.25,1.04-.24,0,0,.32,0,.31.24Z"/><path class="cls-7" d="m73.87,75.02c0,.34-.13.72-.37,1.16.04,0,.08,0,.15-.08.26-.31,1.49-1.1,2.65-1.09,1.77.02.7,2.07,1.46,2.08,1.27.01,3.29-1.63,3.86-2.09.04-.02.06-.04.11-.04.06,0,.13.04.12.13,0,.04-.02.11-.06.15-1.21,1.04-3.72,2.75-5.51,2.73-1.16-.01-.31-2.32-1.18-2.33-.25,0-1.29.35-2.23,1.77-.11.15-.59.33-.93.33-.19,0-.34-.07-.34-.21,0-.06.02-.13.07-.23.15-.4.73-1.62.74-2.36,0-.36-.12-.61-.5-.62-.51,0-1.25.54-1.76.93-.15.1-.28.15-.34.14-.06,0-.1-.04-.1-.09,0-.06.04-.13.13-.19.94-.81,1.85-1.21,2.52-1.2,1.03.03,1.54.44,1.53,1.11Z"/><path class="cls-13" d="m.95,81.87c0-.22.52-.65,1.5-.64,3.16.21,5.36,2.23,8.12,2.26,3.6.04,3.99-2.72,4-4.1.05-5.38-6.07-7.18-6.03-11.43.07-6.72,10.78-10.36,16.96-10.3,6.39.06,9.31,2.49,9.3,3.91,0,.51-.45,1.7-2.27,1.69-.29,0-.57-4.51-8.06-4.58-7.81-.08-12.25,3.77-12.29,8.6-.04,4.21,6.04,5.95,5.99,11.18-.04,3.81-4.64,5.91-8.42,5.88-3.27-.03-5.87-1.58-8.12-2.22-.4-.11-.69-.08-.69-.22Z"/><path class="cls-13" d="m23.72,74.25c0,.61-.63,1.43-.63,1.91,0,.27.14.42.44.43.65,0,1.93-1.31,2.8-2,.11-.1.3-.17.46-.17.17,0,.32.09.31.3,0,.34-.22,1.01-.23,1.45,0,.25.14.38.38.38.97,0,3.22-1.63,3.79-2.11.04-.02.06-.04.11-.04.06,0,.13.04.12.13,0,.04-.02.11-.06.15-.81.79-3.78,2.7-5.11,2.69-.57,0-.71-.3-.71-.64,0-.34.15-.67.16-.82,0-.04-.02-.06-.04-.06-.42,0-1.7,1.57-3.43,1.55-.42,0-.92-.24-.92-.73,0-.99.86-1.57.87-2.21,0-.25-.14-.38-.38-.38-.36,0-.76.14-1.44.66-.15.1-.28.15-.34.15-.06,0-.08-.04-.08-.09,0-.06.04-.13.11-.19.6-.56,1.74-1.12,2.54-1.11.99,0,1.28.33,1.28.75Z"/><path class="cls-13" d="m31.14,72.43h-.19c-5.19-.05-7.56-3.11-7.54-5.66.02-1.86,1.3-3.43,3.66-3.4.95,0,1.92.29,2.69.87,0,.06-.02.11-.11.1h-.04c-.48-.09-.93-.14-1.33-.14-2.26-.02-3.34,1.27-3.36,2.83-.02,2.26,2.21,5.06,6.32,5.1,1.39-3.84,4.76-8.03,7.29-8,1.24.01,1.81.67,1.8,1.6-.02,2.17-3.14,5.87-7.74,6.59-.22.76-.33,1.49-.34,2.13-.01,1.12.34,1.88,1.2,1.89,1.05.01,2.2-.55,3.65-1.78.04-.02.06-.04.11-.04.06,0,.13.04.12.13,0,.04-.02.11-.06.15-1.28,1.08-3.48,2.6-5.02,2.59-1.16-.01-1.64-.86-1.62-2.15,0-.84.19-1.81.51-2.8Zm1.54-.45c3.64-.87,6.29-4.87,6.31-6.64,0-.53-.22-.85-.71-.85-1.94-.02-4.57,4.07-5.6,7.49Z"/><path class="cls-13" d="m37.26,72.49h-.19c-5.19-.05-7.56-3.11-7.54-5.66.02-1.86,1.3-3.42,3.66-3.4.95,0,1.92.29,2.69.87,0,.06-.02.11-.11.1h-.04c-.48-.09-.93-.14-1.33-.14-2.26-.02-3.34,1.28-3.36,2.84-.02,2.26,2.21,5.06,6.32,5.1,1.39-3.84,4.76-8.03,7.29-8,1.24.01,1.81.67,1.8,1.6-.02,2.17-3.14,5.87-7.74,6.59-.22.76-.33,1.49-.34,2.13-.01,1.12.34,1.88,1.2,1.89,1.05,0,2.2-.55,3.65-1.78.04-.02.06-.04.11-.04.06,0,.13.04.13.13,0,.04-.02.11-.07.15-1.28,1.08-3.48,2.6-5.02,2.59-1.16-.01-1.64-.86-1.62-2.15,0-.84.19-1.81.51-2.8Zm1.54-.45c3.64-.87,6.29-4.87,6.31-6.64,0-.53-.22-.85-.71-.85-1.94-.02-4.57,4.07-5.6,7.49Z"/><path class="cls-13" d="m45.34,76.3c0,.32.14.53.58.53,1.25.01,3.88-1.73,4.37-2.19.04-.04.06-.04.11-.04.06,0,.13.04.12.13,0,.04-.02.11-.06.15-.53.5-4.39,2.93-6.06,2.91-.49,0-.8-.22-.79-.75,0-.99.63-1.77.63-2.4,0-.19-.06-.28-.21-.28-.25,0-.57.16-1.31.66-.08.04-.15.06-.19.06-.08,0-.13-.04-.13-.11,0-.04.04-.1.11-.15.77-.67,1.76-1.14,2.48-1.14.59,0,.99.22.99.56,0,.4-.62,1.41-.63,2.04Zm1.31-4.44c0,.44-.47,1.05-.98,1.04-.4,0-.61-.32-.6-.64,0-.42.35-.9.98-.92.44,0,.61.22.61.51Z"/><path class="cls-13" d="m54.92,75.74c-.72.63-2.66,1.89-3.69,1.88-.57,0-.74-.28-.73-.68,0-.7.59-1.77.59-2.21,0-.21-.04-.32-.14-.32-.17,0-.36.12-1.12.62-.11.08-.23.12-.32.12-.06,0-.13-.04-.13-.08,0-.04.04-.08.13-.17.81-.65,1.55-1.1,2.35-1.09.84,0,1.09.35,1.09.79,0,.67-.61,1.6-.61,2.04,0,.08.04.13.15.13.59,0,1.99-.97,2.06-1.18.02-.08.02-.17.02-.23,0-.23-.08-.4-.12-.53-.02-.08-.04-.13-.04-.19,0-.25.98-1.04,1.21-1.04.08,0,.13.02.13.09-.01,1.05,1.12,1.49,1.88,1.49.49,0,.97-.16,1.31-.45.04-.02.06-.04.11-.04.06,0,.13.04.13.13,0,.04-.02.1-.07.15-.34.36-1.7,1.21-2.75,1.2-.46,0-.95-.13-1.32-.5l-.11.08Z"/><path class="cls-13" d="m66.03,74.82c-.02.19-.24.88-.25,1.47,0,.44.12.82.58.83,1.26.01,3.54-1.78,4.11-2.24.04-.02.06-.04.11-.04.06,0,.13.04.12.13,0,.04-.02.11-.06.15-1.21,1.04-3.63,2.66-5.04,2.65-1.14-.01-1.41-.6-1.4-1.17,0-.55.26-1.09.26-1.09-1.09,1.17-3.31,2.35-5.04,2.33-.99,0-1.43-.37-1.43-.86.01-1.24,2.82-3.39,6.51-3.35.11,0,.19.02.23.02.13.02.17.06.17.11,0,.06-.11.15-.21.15-2.87.01-4.3,1.65-4.31,2.55,0,.34.21.57.61.58,1.22.01,3.05-1.17,3.69-2.2.11-.17.78-.25,1.04-.24,0,0,.32,0,.31.24Z"/><path class="cls-13" d="m73.87,75.02c0,.34-.13.72-.37,1.16.04,0,.08,0,.15-.08.26-.31,1.49-1.1,2.65-1.09,1.77.02.7,2.07,1.46,2.08,1.27.01,3.29-1.63,3.86-2.09.04-.02.06-.04.11-.04.06,0,.13.04.12.13,0,.04-.02.11-.06.15-1.21,1.04-3.72,2.75-5.51,2.73-1.16-.01-.31-2.32-1.18-2.33-.25,0-1.29.35-2.23,1.77-.11.15-.59.33-.93.33-.19,0-.34-.07-.34-.21,0-.06.02-.13.07-.23.15-.4.73-1.62.74-2.36,0-.36-.12-.61-.5-.62-.51,0-1.25.54-1.76.93-.15.1-.28.15-.34.14-.06,0-.1-.04-.1-.09,0-.06.04-.13.13-.19.94-.81,1.85-1.21,2.52-1.2,1.03.03,1.54.44,1.53,1.11Z"/><path class="cls-11" d="m21.7,87.66h-.79s-.24-2.88-.24-2.88h.81s.04,2.07.04,2.07l.83-2.09h.77s.03,2.08.03,2.08l.87-2.1h.79s-1.41,2.91-1.41,2.91h-.78s-.04-2.1-.04-2.1l-.88,2.12Z"/><path class="cls-11" d="m25.83,87.6h-.79s-.24-2.88-.24-2.88h.81s.04,2.07.04,2.07l.83-2.09h.77s.03,2.08.03,2.08l.87-2.1h.79s-1.41,2.91-1.41,2.91h-.78s-.04-2.1-.04-2.1l-.88,2.12Z"/><path class="cls-11" d="m29.95,87.54h-.79s-.24-2.88-.24-2.88h.81s.04,2.07.04,2.07l.83-2.09h.77s.03,2.08.03,2.08l.87-2.1h.79s-1.41,2.91-1.41,2.91h-.78s-.04-2.1-.04-2.1l-.88,2.12Z"/><path class="cls-11" d="m32.78,87.5l.16-.79h.81s-.16.78-.16.78h-.81Z"/><path class="cls-11" d="m35.8,84.63c.15-.09.33-.14.54-.14.38,0,.65.13.81.4.16.27.2.63.11,1.06-.09.45-.27.83-.54,1.13-.27.3-.6.45-.98.46-.24,0-.42-.04-.55-.14-.08-.05-.15-.15-.22-.29l-.07.37h-.74s.77-3.91.77-3.91h.75s-.28,1.39-.28,1.39c.12-.14.25-.24.38-.31Zm.37,2.04c.14-.16.23-.37.29-.63.04-.21.05-.38.02-.51-.05-.26-.21-.38-.48-.38-.27,0-.49.13-.64.38-.08.13-.14.31-.18.52-.05.25-.04.45.04.62.08.16.23.24.45.24.2,0,.36-.08.5-.24Z"/><path class="cls-11" d="m38,84.53h.77s-.57,2.9-.57,2.9h-.77s.57-2.9.57-2.9Zm.21-1.05h.77s-.14.69-.14.69h-.77s.14-.69.14-.69Z"/><path class="cls-11" d="m41.73,84.85c.18.3.23.67.15,1.08-.08.43-.28.79-.58,1.1s-.71.46-1.2.47c-.5,0-.84-.14-1.02-.44s-.23-.66-.15-1.09c.08-.42.28-.78.58-1.1.31-.31.71-.47,1.21-.48s.84.14,1.02.45Zm-1.15.2c-.22,0-.41.08-.56.24-.15.16-.25.38-.31.67-.06.29-.04.52.04.67.09.16.24.23.46.23.22,0,.41-.08.56-.24.15-.16.25-.38.31-.68s.04-.52-.04-.67c-.09-.16-.24-.23-.46-.23Z"/><path class="cls-11" d="m43.96,86.3h.77c-.06.22-.19.44-.38.65-.3.34-.69.51-1.15.51-.47,0-.78-.13-.95-.4s-.2-.63-.11-1.08c.1-.5.29-.89.59-1.17.3-.28.66-.42,1.09-.43.36,0,.64.07.84.23s.28.45.24.86h-.78c0-.1,0-.19-.05-.28-.06-.12-.18-.17-.36-.17-.25,0-.45.13-.6.39-.08.14-.14.32-.18.54-.04.21-.05.38-.03.51.04.24.19.36.44.35.18,0,.31-.05.41-.15.09-.1.16-.22.21-.38Z"/><path class="cls-11" d="m47.87,84.76c.18.3.23.67.15,1.08-.08.43-.28.79-.58,1.1-.3.31-.71.46-1.2.47s-.84-.14-1.02-.44c-.18-.3-.23-.66-.15-1.09.08-.42.28-.78.58-1.1.31-.31.71-.47,1.21-.48.5,0,.84.14,1.02.45Zm-1.15.2c-.22,0-.41.08-.56.24-.15.16-.25.38-.31.67s-.04.52.05.67c.09.16.24.23.46.23s.41-.08.56-.24c.15-.16.25-.39.31-.68.06-.29.04-.52-.05-.67-.09-.16-.24-.23-.46-.23Z"/><path class="cls-11" d="m50.36,85.49c.03-.15.03-.27,0-.35-.04-.15-.17-.22-.38-.22-.26,0-.46.11-.59.33-.07.12-.13.26-.16.44l-.31,1.57h-.75s.57-2.89.57-2.89h.73s-.08.41-.08.41c.13-.15.24-.26.34-.33.18-.12.39-.18.63-.18.3,0,.53.07.69.23.16.16.2.42.13.78l-.39,1.96h-.78s.35-1.76.35-1.76Z"/><path class="cls-11" d="m53.48,84.36c.12.08.21.18.27.32l.27-1.39h.77s-.77,3.91-.77,3.91h-.74s.08-.39.08-.39c-.14.17-.29.3-.45.38-.15.08-.33.12-.54.12-.34,0-.6-.13-.77-.4-.18-.27-.22-.62-.14-1.05.1-.5.29-.89.58-1.18s.62-.43,1-.44c.18,0,.32.03.45.11Zm-.41.55c-.22,0-.4.09-.54.26-.14.17-.23.38-.28.63-.05.27-.04.48.03.64.07.16.22.24.43.23s.39-.08.54-.25c.14-.16.24-.37.29-.62.07-.36.03-.61-.12-.76-.09-.09-.21-.14-.36-.13Z"/><path class="cls-11" d="m56.53,86.76s-.03.04-.07.08c-.04.05-.08.08-.12.12-.14.11-.27.18-.39.22-.12.04-.25.06-.4.06-.43,0-.69-.14-.77-.45-.05-.17-.04-.42.03-.75l.34-1.75h.78s-.34,1.74-.34,1.74c-.03.17-.04.29-.02.37.04.15.16.22.36.21.26,0,.46-.11.59-.32.07-.11.13-.26.16-.45l.31-1.58h.77s-.57,2.9-.57,2.9h-.74s.08-.4.08-.4Z"/><path class="cls-11" d="m59.74,86.08h.77c-.06.22-.19.44-.38.65-.3.34-.69.51-1.16.51s-.78-.13-.95-.4c-.16-.27-.2-.63-.11-1.08.1-.5.29-.89.59-1.17.3-.28.66-.42,1.09-.43.36,0,.64.07.84.23.2.16.28.45.24.86h-.78c0-.1,0-.19-.05-.28-.06-.12-.18-.17-.36-.17-.25,0-.45.13-.6.39-.08.14-.14.32-.18.54-.04.21-.05.38-.03.51.04.24.19.36.44.36.18,0,.31-.05.41-.15.09-.1.16-.22.21-.38Z"/><path class="cls-11" d="m61.74,86.3c-.02.12-.02.19,0,.22s.11.04.27.04c.02,0,.05,0,.07,0s.05,0,.08,0l-.11.57-.36.02c-.36.02-.59-.04-.7-.18-.07-.09-.08-.22-.05-.4l.35-1.79h-.4s.11-.54.11-.54h.4s.16-.82.16-.82h.75s-.16.8-.16.8h.47s-.11.54-.11.54h-.47s-.31,1.54-.31,1.54Z"/><path class="cls-11" d="m65.35,84.52c.18.3.23.67.15,1.08-.08.43-.28.79-.58,1.1s-.71.46-1.2.47-.84-.14-1.02-.44c-.18-.3-.23-.66-.15-1.09.08-.42.28-.78.58-1.09.31-.31.71-.47,1.21-.48.5,0,.84.14,1.02.45Zm-1.15.2c-.22,0-.41.08-.56.24-.15.16-.25.38-.31.67s-.04.52.04.67c.09.16.24.23.46.23s.41-.08.56-.24c.15-.16.25-.39.31-.68.06-.29.04-.51-.04-.67-.09-.16-.24-.23-.46-.23Z"/><path class="cls-11" d="m67.85,84.04s.03,0,.06,0l-.15.78s-.09,0-.12,0c-.04,0-.07,0-.09,0-.3,0-.53.11-.67.31-.08.11-.14.29-.19.52l-.27,1.39h-.76s.57-2.9.57-2.9h.72s-.1.5-.1.5c.16-.2.28-.33.38-.4.17-.12.36-.18.59-.19h.04Z"/><path class="cls-11" d="m67.65,87.01l.16-.79h.8s-.16.78-.16.78h-.81Z"/><path class="cls-11" d="m71.98,84.42c.18.3.23.67.15,1.08-.08.43-.28.79-.58,1.1-.3.31-.71.46-1.2.47s-.84-.14-1.02-.44c-.18-.3-.23-.66-.15-1.09.08-.42.28-.78.58-1.09.31-.31.71-.47,1.21-.48s.84.14,1.02.45Zm-1.15.2c-.22,0-.41.08-.56.24s-.25.38-.31.68c-.06.29-.04.52.04.67s.24.23.46.23.41-.08.56-.24c.15-.16.25-.39.31-.68s.04-.52-.04-.67c-.09-.16-.24-.23-.46-.23Z"/><path class="cls-11" d="m74.48,83.95s.03,0,.06,0l-.15.78s-.09,0-.12,0-.07,0-.09,0c-.31,0-.53.11-.67.31-.08.11-.14.29-.19.52l-.27,1.39h-.76s.57-2.9.57-2.9h.72s-.1.5-.1.5c.16-.19.28-.33.38-.4.17-.12.36-.18.59-.19h.04Z"/><path class="cls-11" d="m75.24,88.09c-.37,0-.66-.06-.86-.21s-.29-.36-.26-.65h.82c0,.08.03.14.07.18.07.07.2.1.39.1.27,0,.47-.1.6-.28.08-.12.15-.32.21-.59l.04-.19c-.1.12-.19.22-.29.28-.17.12-.38.18-.62.18-.37,0-.64-.12-.81-.38s-.21-.61-.12-1.06c.08-.43.26-.8.54-1.09s.61-.45,1-.45c.15,0,.27.02.37.06.17.07.29.21.36.41l.08-.42h.74s-.55,2.75-.55,2.75c-.07.37-.19.66-.35.85-.28.33-.73.5-1.34.51Zm-.06-2.62c-.03.17-.03.32,0,.45.05.24.21.36.48.36.18,0,.34-.07.49-.21.15-.14.25-.35.31-.64.05-.28.04-.48-.05-.63-.09-.14-.23-.21-.42-.21-.27,0-.47.13-.62.38-.08.13-.14.3-.18.5Z"/><line class="cls-4" x1="40.53" y1="40.19" x2="69.42" y2="40.14"/><rect class="cls-5" x="9.28" y="17.77" width="30.25" height="19.46" transform="translate(.08 -.07) rotate(.18)"/><rect class="cls-10" x="9.35" y=".09" width="60.77" height="10.06" rx="1.3" ry="1.3" transform="translate(.02 -.12) rotate(.18)"/><path class="cls-10" d="m41.76,39.51l26.25.08-.05,15.46-26.25-.08.05-15.46m-1.99-2.01l-.06,19.46,30.25.09.06-19.46-30.25-.09h0Z"/><polygon class="cls-9" points="4.38 30.95 0 27.66 1.42 25.77 3.92 27.64 3.95 16.52 6.31 16.53 6.26 32.37 4.38 30.95"/><polygon class="cls-12" points="22.54 13.15 19.28 8.75 17.38 10.16 19.24 12.66 8.11 12.63 8.11 14.99 23.95 15.04 22.54 13.15"/><polygon class="cls-8" points="57.05 32.04 53.79 27.64 51.89 29.04 53.75 31.55 42.63 31.52 42.62 33.88 58.46 33.93 57.05 32.04"/><polygon class="cls-11" points="34.34 54.86 29.96 51.57 31.37 49.68 33.87 51.55 33.9 40.43 36.27 40.44 36.22 56.28 34.34 54.86"/><line class="cls-2" x1="9.84" y1="20.89" x2="39.01" y2="21.01"/><line class="cls-5" x1="8.86" y1="23.92" x2="39.54" y2="24.05"/><line class="cls-5" x1="8.88" y1="30.32" x2="38.9" y2="30.45"/><line class="cls-5" x1="31.37" y1="17.42" x2="31.28" y2="37.03"/><line class="cls-5" x1="23.95" y1="17.61" x2="23.86" y2="37.22"/><line class="cls-5" x1="16.54" y1="17.67" x2="16.45" y2="37.27"/><line class="cls-5" x1="40.44" y1="42.26" x2="69.77" y2="42.38"/><line class="cls-5" x1="40.99" y1="47.11" x2="69.75" y2="47.23"/><line class="cls-5" x1="40.4" y1="52.04" x2="69.74" y2="52.16"/><line class="cls-5" x1="59.58" y1="38.06" x2="59.5" y2="56.5"/><line class="cls-5" x1="49.26" y1="37.93" x2="49.17" y2="56.81"/><rect class="cls-6" x="36.75" y="10.02" width="5.55" height="6.39"/><polygon class="cls-6" points="39.52 21.57 33.86 15.9 45.19 15.91 39.52 21.57"/></g></svg>