<?xml version="1.0" encoding="UTF-8"?><svg id="_レイヤー_2" xmlns="http://www.w3.org/2000/svg" xmlns:xlink="http://www.w3.org/1999/xlink" viewBox="0 0 136.22 130.26"><defs><style>.cls-1{opacity:.6;}.cls-1,.cls-2,.cls-3,.cls-4,.cls-5,.cls-6{fill:none;}.cls-2{opacity:.83;}.cls-7{fill:#040000;}.cls-8{fill:#fff;}.cls-9{fill:#f39800;}.cls-10{fill:#656565;}.cls-11{fill:#c2c2c2;}.cls-12{fill:#b3b3b3;}.cls-13{fill:#a6a6a6;}.cls-14{fill:#bdbdbd;}.cls-15{fill:#d5d5d5;}.cls-16{fill:#262626;}.cls-17{fill:#4e3840;}.cls-18{fill:url(#_名称未設定グラデーション_17-10);}.cls-19{fill:url(#_名称未設定グラデーション_17-11);}.cls-20{fill:url(#_名称未設定グラデーション_17-13);}.cls-21{fill:url(#_名称未設定グラデーション_17-12);}.cls-22{fill:url(#_名称未設定グラデーション_14-20);}.cls-23{fill:url(#_名称未設定グラデーション_14-21);}.cls-24{fill:url(#_名称未設定グラデーション_14-22);}.cls-25{fill:url(#_名称未設定グラデーション_14-19);}.cls-26{fill:url(#_名称未設定グラデーション_14-18);}.cls-27{fill:url(#_名称未設定グラデーション_14-17);}.cls-28{fill:url(#_名称未設定グラデーション_14-14);}.cls-29{fill:url(#_名称未設定グラデーション_14-13);}.cls-30{fill:url(#_名称未設定グラデーション_14-16);}.cls-31{fill:url(#_名称未設定グラデーション_14-15);}.cls-32{fill:url(#_名称未設定グラデーション_14-10);}.cls-33{fill:url(#_名称未設定グラデーション_14-12);}.cls-34{fill:url(#_名称未設定グラデーション_14-11);}.cls-35{fill:url(#_名称未設定グラデーション_58-10);}.cls-36{fill:url(#_名称未設定グラデーション_58-11);}.cls-37{fill:url(#_名称未設定グラデーション_58-12);}.cls-3{stroke:#231815;stroke-miterlimit:2;stroke-width:4.81px;}.cls-4{stroke-miterlimit:3;stroke-width:7.22px;}.cls-4,.cls-5{stroke:#fff;}.cls-38{fill:url(#_名称未設定グラデーション_58-2);}.cls-39{fill:url(#_名称未設定グラデーション_58-3);}.cls-40{fill:url(#_名称未設定グラデーション_58-4);}.cls-41{fill:url(#_名称未設定グラデーション_58-7);}.cls-42{fill:url(#_名称未設定グラデーション_58-8);}.cls-43{fill:url(#_名称未設定グラデーション_58-5);}.cls-44{fill:url(#_名称未設定グラデーション_58-6);}.cls-45{fill:url(#_名称未設定グラデーション_58-9);}.cls-46{fill:url(#_名称未設定グラデーション_14-4);}.cls-47{fill:url(#_名称未設定グラデーション_14-8);}.cls-48{fill:url(#_名称未設定グラデーション_14-5);}.cls-49{fill:url(#_名称未設定グラデーション_14-6);}.cls-50{fill:url(#_名称未設定グラデーション_14-9);}.cls-51{fill:url(#_名称未設定グラデーション_14-7);}.cls-52{fill:url(#_名称未設定グラデーション_14-3);}.cls-53{fill:url(#_名称未設定グラデーション_14-2);}.cls-54{fill:url(#_名称未設定グラデーション_17-5);}.cls-55{fill:url(#_名称未設定グラデーション_17-2);}.cls-56{fill:url(#_名称未設定グラデーション_17-4);}.cls-57{fill:url(#_名称未設定グラデーション_17-9);}.cls-58{fill:url(#_名称未設定グラデーション_17-8);}.cls-59{fill:url(#_名称未設定グラデーション_17-3);}.cls-60{fill:url(#_名称未設定グラデーション_17-6);}.cls-61{fill:url(#_名称未設定グラデーション_17-7);}.cls-62{fill:url(#_名称未設定グラデーション_17);}.cls-63{fill:url(#_名称未設定グラデーション_58);}.cls-5{stroke-linecap:round;stroke-linejoin:round;stroke-width:1.5px;}.cls-6{stroke:url(#_名称未設定グラデーション_14);stroke-width:2.75px;}</style><linearGradient id="_名称未設定グラデーション_17" x1="42.88" y1="66.92" x2="77.64" y2="38.95" gradientTransform="translate(61.38 1.9) rotate(43.1)" gradientUnits="userSpaceOnUse"><stop offset="0" stop-color="#6fc9f2"/><stop offset="1" stop-color="#eb6785"/></linearGradient><linearGradient id="_名称未設定グラデーション_17-2" x1="49.76" y1="75.47" x2="84.52" y2="47.5" gradientTransform="translate(55.91 -10.35) rotate(36.23)" xlink:href="#_名称未設定グラデーション_17"/><linearGradient id="_名称未設定グラデーション_17-3" x1="44.18" y1="68.53" x2="78.93" y2="40.56" gradientTransform="translate(34.57 -15.5) rotate(27.02)" xlink:href="#_名称未設定グラデーション_17"/><linearGradient id="_名称未設定グラデーション_17-4" x1="37.08" y1="59.71" x2="71.84" y2="31.74" gradientTransform="translate(73.74 -10.36) rotate(64.49)" xlink:href="#_名称未設定グラデーション_17"/><linearGradient id="_名称未設定グラデーション_17-5" x1="33.81" y1="55.64" x2="68.56" y2="27.67" gradientTransform="translate(40.36 -5.56) rotate(35.81)" xlink:href="#_名称未設定グラデーション_17"/><linearGradient id="_名称未設定グラデーション_17-6" x1="18.49" y1="36.6" x2="53.24" y2="8.64" gradientTransform="translate(28.93 .41) rotate(39.69)" xlink:href="#_名称未設定グラデーション_17"/><linearGradient id="_名称未設定グラデーション_17-7" x1="22.45" y1="41.52" x2="57.2" y2="13.55" gradientTransform="translate(46.65 -4.13) rotate(60.46)" xlink:href="#_名称未設定グラデーション_17"/><linearGradient id="_名称未設定グラデーション_17-8" x1="46.65" y1="71.6" x2="81.41" y2="43.64" gradientTransform="translate(45.25 -36.34) rotate(37.7)" xlink:href="#_名称未設定グラデーション_17"/><linearGradient id="_名称未設定グラデーション_17-9" x1="31.73" y1="53.06" x2="66.49" y2="25.1" gradientTransform="translate(31.5 -35.2) rotate(39.41)" xlink:href="#_名称未設定グラデーション_17"/><linearGradient id="_名称未設定グラデーション_17-10" x1="24.27" y1="43.79" x2="59.03" y2="15.83" gradientTransform="translate(2.15 -4.63) rotate(5.19)" xlink:href="#_名称未設定グラデーション_17"/><linearGradient id="_名称未設定グラデーション_14" x1="26.43" y1="70.72" x2="47.09" y2="70.72" gradientUnits="userSpaceOnUse"><stop offset="0" stop-color="#ee87b4"/><stop offset="1" stop-color="#00b9ef"/></linearGradient><linearGradient id="_名称未設定グラデーション_17-11" x1="53.11" y1="79.63" x2="87.86" y2="51.66" gradientTransform="translate(131.42 -25.26) rotate(85.47)" xlink:href="#_名称未設定グラデーション_17"/><linearGradient id="_名称未設定グラデーション_17-12" x1="45.69" y1="70.41" x2="80.45" y2="42.44" gradientTransform="translate(50.54 -61.66) rotate(46.11)" xlink:href="#_名称未設定グラデーション_17"/><linearGradient id="_名称未設定グラデーション_17-13" x1="53.74" y1="80.42" x2="88.5" y2="52.45" gradientTransform="translate(134.31 -66.36) rotate(84.79)" xlink:href="#_名称未設定グラデーション_17"/><linearGradient id="_名称未設定グラデーション_58" x1="85.22" y1="-9.85" x2="-3.83" y2="71.01" gradientUnits="userSpaceOnUse"><stop offset="0" stop-color="#e95079"/><stop offset="1" stop-color="#00a6ea"/></linearGradient><linearGradient id="_名称未設定グラデーション_58-2" x1="108.82" y1="16.15" x2="19.77" y2="97" xlink:href="#_名称未設定グラデーション_58"/><linearGradient id="_名称未設定グラデーション_58-3" x1="78.03" y1="-17.76" x2="-11.02" y2="63.09" xlink:href="#_名称未設定グラデーション_58"/><linearGradient id="_名称未設定グラデーション_58-4" x1="103.7" y1="10.51" x2="14.65" y2="91.37" xlink:href="#_名称未設定グラデーション_58"/><linearGradient id="_名称未設定グラデーション_58-5" x1="70.67" y1="-25.87" x2="-18.38" y2="54.98" xlink:href="#_名称未設定グラデーション_58"/><linearGradient id="_名称未設定グラデーション_58-6" x1="109.32" y1="16.7" x2="20.27" y2="97.55" xlink:href="#_名称未設定グラデーション_58"/><linearGradient id="_名称未設定グラデーション_58-7" x1="126.32" y1="35.42" x2="37.27" y2="116.28" xlink:href="#_名称未設定グラデーション_58"/><linearGradient id="_名称未設定グラデーション_58-8" x1="80.07" y1="-15.52" x2="-8.98" y2="65.34" xlink:href="#_名称未設定グラデーション_58"/><linearGradient id="_名称未設定グラデーション_58-9" x1="93.57" y1="-.65" x2="4.52" y2="80.21" xlink:href="#_名称未設定グラデーション_58"/><linearGradient id="_名称未設定グラデーション_58-10" x1="94.55" y1=".43" x2="5.5" y2="81.29" xlink:href="#_名称未設定グラデーション_58"/><linearGradient id="_名称未設定グラデーション_58-11" x1="110.63" y1="18.14" x2="21.58" y2="98.99" xlink:href="#_名称未設定グラデーション_58"/><linearGradient id="_名称未設定グラデーション_58-12" x1="120.92" y1="29.48" x2="31.87" y2="110.33" xlink:href="#_名称未設定グラデーション_58"/><linearGradient id="_名称未設定グラデーション_14-2" x1="79.83" y1="54.38" x2="124.86" y2="101.4" xlink:href="#_名称未設定グラデーション_14"/><linearGradient id="_名称未設定グラデーション_14-3" x1="73.21" y1="55.22" x2="87.88" y2="55.22" xlink:href="#_名称未設定グラデーション_14"/><linearGradient id="_名称未設定グラデーション_14-4" x1="89.94" y1="70.16" x2="97.83" y2="70.16" xlink:href="#_名称未設定グラデーション_14"/><linearGradient id="_名称未設定グラデーション_14-5" x1="72.47" y1="86.81" x2="80.36" y2="86.81" xlink:href="#_名称未設定グラデーション_14"/><linearGradient id="_名称未設定グラデーション_14-6" x1="107.44" y1="78.48" x2="115.33" y2="78.48" xlink:href="#_名称未設定グラデーション_14"/><linearGradient id="_名称未設定グラデーション_14-7" x1="116.18" y1="86.81" x2="124.06" y2="86.81" xlink:href="#_名称未設定グラデーション_14"/><linearGradient id="_名称未設定グラデーション_14-8" x1="89.6" y1="63.98" x2="104.9" y2="63.98" xlink:href="#_名称未設定グラデーション_14"/><linearGradient id="_名称未設定グラデーション_14-9" x1="105.01" y1="74.89" x2="120.3" y2="74.89" xlink:href="#_名称未設定グラデーション_14"/><linearGradient id="_名称未設定グラデーション_14-10" x1="84.8" y1="49.63" x2="129.82" y2="96.64" xlink:href="#_名称未設定グラデーション_14"/><linearGradient id="_名称未設定グラデーション_14-11" x1="87.39" y1="47.15" x2="132.41" y2="94.16" xlink:href="#_名称未設定グラデーション_14"/><linearGradient id="_名称未設定グラデーション_14-12" x1="120.53" y1="85.5" x2="135.83" y2="85.5" xlink:href="#_名称未設定グラデーション_14"/><linearGradient id="_名称未設定グラデーション_14-13" x1="90.19" y1="44.47" x2="135.21" y2="91.48" xlink:href="#_名称未設定グラデーション_14"/><linearGradient id="_名称未設定グラデーション_14-14" x1="18.56" y1="132.95" x2="121.55" y2="84.92" xlink:href="#_名称未設定グラデーション_14"/><linearGradient id="_名称未設定グラデーション_14-15" x1="18.56" y1="132.95" x2="121.55" y2="84.92" xlink:href="#_名称未設定グラデーション_14"/><linearGradient id="_名称未設定グラデーション_14-16" x1="18.56" y1="132.95" x2="121.55" y2="84.92" xlink:href="#_名称未設定グラデーション_14"/><linearGradient id="_名称未設定グラデーション_14-17" x1="18.56" y1="132.95" x2="121.55" y2="84.92" xlink:href="#_名称未設定グラデーション_14"/><linearGradient id="_名称未設定グラデーション_14-18" x1="18.56" y1="132.95" x2="121.55" y2="84.92" xlink:href="#_名称未設定グラデーション_14"/><linearGradient id="_名称未設定グラデーション_14-19" x1="18.56" y1="132.95" x2="121.55" y2="84.92" xlink:href="#_名称未設定グラデーション_14"/><linearGradient id="_名称未設定グラデーション_14-20" x1="18.56" y1="132.95" x2="121.55" y2="84.92" xlink:href="#_名称未設定グラデーション_14"/><linearGradient id="_名称未設定グラデーション_14-21" x1="18.56" y1="132.95" x2="121.55" y2="84.92" xlink:href="#_名称未設定グラデーション_14"/><linearGradient id="_名称未設定グラデーション_14-22" x1="18.56" y1="132.95" x2="121.55" y2="84.92" xlink:href="#_名称未設定グラデーション_14"/></defs><g id="_レイヤー_1-2"><rect class="cls-62" x="16.67" y="77.98" width="23.24" height="1.38" transform="translate(-46.12 40.55) rotate(-43.1)"/><rect class="cls-55" x="43.08" y="68.43" width="1.38" height="23.72" transform="translate(-38.99 41.39) rotate(-36.23)"/><rect class="cls-59" x="35.2" y="63.52" width="28.72" height="1.37" transform="translate(-23.76 29.52) rotate(-27.02)"/><rect class="cls-56" x="25.75" y="52.59" width="38.66" height="1.38" transform="translate(-22.42 71.01) rotate(-64.49)"/><rect class="cls-54" x="28.1" y="46.05" width="1.37" height="27.24" transform="translate(-29.47 28.13) rotate(-35.81)"/><rect class="cls-60" x="13.21" y="29.46" width="1.38" height="21.67" transform="translate(-22.53 18.16) rotate(-39.69)"/><rect class="cls-61" x="14.61" y="37.27" width="24.52" height="1.38" transform="translate(-19.41 42.62) rotate(-60.46)"/><rect class="cls-58" x="60.87" y="47.42" width="29.98" height="1.37" transform="translate(-13.58 56.43) rotate(-37.7)"/><rect class="cls-57" x="50.02" y="25.69" width="29.75" height="1.37" transform="translate(-1.99 47.2) rotate(-39.41)"/><rect class="cls-18" x="51.4" y="6.92" width="1.38" height="28.96" transform="translate(-1.72 4.8) rotate(-5.19)"/><circle class="cls-6" cx="36.76" cy="70.72" r="8.96"/><circle class="cls-8" cx="36.76" cy="70.72" r="8.96"/><rect class="cls-19" x="78.69" y="43.06" width="1.38" height="30.86" transform="translate(14.8 133) rotate(-85.47)"/><rect class="cls-21" x="83.3" y="27.87" width="28.82" height="1.38" transform="translate(9.39 79.17) rotate(-46.11)"/><rect class="cls-20" x="102.81" y="24.53" width="1.38" height="31.7" transform="translate(53.89 139.78) rotate(-84.79)"/><circle class="cls-63" cx="20.82" cy="48.63" r="6.98"/><circle class="cls-38" cx="64" cy="56.85" r="6.98"/><circle class="cls-39" cx="50.78" cy="6.98" r="6.98"/><circle class="cls-40" cx="17.24" cy="89.02" r="6.98"/><circle class="cls-43" cx="6.98" cy="31.95" r="6.98"/><circle class="cls-44" cx="107.7" cy="18.17" r="6.98"/><circle class="cls-41" cx="119.28" cy="41.82" r="6.98"/><circle class="cls-42" cx="32.91" cy="27.3" r="6.98"/><circle class="cls-45" cx="53.4" cy="35.83" r="6.98"/><circle class="cls-35" cx="76.38" cy="16.93" r="6.98"/><circle class="cls-8" cx="94.76" cy="59.71" r="6.98"/><circle class="cls-36" cx="87.72" cy="38.94" r="6.98"/><circle class="cls-37" cx="52.09" cy="91.97" r="6.98"/><path class="cls-8" d="m97.88,45.62c-.47,0-1.14.16-1.14.16l-23.56,8.12s-1.01.53-1.5,1.19-.45,1.42-.45,1.42v33.27s-.11.79.19,1.32.69.68.69.68l23.86,10.05s.83.3,1.92.3h.06c1.09,0,1.92-.3,1.92-.3l23.86-10.05s.39-.15.69-.68.19-1.32.19-1.32v-33.27s.04-.76-.45-1.42c-.49-.66-1.5-1.19-1.5-1.19l-23.56-8.12s-.67-.16-1.14-.16h-.06Z"/><path class="cls-53" d="m97.94,102.48h-.06c-1.14,0-2-.31-2.04-.32l-23.87-10.05s-.51-.21-.86-.83c-.33-.58-.26-1.35-.24-1.52v-33.25s-.04-.88.52-1.63c.53-.72,1.58-1.27,1.62-1.29l.05-.02,23.56-8.12c.06-.02.75-.18,1.25-.18h.06c.5,0,1.19.16,1.22.17l23.65,8.15s1.09.57,1.62,1.29c.56.75.53,1.61.52,1.65v33.23c.02.17.09.95-.24,1.52-.35.62-.82.82-.87.84l-23.85,10.04c-.05.02-.92.33-2.06.33Zm-1.84-.99s.78.27,1.78.27h.06c1.01,0,1.79-.28,1.8-.28l23.84-10.04s.29-.13.52-.53c.2-.34.17-.91.15-1.1v-.05s0-33.27,0-33.27c0-.02.02-.66-.38-1.2-.4-.54-1.21-1-1.36-1.07l-23.54-8.11h0s-.61-.14-1.02-.14h-.06c-.35,0-.88.11-1.05.15l-23.5,8.1c-.14.08-.96.54-1.36,1.07-.4.54-.38,1.18-.38,1.19v33.31s0,.03,0,.03c-.03.19-.05.75.14,1.09.23.4.51.52.52.53l23.86,10.05h0Z"/><g class="cls-2"><path class="cls-12" d="m96.53,51.52l-5.86-2.04c-.45-.16-.44-.42.03-.58l5.76-2.01c.45-.16,1.18-.16,1.64-.01l5.9,1.93c.48.16.51.42.06.58l-5.8,2.12c-.47.17-1.24.18-1.72.01Z"/><path class="cls-12" d="m105.41,54.6l-6.29-2.19c-.48-.17-.49-.45-.03-.62l5.81-2.14c.45-.17,1.21-.17,1.7-.01l6.32,2.07c.51.17.57.45.11.62l-5.84,2.26c-.47.18-1.28.19-1.79,0Z"/><path class="cls-12" d="m114.96,57.93l-6.77-2.36c-.52-.18-.56-.48-.09-.66l5.84-2.27c.45-.18,1.25-.18,1.77,0l6.8,2.22c.55.18.64.48.18.67l-5.86,2.41c-.47.19-1.32.2-1.87,0Z"/><path class="cls-12" d="m88.11,54.58l-5.8-2.17c-.45-.17-.41-.44.08-.61l6.06-2.12c.47-.16,1.22-.17,1.67-.01l5.86,2.05c.48.17.48.44,0,.62l-6.12,2.24c-.49.18-1.29.18-1.76,0Z"/><path class="cls-12" d="m96.92,57.87l-6.24-2.33c-.48-.18-.47-.47.03-.66l6.12-2.25c.47-.17,1.26-.18,1.74,0l6.29,2.2c.51.18.54.48.06.66l-6.17,2.39c-.5.19-1.33.2-1.83,0Z"/><path class="cls-12" d="m106.42,61.42l-6.74-2.52c-.52-.19-.53-.51-.03-.7l6.17-2.4c.48-.19,1.29-.19,1.81,0l6.77,2.37c.55.19.61.51.13.71l-6.21,2.55c-.5.21-1.37.21-1.91,0Z"/><path class="cls-52" d="m79.23,57.81l-5.73-2.31c-.44-.18-.38-.47.14-.65l6.39-2.23c.5-.17,1.26-.18,1.71,0l5.8,2.18c.47.18.45.47-.05.65l-6.46,2.36c-.52.19-1.33.19-1.8,0Z"/><path class="cls-12" d="m87.95,61.32l-6.18-2.49c-.48-.19-.43-.5.09-.7l6.46-2.38c.5-.18,1.3-.19,1.78,0l6.24,2.34c.51.19.51.51,0,.7l-6.52,2.52c-.53.2-1.37.21-1.88,0Z"/><path class="cls-12" d="m97.37,65.11l-6.68-2.69c-.51-.21-.5-.54.03-.75l6.53-2.54c.51-.2,1.34-.2,1.86,0l6.73,2.53c.55.21.58.55.08.75l-6.58,2.7c-.53.22-1.42.22-1.96,0Z"/><path class="cls-12" d="m79.48,69.75l-6.12-2.55c-.48-.2-.88-.93-.88-1.61v-8.67c0-.69.4-1.08.88-.88l6.12,2.55c.48.2.88.93.88,1.61v8.67c0,.69-.4,1.08-.88.88Z"/><path class="cls-12" d="m88.21,73.38l-6.12-2.55c-.48-.2-.88-.93-.88-1.61v-8.67c0-.69.4-1.08.88-.88l6.12,2.55c.48.2.88.93.88,1.61v8.67c0,.69-.4,1.08-.88.88Z"/><path class="cls-46" d="m96.95,77.01l-6.12-2.55c-.48-.2-.88-.93-.88-1.61v-8.67c0-.69.4-1.08.88-.88l6.12,2.55c.48.2.88.93.88,1.61v8.67c0,.69-.4,1.08-.88.88Z"/><path class="cls-11" d="m79.48,81.71l-6.12-2.55c-.48-.2-.88-.93-.88-1.61v-8.67c0-.69.4-1.08.88-.88l6.12,2.55c.48.2.88.93.88,1.61v8.67c0,.69-.4,1.08-.88.88Z"/><path class="cls-11" d="m88.21,85.34l-6.12-2.55c-.48-.2-.88-.93-.88-1.61v-8.67c0-.69.4-1.08.88-.88l6.12,2.55c.48.2.88.93.88,1.61v8.67c0,.69-.4,1.08-.88.88Z"/><path class="cls-11" d="m96.95,88.97l-6.12-2.55c-.48-.2-.88-.93-.88-1.61v-8.67c0-.69.4-1.08.88-.88l6.12,2.55c.48.2.88.93.88,1.61v8.67c0,.69-.4,1.08-.88.88Z"/><path class="cls-48" d="m79.48,93.67l-6.12-2.55c-.48-.2-.88-.93-.88-1.61v-8.67c0-.69.4-1.08.88-.88l6.12,2.55c.48.2.88.93.88,1.61v8.67c0,.69-.4,1.08-.88.88Z"/><path class="cls-15" d="m88.21,97.3l-6.12-2.55c-.48-.2-.88-.93-.88-1.61v-8.67c0-.69.4-1.08.88-.88l6.12,2.55c.48.2.88.93.88,1.61v8.67c0,.69-.4,1.08-.88.88Z"/><path class="cls-15" d="m96.95,100.93l-6.12-2.55c-.48-.2-.88-.93-.88-1.61v-8.67c0-.69.4-1.08.88-.88l6.12,2.55c.48.2.88.93.88,1.61v8.67c0,.69-.4,1.08-.88.88Z"/><path class="cls-12" d="m117.06,69.75l6.12-2.55c.48-.2.88-.93.88-1.61v-8.67c0-.69-.4-1.08-.88-.88l-6.12,2.55c-.48.2-.88.93-.88,1.61v8.67c0,.69.4,1.08.88.88Z"/><path class="cls-12" d="m108.32,73.38l6.12-2.55c.48-.2.88-.93.88-1.61v-8.67c0-.69-.4-1.08-.88-.88l-6.12,2.55c-.48.2-.88.93-.88,1.61v8.67c0,.69.4,1.08.88.88Z"/><path class="cls-12" d="m99.59,77.01l6.12-2.55c.48-.2.88-.93.88-1.61v-8.67c0-.69-.4-1.08-.88-.88l-6.12,2.55c-.48.2-.88.93-.88,1.61v8.67c0,.69.4,1.08.88.88Z"/><path class="cls-11" d="m117.06,81.71l6.12-2.55c.48-.2.88-.93.88-1.61v-8.67c0-.69-.4-1.08-.88-.88l-6.12,2.55c-.48.2-.88.93-.88,1.61v8.67c0,.69.4,1.08.88.88Z"/><path class="cls-49" d="m108.32,85.34l6.12-2.55c.48-.2.88-.93.88-1.61v-8.67c0-.69-.4-1.08-.88-.88l-6.12,2.55c-.48.2-.88.93-.88,1.61v8.67c0,.69.4,1.08.88.88Z"/><path class="cls-11" d="m99.59,88.97l6.12-2.55c.48-.2.88-.93.88-1.61v-8.67c0-.69-.4-1.08-.88-.88l-6.12,2.55c-.48.2-.88.93-.88,1.61v8.67c0,.69.4,1.08.88.88Z"/><path class="cls-51" d="m117.06,93.67l6.12-2.55c.48-.2.88-.93.88-1.61v-8.67c0-.69-.4-1.08-.88-.88l-6.12,2.55c-.48.2-.88.93-.88,1.61v8.67c0,.69.4,1.08.88.88Z"/><path class="cls-15" d="m108.32,97.3l6.12-2.55c.48-.2.88-.93.88-1.61v-8.67c0-.69-.4-1.08-.88-.88l-6.12,2.55c-.48.2-.88.93-.88,1.61v8.67c0,.69.4,1.08.88.88Z"/><path class="cls-15" d="m99.59,100.93l6.12-2.55c.48-.2.88-.93.88-1.61v-8.67c0-.69-.4-1.08-.88-.88l-6.12,2.55c-.48.2-.88.93-.88,1.61v8.67c0,.69.4,1.08.88.88Z"/></g><g class="cls-1"><path class="cls-13" d="m97.24,54.71c-.13,0-.33.05-.33.05l-6.75,2.33s-.29.15-.43.34-.13.41-.13.41v9.53s-.03.23.05.38.2.19.2.19l6.83,2.88s.24.09.55.09h.02c.31,0,.55-.09.55-.09l6.83-2.88s.11-.04.2-.19.05-.38.05-.38v-9.53s.01-.22-.13-.41-.43-.34-.43-.34l-6.75-2.33s-.19-.05-.33-.05h-.02Z"/></g><g class="cls-1"><path class="cls-13" d="m97.24,54.71c-.13,0-.33.05-.33.05l-6.75,2.33s-.29.15-.43.34-.13.41-.13.41v9.53s-.03.23.05.38.2.19.2.19l6.83,2.88s.24.09.55.09h.02c.31,0,.55-.09.55-.09l6.83-2.88s.11-.04.2-.19.05-.38.05-.38v-9.53s.01-.22-.13-.41-.43-.34-.43-.34l-6.75-2.33s-.19-.05-.33-.05h-.02Z"/><path d="m97.26,71.27c-.39,0-.67-.1-.7-.11l-6.85-2.88s-.24-.11-.38-.36c-.13-.22-.11-.49-.1-.59v-9.51s0-.35.2-.63c.18-.25.5-.42.56-.45l.05-.02,6.75-2.33c.07-.02.28-.07.45-.07h.02c.17,0,.37.05.41.06l6.84,2.36c.06.03.38.2.56.45.21.28.21.59.2.65v9.49c.01.1.02.37-.1.59-.14.25-.33.34-.39.36l-6.82,2.87s-.33.12-.7.12Zm-.42-.81s.18.06.4.06c.25,0,.44-.06.44-.06l6.81-2.87s0,0,.02-.04c.01-.03.01-.11,0-.14v-.05s0-9.53,0-9.53c0-.01,0-.11-.06-.18-.06-.07-.19-.17-.28-.22l-6.72-2.32s-.14-.03-.2-.03h-.02c-.06,0-.18.02-.24.04l-6.68,2.31c-.09.05-.22.14-.28.22-.05.07-.06.16-.06.16v9.58s0,.03,0,.03c0,.05,0,.12,0,.14.02.03.03.04.03.04l6.81,2.87h0Z"/></g><g class="cls-1"><path class="cls-14" d="m112.64,65.62c-.13,0-.33.05-.33.05l-6.75,2.33s-.29.15-.43.34-.13.41-.13.41v9.53s-.03.23.05.38.2.19.2.19l6.83,2.88s.24.09.55.09h.02c.31,0,.55-.09.55-.09l6.83-2.88s.11-.04.2-.19.05-.38.05-.38v-9.53s.01-.22-.13-.41-.43-.34-.43-.34l-6.75-2.33s-.19-.05-.33-.05h-.02Z"/><path class="cls-14" d="m112.66,82.19c-.39,0-.67-.1-.7-.11l-6.85-2.88s-.24-.11-.38-.36c-.13-.22-.11-.49-.1-.59v-9.51s0-.35.2-.63c.18-.25.5-.42.56-.45l.05-.02,6.75-2.33c.07-.02.28-.07.45-.07h.02c.17,0,.37.05.41.06l6.84,2.36c.06.03.38.2.56.45.21.28.21.59.2.65v9.49c.01.1.02.37-.1.59-.14.25-.33.34-.39.36l-6.82,2.87s-.33.12-.7.12Zm-.42-.81s.18.06.4.06c.25,0,.44-.06.44-.06l6.81-2.87s0,0,.02-.04c.01-.03.01-.11,0-.14v-.05s0-9.53,0-9.53c0-.01,0-.11-.06-.18-.06-.07-.19-.17-.28-.22l-6.72-2.32s-.14-.03-.2-.03h-.02c-.06,0-.18.02-.24.04l-6.68,2.31c-.09.05-.22.14-.28.22-.05.07-.06.16-.06.16v9.58s0,.03,0,.03c0,.05,0,.12,0,.14.02.03.03.04.03.04l6.81,2.87h0Z"/></g><polygon class="cls-10" points="105.11 68.33 112.63 71.17 112.62 81.81 105.03 78.65 105.11 68.33"/><polygon class="cls-10" points="120.29 68.33 112.63 71.17 112.62 81.81 120.22 78.65 120.29 68.33"/><polygon class="cls-10" points="120.29 68.33 112.63 71.17 105.03 68.4 112.63 65.62 120.29 68.33"/><polygon class="cls-17" points="89.73 57.42 97.26 60.25 97.24 70.89 89.66 67.73 89.73 57.42"/><polygon class="cls-17" points="104.92 57.42 97.26 60.25 97.24 70.89 104.84 67.73 104.92 57.42"/><polygon class="cls-17" points="104.92 57.42 97.26 60.25 89.66 57.49 97.26 54.71 104.92 57.42"/><path class="cls-47" d="m104.9,57.77l-.27-.71-7.37,2.78-7.39-2.78-.27.71,7.28,2.74v10.38h.76v-10.38l7.26-2.74Zm-7.64,2.48h0s0,0,0,0Z"/><path class="cls-50" d="m120.3,68.69l-.27-.71-7.37,2.78-7.39-2.78-.27.71,7.28,2.74v10.38h.76v-10.38l7.26-2.74Zm-7.64,2.48h0s0,0,0,0Z"/><path class="cls-32" d="m97.26,71.27c-.39,0-.67-.1-.7-.11l-6.85-2.88s-.24-.11-.38-.36c-.13-.22-.11-.49-.1-.59v-9.51s0-.35.2-.63c.18-.25.5-.42.56-.45l.05-.02,6.75-2.33c.07-.02.28-.07.45-.07h.02c.17,0,.37.05.41.06l6.84,2.36c.06.03.38.2.56.45.21.28.21.59.2.65v9.49c.01.1.02.37-.1.59-.14.25-.33.34-.39.36l-6.82,2.87s-.33.12-.7.12Zm-.42-.81s.18.06.4.06c.25,0,.44-.06.44-.06l6.81-2.87s0,0,.02-.04c.01-.03.01-.11,0-.14v-.05s0-9.53,0-9.53c0-.01,0-.11-.06-.18-.06-.07-.19-.17-.28-.22l-6.72-2.32s-.14-.03-.2-.03h-.02c-.06,0-.18.02-.24.04l-6.68,2.31c-.09.05-.22.14-.28.22-.05.07-.06.16-.06.16v9.58s0,.03,0,.03c0,.05,0,.12,0,.14.02.03.03.04.03.04l6.81,2.87h0Z"/><path class="cls-34" d="m112.67,82.19c-.39,0-.67-.1-.7-.11l-6.85-2.88s-.24-.11-.38-.36c-.13-.22-.11-.49-.1-.59v-9.51s0-.35.2-.63c.18-.25.5-.42.56-.45l.05-.02,6.75-2.33c.07-.02.28-.07.45-.07h.02c.17,0,.37.05.41.06l6.84,2.36c.06.03.38.2.56.45.21.28.21.59.2.65v9.49c.01.1.02.37-.1.59-.14.25-.33.34-.39.36l-6.82,2.87s-.33.12-.7.12Zm-.42-.81s.18.06.4.06c.25,0,.44-.06.44-.06l6.81-2.87s0,0,.02-.04c.01-.03.01-.11,0-.14v-.05s0-9.53,0-9.53c0-.01,0-.11-.06-.18-.06-.07-.19-.17-.28-.22l-6.72-2.32s-.14-.03-.2-.03h-.02c-.06,0-.18.02-.24.04l-6.68,2.31c-.09.05-.22.14-.28.22-.05.07-.06.16-.06.16v9.58s0,.03,0,.03c0,.05,0,.12,0,.14.02.03.03.04.03.04l6.81,2.87h0Z"/><g class="cls-1"><path class="cls-16" d="m128.17,76.23c-.13,0-.33.05-.33.05l-6.75,2.33s-.29.15-.43.34-.13.41-.13.41v9.53s-.03.23.05.38.2.19.2.19l6.83,2.88s.24.09.55.09h.02c.31,0,.55-.09.55-.09l6.83-2.88s.11-.04.2-.19.05-.38.05-.38v-9.53s.01-.22-.13-.41-.43-.34-.43-.34l-6.75-2.33s-.19-.05-.33-.05h-.02Z"/><path class="cls-16" d="m128.19,92.8c-.39,0-.67-.1-.7-.11l-6.85-2.88s-.24-.11-.38-.36c-.13-.22-.11-.49-.1-.59v-9.51s0-.35.2-.63c.18-.25.5-.42.56-.45l.05-.02,6.75-2.33c.07-.02.28-.07.45-.07h.02c.17,0,.37.05.41.06l6.84,2.36c.06.03.38.2.56.45.21.28.21.59.2.65v9.49c.01.1.02.37-.1.59-.14.25-.33.34-.39.36l-6.82,2.87s-.33.12-.7.12Zm-.42-.81s.18.06.4.06c.25,0,.44-.06.44-.06l6.81-2.87s0,0,.02-.04c.01-.03.01-.11,0-.14v-.05s0-9.53,0-9.53c0-.01,0-.11-.06-.18-.06-.07-.19-.17-.28-.22l-6.72-2.32s-.14-.03-.2-.03h-.02c-.06,0-.18.02-.24.04l-6.68,2.31c-.09.05-.22.14-.28.22-.05.07-.06.16-.06.16v9.58s0,.03,0,.03c0,.05,0,.12,0,.14.02.03.03.04.03.04l6.81,2.87h0Z"/></g><polygon class="cls-8" points="120.63 78.94 128.16 81.77 128.14 92.42 120.56 89.26 120.63 78.94"/><polygon class="cls-8" points="135.82 78.94 128.16 81.77 128.14 92.42 135.74 89.26 135.82 78.94"/><polygon class="cls-8" points="135.82 78.94 128.16 81.77 120.56 79.01 128.16 76.23 135.82 78.94"/><path class="cls-33" d="m135.83,79.3l-.27-.71-7.37,2.78-7.39-2.78-.27.71,7.28,2.74v10.38h.76v-10.38l7.26-2.74Zm-7.64,2.48h0s0,0,0,0Z"/><path class="cls-29" d="m128.2,92.8c-.39,0-.67-.1-.7-.11l-6.85-2.88s-.24-.11-.38-.36c-.13-.22-.11-.49-.1-.59v-9.51s0-.35.2-.63c.18-.25.5-.42.56-.45l.05-.02,6.75-2.33c.07-.02.28-.07.45-.07h.02c.17,0,.37.05.41.06l6.84,2.36c.06.03.38.2.56.45.21.28.21.59.2.65v9.49c.01.1.02.37-.1.59-.14.25-.33.34-.39.36l-6.82,2.87s-.33.12-.7.12Zm-.42-.81s.18.06.4.06c.25,0,.44-.06.44-.06l6.81-2.87s0,0,.02-.04c.01-.03.01-.11,0-.14v-.05s0-9.53,0-9.53c0-.01,0-.11-.06-.18-.06-.07-.19-.17-.28-.22l-6.72-2.32s-.14-.03-.2-.03h-.02c-.06,0-.18.02-.24.04l-6.68,2.31c-.09.05-.22.14-.28.22-.05.07-.06.16-.06.16v9.58s0,.03,0,.03c0,.05,0,.12,0,.14.02.03.03.04.03.04l6.81,2.87h0Z"/><path class="cls-4" d="m11.41,101.54h2.69v6.45c.75-1.2,1.9-1.85,3.33-1.85,2.58,0,5.02,1.67,5.02,5.66v5.81h-2.69v-5.81c0-2.13-1.13-3.14-2.83-3.14s-2.83,1.06-2.83,3.14v5.81h-2.69v-16.06Z"/><path class="cls-4" d="m24.21,111.22c0-3.51,2.04-5.09,4.68-5.09,1.67,0,3.05.7,3.87,2.01.79-1.31,2.17-2.01,3.87-2.01,2.65,0,4.68,1.58,4.68,5.09v6.38h-2.69v-6.38c0-1.83-.95-2.58-2.26-2.58s-2.24.77-2.24,2.58v6.38h-2.69v-6.38c0-1.81-.97-2.58-2.26-2.58s-2.26.75-2.26,2.58v6.38h-2.69v-6.38Z"/><path class="cls-4" d="m43.08,111.22c0-3.51,2.04-5.09,4.68-5.09,1.67,0,3.05.7,3.87,2.01.79-1.31,2.17-2.01,3.87-2.01,2.65,0,4.68,1.58,4.68,5.09v6.38h-2.69v-6.38c0-1.83-.95-2.58-2.26-2.58s-2.24.77-2.24,2.58v6.38h-2.69v-6.38c0-1.81-.97-2.58-2.26-2.58s-2.26.75-2.26,2.58v6.38h-2.69v-6.38Z"/><path class="cls-4" d="m65.86,105.5h-4.41v-2.69h11.72v2.69h-4.41v12.1h-2.9v-12.1Z"/><path class="cls-4" d="m73.98,112.01c0-3.39,2.49-5.88,6.02-5.88s5.97,2.49,5.97,5.88v.95h-9.16c.36,1.63,1.61,2.49,3.19,2.49,1.2,0,2.08-.34,2.65-1.06h2.87c-.84,2.13-2.87,3.51-5.52,3.51-3.53,0-6.02-2.49-6.02-5.88Zm9.14-1.2c-.43-1.49-1.65-2.24-3.12-2.24s-2.69.77-3.12,2.24h6.24Z"/><path class="cls-4" d="m87.29,111.79c0-3.73,2.22-5.66,5.52-5.66s5.52,1.9,5.52,5.66v5.81h-2.69v-5.81c0-2.13-1.13-3.14-2.83-3.14s-2.83,1.02-2.83,3.14v5.81h-2.69v-5.81Z"/><path class="cls-4" d="m99.66,114.3h2.71c.02.75.68,1.24,1.99,1.24,1.38,0,1.97-.57,1.97-1.24,0-.86-1-.97-2.19-1.13-1.72-.23-4.25-.52-4.25-3.26,0-2.28,1.74-3.78,4.43-3.78s4.41,1.54,4.48,3.51h-2.67c-.07-.68-.7-1.15-1.76-1.15-1.18,0-1.76.57-1.76,1.22,0,.86,1.02,1,2.22,1.15,1.49.2,4.23.5,4.23,3.28,0,2.26-1.83,3.76-4.68,3.76s-4.64-1.52-4.71-3.6Z"/><path class="cls-4" d="m109.93,112.01c0-3.39,2.49-5.88,6.02-5.88s6.02,2.49,6.02,5.88-2.49,5.88-6.02,5.88-6.02-2.49-6.02-5.88Zm9.3,0c0-1.97-1.31-3.37-3.28-3.37s-3.3,1.4-3.3,3.37,1.33,3.37,3.3,3.37,3.28-1.4,3.28-3.37Z"/><path class="cls-4" d="m123.28,111.11c0-3.37,1.99-4.98,4.91-4.98s4.89,1.61,4.89,5.02v.07h-2.67v-.11c0-1.81-.9-2.47-2.22-2.47s-2.22.66-2.22,2.47v6.49h-2.69v-6.49Z"/><path class="cls-3" d="m11.41,101.54h2.69v6.45c.75-1.2,1.9-1.85,3.33-1.85,2.58,0,5.02,1.67,5.02,5.66v5.81h-2.69v-5.81c0-2.13-1.13-3.14-2.83-3.14s-2.83,1.06-2.83,3.14v5.81h-2.69v-16.06Z"/><path class="cls-3" d="m24.21,111.22c0-3.51,2.04-5.09,4.68-5.09,1.67,0,3.05.7,3.87,2.01.79-1.31,2.17-2.01,3.87-2.01,2.65,0,4.68,1.58,4.68,5.09v6.38h-2.69v-6.38c0-1.83-.95-2.58-2.26-2.58s-2.24.77-2.24,2.58v6.38h-2.69v-6.38c0-1.81-.97-2.58-2.26-2.58s-2.26.75-2.26,2.58v6.38h-2.69v-6.38Z"/><path class="cls-3" d="m43.08,111.22c0-3.51,2.04-5.09,4.68-5.09,1.67,0,3.05.7,3.87,2.01.79-1.31,2.17-2.01,3.87-2.01,2.65,0,4.68,1.58,4.68,5.09v6.38h-2.69v-6.38c0-1.83-.95-2.58-2.26-2.58s-2.24.77-2.24,2.58v6.38h-2.69v-6.38c0-1.81-.97-2.58-2.26-2.58s-2.26.75-2.26,2.58v6.38h-2.69v-6.38Z"/><path class="cls-3" d="m65.86,105.5h-4.41v-2.69h11.72v2.69h-4.41v12.1h-2.9v-12.1Z"/><path class="cls-3" d="m73.98,112.01c0-3.39,2.49-5.88,6.02-5.88s5.97,2.49,5.97,5.88v.95h-9.16c.36,1.63,1.61,2.49,3.19,2.49,1.2,0,2.08-.34,2.65-1.06h2.87c-.84,2.13-2.87,3.51-5.52,3.51-3.53,0-6.02-2.49-6.02-5.88Zm9.14-1.2c-.43-1.49-1.65-2.24-3.12-2.24s-2.69.77-3.12,2.24h6.24Z"/><path class="cls-3" d="m87.29,111.79c0-3.73,2.22-5.66,5.52-5.66s5.52,1.9,5.52,5.66v5.81h-2.69v-5.81c0-2.13-1.13-3.14-2.83-3.14s-2.83,1.02-2.83,3.14v5.81h-2.69v-5.81Z"/><path class="cls-3" d="m99.66,114.3h2.71c.02.75.68,1.24,1.99,1.24,1.38,0,1.97-.57,1.97-1.24,0-.86-1-.97-2.19-1.13-1.72-.23-4.25-.52-4.25-3.26,0-2.28,1.74-3.78,4.43-3.78s4.41,1.54,4.48,3.51h-2.67c-.07-.68-.7-1.15-1.76-1.15-1.18,0-1.76.57-1.76,1.22,0,.86,1.02,1,2.22,1.15,1.49.2,4.23.5,4.23,3.28,0,2.26-1.83,3.76-4.68,3.76s-4.64-1.52-4.71-3.6Z"/><path class="cls-3" d="m109.93,112.01c0-3.39,2.49-5.88,6.02-5.88s6.02,2.49,6.02,5.88-2.49,5.88-6.02,5.88-6.02-2.49-6.02-5.88Zm9.3,0c0-1.97-1.31-3.37-3.28-3.37s-3.3,1.4-3.3,3.37,1.33,3.37,3.3,3.37,3.28-1.4,3.28-3.37Z"/><path class="cls-3" d="m123.28,111.11c0-3.37,1.99-4.98,4.91-4.98s4.89,1.61,4.89,5.02v.07h-2.67v-.11c0-1.81-.9-2.47-2.22-2.47s-2.22.66-2.22,2.47v6.49h-2.69v-6.49Z"/><path class="cls-9" d="m11.41,101.54h2.69v6.45c.75-1.2,1.9-1.85,3.33-1.85,2.58,0,5.02,1.67,5.02,5.66v5.81h-2.69v-5.81c0-2.13-1.13-3.14-2.83-3.14s-2.83,1.06-2.83,3.14v5.81h-2.69v-16.06Z"/><path class="cls-9" d="m24.21,111.22c0-3.51,2.04-5.09,4.68-5.09,1.67,0,3.05.7,3.87,2.01.79-1.31,2.17-2.01,3.87-2.01,2.65,0,4.68,1.58,4.68,5.09v6.38h-2.69v-6.38c0-1.83-.95-2.58-2.26-2.58s-2.24.77-2.24,2.58v6.38h-2.69v-6.38c0-1.81-.97-2.58-2.26-2.58s-2.26.75-2.26,2.58v6.38h-2.69v-6.38Z"/><path class="cls-9" d="m43.08,111.22c0-3.51,2.04-5.09,4.68-5.09,1.67,0,3.05.7,3.87,2.01.79-1.31,2.17-2.01,3.87-2.01,2.65,0,4.68,1.58,4.68,5.09v6.38h-2.69v-6.38c0-1.83-.95-2.58-2.26-2.58s-2.24.77-2.24,2.58v6.38h-2.69v-6.38c0-1.81-.97-2.58-2.26-2.58s-2.26.75-2.26,2.58v6.38h-2.69v-6.38Z"/><path class="cls-9" d="m65.86,105.5h-4.41v-2.69h11.72v2.69h-4.41v12.1h-2.9v-12.1Z"/><path class="cls-9" d="m73.98,112.01c0-3.39,2.49-5.88,6.02-5.88s5.97,2.49,5.97,5.88v.95h-9.16c.36,1.63,1.61,2.49,3.19,2.49,1.2,0,2.08-.34,2.65-1.06h2.87c-.84,2.13-2.87,3.51-5.52,3.51-3.53,0-6.02-2.49-6.02-5.88Zm9.14-1.2c-.43-1.49-1.65-2.24-3.12-2.24s-2.69.77-3.12,2.24h6.24Z"/><path class="cls-9" d="m87.29,111.79c0-3.73,2.22-5.66,5.52-5.66s5.52,1.9,5.52,5.66v5.81h-2.69v-5.81c0-2.13-1.13-3.14-2.83-3.14s-2.83,1.02-2.83,3.14v5.81h-2.69v-5.81Z"/><path class="cls-9" d="m99.66,114.3h2.71c.02.75.68,1.24,1.99,1.24,1.38,0,1.97-.57,1.97-1.24,0-.86-1-.97-2.19-1.13-1.72-.23-4.25-.52-4.25-3.26,0-2.28,1.74-3.78,4.43-3.78s4.41,1.54,4.48,3.51h-2.67c-.07-.68-.7-1.15-1.76-1.15-1.18,0-1.76.57-1.76,1.22,0,.86,1.02,1,2.22,1.15,1.49.2,4.23.5,4.23,3.28,0,2.26-1.83,3.76-4.68,3.76s-4.64-1.52-4.71-3.6Z"/><path class="cls-9" d="m109.93,112.01c0-3.39,2.49-5.88,6.02-5.88s6.02,2.49,6.02,5.88-2.49,5.88-6.02,5.88-6.02-2.49-6.02-5.88Zm9.3,0c0-1.97-1.31-3.37-3.28-3.37s-3.3,1.4-3.3,3.37,1.33,3.37,3.3,3.37,3.28-1.4,3.28-3.37Z"/><path class="cls-9" d="m123.28,111.11c0-3.37,1.99-4.98,4.91-4.98s4.89,1.61,4.89,5.02v.07h-2.67v-.11c0-1.81-.9-2.47-2.22-2.47s-2.22.66-2.22,2.47v6.49h-2.69v-6.49Z"/><path class="cls-28" d="m11.41,101.54h2.69v6.45c.75-1.2,1.9-1.85,3.33-1.85,2.58,0,5.02,1.67,5.02,5.66v5.81h-2.69v-5.81c0-2.13-1.13-3.14-2.83-3.14s-2.83,1.06-2.83,3.14v5.81h-2.69v-16.06Z"/><path class="cls-31" d="m24.21,111.22c0-3.51,2.04-5.09,4.68-5.09,1.67,0,3.05.7,3.87,2.01.79-1.31,2.17-2.01,3.87-2.01,2.65,0,4.68,1.58,4.68,5.09v6.38h-2.69v-6.38c0-1.83-.95-2.58-2.26-2.58s-2.24.77-2.24,2.58v6.38h-2.69v-6.38c0-1.81-.97-2.58-2.26-2.58s-2.26.75-2.26,2.58v6.38h-2.69v-6.38Z"/><path class="cls-30" d="m43.08,111.22c0-3.51,2.04-5.09,4.68-5.09,1.67,0,3.05.7,3.87,2.01.79-1.31,2.17-2.01,3.87-2.01,2.65,0,4.68,1.58,4.68,5.09v6.38h-2.69v-6.38c0-1.83-.95-2.58-2.26-2.58s-2.24.77-2.24,2.58v6.38h-2.69v-6.38c0-1.81-.97-2.58-2.26-2.58s-2.26.75-2.26,2.58v6.38h-2.69v-6.38Z"/><path class="cls-27" d="m65.86,105.5h-4.41v-2.69h11.72v2.69h-4.41v12.1h-2.9v-12.1Z"/><path class="cls-26" d="m73.98,112.01c0-3.39,2.49-5.88,6.02-5.88s5.97,2.49,5.97,5.88v.95h-9.16c.36,1.63,1.61,2.49,3.19,2.49,1.2,0,2.08-.34,2.65-1.06h2.87c-.84,2.13-2.87,3.51-5.52,3.51-3.53,0-6.02-2.49-6.02-5.88Zm9.14-1.2c-.43-1.49-1.65-2.24-3.12-2.24s-2.69.77-3.12,2.24h6.24Z"/><path class="cls-25" d="m87.29,111.79c0-3.73,2.22-5.66,5.52-5.66s5.52,1.9,5.52,5.66v5.81h-2.69v-5.81c0-2.13-1.13-3.14-2.83-3.14s-2.83,1.02-2.83,3.14v5.81h-2.69v-5.81Z"/><path class="cls-22" d="m99.66,114.3h2.71c.02.75.68,1.24,1.99,1.24,1.38,0,1.97-.57,1.97-1.24,0-.86-1-.97-2.19-1.13-1.72-.23-4.25-.52-4.25-3.26,0-2.28,1.74-3.78,4.43-3.78s4.41,1.54,4.48,3.51h-2.67c-.07-.68-.7-1.15-1.76-1.15-1.18,0-1.76.57-1.76,1.22,0,.86,1.02,1,2.22,1.15,1.49.2,4.23.5,4.23,3.28,0,2.26-1.83,3.76-4.68,3.76s-4.64-1.52-4.71-3.6Z"/><path class="cls-23" d="m109.93,112.01c0-3.39,2.49-5.88,6.02-5.88s6.02,2.49,6.02,5.88-2.49,5.88-6.02,5.88-6.02-2.49-6.02-5.88Zm9.3,0c0-1.97-1.31-3.37-3.28-3.37s-3.3,1.4-3.3,3.37,1.33,3.37,3.3,3.37,3.28-1.4,3.28-3.37Z"/><path class="cls-24" d="m123.28,111.11c0-3.37,1.99-4.98,4.91-4.98s4.89,1.61,4.89,5.02v.07h-2.67v-.11c0-1.81-.9-2.47-2.22-2.47s-2.22.66-2.22,2.47v6.49h-2.69v-6.49Z"/><path class="cls-5" d="m76.32,128.26c-.21.1-.58.28-1.26.28-1.39,0-2.18-.86-2.18-2.14,0-1.39.95-2.19,2.14-2.19.48,0,.9.11,1.3.36l-.27.95c-.17-.13-.44-.33-.95-.33-.72,0-1.15.49-1.15,1.17,0,.53.25,1.18,1.17,1.18.6,0,1.03-.27,1.19-.37v1.08Z"/><path class="cls-5" d="m76.95,128.43v-4.11h1.03v.4c.23-.34.63-.55,1.21-.5v.99c-.54-.03-1.16.06-1.16.94v2.29h-1.08Z"/><path class="cls-5" d="m79.91,124.59c.47-.25.93-.38,1.47-.38.68,0,1.18.22,1.48.57.21.25.3.57.3,1.07v1.54c0,.56.07.84.16,1.04h-1.02c-.04-.1-.07-.19-.08-.37-.34.33-.76.48-1.22.48-.76,0-1.39-.46-1.39-1.29,0-1.05.91-1.28,1.65-1.4.72-.11.84-.13.84-.33,0-.17-.17-.36-.69-.36s-.98.17-1.41.45l-.09-1.02Zm2.21,1.89c-.19.09-.37.12-.84.19-.43.05-.67.19-.67.54,0,.24.16.43.48.43.23,0,.69-.08,1.04-.61v-.54Z"/><path class="cls-5" d="m83.97,128.43v-4.11h1.03v.4c.1-.13.41-.51,1.1-.51.72,0,1.09.43,1.2.67.15.31.18.64.18,1.24v2.31h-1.08v-2.35c0-.37,0-.89-.62-.89-.12,0-.74.03-.74.89v2.35h-1.08Z"/><path class="cls-5" d="m89.48,127.22v1.21h-1.2v-1.21h1.2Z"/><path class="cls-5" d="m90.29,128.43v-4.11h1.03v.4c.23-.34.63-.55,1.21-.5v.99c-.54-.03-1.16.06-1.16.94v2.29h-1.08Z"/><path class="cls-5" d="m94.87,125.86v1.04h-2v-1.04h2Z"/><path class="cls-5" d="m96.47,124.72c.14-.14.48-.51,1.15-.51,1.16,0,1.81,1.02,1.81,2.16s-.6,2.17-1.81,2.17c-.55,0-.89-.25-1.11-.44v2.16h-1.08v-5.94h1.04v.4Zm.96,2.84c.57,0,.91-.46.91-1.18s-.34-1.17-.91-1.17c-.21,0-.94.08-.94,1.17s.73,1.18.94,1.18Z"/><path class="cls-5" d="m100.01,128.43v-4.11h1.03v.4c.23-.34.63-.55,1.21-.5v.99c-.54-.03-1.16.06-1.16.94v2.29h-1.08Z"/><path class="cls-5" d="m104.67,124.21c1.09,0,2.04.83,2.04,2.16s-.95,2.17-2.04,2.17-2.03-.82-2.03-2.17.95-2.16,2.03-2.16Zm0,3.34c.63,0,.96-.49.96-1.18,0-1.17-.89-1.17-.96-1.17-.33,0-.95.2-.95,1.17,0,.69.34,1.18.95,1.18Z"/><path class="cls-5" d="m109.26,128.49c0,.78,0,1.76-1.33,1.76-.44,0-.72-.13-.91-.21l.08-.93c.13.05.35.16.62.16.4,0,.46-.3.46-.63v-4.33h1.08v4.17Zm.05-4.64h-1.17v-1.11h1.17v1.11Z"/><path class="cls-5" d="m111.08,126.71c.03.26.1.89,1.11.89.6,0,.94-.16,1.29-.33v1.01c-.21.08-.65.26-1.34.26-1.81,0-2.14-1.39-2.14-2.14,0-1.29.79-2.2,1.92-2.2.41,0,1.28.14,1.68,1.13.17.43.21.93.21,1.37h-2.73Zm1.65-.78c-.1-.8-.71-.8-.82-.8-.69,0-.8.65-.82.8h1.64Z"/><path class="cls-5" d="m117.73,128.26c-.21.1-.58.28-1.26.28-1.39,0-2.18-.86-2.18-2.14,0-1.39.95-2.19,2.14-2.19.48,0,.9.11,1.3.36l-.27.95c-.17-.13-.44-.33-.95-.33-.72,0-1.15.49-1.15,1.17,0,.53.25,1.18,1.17,1.18.6,0,1.03-.27,1.19-.37v1.08Z"/><path class="cls-5" d="m118.57,123.12h1.08v1.19h1.09v.99h-1.09v1.78c0,.34.08.47.46.47.23,0,.44-.03.57-.05v.97c-.12.01-.45.06-.84.06-1.26,0-1.26-.72-1.26-1.38v-1.85h-.47v-.99h.47v-1.19Z"/><path class="cls-5" d="m122.48,127.22v1.21h-1.2v-1.21h1.2Z"/><path class="cls-5" d="m125.16,124.21c1.09,0,2.04.83,2.04,2.16s-.95,2.17-2.04,2.17-2.03-.82-2.03-2.17.95-2.16,2.03-2.16Zm0,3.34c.63,0,.96-.49.96-1.18,0-1.17-.89-1.17-.96-1.17-.33,0-.95.2-.95,1.17,0,.69.34,1.18.95,1.18Z"/><path class="cls-5" d="m127.8,128.43v-4.11h1.03v.4c.23-.34.63-.55,1.21-.5v.99c-.54-.03-1.16.06-1.16.94v2.29h-1.08Z"/><path class="cls-5" d="m134.28,125.16c-.07-.03-.15-.05-.27-.05-.11,0-.19.02-.24.04.04.1.1.26.1.55,0,.97-.83,1.39-1.68,1.39-.11,0-.19,0-.25,0-.09.04-.19.13-.19.23,0,.16.26.19.72.21.93.04,1.85.21,1.85,1.31,0,1.24-1.38,1.42-2.09,1.42-1.3,0-1.86-.6-1.86-1.33,0-.65.47-.95.6-1.04-.12-.09-.33-.25-.33-.56s.26-.54.34-.59c-.52-.4-.52-.95-.52-1.08,0-.85.7-1.46,1.7-1.46.49,0,.77.13.91.2.32-.2.64-.2.73-.2.25,0,.36.04.47.09v.86Zm-2.11,3.19c-.4,0-.73.11-.73.51,0,.46.55.52.89.52.21,0,.92-.03.92-.55,0-.39-.45-.48-1.07-.48Zm-.67-2.67c0,.34.28.57.67.57s.68-.24.68-.59c0-.3-.22-.58-.67-.58-.38,0-.68.23-.68.6Z"/><path class="cls-7" d="m76.32,128.26c-.21.1-.58.28-1.26.28-1.39,0-2.18-.86-2.18-2.14,0-1.39.95-2.19,2.14-2.19.48,0,.9.11,1.3.36l-.27.95c-.17-.13-.44-.33-.95-.33-.72,0-1.15.49-1.15,1.17,0,.53.25,1.18,1.17,1.18.6,0,1.03-.27,1.19-.37v1.08Z"/><path class="cls-7" d="m76.95,128.43v-4.11h1.03v.4c.23-.34.63-.55,1.21-.5v.99c-.54-.03-1.16.06-1.16.94v2.29h-1.08Z"/><path class="cls-7" d="m79.91,124.59c.47-.25.93-.38,1.47-.38.68,0,1.18.22,1.48.57.21.25.3.57.3,1.07v1.54c0,.56.07.84.16,1.04h-1.02c-.04-.1-.07-.19-.08-.37-.34.33-.76.48-1.22.48-.76,0-1.39-.46-1.39-1.29,0-1.05.91-1.28,1.65-1.4.72-.11.84-.13.84-.33,0-.17-.17-.36-.69-.36s-.98.17-1.41.45l-.09-1.02Zm2.21,1.89c-.19.09-.37.12-.84.19-.43.05-.67.19-.67.54,0,.24.16.43.48.43.23,0,.69-.08,1.04-.61v-.54Z"/><path class="cls-7" d="m83.97,128.43v-4.11h1.03v.4c.1-.13.41-.51,1.1-.51.72,0,1.09.43,1.2.67.15.31.18.64.18,1.24v2.31h-1.08v-2.35c0-.37,0-.89-.62-.89-.12,0-.74.03-.74.89v2.35h-1.08Z"/><path class="cls-7" d="m89.48,127.22v1.21h-1.2v-1.21h1.2Z"/><path class="cls-7" d="m90.29,128.43v-4.11h1.03v.4c.23-.34.63-.55,1.21-.5v.99c-.54-.03-1.16.06-1.16.94v2.29h-1.08Z"/><path class="cls-7" d="m94.87,125.86v1.04h-2v-1.04h2Z"/><path class="cls-7" d="m96.47,124.72c.14-.14.48-.51,1.15-.51,1.16,0,1.81,1.02,1.81,2.16s-.6,2.17-1.81,2.17c-.55,0-.89-.25-1.11-.44v2.16h-1.08v-5.94h1.04v.4Zm.96,2.84c.57,0,.91-.46.91-1.18s-.34-1.17-.91-1.17c-.21,0-.94.08-.94,1.17s.73,1.18.94,1.18Z"/><path class="cls-7" d="m100.01,128.43v-4.11h1.03v.4c.23-.34.63-.55,1.21-.5v.99c-.54-.03-1.16.06-1.16.94v2.29h-1.08Z"/><path class="cls-7" d="m104.67,124.21c1.09,0,2.04.83,2.04,2.16s-.95,2.17-2.04,2.17-2.03-.82-2.03-2.17.95-2.16,2.03-2.16Zm0,3.34c.63,0,.96-.49.96-1.18,0-1.17-.89-1.17-.96-1.17-.33,0-.95.2-.95,1.17,0,.69.34,1.18.95,1.18Z"/><path class="cls-7" d="m109.26,128.49c0,.78,0,1.76-1.33,1.76-.44,0-.72-.13-.91-.21l.08-.93c.13.05.35.16.62.16.4,0,.46-.3.46-.63v-4.33h1.08v4.17Zm.05-4.64h-1.17v-1.11h1.17v1.11Z"/><path class="cls-7" d="m111.08,126.71c.03.26.1.89,1.11.89.6,0,.94-.16,1.29-.33v1.01c-.21.08-.65.26-1.34.26-1.81,0-2.14-1.39-2.14-2.14,0-1.29.79-2.2,1.92-2.2.41,0,1.28.14,1.68,1.13.17.43.21.93.21,1.37h-2.73Zm1.65-.78c-.1-.8-.71-.8-.82-.8-.69,0-.8.65-.82.8h1.64Z"/><path class="cls-7" d="m117.73,128.26c-.21.1-.58.28-1.26.28-1.39,0-2.18-.86-2.18-2.14,0-1.39.95-2.19,2.14-2.19.48,0,.9.11,1.3.36l-.27.95c-.17-.13-.44-.33-.95-.33-.72,0-1.15.49-1.15,1.17,0,.53.25,1.18,1.17,1.18.6,0,1.03-.27,1.19-.37v1.08Z"/><path class="cls-7" d="m118.57,123.12h1.08v1.19h1.09v.99h-1.09v1.78c0,.34.08.47.46.47.23,0,.44-.03.57-.05v.97c-.12.01-.45.06-.84.06-1.26,0-1.26-.72-1.26-1.38v-1.85h-.47v-.99h.47v-1.19Z"/><path class="cls-7" d="m122.48,127.22v1.21h-1.2v-1.21h1.2Z"/><path class="cls-7" d="m125.16,124.21c1.09,0,2.04.83,2.04,2.16s-.95,2.17-2.04,2.17-2.03-.82-2.03-2.17.95-2.16,2.03-2.16Zm0,3.34c.63,0,.96-.49.96-1.18,0-1.17-.89-1.17-.96-1.17-.33,0-.95.2-.95,1.17,0,.69.34,1.18.95,1.18Z"/><path class="cls-7" d="m127.8,128.43v-4.11h1.03v.4c.23-.34.63-.55,1.21-.5v.99c-.54-.03-1.16.06-1.16.94v2.29h-1.08Z"/><path class="cls-7" d="m134.28,125.16c-.07-.03-.15-.05-.27-.05-.11,0-.19.02-.24.04.04.1.1.26.1.55,0,.97-.83,1.39-1.68,1.39-.11,0-.19,0-.25,0-.09.04-.19.13-.19.23,0,.16.26.19.72.21.93.04,1.85.21,1.85,1.31,0,1.24-1.38,1.42-2.09,1.42-1.3,0-1.86-.6-1.86-1.33,0-.65.47-.95.6-1.04-.12-.09-.33-.25-.33-.56s.26-.54.34-.59c-.52-.4-.52-.95-.52-1.08,0-.85.7-1.46,1.7-1.46.49,0,.77.13.91.2.32-.2.64-.2.73-.2.25,0,.36.04.47.09v.86Zm-2.11,3.19c-.4,0-.73.11-.73.51,0,.46.55.52.89.52.21,0,.92-.03.92-.55,0-.39-.45-.48-1.07-.48Zm-.67-2.67c0,.34.28.57.67.57s.68-.24.68-.59c0-.3-.22-.58-.67-.58-.38,0-.68.23-.68.6Z"/></g></svg>