<?xml version="1.0" encoding="UTF-8"?><svg id="_レイヤー_2" xmlns="http://www.w3.org/2000/svg" xmlns:xlink="http://www.w3.org/1999/xlink" viewBox="0 0 210.7 73.17"><defs><style>.cls-1{stroke:url(#_名称未設定グラデーション_14);stroke-width:2px;}.cls-1,.cls-2,.cls-3,.cls-4,.cls-5{fill:none;}.cls-6{fill:#040000;}.cls-7{fill:#fff;}.cls-8{fill:#f39800;}.cls-9{fill:url(#_名称未設定グラデーション_17-10);}.cls-10{fill:url(#_名称未設定グラデーション_17-11);}.cls-11{fill:url(#_名称未設定グラデーション_17-13);}.cls-12{fill:url(#_名称未設定グラデーション_17-12);}.cls-13{fill:url(#_名称未設定グラデーション_14-10);}.cls-14{fill:url(#_名称未設定グラデーション_58-10);}.cls-15{fill:url(#_名称未設定グラデーション_58-11);}.cls-16{fill:url(#_名称未設定グラデーション_58-12);}.cls-17{fill:url(#_名称未設定グラデーション_58-2);}.cls-18{fill:url(#_名称未設定グラデーション_58-3);}.cls-19{fill:url(#_名称未設定グラデーション_58-4);}.cls-20{fill:url(#_名称未設定グラデーション_58-7);}.cls-21{fill:url(#_名称未設定グラデーション_58-8);}.cls-22{fill:url(#_名称未設定グラデーション_58-5);}.cls-23{fill:url(#_名称未設定グラデーション_58-6);}.cls-24{fill:url(#_名称未設定グラデーション_58-9);}.cls-25{fill:url(#_名称未設定グラデーション_14-4);}.cls-26{fill:url(#_名称未設定グラデーション_14-8);}.cls-27{fill:url(#_名称未設定グラデーション_14-5);}.cls-28{fill:url(#_名称未設定グラデーション_14-6);}.cls-29{fill:url(#_名称未設定グラデーション_14-9);}.cls-30{fill:url(#_名称未設定グラデーション_14-7);}.cls-31{fill:url(#_名称未設定グラデーション_14-3);}.cls-32{fill:url(#_名称未設定グラデーション_14-2);}.cls-33{fill:url(#_名称未設定グラデーション_17-5);}.cls-34{fill:url(#_名称未設定グラデーション_17-2);}.cls-35{fill:url(#_名称未設定グラデーション_17-4);}.cls-36{fill:url(#_名称未設定グラデーション_17-9);}.cls-37{fill:url(#_名称未設定グラデーション_17-8);}.cls-38{fill:url(#_名称未設定グラデーション_17-3);}.cls-39{fill:url(#_名称未設定グラデーション_17-6);}.cls-40{fill:url(#_名称未設定グラデーション_17-7);}.cls-41{fill:url(#_名称未設定グラデーション_17);}.cls-42{fill:url(#_名称未設定グラデーション_58);}.cls-2{stroke:#231815;stroke-miterlimit:2;stroke-width:6.19px;}.cls-3{stroke-miterlimit:3;stroke-width:9.29px;}.cls-3,.cls-4,.cls-5{stroke:#fff;}.cls-4,.cls-5{stroke-width:3px;}.cls-5{stroke-linecap:round;stroke-linejoin:round;}</style><linearGradient id="_名称未設定グラデーション_17" x1="31.18" y1="48.66" x2="56.45" y2="28.32" gradientTransform="translate(44.64 1.38) rotate(43.1)" gradientUnits="userSpaceOnUse"><stop offset="0" stop-color="#6fc9f2"/><stop offset="1" stop-color="#eb6785"/></linearGradient><linearGradient id="_名称未設定グラデーション_17-2" x1="36.18" y1="54.88" x2="61.45" y2="34.54" gradientTransform="translate(40.65 -7.52) rotate(36.23)" xlink:href="#_名称未設定グラデーション_17"/><linearGradient id="_名称未設定グラデーション_17-3" x1="32.12" y1="49.83" x2="57.4" y2="29.5" gradientTransform="translate(25.14 -11.27) rotate(27.02)" xlink:href="#_名称未設定グラデーション_17"/><linearGradient id="_名称未設定グラデーション_17-4" x1="26.96" y1="43.42" x2="52.23" y2="23.08" gradientTransform="translate(53.62 -7.53) rotate(64.49)" xlink:href="#_名称未設定グラデーション_17"/><linearGradient id="_名称未設定グラデーション_17-5" x1="24.58" y1="40.46" x2="49.85" y2="20.12" gradientTransform="translate(29.35 -4.05) rotate(35.81)" xlink:href="#_名称未設定グラデーション_17"/><linearGradient id="_名称未設定グラデーション_17-6" x1="13.44" y1="26.61" x2="38.71" y2="6.28" gradientTransform="translate(21.04 .3) rotate(39.69)" xlink:href="#_名称未設定グラデーション_17"/><linearGradient id="_名称未設定グラデーション_17-7" x1="16.32" y1="30.19" x2="41.59" y2="9.86" gradientTransform="translate(33.92 -3) rotate(60.46)" xlink:href="#_名称未設定グラデーション_17"/><linearGradient id="_名称未設定グラデーション_17-8" x1="33.92" y1="52.07" x2="59.19" y2="31.73" gradientTransform="translate(32.9 -26.43) rotate(37.7)" xlink:href="#_名称未設定グラデーション_17"/><linearGradient id="_名称未設定グラデーション_17-9" x1="23.07" y1="38.58" x2="48.34" y2="18.25" gradientTransform="translate(22.91 -25.59) rotate(39.41)" xlink:href="#_名称未設定グラデーション_17"/><linearGradient id="_名称未設定グラデーション_17-10" x1="17.65" y1="31.84" x2="42.92" y2="11.51" gradientTransform="translate(1.56 -3.37) rotate(5.19)" xlink:href="#_名称未設定グラデーション_17"/><linearGradient id="_名称未設定グラデーション_14" x1="19.22" y1="51.42" x2="34.24" y2="51.42" gradientUnits="userSpaceOnUse"><stop offset="0" stop-color="#ee87b4"/><stop offset="1" stop-color="#00b9ef"/></linearGradient><linearGradient id="_名称未設定グラデーション_17-11" x1="38.62" y1="57.9" x2="63.89" y2="37.57" gradientTransform="translate(95.56 -18.37) rotate(85.47)" xlink:href="#_名称未設定グラデーション_17"/><linearGradient id="_名称未設定グラデーション_17-12" x1="33.22" y1="51.2" x2="58.49" y2="30.86" gradientTransform="translate(36.75 -44.83) rotate(46.11)" xlink:href="#_名称未設定グラデーション_17"/><linearGradient id="_名称未設定グラデーション_17-13" x1="39.08" y1="58.47" x2="64.35" y2="38.14" gradientTransform="translate(97.66 -48.26) rotate(84.79)" xlink:href="#_名称未設定グラデーション_17"/><linearGradient id="_名称未設定グラデーション_58" x1="61.97" y1="-7.16" x2="-2.78" y2="51.63" gradientUnits="userSpaceOnUse"><stop offset="0" stop-color="#e95079"/><stop offset="1" stop-color="#00a6ea"/></linearGradient><linearGradient id="_名称未設定グラデーション_58-2" x1="79.13" y1="11.74" x2="14.38" y2="70.53" xlink:href="#_名称未設定グラデーション_58"/><linearGradient id="_名称未設定グラデーション_58-3" x1="56.74" y1="-12.91" x2="-8.01" y2="45.88" xlink:href="#_名称未設定グラデーション_58"/><linearGradient id="_名称未設定グラデーション_58-4" x1="75.41" y1="7.64" x2="10.66" y2="66.44" xlink:href="#_名称未設定グラデーション_58"/><linearGradient id="_名称未設定グラデーション_58-5" x1="51.39" y1="-18.81" x2="-13.36" y2="39.98" xlink:href="#_名称未設定グラデーション_58"/><linearGradient id="_名称未設定グラデーション_58-6" x1="79.49" y1="12.14" x2="14.74" y2="70.93" xlink:href="#_名称未設定グラデーション_58"/><linearGradient id="_名称未設定グラデーション_58-7" x1="91.85" y1="25.76" x2="27.1" y2="84.55" xlink:href="#_名称未設定グラデーション_58"/><linearGradient id="_名称未設定グラデーション_58-8" x1="58.22" y1="-11.28" x2="-6.53" y2="47.51" xlink:href="#_名称未設定グラデーション_58"/><linearGradient id="_名称未設定グラデーション_58-9" x1="68.04" y1="-.47" x2="3.29" y2="58.32" xlink:href="#_名称未設定グラデーション_58"/><linearGradient id="_名称未設定グラデーション_58-10" x1="68.75" y1=".31" x2="4" y2="59.11" xlink:href="#_名称未設定グラデーション_58"/><linearGradient id="_名称未設定グラデーション_58-11" x1="80.44" y1="13.19" x2="15.69" y2="71.98" xlink:href="#_名称未設定グラデーション_58"/><linearGradient id="_名称未設定グラデーション_58-12" x1="87.93" y1="21.43" x2="23.18" y2="80.23" xlink:href="#_名称未設定グラデーション_58"/><linearGradient id="_名称未設定グラデーション_14-2" x1="63.43" y1="78.37" x2="195.87" y2="16.61" xlink:href="#_名称未設定グラデーション_14"/><linearGradient id="_名称未設定グラデーション_14-3" x1="63.43" y1="78.37" x2="195.87" y2="16.61" xlink:href="#_名称未設定グラデーション_14"/><linearGradient id="_名称未設定グラデーション_14-4" x1="63.43" y1="78.37" x2="195.87" y2="16.61" xlink:href="#_名称未設定グラデーション_14"/><linearGradient id="_名称未設定グラデーション_14-5" x1="63.43" y1="78.37" x2="195.87" y2="16.61" xlink:href="#_名称未設定グラデーション_14"/><linearGradient id="_名称未設定グラデーション_14-6" x1="63.43" y1="78.37" x2="195.87" y2="16.61" xlink:href="#_名称未設定グラデーション_14"/><linearGradient id="_名称未設定グラデーション_14-7" x1="63.43" y1="78.37" x2="195.87" y2="16.61" xlink:href="#_名称未設定グラデーション_14"/><linearGradient id="_名称未設定グラデーション_14-8" x1="63.43" y1="78.37" x2="195.87" y2="16.61" xlink:href="#_名称未設定グラデーション_14"/><linearGradient id="_名称未設定グラデーション_14-9" x1="63.43" y1="78.37" x2="195.87" y2="16.61" xlink:href="#_名称未設定グラデーション_14"/><linearGradient id="_名称未設定グラデーション_14-10" x1="63.43" y1="78.37" x2="195.87" y2="16.61" xlink:href="#_名称未設定グラデーション_14"/></defs><g id="_レイヤー_1-2"><rect class="cls-4" x="12.12" y="56.7" width="16.9" height="1" transform="translate(-33.54 29.49) rotate(-43.1)"/><rect class="cls-4" x="31.33" y="49.76" width="1" height="17.25" transform="translate(-28.35 30.09) rotate(-36.23)"/><rect class="cls-4" x="25.59" y="46.19" width="20.88" height="1" transform="translate(-17.27 21.46) rotate(-27.02)"/><rect class="cls-4" x="18.72" y="38.24" width="28.11" height="1" transform="translate(-16.3 51.64) rotate(-64.49)"/><rect class="cls-4" x="20.43" y="33.49" width="1" height="19.81" transform="translate(-21.43 20.45) rotate(-35.81)"/><rect class="cls-4" x="9.61" y="21.42" width="1" height="15.75" transform="translate(-16.38 13.21) rotate(-39.69)"/><rect class="cls-4" x="10.62" y="27.1" width="17.83" height="1" transform="translate(-14.11 30.99) rotate(-60.46)"/><rect class="cls-4" x="44.26" y="34.48" width="21.8" height="1" transform="translate(-9.87 41.03) rotate(-37.7)"/><rect class="cls-4" x="36.37" y="18.68" width="21.63" height="1" transform="translate(-1.45 34.32) rotate(-39.41)"/><rect class="cls-4" x="37.38" y="5.04" width="1" height="21.06" transform="translate(-1.25 3.49) rotate(-5.19)"/><circle class="cls-4" cx="26.73" cy="51.42" r="6.51"/><circle class="cls-4" cx="26.73" cy="51.42" r="6.51"/><circle class="cls-4" cx="26.73" cy="51.42" r="6.51"/><rect class="cls-4" x="57.22" y="31.31" width="1" height="22.44" transform="translate(10.76 96.71) rotate(-85.47)"/><rect class="cls-4" x="60.57" y="20.26" width="20.95" height="1" transform="translate(6.83 57.57) rotate(-46.11)"/><rect class="cls-4" x="74.76" y="17.84" width="1" height="23.05" transform="translate(39.18 101.64) rotate(-84.79)"/><circle class="cls-4" cx="15.14" cy="35.36" r="5.08"/><circle class="cls-4" cx="46.53" cy="41.34" r="5.08"/><circle class="cls-4" cx="36.92" cy="5.08" r="5.08"/><circle class="cls-4" cx="12.53" cy="64.73" r="5.08"/><circle class="cls-4" cx="5.08" cy="23.23" r="5.08"/><circle class="cls-4" cx="78.31" cy="13.21" r="5.08"/><circle class="cls-4" cx="86.74" cy="30.41" r="5.08"/><circle class="cls-4" cx="23.93" cy="19.85" r="5.08"/><circle class="cls-4" cx="38.83" cy="26.05" r="5.08"/><circle class="cls-4" cx="55.54" cy="12.31" r="5.08"/><circle class="cls-4" cx="68.91" cy="43.42" r="5.08"/><circle class="cls-4" cx="63.78" cy="28.31" r="5.08"/><circle class="cls-4" cx="37.88" cy="66.88" r="5.08"/><rect class="cls-41" x="12.12" y="56.7" width="16.9" height="1" transform="translate(-33.54 29.49) rotate(-43.1)"/><rect class="cls-34" x="31.33" y="49.76" width="1" height="17.25" transform="translate(-28.35 30.09) rotate(-36.23)"/><rect class="cls-38" x="25.59" y="46.19" width="20.88" height="1" transform="translate(-17.27 21.46) rotate(-27.02)"/><rect class="cls-35" x="18.72" y="38.24" width="28.11" height="1" transform="translate(-16.3 51.64) rotate(-64.49)"/><rect class="cls-33" x="20.43" y="33.49" width="1" height="19.81" transform="translate(-21.43 20.45) rotate(-35.81)"/><rect class="cls-39" x="9.61" y="21.42" width="1" height="15.75" transform="translate(-16.38 13.21) rotate(-39.69)"/><rect class="cls-40" x="10.62" y="27.1" width="17.83" height="1" transform="translate(-14.11 30.99) rotate(-60.46)"/><rect class="cls-37" x="44.26" y="34.48" width="21.8" height="1" transform="translate(-9.87 41.03) rotate(-37.7)"/><rect class="cls-36" x="36.37" y="18.68" width="21.63" height="1" transform="translate(-1.45 34.32) rotate(-39.41)"/><rect class="cls-9" x="37.38" y="5.04" width="1" height="21.06" transform="translate(-1.25 3.49) rotate(-5.19)"/><circle class="cls-1" cx="26.73" cy="51.42" r="6.51"/><circle class="cls-7" cx="26.73" cy="51.42" r="6.51"/><rect class="cls-10" x="57.22" y="31.31" width="1" height="22.44" transform="translate(10.76 96.71) rotate(-85.47)"/><rect class="cls-12" x="60.57" y="20.26" width="20.95" height="1" transform="translate(6.83 57.57) rotate(-46.11)"/><rect class="cls-11" x="74.76" y="17.84" width="1" height="23.05" transform="translate(39.18 101.64) rotate(-84.79)"/><circle class="cls-42" cx="15.14" cy="35.36" r="5.08"/><circle class="cls-17" cx="46.53" cy="41.34" r="5.08"/><circle class="cls-18" cx="36.92" cy="5.08" r="5.08"/><circle class="cls-19" cx="12.53" cy="64.73" r="5.08"/><circle class="cls-22" cx="5.08" cy="23.23" r="5.08"/><circle class="cls-23" cx="78.31" cy="13.21" r="5.08"/><circle class="cls-20" cx="86.74" cy="30.41" r="5.08"/><circle class="cls-21" cx="23.93" cy="19.85" r="5.08"/><circle class="cls-24" cx="38.83" cy="26.05" r="5.08"/><circle class="cls-14" cx="55.54" cy="12.31" r="5.08"/><circle class="cls-7" cx="68.91" cy="43.42" r="5.08"/><circle class="cls-15" cx="63.78" cy="28.31" r="5.08"/><circle class="cls-16" cx="37.88" cy="66.88" r="5.08"/><path class="cls-3" d="m54.23,37.98h3.46v8.29c.96-1.54,2.44-2.39,4.28-2.39,3.32,0,6.46,2.15,6.46,7.27v7.48h-3.46v-7.48c0-2.73-1.45-4.04-3.64-4.04s-3.64,1.37-3.64,4.04v7.48h-3.46v-20.65Z"/><path class="cls-3" d="m70.7,50.43c0-4.51,2.62-6.55,6.02-6.55,2.15,0,3.93.9,4.98,2.59,1.02-1.69,2.79-2.59,4.97-2.59,3.4,0,6.02,2.04,6.02,6.55v8.2h-3.46v-8.2c0-2.36-1.22-3.32-2.91-3.32s-2.88.99-2.88,3.32v8.2h-3.46v-8.2c0-2.33-1.25-3.32-2.91-3.32s-2.91.96-2.91,3.32v8.2h-3.46v-8.2Z"/><path class="cls-3" d="m94.96,50.43c0-4.51,2.62-6.55,6.02-6.55,2.15,0,3.93.9,4.98,2.59,1.02-1.69,2.79-2.59,4.97-2.59,3.4,0,6.02,2.04,6.02,6.55v8.2h-3.46v-8.2c0-2.36-1.22-3.32-2.91-3.32s-2.88.99-2.88,3.32v8.2h-3.46v-8.2c0-2.33-1.25-3.32-2.91-3.32s-2.91.96-2.91,3.32v8.2h-3.46v-8.2Z"/><path class="cls-3" d="m124.26,43.07h-5.67v-3.46h15.07v3.46h-5.67v15.56h-3.72v-15.56Z"/><path class="cls-3" d="m134.7,51.45c0-4.36,3.2-7.56,7.74-7.56s7.68,3.2,7.68,7.56v1.22h-11.78c.47,2.09,2.07,3.2,4.1,3.2,1.54,0,2.68-.44,3.4-1.37h3.69c-1.08,2.74-3.69,4.51-7.1,4.51-4.54,0-7.74-3.2-7.74-7.56Zm11.75-1.54c-.55-1.92-2.12-2.88-4.02-2.88s-3.46.99-4.01,2.88h8.03Z"/><path class="cls-3" d="m151.81,51.16c0-4.8,2.85-7.27,7.1-7.27s7.1,2.44,7.1,7.27v7.48h-3.46v-7.48c0-2.73-1.45-4.04-3.64-4.04s-3.64,1.31-3.64,4.04v7.48h-3.46v-7.48Z"/><path class="cls-3" d="m167.73,54.39h3.49c.03.96.87,1.6,2.56,1.6,1.77,0,2.53-.73,2.53-1.6,0-1.11-1.28-1.25-2.82-1.45-2.21-.29-5.47-.67-5.47-4.19,0-2.94,2.24-4.86,5.7-4.86s5.67,1.98,5.76,4.51h-3.43c-.09-.87-.9-1.48-2.27-1.48-1.51,0-2.27.73-2.27,1.57,0,1.11,1.31,1.28,2.85,1.48,1.92.26,5.44.64,5.44,4.22,0,2.91-2.36,4.83-6.02,4.83s-5.96-1.95-6.05-4.63Z"/><path class="cls-3" d="m180.93,51.45c0-4.36,3.2-7.56,7.74-7.56s7.74,3.2,7.74,7.56-3.2,7.56-7.74,7.56-7.74-3.2-7.74-7.56Zm11.95,0c0-2.53-1.69-4.34-4.22-4.34s-4.25,1.8-4.25,4.34,1.72,4.33,4.25,4.33,4.22-1.8,4.22-4.33Z"/><path class="cls-3" d="m198.1,50.28c0-4.34,2.56-6.4,6.31-6.4s6.28,2.07,6.28,6.46v.09h-3.43v-.15c0-2.33-1.16-3.17-2.85-3.17s-2.85.84-2.85,3.17v8.35h-3.46v-8.35Z"/><path class="cls-2" d="m54.23,37.98h3.46v8.29c.96-1.54,2.44-2.39,4.28-2.39,3.32,0,6.46,2.15,6.46,7.27v7.48h-3.46v-7.48c0-2.73-1.45-4.04-3.64-4.04s-3.64,1.37-3.64,4.04v7.48h-3.46v-20.65Z"/><path class="cls-2" d="m70.7,50.43c0-4.51,2.62-6.55,6.02-6.55,2.15,0,3.93.9,4.98,2.59,1.02-1.69,2.79-2.59,4.97-2.59,3.4,0,6.02,2.04,6.02,6.55v8.2h-3.46v-8.2c0-2.36-1.22-3.32-2.91-3.32s-2.88.99-2.88,3.32v8.2h-3.46v-8.2c0-2.33-1.25-3.32-2.91-3.32s-2.91.96-2.91,3.32v8.2h-3.46v-8.2Z"/><path class="cls-2" d="m94.96,50.43c0-4.51,2.62-6.55,6.02-6.55,2.15,0,3.93.9,4.98,2.59,1.02-1.69,2.79-2.59,4.97-2.59,3.4,0,6.02,2.04,6.02,6.55v8.2h-3.46v-8.2c0-2.36-1.22-3.32-2.91-3.32s-2.88.99-2.88,3.32v8.2h-3.46v-8.2c0-2.33-1.25-3.32-2.91-3.32s-2.91.96-2.91,3.32v8.2h-3.46v-8.2Z"/><path class="cls-2" d="m124.26,43.07h-5.67v-3.46h15.07v3.46h-5.67v15.56h-3.72v-15.56Z"/><path class="cls-2" d="m134.7,51.45c0-4.36,3.2-7.56,7.74-7.56s7.68,3.2,7.68,7.56v1.22h-11.78c.47,2.09,2.07,3.2,4.1,3.2,1.54,0,2.68-.44,3.4-1.37h3.69c-1.08,2.74-3.69,4.51-7.1,4.51-4.54,0-7.74-3.2-7.74-7.56Zm11.75-1.54c-.55-1.92-2.12-2.88-4.02-2.88s-3.46.99-4.01,2.88h8.03Z"/><path class="cls-2" d="m151.81,51.16c0-4.8,2.85-7.27,7.1-7.27s7.1,2.44,7.1,7.27v7.48h-3.46v-7.48c0-2.73-1.45-4.04-3.64-4.04s-3.64,1.31-3.64,4.04v7.48h-3.46v-7.48Z"/><path class="cls-2" d="m167.73,54.39h3.49c.03.96.87,1.6,2.56,1.6,1.77,0,2.53-.73,2.53-1.6,0-1.11-1.28-1.25-2.82-1.45-2.21-.29-5.47-.67-5.47-4.19,0-2.94,2.24-4.86,5.7-4.86s5.67,1.98,5.76,4.51h-3.43c-.09-.87-.9-1.48-2.27-1.48-1.51,0-2.27.73-2.27,1.57,0,1.11,1.31,1.28,2.85,1.48,1.92.26,5.44.64,5.44,4.22,0,2.91-2.36,4.83-6.02,4.83s-5.96-1.95-6.05-4.63Z"/><path class="cls-2" d="m180.93,51.45c0-4.36,3.2-7.56,7.74-7.56s7.74,3.2,7.74,7.56-3.2,7.56-7.74,7.56-7.74-3.2-7.74-7.56Zm11.95,0c0-2.53-1.69-4.34-4.22-4.34s-4.25,1.8-4.25,4.34,1.72,4.33,4.25,4.33,4.22-1.8,4.22-4.33Z"/><path class="cls-2" d="m198.1,50.28c0-4.34,2.56-6.4,6.31-6.4s6.28,2.07,6.28,6.46v.09h-3.43v-.15c0-2.33-1.16-3.17-2.85-3.17s-2.85.84-2.85,3.17v8.35h-3.46v-8.35Z"/><path class="cls-8" d="m54.23,37.98h3.46v8.29c.96-1.54,2.44-2.39,4.28-2.39,3.32,0,6.46,2.15,6.46,7.27v7.48h-3.46v-7.48c0-2.73-1.45-4.04-3.64-4.04s-3.64,1.37-3.64,4.04v7.48h-3.46v-20.65Z"/><path class="cls-8" d="m70.7,50.43c0-4.51,2.62-6.55,6.02-6.55,2.15,0,3.93.9,4.98,2.59,1.02-1.69,2.79-2.59,4.97-2.59,3.4,0,6.02,2.04,6.02,6.55v8.2h-3.46v-8.2c0-2.36-1.22-3.32-2.91-3.32s-2.88.99-2.88,3.32v8.2h-3.46v-8.2c0-2.33-1.25-3.32-2.91-3.32s-2.91.96-2.91,3.32v8.2h-3.46v-8.2Z"/><path class="cls-8" d="m94.96,50.43c0-4.51,2.62-6.55,6.02-6.55,2.15,0,3.93.9,4.98,2.59,1.02-1.69,2.79-2.59,4.97-2.59,3.4,0,6.02,2.04,6.02,6.55v8.2h-3.46v-8.2c0-2.36-1.22-3.32-2.91-3.32s-2.88.99-2.88,3.32v8.2h-3.46v-8.2c0-2.33-1.25-3.32-2.91-3.32s-2.91.96-2.91,3.32v8.2h-3.46v-8.2Z"/><path class="cls-8" d="m124.26,43.07h-5.67v-3.46h15.07v3.46h-5.67v15.56h-3.72v-15.56Z"/><path class="cls-8" d="m134.7,51.45c0-4.36,3.2-7.56,7.74-7.56s7.68,3.2,7.68,7.56v1.22h-11.78c.47,2.09,2.07,3.2,4.1,3.2,1.54,0,2.68-.44,3.4-1.37h3.69c-1.08,2.74-3.69,4.51-7.1,4.51-4.54,0-7.74-3.2-7.74-7.56Zm11.75-1.54c-.55-1.92-2.12-2.88-4.02-2.88s-3.46.99-4.01,2.88h8.03Z"/><path class="cls-8" d="m151.81,51.16c0-4.8,2.85-7.27,7.1-7.27s7.1,2.44,7.1,7.27v7.48h-3.46v-7.48c0-2.73-1.45-4.04-3.64-4.04s-3.64,1.31-3.64,4.04v7.48h-3.46v-7.48Z"/><path class="cls-8" d="m167.73,54.39h3.49c.03.96.87,1.6,2.56,1.6,1.77,0,2.53-.73,2.53-1.6,0-1.11-1.28-1.25-2.82-1.45-2.21-.29-5.47-.67-5.47-4.19,0-2.94,2.24-4.86,5.7-4.86s5.67,1.98,5.76,4.51h-3.43c-.09-.87-.9-1.48-2.27-1.48-1.51,0-2.27.73-2.27,1.57,0,1.11,1.31,1.28,2.85,1.48,1.92.26,5.44.64,5.44,4.22,0,2.91-2.36,4.83-6.02,4.83s-5.96-1.95-6.05-4.63Z"/><path class="cls-8" d="m180.93,51.45c0-4.36,3.2-7.56,7.74-7.56s7.74,3.2,7.74,7.56-3.2,7.56-7.74,7.56-7.74-3.2-7.74-7.56Zm11.95,0c0-2.53-1.69-4.34-4.22-4.34s-4.25,1.8-4.25,4.34,1.72,4.33,4.25,4.33,4.22-1.8,4.22-4.33Z"/><path class="cls-8" d="m198.1,50.28c0-4.34,2.56-6.4,6.31-6.4s6.28,2.07,6.28,6.46v.09h-3.43v-.15c0-2.33-1.16-3.17-2.85-3.17s-2.85.84-2.85,3.17v8.35h-3.46v-8.35Z"/><path class="cls-32" d="m54.23,37.98h3.46v8.29c.96-1.54,2.44-2.39,4.28-2.39,3.32,0,6.46,2.15,6.46,7.27v7.48h-3.46v-7.48c0-2.73-1.45-4.04-3.64-4.04s-3.64,1.37-3.64,4.04v7.48h-3.46v-20.65Z"/><path class="cls-31" d="m70.7,50.43c0-4.51,2.62-6.55,6.02-6.55,2.15,0,3.93.9,4.98,2.59,1.02-1.69,2.79-2.59,4.97-2.59,3.4,0,6.02,2.04,6.02,6.55v8.2h-3.46v-8.2c0-2.36-1.22-3.32-2.91-3.32s-2.88.99-2.88,3.32v8.2h-3.46v-8.2c0-2.33-1.25-3.32-2.91-3.32s-2.91.96-2.91,3.32v8.2h-3.46v-8.2Z"/><path class="cls-25" d="m94.96,50.43c0-4.51,2.62-6.55,6.02-6.55,2.15,0,3.93.9,4.98,2.59,1.02-1.69,2.79-2.59,4.97-2.59,3.4,0,6.02,2.04,6.02,6.55v8.2h-3.46v-8.2c0-2.36-1.22-3.32-2.91-3.32s-2.88.99-2.88,3.32v8.2h-3.46v-8.2c0-2.33-1.25-3.32-2.91-3.32s-2.91.96-2.91,3.32v8.2h-3.46v-8.2Z"/><path class="cls-27" d="m124.26,43.07h-5.67v-3.46h15.07v3.46h-5.67v15.56h-3.72v-15.56Z"/><path class="cls-28" d="m134.7,51.45c0-4.36,3.2-7.56,7.74-7.56s7.68,3.2,7.68,7.56v1.22h-11.78c.47,2.09,2.07,3.2,4.1,3.2,1.54,0,2.68-.44,3.4-1.37h3.69c-1.08,2.74-3.69,4.51-7.1,4.51-4.54,0-7.74-3.2-7.74-7.56Zm11.75-1.54c-.55-1.92-2.12-2.88-4.02-2.88s-3.46.99-4.01,2.88h8.03Z"/><path class="cls-30" d="m151.81,51.16c0-4.8,2.85-7.27,7.1-7.27s7.1,2.44,7.1,7.27v7.48h-3.46v-7.48c0-2.73-1.45-4.04-3.64-4.04s-3.64,1.31-3.64,4.04v7.48h-3.46v-7.48Z"/><path class="cls-26" d="m167.73,54.39h3.49c.03.96.87,1.6,2.56,1.6,1.77,0,2.53-.73,2.53-1.6,0-1.11-1.28-1.25-2.82-1.45-2.21-.29-5.47-.67-5.47-4.19,0-2.94,2.24-4.86,5.7-4.86s5.67,1.98,5.76,4.51h-3.43c-.09-.87-.9-1.48-2.27-1.48-1.51,0-2.27.73-2.27,1.57,0,1.11,1.31,1.28,2.85,1.48,1.92.26,5.44.64,5.44,4.22,0,2.91-2.36,4.83-6.02,4.83s-5.96-1.95-6.05-4.63Z"/><path class="cls-29" d="m180.93,51.45c0-4.36,3.2-7.56,7.74-7.56s7.74,3.2,7.74,7.56-3.2,7.56-7.74,7.56-7.74-3.2-7.74-7.56Zm11.95,0c0-2.53-1.69-4.34-4.22-4.34s-4.25,1.8-4.25,4.34,1.72,4.33,4.25,4.33,4.22-1.8,4.22-4.33Z"/><path class="cls-13" d="m198.1,50.28c0-4.34,2.56-6.4,6.31-6.4s6.28,2.07,6.28,6.46v.09h-3.43v-.15c0-2.33-1.16-3.17-2.85-3.17s-2.85.84-2.85,3.17v8.35h-3.46v-8.35Z"/><path class="cls-5" d="m151.84,71.18c-.21.1-.58.28-1.26.28-1.39,0-2.18-.86-2.18-2.14,0-1.39.95-2.19,2.14-2.19.48,0,.9.11,1.3.36l-.27.95c-.17-.13-.44-.33-.95-.33-.72,0-1.15.49-1.15,1.17,0,.53.25,1.18,1.17,1.18.6,0,1.03-.27,1.19-.37v1.08Z"/><path class="cls-5" d="m152.48,71.35v-4.11h1.03v.4c.23-.34.63-.55,1.21-.5v.99c-.54-.03-1.16.06-1.16.94v2.29h-1.08Z"/><path class="cls-5" d="m155.43,67.51c.47-.25.93-.38,1.47-.38.68,0,1.18.22,1.48.57.21.25.3.57.3,1.07v1.54c0,.56.07.84.16,1.04h-1.02c-.04-.1-.07-.19-.08-.37-.34.33-.76.48-1.22.48-.76,0-1.39-.46-1.39-1.29,0-1.05.91-1.28,1.65-1.4.72-.11.84-.13.84-.33,0-.17-.17-.36-.69-.36s-.98.17-1.41.45l-.09-1.02Zm2.21,1.89c-.19.09-.37.12-.84.19-.43.05-.67.19-.67.54,0,.24.16.43.48.43.23,0,.69-.08,1.04-.61v-.54Z"/><path class="cls-5" d="m159.49,71.35v-4.11h1.03v.4c.1-.13.41-.51,1.1-.51.72,0,1.09.43,1.2.67.15.31.18.64.18,1.24v2.31h-1.08v-2.35c0-.37,0-.89-.62-.89-.12,0-.74.03-.74.89v2.35h-1.08Z"/><path class="cls-5" d="m165,70.14v1.21h-1.2v-1.21h1.2Z"/><path class="cls-5" d="m165.81,71.35v-4.11h1.03v.4c.23-.34.63-.55,1.21-.5v.99c-.54-.03-1.16.06-1.16.94v2.29h-1.08Z"/><path class="cls-5" d="m170.39,68.77v1.04h-2v-1.04h2Z"/><path class="cls-5" d="m171.99,67.63c.14-.14.48-.51,1.15-.51,1.16,0,1.81,1.02,1.81,2.16s-.6,2.17-1.81,2.17c-.55,0-.89-.25-1.11-.44v2.16h-1.08v-5.94h1.04v.4Zm.96,2.84c.57,0,.91-.46.91-1.18s-.34-1.17-.91-1.17c-.21,0-.94.08-.94,1.17s.73,1.18.94,1.18Z"/><path class="cls-5" d="m175.53,71.35v-4.11h1.03v.4c.23-.34.63-.55,1.21-.5v.99c-.54-.03-1.16.06-1.16.94v2.29h-1.08Z"/><path class="cls-5" d="m180.2,67.13c1.09,0,2.04.83,2.04,2.16s-.95,2.17-2.04,2.17-2.03-.82-2.03-2.17.95-2.16,2.03-2.16Zm0,3.34c.63,0,.96-.49.96-1.18,0-1.17-.89-1.17-.96-1.17-.33,0-.95.2-.95,1.17,0,.69.34,1.18.95,1.18Z"/><path class="cls-5" d="m184.79,71.41c0,.78,0,1.76-1.33,1.76-.44,0-.72-.13-.91-.21l.08-.93c.13.05.35.16.62.16.4,0,.46-.3.46-.63v-4.33h1.08v4.17Zm.05-4.64h-1.17v-1.11h1.17v1.11Z"/><path class="cls-5" d="m186.6,69.62c.03.26.1.89,1.11.89.6,0,.94-.16,1.29-.33v1.01c-.21.08-.65.26-1.34.26-1.81,0-2.14-1.39-2.14-2.14,0-1.29.79-2.2,1.92-2.2.41,0,1.28.14,1.68,1.13.17.43.21.93.21,1.37h-2.73Zm1.65-.78c-.1-.8-.71-.8-.82-.8-.69,0-.8.65-.82.8h1.64Z"/><path class="cls-5" d="m193.26,71.18c-.21.1-.58.28-1.26.28-1.39,0-2.18-.86-2.18-2.14,0-1.39.95-2.19,2.14-2.19.48,0,.9.11,1.3.36l-.27.95c-.17-.13-.44-.33-.95-.33-.72,0-1.15.49-1.15,1.17,0,.53.25,1.18,1.17,1.18.6,0,1.03-.27,1.19-.37v1.08Z"/><path class="cls-5" d="m194.09,66.04h1.08v1.19h1.09v.99h-1.09v1.78c0,.34.08.47.46.47.23,0,.44-.03.57-.05v.97c-.12.01-.45.06-.84.06-1.26,0-1.26-.72-1.26-1.38v-1.85h-.47v-.99h.47v-1.19Z"/><path class="cls-5" d="m198,70.14v1.21h-1.2v-1.21h1.2Z"/><path class="cls-5" d="m200.68,67.13c1.09,0,2.04.83,2.04,2.16s-.95,2.17-2.04,2.17-2.03-.82-2.03-2.17.95-2.16,2.03-2.16Zm0,3.34c.63,0,.96-.49.96-1.18,0-1.17-.89-1.17-.96-1.17-.33,0-.95.2-.95,1.17,0,.69.34,1.18.95,1.18Z"/><path class="cls-5" d="m203.32,71.35v-4.11h1.03v.4c.23-.34.63-.55,1.21-.5v.99c-.54-.03-1.16.06-1.16.94v2.29h-1.08Z"/><path class="cls-5" d="m209.81,68.07c-.07-.03-.15-.05-.27-.05-.11,0-.19.02-.24.04.04.1.1.26.1.55,0,.97-.83,1.39-1.68,1.39-.11,0-.19,0-.25,0-.09.04-.19.13-.19.23,0,.16.26.19.72.21.93.04,1.85.21,1.85,1.31,0,1.24-1.38,1.42-2.09,1.42-1.3,0-1.86-.6-1.86-1.33,0-.65.47-.95.6-1.04-.12-.09-.33-.25-.33-.56s.26-.54.34-.59c-.52-.4-.52-.95-.52-1.08,0-.85.7-1.46,1.7-1.46.49,0,.77.13.91.2.32-.2.64-.2.73-.2.25,0,.36.04.47.09v.86Zm-2.11,3.19c-.4,0-.73.11-.73.51,0,.46.55.52.89.52.21,0,.92-.03.92-.55,0-.39-.45-.48-1.07-.48Zm-.67-2.67c0,.34.28.57.67.57s.68-.24.68-.59c0-.3-.22-.58-.67-.58-.38,0-.68.23-.68.6Z"/><path class="cls-6" d="m151.84,71.18c-.21.1-.58.28-1.26.28-1.39,0-2.18-.86-2.18-2.14,0-1.39.95-2.19,2.14-2.19.48,0,.9.11,1.3.36l-.27.95c-.17-.13-.44-.33-.95-.33-.72,0-1.15.49-1.15,1.17,0,.53.25,1.18,1.17,1.18.6,0,1.03-.27,1.19-.37v1.08Z"/><path class="cls-6" d="m152.48,71.35v-4.11h1.03v.4c.23-.34.63-.55,1.21-.5v.99c-.54-.03-1.16.06-1.16.94v2.29h-1.08Z"/><path class="cls-6" d="m155.43,67.51c.47-.25.93-.38,1.47-.38.68,0,1.18.22,1.48.57.21.25.3.57.3,1.07v1.54c0,.56.07.84.16,1.04h-1.02c-.04-.1-.07-.19-.08-.37-.34.33-.76.48-1.22.48-.76,0-1.39-.46-1.39-1.29,0-1.05.91-1.28,1.65-1.4.72-.11.84-.13.84-.33,0-.17-.17-.36-.69-.36s-.98.17-1.41.45l-.09-1.02Zm2.21,1.89c-.19.09-.37.12-.84.19-.43.05-.67.19-.67.54,0,.24.16.43.48.43.23,0,.69-.08,1.04-.61v-.54Z"/><path class="cls-6" d="m159.49,71.35v-4.11h1.03v.4c.1-.13.41-.51,1.1-.51.72,0,1.09.43,1.2.67.15.31.18.64.18,1.24v2.31h-1.08v-2.35c0-.37,0-.89-.62-.89-.12,0-.74.03-.74.89v2.35h-1.08Z"/><path class="cls-6" d="m165,70.14v1.21h-1.2v-1.21h1.2Z"/><path class="cls-6" d="m165.81,71.35v-4.11h1.03v.4c.23-.34.63-.55,1.21-.5v.99c-.54-.03-1.16.06-1.16.94v2.29h-1.08Z"/><path class="cls-6" d="m170.39,68.77v1.04h-2v-1.04h2Z"/><path class="cls-6" d="m171.99,67.63c.14-.14.48-.51,1.15-.51,1.16,0,1.81,1.02,1.81,2.16s-.6,2.17-1.81,2.17c-.55,0-.89-.25-1.11-.44v2.16h-1.08v-5.94h1.04v.4Zm.96,2.84c.57,0,.91-.46.91-1.18s-.34-1.17-.91-1.17c-.21,0-.94.08-.94,1.17s.73,1.18.94,1.18Z"/><path class="cls-6" d="m175.53,71.35v-4.11h1.03v.4c.23-.34.63-.55,1.21-.5v.99c-.54-.03-1.16.06-1.16.94v2.29h-1.08Z"/><path class="cls-6" d="m180.2,67.13c1.09,0,2.04.83,2.04,2.16s-.95,2.17-2.04,2.17-2.03-.82-2.03-2.17.95-2.16,2.03-2.16Zm0,3.34c.63,0,.96-.49.96-1.18,0-1.17-.89-1.17-.96-1.17-.33,0-.95.2-.95,1.17,0,.69.34,1.18.95,1.18Z"/><path class="cls-6" d="m184.79,71.41c0,.78,0,1.76-1.33,1.76-.44,0-.72-.13-.91-.21l.08-.93c.13.05.35.16.62.16.4,0,.46-.3.46-.63v-4.33h1.08v4.17Zm.05-4.64h-1.17v-1.11h1.17v1.11Z"/><path class="cls-6" d="m186.6,69.62c.03.26.1.89,1.11.89.6,0,.94-.16,1.29-.33v1.01c-.21.08-.65.26-1.34.26-1.81,0-2.14-1.39-2.14-2.14,0-1.29.79-2.2,1.92-2.2.41,0,1.28.14,1.68,1.13.17.43.21.93.21,1.37h-2.73Zm1.65-.78c-.1-.8-.71-.8-.82-.8-.69,0-.8.65-.82.8h1.64Z"/><path class="cls-6" d="m193.26,71.18c-.21.1-.58.28-1.26.28-1.39,0-2.18-.86-2.18-2.14,0-1.39.95-2.19,2.14-2.19.48,0,.9.11,1.3.36l-.27.95c-.17-.13-.44-.33-.95-.33-.72,0-1.15.49-1.15,1.17,0,.53.25,1.18,1.17,1.18.6,0,1.03-.27,1.19-.37v1.08Z"/><path class="cls-6" d="m194.09,66.04h1.08v1.19h1.09v.99h-1.09v1.78c0,.34.08.47.46.47.23,0,.44-.03.57-.05v.97c-.12.01-.45.06-.84.06-1.26,0-1.26-.72-1.26-1.38v-1.85h-.47v-.99h.47v-1.19Z"/><path class="cls-6" d="m198,70.14v1.21h-1.2v-1.21h1.2Z"/><path class="cls-6" d="m200.68,67.13c1.09,0,2.04.83,2.04,2.16s-.95,2.17-2.04,2.17-2.03-.82-2.03-2.17.95-2.16,2.03-2.16Zm0,3.34c.63,0,.96-.49.96-1.18,0-1.17-.89-1.17-.96-1.17-.33,0-.95.2-.95,1.17,0,.69.34,1.18.95,1.18Z"/><path class="cls-6" d="m203.32,71.35v-4.11h1.03v.4c.23-.34.63-.55,1.21-.5v.99c-.54-.03-1.16.06-1.16.94v2.29h-1.08Z"/><path class="cls-6" d="m209.81,68.07c-.07-.03-.15-.05-.27-.05-.11,0-.19.02-.24.04.04.1.1.26.1.55,0,.97-.83,1.39-1.68,1.39-.11,0-.19,0-.25,0-.09.04-.19.13-.19.23,0,.16.26.19.72.21.93.04,1.85.21,1.85,1.31,0,1.24-1.38,1.42-2.09,1.42-1.3,0-1.86-.6-1.86-1.33,0-.65.47-.95.6-1.04-.12-.09-.33-.25-.33-.56s.26-.54.34-.59c-.52-.4-.52-.95-.52-1.08,0-.85.7-1.46,1.7-1.46.49,0,.77.13.91.2.32-.2.64-.2.73-.2.25,0,.36.04.47.09v.86Zm-2.11,3.19c-.4,0-.73.11-.73.51,0,.46.55.52.89.52.21,0,.92-.03.92-.55,0-.39-.45-.48-1.07-.48Zm-.67-2.67c0,.34.28.57.67.57s.68-.24.68-.59c0-.3-.22-.58-.67-.58-.38,0-.68.23-.68.6Z"/></g></svg>