<?xml version="1.0" encoding="UTF-8"?><svg id="_レイヤー_2" xmlns="http://www.w3.org/2000/svg" xmlns:xlink="http://www.w3.org/1999/xlink" viewBox="0 0 121.97 141.73"><defs><style>.cls-1,.cls-2,.cls-3,.cls-4,.cls-5,.cls-6,.cls-7{fill:none;}.cls-2{opacity:.6;}.cls-3{opacity:.83;}.cls-4{stroke:#231815;stroke-miterlimit:2;stroke-width:3.5px;}.cls-5{stroke:url(#_名称未設定グラデーション_14);stroke-width:2px;}.cls-8{fill:#040000;}.cls-9{fill:#fff;}.cls-10{fill:#f39800;}.cls-11{fill:#656565;}.cls-12{fill:#c2c2c2;}.cls-13{fill:#b3b3b3;}.cls-14{fill:#a6a6a6;}.cls-15{fill:#bdbdbd;}.cls-16{fill:#d5d5d5;}.cls-17{fill:#262626;}.cls-18{fill:#4e3840;}.cls-19{fill:url(#_名称未設定グラデーション_17-10);}.cls-20{fill:url(#_名称未設定グラデーション_17-11);}.cls-21{fill:url(#_名称未設定グラデーション_17-13);}.cls-22{fill:url(#_名称未設定グラデーション_17-12);}.cls-23{fill:url(#_名称未設定グラデーション_14-20);}.cls-24{fill:url(#_名称未設定グラデーション_14-21);}.cls-25{fill:url(#_名称未設定グラデーション_14-22);}.cls-26{fill:url(#_名称未設定グラデーション_14-23);}.cls-27{fill:url(#_名称未設定グラデーション_14-19);}.cls-28{fill:url(#_名称未設定グラデーション_14-18);}.cls-29{fill:url(#_名称未設定グラデーション_14-17);}.cls-30{fill:url(#_名称未設定グラデーション_14-14);}.cls-31{fill:url(#_名称未設定グラデーション_14-13);}.cls-32{fill:url(#_名称未設定グラデーション_14-16);}.cls-33{fill:url(#_名称未設定グラデーション_14-15);}.cls-34{fill:url(#_名称未設定グラデーション_14-10);}.cls-35{fill:url(#_名称未設定グラデーション_14-12);}.cls-36{fill:url(#_名称未設定グラデーション_14-11);}.cls-37{fill:url(#_名称未設定グラデーション_58-10);}.cls-38{fill:url(#_名称未設定グラデーション_58-11);}.cls-39{fill:url(#_名称未設定グラデーション_58-12);}.cls-40{fill:url(#_名称未設定グラデーション_58-2);}.cls-41{fill:url(#_名称未設定グラデーション_58-3);}.cls-42{fill:url(#_名称未設定グラデーション_58-4);}.cls-43{fill:url(#_名称未設定グラデーション_58-7);}.cls-44{fill:url(#_名称未設定グラデーション_58-8);}.cls-45{fill:url(#_名称未設定グラデーション_58-5);}.cls-46{fill:url(#_名称未設定グラデーション_58-6);}.cls-47{fill:url(#_名称未設定グラデーション_58-9);}.cls-48{fill:url(#_名称未設定グラデーション_14-4);}.cls-49{fill:url(#_名称未設定グラデーション_14-8);}.cls-50{fill:url(#_名称未設定グラデーション_14-5);}.cls-51{fill:url(#_名称未設定グラデーション_14-6);}.cls-52{fill:url(#_名称未設定グラデーション_14-9);}.cls-53{fill:url(#_名称未設定グラデーション_14-7);}.cls-54{fill:url(#_名称未設定グラデーション_14-3);}.cls-55{fill:url(#_名称未設定グラデーション_14-2);}.cls-56{fill:url(#_名称未設定グラデーション_17-5);}.cls-57{fill:url(#_名称未設定グラデーション_17-2);}.cls-58{fill:url(#_名称未設定グラデーション_17-4);}.cls-59{fill:url(#_名称未設定グラデーション_17-9);}.cls-60{fill:url(#_名称未設定グラデーション_17-8);}.cls-61{fill:url(#_名称未設定グラデーション_17-3);}.cls-62{fill:url(#_名称未設定グラデーション_17-6);}.cls-63{fill:url(#_名称未設定グラデーション_17-7);}.cls-64{fill:url(#_名称未設定グラデーション_17);}.cls-65{fill:url(#_名称未設定グラデーション_58);}.cls-6{stroke:#fff;stroke-miterlimit:3;stroke-width:5.25px;}.cls-7{clip-path:url(#clippath);}</style><clipPath id="clippath"><polygon class="cls-1" points="5.71 103.04 5.71 38.69 60.98 6.56 116.26 38.69 116.26 103.04 60.98 135.17 5.71 103.04"/></clipPath><linearGradient id="_名称未設定グラデーション_17" x1="41.65" y1="69.46" x2="66.92" y2="49.13" gradientTransform="translate(61.67 -.16) rotate(43.1)" gradientUnits="userSpaceOnUse"><stop offset="0" stop-color="#6fc9f2"/><stop offset="1" stop-color="#eb6785"/></linearGradient><linearGradient id="_名称未設定グラデーション_17-2" x1="46.65" y1="75.68" x2="71.93" y2="55.34" gradientTransform="translate(54.97 -9.69) rotate(36.23)" xlink:href="#_名称未設定グラデーション_17"/><linearGradient id="_名称未設定グラデーション_17-3" x1="42.6" y1="70.63" x2="67.87" y2="50.3" gradientTransform="translate(35.73 -13.76) rotate(27.02)" xlink:href="#_名称未設定グラデーション_17"/><linearGradient id="_名称未設定グラデーション_17-4" x1="37.44" y1="64.22" x2="62.71" y2="43.88" gradientTransform="translate(78.35 -5.14) rotate(64.49)" xlink:href="#_名称未設定グラデーション_17"/><linearGradient id="_名称未設定グラデーション_17-5" x1="35.05" y1="61.26" x2="60.32" y2="40.92" gradientTransform="translate(43.5 -6.24) rotate(35.81)" xlink:href="#_名称未設定グラデーション_17"/><linearGradient id="_名称未設定グラデーション_17-6" x1="23.91" y1="47.42" x2="49.18" y2="27.08" gradientTransform="translate(36.74 -1.6) rotate(39.69)" xlink:href="#_名称未設定グラデーション_17"/><linearGradient id="_名称未設定グラデーション_17-7" x1="26.79" y1="50.99" x2="52.06" y2="30.66" gradientTransform="translate(57.32 -1.57) rotate(60.46)" xlink:href="#_名称未設定グラデーション_17"/><linearGradient id="_名称未設定グラデーション_17-8" x1="44.39" y1="72.87" x2="69.66" y2="52.53" gradientTransform="translate(47.81 -28.49) rotate(37.7)" xlink:href="#_名称未設定グラデーション_17"/><linearGradient id="_名称未設定グラデーション_17-9" x1="33.54" y1="59.38" x2="58.81" y2="39.05" gradientTransform="translate(38.5 -27.51) rotate(39.41)" xlink:href="#_名称未設定グラデーション_17"/><linearGradient id="_名称未設定グラデーション_17-10" x1="28.12" y1="52.64" x2="53.39" y2="32.31" gradientTransform="translate(3.49 -4.23) rotate(5.19)" xlink:href="#_名称未設定グラデーション_17"/><linearGradient id="_名称未設定グラデーション_14" x1="29.69" y1="72.23" x2="44.71" y2="72.23" gradientUnits="userSpaceOnUse"><stop offset="0" stop-color="#ee87b4"/><stop offset="1" stop-color="#00b9ef"/></linearGradient><linearGradient id="_名称未設定グラデーション_17-11" x1="49.09" y1="78.7" x2="74.36" y2="58.37" gradientTransform="translate(125.94 -9.65) rotate(85.47)" xlink:href="#_名称未設定グラデーション_17"/><linearGradient id="_名称未設定グラデーション_17-12" x1="43.7" y1="72" x2="68.97" y2="51.66" gradientTransform="translate(54.95 -46) rotate(46.11)" xlink:href="#_名称未設定グラデーション_17"/><linearGradient id="_名称未設定グラデーション_17-13" x1="49.55" y1="79.27" x2="74.82" y2="58.94" gradientTransform="translate(127.89 -39.77) rotate(84.79)" xlink:href="#_名称未設定グラデーション_17"/><linearGradient id="_名称未設定グラデーション_58" x1="72.44" y1="13.64" x2="7.69" y2="72.43" gradientUnits="userSpaceOnUse"><stop offset="0" stop-color="#e95079"/><stop offset="1" stop-color="#00a6ea"/></linearGradient><linearGradient id="_名称未設定グラデーション_58-2" x1="89.6" y1="32.54" x2="24.85" y2="91.34" xlink:href="#_名称未設定グラデーション_58"/><linearGradient id="_名称未設定グラデーション_58-3" x1="67.21" y1="7.89" x2="2.46" y2="66.68" xlink:href="#_名称未設定グラデーション_58"/><linearGradient id="_名称未設定グラデーション_58-4" x1="85.88" y1="28.45" x2="21.13" y2="87.24" xlink:href="#_名称未設定グラデーション_58"/><linearGradient id="_名称未設定グラデーション_58-5" x1="61.86" y1="1.99" x2="-2.89" y2="60.78" xlink:href="#_名称未設定グラデーション_58"/><linearGradient id="_名称未設定グラデーション_58-6" x1="89.96" y1="32.94" x2="25.21" y2="91.73" xlink:href="#_名称未設定グラデーション_58"/><linearGradient id="_名称未設定グラデーション_58-7" x1="102.33" y1="46.56" x2="37.57" y2="105.35" xlink:href="#_名称未設定グラデーション_58"/><linearGradient id="_名称未設定グラデーション_58-8" x1="68.69" y1="9.52" x2="3.94" y2="68.31" xlink:href="#_名称未設定グラデーション_58"/><linearGradient id="_名称未設定グラデーション_58-9" x1="78.51" y1="20.33" x2="13.76" y2="79.12" xlink:href="#_名称未設定グラデーション_58"/><linearGradient id="_名称未設定グラデーション_58-10" x1="79.22" y1="21.12" x2="14.47" y2="79.91" xlink:href="#_名称未設定グラデーション_58"/><linearGradient id="_名称未設定グラデーション_58-11" x1="90.91" y1="33.99" x2="26.16" y2="92.78" xlink:href="#_名称未設定グラデーション_58"/><linearGradient id="_名称未設定グラデーション_58-12" x1="98.4" y1="42.24" x2="33.65" y2="101.03" xlink:href="#_名称未設定グラデーション_58"/><linearGradient id="_名称未設定グラデーション_14-2" x1="5.7" y1="70.85" x2="116.27" y2="70.85" xlink:href="#_名称未設定グラデーション_14"/><linearGradient id="_名称未設定グラデーション_14-3" x1="68.52" y1="60.35" x2="101.26" y2="94.53" xlink:href="#_名称未設定グラデーション_14"/><linearGradient id="_名称未設定グラデーション_14-4" x1="63.7" y1="60.95" x2="74.37" y2="60.95" xlink:href="#_名称未設定グラデーション_14"/><linearGradient id="_名称未設定グラデーション_14-5" x1="75.87" y1="71.81" x2="81.6" y2="71.81" xlink:href="#_名称未設定グラデーション_14"/><linearGradient id="_名称未設定グラデーション_14-6" x1="63.17" y1="83.93" x2="68.9" y2="83.93" xlink:href="#_名称未設定グラデーション_14"/><linearGradient id="_名称未設定グラデーション_14-7" x1="88.6" y1="77.87" x2="94.33" y2="77.87" xlink:href="#_名称未設定グラデーション_14"/><linearGradient id="_名称未設定グラデーション_14-8" x1="94.95" y1="83.93" x2="100.68" y2="83.93" xlink:href="#_名称未設定グラデーション_14"/><linearGradient id="_名称未設定グラデーション_14-9" x1="75.62" y1="67.32" x2="86.75" y2="67.32" xlink:href="#_名称未設定グラデーション_14"/><linearGradient id="_名称未設定グラデーション_14-10" x1="86.82" y1="75.26" x2="97.95" y2="75.26" xlink:href="#_名称未設定グラデーション_14"/><linearGradient id="_名称未設定グラデーション_14-11" x1="72.13" y1="56.89" x2="104.87" y2="91.07" xlink:href="#_名称未設定グラデーション_14"/><linearGradient id="_名称未設定グラデーション_14-12" x1="74.01" y1="55.08" x2="106.75" y2="89.27" xlink:href="#_名称未設定グラデーション_14"/><linearGradient id="_名称未設定グラデーション_14-13" x1="98.11" y1="82.97" x2="109.24" y2="82.97" xlink:href="#_名称未設定グラデーション_14"/><linearGradient id="_名称未設定グラデーション_14-14" x1="76.05" y1="53.13" x2="108.79" y2="87.32" xlink:href="#_名称未設定グラデーション_14"/><linearGradient id="_名称未設定グラデーション_14-15" x1="23.97" y1="117.47" x2="98.85" y2="82.55" xlink:href="#_名称未設定グラデーション_14"/><linearGradient id="_名称未設定グラデーション_14-16" x1="23.97" y1="117.47" x2="98.85" y2="82.55" xlink:href="#_名称未設定グラデーション_14"/><linearGradient id="_名称未設定グラデーション_14-17" x1="23.97" y1="117.47" x2="98.85" y2="82.55" xlink:href="#_名称未設定グラデーション_14"/><linearGradient id="_名称未設定グラデーション_14-18" x1="23.97" y1="117.47" x2="98.85" y2="82.55" xlink:href="#_名称未設定グラデーション_14"/><linearGradient id="_名称未設定グラデーション_14-19" x1="23.97" y1="117.47" x2="98.85" y2="82.55" xlink:href="#_名称未設定グラデーション_14"/><linearGradient id="_名称未設定グラデーション_14-20" x1="23.97" y1="117.47" x2="98.85" y2="82.55" xlink:href="#_名称未設定グラデーション_14"/><linearGradient id="_名称未設定グラデーション_14-21" x1="23.97" y1="117.47" x2="98.85" y2="82.55" xlink:href="#_名称未設定グラデーション_14"/><linearGradient id="_名称未設定グラデーション_14-22" x1="23.97" y1="117.47" x2="98.85" y2="82.55" xlink:href="#_名称未設定グラデーション_14"/><linearGradient id="_名称未設定グラデーション_14-23" x1="23.97" y1="117.47" x2="98.85" y2="82.55" xlink:href="#_名称未設定グラデーション_14"/></defs><g id="_レイヤー_1-2"><g class="cls-7"><path d="m101.91,29.53c-.86-.23-1.74-.09-2.46.32s-1.28,1.1-1.5,1.96h0s0,0,0,0c-.18.65-.13,1.32.08,1.91l-3.1,1.79-.53-.92-6.37,3.68.53.92-.69.4c-.41-.48-.97-.85-1.62-1.03-.86-.23-1.74-.09-2.46.32-.71.41-1.28,1.1-1.51,1.96,0,0,0,0,0,0h0c-.23.86-.09,1.74.32,2.45.41.72,1.1,1.28,1.96,1.51.86.23,1.74.09,2.45-.32h0c.71-.42,1.27-1.11,1.5-1.96.18-.66.13-1.32-.08-1.92l.69-.4.53.92,1.33-.77,4.56,7.9,2.47.66c-.05.67.1,1.32.42,1.87.41.72,1.1,1.28,1.96,1.51.86.23,1.74.09,2.46-.32s1.28-1.1,1.51-1.96c.23-.86.09-1.74-.32-2.46s-1.11-1.28-1.97-1.51c-.86-.23-1.74-.09-2.46.32-.55.32-1.01.81-1.3,1.41l-2-.53-4.32-7.48,4.02-2.32-.53-.92,3.1-1.79c.41.48.96.85,1.62,1.03.86.23,1.74.09,2.45-.33h0c.71-.42,1.27-1.1,1.5-1.96.23-.86.09-1.74-.33-2.45s-1.11-1.28-1.96-1.51Zm-14.51,12.7c-.15.55-.5.98-.96,1.25s-1.01.35-1.56.21c-.55-.15-.99-.5-1.25-.96-.26-.46-.35-1.01-.2-1.56l-.57-.15.57.15c.15-.55.5-.98.96-1.25.46-.26,1.01-.35,1.56-.2.55.15.99.5,1.25.96s.35,1.01.21,1.56Zm11.31,6.28l.57.15c.14-.55.5-.98.96-1.25s1.01-.35,1.56-.2c.55.14.98.5,1.25.96.26.46.35,1.01.2,1.56-.15.55-.5.99-.96,1.25s-1.01.35-1.56.21c-.55-.15-.99-.5-1.25-.96s-.35-1.01-.21-1.56l-.57-.15Zm4.36-15.32c-.15.55-.5.98-.96,1.25s-1.01.35-1.56.21c-.55-.15-.99-.5-1.25-.96-.26-.46-.35-1.01-.2-1.56l-.57-.15.57.15c.14-.55.5-.98.96-1.25.46-.26,1.01-.35,1.56-.2.55.15.98.5,1.25.96s.35,1.01.21,1.56Z"/><path d="m92.29,80.91c.16-.59-.19-1.19-.78-1.35-.59-.16-1.19.19-1.35.78-.16.59.19,1.19.78,1.35.59.16,1.19-.19,1.35-.78Z"/><path d="m61.08,66.15c-.16.59.19,1.19.78,1.35.59.16,1.19-.19,1.35-.78.16-.59-.19-1.19-.78-1.35-.59-.16-1.19.19-1.35.78Z"/><path d="m69.8,56.92c.16-.59-.19-1.19-.78-1.35-.59-.16-1.19.19-1.35.78-.16.59.19,1.19.78,1.35.59.16,1.19-.19,1.35-.78Z"/><path d="m37.22,85.07c-.16.59.19,1.19.78,1.35.59.16,1.19-.19,1.35-.78.16-.59-.19-1.19-.78-1.35-.59-.16-1.19.19-1.35.78Z"/><path d="m100.01,32.36c-.16.59.19,1.19.78,1.35.59.16,1.2-.19,1.35-.78.16-.59-.19-1.19-.78-1.35-.59-.16-1.19.19-1.35.78Z"/><path d="m84.34,41.41c-.16.59.19,1.19.78,1.35.59.16,1.19-.19,1.35-.78.16-.59-.19-1.19-.78-1.35-.59-.16-1.19.19-1.35.78Z"/><path d="m102.33,49.47c.16-.59-.19-1.19-.78-1.35-.59-.16-1.19.19-1.35.78-.16.59.19,1.19.78,1.35.59.16,1.19-.19,1.35-.78Z"/><path d="m33.71,61.86c-.16.59.19,1.19.78,1.35.59.16,1.19-.19,1.35-.78.16-.59-.19-1.19-.78-1.35-.59-.16-1.19.19-1.35.78Z"/><path d="m39.94,49.22c-.16.59.19,1.19.78,1.35.59.16,1.19-.19,1.35-.78.16-.59-.19-1.19-.78-1.35-.59-.16-1.19.19-1.35.78Z"/><path d="m60.76,120.55c-.16.59.19,1.19.78,1.35.59.16,1.19-.19,1.35-.78.16-.59-.19-1.19-.78-1.35-.59-.16-1.19.19-1.35.78Z"/><path d="m57.16,113.13c-.16.59.19,1.19.78,1.35.59.16,1.19-.19,1.35-.78.16-.59-.19-1.19-.78-1.35-.59-.16-1.19.19-1.35.78Z"/><path d="m28.7,26.52c-.16.59.19,1.19.78,1.35.59.16,1.19-.19,1.35-.78.16-.59-.19-1.19-.78-1.35-.59-.16-1.19.19-1.35.78Z"/><path d="m53.43,41.67c-.16.59.19,1.19.78,1.35.59.16,1.19-.19,1.35-.78.16-.59-.19-1.19-.78-1.35-.59-.16-1.19.19-1.35.78Z"/><path d="m87.26,100.26c-.16.59.19,1.19.78,1.35.59.16,1.19-.19,1.35-.78.16-.59-.19-1.19-.78-1.35-.59-.16-1.19.19-1.35.78Z"/><path d="m46.77,76.6l.13.22-1.61.93c-.42-.47-1.13-.59-1.7-.27-.66.38-.88,1.22-.5,1.87s1.22.88,1.87.5c.57-.33.81-1,.62-1.6l1.61-.93.13.22,4.39-2.54-.13-.22,1.13-.65,3.42.92.2-.11.15.25,2.62-1.51-.15-.25.6-.35,1.95,3.37.43-.25.22.38.97-.56,1.27,2.21-.22.84-3.06,1.77c-.43-.47-1.13-.59-1.7-.27-.66.38-.88,1.22-.5,1.88s1.22.88,1.88.5c.57-.33.81-1,.62-1.6l2.55-1.47-.46,1.7.37.65c-.47.43-.59,1.13-.26,1.7.38.66,1.22.88,1.87.5s.88-1.22.5-1.87c-.33-.57-1-.81-1.6-.62l-.25-.43.9-3.35-1.4-2.42,1.44-.83,1.64,2.84,1.31.35-.26.97c-.25-.01-.51.04-.75.18-.66.38-.88,1.22-.5,1.88s1.22.88,1.88.5.88-1.22.5-1.87c-.14-.24-.33-.41-.56-.53l.26-.97,1.59.43,4.77,1.28.93-3.48,1.04.28c-.01.25.04.51.18.75.38.66,1.22.88,1.88.5s.88-1.22.5-1.87-1.22-.88-1.87-.5c-.24.14-.41.33-.53.56l-1.6-.43-.94,3.48-3.92-1.05.63-2.34,2-1.16c.42.47,1.13.59,1.7.26.66-.38.88-1.22.5-1.87s-1.22-.88-1.88-.5c-.57.33-.81,1-.62,1.6l-2.22,1.28-.69,2.58-2.95-.79-1.52-2.63,2.34-1.35,1.1.3,1.49-.86c.42.47,1.13.59,1.7.26.66-.38.88-1.22.5-1.88s-1.22-.88-1.87-.5c-.57.33-.81,1-.62,1.6l-1.28.74-.5-.13-.66-1.15-6.28,3.63-1.73-2.99-1.11.64-.15-.25-2.62,1.51.14.24-6.8-1.82-2.39,1.38c-.43-.47-1.13-.59-1.7-.26-.66.38-.88,1.22-.5,1.88s1.22.88,1.88.5c.57-.33.81-1,.62-1.6l2.17-1.25,2.61.7-.63.36-.13-.22-4.39,2.54Zm-2.1,2.76c-.38.22-.85.09-1.07-.29-.22-.38-.09-.86.29-1.07s.85-.09,1.07.29.09.85-.29,1.07Zm15.82,3.09c-.38.21-.86.09-1.07-.29s-.09-.86.29-1.07.85-.09,1.07.29c.21.38.09.85-.29,1.07Zm4.99.4c.22.37.09.85-.29,1.07s-.85.09-1.07-.29-.09-.86.29-1.07.86-.09,1.07.29Zm2.62-1.74c-.38.22-.86.09-1.07-.28-.22-.38-.09-.85.29-1.07.38-.21.85-.09,1.07.29.21.37.09.85-.29,1.07Zm9.8-4.98c.37-.22.85-.09,1.07.29.21.38.09.86-.29,1.07s-.86.09-1.07-.29c-.22-.38-.09-.86.29-1.07Zm-4.03-3.05c.38-.22.85-.09,1.07.29.21.38.09.85-.29,1.07s-.85.09-1.07-.29c-.22-.38-.09-.86.29-1.07Zm-2.73-1.99c.37-.22.85-.09,1.07.29.21.38.09.85-.29,1.07-.38.21-.86.09-1.07-.29s-.09-.86.29-1.07Zm-24.92,4.48c-.38.22-.86.09-1.07-.29s-.09-.85.29-1.07.85-.09,1.07.29.09.85-.29,1.07Z"/><path d="m101.28,67.16l2.43.65-.69,2.57-1.44,5.38-.36.21,1.86-6.94-4.19-1.12.27-.99,1.89-7.05-1.27-2.19.29-.17-3.68-6.37-.29.17-.92-1.59-11.65-3.12-5.18-8.97-2.78-4.81c.48-.41.85-.96,1.03-1.62.23-.86.09-1.74-.33-2.46-.41-.72-1.1-1.28-1.96-1.51-.86-.23-1.75-.09-2.46.32-.71.41-1.28,1.1-1.51,1.96h0s0,0,0,0c-.23.86-.09,1.74.33,2.45.41.72,1.1,1.28,1.96,1.51.65.18,1.32.14,1.92-.08l2.78,4.81,1.3,2.25-8.7,5.03-8.29-2.22,1.55-5.79,2.98.8.86-3.2-7.1-1.9-.28,1.03-16.9-4.53-9.78-2.62c.05-.63-.08-1.28-.42-1.87-.89-1.55-2.87-2.08-4.42-1.19s-2.08,2.87-1.18,4.42,2.87,2.08,4.42,1.18c.59-.34,1.03-.84,1.3-1.41l7.88,2.11-2.5,9.32,3.4,5.88-.21.77c-.67-.05-1.32.1-1.87.42-.72.41-1.28,1.1-1.5,1.96h0c-.23.86-.09,1.74.32,2.45.41.72,1.1,1.28,1.96,1.51.86.23,1.74.09,2.45-.32s1.28-1.1,1.51-1.96c.23-.86.09-1.74-.33-2.46-.32-.55-.81-1.01-1.41-1.3l.33-1.24-3.4-5.88.34-1.27,1.31.35,1.97,3.42.94,1.63,2.85.76,2.23,3.86.76,1.32c-.41.37-.58.96-.36,1.5.02.06.05.13.08.18.34.58,1.05.84,1.7.59.06-.02.12-.05.18-.09.58-.34.84-1.05.59-1.7l-.27.11.27-.12c-.02-.05-.05-.11-.09-.17-.32-.55-.98-.8-1.59-.61l-.76-1.31-2.35-4.07-.77-.21,1.17-.68,1.49.4,1.48,2.56c-.41.37-.58.96-.36,1.5.02.06.06.13.09.18.33.58,1.05.85,1.7.59.06-.02.12-.05.18-.09.58-.33.84-1.05.59-1.69l-.27.11.27-.12c-.02-.06-.05-.11-.09-.17-.32-.55-.98-.8-1.59-.61l-1.6-2.77-1.96-.52-1.89,1.09-1.27-.34-.82-1.42-2.1-3.63-1.55-.41.76-2.82,2.18.58.77,1.34.06.11,3.67.98,3.81,1.02,3.53-2.04,3.23-1.87h0s1.54.41,1.54.41l-.28,1.03,2.98.8-.47,1.77-1.15-.31-1.11-1.93-.51.29,1.23,2.14.1.03-.93,3.45-1.52-.41c.05-.67-.1-1.32-.42-1.87-.41-.72-1.1-1.28-1.96-1.51-.86-.23-1.74-.09-2.46.32s-1.28,1.1-1.51,1.96c0,0,0,0,0,0h0s0,0,0,0c-.23.86-.09,1.74.33,2.45.41.71,1.1,1.28,1.96,1.51.86.23,1.74.09,2.45-.32.55-.32,1.01-.81,1.3-1.41l.91.25-3.18,11.88-1.63.94-6.11-1.64-1.5,5.59-6.29-1.69-2.38,1.38c-.41-.48-.97-.85-1.62-1.03-.86-.23-1.74-.09-2.46.32-.72.41-1.28,1.1-1.5,1.96,0,0,0,0,0,0,0,0,0,0,0,0-.23.86-.09,1.74.32,2.45s1.1,1.28,1.96,1.51c.86.23,1.74.09,2.46-.32s1.28-1.1,1.51-1.96c.18-.66.13-1.32-.08-1.92l1.96-1.13,6.96,1.86,1.5-5.58,5.44,1.46,3.47-2,.91,1.58,1.68-.97,1.4.38,2.46,4.26-.64,2.39c-.85-.22-1.72-.08-2.43.33-.72.41-1.28,1.1-1.51,1.97h0c-.23.86-.09,1.74.32,2.45.03.06.08.1.11.16l-2.67,1.54-2.04,1.18-1.56-2.7,2.59-1.5.63-2.36,2.13-1.23.5-1.87,1.26.34c-.01.25.04.51.18.75.38.66,1.22.88,1.88.5s.88-1.22.5-1.87-1.22-.88-1.87-.5c-.24.14-.41.33-.53.56l-3.09-.83c.01-.25-.04-.51-.18-.75-.38-.66-1.22-.88-1.87-.5s-.88,1.22-.5,1.88,1.22.88,1.88.5c.24-.14.41-.33.53-.56l1.26.34-.44,1.63-2.13,1.23-.63,2.36-2.38,1.37-1.68-2.91-7.21,4.17-2.44-4.23.72-.42-.74-1.27-6.37,3.68.74,1.27,2.67-1.54,3.03,5.25,6.13-3.54-.39,1.44-.31-.53-5.09,2.94.4.7-1.42.82-1.86-.5-4.28,2.47c-.37-.41-.96-.58-1.5-.36-.06.02-.13.06-.18.09-.58.34-.84,1.06-.59,1.7.02.06.06.12.09.18.34.58,1.05.84,1.7.59.06-.03.12-.06.18-.09.55-.32.8-.98.61-1.59l4.06-2.35,1.86.5,1.64-.94.16.27-.44,1.63-2.52,1.46c-.42-.47-1.13-.59-1.7-.26-.66.38-.88,1.22-.5,1.87s1.22.88,1.88.5c.57-.33.81-1,.62-1.6l2.74-1.58.47-1.76,4.8-2.77-.4-.7.04-.02.67-2.51,2.31-1.33,3.53,6.11,3.06-1.76,2.93-1.69c.3.21.63.38,1,.48.86.23,1.74.09,2.45-.32h0c.55-.32,1-.81,1.29-1.41l6.59,1.77,11.36,3.04-3.27,12.21-8.76-2.35-9.57,5.53-.9.52-2.16-3.74-2.47-4.29-7.1-1.9-8.03,4.64c-.99-1.16-2.7-1.5-4.07-.7-1.55.89-2.08,2.87-1.18,4.42.89,1.55,2.87,2.08,4.42,1.18,1.37-.79,1.94-2.44,1.43-3.88l7.61-4.39,6.16,1.65,2.09,3.61-2.21,1.28-1.78-3.08-3.31-.89-2.85,1.65c-.42-.47-1.13-.59-1.7-.26-.66.38-.88,1.22-.5,1.87s1.22.88,1.88.5c.57-.33.81-1,.62-1.6l2.64-1.52,2.85.76.38.66-1.42.82-1.67-.45-4.85,2.8c-.42-.47-1.13-.59-1.7-.27-.66.38-.88,1.22-.5,1.88s1.22.88,1.88.5c.57-.33.81-1,.62-1.6l1.2-.69c-.65.38-.86,1.21-.49,1.86s1.22.88,1.87.5c.57-.33.81-1,.62-1.6l.73-.42,1.16.31.4.11-.07.25,4.9,1.31.07-.25.88.24.38.66-8.04,4.64-4.76,2.75-2.58-4.47c.47-.43.59-1.13.26-1.7-.38-.66-1.22-.88-1.88-.5s-.88,1.22-.5,1.87c.33.57,1,.81,1.6.62l3.61,6.25c-.25.41-.28.95-.02,1.39.38.66,1.22.88,1.87.5.57-.33.81-1,.62-1.6l1.85-1.07,2.88.77,1.41,2.44,3.5-2.02.64,1.1-.94-.25-.97.56-.13-.22-4.24,2.45-1.86-3.22-3.93,2.27c-.42-.47-1.13-.59-1.7-.27-.66.38-.88,1.22-.5,1.88s1.22.88,1.88.5c.57-.33.81-1,.62-1.6l3.43-1.98,1.99,3.44.35-.2.13.22,4.39-2.54-.13-.22.75-.43,3.63.97-.54,2.02-1.44,5.37c-.63-.05-1.28.08-1.87.42-1.55.89-2.08,2.87-1.18,4.42.89,1.55,2.87,2.08,4.42,1.18s2.08-2.87,1.19-4.42c-.34-.59-.84-1.03-1.41-1.3l1.07-3.99,2.99,5.18-1.59,5.94c-.63-.05-1.28.08-1.87.42-1.55.89-2.08,2.87-1.18,4.42s2.87,2.08,4.42,1.18,2.08-2.87,1.18-4.42c-.34-.59-.84-1.03-1.41-1.3l1.72-6.4-3.82-6.62,1.49-5.56.04-.02.53.93,6.37-3.68-1.66-2.87h0s-3.48-6.03-3.48-6.03l6.74-3.89,3.86,1.03.76,1.33,5.09,1.36,3.44.92,2.08-1.2.89-3.33-1.69-2.93,1.64-6.11.42.72-1.51,5.64,1.69,2.93-.88,3.28-2.28,1.32-4.27-1.14-.57,2.15-1.85-.49.42-1.56-3.12-.84-3.38-.91-2.46,1.42-.54,2.02c-.25-.01-.51.04-.75.18-.66.38-.88,1.22-.5,1.87s1.22.88,1.87.5.88-1.22.5-1.87c-.14-.23-.33-.41-.56-.53l.48-1.79,2.04-1.18,3.15.84,2.55.68-.6,2.25,1.47,2.55,6.86,1.84.79-2.94,4.2-2.43,5.14,1.38-.15.57-5.09-1.36-4.08,2.36-.74,2.74-7-1.88-2.97,1.72-2.35-.63c.01-.25-.04-.51-.18-.75-.38-.66-1.22-.88-1.87-.5-.66.38-.88,1.22-.5,1.87s1.22.88,1.88.5c.24-.14.41-.33.53-.56l2.59.69,2.97-1.71,7.34,1.97.83-3.08,3.66-2.11,4.85,1.3-1.27,4.73-3.16,1.82c-.41-.48-.97-.85-1.62-1.03-.86-.23-1.74-.09-2.45.32-.72.41-1.28,1.1-1.51,1.96t0,0h0c-.23.86-.09,1.74.32,2.45.41.72,1.1,1.28,1.96,1.51.86.23,1.74.09,2.45-.32h0c.71-.42,1.27-1.11,1.5-1.96.17-.65.14-1.31-.07-1.9v-.03s3.56-2.05,3.56-2.05l1.26,2.18-1.46,5.45-1.62.94-1.12,4.2c-.25-.01-.51.04-.75.18-.66.38-.88,1.22-.5,1.88s1.22.88,1.87.5.88-1.22.5-1.87c-.14-.24-.33-.41-.56-.53l1.06-3.97,1.62-.94,1.59-5.91-1.38-2.39.84-.49,1.31,2.27-1.85,6.89.42.11-.15.55-1.33.77-.1.06-1.97,7.34c-.25-.01-.51.04-.75.18-.66.38-.88,1.22-.5,1.87s1.22.88,1.87.5.88-1.22.5-1.88c-.14-.24-.33-.41-.56-.53l1.9-7.1,1.33-.77.1-.06.21-.79.43.11,1.9-7.1-.84-.22-1.44-2.5,1.76-1.01.33-1.23,1.59.43.81,1.41-.81,3.01,1.52.41c-.01.25.04.51.18.75.38.66,1.22.88,1.88.5s.88-1.22.5-1.87-1.22-.88-1.87-.5c-.24.14-.41.33-.53.56l-.95-.26.72-2.67-1.06-1.84-1.82-.49.15-.57,1.82.49,1.92-1.11.61-2.29-1.02-1.77-1.03-1.78c.46-.43.58-1.12.25-1.69-.38-.66-1.22-.88-1.88-.5s-.88,1.22-.5,1.87c.33.57,1.01.82,1.62.62l1.02,1.77.9,1.56-.49,1.83-1.5.87-1.59-.43.63-2.37-3.22-5.58,1.43-5.35,4.41-2.55,1.57-5.85.69-2.57,2.43.65.15-.57-6-1.61-.16.57ZM30.8,28.59c-.99.57-2.24.23-2.81-.75-.57-.99-.23-2.24.75-2.81.98-.57,2.24-.23,2.81.76.57.98.23,2.24-.75,2.81Zm12.2,21.45c-.15.55-.5.99-.96,1.25s-1.01.35-1.56.21c-.55-.15-.99-.5-1.25-.96-.26-.46-.35-1.01-.21-1.56l-.57-.15.57.15c.15-.55.5-.98.96-1.25s1.01-.35,1.56-.21h0c.54.15.98.5,1.25.96s.35,1.01.21,1.56Zm8.12-3.83c.37-.15.78,0,.97.33.02.03.04.07.06.12.14.36-.01.77-.34.95-.03.02-.07.04-.11.05-.36.15-.78,0-.97-.34-.02-.04-.04-.07-.04-.09-.15-.38,0-.79.33-.99.04-.02.07-.03.1-.05Zm-.86,3.66s.06-.03.1-.04c.37-.15.78,0,.98.33.02.03.04.07.06.11.14.36-.01.77-.34.96-.03.02-.07.04-.11.05-.36.15-.78,0-.97-.34-.02-.04-.03-.07-.04-.08-.15-.39,0-.8.33-.99Zm-8.55-19.25l.76.2,12.44,3.33-1.38.8-2.69,1.55-5.45-1.46-.94-1.62-3.27-.88.52-1.92Zm12.6,5.68l-3.31,1.91-3.58-.96-3.43-.92-.77-1.33-.06-.11-2.42-.65.3-1.14,3.04.81.93,1.62,5.91,1.59,2.9-1.67,1.89-1.09,1.33.36-2.73,1.57Zm2.18,6.2c-.15.55-.5.99-.96,1.25s-1.01.35-1.56.2c-.55-.15-.99-.5-1.25-.96s-.35-1.01-.21-1.56l-.57-.15.57.15c.14-.55.5-.98.96-1.25.46-.26,1.01-.35,1.56-.21.55.15.99.5,1.25.96s.35,1.01.21,1.56Zm-19.72,20.19c-.15.55-.5.99-.96,1.25s-1.01.35-1.56.21c-.55-.15-.99-.5-1.25-.96s-.35-1.01-.21-1.56l-.57-.15.57.15c.14-.55.5-.98.95-1.25.46-.26,1.01-.35,1.56-.2.55.15.98.5,1.25.96.26.46.35,1.01.2,1.56Zm24.52-1.68c.37-.22.85-.09,1.07.29.22.38.09.85-.29,1.07-.38.22-.86.09-1.08-.29-.21-.38-.09-.85.29-1.07Zm-4.89-.16c-.38.22-.86.09-1.07-.29-.22-.38-.09-.85.29-1.07.38-.21.85-.09,1.07.29.22.38.09.85-.29,1.07Zm-13.83,8.98l-.51.29-2.44-4.23.51-.29,2.44,4.23Zm.93-.54l-.42.24-2.44-4.23.42-.24,2.44,4.23Zm-8.95,6.87h0c.15.36,0,.77-.33.96-.03.02-.07.04-.11.05-.36.14-.78,0-.97-.34-.02-.04-.04-.07-.05-.09-.15-.37,0-.79.33-.98.04-.02.07-.04.1-.05.38-.15.78,0,.98.33.02.03.03.06.05.11Zm.38-.15l-.1.04.1-.04h0Zm4.33,2.2c-.38.22-.86.09-1.07-.29-.21-.38-.09-.85.29-1.07s.85-.09,1.07.29.09.85-.29,1.07Zm24.88-11.23c-.15.55-.5.98-.96,1.25-.46.26-1.01.35-1.56.21-.55-.15-.98-.5-1.25-.96s-.35-1.01-.21-1.56l-.57-.15.57.15c.14-.55.5-.98.95-1.25.46-.26,1.01-.35,1.57-.2.55.15.98.5,1.25.96.26.46.35,1.01.2,1.56Zm-24.81,20.17c-.98.57-2.24.23-2.81-.75-.57-.99-.23-2.24.75-2.81.99-.57,2.24-.23,2.81.75.57.99.23,2.24-.76,2.81Zm7.1-1.44c-.38.22-.86.09-1.07-.29-.21-.38-.09-.86.29-1.07s.85-.09,1.07.29.09.85-.29,1.07Zm-1.78,3.58c-.38.22-.86.09-1.07-.29s-.09-.85.29-1.07c.38-.21.85-.09,1.07.29s.09.85-.29,1.07Zm.37,15.35c-.38.22-.85.09-1.07-.29-.21-.38-.09-.85.29-1.07.38-.21.85-.09,1.07.29s.09.85-.29,1.07Zm14.25,10.56c-.99.57-2.24.23-2.81-.75-.57-.99-.23-2.24.75-2.81.98-.57,2.24-.23,2.81.75.56.98.23,2.24-.76,2.81Zm3.61,7.43c-.99.57-2.24.23-2.81-.75-.57-.99-.23-2.24.75-2.81.98-.57,2.24-.23,2.81.75.57.98.23,2.24-.75,2.81Zm-15.02-33.27c-.38.21-.85.09-1.07-.29-.22-.38-.09-.85.29-1.07.38-.22.86-.09,1.07.29s.09.85-.29,1.07Zm8.25-.36l.07-.25-4.9-1.31-.07.25-.39-.11-1.39-.37-.94.54c-.42-.46-1.12-.59-1.69-.27l3.4-1.96,1.67.45,1.64-.94,1.27,2.21,2.72-1.57,2.01,3.49-1.78,1.03-.44-.77-.06-.11-1.11-.3Zm-15.87,3.77c-.21-.38-.09-.85.29-1.07s.85-.09,1.07.29c.22.38.09.85-.29,1.07-.38.22-.85.09-1.07-.29Zm6.27,8.55c-.38.21-.86.09-1.07-.29s-.09-.85.29-1.07c.38-.22.85-.09,1.07.29.21.38.09.85-.29,1.07Zm16.7-4.9l-1.66.96.53.92-.47.27-.98,3.67-2.13-.57-1.22-2.12-3.5,2.02-1.24-2.14-3.35-.9-2.06,1.19c-.42-.47-1.13-.59-1.7-.27-.02.01-.04.03-.06.04l-.35-.61,4.76-2.75,10.9-6.3.44.76-1.13,4.22-.98.56-3.45-.92-2.49,1.44c-.42-.47-1.13-.59-1.7-.26-.66.38-.88,1.22-.51,1.88s1.22.88,1.88.5c.57-.33.81-1,.62-1.6l2.28-1.32,2.65.71-.52.3c-.42-.47-1.13-.59-1.7-.27-.66.38-.88,1.22-.51,1.88s1.22.88,1.88.5c.57-.33.81-1,.62-1.6l2.43-1.4,1.04-3.89.78,1.36-.4,1.51,1.29,2.24Zm-10.47,0c.22.38.09.86-.29,1.07s-.86.09-1.07-.29c-.21-.38-.09-.85.29-1.07s.85-.09,1.07.29Zm4.7.2c.22.38.09.85-.29,1.07s-.86.09-1.07-.29-.09-.85.29-1.07.85-.09,1.07.29Zm7.04-.94l-.77.44-1.17-2.03.41-1.51-1.76-3.05.83-.48.19-.11,1.53,2.81-.48,1.81,1.22,2.11Zm2.42-1.4l-1.91,1.1-1.1-1.9.48-1.8-1.65-3.03.69-.4,3.48,6.03Zm2.32-2.85c-.38.22-.86.09-1.07-.29s-.09-.85.29-1.07.85-.09,1.07.29.09.86-.29,1.07Zm2.96,3.46c-.38.22-.86.09-1.07-.29s-.09-.86.29-1.07.85-.09,1.07.29.09.85-.29,1.07Zm18.16,6.2c-.15.55-.5.98-.96,1.25-.46.26-1.01.35-1.56.2-.55-.15-.99-.5-1.25-.96s-.35-1.01-.21-1.56l-.57-.15.57.15c.15-.55.5-.98.96-1.25s1.01-.35,1.56-.21c.55.15.99.5,1.25.96s.35,1.01.2,1.56Zm2.01,11.14c-.38.21-.86.09-1.07-.29s-.09-.86.29-1.07.85-.09,1.07.29c.21.38.09.85-.29,1.07Zm.64,4.44c-.38.22-.85.09-1.07-.29-.21-.38-.09-.85.29-1.07s.85-.09,1.07.29c.21.38.09.85-.29,1.07Zm10.02-17.94c.38-.22.85-.09,1.07.29s.09.85-.29,1.07c-.38.22-.86.09-1.07-.29-.21-.37-.09-.86.29-1.07Zm-3.09-12.84c-.22-.37-.09-.85.29-1.07.38-.22.86-.09,1.07.29s.09.85-.29,1.07c-.38.21-.85.09-1.07-.29Zm-1.86-19.27l-1.07,3.98-3.41-.91-.76,2.84-2.03-.55-1.04-1.8,8.7-5.03-.39,1.47Zm-7.88,10.96l-2.9-5.02-4.64-1.24,1.3-4.85,1.72-.99,1.93,3.35,2.41,4.17,2.51.67-.61,2.27-.4,1.48c-.46-.04-.91.02-1.33.17Zm-23.97-21.63l.57.15c.14-.55.5-.98.96-1.25s1.01-.35,1.56-.2c.55.15.98.5,1.25.96s.35,1.01.21,1.56c-.15.55-.5.98-.96,1.25-.46.26-1.01.35-1.56.21-.55-.15-.99-.5-1.25-.96s-.35-1.01-.2-1.56l-.57-.15Zm11.75,4.98l-.15.57-.41,1.54,1.78,3.09,3.95,1.06-.23.85-5-1.34-2.11-3.66.6-2.23-2.06-.55.38-1.42,1.7.46-.3,1.13,1.85.5Zm-1.12-.91l.15-.57,2.7.72,3.45.93,2.23,3.86-1.94,1.12-.15.54-3.72-1-1.54-2.67.35-1.3.23-.85.08-.29-1.85-.5Zm-3.22.66l2.06.55-.51,1.89.16.27-5.21-1.39-.45-.78.44-1.66c.09-.04.19-.07.27-.12.55-.32,1.01-.81,1.29-1.41l2.47.66-.53,1.99Zm-4.88-.82c.24,0,.48-.02.71-.07l-.41,1.51.63,1.1.06.1,6.02,1.61.8,1.38-7.53-2.02-.86-1.48.58-2.14Zm.83,4.38l7.26,1.95.04-.13.67,1.15,5.23,1.4-.11.41-10.32-2.76-2.62-.7-.34-.58.19-.72Zm29.31-.7l-9.72,5.61-.54-.93-.33-.57,11.22-6.48-.64,2.37Zm.77-3.8l-11.95,6.9-.55-.95,11.95-6.9.55.95Zm-26.66-27.39c-.55-.15-.99-.5-1.25-.96s-.35-1.01-.21-1.56l-.57-.15.57.15c.14-.55.5-.98.96-1.25s1.01-.35,1.56-.21c.55.15.98.5,1.25.96s.35,1.01.21,1.56c-.09.34-.27.63-.5.87l-.53-.91c.03-.07.08-.13.1-.21.16-.59-.19-1.19-.78-1.35-.59-.16-1.19.19-1.35.78-.16.59.19,1.19.78,1.35.08.02.15,0,.23.01l.53.91c-.32.08-.66.09-1,0Zm-12.23,6.98l.72.19-.92,3.45-.72-.19.92-3.45Zm1.57,5.33l-2.12,7.91-1.42.82,2.42-9.03,1.13.3Zm-1.69-.45l-2.57,9.6-.72.42,2.72-10.17.57.15Zm-4.74,10.85l3.03-11.31.57.15-2.88,10.74-.72.42Zm3.79.59l-1.38.8-.62-1.07,3.53-2.04,2.24-8.38,6.67,1.79,4.93-2.84,1.14,1.98-4.74,2.73-4.72-1.26-1.33,4.95-1.07-.29-.28-.07-.4,1.5c-.33-.08-.69-.04-1.01.14-.66.38-.88,1.22-.5,1.87.14.24.33.41.56.53l-.12.43-2.91-.78Zm14.95-8.18l.69,1.19-2.12,1.22-1.25.72-5.09-1.36.31-1.17,4.39,1.18,3.08-1.78Zm-10.61,6.92c.21.38.09.85-.29,1.07-.38.21-.86.09-1.07-.29s-.09-.85.29-1.07.85-.09,1.07.29Zm.02,7.25l.54.14-.23.87-.31,1.15c-.16-.11-.32-.21-.5-.29l.5-1.87Zm1.35,5.05c.05-.67-.1-1.32-.42-1.87-.12-.21-.27-.4-.44-.58l.38-1.43.38-1.44-1.11-.29.06-.24-2.29-3.96,1.04.28.27-1c.25.01.51-.04.75-.18.66-.38.88-1.22.5-1.88-.09-.15-.2-.28-.33-.38l.28-1.05,1.35.36.86-3.21,5.32,1.43,1.46-.85,2.63-1.52-.98-1.7,1.87-1.08-1.43-2.48.68-.39,1.64,2.85,2.14.57.66,1.15-.69,2.58.69.18-.11.43,7.1,1.9.11-.43.41.11,1.05,1.82-.05.2c-.25-.01-.51.04-.75.18-.66.38-.88,1.22-.5,1.88s1.22.88,1.87.5.88-1.22.5-1.87c-.14-.24-.33-.41-.56-.53l.08-.31.03-.12-1.3-2.25-.65-.17.11-.43-7.1-1.9-.11.43-.12-.03.39-1.44.29.51,4.13,1.11,4.3,1.15,2.08,3.61-.36,1.34c-.25-.01-.51.04-.75.18-.66.38-.88,1.22-.5,1.88s1.22.88,1.87.5.88-1.22.5-1.88c-.14-.24-.33-.41-.56-.53l.42-1.57-2.33-4.03-4.53-1.21-3.9-1.04-1.37-2.38-2.14-.57-1.52-2.63,2.51-1.45,3.54,6.12,11.65,3.12.67,1.17-.29.17,3.68,6.37.29-.17h0s-11.95,6.91-11.95,6.91l-2.94-5.09-3.93-1.05-8.01-2.15c.05-.67-.1-1.32-.42-1.87-.41-.72-1.11-1.28-1.97-1.51-.86-.23-1.74-.09-2.45.32-.72.41-1.28,1.1-1.51,1.96t0,0s0,0,0,0c-.23.86-.09,1.74.32,2.45s1.1,1.28,1.96,1.51c.07.02.14.02.21.04l-.61,2.28,1.1,1.91.37.1-.26.96.52.9.06.11,2.85.76,10.32,2.76-.14.51-9.57-2.56-2.21-.59-2.18-.58-1.36.78-1.65-.44Zm24.43-11.13c.22.37.09.85-.29,1.07s-.85.09-1.07-.29c-.22-.38-.09-.86.29-1.07s.85-.09,1.07.29Zm2.36,1.64c.22.38.09.85-.29,1.07s-.86.09-1.07-.29c-.22-.38-.09-.86.29-1.07.37-.21.85-.09,1.07.29Zm-10.12,13.96l-10.08-2.7-4.14-1.11.64-.37,1.94.52,2.21.59,9.57,2.56-.14.5Zm2.91,9.89l1.69,2.92-.76,2.85-1.66.96-3.2-.86-4.85-1.3-.35-.61,4.76,1.28,3.58-13.35,2.32.62.33.57-1.85,6.92Zm5.25-2.21c.46-.26,1.01-.35,1.56-.21.55.15.99.5,1.25.96.26.46.35,1.01.2,1.56-.15.55-.5.98-.96,1.25-.46.26-1.01.35-1.56.2-.56-.15-.99-.5-1.25-.96s-.35-1.01-.21-1.56l-.57-.15.57.15c.15-.55.5-.98.96-1.25Zm8.51,11.35l-1.17,4.36-2.16,1.25,2.08-7.76,1.25,2.16Zm-3.22-5.58l1.14,1.98-.96,3.6-5.37-1.44-4.63,2.67-.7,2.6-6.06-1.62-1.23-2.13.12-.45,2.42.65.57-2.15,3.93,1.05,2.71-1.56,1.01-3.75-1.69-2.93,1.3-4.83,1.08,1.87c-.48.41-.85.96-1.03,1.62h0c-.23.86-.09,1.74.32,2.45.41.71,1.1,1.28,1.97,1.51.86.23,1.74.09,2.45-.32h0c.55-.32,1-.81,1.29-1.41l1.9.51-.56,2.08Zm2.72-6.89l-1.04.6-.82,3.07-1.9-.51c.05-.67-.1-1.32-.42-1.87-.11-.19-.25-.37-.4-.54l.44-1.65.65-2.41,1.87.5,1.62,2.81Zm.51-.29l-1.74-3.02-2.67-.72-.8,2.98-.36,1.36c-.16-.12-.34-.23-.52-.32l.4-1.48,1.37-5.11,3.41.91.38-1.42,2.7.72-1.54,5.73-.61.35Zm1.33-.77l1.54-5.73-3.26-.87.42-1.56,3.62.97-1.86,6.94-.45.26Z"/></g><path d="m60.98,134.11c-1.14,0-2.28-.3-3.3-.89l-48.69-28.31c-2.03-1.18-3.3-3.39-3.3-5.75v-56.63c0-2.36,1.26-4.57,3.3-5.75L57.69,8.47c2.03-1.18,4.56-1.18,6.59,0l48.69,28.31c2.03,1.18,3.3,3.39,3.3,5.75v56.63c0,2.36-1.26,4.57-3.3,5.75l-48.69,28.31c-1.02.59-2.16.89-3.3.89Zm0-124.64c-.82,0-1.63.21-2.36.64L9.93,38.42c-1.46.85-2.36,2.42-2.36,4.12v56.63c0,1.69.9,3.27,2.36,4.12l48.69,28.31c1.46.85,3.26.85,4.72,0l48.69-28.31c1.46-.85,2.36-2.42,2.36-4.12v-56.63c0-1.69-.9-3.27-2.36-4.12L63.34,10.1c-.73-.42-1.54-.64-2.36-.64Z"/><polygon class="cls-8" points="0 106.28 0 35.46 60.98 0 121.97 35.46 121.97 106.28 60.98 141.73 0 106.28"/><rect class="cls-64" x="22.59" y="77.5" width="16.9" height="1" transform="translate(-44.92 42.26) rotate(-43.1)"/><rect class="cls-57" x="41.8" y="70.56" width="1" height="17.25" transform="translate(-38.62 40.3) rotate(-36.23)"/><rect class="cls-61" x="36.06" y="66.99" width="20.88" height="1" transform="translate(-25.58 28.49) rotate(-27.02)"/><rect class="cls-58" x="29.2" y="59.04" width="28.11" height="1" transform="translate(-29.11 72.93) rotate(-64.49)"/><rect class="cls-56" x="30.91" y="54.29" width="1" height="19.81" transform="translate(-31.62 30.51) rotate(-35.81)"/><rect class="cls-62" x="20.08" y="42.22" width="1" height="15.75" transform="translate(-27.25 24.69) rotate(-39.69)"/><rect class="cls-63" x="21.09" y="47.91" width="17.83" height="1" transform="translate(-26.9 50.64) rotate(-60.46)"/><rect class="cls-60" x="54.73" y="55.28" width="21.8" height="1" transform="translate(-20.41 51.78) rotate(-37.7)"/><rect class="cls-59" x="46.84" y="39.48" width="21.63" height="1" transform="translate(-12.27 45.7) rotate(-39.41)"/><rect class="cls-19" x="47.85" y="25.84" width="1" height="21.06" transform="translate(-3.09 4.53) rotate(-5.19)"/><circle class="cls-5" cx="37.2" cy="72.23" r="6.51"/><circle class="cls-9" cx="37.2" cy="72.23" r="6.51"/><rect class="cls-20" x="67.69" y="52.11" width="1" height="22.44" transform="translate(-.33 126.31) rotate(-85.47)"/><rect class="cls-22" x="71.04" y="41.06" width="20.95" height="1" transform="translate(-4.95 71.49) rotate(-46.11)"/><rect class="cls-21" x="85.23" y="38.64" width="1" height="23.05" transform="translate(27.99 130.98) rotate(-84.79)"/><circle class="cls-65" cx="25.61" cy="56.16" r="5.08"/><circle class="cls-40" cx="57" cy="62.14" r="5.08"/><circle class="cls-41" cx="47.39" cy="25.88" r="5.08"/><circle class="cls-42" cx="23" cy="85.53" r="5.08"/><circle class="cls-45" cx="15.55" cy="44.04" r="5.08"/><circle class="cls-46" cx="88.78" cy="34.01" r="5.08"/><circle class="cls-43" cx="97.21" cy="51.21" r="5.08"/><circle class="cls-44" cx="34.4" cy="40.65" r="5.08"/><circle class="cls-47" cx="49.3" cy="46.85" r="5.08"/><circle class="cls-37" cx="66.01" cy="33.11" r="5.08"/><circle class="cls-9" cx="79.38" cy="64.22" r="5.08"/><circle class="cls-38" cx="74.25" cy="49.11" r="5.08"/><circle class="cls-39" cx="48.35" cy="87.68" r="5.08"/><path class="cls-55" d="m60.98,134.11c-1.14,0-2.28-.3-3.3-.89l-48.69-28.31c-2.03-1.18-3.3-3.39-3.3-5.75v-56.63c0-2.36,1.26-4.57,3.3-5.75L57.69,8.47c2.03-1.18,4.56-1.18,6.59,0l48.69,28.31c2.03,1.18,3.3,3.39,3.3,5.75v56.63c0,2.36-1.26,4.57-3.3,5.75l-48.69,28.31c-1.02.59-2.16.89-3.3.89Zm0-124.64c-.82,0-1.63.21-2.36.64L9.93,38.42c-1.46.85-2.36,2.42-2.36,4.12v56.63c0,1.69.9,3.27,2.36,4.12l48.69,28.31c1.46.85,3.26.85,4.72,0l48.69-28.31c1.46-.85,2.36-2.42,2.36-4.12v-56.63c0-1.69-.9-3.27-2.36-4.12L63.34,10.1c-.73-.42-1.54-.64-2.36-.64Z"/><path class="cls-9" d="m9.69,52.2c-.07-.14-.18-.38-.18-.83,0-.91.56-1.43,1.41-1.43.91,0,1.44.63,1.44,1.41,0,.32-.07.59-.24.86l-.63-.18c.09-.11.22-.29.22-.62,0-.47-.32-.76-.77-.76-.35,0-.78.16-.78.77,0,.4.18.68.24.78h-.71Z"/><path class="cls-9" d="m9.57,52.62h2.7v.68h-.26c.22.15.36.41.33.79h-.65c.02-.35-.04-.76-.62-.76h-1.5v-.71Z"/><path class="cls-9" d="m12.09,54.56c.17.31.25.61.25.96,0,.45-.14.78-.37.97-.17.14-.37.2-.7.2h-1.01c-.37,0-.55.05-.68.1v-.67c.06-.03.12-.05.24-.05-.22-.22-.32-.5-.32-.8,0-.5.3-.91.85-.91.69,0,.84.59.92,1.09.07.47.09.55.22.55.11,0,.23-.11.23-.45s-.11-.64-.3-.93l.67-.06Zm-1.24,1.45c-.06-.12-.08-.24-.12-.55-.04-.28-.13-.44-.35-.44-.16,0-.28.1-.28.32,0,.15.05.45.4.68h.36Z"/><path class="cls-9" d="m9.57,57.22h2.7v.68h-.26c.09.07.33.27.33.72,0,.47-.28.71-.44.79-.2.1-.42.12-.81.12h-1.52v-.71h1.54c.24,0,.58,0,.58-.41,0-.08-.02-.49-.58-.49h-1.54v-.71Z"/><path class="cls-9" d="m10.37,60.84h-.79v-.79h.79v.79Z"/><path class="cls-9" d="m9.57,61.37h2.7v.68h-.26c.22.15.36.41.33.79h-.65c.02-.35-.04-.76-.62-.76h-1.5v-.71Z"/><path class="cls-9" d="m11.26,64.38h-.68v-1.32h.68v1.32Z"/><path class="cls-9" d="m12.01,65.43c.09.09.33.32.33.75,0,.76-.67,1.19-1.42,1.19s-1.42-.4-1.42-1.19c0-.36.17-.59.29-.73h-1.42v-.71h3.9v.68h-.26Zm-1.86.63c0,.37.3.6.78.6s.77-.22.77-.6c0-.14-.05-.62-.77-.62s-.78.48-.78.62Z"/><path class="cls-9" d="m9.57,67.75h2.7v.68h-.26c.22.15.36.41.33.79h-.65c.02-.35-.04-.76-.62-.76h-1.5v-.71Z"/><path class="cls-9" d="m12.35,70.81c0,.72-.55,1.34-1.42,1.34s-1.42-.62-1.42-1.34.54-1.33,1.42-1.33,1.42.63,1.42,1.33Zm-2.19,0c0,.41.32.63.78.63.77,0,.77-.58.77-.63,0-.22-.13-.63-.77-.63-.45,0-.78.22-.78.63Z"/><path class="cls-9" d="m9.53,73.82c-.51,0-1.16,0-1.16-.87,0-.29.09-.47.14-.6l.61.05c-.04.09-.1.23-.1.41,0,.27.2.3.41.3h2.84v.71h-2.74Zm3.05.03v-.77h.73v.77h-.73Z"/><path class="cls-9" d="m10.71,75.02c-.17.02-.59.07-.59.73,0,.39.1.62.22.85h-.66c-.05-.14-.17-.43-.17-.88,0-1.19.91-1.4,1.4-1.4.85,0,1.44.52,1.44,1.26,0,.27-.09.84-.74,1.1-.28.11-.61.14-.9.14v-1.79Zm.51,1.09c.52-.07.52-.47.52-.54,0-.45-.42-.52-.52-.54v1.08Z"/><path class="cls-9" d="m9.69,79.38c-.07-.14-.18-.38-.18-.83,0-.91.56-1.43,1.41-1.43.91,0,1.44.63,1.44,1.41,0,.32-.07.59-.24.86l-.63-.18c.09-.11.22-.29.22-.62,0-.47-.32-.76-.77-.76-.35,0-.78.16-.78.77,0,.4.18.68.24.78h-.71Z"/><path class="cls-9" d="m13.06,79.93v.71h-.78v.72h-.65v-.72h-1.17c-.22,0-.31.05-.31.3,0,.15.02.29.03.37h-.64c0-.08-.04-.3-.04-.55,0-.83.47-.83.91-.83h1.22v-.31h.65v.31h.78Z"/><path class="cls-9" d="m10.37,82.5h-.79v-.79h.79v.79Z"/><path class="cls-9" d="m12.35,84.26c0,.72-.55,1.34-1.42,1.34s-1.42-.62-1.42-1.34.54-1.33,1.42-1.33,1.42.63,1.42,1.33Zm-2.19,0c0,.41.32.63.78.63.77,0,.77-.58.77-.63,0-.22-.13-.63-.77-.63-.45,0-.78.22-.78.63Z"/><path class="cls-9" d="m9.57,85.99h2.7v.68h-.26c.22.15.36.41.33.79h-.65c.02-.35-.04-.76-.62-.76h-1.5v-.71Z"/><path class="cls-9" d="m11.72,90.25s.03-.1.03-.18c0-.07-.01-.12-.03-.16-.06.03-.17.07-.36.07-.64,0-.91-.55-.91-1.1,0-.07,0-.13,0-.17-.03-.06-.09-.13-.15-.13-.11,0-.13.17-.14.47-.03.61-.14,1.22-.86,1.22-.82,0-.93-.91-.93-1.37,0-.86.4-1.22.87-1.22.43,0,.63.31.68.4.06-.08.16-.22.37-.22s.35.17.39.22c.26-.34.63-.34.71-.34.56,0,.96.46.96,1.12,0,.32-.09.5-.13.6.13.21.13.42.13.48,0,.17-.03.23-.06.31h-.56Zm-2.09-1.38c0-.27-.07-.48-.33-.48-.3,0-.34.36-.34.58,0,.14.02.6.36.6.26,0,.32-.3.32-.7Zm1.75-.44c-.23,0-.37.18-.37.44s.16.45.39.45c.2,0,.38-.14.38-.44,0-.25-.15-.45-.4-.45Z"/><path class="cls-9" d="m81.64,53.97c-.34,0-.83.12-.83.12l-17.13,5.9s-.74.38-1.09.86-.33,1.03-.33,1.03v24.19s-.08.58.14.96.5.49.5.49l17.35,7.3s.6.22,1.4.22h.05c.79,0,1.4-.22,1.4-.22l17.35-7.3s.28-.11.5-.49.14-.96.14-.96v-24.19s.03-.55-.33-1.03-1.09-.86-1.09-.86l-17.13-5.9s-.48-.12-.83-.12h-.05Z"/><path class="cls-54" d="m81.69,95.32h-.05c-.83,0-1.46-.23-1.48-.24l-17.36-7.31s-.37-.15-.63-.6c-.24-.42-.19-.98-.17-1.11v-24.18s-.03-.64.38-1.19c.39-.52,1.15-.92,1.18-.94l.04-.02,17.13-5.9s.54-.13.91-.13h.05c.37,0,.86.12.89.12l17.19,5.93s.79.42,1.18.94c.41.55.38,1.17.38,1.2v24.16c.02.13.07.69-.17,1.11-.26.45-.6.59-.64.61l-17.34,7.3s-.67.24-1.5.24Zm-1.34-.72s.57.2,1.29.2h.05c.73,0,1.3-.2,1.31-.2l17.33-7.3s.21-.09.38-.38c.14-.25.12-.66.11-.8v-.04s0-24.19,0-24.19c0-.02.02-.48-.28-.88-.29-.39-.88-.72-.99-.78l-17.11-5.9h0s-.44-.1-.74-.1h-.05c-.25,0-.64.08-.76.11l-17.09,5.89c-.11.06-.7.39-.99.78-.29.39-.28.86-.28.86v24.22s0,.02,0,.02c-.02.14-.04.55.11.8.17.29.37.38.38.38l17.35,7.31h0Z"/><g class="cls-3"><path class="cls-13" d="m80.66,58.26l-4.26-1.48c-.33-.11-.32-.3.02-.42l4.19-1.46c.33-.11.86-.12,1.19,0l4.29,1.4c.35.11.37.3.04.42l-4.22,1.54c-.34.12-.9.13-1.25,0Z"/><path class="cls-13" d="m87.12,60.51l-4.57-1.59c-.35-.12-.36-.33-.02-.45l4.22-1.55c.33-.12.88-.12,1.24,0l4.6,1.5c.37.12.41.33.08.45l-4.25,1.64c-.34.13-.93.14-1.3,0Z"/><path class="cls-13" d="m94.06,62.92l-4.93-1.71c-.38-.13-.41-.35-.06-.48l4.25-1.65c.33-.13.91-.13,1.29,0l4.94,1.61c.4.13.46.35.13.49l-4.26,1.75c-.34.14-.96.14-1.36,0Z"/><path class="cls-13" d="m74.54,60.49l-4.22-1.58c-.32-.12-.3-.32.06-.45l4.41-1.54c.34-.12.89-.12,1.22,0l4.26,1.49c.35.12.35.32,0,.45l-4.45,1.63c-.36.13-.94.13-1.28,0Z"/><path class="cls-13" d="m80.95,62.88l-4.54-1.7c-.35-.13-.34-.35.02-.48l4.45-1.64c.34-.13.91-.13,1.27,0l4.57,1.6c.37.13.39.35.05.48l-4.48,1.73c-.36.14-.96.14-1.33,0Z"/><path class="cls-13" d="m87.85,65.46l-4.9-1.83c-.38-.14-.39-.37-.02-.51l4.49-1.75c.35-.14.94-.14,1.32,0l4.92,1.72c.4.14.45.37.1.52l-4.51,1.85c-.37.15-.99.15-1.39,0Z"/><path class="cls-48" d="m68.08,62.84l-4.17-1.68c-.32-.13-.27-.34.1-.47l4.65-1.62c.36-.13.92-.13,1.24,0l4.22,1.58c.34.13.33.34-.04.48l-4.7,1.72c-.38.14-.97.14-1.31,0Z"/><path class="cls-13" d="m74.42,65.39l-4.49-1.81c-.35-.14-.32-.37.06-.51l4.7-1.73c.36-.13.95-.14,1.29,0l4.54,1.7c.37.14.37.37,0,.51l-4.74,1.83c-.38.15-1,.15-1.37,0Z"/><path class="cls-13" d="m81.27,68.15l-4.86-1.96c-.37-.15-.36-.4.02-.54l4.75-1.85c.37-.14.97-.14,1.35,0l4.9,1.84c.4.15.42.4.06.55l-4.78,1.97c-.39.16-1.03.16-1.43,0Z"/><path class="cls-13" d="m68.26,71.52l-4.45-1.85c-.35-.15-.64-.67-.64-1.17v-6.3c0-.5.29-.79.64-.64l4.45,1.85c.35.15.64.67.64,1.17v6.3c0,.5-.29.79-.64.64Z"/><path class="cls-13" d="m74.61,74.16l-4.45-1.85c-.35-.15-.64-.67-.64-1.17v-6.3c0-.5.29-.79.64-.64l4.45,1.85c.35.15.64.67.64,1.17v6.3c0,.5-.29.79-.64.64Z"/><path class="cls-50" d="m80.96,76.8l-4.45-1.85c-.35-.15-.64-.67-.64-1.17v-6.3c0-.5.29-.79.64-.64l4.45,1.85c.35.15.64.67.64,1.17v6.3c0,.5-.29.79-.64.64Z"/><path class="cls-12" d="m68.26,80.21l-4.45-1.85c-.35-.15-.64-.67-.64-1.17v-6.3c0-.5.29-.79.64-.64l4.45,1.85c.35.15.64.67.64,1.17v6.3c0,.5-.29.79-.64.64Z"/><path class="cls-12" d="m74.61,82.85l-4.45-1.85c-.35-.15-.64-.67-.64-1.17v-6.3c0-.5.29-.79.64-.64l4.45,1.85c.35.15.64.67.64,1.17v6.3c0,.5-.29.79-.64.64Z"/><path class="cls-12" d="m80.96,85.49l-4.45-1.85c-.35-.15-.64-.67-.64-1.17v-6.3c0-.5.29-.79.64-.64l4.45,1.85c.35.15.64.67.64,1.17v6.3c0,.5-.29.79-.64.64Z"/><path class="cls-51" d="m68.26,88.91l-4.45-1.85c-.35-.15-.64-.67-.64-1.17v-6.3c0-.5.29-.79.64-.64l4.45,1.85c.35.15.64.67.64,1.17v6.3c0,.5-.29.79-.64.64Z"/><path class="cls-16" d="m74.61,91.55l-4.45-1.85c-.35-.15-.64-.67-.64-1.17v-6.3c0-.5.29-.79.64-.64l4.45,1.85c.35.15.64.67.64,1.17v6.3c0,.5-.29.79-.64.64Z"/><path class="cls-16" d="m80.96,94.19l-4.45-1.85c-.35-.15-.64-.67-.64-1.17v-6.3c0-.5.29-.79.64-.64l4.45,1.85c.35.15.64.67.64,1.17v6.3c0,.5-.29.79-.64.64Z"/><path class="cls-13" d="m95.59,71.52l4.45-1.85c.35-.15.64-.67.64-1.17v-6.3c0-.5-.29-.79-.64-.64l-4.45,1.85c-.35.15-.64.67-.64,1.17v6.3c0,.5.29.79.64.64Z"/><path class="cls-13" d="m89.24,74.16l4.45-1.85c.35-.15.64-.67.64-1.17v-6.3c0-.5-.29-.79-.64-.64l-4.45,1.85c-.35.15-.64.67-.64,1.17v6.3c0,.5.29.79.64.64Z"/><path class="cls-13" d="m82.89,76.8l4.45-1.85c.35-.15.64-.67.64-1.17v-6.3c0-.5-.29-.79-.64-.64l-4.45,1.85c-.35.15-.64.67-.64,1.17v6.3c0,.5.29.79.64.64Z"/><path class="cls-12" d="m95.59,80.21l4.45-1.85c.35-.15.64-.67.64-1.17v-6.3c0-.5-.29-.79-.64-.64l-4.45,1.85c-.35.15-.64.67-.64,1.17v6.3c0,.5.29.79.64.64Z"/><path class="cls-53" d="m89.24,82.85l4.45-1.85c.35-.15.64-.67.64-1.17v-6.3c0-.5-.29-.79-.64-.64l-4.45,1.85c-.35.15-.64.67-.64,1.17v6.3c0,.5.29.79.64.64Z"/><path class="cls-12" d="m82.89,85.49l4.45-1.85c.35-.15.64-.67.64-1.17v-6.3c0-.5-.29-.79-.64-.64l-4.45,1.85c-.35.15-.64.67-.64,1.17v6.3c0,.5.29.79.64.64Z"/><path class="cls-49" d="m95.59,88.91l4.45-1.85c.35-.15.64-.67.64-1.17v-6.3c0-.5-.29-.79-.64-.64l-4.45,1.85c-.35.15-.64.67-.64,1.17v6.3c0,.5.29.79.64.64Z"/><path class="cls-16" d="m89.24,91.55l4.45-1.85c.35-.15.64-.67.64-1.17v-6.3c0-.5-.29-.79-.64-.64l-4.45,1.85c-.35.15-.64.67-.64,1.17v6.3c0,.5.29.79.64.64Z"/><path class="cls-16" d="m82.89,94.19l4.45-1.85c.35-.15.64-.67.64-1.17v-6.3c0-.5-.29-.79-.64-.64l-4.45,1.85c-.35.15-.64.67-.64,1.17v6.3c0,.5.29.79.64.64Z"/></g><g class="cls-2"><path class="cls-14" d="m81.18,60.58c-.1,0-.24.03-.24.03l-4.91,1.69s-.21.11-.31.25-.09.3-.09.3v6.93s-.02.17.04.28.14.14.14.14l4.97,2.09s.17.06.4.06h.01c.23,0,.4-.06.4-.06l4.97-2.09s.08-.03.14-.14.04-.28.04-.28v-6.93s0-.16-.09-.3-.31-.25-.31-.25l-4.91-1.69s-.14-.03-.24-.03h-.01Z"/></g><g class="cls-2"><path class="cls-14" d="m81.18,60.58c-.1,0-.24.03-.24.03l-4.91,1.69s-.21.11-.31.25-.09.3-.09.3v6.93s-.02.17.04.28.14.14.14.14l4.97,2.09s.17.06.4.06h.01c.23,0,.4-.06.4-.06l4.97-2.09s.08-.03.14-.14.04-.28.04-.28v-6.93s0-.16-.09-.3-.31-.25-.31-.25l-4.91-1.69s-.14-.03-.24-.03h-.01Z"/><path d="m81.19,72.63c-.28,0-.48-.07-.51-.08l-4.98-2.1s-.17-.08-.28-.26c-.09-.16-.08-.36-.08-.43v-6.91s0-.25.15-.46c.13-.18.36-.3.41-.33l.04-.02,4.91-1.69c.05-.01.2-.05.33-.05h.01c.12,0,.27.03.3.04l4.97,1.72s.27.15.41.33c.15.21.15.43.15.47v6.9c0,.07.02.27-.08.43-.1.18-.24.25-.28.26l-4.96,2.09s-.24.08-.51.08Zm-.31-.59s.13.04.29.04c.18,0,.32-.05.32-.05l4.95-2.09s0,0,.02-.03c0-.02,0-.08,0-.1v-.04s0-6.93,0-6.93c0,0,0-.08-.04-.13-.04-.05-.14-.12-.2-.16l-4.89-1.68s-.1-.02-.15-.02h-.01s-.13.02-.17.03l-4.86,1.68c-.07.04-.16.11-.2.16-.04.05-.04.12-.04.12v6.96s0,.02,0,.02c0,.03,0,.08,0,.1.01.02.02.03.02.03l4.95,2.09h0Z"/></g><g class="cls-2"><path class="cls-15" d="m92.38,68.52c-.1,0-.24.03-.24.03l-4.91,1.69s-.21.11-.31.25-.09.3-.09.3v6.93s-.02.17.04.28.14.14.14.14l4.97,2.09s.17.06.4.06h.01c.23,0,.4-.06.4-.06l4.97-2.09s.08-.03.14-.14.04-.28.04-.28v-6.93s0-.16-.09-.3-.31-.25-.31-.25l-4.91-1.69s-.14-.03-.24-.03h-.01Z"/><path class="cls-15" d="m92.39,80.56c-.28,0-.48-.07-.51-.08l-4.98-2.1s-.17-.08-.28-.26c-.09-.16-.08-.36-.08-.43v-6.91s0-.25.15-.46c.13-.18.36-.3.41-.33l.04-.02,4.91-1.69c.05-.01.2-.05.33-.05h.01c.12,0,.27.03.3.04l4.97,1.72s.27.15.41.33c.15.21.15.43.15.47v6.9c0,.07.02.27-.08.43-.1.18-.24.25-.28.26l-4.96,2.09s-.24.08-.51.08Zm-.31-.59s.13.04.29.04c.18,0,.32-.05.32-.05l4.95-2.09s0,0,.02-.03c0-.02,0-.08,0-.1v-.04s0-6.93,0-6.93c0,0,0-.08-.04-.13-.04-.05-.14-.12-.2-.16l-4.89-1.68s-.1-.02-.15-.02h-.01s-.13.02-.17.03l-4.86,1.68c-.07.04-.16.11-.2.16-.04.05-.04.12-.04.12v6.96s0,.02,0,.02c0,.03,0,.08,0,.1.01.02.02.03.02.03l4.95,2.09h0Z"/></g><polygon class="cls-11" points="86.9 70.49 92.37 72.55 92.36 80.29 86.85 77.99 86.9 70.49"/><polygon class="cls-11" points="97.94 70.49 92.37 72.55 92.36 80.29 97.88 77.99 97.94 70.49"/><polygon class="cls-11" points="97.94 70.49 92.37 72.55 86.85 70.54 92.37 68.52 97.94 70.49"/><polygon class="cls-18" points="75.72 62.55 81.19 64.61 81.18 72.35 75.66 70.05 75.72 62.55"/><polygon class="cls-18" points="86.76 62.55 81.19 64.61 81.18 72.35 86.7 70.05 86.76 62.55"/><polygon class="cls-18" points="86.76 62.55 81.19 64.61 75.66 62.6 81.19 60.58 86.76 62.55"/><path class="cls-52" d="m86.75,62.81l-.19-.51-5.36,2.02-5.37-2.02-.19.51,5.29,1.99v7.55h.55v-7.55l5.28-1.99Zm-5.55,1.8h0s0,0,0,0Z"/><path class="cls-34" d="m97.95,70.75l-.19-.51-5.36,2.02-5.37-2.02-.19.51,5.29,1.99v7.55h.55v-7.55l5.28-1.99Zm-5.55,1.8h0s0,0,0,0Z"/><path class="cls-36" d="m81.19,72.63c-.28,0-.48-.07-.51-.08l-4.98-2.1s-.17-.08-.28-.26c-.09-.16-.08-.36-.08-.43v-6.91s0-.25.15-.46c.13-.18.36-.3.41-.33l.04-.02,4.91-1.69c.05-.01.2-.05.33-.05h.01c.12,0,.27.03.3.04l4.97,1.72s.27.15.41.33c.15.21.15.43.15.47v6.9c0,.07.02.27-.08.43-.1.18-.24.25-.28.26l-4.96,2.09s-.24.08-.51.08Zm-.31-.59s.13.04.29.04c.18,0,.32-.05.32-.05l4.95-2.09s0,0,.02-.03c0-.02,0-.08,0-.1v-.04s0-6.93,0-6.93c0,0,0-.08-.04-.13-.04-.05-.14-.12-.2-.16l-4.89-1.68s-.1-.02-.15-.02h-.01s-.13.02-.17.03l-4.86,1.68c-.07.04-.16.11-.2.16-.04.05-.04.12-.04.12v6.96s0,.02,0,.02c0,.03,0,.08,0,.1.01.02.02.03.02.03l4.95,2.09h0Z"/><path class="cls-35" d="m92.4,80.56c-.28,0-.48-.07-.51-.08l-4.98-2.1s-.17-.08-.28-.26c-.09-.16-.08-.36-.08-.43v-6.91s0-.25.15-.46c.13-.18.36-.3.41-.33l.04-.02,4.91-1.69c.05-.01.2-.05.33-.05h.01c.12,0,.27.03.3.04l4.97,1.72s.27.15.41.33c.15.21.15.43.15.47v6.9c0,.07.02.27-.08.43-.1.18-.24.25-.28.26l-4.96,2.09s-.24.08-.51.08Zm-.31-.59s.13.04.29.04c.18,0,.32-.05.32-.05l4.95-2.09s0,0,.02-.03c0-.02,0-.08,0-.1v-.04s0-6.93,0-6.93c0,0,0-.08-.04-.13-.04-.05-.14-.12-.2-.16l-4.89-1.68s-.1-.02-.15-.02h-.01s-.13.02-.17.03l-4.86,1.68c-.07.04-.16.11-.2.16-.04.05-.04.12-.04.12v6.96s0,.02,0,.02c0,.03,0,.08,0,.1.01.02.02.03.02.03l4.95,2.09h0Z"/><g class="cls-2"><path class="cls-17" d="m103.67,76.23c-.1,0-.24.03-.24.03l-4.91,1.69s-.21.11-.31.25-.09.3-.09.3v6.93s-.02.17.04.28.14.14.14.14l4.97,2.09s.17.06.4.06h.01c.23,0,.4-.06.4-.06l4.97-2.09s.08-.03.14-.14.04-.28.04-.28v-6.93s0-.16-.09-.3-.31-.25-.31-.25l-4.91-1.69s-.14-.03-.24-.03h-.01Z"/><path class="cls-17" d="m103.68,88.28c-.28,0-.48-.07-.51-.08l-4.98-2.1s-.17-.08-.28-.26c-.09-.16-.08-.36-.08-.43v-6.91s0-.25.15-.46c.13-.18.36-.3.41-.33l.04-.02,4.91-1.69c.05-.01.2-.05.33-.05h.01c.12,0,.27.03.3.04l4.97,1.72s.27.15.41.33c.15.21.15.43.15.47v6.9c0,.07.02.27-.08.43-.1.18-.24.25-.28.26l-4.96,2.09s-.24.08-.51.08Zm-.31-.59s.13.04.29.04c.18,0,.32-.05.32-.05l4.95-2.09s0,0,.02-.03c0-.02,0-.08,0-.1v-.04s0-6.93,0-6.93c0,0,0-.08-.04-.13-.04-.05-.14-.12-.2-.16l-4.89-1.68s-.1-.02-.15-.02h-.01s-.13.02-.17.03l-4.86,1.68c-.07.04-.16.11-.2.16-.04.05-.04.12-.04.12v6.96s0,.02,0,.02c0,.03,0,.08,0,.1.01.02.02.03.02.03l4.95,2.09h0Z"/></g><polygon class="cls-9" points="98.19 78.2 103.66 80.26 103.65 88 98.13 85.7 98.19 78.2"/><polygon class="cls-9" points="109.23 78.2 103.66 80.26 103.65 88 109.17 85.7 109.23 78.2"/><polygon class="cls-9" points="109.23 78.2 103.66 80.26 98.13 78.25 103.66 76.23 109.23 78.2"/><path class="cls-31" d="m109.24,78.46l-.19-.51-5.36,2.02-5.37-2.02-.19.51,5.29,1.99v7.55h.55v-7.55l5.28-1.99Zm-5.55,1.8h0s0,0,0,0Z"/><path class="cls-30" d="m103.69,88.28c-.28,0-.48-.07-.51-.08l-4.98-2.1s-.17-.08-.28-.26c-.09-.16-.08-.36-.08-.43v-6.91s0-.25.15-.46c.13-.18.36-.3.41-.33l.04-.02,4.91-1.69c.05-.01.2-.05.33-.05h.01c.12,0,.27.03.3.04l4.97,1.72s.27.15.41.33c.15.21.15.43.15.47v6.9c0,.07.02.27-.08.43-.1.18-.24.25-.28.26l-4.96,2.09s-.24.08-.51.08Zm-.31-.59s.13.04.29.04c.18,0,.32-.05.32-.05l4.95-2.09s0,0,.02-.03c0-.02,0-.08,0-.1v-.04s0-6.93,0-6.93c0,0,0-.08-.04-.13-.04-.05-.14-.12-.2-.16l-4.89-1.68s-.1-.02-.15-.02h-.01s-.13.02-.17.03l-4.86,1.68c-.07.04-.16.11-.2.16-.04.05-.04.12-.04.12v6.96s0,.02,0,.02c0,.03,0,.08,0,.1.01.02.02.03.02.03l4.95,2.09h0Z"/><path class="cls-6" d="m18.76,94.64h1.96v4.69c.54-.87,1.38-1.35,2.42-1.35,1.88,0,3.65,1.22,3.65,4.11v4.23h-1.96v-4.23c0-1.55-.82-2.29-2.06-2.29s-2.06.77-2.06,2.29v4.23h-1.96v-11.68Z"/><path class="cls-6" d="m28.08,101.68c0-2.55,1.48-3.7,3.4-3.7,1.22,0,2.22.51,2.81,1.46.58-.95,1.58-1.46,2.81-1.46,1.92,0,3.4,1.15,3.4,3.7v4.64h-1.96v-4.64c0-1.33-.69-1.88-1.64-1.88s-1.63.56-1.63,1.88v4.64h-1.96v-4.64c0-1.32-.71-1.88-1.65-1.88s-1.64.54-1.64,1.88v4.64h-1.96v-4.64Z"/><path class="cls-6" d="m41.8,101.68c0-2.55,1.48-3.7,3.4-3.7,1.22,0,2.22.51,2.81,1.46.58-.95,1.58-1.46,2.81-1.46,1.92,0,3.4,1.15,3.4,3.7v4.64h-1.96v-4.64c0-1.33-.69-1.88-1.64-1.88s-1.63.56-1.63,1.88v4.64h-1.96v-4.64c0-1.32-.71-1.88-1.65-1.88s-1.64.54-1.64,1.88v4.64h-1.96v-4.64Z"/><path class="cls-6" d="m58.36,97.51h-3.21v-1.96h8.52v1.96h-3.21v8.8h-2.11v-8.8Z"/><path class="cls-6" d="m64.27,102.25c0-2.47,1.81-4.28,4.38-4.28s4.34,1.81,4.34,4.28v.69h-6.66c.26,1.18,1.17,1.81,2.32,1.81.87,0,1.51-.25,1.92-.77h2.09c-.61,1.55-2.09,2.55-4.01,2.55-2.57,0-4.38-1.81-4.38-4.28Zm6.65-.87c-.31-1.09-1.2-1.63-2.27-1.63s-1.96.56-2.27,1.63h4.54Z"/><path class="cls-6" d="m73.94,102.09c0-2.71,1.61-4.11,4.01-4.11s4.01,1.38,4.01,4.11v4.23h-1.96v-4.23c0-1.55-.82-2.29-2.06-2.29s-2.06.74-2.06,2.29v4.23h-1.96v-4.23Z"/><path class="cls-6" d="m82.94,103.91h1.97c.02.54.49.9,1.45.9,1,0,1.43-.41,1.43-.9,0-.62-.72-.71-1.6-.82-1.25-.17-3.09-.38-3.09-2.37,0-1.66,1.27-2.75,3.22-2.75s3.21,1.12,3.26,2.55h-1.94c-.05-.49-.51-.84-1.28-.84-.86,0-1.28.41-1.28.89,0,.62.74.72,1.61.84,1.09.15,3.08.36,3.08,2.38,0,1.64-1.33,2.73-3.4,2.73s-3.37-1.1-3.42-2.62Z"/><path class="cls-6" d="m90.41,102.25c0-2.47,1.81-4.28,4.38-4.28s4.38,1.81,4.38,4.28-1.81,4.28-4.38,4.28-4.38-1.81-4.38-4.28Zm6.76,0c0-1.43-.95-2.45-2.38-2.45s-2.4,1.02-2.4,2.45.97,2.45,2.4,2.45,2.38-1.02,2.38-2.45Z"/><path class="cls-6" d="m100.11,101.59c0-2.45,1.45-3.62,3.57-3.62s3.55,1.17,3.55,3.65v.05h-1.94v-.08c0-1.32-.66-1.79-1.61-1.79s-1.61.48-1.61,1.79v4.72h-1.96v-4.72Z"/><path class="cls-4" d="m18.76,94.64h1.96v4.69c.54-.87,1.38-1.35,2.42-1.35,1.88,0,3.65,1.22,3.65,4.11v4.23h-1.96v-4.23c0-1.55-.82-2.29-2.06-2.29s-2.06.77-2.06,2.29v4.23h-1.96v-11.68Z"/><path class="cls-4" d="m28.08,101.68c0-2.55,1.48-3.7,3.4-3.7,1.22,0,2.22.51,2.81,1.46.58-.95,1.58-1.46,2.81-1.46,1.92,0,3.4,1.15,3.4,3.7v4.64h-1.96v-4.64c0-1.33-.69-1.88-1.64-1.88s-1.63.56-1.63,1.88v4.64h-1.96v-4.64c0-1.32-.71-1.88-1.65-1.88s-1.64.54-1.64,1.88v4.64h-1.96v-4.64Z"/><path class="cls-4" d="m41.8,101.68c0-2.55,1.48-3.7,3.4-3.7,1.22,0,2.22.51,2.81,1.46.58-.95,1.58-1.46,2.81-1.46,1.92,0,3.4,1.15,3.4,3.7v4.64h-1.96v-4.64c0-1.33-.69-1.88-1.64-1.88s-1.63.56-1.63,1.88v4.64h-1.96v-4.64c0-1.32-.71-1.88-1.65-1.88s-1.64.54-1.64,1.88v4.64h-1.96v-4.64Z"/><path class="cls-4" d="m58.36,97.51h-3.21v-1.96h8.52v1.96h-3.21v8.8h-2.11v-8.8Z"/><path class="cls-4" d="m64.27,102.25c0-2.47,1.81-4.28,4.38-4.28s4.34,1.81,4.34,4.28v.69h-6.66c.26,1.18,1.17,1.81,2.32,1.81.87,0,1.51-.25,1.92-.77h2.09c-.61,1.55-2.09,2.55-4.01,2.55-2.57,0-4.38-1.81-4.38-4.28Zm6.65-.87c-.31-1.09-1.2-1.63-2.27-1.63s-1.96.56-2.27,1.63h4.54Z"/><path class="cls-4" d="m73.94,102.09c0-2.71,1.61-4.11,4.01-4.11s4.01,1.38,4.01,4.11v4.23h-1.96v-4.23c0-1.55-.82-2.29-2.06-2.29s-2.06.74-2.06,2.29v4.23h-1.96v-4.23Z"/><path class="cls-4" d="m82.94,103.91h1.97c.02.54.49.9,1.45.9,1,0,1.43-.41,1.43-.9,0-.62-.72-.71-1.6-.82-1.25-.17-3.09-.38-3.09-2.37,0-1.66,1.27-2.75,3.22-2.75s3.21,1.12,3.26,2.55h-1.94c-.05-.49-.51-.84-1.28-.84-.86,0-1.28.41-1.28.89,0,.62.74.72,1.61.84,1.09.15,3.08.36,3.08,2.38,0,1.64-1.33,2.73-3.4,2.73s-3.37-1.1-3.42-2.62Z"/><path class="cls-4" d="m90.41,102.25c0-2.47,1.81-4.28,4.38-4.28s4.38,1.81,4.38,4.28-1.81,4.28-4.38,4.28-4.38-1.81-4.38-4.28Zm6.76,0c0-1.43-.95-2.45-2.38-2.45s-2.4,1.02-2.4,2.45.97,2.45,2.4,2.45,2.38-1.02,2.38-2.45Z"/><path class="cls-4" d="m100.11,101.59c0-2.45,1.45-3.62,3.57-3.62s3.55,1.17,3.55,3.65v.05h-1.94v-.08c0-1.32-.66-1.79-1.61-1.79s-1.61.48-1.61,1.79v4.72h-1.96v-4.72Z"/><path class="cls-10" d="m18.76,94.64h1.96v4.69c.54-.87,1.38-1.35,2.42-1.35,1.88,0,3.65,1.22,3.65,4.11v4.23h-1.96v-4.23c0-1.55-.82-2.29-2.06-2.29s-2.06.77-2.06,2.29v4.23h-1.96v-11.68Z"/><path class="cls-10" d="m28.08,101.68c0-2.55,1.48-3.7,3.4-3.7,1.22,0,2.22.51,2.81,1.46.58-.95,1.58-1.46,2.81-1.46,1.92,0,3.4,1.15,3.4,3.7v4.64h-1.96v-4.64c0-1.33-.69-1.88-1.64-1.88s-1.63.56-1.63,1.88v4.64h-1.96v-4.64c0-1.32-.71-1.88-1.65-1.88s-1.64.54-1.64,1.88v4.64h-1.96v-4.64Z"/><path class="cls-10" d="m41.8,101.68c0-2.55,1.48-3.7,3.4-3.7,1.22,0,2.22.51,2.81,1.46.58-.95,1.58-1.46,2.81-1.46,1.92,0,3.4,1.15,3.4,3.7v4.64h-1.96v-4.64c0-1.33-.69-1.88-1.64-1.88s-1.63.56-1.63,1.88v4.64h-1.96v-4.64c0-1.32-.71-1.88-1.65-1.88s-1.64.54-1.64,1.88v4.64h-1.96v-4.64Z"/><path class="cls-10" d="m58.36,97.51h-3.21v-1.96h8.52v1.96h-3.21v8.8h-2.11v-8.8Z"/><path class="cls-10" d="m64.27,102.25c0-2.47,1.81-4.28,4.38-4.28s4.34,1.81,4.34,4.28v.69h-6.66c.26,1.18,1.17,1.81,2.32,1.81.87,0,1.51-.25,1.92-.77h2.09c-.61,1.55-2.09,2.55-4.01,2.55-2.57,0-4.38-1.81-4.38-4.28Zm6.65-.87c-.31-1.09-1.2-1.63-2.27-1.63s-1.96.56-2.27,1.63h4.54Z"/><path class="cls-10" d="m73.94,102.09c0-2.71,1.61-4.11,4.01-4.11s4.01,1.38,4.01,4.11v4.23h-1.96v-4.23c0-1.55-.82-2.29-2.06-2.29s-2.06.74-2.06,2.29v4.23h-1.96v-4.23Z"/><path class="cls-10" d="m82.94,103.91h1.97c.02.54.49.9,1.45.9,1,0,1.43-.41,1.43-.9,0-.62-.72-.71-1.6-.82-1.25-.17-3.09-.38-3.09-2.37,0-1.66,1.27-2.75,3.22-2.75s3.21,1.12,3.26,2.55h-1.94c-.05-.49-.51-.84-1.28-.84-.86,0-1.28.41-1.28.89,0,.62.74.72,1.61.84,1.09.15,3.08.36,3.08,2.38,0,1.64-1.33,2.73-3.4,2.73s-3.37-1.1-3.42-2.62Z"/><path class="cls-10" d="m90.41,102.25c0-2.47,1.81-4.28,4.38-4.28s4.38,1.81,4.38,4.28-1.81,4.28-4.38,4.28-4.38-1.81-4.38-4.28Zm6.76,0c0-1.43-.95-2.45-2.38-2.45s-2.4,1.02-2.4,2.45.97,2.45,2.4,2.45,2.38-1.02,2.38-2.45Z"/><path class="cls-10" d="m100.11,101.59c0-2.45,1.45-3.62,3.57-3.62s3.55,1.17,3.55,3.65v.05h-1.94v-.08c0-1.32-.66-1.79-1.61-1.79s-1.61.48-1.61,1.79v4.72h-1.96v-4.72Z"/><path class="cls-33" d="m18.76,94.64h1.96v4.69c.54-.87,1.38-1.35,2.42-1.35,1.88,0,3.65,1.22,3.65,4.11v4.23h-1.96v-4.23c0-1.55-.82-2.29-2.06-2.29s-2.06.77-2.06,2.29v4.23h-1.96v-11.68Z"/><path class="cls-32" d="m28.08,101.68c0-2.55,1.48-3.7,3.4-3.7,1.22,0,2.22.51,2.81,1.46.58-.95,1.58-1.46,2.81-1.46,1.92,0,3.4,1.15,3.4,3.7v4.64h-1.96v-4.64c0-1.33-.69-1.88-1.64-1.88s-1.63.56-1.63,1.88v4.64h-1.96v-4.64c0-1.32-.71-1.88-1.65-1.88s-1.64.54-1.64,1.88v4.64h-1.96v-4.64Z"/><path class="cls-29" d="m41.8,101.68c0-2.55,1.48-3.7,3.4-3.7,1.22,0,2.22.51,2.81,1.46.58-.95,1.58-1.46,2.81-1.46,1.92,0,3.4,1.15,3.4,3.7v4.64h-1.96v-4.64c0-1.33-.69-1.88-1.64-1.88s-1.63.56-1.63,1.88v4.64h-1.96v-4.64c0-1.32-.71-1.88-1.65-1.88s-1.64.54-1.64,1.88v4.64h-1.96v-4.64Z"/><path class="cls-28" d="m58.36,97.51h-3.21v-1.96h8.52v1.96h-3.21v8.8h-2.11v-8.8Z"/><path class="cls-27" d="m64.27,102.25c0-2.47,1.81-4.28,4.38-4.28s4.34,1.81,4.34,4.28v.69h-6.66c.26,1.18,1.17,1.81,2.32,1.81.87,0,1.51-.25,1.92-.77h2.09c-.61,1.55-2.09,2.55-4.01,2.55-2.57,0-4.38-1.81-4.38-4.28Zm6.65-.87c-.31-1.09-1.2-1.63-2.27-1.63s-1.96.56-2.27,1.63h4.54Z"/><path class="cls-23" d="m73.94,102.09c0-2.71,1.61-4.11,4.01-4.11s4.01,1.38,4.01,4.11v4.23h-1.96v-4.23c0-1.55-.82-2.29-2.06-2.29s-2.06.74-2.06,2.29v4.23h-1.96v-4.23Z"/><path class="cls-24" d="m82.94,103.91h1.97c.02.54.49.9,1.45.9,1,0,1.43-.41,1.43-.9,0-.62-.72-.71-1.6-.82-1.25-.17-3.09-.38-3.09-2.37,0-1.66,1.27-2.75,3.22-2.75s3.21,1.12,3.26,2.55h-1.94c-.05-.49-.51-.84-1.28-.84-.86,0-1.28.41-1.28.89,0,.62.74.72,1.61.84,1.09.15,3.08.36,3.08,2.38,0,1.64-1.33,2.73-3.4,2.73s-3.37-1.1-3.42-2.62Z"/><path class="cls-25" d="m90.41,102.25c0-2.47,1.81-4.28,4.38-4.28s4.38,1.81,4.38,4.28-1.81,4.28-4.38,4.28-4.38-1.81-4.38-4.28Zm6.76,0c0-1.43-.95-2.45-2.38-2.45s-2.4,1.02-2.4,2.45.97,2.45,2.4,2.45,2.38-1.02,2.38-2.45Z"/><path class="cls-26" d="m100.11,101.59c0-2.45,1.45-3.62,3.57-3.62s3.55,1.17,3.55,3.65v.05h-1.94v-.08c0-1.32-.66-1.79-1.61-1.79s-1.61.48-1.61,1.79v4.72h-1.96v-4.72Z"/></g></svg>