<?xml version="1.0" encoding="UTF-8"?><svg id="_レイヤー_2" xmlns="http://www.w3.org/2000/svg" xmlns:xlink="http://www.w3.org/1999/xlink" viewBox="0 0 212.88 49.36"><defs><style>.cls-1{opacity:.6;}.cls-1,.cls-2,.cls-3,.cls-4,.cls-5{fill:none;}.cls-2{opacity:.83;}.cls-6{fill:#040000;}.cls-7{fill:#fff;}.cls-8{fill:#f39800;}.cls-9{fill:#656565;}.cls-10{fill:#c2c2c2;}.cls-11{fill:#b3b3b3;}.cls-12{fill:#a6a6a6;}.cls-13{fill:#bdbdbd;}.cls-14{fill:#d5d5d5;}.cls-15{fill:#262626;}.cls-16{fill:#4e3840;}.cls-17{fill:url(#_名称未設定グラデーション_14-20);}.cls-18{fill:url(#_名称未設定グラデーション_14-21);}.cls-19{fill:url(#_名称未設定グラデーション_14-19);}.cls-20{fill:url(#_名称未設定グラデーション_14-18);}.cls-21{fill:url(#_名称未設定グラデーション_14-17);}.cls-22{fill:url(#_名称未設定グラデーション_14-14);}.cls-23{fill:url(#_名称未設定グラデーション_14-13);}.cls-24{fill:url(#_名称未設定グラデーション_14-16);}.cls-25{fill:url(#_名称未設定グラデーション_14-15);}.cls-26{fill:url(#_名称未設定グラデーション_14-10);}.cls-27{fill:url(#_名称未設定グラデーション_14-12);}.cls-28{fill:url(#_名称未設定グラデーション_14-11);}.cls-29{fill:url(#_名称未設定グラデーション_14-4);}.cls-30{fill:url(#_名称未設定グラデーション_14-8);}.cls-31{fill:url(#_名称未設定グラデーション_14-5);}.cls-32{fill:url(#_名称未設定グラデーション_14-6);}.cls-33{fill:url(#_名称未設定グラデーション_14-9);}.cls-34{fill:url(#_名称未設定グラデーション_14-7);}.cls-35{fill:url(#_名称未設定グラデーション_14-3);}.cls-36{fill:url(#_名称未設定グラデーション_14-2);}.cls-37{fill:url(#_名称未設定グラデーション_14);}.cls-3{stroke-miterlimit:3;stroke-width:8.67px;}.cls-3,.cls-5{stroke:#fff;}.cls-4{stroke:#231815;stroke-miterlimit:2;stroke-width:5.78px;}.cls-5{stroke-linecap:round;stroke-linejoin:round;stroke-width:3px;}</style><linearGradient id="_名称未設定グラデーション_14" x1="164.25" y1="7.87" x2="203.08" y2="48.42" gradientUnits="userSpaceOnUse"><stop offset="0" stop-color="#ee87b4"/><stop offset="1" stop-color="#00b9ef"/></linearGradient><linearGradient id="_名称未設定グラデーション_14-2" x1="158.53" y1="8.59" x2="171.19" y2="8.59" xlink:href="#_名称未設定グラデーション_14"/><linearGradient id="_名称未設定グラデーション_14-3" x1="172.97" y1="21.47" x2="179.77" y2="21.47" xlink:href="#_名称未設定グラデーション_14"/><linearGradient id="_名称未設定グラデーション_14-4" x1="157.9" y1="35.84" x2="164.71" y2="35.84" xlink:href="#_名称未設定グラデーション_14"/><linearGradient id="_名称未設定グラデーション_14-5" x1="188.06" y1="28.66" x2="194.87" y2="28.66" xlink:href="#_名称未設定グラデーション_14"/><linearGradient id="_名称未設定グラデーション_14-6" x1="195.6" y1="35.84" x2="202.4" y2="35.84" xlink:href="#_名称未設定グラデーション_14"/><linearGradient id="_名称未設定グラデーション_14-7" x1="172.68" y1="16.14" x2="185.87" y2="16.14" xlink:href="#_名称未設定グラデーション_14"/><linearGradient id="_名称未設定グラデーション_14-8" x1="185.96" y1="25.56" x2="199.16" y2="25.56" xlink:href="#_名称未設定グラデーション_14"/><linearGradient id="_名称未設定グラデーション_14-9" x1="168.54" y1="3.76" x2="207.37" y2="44.32" xlink:href="#_名称未設定グラデーション_14"/><linearGradient id="_名称未設定グラデーション_14-10" x1="170.77" y1="1.63" x2="209.6" y2="42.18" xlink:href="#_名称未設定グラデーション_14"/><linearGradient id="_名称未設定グラデーション_14-11" x1="199.35" y1="34.71" x2="212.55" y2="34.71" xlink:href="#_名称未設定グラデーション_14"/><linearGradient id="_名称未設定グラデーション_14-12" x1="173.18" y1="-.69" x2="212.02" y2="39.87" xlink:href="#_名称未設定グラデーション_14"/><linearGradient id="_名称未設定グラデーション_14-13" x1="8.59" y1="46.69" x2="132.19" y2="-10.95" xlink:href="#_名称未設定グラデーション_14"/><linearGradient id="_名称未設定グラデーション_14-14" x1="8.59" y1="46.69" x2="132.19" y2="-10.95" xlink:href="#_名称未設定グラデーション_14"/><linearGradient id="_名称未設定グラデーション_14-15" x1="8.59" y1="46.69" x2="132.19" y2="-10.95" xlink:href="#_名称未設定グラデーション_14"/><linearGradient id="_名称未設定グラデーション_14-16" x1="8.59" y1="46.69" x2="132.19" y2="-10.95" xlink:href="#_名称未設定グラデーション_14"/><linearGradient id="_名称未設定グラデーション_14-17" x1="8.59" y1="46.69" x2="132.19" y2="-10.95" xlink:href="#_名称未設定グラデーション_14"/><linearGradient id="_名称未設定グラデーション_14-18" x1="8.59" y1="46.69" x2="132.19" y2="-10.95" xlink:href="#_名称未設定グラデーション_14"/><linearGradient id="_名称未設定グラデーション_14-19" x1="8.59" y1="46.69" x2="132.19" y2="-10.95" xlink:href="#_名称未設定グラデーション_14"/><linearGradient id="_名称未設定グラデーション_14-20" x1="8.59" y1="46.69" x2="132.19" y2="-10.95" xlink:href="#_名称未設定グラデーション_14"/><linearGradient id="_名称未設定グラデーション_14-21" x1="8.59" y1="46.69" x2="132.19" y2="-10.95" xlink:href="#_名称未設定グラデーション_14"/></defs><g id="_レイヤー_1-2"><path class="cls-7" d="m179.82.31c-.4,0-.98.14-.98.14l-20.33,7s-.87.46-1.3,1.03-.39,1.22-.39,1.22v28.7s-.1.68.16,1.14.6.59.6.59l20.58,8.66s.72.26,1.65.26h.06c.94,0,1.65-.26,1.65-.26l20.58-8.66s.34-.13.6-.59.16-1.14.16-1.14V9.7s.03-.65-.39-1.22-1.3-1.03-1.3-1.03L180.85.45s-.58-.14-.98-.14h-.06Z"/><path class="cls-37" d="m179.87,49.36h-.06c-.98,0-1.73-.27-1.76-.28l-20.59-8.67s-.44-.18-.75-.72c-.28-.5-.22-1.16-.2-1.31V9.7s-.03-.76.45-1.41c.46-.62,1.36-1.1,1.4-1.12l.04-.02L178.74.16c.05-.01.64-.16,1.08-.16h.06c.44,0,1.03.14,1.05.15l20.4,7.03s.94.5,1.4,1.12c.48.65.45,1.39.45,1.42v28.66c.02.15.08.82-.2,1.31-.31.54-.71.7-.75.72l-20.57,8.66s-.79.28-1.77.28Zm-1.59-.85s.67.24,1.54.24h.06c.87,0,1.54-.24,1.55-.24l20.56-8.66s.25-.11.45-.45c.17-.3.15-.78.13-.94v-.04s0-28.7,0-28.7c0-.02.02-.57-.33-1.04-.34-.46-1.05-.86-1.17-.93l-20.3-7h0s-.53-.12-.88-.12h-.06c-.3,0-.76.09-.91.13l-20.27,6.99c-.12.07-.83.46-1.17.93-.35.47-.33,1.02-.33,1.02v28.73s0,.02,0,.02c-.02.16-.04.65.12.94.2.34.44.45.45.45l20.58,8.67h0Z"/><g class="cls-2"><path class="cls-11" d="m178.65,5.39l-5.05-1.76c-.39-.14-.38-.36.02-.5l4.97-1.73c.39-.13,1.02-.14,1.41-.01l5.09,1.66c.41.13.44.36.05.5l-5.01,1.83c-.4.15-1.07.15-1.48,0Z"/><path class="cls-11" d="m186.31,8.06l-5.43-1.89c-.42-.15-.43-.39-.02-.53l5.01-1.84c.39-.14,1.05-.15,1.47-.01l5.45,1.78c.44.14.49.39.1.54l-5.04,1.95c-.41.16-1.1.16-1.54,0Z"/><path class="cls-11" d="m194.55,10.92l-5.84-2.03c-.45-.16-.48-.41-.07-.57l5.04-1.96c.39-.15,1.08-.16,1.53,0l5.86,1.91c.48.16.55.41.16.58l-5.06,2.08c-.41.17-1.14.17-1.61,0Z"/><path class="cls-11" d="m171.39,8.03l-5.01-1.87c-.39-.14-.35-.38.07-.53l5.23-1.83c.41-.14,1.05-.15,1.44-.01l5.05,1.77c.41.14.41.38,0,.53l-5.28,1.93c-.43.16-1.11.16-1.52,0Z"/><path class="cls-11" d="m178.99,10.87l-5.39-2.01c-.41-.15-.4-.41.02-.57l5.28-1.94c.41-.15,1.08-.15,1.5,0l5.42,1.9c.44.15.47.41.06.57l-5.32,2.06c-.43.17-1.14.17-1.58,0Z"/><path class="cls-11" d="m187.18,13.93l-5.81-2.17c-.45-.17-.46-.44-.03-.61l5.32-2.07c.41-.16,1.11-.16,1.56,0l5.84,2.04c.48.17.53.44.11.61l-5.35,2.2c-.43.18-1.18.18-1.65,0Z"/><path class="cls-36" d="m163.73,10.82l-4.94-1.99c-.38-.15-.33-.41.12-.56l5.51-1.92c.43-.15,1.09-.15,1.48,0l5,1.88c.41.15.39.41-.04.56l-5.57,2.04c-.45.16-1.15.17-1.55,0Z"/><path class="cls-11" d="m171.25,13.85l-5.33-2.15c-.41-.17-.37-.44.08-.6l5.58-2.05c.43-.16,1.12-.16,1.54,0l5.38,2.02c.44.16.44.44,0,.61l-5.63,2.18c-.46.18-1.19.18-1.62,0Z"/><path class="cls-11" d="m179.37,17.12l-5.76-2.32c-.44-.18-.43-.47.03-.65l5.63-2.19c.44-.17,1.16-.17,1.6,0l5.81,2.18c.47.18.5.47.07.65l-5.68,2.33c-.46.19-1.22.19-1.69,0Z"/><path class="cls-11" d="m163.95,21.12l-5.28-2.2c-.42-.17-.76-.8-.76-1.39v-7.48c0-.59.34-.93.76-.76l5.28,2.2c.42.17.76.8.76,1.39v7.48c0,.59-.34.93-.76.76Z"/><path class="cls-11" d="m171.48,24.25l-5.28-2.2c-.42-.17-.76-.8-.76-1.39v-7.48c0-.59.34-.93.76-.76l5.28,2.2c.42.17.76.8.76,1.39v7.48c0,.59-.34.93-.76.76Z"/><path class="cls-35" d="m179.01,27.38l-5.28-2.2c-.42-.17-.76-.8-.76-1.39v-7.48c0-.59.34-.93.76-.76l5.28,2.2c.42.17.76.8.76,1.39v7.48c0,.59-.34.93-.76.76Z"/><path class="cls-10" d="m163.95,31.44l-5.28-2.2c-.42-.17-.76-.8-.76-1.39v-7.48c0-.59.34-.93.76-.76l5.28,2.2c.42.17.76.8.76,1.39v7.48c0,.59-.34.93-.76.76Z"/><path class="cls-10" d="m171.48,34.57l-5.28-2.2c-.42-.17-.76-.8-.76-1.39v-7.48c0-.59.34-.93.76-.76l5.28,2.2c.42.17.76.8.76,1.39v7.48c0,.59-.34.93-.76.76Z"/><path class="cls-10" d="m179.01,37.7l-5.28-2.2c-.42-.17-.76-.8-.76-1.39v-7.48c0-.59.34-.93.76-.76l5.28,2.2c.42.17.76.8.76,1.39v7.48c0,.59-.34.93-.76.76Z"/><path class="cls-29" d="m163.95,41.75l-5.28-2.2c-.42-.17-.76-.8-.76-1.39v-7.48c0-.59.34-.93.76-.76l5.28,2.2c.42.17.76.8.76,1.39v7.48c0,.59-.34.93-.76.76Z"/><path class="cls-14" d="m171.48,44.88l-5.28-2.2c-.42-.17-.76-.8-.76-1.39v-7.48c0-.59.34-.93.76-.76l5.28,2.2c.42.17.76.8.76,1.39v7.48c0,.59-.34.93-.76.76Z"/><path class="cls-14" d="m179.01,48.01l-5.28-2.2c-.42-.17-.76-.8-.76-1.39v-7.48c0-.59.34-.93.76-.76l5.28,2.2c.42.17.76.8.76,1.39v7.48c0,.59-.34.93-.76.76Z"/><path class="cls-11" d="m196.36,21.12l5.28-2.2c.42-.17.76-.8.76-1.39v-7.48c0-.59-.34-.93-.76-.76l-5.28,2.2c-.42.17-.76.8-.76,1.39v7.48c0,.59.34.93.76.76Z"/><path class="cls-11" d="m188.82,24.25l5.28-2.2c.42-.17.76-.8.76-1.39v-7.48c0-.59-.34-.93-.76-.76l-5.28,2.2c-.42.17-.76.8-.76,1.39v7.48c0,.59.34.93.76.76Z"/><path class="cls-11" d="m181.29,27.38l5.28-2.2c.42-.17.76-.8.76-1.39v-7.48c0-.59-.34-.93-.76-.76l-5.28,2.2c-.42.17-.76.8-.76,1.39v7.48c0,.59.34.93.76.76Z"/><path class="cls-10" d="m196.36,31.44l5.28-2.2c.42-.17.76-.8.76-1.39v-7.48c0-.59-.34-.93-.76-.76l-5.28,2.2c-.42.17-.76.8-.76,1.39v7.48c0,.59.34.93.76.76Z"/><path class="cls-31" d="m188.82,34.57l5.28-2.2c.42-.17.76-.8.76-1.39v-7.48c0-.59-.34-.93-.76-.76l-5.28,2.2c-.42.17-.76.8-.76,1.39v7.48c0,.59.34.93.76.76Z"/><path class="cls-10" d="m181.29,37.7l5.28-2.2c.42-.17.76-.8.76-1.39v-7.48c0-.59-.34-.93-.76-.76l-5.28,2.2c-.42.17-.76.8-.76,1.39v7.48c0,.59.34.93.76.76Z"/><path class="cls-32" d="m196.36,41.75l5.28-2.2c.42-.17.76-.8.76-1.39v-7.48c0-.59-.34-.93-.76-.76l-5.28,2.2c-.42.17-.76.8-.76,1.39v7.48c0,.59.34.93.76.76Z"/><path class="cls-14" d="m188.82,44.88l5.28-2.2c.42-.17.76-.8.76-1.39v-7.48c0-.59-.34-.93-.76-.76l-5.28,2.2c-.42.17-.76.8-.76,1.39v7.48c0,.59.34.93.76.76Z"/><path class="cls-14" d="m181.29,48.01l5.28-2.2c.42-.17.76-.8.76-1.39v-7.48c0-.59-.34-.93-.76-.76l-5.28,2.2c-.42.17-.76.8-.76,1.39v7.48c0,.59.34.93.76.76Z"/></g><g class="cls-1"><path class="cls-12" d="m179.26,8.15c-.12,0-.28.04-.28.04l-5.82,2.01s-.25.13-.37.29-.11.35-.11.35v8.22s-.03.2.05.33.17.17.17.17l5.89,2.48s.21.07.47.07h.02c.27,0,.47-.07.47-.07l5.89-2.48s.1-.04.17-.17.05-.33.05-.33v-8.22s0-.19-.11-.35-.37-.29-.37-.29l-5.82-2.01s-.16-.04-.28-.04h-.02Z"/></g><g class="cls-1"><path class="cls-12" d="m179.26,8.15c-.12,0-.28.04-.28.04l-5.82,2.01s-.25.13-.37.29-.11.35-.11.35v8.22s-.03.2.05.33.17.17.17.17l5.89,2.48s.21.07.47.07h.02c.27,0,.47-.07.47-.07l5.89-2.48s.1-.04.17-.17.05-.33.05-.33v-8.22s0-.19-.11-.35-.37-.29-.37-.29l-5.82-2.01s-.16-.04-.28-.04h-.02Z"/><path d="m179.28,22.43c-.33,0-.57-.08-.6-.09l-5.91-2.49s-.21-.09-.33-.31c-.11-.19-.1-.42-.09-.51v-8.2s0-.3.18-.54c.16-.21.43-.36.48-.39l.04-.02,5.82-2.01c.06-.02.24-.06.39-.06h.02c.15,0,.32.04.36.05l5.9,2.03c.05.03.32.18.48.39.18.24.18.51.18.56v8.19c0,.09.02.32-.09.51-.12.21-.29.29-.34.31l-5.89,2.48s-.28.1-.6.1Zm-.36-.7s.16.05.35.05c.22,0,.38-.05.38-.05l5.87-2.47s0,0,.02-.03c0-.02.01-.09,0-.12v-.05s0-8.22,0-8.22c0-.01,0-.09-.05-.16-.05-.06-.16-.14-.24-.19l-5.8-2s-.12-.02-.17-.02h-.02c-.05,0-.15.02-.2.03l-5.77,1.99c-.08.04-.19.12-.24.19-.04.06-.05.14-.05.14v8.26s0,.02,0,.02c0,.04,0,.1,0,.12.01.02.03.03.03.03l5.88,2.47h0Z"/></g><g class="cls-1"><path class="cls-13" d="m192.55,17.56c-.12,0-.28.04-.28.04l-5.82,2.01s-.25.13-.37.29-.11.35-.11.35v8.22s-.03.2.05.33.17.17.17.17l5.89,2.48s.21.07.47.07h.02c.27,0,.47-.07.47-.07l5.89-2.48s.1-.04.17-.17.05-.33.05-.33v-8.22s0-.19-.11-.35-.37-.29-.37-.29l-5.82-2.01s-.16-.04-.28-.04h-.02Z"/><path class="cls-13" d="m192.57,31.85c-.33,0-.57-.08-.6-.09l-5.91-2.49s-.21-.09-.33-.31c-.11-.19-.1-.42-.09-.51v-8.2s0-.3.18-.54c.16-.21.43-.36.48-.39l.04-.02,5.82-2.01c.06-.02.24-.06.39-.06h.02c.15,0,.32.04.36.05l5.9,2.03c.05.03.32.18.48.39.18.24.18.51.18.56v8.19c0,.09.02.32-.09.51-.12.21-.29.29-.34.31l-5.89,2.48s-.28.1-.6.1Zm-.36-.7s.16.05.35.05c.22,0,.38-.05.38-.05l5.87-2.47s0,0,.02-.03c0-.02.01-.09,0-.12v-.05s0-8.22,0-8.22c0-.01,0-.09-.05-.16-.05-.06-.16-.14-.24-.19l-5.8-2s-.12-.02-.17-.02h-.02c-.05,0-.15.02-.2.03l-5.77,1.99c-.08.04-.19.12-.24.19-.04.06-.05.14-.05.14v8.26s0,.02,0,.02c0,.04,0,.1,0,.12.01.02.03.03.03.03l5.88,2.47h0Z"/></g><polygon class="cls-9" points="186.05 19.9 192.54 22.34 192.53 31.52 185.99 28.8 186.05 19.9"/><polygon class="cls-9" points="199.15 19.9 192.54 22.34 192.53 31.52 199.08 28.8 199.15 19.9"/><polygon class="cls-9" points="199.15 19.9 192.54 22.34 185.99 19.96 192.54 17.56 199.15 19.9"/><polygon class="cls-16" points="172.79 10.49 179.28 12.93 179.26 22.11 172.73 19.38 172.79 10.49"/><polygon class="cls-16" points="185.89 10.49 179.28 12.93 179.26 22.11 185.82 19.38 185.89 10.49"/><polygon class="cls-16" points="185.89 10.49 179.28 12.93 172.73 10.54 179.28 8.15 185.89 10.49"/><path class="cls-34" d="m185.87,10.79l-.23-.61-6.36,2.4-6.37-2.4-.23.61,6.28,2.36v8.95h.65v-8.95l6.26-2.36Zm-6.59,2.14h0s0,0,0,0Z"/><path class="cls-30" d="m199.16,20.21l-.23-.61-6.36,2.4-6.37-2.4-.23.61,6.28,2.36v8.95h.65v-8.95l6.26-2.36Zm-6.59,2.14h0s0,0,0,0Z"/><path class="cls-33" d="m179.28,22.43c-.33,0-.57-.08-.6-.09l-5.91-2.49s-.21-.09-.33-.31c-.11-.19-.1-.42-.09-.51v-8.2s0-.3.18-.54c.16-.21.43-.36.48-.39l.04-.02,5.82-2.01c.06-.02.24-.06.39-.06h.02c.15,0,.32.04.36.05l5.9,2.03c.05.03.32.18.48.39.18.24.18.51.18.56v8.19c0,.09.02.32-.09.51-.12.21-.29.29-.34.31l-5.89,2.48s-.28.1-.6.1Zm-.36-.7s.16.05.35.05c.22,0,.38-.05.38-.05l5.87-2.47s0,0,.02-.03c0-.02.01-.09,0-.12v-.05s0-8.22,0-8.22c0-.01,0-.09-.05-.16-.05-.06-.16-.14-.24-.19l-5.8-2s-.12-.02-.17-.02h-.02c-.05,0-.15.02-.2.03l-5.77,1.99c-.08.04-.19.12-.24.19-.04.06-.05.14-.05.14v8.26s0,.02,0,.02c0,.04,0,.1,0,.12.01.02.03.03.03.03l5.88,2.47h0Z"/><path class="cls-26" d="m192.58,31.85c-.33,0-.57-.08-.6-.09l-5.91-2.49s-.21-.09-.33-.31c-.11-.19-.1-.42-.09-.51v-8.2s0-.3.18-.54c.16-.21.43-.36.48-.39l.04-.02,5.82-2.01c.06-.02.24-.06.39-.06h.02c.15,0,.32.04.36.05l5.9,2.03c.05.03.32.18.48.39.18.24.18.51.18.56v8.19c0,.09.02.32-.09.51-.12.21-.29.29-.34.31l-5.89,2.48s-.28.1-.6.1Zm-.36-.7s.16.05.35.05c.22,0,.38-.05.38-.05l5.87-2.47s0,0,.02-.03c0-.02.01-.09,0-.12v-.05s0-8.22,0-8.22c0-.01,0-.09-.05-.16-.05-.06-.16-.14-.24-.19l-5.8-2s-.12-.02-.17-.02h-.02c-.05,0-.15.02-.2.03l-5.77,1.99c-.08.04-.19.12-.24.19-.04.06-.05.14-.05.14v8.26s0,.02,0,.02c0,.04,0,.1,0,.12.01.02.03.03.03.03l5.88,2.47h0Z"/><g class="cls-1"><path class="cls-15" d="m205.94,26.71c-.12,0-.28.04-.28.04l-5.82,2.01s-.25.13-.37.29-.11.35-.11.35v8.22s-.03.2.05.33.17.17.17.17l5.89,2.48s.21.07.47.07h.02c.27,0,.47-.07.47-.07l5.89-2.48s.1-.04.17-.17.05-.33.05-.33v-8.22s0-.19-.11-.35-.37-.29-.37-.29l-5.82-2.01s-.16-.04-.28-.04h-.02Z"/><path class="cls-15" d="m205.96,41c-.33,0-.57-.08-.6-.09l-5.91-2.49s-.21-.09-.33-.31c-.11-.19-.1-.42-.09-.51v-8.2s0-.3.18-.54c.16-.21.43-.36.48-.39l.04-.02,5.82-2.01c.06-.02.24-.06.39-.06h.02c.15,0,.32.04.36.05l5.9,2.03c.05.03.32.18.48.39.18.24.18.51.18.56v8.19c0,.09.02.32-.09.51-.12.21-.29.29-.34.31l-5.89,2.48s-.28.1-.6.1Zm-.36-.7s.16.05.35.05c.22,0,.38-.05.38-.05l5.87-2.47s0,0,.02-.03c0-.02.01-.09,0-.12v-.05s0-8.22,0-8.22c0-.01,0-.09-.05-.16-.05-.06-.16-.14-.24-.19l-5.8-2s-.12-.02-.17-.02h-.02c-.05,0-.15.02-.2.03l-5.77,1.99c-.08.04-.19.12-.24.19-.04.06-.05.14-.05.14v8.26s0,.02,0,.02c0,.04,0,.1,0,.12.01.02.03.03.03.03l5.88,2.47h0Z"/></g><polygon class="cls-7" points="199.44 29.05 205.93 31.49 205.92 40.67 199.38 37.95 199.44 29.05"/><polygon class="cls-7" points="212.54 29.05 205.93 31.49 205.92 40.67 212.47 37.95 212.54 29.05"/><polygon class="cls-7" points="212.54 29.05 205.93 31.49 199.38 29.11 205.93 26.71 212.54 29.05"/><path class="cls-28" d="m212.55,29.36l-.23-.61-6.36,2.4-6.37-2.4-.23.61,6.28,2.36v8.95h.65v-8.95l6.26-2.36Zm-6.59,2.14h0s0,0,0,0Z"/><path class="cls-27" d="m205.97,41c-.33,0-.57-.08-.6-.09l-5.91-2.49s-.21-.09-.33-.31c-.11-.19-.1-.42-.09-.51v-8.2s0-.3.18-.54c.16-.21.43-.36.48-.39l.04-.02,5.82-2.01c.06-.02.24-.06.39-.06h.02c.15,0,.32.04.36.05l5.9,2.03c.05.03.32.18.48.39.18.24.18.51.18.56v8.19c0,.09.02.32-.09.51-.12.21-.29.29-.34.31l-5.89,2.48s-.28.1-.6.1Zm-.36-.7s.16.05.35.05c.22,0,.38-.05.38-.05l5.87-2.47s0,0,.02-.03c0-.02.01-.09,0-.12v-.05s0-8.22,0-8.22c0-.01,0-.09-.05-.16-.05-.06-.16-.14-.24-.19l-5.8-2s-.12-.02-.17-.02h-.02c-.05,0-.15.02-.2.03l-5.77,1.99c-.08.04-.19.12-.24.19-.04.06-.05.14-.05.14v8.26s0,.02,0,.02c0,.04,0,.1,0,.12.01.02.03.03.03.03l5.88,2.47h0Z"/><path class="cls-5" d="m89.31,40.21c-.21.1-.58.28-1.26.28-1.39,0-2.18-.86-2.18-2.14,0-1.39.95-2.19,2.14-2.19.48,0,.9.11,1.3.36l-.27.95c-.17-.13-.44-.33-.95-.33-.72,0-1.15.49-1.15,1.17,0,.53.25,1.18,1.17,1.18.6,0,1.03-.27,1.19-.37v1.08Z"/><path class="cls-5" d="m89.95,40.38v-4.11h1.03v.4c.23-.34.63-.55,1.21-.5v.99c-.54-.03-1.16.06-1.16.94v2.29h-1.08Z"/><path class="cls-5" d="m92.91,36.54c.47-.25.93-.38,1.47-.38.68,0,1.18.22,1.48.57.21.25.3.57.3,1.07v1.54c0,.56.07.84.16,1.04h-1.02c-.04-.1-.07-.19-.08-.37-.34.33-.76.48-1.22.48-.76,0-1.39-.46-1.39-1.29,0-1.05.91-1.28,1.65-1.4.72-.11.84-.13.84-.33,0-.17-.17-.36-.69-.36s-.98.17-1.41.45l-.09-1.02Zm2.21,1.89c-.19.09-.37.12-.84.19-.43.05-.67.19-.67.54,0,.24.16.43.48.43.23,0,.69-.08,1.04-.61v-.54Z"/><path class="cls-5" d="m96.96,40.38v-4.11h1.03v.4c.1-.13.41-.51,1.1-.51.72,0,1.09.43,1.2.67.15.31.18.64.18,1.24v2.31h-1.08v-2.35c0-.37,0-.89-.62-.89-.12,0-.74.03-.74.89v2.35h-1.08Z"/><path class="cls-5" d="m102.47,39.17v1.21h-1.2v-1.21h1.2Z"/><path class="cls-5" d="m103.28,40.38v-4.11h1.03v.4c.23-.34.63-.55,1.21-.5v.99c-.54-.03-1.16.06-1.16.94v2.29h-1.08Z"/><path class="cls-5" d="m107.87,37.81v1.04h-2v-1.04h2Z"/><path class="cls-5" d="m109.47,36.67c.14-.14.48-.51,1.15-.51,1.16,0,1.81,1.02,1.81,2.16s-.6,2.17-1.81,2.17c-.55,0-.89-.25-1.11-.44v2.16h-1.08v-5.94h1.04v.4Zm.96,2.84c.57,0,.91-.46.91-1.18s-.34-1.17-.91-1.17c-.21,0-.94.08-.94,1.17s.73,1.18.94,1.18Z"/><path class="cls-5" d="m113.01,40.38v-4.11h1.03v.4c.23-.34.63-.55,1.21-.5v.99c-.54-.03-1.16.06-1.16.94v2.29h-1.08Z"/><path class="cls-5" d="m117.67,36.16c1.09,0,2.04.83,2.04,2.16s-.95,2.17-2.04,2.17-2.03-.82-2.03-2.17.95-2.16,2.03-2.16Zm0,3.34c.63,0,.96-.49.96-1.18,0-1.17-.89-1.17-.96-1.17-.33,0-.95.2-.95,1.17,0,.69.34,1.18.95,1.18Z"/><path class="cls-5" d="m122.26,40.44c0,.78,0,1.76-1.33,1.76-.44,0-.72-.13-.91-.21l.08-.93c.13.05.35.16.62.16.4,0,.46-.3.46-.63v-4.33h1.08v4.17Zm.05-4.64h-1.17v-1.11h1.17v1.11Z"/><path class="cls-5" d="m124.08,38.66c.03.26.1.89,1.11.89.6,0,.94-.16,1.29-.33v1.01c-.21.08-.65.26-1.34.26-1.81,0-2.14-1.39-2.14-2.14,0-1.29.79-2.2,1.92-2.2.41,0,1.28.14,1.68,1.13.17.43.21.93.21,1.37h-2.73Zm1.65-.78c-.1-.8-.71-.8-.82-.8-.69,0-.8.65-.82.8h1.64Z"/><path class="cls-5" d="m130.73,40.21c-.21.1-.58.28-1.26.28-1.39,0-2.18-.86-2.18-2.14,0-1.39.95-2.19,2.14-2.19.48,0,.9.11,1.3.36l-.27.95c-.17-.13-.44-.33-.95-.33-.72,0-1.15.49-1.15,1.17,0,.53.25,1.18,1.17,1.18.6,0,1.03-.27,1.19-.37v1.08Z"/><path class="cls-5" d="m131.56,35.07h1.08v1.19h1.09v.99h-1.09v1.78c0,.34.08.47.46.47.23,0,.44-.03.57-.05v.97c-.12.01-.45.06-.84.06-1.26,0-1.26-.72-1.26-1.38v-1.85h-.47v-.99h.47v-1.19Z"/><path class="cls-5" d="m135.48,39.17v1.21h-1.2v-1.21h1.2Z"/><path class="cls-5" d="m138.15,36.16c1.09,0,2.04.83,2.04,2.16s-.95,2.17-2.04,2.17-2.03-.82-2.03-2.17.95-2.16,2.03-2.16Zm0,3.34c.63,0,.96-.49.96-1.18,0-1.17-.89-1.17-.96-1.17-.33,0-.95.2-.95,1.17,0,.69.34,1.18.95,1.18Z"/><path class="cls-5" d="m140.79,40.38v-4.11h1.03v.4c.23-.34.63-.55,1.21-.5v.99c-.54-.03-1.16.06-1.16.94v2.29h-1.08Z"/><path class="cls-5" d="m147.28,37.11c-.07-.03-.15-.05-.27-.05-.11,0-.19.02-.24.04.04.1.1.26.1.55,0,.97-.83,1.39-1.68,1.39-.11,0-.19,0-.25,0-.09.04-.19.13-.19.23,0,.16.26.19.72.21.93.04,1.85.21,1.85,1.31,0,1.24-1.38,1.42-2.09,1.42-1.3,0-1.86-.6-1.86-1.33,0-.65.47-.95.6-1.04-.12-.09-.33-.25-.33-.56s.26-.54.34-.59c-.52-.4-.52-.95-.52-1.08,0-.85.7-1.46,1.7-1.46.49,0,.77.13.91.2.32-.2.64-.2.73-.2.25,0,.36.04.47.09v.86Zm-2.11,3.19c-.4,0-.73.11-.73.51,0,.46.55.52.89.52.21,0,.92-.03.92-.55,0-.39-.45-.48-1.07-.48Zm-.67-2.67c0,.34.28.57.67.57s.68-.24.68-.59c0-.3-.22-.58-.67-.58-.38,0-.68.23-.68.6Z"/><path class="cls-6" d="m89.31,40.21c-.21.1-.58.28-1.26.28-1.39,0-2.18-.86-2.18-2.14,0-1.39.95-2.19,2.14-2.19.48,0,.9.11,1.3.36l-.27.95c-.17-.13-.44-.33-.95-.33-.72,0-1.15.49-1.15,1.17,0,.53.25,1.18,1.17,1.18.6,0,1.03-.27,1.19-.37v1.08Z"/><path class="cls-6" d="m89.95,40.38v-4.11h1.03v.4c.23-.34.63-.55,1.21-.5v.99c-.54-.03-1.16.06-1.16.94v2.29h-1.08Z"/><path class="cls-6" d="m92.91,36.54c.47-.25.93-.38,1.47-.38.68,0,1.18.22,1.48.57.21.25.3.57.3,1.07v1.54c0,.56.07.84.16,1.04h-1.02c-.04-.1-.07-.19-.08-.37-.34.33-.76.48-1.22.48-.76,0-1.39-.46-1.39-1.29,0-1.05.91-1.28,1.65-1.4.72-.11.84-.13.84-.33,0-.17-.17-.36-.69-.36s-.98.17-1.41.45l-.09-1.02Zm2.21,1.89c-.19.09-.37.12-.84.19-.43.05-.67.19-.67.54,0,.24.16.43.48.43.23,0,.69-.08,1.04-.61v-.54Z"/><path class="cls-6" d="m96.96,40.38v-4.11h1.03v.4c.1-.13.41-.51,1.1-.51.72,0,1.09.43,1.2.67.15.31.18.64.18,1.24v2.31h-1.08v-2.35c0-.37,0-.89-.62-.89-.12,0-.74.03-.74.89v2.35h-1.08Z"/><path class="cls-6" d="m102.47,39.17v1.21h-1.2v-1.21h1.2Z"/><path class="cls-6" d="m103.28,40.38v-4.11h1.03v.4c.23-.34.63-.55,1.21-.5v.99c-.54-.03-1.16.06-1.16.94v2.29h-1.08Z"/><path class="cls-6" d="m107.87,37.81v1.04h-2v-1.04h2Z"/><path class="cls-6" d="m109.47,36.67c.14-.14.48-.51,1.15-.51,1.16,0,1.81,1.02,1.81,2.16s-.6,2.17-1.81,2.17c-.55,0-.89-.25-1.11-.44v2.16h-1.08v-5.94h1.04v.4Zm.96,2.84c.57,0,.91-.46.91-1.18s-.34-1.17-.91-1.17c-.21,0-.94.08-.94,1.17s.73,1.18.94,1.18Z"/><path class="cls-6" d="m113.01,40.38v-4.11h1.03v.4c.23-.34.63-.55,1.21-.5v.99c-.54-.03-1.16.06-1.16.94v2.29h-1.08Z"/><path class="cls-6" d="m117.67,36.16c1.09,0,2.04.83,2.04,2.16s-.95,2.17-2.04,2.17-2.03-.82-2.03-2.17.95-2.16,2.03-2.16Zm0,3.34c.63,0,.96-.49.96-1.18,0-1.17-.89-1.17-.96-1.17-.33,0-.95.2-.95,1.17,0,.69.34,1.18.95,1.18Z"/><path class="cls-6" d="m122.26,40.44c0,.78,0,1.76-1.33,1.76-.44,0-.72-.13-.91-.21l.08-.93c.13.05.35.16.62.16.4,0,.46-.3.46-.63v-4.33h1.08v4.17Zm.05-4.64h-1.17v-1.11h1.17v1.11Z"/><path class="cls-6" d="m124.08,38.66c.03.26.1.89,1.11.89.6,0,.94-.16,1.29-.33v1.01c-.21.08-.65.26-1.34.26-1.81,0-2.14-1.39-2.14-2.14,0-1.29.79-2.2,1.92-2.2.41,0,1.28.14,1.68,1.13.17.43.21.93.21,1.37h-2.73Zm1.65-.78c-.1-.8-.71-.8-.82-.8-.69,0-.8.65-.82.8h1.64Z"/><path class="cls-6" d="m130.73,40.21c-.21.1-.58.28-1.26.28-1.39,0-2.18-.86-2.18-2.14,0-1.39.95-2.19,2.14-2.19.48,0,.9.11,1.3.36l-.27.95c-.17-.13-.44-.33-.95-.33-.72,0-1.15.49-1.15,1.17,0,.53.25,1.18,1.17,1.18.6,0,1.03-.27,1.19-.37v1.08Z"/><path class="cls-6" d="m131.56,35.07h1.08v1.19h1.09v.99h-1.09v1.78c0,.34.08.47.46.47.23,0,.44-.03.57-.05v.97c-.12.01-.45.06-.84.06-1.26,0-1.26-.72-1.26-1.38v-1.85h-.47v-.99h.47v-1.19Z"/><path class="cls-6" d="m135.48,39.17v1.21h-1.2v-1.21h1.2Z"/><path class="cls-6" d="m138.15,36.16c1.09,0,2.04.83,2.04,2.16s-.95,2.17-2.04,2.17-2.03-.82-2.03-2.17.95-2.16,2.03-2.16Zm0,3.34c.63,0,.96-.49.96-1.18,0-1.17-.89-1.17-.96-1.17-.33,0-.95.2-.95,1.17,0,.69.34,1.18.95,1.18Z"/><path class="cls-6" d="m140.79,40.38v-4.11h1.03v.4c.23-.34.63-.55,1.21-.5v.99c-.54-.03-1.16.06-1.16.94v2.29h-1.08Z"/><path class="cls-6" d="m147.28,37.11c-.07-.03-.15-.05-.27-.05-.11,0-.19.02-.24.04.04.1.1.26.1.55,0,.97-.83,1.39-1.68,1.39-.11,0-.19,0-.25,0-.09.04-.19.13-.19.23,0,.16.26.19.72.21.93.04,1.85.21,1.85,1.31,0,1.24-1.38,1.42-2.09,1.42-1.3,0-1.86-.6-1.86-1.33,0-.65.47-.95.6-1.04-.12-.09-.33-.25-.33-.56s.26-.54.34-.59c-.52-.4-.52-.95-.52-1.08,0-.85.7-1.46,1.7-1.46.49,0,.77.13.91.2.32-.2.64-.2.73-.2.25,0,.36.04.47.09v.86Zm-2.11,3.19c-.4,0-.73.11-.73.51,0,.46.55.52.89.52.21,0,.92-.03.92-.55,0-.39-.45-.48-1.07-.48Zm-.67-2.67c0,.34.28.57.67.57s.68-.24.68-.59c0-.3-.22-.58-.67-.58-.38,0-.68.23-.68.6Z"/><path class="cls-3" d="m0,8.99h3.23v7.74c.9-1.44,2.28-2.23,3.99-2.23,3.09,0,6.03,2.01,6.03,6.79v6.98h-3.23v-6.98c0-2.55-1.36-3.77-3.39-3.77s-3.39,1.28-3.39,3.77v6.98H0V8.99Z"/><path class="cls-3" d="m15.37,20.61c0-4.21,2.44-6.11,5.62-6.11,2.01,0,3.67.84,4.64,2.42.95-1.57,2.61-2.42,4.64-2.42,3.18,0,5.62,1.9,5.62,6.11v7.66h-3.23v-7.66c0-2.2-1.14-3.09-2.71-3.09s-2.69.92-2.69,3.09v7.66h-3.23v-7.66c0-2.17-1.17-3.09-2.72-3.09s-2.71.9-2.71,3.09v7.66h-3.23v-7.66Z"/><path class="cls-3" d="m38.02,20.61c0-4.21,2.44-6.11,5.62-6.11,2.01,0,3.67.84,4.64,2.42.95-1.57,2.61-2.42,4.64-2.42,3.18,0,5.62,1.9,5.62,6.11v7.66h-3.23v-7.66c0-2.2-1.14-3.09-2.71-3.09s-2.69.92-2.69,3.09v7.66h-3.23v-7.66c0-2.17-1.17-3.09-2.72-3.09s-2.71.9-2.71,3.09v7.66h-3.23v-7.66Z"/><path class="cls-3" d="m65.36,13.75h-5.29v-3.23h14.06v3.23h-5.3v14.52h-3.48v-14.52Z"/><path class="cls-3" d="m75.11,21.57c0-4.07,2.99-7.06,7.22-7.06s7.17,2.99,7.17,7.06v1.14h-11c.44,1.96,1.93,2.99,3.83,2.99,1.44,0,2.5-.41,3.18-1.28h3.45c-1,2.55-3.45,4.21-6.62,4.21-4.23,0-7.22-2.99-7.22-7.06Zm10.97-1.44c-.52-1.79-1.98-2.69-3.75-2.69s-3.23.92-3.75,2.69h7.49Z"/><path class="cls-3" d="m91.07,21.29c0-4.48,2.66-6.79,6.62-6.79s6.62,2.28,6.62,6.79v6.98h-3.23v-6.98c0-2.55-1.36-3.77-3.39-3.77s-3.39,1.22-3.39,3.77v6.98h-3.23v-6.98Z"/><path class="cls-3" d="m105.93,24.31h3.26c.03.9.82,1.49,2.39,1.49,1.66,0,2.36-.68,2.36-1.49,0-1.03-1.19-1.17-2.63-1.36-2.06-.27-5.1-.63-5.1-3.91,0-2.74,2.09-4.53,5.32-4.53s5.29,1.85,5.38,4.21h-3.2c-.08-.81-.84-1.38-2.12-1.38-1.41,0-2.12.68-2.12,1.47,0,1.03,1.22,1.19,2.66,1.38,1.79.24,5.08.6,5.08,3.94,0,2.71-2.2,4.51-5.62,4.51s-5.57-1.82-5.65-4.32Z"/><path class="cls-3" d="m118.25,21.57c0-4.07,2.99-7.06,7.22-7.06s7.22,2.99,7.22,7.06-2.99,7.06-7.22,7.06-7.22-2.99-7.22-7.06Zm11.16,0c0-2.36-1.57-4.05-3.94-4.05s-3.96,1.68-3.96,4.05,1.6,4.04,3.96,4.04,3.94-1.68,3.94-4.04Z"/><path class="cls-3" d="m134.27,20.48c0-4.05,2.39-5.97,5.89-5.97s5.86,1.93,5.86,6.03v.08h-3.2v-.14c0-2.17-1.08-2.96-2.66-2.96s-2.66.79-2.66,2.96v7.79h-3.23v-7.79Z"/><path class="cls-4" d="m0,8.99h3.23v7.74c.9-1.44,2.28-2.23,3.99-2.23,3.09,0,6.03,2.01,6.03,6.79v6.98h-3.23v-6.98c0-2.55-1.36-3.77-3.39-3.77s-3.39,1.28-3.39,3.77v6.98H0V8.99Z"/><path class="cls-4" d="m15.37,20.61c0-4.21,2.44-6.11,5.62-6.11,2.01,0,3.67.84,4.64,2.42.95-1.57,2.61-2.42,4.64-2.42,3.18,0,5.62,1.9,5.62,6.11v7.66h-3.23v-7.66c0-2.2-1.14-3.09-2.71-3.09s-2.69.92-2.69,3.09v7.66h-3.23v-7.66c0-2.17-1.17-3.09-2.72-3.09s-2.71.9-2.71,3.09v7.66h-3.23v-7.66Z"/><path class="cls-4" d="m38.02,20.61c0-4.21,2.44-6.11,5.62-6.11,2.01,0,3.67.84,4.64,2.42.95-1.57,2.61-2.42,4.64-2.42,3.18,0,5.62,1.9,5.62,6.11v7.66h-3.23v-7.66c0-2.2-1.14-3.09-2.71-3.09s-2.69.92-2.69,3.09v7.66h-3.23v-7.66c0-2.17-1.17-3.09-2.72-3.09s-2.71.9-2.71,3.09v7.66h-3.23v-7.66Z"/><path class="cls-4" d="m65.36,13.75h-5.29v-3.23h14.06v3.23h-5.3v14.52h-3.48v-14.52Z"/><path class="cls-4" d="m75.11,21.57c0-4.07,2.99-7.06,7.22-7.06s7.17,2.99,7.17,7.06v1.14h-11c.44,1.96,1.93,2.99,3.83,2.99,1.44,0,2.5-.41,3.18-1.28h3.45c-1,2.55-3.45,4.21-6.62,4.21-4.23,0-7.22-2.99-7.22-7.06Zm10.97-1.44c-.52-1.79-1.98-2.69-3.75-2.69s-3.23.92-3.75,2.69h7.49Z"/><path class="cls-4" d="m91.07,21.29c0-4.48,2.66-6.79,6.62-6.79s6.62,2.28,6.62,6.79v6.98h-3.23v-6.98c0-2.55-1.36-3.77-3.39-3.77s-3.39,1.22-3.39,3.77v6.98h-3.23v-6.98Z"/><path class="cls-4" d="m105.93,24.31h3.26c.03.9.82,1.49,2.39,1.49,1.66,0,2.36-.68,2.36-1.49,0-1.03-1.19-1.17-2.63-1.36-2.06-.27-5.1-.63-5.1-3.91,0-2.74,2.09-4.53,5.32-4.53s5.29,1.85,5.38,4.21h-3.2c-.08-.81-.84-1.38-2.12-1.38-1.41,0-2.12.68-2.12,1.47,0,1.03,1.22,1.19,2.66,1.38,1.79.24,5.08.6,5.08,3.94,0,2.71-2.2,4.51-5.62,4.51s-5.57-1.82-5.65-4.32Z"/><path class="cls-4" d="m118.25,21.57c0-4.07,2.99-7.06,7.22-7.06s7.22,2.99,7.22,7.06-2.99,7.06-7.22,7.06-7.22-2.99-7.22-7.06Zm11.16,0c0-2.36-1.57-4.05-3.94-4.05s-3.96,1.68-3.96,4.05,1.6,4.04,3.96,4.04,3.94-1.68,3.94-4.04Z"/><path class="cls-4" d="m134.27,20.48c0-4.05,2.39-5.97,5.89-5.97s5.86,1.93,5.86,6.03v.08h-3.2v-.14c0-2.17-1.08-2.96-2.66-2.96s-2.66.79-2.66,2.96v7.79h-3.23v-7.79Z"/><path class="cls-8" d="m0,8.99h3.23v7.74c.9-1.44,2.28-2.23,3.99-2.23,3.09,0,6.03,2.01,6.03,6.79v6.98h-3.23v-6.98c0-2.55-1.36-3.77-3.39-3.77s-3.39,1.28-3.39,3.77v6.98H0V8.99Z"/><path class="cls-8" d="m15.37,20.61c0-4.21,2.44-6.11,5.62-6.11,2.01,0,3.67.84,4.64,2.42.95-1.57,2.61-2.42,4.64-2.42,3.18,0,5.62,1.9,5.62,6.11v7.66h-3.23v-7.66c0-2.2-1.14-3.09-2.71-3.09s-2.69.92-2.69,3.09v7.66h-3.23v-7.66c0-2.17-1.17-3.09-2.72-3.09s-2.71.9-2.71,3.09v7.66h-3.23v-7.66Z"/><path class="cls-8" d="m38.02,20.61c0-4.21,2.44-6.11,5.62-6.11,2.01,0,3.67.84,4.64,2.42.95-1.57,2.61-2.42,4.64-2.42,3.18,0,5.62,1.9,5.62,6.11v7.66h-3.23v-7.66c0-2.2-1.14-3.09-2.71-3.09s-2.69.92-2.69,3.09v7.66h-3.23v-7.66c0-2.17-1.17-3.09-2.72-3.09s-2.71.9-2.71,3.09v7.66h-3.23v-7.66Z"/><path class="cls-8" d="m65.36,13.75h-5.29v-3.23h14.06v3.23h-5.3v14.52h-3.48v-14.52Z"/><path class="cls-8" d="m75.11,21.57c0-4.07,2.99-7.06,7.22-7.06s7.17,2.99,7.17,7.06v1.14h-11c.44,1.96,1.93,2.99,3.83,2.99,1.44,0,2.5-.41,3.18-1.28h3.45c-1,2.55-3.45,4.21-6.62,4.21-4.23,0-7.22-2.99-7.22-7.06Zm10.97-1.44c-.52-1.79-1.98-2.69-3.75-2.69s-3.23.92-3.75,2.69h7.49Z"/><path class="cls-8" d="m91.07,21.29c0-4.48,2.66-6.79,6.62-6.79s6.62,2.28,6.62,6.79v6.98h-3.23v-6.98c0-2.55-1.36-3.77-3.39-3.77s-3.39,1.22-3.39,3.77v6.98h-3.23v-6.98Z"/><path class="cls-8" d="m105.93,24.31h3.26c.03.9.82,1.49,2.39,1.49,1.66,0,2.36-.68,2.36-1.49,0-1.03-1.19-1.17-2.63-1.36-2.06-.27-5.1-.63-5.1-3.91,0-2.74,2.09-4.53,5.32-4.53s5.29,1.85,5.38,4.21h-3.2c-.08-.81-.84-1.38-2.12-1.38-1.41,0-2.12.68-2.12,1.47,0,1.03,1.22,1.19,2.66,1.38,1.79.24,5.08.6,5.08,3.94,0,2.71-2.2,4.51-5.62,4.51s-5.57-1.82-5.65-4.32Z"/><path class="cls-8" d="m118.25,21.57c0-4.07,2.99-7.06,7.22-7.06s7.22,2.99,7.22,7.06-2.99,7.06-7.22,7.06-7.22-2.99-7.22-7.06Zm11.16,0c0-2.36-1.57-4.05-3.94-4.05s-3.96,1.68-3.96,4.05,1.6,4.04,3.96,4.04,3.94-1.68,3.94-4.04Z"/><path class="cls-8" d="m134.27,20.48c0-4.05,2.39-5.97,5.89-5.97s5.86,1.93,5.86,6.03v.08h-3.2v-.14c0-2.17-1.08-2.96-2.66-2.96s-2.66.79-2.66,2.96v7.79h-3.23v-7.79Z"/><path class="cls-23" d="m0,8.99h3.23v7.74c.9-1.44,2.28-2.23,3.99-2.23,3.09,0,6.03,2.01,6.03,6.79v6.98h-3.23v-6.98c0-2.55-1.36-3.77-3.39-3.77s-3.39,1.28-3.39,3.77v6.98H0V8.99Z"/><path class="cls-22" d="m15.37,20.61c0-4.21,2.44-6.11,5.62-6.11,2.01,0,3.67.84,4.64,2.42.95-1.57,2.61-2.42,4.64-2.42,3.18,0,5.62,1.9,5.62,6.11v7.66h-3.23v-7.66c0-2.2-1.14-3.09-2.71-3.09s-2.69.92-2.69,3.09v7.66h-3.23v-7.66c0-2.17-1.17-3.09-2.72-3.09s-2.71.9-2.71,3.09v7.66h-3.23v-7.66Z"/><path class="cls-25" d="m38.02,20.61c0-4.21,2.44-6.11,5.62-6.11,2.01,0,3.67.84,4.64,2.42.95-1.57,2.61-2.42,4.64-2.42,3.18,0,5.62,1.9,5.62,6.11v7.66h-3.23v-7.66c0-2.2-1.14-3.09-2.71-3.09s-2.69.92-2.69,3.09v7.66h-3.23v-7.66c0-2.17-1.17-3.09-2.72-3.09s-2.71.9-2.71,3.09v7.66h-3.23v-7.66Z"/><path class="cls-24" d="m65.36,13.75h-5.29v-3.23h14.06v3.23h-5.3v14.52h-3.48v-14.52Z"/><path class="cls-21" d="m75.11,21.57c0-4.07,2.99-7.06,7.22-7.06s7.17,2.99,7.17,7.06v1.14h-11c.44,1.96,1.93,2.99,3.83,2.99,1.44,0,2.5-.41,3.18-1.28h3.45c-1,2.55-3.45,4.21-6.62,4.21-4.23,0-7.22-2.99-7.22-7.06Zm10.97-1.44c-.52-1.79-1.98-2.69-3.75-2.69s-3.23.92-3.75,2.69h7.49Z"/><path class="cls-20" d="m91.07,21.29c0-4.48,2.66-6.79,6.62-6.79s6.62,2.28,6.62,6.79v6.98h-3.23v-6.98c0-2.55-1.36-3.77-3.39-3.77s-3.39,1.22-3.39,3.77v6.98h-3.23v-6.98Z"/><path class="cls-19" d="m105.93,24.31h3.26c.03.9.82,1.49,2.39,1.49,1.66,0,2.36-.68,2.36-1.49,0-1.03-1.19-1.17-2.63-1.36-2.06-.27-5.1-.63-5.1-3.91,0-2.74,2.09-4.53,5.32-4.53s5.29,1.85,5.38,4.21h-3.2c-.08-.81-.84-1.38-2.12-1.38-1.41,0-2.12.68-2.12,1.47,0,1.03,1.22,1.19,2.66,1.38,1.79.24,5.08.6,5.08,3.94,0,2.71-2.2,4.51-5.62,4.51s-5.57-1.82-5.65-4.32Z"/><path class="cls-17" d="m118.25,21.57c0-4.07,2.99-7.06,7.22-7.06s7.22,2.99,7.22,7.06-2.99,7.06-7.22,7.06-7.22-2.99-7.22-7.06Zm11.16,0c0-2.36-1.57-4.05-3.94-4.05s-3.96,1.68-3.96,4.05,1.6,4.04,3.96,4.04,3.94-1.68,3.94-4.04Z"/><path class="cls-18" d="m134.27,20.48c0-4.05,2.39-5.97,5.89-5.97s5.86,1.93,5.86,6.03v.08h-3.2v-.14c0-2.17-1.08-2.96-2.66-2.96s-2.66.79-2.66,2.96v7.79h-3.23v-7.79Z"/></g></svg>