<?xml version="1.0" encoding="UTF-8"?><svg id="_レイヤー_2" xmlns="http://www.w3.org/2000/svg" viewBox="0 0 118.02 16.17"><defs><style>.cls-1{fill:#91cda6;}.cls-2{fill:#8f75b3;}.cls-3{fill:#b9d779;}.cls-4{fill:#c9dc60;}.cls-5{fill:#231815;}.cls-6{fill:#895986;}.cls-7{fill:#54c3f1;}.cls-8{fill:none;stroke:#f4f080;stroke-miterlimit:10;stroke-width:.75px;}</style></defs><g id="_レイヤー_1-2"><path class="cls-5" d="m.72,13.61H.03l.17-.25h.84l-.53,2.49H.24l.48-2.23Z"/><path class="cls-5" d="m1.63,15.74c-.12-.06-.2-.16-.25-.27-.05-.12-.06-.25-.02-.41l.19-.9c.03-.16.1-.3.2-.42.1-.12.22-.22.36-.28s.29-.1.45-.1h1.98c.15,0,.29.03.4.1.11.07.19.16.24.28.05.12.05.26.02.43l-.19.9c-.03.16-.1.3-.2.42-.1.12-.22.21-.36.27s-.29.1-.45.1h-1.96c-.15,0-.29-.03-.4-.1Zm2.84-.32c.12-.1.2-.25.24-.45l.16-.75c.04-.19.02-.34-.07-.45-.08-.11-.23-.16-.44-.16h-1.77c-.22,0-.39.06-.51.17-.13.11-.21.26-.24.43l-.16.75c-.04.19-.02.33.07.44.09.11.22.16.4.16h1.84c.2,0,.36-.05.48-.16Z"/><path class="cls-5" d="m5.56,15.57h.44l-.06.27h-.44l.06-.27Z"/><path class="cls-5" d="m6.67,15.58h2.72c.16,0,.3-.04.42-.11s.19-.17.22-.29l.02-.07c.03-.15,0-.26-.08-.33-.08-.06-.21-.1-.38-.1h-2.7l.29-1.34h3.43l-.06.26h-3.12l-.17.82h2.55c.12,0,.23.03.32.08.1.05.17.13.21.23s.05.22.03.35l-.02.1c-.02.12-.08.22-.16.32s-.19.18-.31.23c-.12.06-.25.09-.37.09h-2.86l.06-.26Z"/><path class="cls-5" d="m11.15,14.86c.1-.09.21-.15.35-.17l2.68-.41c.08-.01.15-.05.21-.1s.11-.12.13-.19c0,0,0,0,0,0,0,0,0,0,0,0v-.06c.03-.1.02-.17-.03-.23-.05-.06-.13-.08-.24-.08h-2.78l.06-.26h2.87c.09,0,.17.02.25.06.08.04.13.1.17.18s.05.17.03.27l-.04.16c-.02.1-.07.2-.15.29-.08.09-.16.15-.27.19-.02,0-.05.01-.08.02l-2.72.42c-.11.02-.19.06-.26.12s-.1.14-.12.21l-.07.31h3.25l-.06.26h-3.53l.14-.66c.03-.12.09-.23.19-.32Z"/><path class="cls-5" d="m15.39,15.76c-.08-.06-.15-.13-.18-.22s-.04-.19-.02-.3l.02-.08c.02-.11.07-.2.14-.29.07-.09.15-.16.24-.22.09-.06.17-.09.23-.09v.04c-.08,0-.14-.04-.2-.09-.06-.05-.1-.12-.12-.2-.03-.08-.03-.17,0-.27v-.07c.04-.11.09-.21.17-.3.08-.1.18-.17.29-.23s.23-.08.35-.08h2.23c.12,0,.22.03.31.08.09.06.15.13.19.23.04.09.05.2.02.3v.07c-.03.1-.07.19-.13.27-.06.08-.13.15-.21.2-.08.05-.15.08-.23.09v-.04c.08,0,.14.04.2.09.06.05.11.13.15.22s.04.19.02.29l-.02.08c-.02.11-.07.21-.14.3-.07.09-.16.17-.27.22-.11.06-.22.08-.34.08h-2.39c-.11,0-.21-.03-.29-.08Zm2.97-.29c.09-.07.15-.17.18-.28l.02-.07c.01-.07,0-.13-.03-.2s-.09-.11-.15-.15c-.07-.04-.14-.06-.21-.06h-2.07c-.08,0-.16.02-.24.06s-.15.09-.21.15c-.06.06-.1.13-.11.2l-.02.07c-.02.11,0,.2.06.28.06.07.16.11.28.11h2.19c.12,0,.23-.04.33-.11Zm.19-1.12c.09-.07.15-.17.18-.29v-.06c.02-.07.02-.13-.01-.19-.03-.06-.08-.11-.14-.14-.06-.04-.13-.05-.21-.05h-2.03c-.08,0-.15.02-.23.05-.08.04-.14.08-.2.14s-.09.12-.1.19v.06c-.03.07-.02.13,0,.19.02.06.07.11.12.15.06.04.13.05.21.05h2.07c.13,0,.24-.04.34-.11Z"/><path class="cls-5" d="m20.38,13.61h-.69l.17-.25h.84l-.53,2.49h-.27l.48-2.23Z"/><path class="cls-5" d="m23.23,13.06h.26l-2.67,3.11h-.26l2.67-3.11Z"/><path class="cls-5" d="m23.34,15.62l2.86-1.59v.07s-2.53,0-2.53,0l.06-.27h3.02l-.05.22-2.88,1.59v-.06s2.55,0,2.55,0l-.06.27h-3.03l.05-.22Z"/><path class="cls-5" d="m27.29,15.76c-.1-.05-.17-.13-.22-.24-.04-.1-.05-.23-.02-.38l.13-.6c.05-.22.15-.4.32-.53.16-.13.36-.19.59-.19h1.71c.23,0,.4.06.5.19.11.12.14.3.09.52l-.09.42h-2.95l.06-.26h2.66l.02-.1c.03-.16.02-.28-.06-.37s-.19-.13-.35-.13h-1.6c-.17,0-.3.05-.41.14s-.17.21-.2.37l-.11.52c-.02.07-.01.15.01.22s.07.13.14.17c.07.04.15.07.25.07h2.33l-.06.27h-2.38c-.14,0-.26-.03-.36-.08Z"/><path class="cls-5" d="m31.22,13.83h.29l-.04.18.04-.04s.1-.07.15-.09c.05-.02.1-.04.15-.05.05,0,.11-.02.17-.02h1.69c.23,0,.39.06.5.19.11.13.14.3.09.53l-.28,1.3h-.29l.27-1.25c.03-.16.02-.29-.05-.37s-.19-.13-.35-.13h-1.6c-.17,0-.3.05-.41.14s-.17.21-.21.36l-.27,1.25h-.29l.43-2.01Z"/><path class="cls-5" d="m34.86,15.66c-.11-.12-.15-.29-.1-.51l.13-.6c.05-.22.15-.4.32-.53.16-.13.36-.19.59-.19h1.71c.23,0,.39.06.5.19.11.13.14.3.09.53l-.13.6c-.04.21-.15.38-.32.5s-.36.19-.57.19h-1.72c-.21,0-.38-.06-.49-.18Zm2.5-.16c.08-.05.15-.11.21-.18.06-.07.09-.14.11-.21l.11-.52c.03-.16.02-.29-.06-.37s-.19-.13-.35-.13h-1.6c-.17,0-.3.04-.41.14-.1.09-.17.21-.2.36l-.11.52c-.02.07-.01.15.01.22.03.07.07.13.14.17.06.05.15.07.25.07h1.63c.1,0,.19-.02.28-.07Z"/><path class="cls-5" d="m38.7,15.66c-.11-.12-.15-.29-.1-.51l.13-.61c.05-.22.15-.4.31-.53.16-.13.36-.19.59-.19h2.17l.11-.5.31-.09-.56,2.61h-.28l.04-.2c-.04.05-.11.1-.2.14s-.18.06-.27.06h-1.75c-.21,0-.38-.06-.49-.18Zm2.47-.15c.1-.05.18-.11.25-.18.07-.08.11-.16.13-.24l.2-.99h-2.12c-.17,0-.3.05-.4.14-.1.09-.17.21-.21.37l-.11.52c-.02.07-.01.15.01.22.03.07.07.13.14.17.06.05.15.07.25.07h1.6c.08,0,.17-.02.27-.07Z"/><path class="cls-5" d="m42.58,15.66c-.11-.12-.15-.29-.1-.51l.13-.6c.05-.22.15-.4.32-.53.16-.13.36-.19.59-.19h1.71c.23,0,.39.06.5.19.11.13.14.3.09.53l-.13.6c-.04.21-.15.38-.32.5s-.36.19-.57.19h-1.72c-.21,0-.38-.06-.49-.18Zm2.5-.16c.08-.05.15-.11.21-.18.06-.07.09-.14.11-.21l.11-.52c.03-.16.02-.29-.06-.37s-.19-.13-.35-.13h-1.6c-.17,0-.3.04-.41.14-.1.09-.17.21-.2.36l-.11.52c-.02.07-.01.15.01.22.03.07.07.13.14.17.06.05.15.07.25.07h1.63c.1,0,.19-.02.28-.07Z"/><path class="cls-5" d="m46.26,15.57h.44l-.06.27h-.44l.06-.27Z"/><path class="cls-5" d="m47.65,15.76c-.08-.06-.15-.13-.18-.22s-.04-.19-.02-.3l.02-.08c.02-.11.07-.2.14-.29.07-.09.15-.16.24-.22.09-.06.17-.09.23-.09v.04c-.08,0-.14-.04-.2-.09-.06-.05-.1-.12-.12-.2-.03-.08-.03-.17,0-.27v-.07c.04-.11.09-.21.17-.3.08-.1.18-.17.29-.23s.23-.08.35-.08h2.23c.12,0,.22.03.31.08s.15.13.19.23c.04.09.05.2.02.3v.07c-.03.1-.07.19-.13.27-.06.08-.13.15-.21.2-.08.05-.15.08-.23.09v-.04c.08,0,.14.04.2.09.06.05.11.13.15.22s.04.19.02.29l-.02.08c-.02.11-.07.21-.14.3-.07.09-.16.17-.27.22-.11.06-.22.08-.34.08h-2.39c-.11,0-.21-.03-.29-.08Zm2.97-.29c.09-.07.15-.17.18-.28l.02-.07c.01-.07,0-.13-.03-.2s-.09-.11-.15-.15c-.07-.04-.14-.06-.21-.06h-2.07c-.08,0-.16.02-.24.06s-.15.09-.21.15c-.06.06-.1.13-.11.2l-.02.07c-.02.11,0,.2.06.28.06.07.16.11.28.11h2.19c.12,0,.23-.04.33-.11Zm.19-1.12c.09-.07.15-.17.18-.29v-.06c.02-.07.02-.13-.01-.19-.03-.06-.08-.11-.14-.14-.06-.04-.13-.05-.21-.05h-2.03c-.08,0-.15.02-.23.05-.08.04-.14.08-.2.14s-.09.12-.1.19v.06c-.03.07-.02.13,0,.19.02.06.07.11.12.15.06.04.13.05.21.05h2.07c.13,0,.24-.04.34-.11Z"/><path class="cls-5" d="m52.64,13.61h-.69l.17-.25h.84l-.53,2.49h-.27l.48-2.23Z"/><path class="cls-5" d="m57.03,13.55c.11.13.14.31.09.55l-.2.94c-.03.16-.1.3-.2.42-.1.12-.22.22-.36.28-.14.07-.29.1-.45.1h-2.61l.06-.26h2.51c.22,0,.39-.06.51-.17s.21-.26.24-.43l.17-.79c.04-.19.03-.33-.04-.43s-.19-.14-.37-.14h-1.96c-.19,0-.34.03-.44.09-.1.06-.16.16-.19.3v.06c-.04.13-.02.24.05.31.07.08.19.12.38.12h2.6l-.06.26h-2.74c-.21,0-.37-.06-.47-.18s-.13-.27-.09-.46v-.04c.06-.24.17-.41.34-.54.17-.12.37-.18.6-.18h2.1c.23,0,.41.07.52.2Z"/><path class="cls-5" d="m61.3,13.55c.11.13.14.31.09.55l-.2.94c-.03.16-.1.3-.2.42-.1.12-.22.22-.36.28-.14.07-.29.1-.45.1h-2.61l.06-.26h2.51c.22,0,.39-.06.51-.17s.21-.26.24-.43l.17-.79c.04-.19.03-.33-.04-.43s-.19-.14-.37-.14h-1.96c-.19,0-.34.03-.44.09-.1.06-.16.16-.19.3v.06c-.04.13-.02.24.05.31.07.08.19.12.38.12h2.6l-.06.26h-2.74c-.21,0-.37-.06-.47-.18s-.13-.27-.09-.46v-.04c.06-.24.17-.41.34-.54.17-.12.37-.18.6-.18h2.1c.23,0,.41.07.52.2Z"/><path class="cls-5" d="m64.59,15.28h-2.93l.06-.26,3.23-1.67h.35l-.35,1.66h.57l-.06.27h-.57l-.12.56h-.29l.12-.56Zm-2.48-.27h2.54l.29-1.36h-.04l-2.78,1.44v-.08Z"/><path class="cls-5" d="m66.89,13.61h-.69l.17-.25h.84l-.53,2.49h-.27l.48-2.23Z"/><path class="cls-5" d="m67.62,15.64c-.11-.13-.14-.31-.09-.55l.2-.94c.03-.16.1-.3.2-.42.1-.12.22-.22.36-.28s.29-.1.45-.1h2.61l-.06.26h-2.51c-.22,0-.39.06-.51.17-.13.11-.21.26-.24.43l-.17.79c-.04.19-.03.33.04.43.07.09.19.14.37.14h1.96c.19,0,.34-.03.44-.09.1-.06.16-.16.19-.3v-.06c.04-.13.02-.24-.05-.31-.07-.08-.19-.12-.38-.12h-2.6l.06-.26h2.74c.21,0,.37.06.47.18s.13.27.09.46v.04c-.06.24-.17.41-.34.54s-.37.18-.6.18h-2.1c-.23,0-.41-.07-.52-.2Z"/><path class="cls-5" d="m1.6,3.26h.83l5.04,5.51h-.6l7.37-5.51h.85l-1.6,7.52h-.88l1.44-6.79.32.14-6.79,5.08h-.88L2.06,4.1l.25-.11-1.44,6.79h-.88L1.6,3.26Z"/><path class="cls-5" d="m16.34,10.63c-.24-.1-.41-.27-.53-.49-.12-.22-.14-.51-.07-.86l.1-.43c.06-.28.18-.54.37-.78.19-.24.43-.43.72-.58.29-.15.6-.22.92-.22h7.15l.11-.5c.08-.4.01-.71-.2-.92s-.52-.32-.93-.32h-7.04l.17-.8h7.18c.66,0,1.15.16,1.45.49.3.32.39.78.26,1.37l-.9,4.22h-.85l.12-.56c-.09.15-.26.28-.51.4-.25.11-.53.17-.85.17h-5.92c-.26,0-.51-.05-.75-.16Zm7.42-.85c.26-.13.46-.3.62-.49.16-.2.25-.39.29-.59l.13-.64h-6.92c-.31,0-.58.09-.8.26s-.36.39-.42.64l-.02.16c-.06.28-.01.49.15.64.16.15.38.22.65.22h5.46c.32,0,.61-.07.86-.2Z"/><path class="cls-5" d="m28.79,3.02l.91-.26-.53,2.51.02-.02c.22-.2.46-.34.7-.43.24-.09.51-.13.8-.13h5.12c.69,0,1.19.19,1.51.57s.41.91.26,1.6l-.84,3.94h-.86l.8-3.78c.1-.49.05-.86-.16-1.12-.21-.26-.56-.39-1.06-.39h-4.82c-.5,0-.92.14-1.24.42-.32.28-.53.64-.62,1.09l-.8,3.78h-.86l1.66-7.76Z"/><path class="cls-5" d="m39.49,10.63c-.24-.1-.41-.27-.53-.49-.12-.22-.14-.51-.07-.86l.1-.43c.06-.28.18-.54.37-.78.19-.24.43-.43.72-.58.29-.15.6-.22.92-.22h7.15l.11-.5c.08-.4.01-.71-.2-.92s-.52-.32-.93-.32h-7.04l.17-.8h7.18c.66,0,1.15.16,1.45.49.3.32.39.78.26,1.37l-.9,4.22h-.85l.12-.56c-.09.15-.26.28-.51.4-.25.11-.53.17-.85.17h-5.92c-.26,0-.51-.05-.75-.16Zm7.42-.85c.26-.13.46-.3.62-.49.16-.2.25-.39.29-.59l.13-.64h-6.92c-.31,0-.58.09-.8.26s-.36.39-.42.64l-.02.16c-.06.28-.01.49.15.64.16.15.38.22.65.22h5.46c.32,0,.61-.07.86-.2Z"/><path class="cls-3" d="m52.09,1.67h8.95c.35,0,.67.09.95.28.28.19.49.44.62.76.13.32.16.65.08,1.01l-.05.2c-.09.42-.26.79-.52,1.12-.26.33-.58.59-.95.77-.37.19-.76.28-1.17.28h-7.92l-.66,3.1h-.92l1.6-7.52Zm9.07,3.22c.31-.28.5-.6.58-.97l.02-.1c.06-.26.04-.49-.05-.7-.09-.21-.22-.38-.41-.49-.18-.12-.4-.17-.64-.17h-7.82l-.6,2.84h7.82c.42,0,.78-.14,1.09-.41Zm-2.51.85l1.06-.06,2.02,3.52h-1.09l-1.98-3.46Z"/><path class="cls-4" d="m63.71,10.3c-.24-.1-.41-.27-.53-.49-.12-.22-.14-.51-.07-.86l.1-.43c.06-.28.18-.54.37-.78.19-.24.43-.43.72-.58.29-.15.6-.22.92-.22h7.15l.11-.5c.08-.4.01-.71-.2-.92s-.52-.32-.93-.32h-7.04l.17-.8h7.18c.66,0,1.15.16,1.45.49.3.32.39.78.26,1.37l-.9,4.22h-.85l.12-.56c-.09.15-.26.28-.51.4-.25.11-.53.17-.85.17h-5.92c-.26,0-.51-.05-.75-.16Zm7.42-.85c.26-.13.46-.3.62-.49.16-.2.25-.39.29-.59l.13-.64h-6.92c-.31,0-.58.09-.8.26s-.36.39-.42.64l-.02.16c-.06.28-.01.49.15.64.16.15.38.22.65.22h5.46c.32,0,.61-.07.86-.2Z"/><path class="cls-1" d="m75.12,5.95h.87l-.12.55.12-.11c.14-.11.29-.2.44-.28.15-.07.3-.12.46-.16.16-.03.33-.05.5-.05h5.12c.69,0,1.19.19,1.51.57s.41.91.27,1.6l-.84,3.94h-.86l.8-3.78c.1-.49.05-.86-.16-1.12-.21-.26-.56-.39-1.06-.39h-4.82c-.5,0-.92.14-1.24.42-.32.28-.53.64-.62,1.09l-.8,3.78h-.86l1.29-6.07Z"/><path class="cls-2" d="m86.67,5.36l.92-.26-1.7,8.03h-.88l1.66-7.76Zm.11,4.67l6.22-2.99h1.73l-6.32,3.04,5.21,3.05h-1.54l-5.29-3.1Z"/><path class="cls-3" d="m115.47,3.1c1.1,2.76.26,5.68-7.17,8.64-7.43,2.96-10.05,1.42-11.15-1.34-.11-.28-.2-.57-.25-.86-.47-2.55,1.41-5.38,7.42-7.78,6.7-2.67,10.05-1.42,11.15,1.34Z"/><circle class="cls-8" cx="100.6" cy="8.26" r="1.5"/><circle class="cls-8" cx="104.68" cy="9.65" r="1.28"/><circle class="cls-8" cx="108.09" cy="3.75" r="1.7"/><circle class="cls-8" cx="111.92" cy="6.91" r="1.7"/><polygon class="cls-6" points="117.15 1.43 114.35 1.24 114.3 1.95 116.61 2.11 115.17 3.93 115.73 4.38 117.48 2.17 118.02 1.49 117.15 1.43"/><rect class="cls-7" x="98.9" y="6.39" width="14.43" height=".72" transform="translate(69.46 -93.07) rotate(66.2)"/><polygon class="cls-7" points="109.71 13.89 109.9 11.09 109.19 11.04 109.03 13.35 107.21 11.91 106.77 12.47 108.97 14.22 109.65 14.76 109.71 13.89"/><path class="cls-3" d="m98.56,11.65c-1.01-.06-2.48-.16-3.31.22.02-.05-.02-.06.03.03.08.14.29.34.49.5.49.41,1.54.88,1.68,1.8,0,1.53-2.01,1.13-2.81.56-1.13-.45-2.44-.22-3.72-.28-1.19-.02-4.14-.03-5.28-.05-.61,0-1.51.1-1.85-.54-.19-.29-.3-.57-.42-.62-2.76-.1-6.72-.01-9.53-.05-.33,0-.74.04-1.01-.24-.47-.51-.3-1.03-1.05-1-1.93-.04-7.85.1-9.74-.05-.37-.08-.67-.43-.79-.69-.15-.29-.23-.43-.41-.43-3.39-.05-7.16-.07-10.53-.16,0,0,0-.2,0-.2,3.38-.09,7.17-.11,10.57-.15.39-.01.69.4.82.69.27.58.72.46,1.28.47.47,0,7.24,0,7.91,0,0,0,.88,0,.88,0,.3-.02.76.09.98.42.41.63.25.89,1.08.82,2.73,0,6.52,0,9.23-.01.12,0,.35-.02.56.1.62.39.45,1.02,1.14,1.05,0,0,.87,0,.87,0,1.13,0,4.1-.04,5.27-.05,1.17.02,2.35-.15,3.61.13.63.15,1.48.84,2.09.45-.1-.54-.82-.77-1.39-1.24-.73-.49-1.39-1.56-.31-2.12,1.31-.51,2.42-.37,3.73-.34,0,0-.08,1-.08,1h0Z"/><rect class="cls-6" x="95.82" y="6.14" width="21.71" height=".72" transform="translate(6.45 43.61) rotate(-23.8)"/></g></svg>