<?xml version="1.0" encoding="UTF-8"?><svg id="_レイヤー_2" xmlns="http://www.w3.org/2000/svg" viewBox="0 0 235.47 43.03"><defs><style>.cls-1{fill:#fff;}.cls-2{fill:#91cda6;}.cls-3{fill:#8f75b3;}.cls-4{fill:#b9d779;}.cls-5{fill:#c9dc60;}.cls-6{fill:#231815;}.cls-7{fill:#895986;}.cls-8{fill:#54c3f1;}.cls-9{fill:none;stroke:#f4f080;stroke-miterlimit:10;stroke-width:1.28px;}</style></defs><g id="_レイヤー_1-2"><rect class="cls-1" width="235.47" height="43.03"/><path class="cls-6" d="m18.88,30.67h-1.18l.3-.43h1.44l-.9,4.25h-.47l.81-3.82Z"/><path class="cls-6" d="m20.44,34.31c-.2-.11-.34-.27-.42-.47-.09-.2-.1-.43-.04-.7l.33-1.54c.06-.28.17-.52.34-.72s.37-.37.61-.48c.24-.11.49-.17.77-.17h3.38c.26,0,.49.06.68.17.19.11.33.27.41.48.08.21.09.45.03.73l-.33,1.54c-.06.27-.17.51-.34.71s-.37.36-.61.46c-.24.11-.5.16-.77.16h-3.35c-.26,0-.49-.06-.69-.17Zm4.85-.55c.21-.18.35-.43.41-.77l.28-1.29c.07-.33.03-.58-.11-.76-.14-.18-.39-.27-.75-.27h-3.03c-.37,0-.66.1-.88.29-.21.2-.35.44-.42.74l-.28,1.29c-.07.32-.03.57.13.76.15.18.38.27.68.27h3.14c.34,0,.62-.09.83-.26Z"/><path class="cls-6" d="m27.15,34.03h.75l-.09.45h-.75l.09-.45Z"/><path class="cls-6" d="m29.05,34.03h4.64c.28,0,.51-.06.72-.18.2-.12.33-.29.37-.49l.03-.12c.05-.26,0-.45-.14-.56s-.36-.16-.66-.16h-4.62l.49-2.3h5.85l-.1.45h-5.33l-.3,1.4h4.35c.2,0,.39.04.55.14s.29.22.37.39c.08.17.09.37.04.6l-.03.17c-.04.2-.13.38-.28.55-.15.17-.32.3-.53.4-.21.1-.42.15-.64.15h-4.89l.1-.45Z"/><path class="cls-6" d="m36.69,32.81c.17-.16.37-.25.6-.29l4.57-.7c.13-.02.25-.08.36-.17.11-.09.18-.2.22-.33,0,0,0,0,0-.01,0,0,0,0,0,0l.02-.1c.04-.16,0-.29-.08-.39s-.22-.14-.4-.14h-4.74l.09-.45h4.91c.15,0,.29.04.42.11s.23.17.29.3.08.28.04.46l-.06.28c-.04.18-.12.34-.25.5-.13.16-.28.26-.46.32-.04,0-.08.02-.13.03l-4.64.71c-.18.03-.33.1-.44.21-.11.12-.18.23-.2.35l-.12.54h5.55l-.09.45h-6.03l.24-1.12c.05-.21.15-.39.32-.55Z"/><path class="cls-6" d="m43.93,34.34c-.14-.09-.25-.22-.31-.38s-.08-.33-.04-.51l.03-.14c.04-.18.12-.35.24-.5s.26-.27.41-.37c.15-.09.28-.15.4-.16v.06c-.13-.01-.24-.06-.34-.15-.1-.09-.17-.2-.21-.34-.04-.14-.05-.29-.01-.46l.02-.12c.04-.18.13-.35.26-.51.14-.16.3-.29.49-.39.19-.1.39-.15.6-.15h3.81c.2,0,.38.05.54.15.15.1.26.23.33.39.07.16.08.33.04.51l-.02.12c-.04.17-.11.32-.21.46-.1.14-.22.25-.36.34-.13.09-.26.14-.39.15l.02-.06c.11,0,.22.06.33.16.11.09.19.22.25.37.05.15.06.32.03.5l-.03.14c-.04.19-.12.36-.24.51s-.27.28-.45.38-.38.14-.58.14h-4.08c-.19,0-.36-.05-.5-.14Zm5.07-.49c.16-.12.26-.28.3-.47l.03-.12c.02-.12,0-.23-.06-.34-.06-.11-.15-.2-.26-.26-.11-.07-.23-.1-.36-.1h-3.54c-.14,0-.27.04-.41.1-.14.06-.26.15-.37.25-.1.11-.17.22-.19.34l-.03.12c-.04.19,0,.35.1.47.11.12.27.19.48.19h3.75c.21,0,.4-.06.56-.19Zm.33-1.92c.16-.12.26-.29.3-.5l.02-.09c.02-.11,0-.22-.04-.32s-.13-.18-.24-.24c-.11-.06-.23-.09-.36-.09h-3.46c-.13,0-.26.03-.39.09-.13.06-.24.14-.34.24-.1.1-.15.21-.18.32l-.02.09c-.03.12-.02.23.02.33s.11.19.21.25.22.09.36.09h3.54c.23,0,.42-.06.58-.18Z"/><path class="cls-6" d="m52.45,30.67h-1.18l.3-.43h1.44l-.9,4.25h-.47l.81-3.82Z"/><path class="cls-6" d="m57.33,29.74h.45l-4.56,5.31h-.44l4.55-5.31Z"/><path class="cls-6" d="m57.5,34.11l4.89-2.72v.12s-4.32,0-4.32,0l.1-.46h5.15l-.08.38-4.91,2.71v-.11s4.36,0,4.36,0l-.1.45h-5.17l.08-.37Z"/><path class="cls-6" d="m64.26,34.34c-.17-.09-.29-.22-.37-.4-.07-.18-.08-.39-.03-.64l.22-1.03c.08-.38.26-.68.54-.9.28-.22.61-.33,1.01-.33h2.91c.39,0,.68.11.86.32.19.21.24.51.16.9l-.15.71h-5.04l.09-.45h4.55l.03-.18c.06-.27.03-.48-.1-.63s-.32-.22-.6-.22h-2.74c-.29,0-.52.08-.69.24-.18.16-.29.37-.35.62l-.19.88c-.03.13-.02.25.02.37.04.12.12.22.23.3.11.08.26.12.43.12h3.98l-.1.45h-4.06c-.24,0-.45-.04-.62-.14Z"/><path class="cls-6" d="m70.96,31.05h.49l-.07.31.07-.06c.08-.06.16-.12.25-.16.08-.04.17-.07.26-.09.09-.02.18-.03.28-.03h2.89c.39,0,.67.11.85.32s.23.52.15.91l-.47,2.22h-.49l.45-2.13c.06-.28.03-.49-.09-.63s-.32-.22-.6-.22h-2.72c-.28,0-.52.08-.7.24s-.3.36-.35.62l-.45,2.13h-.49l.73-3.43Z"/><path class="cls-6" d="m77.18,34.17c-.19-.21-.25-.5-.18-.87l.22-1.03c.08-.38.26-.68.54-.9.28-.22.61-.33,1.01-.33h2.91c.38,0,.67.11.85.33.19.22.24.52.16.9l-.22,1.03c-.08.36-.26.64-.54.86-.28.21-.61.32-.97.32h-2.94c-.37,0-.65-.1-.84-.31Zm4.27-.27c.14-.08.26-.18.36-.3s.16-.24.18-.36l.19-.89c.06-.28.03-.49-.1-.63s-.32-.22-.6-.22h-2.74c-.29,0-.52.08-.69.23-.18.16-.29.36-.35.62l-.19.89c-.03.13-.02.25.02.37.04.12.12.22.23.3s.25.12.43.12h2.78c.17,0,.33-.04.47-.12Z"/><path class="cls-6" d="m83.73,34.17c-.19-.21-.25-.5-.18-.87l.22-1.04c.08-.38.26-.68.54-.9.28-.22.61-.33,1-.33h3.7l.18-.85.52-.16-.95,4.45h-.48l.08-.35c-.07.09-.19.17-.34.24-.15.07-.31.11-.47.11h-2.99c-.37,0-.65-.1-.84-.31Zm4.21-.26c.16-.08.3-.18.42-.32.12-.13.19-.27.22-.41l.34-1.69h-3.63c-.29,0-.52.08-.69.23-.18.16-.29.37-.35.63l-.19.89c-.03.13-.02.25.02.37.04.12.12.22.23.3s.25.12.43.12h2.73c.14,0,.3-.04.46-.12Z"/><path class="cls-6" d="m90.35,34.17c-.19-.21-.25-.5-.18-.87l.22-1.03c.08-.38.26-.68.54-.9.28-.22.61-.33,1.01-.33h2.91c.38,0,.67.11.85.33.19.22.24.52.16.9l-.22,1.03c-.08.36-.26.64-.54.86-.28.21-.61.32-.97.32h-2.94c-.37,0-.65-.1-.84-.31Zm4.27-.27c.14-.08.26-.18.36-.3s.16-.24.18-.36l.19-.89c.06-.28.03-.49-.1-.63s-.32-.22-.6-.22h-2.74c-.29,0-.52.08-.69.23-.18.16-.29.36-.35.62l-.19.89c-.03.13-.02.25.02.37.04.12.12.22.23.3s.25.12.43.12h2.78c.17,0,.33-.04.47-.12Z"/><path class="cls-6" d="m96.64,34.03h.75l-.09.45h-.75l.09-.45Z"/><path class="cls-6" d="m99.01,34.34c-.14-.09-.25-.22-.31-.38s-.08-.33-.04-.51l.03-.14c.04-.18.12-.35.24-.5s.26-.27.41-.37c.15-.09.28-.15.4-.16v.06c-.13-.01-.24-.06-.34-.15-.1-.09-.17-.2-.21-.34-.04-.14-.05-.29-.01-.46l.02-.12c.04-.18.13-.35.26-.51.14-.16.3-.29.49-.39.19-.1.39-.15.6-.15h3.81c.2,0,.38.05.54.15.15.1.26.23.33.39.07.16.08.33.04.51l-.02.12c-.04.17-.11.32-.21.46-.1.14-.22.25-.36.34-.13.09-.26.14-.39.15l.02-.06c.11,0,.22.06.33.16.11.09.19.22.25.37.05.15.06.32.03.5l-.03.14c-.04.19-.12.36-.24.51s-.27.28-.45.38-.38.14-.58.14h-4.08c-.19,0-.36-.05-.5-.14Zm5.07-.49c.16-.12.26-.28.3-.47l.03-.12c.02-.12,0-.23-.06-.34-.06-.11-.15-.2-.26-.26-.11-.07-.23-.1-.36-.1h-3.54c-.14,0-.27.04-.41.1-.14.06-.26.15-.37.25-.1.11-.17.22-.19.34l-.03.12c-.04.19,0,.35.1.47.11.12.27.19.48.19h3.75c.21,0,.4-.06.56-.19Zm.33-1.92c.16-.12.26-.29.3-.5l.02-.09c.02-.11,0-.22-.04-.32s-.13-.18-.24-.24c-.11-.06-.23-.09-.36-.09h-3.46c-.13,0-.26.03-.39.09-.13.06-.24.14-.34.24-.1.1-.15.21-.18.32l-.02.09c-.03.12-.02.23.02.33s.11.19.21.25.22.09.36.09h3.54c.23,0,.42-.06.58-.18Z"/><path class="cls-6" d="m107.53,30.67h-1.18l.3-.43h1.44l-.9,4.25h-.47l.81-3.82Z"/><path class="cls-6" d="m115.03,30.57c.19.22.25.54.16.94l-.34,1.6c-.06.28-.17.52-.34.73s-.37.37-.61.48c-.24.11-.49.17-.77.17h-4.45l.1-.45h4.28c.37,0,.66-.1.88-.29.21-.2.35-.44.42-.74l.29-1.35c.07-.33.05-.57-.07-.73s-.33-.24-.63-.24h-3.34c-.33,0-.58.05-.75.16-.17.1-.28.28-.33.52l-.02.09c-.04.23,0,.4.11.54s.33.2.64.2h4.44l-.09.45h-4.68c-.37,0-.63-.1-.81-.3-.17-.2-.22-.47-.16-.79v-.07c.1-.4.29-.71.57-.92s.63-.31,1.02-.31h3.58c.4,0,.69.11.88.34Z"/><path class="cls-6" d="m122.33,30.57c.19.22.25.54.16.94l-.34,1.6c-.06.28-.17.52-.34.73s-.37.37-.61.48c-.24.11-.49.17-.77.17h-4.45l.1-.45h4.28c.37,0,.66-.1.88-.29.21-.2.35-.44.42-.74l.29-1.35c.07-.33.05-.57-.07-.73s-.33-.24-.63-.24h-3.34c-.33,0-.58.05-.75.16-.17.1-.28.28-.33.52l-.02.09c-.04.23,0,.4.11.54s.33.2.64.2h4.44l-.09.45h-4.68c-.37,0-.63-.1-.81-.3-.17-.2-.22-.47-.16-.79v-.07c.1-.4.29-.71.57-.92s.63-.31,1.02-.31h3.58c.4,0,.69.11.88.34Z"/><path class="cls-6" d="m127.94,33.53h-5l.1-.45,5.52-2.85h.59l-.6,2.83h.97l-.1.47h-.97l-.2.95h-.5l.2-.95Zm-4.23-.47h4.33l.49-2.32h-.07l-4.74,2.46v-.14Z"/><path class="cls-6" d="m131.88,30.67h-1.18l.3-.43h1.44l-.9,4.25h-.47l.81-3.82Z"/><path class="cls-6" d="m133.12,34.14c-.19-.22-.25-.54-.16-.94l.34-1.6c.06-.28.17-.52.34-.72s.37-.37.61-.48c.24-.11.49-.17.77-.17h4.45l-.09.45h-4.28c-.37,0-.66.1-.88.29-.21.2-.35.44-.42.74l-.29,1.35c-.07.33-.05.57.07.73.12.16.33.24.63.24h3.34c.33,0,.58-.05.75-.16.17-.1.28-.28.33-.51l.02-.09c.04-.23,0-.4-.11-.54-.12-.13-.33-.2-.64-.2h-4.44l.09-.45h4.68c.37,0,.63.1.81.3.17.2.22.47.16.79v.07c-.1.4-.29.71-.57.92s-.63.31-1.02.31h-3.58c-.4,0-.69-.11-.88-.34Z"/><path class="cls-6" d="m20.38,13h1.41l8.61,9.41h-1.02l12.58-9.41h1.46l-2.73,12.85h-1.5l2.46-11.6.55.25-11.6,8.67h-1.5l-7.93-8.73.43-.18-2.46,11.6h-1.5l2.73-12.85Z"/><path class="cls-6" d="m45.55,25.58c-.4-.18-.71-.46-.91-.84-.21-.38-.25-.87-.12-1.48l.16-.74c.1-.48.31-.92.64-1.33.33-.41.74-.74,1.23-.99.49-.25,1.02-.38,1.58-.38h12.21l.18-.86c.14-.68.02-1.21-.34-1.58-.36-.37-.89-.55-1.59-.55h-12.03l.29-1.37h12.25c1.13,0,1.96.28,2.48.83.52.55.67,1.33.45,2.35l-1.54,7.21h-1.46l.21-.96c-.15.26-.44.49-.87.68-.43.19-.91.29-1.44.29h-10.1c-.45,0-.88-.09-1.28-.27Zm12.67-1.44c.44-.23.79-.5,1.06-.84.27-.33.43-.67.5-1.01l.23-1.09h-11.82c-.53,0-.99.15-1.37.44-.38.29-.62.66-.72,1.1l-.04.27c-.11.48-.02.84.26,1.1s.65.38,1.12.38h9.32c.55,0,1.04-.11,1.48-.34Z"/><path class="cls-6" d="m66.81,12.59l1.56-.45-.9,4.28.04-.04c.38-.34.78-.59,1.2-.74.42-.15.87-.23,1.36-.23h8.75c1.17,0,2.04.33,2.58.97.55.65.7,1.56.45,2.74l-1.43,6.72h-1.48l1.37-6.45c.18-.83.09-1.47-.27-1.92-.36-.44-.96-.67-1.8-.67h-8.24c-.86,0-1.56.24-2.11.72-.55.48-.9,1.1-1.07,1.87l-1.37,6.45h-1.48l2.83-13.26Z"/><path class="cls-6" d="m85.07,25.58c-.4-.18-.71-.46-.91-.84-.21-.38-.25-.87-.12-1.48l.16-.74c.1-.48.31-.92.64-1.33.33-.41.74-.74,1.23-.99.49-.25,1.02-.38,1.58-.38h12.21l.18-.86c.14-.68.02-1.21-.34-1.58-.36-.37-.89-.55-1.59-.55h-12.03l.29-1.37h12.25c1.13,0,1.96.28,2.48.83.52.55.67,1.33.45,2.35l-1.54,7.21h-1.46l.21-.96c-.15.26-.44.49-.87.68-.43.19-.91.29-1.44.29h-10.1c-.45,0-.88-.09-1.28-.27Zm12.67-1.44c.44-.23.79-.5,1.06-.84.27-.33.43-.67.5-1.01l.23-1.09h-11.82c-.53,0-.99.15-1.37.44-.38.29-.62.66-.72,1.1l-.04.27c-.11.48-.02.84.26,1.1s.65.38,1.12.38h9.32c.55,0,1.04-.11,1.48-.34Z"/><path class="cls-4" d="m106.6,10.29h15.29c.6,0,1.14.16,1.62.48.48.32.83.75,1.06,1.29.22.54.27,1.12.13,1.73l-.08.35c-.15.71-.45,1.35-.89,1.91-.44.56-.98,1-1.62,1.32-.64.32-1.3.48-2,.48h-13.52l-1.13,5.29h-1.58l2.73-12.85Zm15.48,5.5c.53-.47.86-1.02.99-1.65l.04-.16c.1-.44.07-.84-.08-1.2-.15-.36-.38-.64-.7-.84-.31-.2-.68-.3-1.09-.3h-13.36l-1.02,4.86h13.36c.71,0,1.33-.24,1.85-.71Zm-4.29,1.44l1.8-.1,3.44,6h-1.86l-3.38-5.9Z"/><path class="cls-5" d="m126.44,25.03c-.4-.18-.71-.46-.91-.84-.21-.38-.25-.87-.12-1.48l.16-.74c.1-.48.31-.92.64-1.33.33-.41.74-.74,1.23-.99.49-.25,1.02-.38,1.58-.38h12.21l.18-.86c.14-.68.02-1.21-.34-1.58-.36-.37-.89-.55-1.59-.55h-12.03l.29-1.37h12.25c1.13,0,1.96.28,2.48.83.52.55.67,1.33.45,2.35l-1.54,7.21h-1.46l.21-.96c-.15.26-.44.49-.87.68-.43.19-.91.29-1.44.29h-10.1c-.45,0-.88-.09-1.28-.27Zm12.67-1.44c.44-.23.79-.5,1.06-.84.27-.33.43-.67.5-1.01l.23-1.09h-11.82c-.53,0-.99.15-1.37.44-.38.29-.62.66-.72,1.1l-.04.27c-.11.48-.02.84.26,1.1s.65.38,1.12.38h9.32c.55,0,1.04-.11,1.48-.34Z"/><path class="cls-2" d="m145.92,17.6h1.48l-.21.94.21-.18c.25-.19.5-.35.75-.47s.52-.21.79-.27c.27-.05.56-.08.86-.08h8.75c1.17,0,2.04.33,2.58.97.55.65.7,1.56.45,2.74l-1.43,6.72h-1.48l1.37-6.45c.18-.83.09-1.47-.27-1.92-.36-.44-.96-.67-1.8-.67h-8.24c-.86,0-1.56.24-2.11.72-.55.48-.9,1.1-1.07,1.87l-1.37,6.45h-1.48l2.21-10.37Z"/><path class="cls-3" d="m165.65,16.58l1.58-.45-2.91,13.71h-1.5l2.83-13.26Zm.18,7.97l10.61-5.1h2.95l-10.8,5.18,8.89,5.2h-2.62l-9.04-5.29Z"/><path class="cls-4" d="m214.82,12.73c1.88,4.71.44,9.7-12.24,14.76-12.68,5.05-17.16,2.42-19.03-2.29-.19-.48-.34-.98-.43-1.48-.8-4.35,2.41-9.19,12.67-13.28,11.44-4.56,17.16-2.42,19.03,2.29Z"/><circle class="cls-9" cx="189.43" cy="21.54" r="2.57"/><circle class="cls-9" cx="196.4" cy="23.91" r="2.19"/><circle class="cls-9" cx="202.22" cy="13.84" r="2.91"/><circle class="cls-9" cx="208.76" cy="19.22" r="2.91"/><polygon class="cls-7" points="217.69 9.88 212.9 9.55 212.81 10.77 216.76 11.04 214.3 14.14 215.26 14.9 218.24 11.15 219.17 9.98 217.69 9.88"/><rect class="cls-8" x="186.52" y="18.34" width="24.64" height="1.22" transform="translate(135.94 -170.63) rotate(66.2)"/><polygon class="cls-8" points="204.98 31.15 205.31 26.37 204.09 26.28 203.82 30.23 200.72 27.77 199.96 28.73 203.72 31.71 204.88 32.63 204.98 31.15"/><path class="cls-4" d="m185.94,27.32c-1.72-.11-4.23-.28-5.64.37.03-.08-.04-.1.06.05.13.25.49.57.83.85.84.7,2.62,1.51,2.87,3.07.01,2.61-3.43,1.92-4.79.95-1.92-.76-4.16-.37-6.36-.48-2.03-.03-7.07-.06-9.02-.08-1.03-.02-2.57.16-3.16-.92-.32-.49-.51-.97-.72-1.06-4.72-.17-11.48-.02-16.27-.08-.57,0-1.26.07-1.73-.41-.8-.88-.51-1.76-1.79-1.71-3.3-.07-13.4.16-16.63-.08-.64-.13-1.14-.73-1.35-1.19-.26-.5-.39-.74-.7-.73-5.79-.09-12.22-.13-17.99-.27,0,0,0-.34,0-.34,5.77-.15,12.24-.19,18.05-.25.67-.02,1.18.68,1.4,1.18.46.99,1.22.79,2.19.81.8,0,12.35,0,13.51,0,0,0,1.5,0,1.5,0,.52-.03,1.29.15,1.68.71.69,1.08.43,1.52,1.84,1.4,4.66,0,11.13-.02,15.77-.02.2,0,.6-.03.96.16,1.06.67.78,1.75,1.95,1.79,0,0,1.48,0,1.48,0,1.93-.01,7.01-.07,9-.08,1.99.04,4.01-.26,6.16.22,1.07.26,2.52,1.43,3.57.76-.18-.92-1.4-1.31-2.38-2.11-1.25-.83-2.38-2.66-.52-3.62,2.23-.87,4.14-.63,6.38-.58,0,0-.14,1.7-.14,1.7h0Z"/><rect class="cls-7" x="181.27" y="17.91" width="37.07" height="1.22" transform="translate(9.52 82.21) rotate(-23.8)"/></g></svg>