<?xml version="1.0" encoding="UTF-8"?><svg id="_レイヤー_2" xmlns="http://www.w3.org/2000/svg" xmlns:xlink="http://www.w3.org/1999/xlink" viewBox="0 0 147 127.3"><defs><style>.cls-1,.cls-2,.cls-3,.cls-4{fill:none;}.cls-5{fill:#fff;}.cls-6{fill:#91cda6;}.cls-7{fill:#8f75b3;}.cls-8{fill:#b9d779;}.cls-9{fill:#c9dc60;}.cls-10{fill:#231815;}.cls-11{fill:#895986;}.cls-12{fill:#54c3f1;}.cls-13{fill:url(#_新規パターンスウォッチ_3);}.cls-2{stroke:#f4f080;stroke-width:.71px;}.cls-2,.cls-3,.cls-4{stroke-miterlimit:10;}.cls-3{stroke:#efefef;}.cls-3,.cls-4{stroke-width:.75px;}.cls-4{stroke:#e8be18;}</style><pattern id="_新規パターンスウォッチ_3" x="0" y="0" width="15.88" height="27.51" patternTransform="translate(-587.68 -604.88)" patternUnits="userSpaceOnUse" viewBox="0 0 15.88 27.51"><rect class="cls-1" width="15.88" height="27.51"/><polygon class="cls-3" points="19.64 21.01 12.13 21.01 8.37 27.51 12.13 34.01 19.64 34.01 23.39 27.51 19.64 21.01"/><polygon class="cls-3" points="3.75 21.01 -3.75 21.01 -7.51 27.51 -3.75 34.01 3.75 34.01 7.51 27.51 3.75 21.01"/><polygon class="cls-3" points="11.7 7.25 4.19 7.25 .43 13.76 4.19 20.26 11.7 20.26 15.45 13.76 11.7 7.25"/><polygon class="cls-3" points="19.64 -6.5 12.13 -6.5 8.37 0 12.13 6.5 19.64 6.5 23.39 0 19.64 -6.5"/><polygon class="cls-3" points="3.75 -6.5 -3.75 -6.5 -7.51 0 -3.75 6.5 3.75 6.5 7.51 0 3.75 -6.5"/></pattern></defs><g id="_レイヤー_1-2"><polygon class="cls-5" points="36.75 127.3 0 63.65 36.75 0 110.25 0 147 63.65 110.25 127.3 36.75 127.3"/><polygon class="cls-13" points="108.61 2.83 38.39 2.83 3.27 63.65 38.39 124.47 108.61 124.47 143.72 63.65 108.61 2.83"/><path class="cls-10" d="m19.82,69.05h-.66l.17-.24h.8l-.5,2.36h-.26l.45-2.12Z"/><path class="cls-10" d="m20.68,71.08c-.11-.06-.19-.15-.24-.26-.05-.11-.05-.24-.02-.39l.18-.85c.03-.15.1-.29.19-.4.09-.12.21-.21.34-.27s.27-.09.43-.09h1.88c.15,0,.27.03.38.09s.18.15.23.27c.05.12.05.25.02.41l-.18.85c-.03.15-.1.28-.19.39-.09.11-.21.2-.34.26-.13.06-.28.09-.43.09h-1.86c-.15,0-.27-.03-.38-.09Zm2.69-.3c.12-.1.19-.24.23-.43l.15-.71c.04-.18.02-.32-.06-.42s-.22-.15-.42-.15h-1.68c-.21,0-.37.05-.49.16-.12.11-.2.25-.23.41l-.15.71c-.04.18-.01.32.07.42s.21.15.38.15h1.74c.19,0,.34-.05.46-.15Z"/><path class="cls-10" d="m24.41,70.92h.41l-.05.25h-.41l.05-.25Z"/><path class="cls-10" d="m25.47,70.92h2.58c.15,0,.29-.03.4-.1.11-.07.18-.16.21-.27v-.06c.04-.15.02-.25-.06-.31s-.2-.09-.37-.09h-2.56l.27-1.28h3.25l-.05.25h-2.96l-.17.78h2.42c.11,0,.21.03.31.08s.16.12.2.22c.04.09.05.21.02.33l-.02.09c-.02.11-.07.21-.16.31-.08.09-.18.17-.3.22-.12.06-.23.08-.35.08h-2.71l.05-.25Z"/><path class="cls-10" d="m29.71,70.24c.09-.09.2-.14.33-.16l2.54-.39c.07-.01.14-.04.2-.09.06-.05.1-.11.12-.18,0,0,0,0,0,0,0,0,0,0,0,0v-.06c.03-.09.02-.16-.03-.21s-.12-.08-.22-.08h-2.64l.05-.25h2.73c.08,0,.16.02.23.06.07.04.13.09.16.17.04.07.04.16.02.26l-.03.15c-.02.1-.07.19-.14.28-.07.09-.16.15-.25.18-.02,0-.05.01-.07.02l-2.58.4c-.1.01-.18.05-.24.12-.06.06-.1.13-.11.19l-.06.3h3.08l-.05.25h-3.35l.13-.62c.03-.12.08-.22.18-.31Z"/><path class="cls-10" d="m33.74,71.09c-.08-.05-.14-.12-.17-.21s-.04-.18-.02-.28l.02-.08c.02-.1.06-.19.13-.28.07-.08.14-.15.23-.21s.16-.08.22-.09v.03c-.07,0-.13-.04-.19-.08-.05-.05-.09-.11-.12-.19-.02-.08-.03-.16,0-.26v-.06c.03-.1.08-.2.16-.29.08-.09.17-.16.27-.22.11-.05.22-.08.33-.08h2.12c.11,0,.21.03.3.08.08.05.15.13.18.22.04.09.04.19.02.29v.06c-.03.09-.07.18-.13.26-.06.08-.12.14-.2.19-.07.05-.15.08-.22.08v-.03c.07,0,.13.03.19.09s.11.12.14.21c.03.08.04.18.01.28l-.02.08c-.02.1-.07.2-.14.28-.07.09-.15.16-.25.21s-.21.08-.32.08h-2.27c-.11,0-.2-.03-.28-.08Zm2.81-.27c.09-.07.14-.16.17-.26v-.07c.03-.07.02-.13-.02-.19-.03-.06-.08-.11-.14-.14-.06-.04-.13-.05-.2-.05h-1.96c-.08,0-.15.02-.23.06-.08.04-.15.08-.2.14-.06.06-.09.12-.11.19l-.02.07c-.02.11,0,.19.05.26.06.07.15.1.27.1h2.08c.12,0,.22-.04.31-.1Zm.18-1.07c.09-.07.14-.16.17-.27v-.05c.02-.06.02-.12-.01-.18-.03-.06-.07-.1-.13-.14s-.13-.05-.2-.05h-1.92c-.07,0-.15.02-.22.05s-.14.08-.19.14-.08.12-.1.18v.05c-.03.07-.02.13,0,.18s.06.1.12.14c.06.04.12.05.2.05h1.96c.13,0,.23-.03.32-.1Z"/><path class="cls-10" d="m38.47,69.05h-.66l.17-.24h.8l-.5,2.36h-.26l.45-2.12Z"/><path class="cls-10" d="m41.18,68.54h.25l-2.53,2.95h-.24l2.53-2.95Z"/><path class="cls-10" d="m41.27,70.97l2.71-1.51v.06s-2.4,0-2.4,0l.06-.26h2.86l-.05.21-2.73,1.51v-.06s2.42,0,2.42,0l-.05.25h-2.87l.04-.21Z"/><path class="cls-10" d="m45.03,71.1c-.09-.05-.16-.12-.21-.22-.04-.1-.05-.22-.02-.36l.12-.57c.05-.21.15-.38.3-.5s.34-.18.56-.18h1.62c.22,0,.38.06.48.18.1.12.13.28.09.5l-.08.4h-2.8l.05-.25h2.53l.02-.1c.03-.15.02-.27-.05-.35-.07-.08-.18-.12-.33-.12h-1.52c-.16,0-.29.04-.39.13-.1.09-.16.2-.19.35l-.11.49c-.01.07-.01.14.01.21.02.07.06.12.13.17.06.04.14.06.24.06h2.21l-.05.25h-2.26c-.13,0-.25-.03-.34-.08Z"/><path class="cls-10" d="m48.75,69.27h.27l-.04.17.04-.03s.09-.06.14-.09c.05-.02.09-.04.15-.05.05,0,.1-.02.16-.02h1.61c.22,0,.37.06.47.18.1.12.13.29.08.5l-.26,1.24h-.27l.25-1.19c.03-.15.02-.27-.05-.35-.06-.08-.18-.12-.33-.12h-1.51c-.16,0-.29.04-.39.13-.1.09-.17.2-.2.34l-.25,1.19h-.27l.41-1.91Z"/><path class="cls-10" d="m52.2,71c-.11-.11-.14-.28-.1-.48l.12-.57c.05-.21.15-.38.3-.5s.34-.18.56-.18h1.62c.21,0,.37.06.47.18.1.12.13.29.09.5l-.12.57c-.04.2-.14.36-.3.48-.16.12-.34.18-.54.18h-1.63c-.2,0-.36-.06-.47-.17Zm2.37-.15c.08-.04.15-.1.2-.17.05-.07.09-.13.1-.2l.11-.49c.03-.15.02-.27-.05-.35-.07-.08-.18-.12-.33-.12h-1.52c-.16,0-.29.04-.39.13-.1.09-.16.2-.19.34l-.11.49c-.01.07-.01.14.01.21.02.07.07.12.13.17.06.04.14.07.24.07h1.54c.1,0,.18-.02.26-.07Z"/><path class="cls-10" d="m55.84,71c-.11-.11-.14-.28-.1-.48l.12-.58c.04-.21.14-.38.3-.5.15-.12.34-.18.56-.18h2.06l.1-.47.29-.09-.53,2.47h-.27l.04-.19s-.1.09-.19.13c-.08.04-.17.06-.26.06h-1.66c-.2,0-.36-.06-.47-.17Zm2.34-.15c.09-.04.17-.1.24-.17s.11-.15.12-.23l.19-.94h-2.01c-.16,0-.29.04-.38.13-.1.09-.16.2-.2.35l-.11.5c-.01.07-.01.14.01.21.02.07.07.12.13.17.06.04.14.07.24.07h1.52c.08,0,.17-.02.26-.07Z"/><path class="cls-10" d="m59.52,71c-.11-.11-.14-.28-.1-.48l.12-.57c.05-.21.15-.38.3-.5s.34-.18.56-.18h1.62c.21,0,.37.06.47.18.1.12.13.29.09.5l-.12.57c-.04.2-.14.36-.3.48-.16.12-.34.18-.54.18h-1.63c-.2,0-.36-.06-.47-.17Zm2.37-.15c.08-.04.15-.1.2-.17.05-.07.09-.13.1-.2l.11-.49c.03-.15.02-.27-.05-.35-.07-.08-.18-.12-.33-.12h-1.52c-.16,0-.29.04-.39.13-.1.09-.16.2-.19.34l-.11.49c-.01.07-.01.14.01.21.02.07.07.12.13.17.06.04.14.07.24.07h1.54c.1,0,.18-.02.26-.07Z"/><path class="cls-10" d="m63.02,70.92h.41l-.05.25h-.41l.05-.25Z"/><path class="cls-10" d="m64.33,71.09c-.08-.05-.14-.12-.17-.21s-.04-.18-.02-.28l.02-.08c.02-.1.06-.19.13-.28.07-.08.14-.15.23-.21s.16-.08.22-.09v.03c-.07,0-.13-.04-.19-.08-.05-.05-.09-.11-.12-.19-.02-.08-.03-.16,0-.26v-.06c.03-.1.08-.2.16-.29.08-.09.17-.16.27-.22.11-.05.22-.08.33-.08h2.12c.11,0,.21.03.3.08.08.05.15.13.18.22.04.09.04.19.02.29v.06c-.03.09-.07.18-.13.26-.06.08-.12.14-.2.19-.07.05-.15.08-.22.08v-.03c.07,0,.13.03.19.09s.11.12.14.21c.03.08.04.18.01.28l-.02.08c-.02.1-.07.2-.14.28-.07.09-.15.16-.25.21s-.21.08-.32.08h-2.27c-.11,0-.2-.03-.28-.08Zm2.81-.27c.09-.07.14-.16.17-.26v-.07c.03-.07.02-.13-.02-.19-.03-.06-.08-.11-.14-.14-.06-.04-.13-.05-.2-.05h-1.96c-.08,0-.15.02-.23.06-.08.04-.15.08-.2.14-.06.06-.09.12-.11.19l-.02.07c-.02.11,0,.19.05.26.06.07.15.1.27.1h2.08c.12,0,.22-.04.31-.1Zm.18-1.07c.09-.07.14-.16.17-.27v-.05c.02-.06.02-.12-.01-.18-.03-.06-.07-.1-.13-.14s-.13-.05-.2-.05h-1.92c-.07,0-.15.02-.22.05s-.14.08-.19.14-.08.12-.1.18v.05c-.03.07-.02.13,0,.18s.06.1.12.14c.06.04.12.05.2.05h1.96c.13,0,.23-.03.32-.1Z"/><path class="cls-10" d="m69.07,69.05h-.66l.17-.24h.8l-.5,2.36h-.26l.45-2.12Z"/><path class="cls-10" d="m73.23,69c.11.12.14.3.09.52l-.19.89c-.03.15-.09.29-.19.4-.09.12-.21.21-.34.27-.13.06-.28.09-.43.09h-2.47l.05-.25h2.38c.21,0,.37-.05.49-.16s.2-.25.23-.41l.16-.75c.04-.18.03-.32-.04-.4s-.18-.13-.35-.13h-1.86c-.18,0-.32.03-.41.09-.09.06-.15.15-.18.29v.05c-.04.12-.02.22.05.3.07.07.18.11.36.11h2.47l-.05.25h-2.6c-.2,0-.35-.06-.45-.17-.09-.11-.12-.26-.09-.44v-.04c.05-.22.16-.39.32-.51.16-.12.35-.17.57-.17h1.99c.22,0,.38.06.49.19Z"/><path class="cls-10" d="m77.29,69c.11.12.14.3.09.52l-.19.89c-.03.15-.09.29-.19.4-.09.12-.21.21-.34.27-.13.06-.28.09-.43.09h-2.47l.05-.25h2.38c.21,0,.37-.05.49-.16s.2-.25.23-.41l.16-.75c.04-.18.03-.32-.04-.4s-.18-.13-.35-.13h-1.86c-.18,0-.32.03-.41.09-.09.06-.15.15-.18.29v.05c-.04.12-.02.22.05.3.07.07.18.11.36.11h2.47l-.05.25h-2.6c-.2,0-.35-.06-.45-.17-.09-.11-.12-.26-.09-.44v-.04c.05-.22.16-.39.32-.51.16-.12.35-.17.57-.17h1.99c.22,0,.38.06.49.19Z"/><path class="cls-10" d="m80.4,70.65h-2.78l.05-.25,3.06-1.59h.33l-.33,1.57h.54l-.06.26h-.54l-.11.53h-.28l.11-.53Zm-2.35-.26h2.41l.27-1.29h-.04l-2.63,1.37v-.08Z"/><path class="cls-10" d="m82.59,69.05h-.66l.17-.24h.8l-.5,2.36h-.26l.45-2.12Z"/><path class="cls-10" d="m83.28,70.99c-.11-.12-.14-.3-.09-.52l.19-.89c.03-.15.1-.29.19-.4.09-.12.21-.21.34-.27s.27-.09.43-.09h2.47l-.05.25h-2.38c-.21,0-.37.05-.49.16-.12.11-.2.25-.23.41l-.16.75c-.04.18-.03.32.04.4.07.09.18.13.35.13h1.86c.18,0,.32-.03.41-.09s.15-.15.18-.29v-.05c.04-.13.02-.22-.05-.3-.07-.07-.18-.11-.36-.11h-2.47l.05-.25h2.6c.2,0,.35.06.45.17.1.11.12.26.09.44v.04c-.06.22-.16.39-.32.51-.16.12-.35.17-.57.17h-1.99c-.22,0-.38-.06-.49-.19Z"/><path class="cls-10" d="m20.65,59.24h.79l4.78,5.22h-.57l6.99-5.22h.81l-1.51,7.14h-.83l1.37-6.44.31.14-6.44,4.81h-.83l-4.41-4.85.24-.1-1.37,6.44h-.83l1.51-7.14Z"/><path class="cls-10" d="m34.64,66.23c-.22-.1-.39-.25-.51-.47-.11-.21-.14-.49-.07-.82l.09-.41c.05-.27.17-.51.35-.74.18-.23.41-.41.68-.55.27-.14.57-.21.88-.21h6.78l.1-.48c.08-.38.01-.67-.19-.88s-.5-.31-.88-.31h-6.68l.16-.76h6.81c.63,0,1.09.15,1.38.46.29.31.37.74.25,1.3l-.85,4.01h-.81l.11-.54c-.08.14-.25.27-.48.38-.24.11-.51.16-.8.16h-5.61c-.25,0-.49-.05-.71-.15Zm7.04-.8c.24-.13.44-.28.59-.47.15-.19.24-.37.28-.56l.12-.6h-6.57c-.3,0-.55.08-.76.25-.21.16-.35.37-.4.61l-.02.15c-.06.27-.01.47.14.61s.36.21.62.21h5.18c.3,0,.58-.06.82-.19Z"/><path class="cls-10" d="m46.44,59.01l.87-.25-.5,2.38.02-.02c.21-.19.43-.33.67-.41.23-.08.48-.12.76-.12h4.86c.65,0,1.13.18,1.43.54s.39.87.25,1.52l-.8,3.73h-.82l.76-3.59c.1-.46.05-.82-.15-1.06-.2-.25-.53-.37-1-.37h-4.58c-.48,0-.87.13-1.17.4s-.5.61-.59,1.04l-.76,3.59h-.82l1.57-7.36Z"/><path class="cls-10" d="m56.59,66.23c-.22-.1-.39-.25-.51-.47-.11-.21-.14-.49-.07-.82l.09-.41c.05-.27.17-.51.35-.74.18-.23.41-.41.68-.55.27-.14.57-.21.88-.21h6.78l.1-.48c.08-.38.01-.67-.19-.88s-.5-.31-.88-.31h-6.68l.16-.76h6.81c.63,0,1.09.15,1.38.46.29.31.37.74.25,1.3l-.85,4.01h-.81l.11-.54c-.08.14-.25.27-.48.38-.24.11-.51.16-.8.16h-5.61c-.25,0-.49-.05-.71-.15Zm7.04-.8c.24-.13.44-.28.59-.47.15-.19.24-.37.28-.56l.12-.6h-6.57c-.3,0-.55.08-.76.25-.21.16-.35.37-.4.61l-.02.15c-.06.27-.01.47.14.61s.36.21.62.21h5.18c.3,0,.58-.06.82-.19Z"/><path class="cls-8" d="m68.55,57.74h8.49c.33,0,.63.09.9.27.27.18.46.42.59.72s.15.62.07.96l-.05.19c-.08.4-.25.75-.5,1.06-.25.31-.55.56-.9.73-.35.18-.72.27-1.11.27h-7.51l-.63,2.94h-.88l1.51-7.14Zm8.6,3.06c.29-.26.48-.57.55-.92l.02-.09c.05-.24.04-.46-.04-.67-.08-.2-.21-.36-.39-.47-.17-.11-.38-.17-.6-.17h-7.42l-.57,2.7h7.42c.39,0,.74-.13,1.03-.39Zm-2.38.8l1-.06,1.91,3.33h-1.04l-1.88-3.28Z"/><path class="cls-9" d="m79.57,65.92c-.22-.1-.39-.25-.51-.47-.11-.21-.14-.49-.07-.82l.09-.41c.05-.27.17-.51.35-.74.18-.23.41-.41.68-.55s.57-.21.88-.21h6.78l.1-.48c.08-.38.01-.67-.19-.88-.2-.2-.5-.31-.88-.31h-6.68l.16-.76h6.81c.63,0,1.09.15,1.38.46.29.31.37.74.25,1.3l-.85,4.01h-.81l.11-.54c-.08.14-.25.27-.48.38s-.51.16-.8.16h-5.61c-.25,0-.49-.05-.71-.15Zm7.04-.8c.24-.12.44-.28.59-.47.15-.19.24-.37.28-.56l.12-.6h-6.57c-.3,0-.55.08-.76.25-.21.16-.35.37-.4.61l-.02.15c-.06.27-.01.47.14.61s.36.21.62.21h5.18c.3,0,.58-.06.82-.19Z"/><path class="cls-6" d="m90.39,61.8h.82l-.11.52.11-.1c.14-.11.27-.19.42-.26s.29-.12.44-.15c.15-.03.31-.05.48-.05h4.86c.65,0,1.13.18,1.43.54s.39.87.25,1.52l-.8,3.73h-.82l.76-3.59c.1-.46.05-.82-.15-1.06-.2-.25-.53-.37-1-.37h-4.58c-.48,0-.87.13-1.17.4s-.5.61-.59,1.04l-.76,3.59h-.82l1.23-5.76Z"/><path class="cls-7" d="m101.35,61.23l.88-.25-1.62,7.62h-.83l1.57-7.36Zm.1,4.43l5.9-2.83h1.64l-6,2.88,4.94,2.89h-1.46l-5.02-2.94Z"/><path class="cls-8" d="m128.67,59.09c1.04,2.61.24,5.39-6.8,8.2-7.04,2.81-9.53,1.34-10.57-1.27-.11-.27-.19-.54-.24-.82-.45-2.42,1.34-5.11,7.04-7.38,6.35-2.53,9.53-1.34,10.57,1.27Z"/><circle class="cls-2" cx="114.56" cy="63.99" r="1.43"/><circle class="cls-2" cx="118.44" cy="65.3" r="1.22"/><circle class="cls-2" cx="121.67" cy="59.71" r="1.62"/><circle class="cls-2" cx="125.3" cy="62.7" r="1.62"/><polygon class="cls-11" points="130.26 57.51 127.6 57.32 127.55 58 129.75 58.15 128.38 59.88 128.91 60.3 130.57 58.21 131.08 57.56 130.26 57.51"/><rect class="cls-12" x="112.95" y="62.21" width="13.69" height=".68" transform="translate(128.68 -72.3) rotate(66.2)"/><polygon class="cls-12" points="123.2 69.32 123.39 66.67 122.71 66.62 122.56 68.81 120.83 67.44 120.41 67.98 122.5 69.64 123.15 70.15 123.2 69.32"/><path class="cls-8" d="m112.62,67.2c-.95-.06-2.35-.15-3.14.21.02-.05-.02-.05.03.03.07.14.27.32.46.47.47.39,1.46.84,1.59,1.71,0,1.45-1.91,1.07-2.66.53-1.07-.42-2.31-.21-3.53-.27-1.13-.02-3.93-.03-5.01-.05-.57,0-1.43.09-1.76-.51-.18-.27-.28-.54-.4-.59-2.62-.1-6.38-.01-9.04-.05-.31,0-.7.04-.96-.23-.45-.49-.28-.98-.99-.95-1.83-.04-7.44.09-9.24-.05-.35-.07-.63-.4-.75-.66-.15-.28-.22-.41-.39-.41-3.21-.05-6.79-.07-9.99-.15,0,0,0-.19,0-.19,3.2-.08,6.8-.1,10.03-.14.37-.01.65.38.78.66.25.55.68.44,1.22.45.44,0,6.86,0,7.51,0,0,0,.83,0,.83,0,.29-.02.72.08.93.4.39.6.24.84,1.02.78,2.59,0,6.18,0,8.76-.01.11,0,.33-.02.53.09.59.37.43.97,1.08.99,0,0,.82,0,.82,0,1.07,0,3.89-.04,5-.05,1.11.02,2.22-.14,3.42.12.59.14,1.4.79,1.98.42-.1-.51-.78-.73-1.32-1.17-.69-.46-1.32-1.48-.29-2.01,1.24-.48,2.3-.35,3.54-.32,0,0-.08.95-.08.95h0Z"/><rect class="cls-11" x="110.03" y="61.97" width="20.59" height=".68" transform="translate(-14.91 53.86) rotate(-23.8)"/><polygon class="cls-1" points="108.61 2.83 38.39 2.83 3.27 63.65 38.39 124.47 108.61 124.47 143.72 63.65 108.61 2.83"/><polygon class="cls-4" points="41.66 118.8 9.82 63.65 41.66 8.5 105.34 8.5 137.18 63.65 105.34 118.8 41.66 118.8"/></g></svg>