<?xml version="1.0" encoding="UTF-8"?><svg id="_レイヤー_2" xmlns="http://www.w3.org/2000/svg" xmlns:xlink="http://www.w3.org/1999/xlink" viewBox="0 0 86.03 25.59"><defs><style>.cls-1{stroke:#231815;stroke-miterlimit:2;stroke-width:4.25px;}.cls-1,.cls-2,.cls-3{fill:none;}.cls-2{stroke-miterlimit:3;stroke-width:6.37px;}.cls-2,.cls-3{stroke:#fff;}.cls-4{fill:#f39800;}.cls-5{fill:#231815;}.cls-6{fill:url(#_名称未設定グラデーション_14);}</style><linearGradient id="_名称未設定グラデーション_14" x1="-65.42" y1="-68.49" x2="6.52" y2="-102.03" gradientTransform="translate(71.98 93.02)" gradientUnits="userSpaceOnUse"><stop offset="0" stop-color="#ee87b4"/><stop offset="1" stop-color="#00b9ef"/></linearGradient></defs><g id="_レイヤー_1-2"><path class="cls-2" d="m0,9.14c0-3.37,2.52-5.09,4.91-5.09,1.42,0,2.59.6,3.29,1.7V0h2.38v9.16c0,3.19-2.16,5.27-5.25,5.27S0,12.27,0,9.14Zm8.2.1c0-1.74-1.16-2.97-2.89-2.97s-2.91,1.24-2.91,2.97,1.18,2.97,2.91,2.97,2.89-1.24,2.89-2.97Z"/><path class="cls-2" d="m11.73,9.24c0-2.99,2.2-5.19,5.31-5.19,2.67,0,4.63,1.62,5.11,3.95h-2.4c-.42-1.06-1.42-1.74-2.71-1.74-1.74,0-2.91,1.24-2.91,2.97s1.18,2.97,2.91,2.97c1.3,0,2.3-.68,2.71-1.74h2.4c-.48,2.33-2.43,3.95-5.11,3.95-3.11,0-5.31-2.2-5.31-5.19Z"/><path class="cls-2" d="m26.76,3.49h-3.89V1.12h10.34v2.38h-3.89v10.68h-2.55V3.49Z"/><path class="cls-2" d="m33.92,9.24c0-2.99,2.2-5.19,5.31-5.19s5.27,2.2,5.27,5.19v.84h-8.08c.32,1.44,1.42,2.2,2.81,2.2,1.06,0,1.84-.3,2.34-.94h2.54c-.74,1.88-2.54,3.09-4.87,3.09-3.11,0-5.31-2.2-5.31-5.19Zm8.06-1.06c-.38-1.32-1.46-1.98-2.75-1.98s-2.38.68-2.75,1.98h5.51Z"/><path class="cls-2" d="m45.65,9.04c0-3.29,1.96-4.99,4.87-4.99s4.87,1.68,4.87,4.99v5.13h-2.38v-5.13c0-1.88-1-2.77-2.5-2.77s-2.49.9-2.49,2.77v5.13h-2.38v-5.13Z"/><path class="cls-2" d="m56.56,11.26h2.4c.02.66.6,1.1,1.76,1.1,1.22,0,1.74-.5,1.74-1.1,0-.76-.88-.86-1.94-1-1.52-.2-3.75-.46-3.75-2.87,0-2.02,1.54-3.33,3.91-3.33s3.89,1.36,3.95,3.09h-2.36c-.06-.6-.62-1.02-1.56-1.02-1.04,0-1.56.5-1.56,1.08,0,.76.9.88,1.96,1.02,1.32.18,3.73.44,3.73,2.89,0,2-1.62,3.31-4.13,3.31s-4.09-1.34-4.15-3.17Z"/><path class="cls-2" d="m65.62,9.24c0-2.99,2.2-5.19,5.31-5.19s5.31,2.2,5.31,5.19-2.2,5.19-5.31,5.19-5.31-2.2-5.31-5.19Zm8.2,0c0-1.74-1.16-2.97-2.89-2.97s-2.91,1.24-2.91,2.97,1.18,2.97,2.91,2.97,2.89-1.24,2.89-2.97Z"/><path class="cls-2" d="m77.39,8.44c0-2.97,1.76-4.39,4.33-4.39s4.31,1.42,4.31,4.43v.06h-2.35v-.1c0-1.6-.8-2.17-1.96-2.17s-1.96.58-1.96,2.17v5.73h-2.38v-5.73Z"/><path class="cls-1" d="m0,9.14c0-3.37,2.52-5.09,4.91-5.09,1.42,0,2.59.6,3.29,1.7V0h2.38v9.16c0,3.19-2.16,5.27-5.25,5.27S0,12.27,0,9.14Zm8.2.1c0-1.74-1.16-2.97-2.89-2.97s-2.91,1.24-2.91,2.97,1.18,2.97,2.91,2.97,2.89-1.24,2.89-2.97Z"/><path class="cls-1" d="m11.73,9.24c0-2.99,2.2-5.19,5.31-5.19,2.67,0,4.63,1.62,5.11,3.95h-2.4c-.42-1.06-1.42-1.74-2.71-1.74-1.74,0-2.91,1.24-2.91,2.97s1.18,2.97,2.91,2.97c1.3,0,2.3-.68,2.71-1.74h2.4c-.48,2.33-2.43,3.95-5.11,3.95-3.11,0-5.31-2.2-5.31-5.19Z"/><path class="cls-1" d="m26.76,3.49h-3.89V1.12h10.34v2.38h-3.89v10.68h-2.55V3.49Z"/><path class="cls-1" d="m33.92,9.24c0-2.99,2.2-5.19,5.31-5.19s5.27,2.2,5.27,5.19v.84h-8.08c.32,1.44,1.42,2.2,2.81,2.2,1.06,0,1.84-.3,2.34-.94h2.54c-.74,1.88-2.54,3.09-4.87,3.09-3.11,0-5.31-2.2-5.31-5.19Zm8.06-1.06c-.38-1.32-1.46-1.98-2.75-1.98s-2.38.68-2.75,1.98h5.51Z"/><path class="cls-1" d="m45.65,9.04c0-3.29,1.96-4.99,4.87-4.99s4.87,1.68,4.87,4.99v5.13h-2.38v-5.13c0-1.88-1-2.77-2.5-2.77s-2.49.9-2.49,2.77v5.13h-2.38v-5.13Z"/><path class="cls-1" d="m56.56,11.26h2.4c.02.66.6,1.1,1.76,1.1,1.22,0,1.74-.5,1.74-1.1,0-.76-.88-.86-1.94-1-1.52-.2-3.75-.46-3.75-2.87,0-2.02,1.54-3.33,3.91-3.33s3.89,1.36,3.95,3.09h-2.36c-.06-.6-.62-1.02-1.56-1.02-1.04,0-1.56.5-1.56,1.08,0,.76.9.88,1.96,1.02,1.32.18,3.73.44,3.73,2.89,0,2-1.62,3.31-4.13,3.31s-4.09-1.34-4.15-3.17Z"/><path class="cls-1" d="m65.62,9.24c0-2.99,2.2-5.19,5.31-5.19s5.31,2.2,5.31,5.19-2.2,5.19-5.31,5.19-5.31-2.2-5.31-5.19Zm8.2,0c0-1.74-1.16-2.97-2.89-2.97s-2.91,1.24-2.91,2.97,1.18,2.97,2.91,2.97,2.89-1.24,2.89-2.97Z"/><path class="cls-1" d="m77.39,8.44c0-2.97,1.76-4.39,4.33-4.39s4.31,1.42,4.31,4.43v.06h-2.35v-.1c0-1.6-.8-2.17-1.96-2.17s-1.96.58-1.96,2.17v5.73h-2.38v-5.73Z"/><path class="cls-4" d="m0,9.14c0-3.37,2.52-5.09,4.91-5.09,1.42,0,2.59.6,3.29,1.7V0h2.38v9.16c0,3.19-2.16,5.27-5.25,5.27S0,12.27,0,9.14Zm8.2.1c0-1.74-1.16-2.97-2.89-2.97s-2.91,1.24-2.91,2.97,1.18,2.97,2.91,2.97,2.89-1.24,2.89-2.97Z"/><path class="cls-4" d="m11.73,9.24c0-2.99,2.2-5.19,5.31-5.19,2.67,0,4.63,1.62,5.11,3.95h-2.4c-.42-1.06-1.42-1.74-2.71-1.74-1.74,0-2.91,1.24-2.91,2.97s1.18,2.97,2.91,2.97c1.3,0,2.3-.68,2.71-1.74h2.4c-.48,2.33-2.43,3.95-5.11,3.95-3.11,0-5.31-2.2-5.31-5.19Z"/><path class="cls-4" d="m26.76,3.49h-3.89V1.12h10.34v2.38h-3.89v10.68h-2.55V3.49Z"/><path class="cls-4" d="m33.92,9.24c0-2.99,2.2-5.19,5.31-5.19s5.27,2.2,5.27,5.19v.84h-8.08c.32,1.44,1.42,2.2,2.81,2.2,1.06,0,1.84-.3,2.34-.94h2.54c-.74,1.88-2.54,3.09-4.87,3.09-3.11,0-5.31-2.2-5.31-5.19Zm8.06-1.06c-.38-1.32-1.46-1.98-2.75-1.98s-2.38.68-2.75,1.98h5.51Z"/><path class="cls-4" d="m45.65,9.04c0-3.29,1.96-4.99,4.87-4.99s4.87,1.68,4.87,4.99v5.13h-2.38v-5.13c0-1.88-1-2.77-2.5-2.77s-2.49.9-2.49,2.77v5.13h-2.38v-5.13Z"/><path class="cls-4" d="m56.56,11.26h2.4c.02.66.6,1.1,1.76,1.1,1.22,0,1.74-.5,1.74-1.1,0-.76-.88-.86-1.94-1-1.52-.2-3.75-.46-3.75-2.87,0-2.02,1.54-3.33,3.91-3.33s3.89,1.36,3.95,3.09h-2.36c-.06-.6-.62-1.02-1.56-1.02-1.04,0-1.56.5-1.56,1.08,0,.76.9.88,1.96,1.02,1.32.18,3.73.44,3.73,2.89,0,2-1.62,3.31-4.13,3.31s-4.09-1.34-4.15-3.17Z"/><path class="cls-4" d="m65.62,9.24c0-2.99,2.2-5.19,5.31-5.19s5.31,2.2,5.31,5.19-2.2,5.19-5.31,5.19-5.31-2.2-5.31-5.19Zm8.2,0c0-1.74-1.16-2.97-2.89-2.97s-2.91,1.24-2.91,2.97,1.18,2.97,2.91,2.97,2.89-1.24,2.89-2.97Z"/><path class="cls-4" d="m77.39,8.44c0-2.97,1.76-4.39,4.33-4.39s4.31,1.42,4.31,4.43v.06h-2.35v-.1c0-1.6-.8-2.17-1.96-2.17s-1.96.58-1.96,2.17v5.73h-2.38v-5.73Z"/><path class="cls-6" d="m0,9.14c0-3.37,2.52-5.09,4.91-5.09,1.42,0,2.59.6,3.29,1.7V0h2.38v9.16c0,3.19-2.16,5.27-5.25,5.27S0,12.27,0,9.14Zm8.2.1c0-1.74-1.16-2.97-2.89-2.97s-2.91,1.24-2.91,2.97,1.18,2.97,2.91,2.97,2.89-1.24,2.89-2.97Z"/><path class="cls-6" d="m11.73,9.24c0-2.99,2.2-5.19,5.31-5.19,2.67,0,4.63,1.62,5.11,3.95h-2.4c-.42-1.06-1.42-1.74-2.71-1.74-1.74,0-2.91,1.24-2.91,2.97s1.18,2.97,2.91,2.97c1.3,0,2.3-.68,2.71-1.74h2.4c-.48,2.33-2.43,3.95-5.11,3.95-3.11,0-5.31-2.2-5.31-5.19Z"/><path class="cls-6" d="m26.76,3.49h-3.89V1.12h10.34v2.38h-3.89v10.68h-2.55V3.49Z"/><path class="cls-6" d="m33.92,9.24c0-2.99,2.2-5.19,5.31-5.19s5.27,2.2,5.27,5.19v.84h-8.08c.32,1.44,1.42,2.2,2.81,2.2,1.06,0,1.84-.3,2.34-.94h2.54c-.74,1.88-2.54,3.09-4.87,3.09-3.11,0-5.31-2.2-5.31-5.19Zm8.06-1.06c-.38-1.32-1.46-1.98-2.75-1.98s-2.38.68-2.75,1.98h5.51Z"/><path class="cls-6" d="m45.65,9.04c0-3.29,1.96-4.99,4.87-4.99s4.87,1.68,4.87,4.99v5.13h-2.38v-5.13c0-1.88-1-2.77-2.5-2.77s-2.49.9-2.49,2.77v5.13h-2.38v-5.13Z"/><path class="cls-6" d="m56.56,11.26h2.4c.02.66.6,1.1,1.76,1.1,1.22,0,1.74-.5,1.74-1.1,0-.76-.88-.86-1.94-1-1.52-.2-3.75-.46-3.75-2.87,0-2.02,1.54-3.33,3.91-3.33s3.89,1.36,3.95,3.09h-2.36c-.06-.6-.62-1.02-1.56-1.02-1.04,0-1.56.5-1.56,1.08,0,.76.9.88,1.96,1.02,1.32.18,3.73.44,3.73,2.89,0,2-1.62,3.31-4.13,3.31s-4.09-1.34-4.15-3.17Z"/><path class="cls-6" d="m65.62,9.24c0-2.99,2.2-5.19,5.31-5.19s5.31,2.2,5.31,5.19-2.2,5.19-5.31,5.19-5.31-2.2-5.31-5.19Zm8.2,0c0-1.74-1.16-2.97-2.89-2.97s-2.91,1.24-2.91,2.97,1.18,2.97,2.91,2.97,2.89-1.24,2.89-2.97Z"/><path class="cls-6" d="m77.39,8.44c0-2.97,1.76-4.39,4.33-4.39s4.31,1.42,4.31,4.43v.06h-2.35v-.1c0-1.6-.8-2.17-1.96-2.17s-1.96.58-1.96,2.17v5.73h-2.38v-5.73Z"/><path class="cls-3" d="m23.1,23.99c-.17.08-.46.23-1.01.23-1.12,0-1.75-.69-1.75-1.72,0-1.11.77-1.76,1.72-1.76.39,0,.72.09,1.05.29l-.21.77c-.14-.1-.35-.26-.76-.26-.58,0-.93.39-.93.94,0,.42.2.95.94.95.49,0,.83-.21.96-.3v.87Z"/><path class="cls-3" d="m23.61,24.13v-3.3h.83v.32c.19-.27.5-.44.97-.4v.79c-.43-.03-.93.05-.93.76v1.84h-.87Z"/><path class="cls-3" d="m25.99,21.04c.38-.2.75-.31,1.18-.31.55,0,.95.18,1.19.46.17.2.24.46.24.86v1.23c0,.45.06.67.13.84h-.82c-.03-.08-.06-.15-.06-.3-.27.26-.61.39-.98.39-.61,0-1.12-.37-1.12-1.04,0-.84.73-1.03,1.33-1.12.58-.09.68-.1.68-.26,0-.14-.14-.29-.55-.29s-.78.14-1.14.36l-.07-.82Zm1.78,1.52c-.15.07-.3.1-.68.15-.34.04-.54.15-.54.43,0,.19.13.35.39.35.19,0,.55-.06.83-.49v-.44Z"/><path class="cls-3" d="m29.24,24.13v-3.3h.83v.32c.08-.1.33-.41.88-.41.58,0,.87.35.97.54.12.25.15.51.15.99v1.86h-.87v-1.89c0-.3,0-.71-.5-.71-.09,0-.6.02-.6.71v1.89h-.87Z"/><path class="cls-3" d="m33.67,23.16v.97h-.96v-.97h.96Z"/><path class="cls-3" d="m34.32,24.13v-3.3h.83v.32c.19-.27.5-.44.97-.4v.79c-.43-.03-.93.05-.93.76v1.84h-.87Z"/><path class="cls-3" d="m38,22.06v.83h-1.61v-.83h1.61Z"/><path class="cls-3" d="m39.28,21.14c.11-.12.39-.41.92-.41.93,0,1.45.82,1.45,1.74s-.49,1.74-1.46,1.74c-.44,0-.72-.2-.89-.35v1.73h-.87v-4.77h.84v.32Zm.77,2.28c.46,0,.73-.37.73-.95s-.27-.94-.73-.94c-.17,0-.76.07-.76.94s.58.95.76.95Z"/><path class="cls-3" d="m42.12,24.13v-3.3h.83v.32c.19-.27.5-.44.97-.4v.79c-.43-.03-.93.05-.93.76v1.84h-.87Z"/><path class="cls-3" d="m45.87,20.74c.88,0,1.64.67,1.64,1.74s-.76,1.74-1.64,1.74-1.63-.66-1.63-1.74.77-1.74,1.63-1.74Zm0,2.68c.5,0,.77-.4.77-.95,0-.94-.71-.94-.77-.94-.26,0-.77.16-.77.94,0,.55.27.95.77.95Z"/><path class="cls-3" d="m49.55,24.18c0,.62,0,1.42-1.06,1.42-.35,0-.58-.1-.73-.17l.06-.75c.1.04.28.13.5.13.32,0,.37-.24.37-.5v-3.47h.87v3.35Zm.04-3.73h-.94v-.89h.94v.89Z"/><path class="cls-3" d="m51.01,22.74c.02.21.08.72.89.72.48,0,.76-.13,1.04-.26v.81c-.17.07-.52.21-1.08.21-1.45,0-1.71-1.11-1.71-1.71,0-1.04.63-1.76,1.54-1.76.33,0,1.03.12,1.35.9.14.34.17.74.17,1.1h-2.19Zm1.33-.62c-.08-.64-.57-.64-.66-.64-.56,0-.64.52-.66.64h1.32Z"/><path class="cls-3" d="m56.35,23.99c-.17.08-.46.23-1.01.23-1.12,0-1.75-.69-1.75-1.72,0-1.11.77-1.76,1.72-1.76.39,0,.72.09,1.05.29l-.21.77c-.14-.1-.35-.26-.76-.26-.58,0-.93.39-.93.94,0,.42.2.95.94.95.49,0,.83-.21.96-.3v.87Z"/><path class="cls-3" d="m57.02,19.87h.87v.96h.88v.79h-.88v1.43c0,.28.07.37.37.37.18,0,.35-.02.46-.04v.78c-.1.01-.36.05-.68.05-1.01,0-1.01-.58-1.01-1.11v-1.49h-.37v-.79h.37v-.96Z"/><path class="cls-3" d="m60.16,23.16v.97h-.96v-.97h.96Z"/><path class="cls-3" d="m62.31,20.74c.88,0,1.64.67,1.64,1.74s-.76,1.74-1.64,1.74-1.63-.66-1.63-1.74.77-1.74,1.63-1.74Zm0,2.68c.5,0,.77-.4.77-.95,0-.94-.71-.94-.77-.94-.26,0-.77.16-.77.94,0,.55.27.95.77.95Z"/><path class="cls-3" d="m64.43,24.13v-3.3h.83v.32c.19-.27.5-.44.97-.4v.79c-.43-.03-.93.05-.93.76v1.84h-.87Z"/><path class="cls-3" d="m69.64,21.5c-.06-.02-.12-.04-.21-.04-.09,0-.15.02-.19.03.03.08.08.21.08.44,0,.78-.67,1.11-1.35,1.11-.09,0-.15,0-.2,0-.07.03-.15.1-.15.19,0,.13.21.15.58.17.75.03,1.49.17,1.49,1.05,0,1-1.11,1.14-1.68,1.14-1.05,0-1.49-.49-1.49-1.06,0-.52.37-.77.49-.84-.1-.07-.26-.2-.26-.45s.21-.43.27-.47c-.41-.32-.41-.77-.41-.87,0-.68.56-1.17,1.37-1.17.4,0,.62.1.73.16.26-.16.51-.16.58-.16.2,0,.29.03.38.07v.69Zm-1.69,2.56c-.32,0-.59.09-.59.41,0,.37.44.42.71.42.17,0,.74-.03.74-.44,0-.31-.36-.39-.86-.39Zm-.54-2.14c0,.28.23.46.53.46s.55-.19.55-.47c0-.24-.18-.47-.53-.47-.31,0-.55.19-.55.49Z"/><path d="m23.1,23.99c-.17.08-.46.23-1.01.23-1.12,0-1.75-.69-1.75-1.72,0-1.11.77-1.76,1.72-1.76.39,0,.72.09,1.05.29l-.21.77c-.14-.1-.35-.26-.76-.26-.58,0-.93.39-.93.94,0,.42.2.95.94.95.49,0,.83-.21.96-.3v.87Z"/><path d="m23.61,24.13v-3.3h.83v.32c.19-.27.5-.44.97-.4v.79c-.43-.03-.93.05-.93.76v1.84h-.87Z"/><path d="m25.99,21.04c.38-.2.75-.31,1.18-.31.55,0,.95.18,1.19.46.17.2.24.46.24.86v1.23c0,.45.06.67.13.84h-.82c-.03-.08-.06-.15-.06-.3-.27.26-.61.39-.98.39-.61,0-1.12-.37-1.12-1.04,0-.84.73-1.03,1.33-1.12.58-.09.68-.1.68-.26,0-.14-.14-.29-.55-.29s-.78.14-1.14.36l-.07-.82Zm1.78,1.52c-.15.07-.3.1-.68.15-.34.04-.54.15-.54.43,0,.19.13.35.39.35.19,0,.55-.06.83-.49v-.44Z"/><path d="m29.24,24.13v-3.3h.83v.32c.08-.1.33-.41.88-.41.58,0,.87.35.97.54.12.25.15.51.15.99v1.86h-.87v-1.89c0-.3,0-.71-.5-.71-.09,0-.6.02-.6.71v1.89h-.87Z"/><path d="m33.67,23.16v.97h-.96v-.97h.96Z"/><path d="m34.32,24.13v-3.3h.83v.32c.19-.27.5-.44.97-.4v.79c-.43-.03-.93.05-.93.76v1.84h-.87Z"/><path d="m38,22.06v.83h-1.61v-.83h1.61Z"/><path d="m39.28,21.14c.11-.12.39-.41.92-.41.93,0,1.45.82,1.45,1.74s-.49,1.74-1.46,1.74c-.44,0-.72-.2-.89-.35v1.73h-.87v-4.77h.84v.32Zm.77,2.28c.46,0,.73-.37.73-.95s-.27-.94-.73-.94c-.17,0-.76.07-.76.94s.58.95.76.95Z"/><path d="m42.12,24.13v-3.3h.83v.32c.19-.27.5-.44.97-.4v.79c-.43-.03-.93.05-.93.76v1.84h-.87Z"/><path d="m45.87,20.74c.88,0,1.64.67,1.64,1.74s-.76,1.74-1.64,1.74-1.63-.66-1.63-1.74.77-1.74,1.63-1.74Zm0,2.68c.5,0,.77-.4.77-.95,0-.94-.71-.94-.77-.94-.26,0-.77.16-.77.94,0,.55.27.95.77.95Z"/><path d="m49.55,24.18c0,.62,0,1.42-1.06,1.42-.35,0-.58-.1-.73-.17l.06-.75c.1.04.28.13.5.13.32,0,.37-.24.37-.5v-3.47h.87v3.35Zm.04-3.73h-.94v-.89h.94v.89Z"/><path d="m51.01,22.74c.02.21.08.72.89.72.48,0,.76-.13,1.04-.26v.81c-.17.07-.52.21-1.08.21-1.45,0-1.71-1.11-1.71-1.71,0-1.04.63-1.76,1.54-1.76.33,0,1.03.12,1.35.9.14.34.17.74.17,1.1h-2.19Zm1.33-.62c-.08-.64-.57-.64-.66-.64-.56,0-.64.52-.66.64h1.32Z"/><path d="m56.35,23.99c-.17.08-.46.23-1.01.23-1.12,0-1.75-.69-1.75-1.72,0-1.11.77-1.76,1.72-1.76.39,0,.72.09,1.05.29l-.21.77c-.14-.1-.35-.26-.76-.26-.58,0-.93.39-.93.94,0,.42.2.95.94.95.49,0,.83-.21.96-.3v.87Z"/><path d="m57.02,19.87h.87v.96h.88v.79h-.88v1.43c0,.28.07.37.37.37.18,0,.35-.02.46-.04v.78c-.1.01-.36.05-.68.05-1.01,0-1.01-.58-1.01-1.11v-1.49h-.37v-.79h.37v-.96Z"/><path d="m60.16,23.16v.97h-.96v-.97h.96Z"/><path d="m62.31,20.74c.88,0,1.64.67,1.64,1.74s-.76,1.74-1.64,1.74-1.63-.66-1.63-1.74.77-1.74,1.63-1.74Zm0,2.68c.5,0,.77-.4.77-.95,0-.94-.71-.94-.77-.94-.26,0-.77.16-.77.94,0,.55.27.95.77.95Z"/><path d="m64.43,24.13v-3.3h.83v.32c.19-.27.5-.44.97-.4v.79c-.43-.03-.93.05-.93.76v1.84h-.87Z"/><path d="m69.64,21.5c-.06-.02-.12-.04-.21-.04-.09,0-.15.02-.19.03.03.08.08.21.08.44,0,.78-.67,1.11-1.35,1.11-.09,0-.15,0-.2,0-.07.03-.15.1-.15.19,0,.13.21.15.58.17.75.03,1.49.17,1.49,1.05,0,1-1.11,1.14-1.68,1.14-1.05,0-1.49-.49-1.49-1.06,0-.52.37-.77.49-.84-.1-.07-.26-.2-.26-.45s.21-.43.27-.47c-.41-.32-.41-.77-.41-.87,0-.68.56-1.17,1.37-1.17.4,0,.62.1.73.16.26-.16.51-.16.58-.16.2,0,.29.03.38.07v.69Zm-1.69,2.56c-.32,0-.59.09-.59.41,0,.37.44.42.71.42.17,0,.74-.03.74-.44,0-.31-.36-.39-.86-.39Zm-.54-2.14c0,.28.23.46.53.46s.55-.19.55-.47c0-.24-.18-.47-.53-.47-.31,0-.55.19-.55.49Z"/><path class="cls-5" d="m23.1,23.99c-.17.08-.46.23-1.01.23-1.12,0-1.75-.69-1.75-1.72,0-1.11.77-1.76,1.72-1.76.39,0,.72.09,1.05.29l-.21.77c-.14-.1-.35-.26-.76-.26-.58,0-.93.39-.93.94,0,.42.2.95.94.95.49,0,.83-.21.96-.3v.87Z"/><path class="cls-5" d="m23.61,24.13v-3.3h.83v.32c.19-.27.5-.44.97-.4v.79c-.43-.03-.93.05-.93.76v1.84h-.87Z"/><path class="cls-5" d="m25.99,21.04c.38-.2.75-.31,1.18-.31.55,0,.95.18,1.19.46.17.2.24.46.24.86v1.23c0,.45.06.67.13.84h-.82c-.03-.08-.06-.15-.06-.3-.27.26-.61.39-.98.39-.61,0-1.12-.37-1.12-1.04,0-.84.73-1.03,1.33-1.12.58-.09.68-.1.68-.26,0-.14-.14-.29-.55-.29s-.78.14-1.14.36l-.07-.82Zm1.78,1.52c-.15.07-.3.1-.68.15-.34.04-.54.15-.54.43,0,.19.13.35.39.35.19,0,.55-.06.83-.49v-.44Z"/><path class="cls-5" d="m29.24,24.13v-3.3h.83v.32c.08-.1.33-.41.88-.41.58,0,.87.35.97.54.12.25.15.51.15.99v1.86h-.87v-1.89c0-.3,0-.71-.5-.71-.09,0-.6.02-.6.71v1.89h-.87Z"/><path class="cls-5" d="m33.67,23.16v.97h-.96v-.97h.96Z"/><path class="cls-5" d="m34.32,24.13v-3.3h.83v.32c.19-.27.5-.44.97-.4v.79c-.43-.03-.93.05-.93.76v1.84h-.87Z"/><path class="cls-5" d="m38,22.06v.83h-1.61v-.83h1.61Z"/><path class="cls-5" d="m39.28,21.14c.11-.12.39-.41.92-.41.93,0,1.45.82,1.45,1.74s-.49,1.74-1.46,1.74c-.44,0-.72-.2-.89-.35v1.73h-.87v-4.77h.84v.32Zm.77,2.28c.46,0,.73-.37.73-.95s-.27-.94-.73-.94c-.17,0-.76.07-.76.94s.58.95.76.95Z"/><path class="cls-5" d="m42.12,24.13v-3.3h.83v.32c.19-.27.5-.44.97-.4v.79c-.43-.03-.93.05-.93.76v1.84h-.87Z"/><path class="cls-5" d="m45.87,20.74c.88,0,1.64.67,1.64,1.74s-.76,1.74-1.64,1.74-1.63-.66-1.63-1.74.77-1.74,1.63-1.74Zm0,2.68c.5,0,.77-.4.77-.95,0-.94-.71-.94-.77-.94-.26,0-.77.16-.77.94,0,.55.27.95.77.95Z"/><path class="cls-5" d="m49.55,24.18c0,.62,0,1.42-1.06,1.42-.35,0-.58-.1-.73-.17l.06-.75c.1.04.28.13.5.13.32,0,.37-.24.37-.5v-3.47h.87v3.35Zm.04-3.73h-.94v-.89h.94v.89Z"/><path class="cls-5" d="m51.01,22.74c.02.21.08.72.89.72.48,0,.76-.13,1.04-.26v.81c-.17.07-.52.21-1.08.21-1.45,0-1.71-1.11-1.71-1.71,0-1.04.63-1.76,1.54-1.76.33,0,1.03.12,1.35.9.14.34.17.74.17,1.1h-2.19Zm1.33-.62c-.08-.64-.57-.64-.66-.64-.56,0-.64.52-.66.64h1.32Z"/><path class="cls-5" d="m56.35,23.99c-.17.08-.46.23-1.01.23-1.12,0-1.75-.69-1.75-1.72,0-1.11.77-1.76,1.72-1.76.39,0,.72.09,1.05.29l-.21.77c-.14-.1-.35-.26-.76-.26-.58,0-.93.39-.93.94,0,.42.2.95.94.95.49,0,.83-.21.96-.3v.87Z"/><path class="cls-5" d="m57.02,19.87h.87v.96h.88v.79h-.88v1.43c0,.28.07.37.37.37.18,0,.35-.02.46-.04v.78c-.1.01-.36.05-.68.05-1.01,0-1.01-.58-1.01-1.11v-1.49h-.37v-.79h.37v-.96Z"/><path class="cls-5" d="m60.16,23.16v.97h-.96v-.97h.96Z"/><path class="cls-5" d="m62.31,20.74c.88,0,1.64.67,1.64,1.74s-.76,1.74-1.64,1.74-1.63-.66-1.63-1.74.77-1.74,1.63-1.74Zm0,2.68c.5,0,.77-.4.77-.95,0-.94-.71-.94-.77-.94-.26,0-.77.16-.77.94,0,.55.27.95.77.95Z"/><path class="cls-5" d="m64.43,24.13v-3.3h.83v.32c.19-.27.5-.44.97-.4v.79c-.43-.03-.93.05-.93.76v1.84h-.87Z"/><path class="cls-5" d="m69.64,21.5c-.06-.02-.12-.04-.21-.04-.09,0-.15.02-.19.03.03.08.08.21.08.44,0,.78-.67,1.11-1.35,1.11-.09,0-.15,0-.2,0-.07.03-.15.1-.15.19,0,.13.21.15.58.17.75.03,1.49.17,1.49,1.05,0,1-1.11,1.14-1.68,1.14-1.05,0-1.49-.49-1.49-1.06,0-.52.37-.77.49-.84-.1-.07-.26-.2-.26-.45s.21-.43.27-.47c-.41-.32-.41-.77-.41-.87,0-.68.56-1.17,1.37-1.17.4,0,.62.1.73.16.26-.16.51-.16.58-.16.2,0,.29.03.38.07v.69Zm-1.69,2.56c-.32,0-.59.09-.59.41,0,.37.44.42.71.42.17,0,.74-.03.74-.44,0-.31-.36-.39-.86-.39Zm-.54-2.14c0,.28.23.46.53.46s.55-.19.55-.47c0-.24-.18-.47-.53-.47-.31,0-.55.19-.55.49Z"/></g></svg>