<?xml version="1.0" encoding="UTF-8"?><svg xmlns="http://www.w3.org/2000/svg" xmlns:xlink="http://www.w3.org/1999/xlink" viewBox="0 0 151.91 52.65"><defs><style>.cls-1{opacity:.6;}.cls-1,.cls-2,.cls-3,.cls-4,.cls-5,.cls-6,.cls-7{fill:none;}.cls-2{opacity:.83;}.cls-3{stroke:#231815;stroke-miterlimit:2;stroke-width:4.25px;}.cls-4{isolation:isolate;}.cls-5{stroke-miterlimit:3;stroke-width:6.37px;}.cls-5,.cls-7{stroke:#fff;}.cls-8{fill:#fff;}.cls-9{fill:#f39800;}.cls-10{fill:#9fa0a0;}.cls-11{fill:#b7b7b7;}.cls-12{fill:#c2c2c2;}.cls-13{fill:#b3b3b3;}.cls-14{fill:#a6a6a6;}.cls-15{fill:#bdbdbd;}.cls-16{fill:#d5d5d5;}.cls-17{fill:#231815;}.cls-18{fill:#9b9b9b;}.cls-19{fill:#262626;}.cls-20{fill:url(#_オレンジ_イエロー-4);}.cls-21{fill:url(#_オレンジ_イエロー-2);}.cls-22{fill:url(#_オレンジ_イエロー-3);}.cls-23{fill:url(#_オレンジ_イエロー);opacity:.5;}.cls-23,.cls-6{mix-blend-mode:multiply;}.cls-24{fill:url(#_名称未設定グラデーション_14);}</style><linearGradient id="_名称未設定グラデーション_14" x1="72.44" y1="38.63" x2="144.38" y2="5.08" gradientUnits="userSpaceOnUse"><stop offset="0" stop-color="#ee87b4"/><stop offset="1" stop-color="#00b9ef"/></linearGradient><linearGradient id="_オレンジ_イエロー" x1="0" y1="26.33" x2="49.81" y2="26.33" gradientUnits="userSpaceOnUse"><stop offset="0" stop-color="#fff21f"/><stop offset=".01" stop-color="#feee1c"/><stop offset=".1" stop-color="#fddc0c"/><stop offset=".19" stop-color="#fcd003"/><stop offset=".28" stop-color="#fccd00"/><stop offset=".67" stop-color="#f1942e"/><stop offset=".89" stop-color="#ea652d"/><stop offset="1" stop-color="#e5352b"/></linearGradient><linearGradient id="_オレンジ_イエロー-2" x1="16.91" y1="16.14" x2="31.68" y2="16.14" xlink:href="#_オレンジ_イエロー"/><linearGradient id="_オレンジ_イエロー-3" x1="31.09" y1="26.18" x2="45.87" y2="26.18" xlink:href="#_オレンジ_イエロー"/><linearGradient id="_オレンジ_イエロー-4" x1="45.38" y1="35.94" x2="60.15" y2="35.94" xlink:href="#_オレンジ_イエロー"/></defs><g class="cls-4"><g id="_レイヤー_2"><g id="_レイヤー_1-2"><path class="cls-5" d="m65.88,23.23c0-3.37,2.52-5.09,4.91-5.09,1.42,0,2.59.6,3.29,1.7v-5.75h2.38v9.16c0,3.19-2.16,5.27-5.25,5.27s-5.33-2.16-5.33-5.29Zm8.2.1c0-1.74-1.16-2.97-2.89-2.97s-2.91,1.24-2.91,2.97,1.18,2.97,2.91,2.97,2.89-1.24,2.89-2.97Z"/><path class="cls-5" d="m77.61,23.33c0-2.99,2.2-5.19,5.31-5.19,2.67,0,4.63,1.62,5.11,3.95h-2.4c-.42-1.06-1.42-1.74-2.71-1.74-1.74,0-2.91,1.24-2.91,2.97s1.18,2.97,2.91,2.97c1.3,0,2.3-.68,2.71-1.74h2.4c-.48,2.33-2.43,3.95-5.11,3.95-3.11,0-5.31-2.2-5.31-5.19Z"/><path class="cls-5" d="m92.64,17.59h-3.89v-2.38h10.34v2.38h-3.89v10.68h-2.55v-10.68Z"/><path class="cls-5" d="m99.8,23.33c0-2.99,2.2-5.19,5.31-5.19s5.27,2.2,5.27,5.19v.84h-8.08c.32,1.44,1.42,2.2,2.81,2.2,1.06,0,1.84-.3,2.34-.94h2.54c-.74,1.88-2.54,3.09-4.87,3.09-3.11,0-5.31-2.2-5.31-5.19Zm8.06-1.06c-.38-1.32-1.46-1.98-2.75-1.98s-2.38.68-2.75,1.98h5.51Z"/><path class="cls-5" d="m111.53,23.13c0-3.29,1.96-4.99,4.87-4.99s4.87,1.68,4.87,4.99v5.13h-2.38v-5.13c0-1.88-1-2.77-2.5-2.77s-2.49.9-2.49,2.77v5.13h-2.38v-5.13Z"/><path class="cls-5" d="m122.44,25.35h2.4c.02.66.6,1.1,1.76,1.1,1.22,0,1.74-.5,1.74-1.1,0-.76-.88-.86-1.94-1-1.52-.2-3.75-.46-3.75-2.87,0-2.02,1.54-3.33,3.91-3.33s3.89,1.36,3.95,3.09h-2.36c-.06-.6-.62-1.02-1.56-1.02-1.04,0-1.56.5-1.56,1.08,0,.76.9.88,1.96,1.02,1.32.18,3.73.44,3.73,2.89,0,2-1.62,3.31-4.13,3.31s-4.09-1.34-4.15-3.17Z"/><path class="cls-5" d="m131.5,23.33c0-2.99,2.2-5.19,5.31-5.19s5.31,2.2,5.31,5.19-2.2,5.19-5.31,5.19-5.31-2.2-5.31-5.19Zm8.2,0c0-1.74-1.16-2.97-2.89-2.97s-2.91,1.24-2.91,2.97,1.18,2.97,2.91,2.97,2.89-1.24,2.89-2.97Z"/><path class="cls-5" d="m143.27,22.54c0-2.97,1.76-4.39,4.33-4.39s4.31,1.42,4.31,4.43v.06h-2.35v-.1c0-1.6-.8-2.17-1.96-2.17s-1.96.58-1.96,2.17v5.73h-2.38v-5.73Z"/><path class="cls-3" d="m65.88,23.23c0-3.37,2.52-5.09,4.91-5.09,1.42,0,2.59.6,3.29,1.7v-5.75h2.38v9.16c0,3.19-2.16,5.27-5.25,5.27s-5.33-2.16-5.33-5.29Zm8.2.1c0-1.74-1.16-2.97-2.89-2.97s-2.91,1.24-2.91,2.97,1.18,2.97,2.91,2.97,2.89-1.24,2.89-2.97Z"/><path class="cls-3" d="m77.61,23.33c0-2.99,2.2-5.19,5.31-5.19,2.67,0,4.63,1.62,5.11,3.95h-2.4c-.42-1.06-1.42-1.74-2.71-1.74-1.74,0-2.91,1.24-2.91,2.97s1.18,2.97,2.91,2.97c1.3,0,2.3-.68,2.71-1.74h2.4c-.48,2.33-2.43,3.95-5.11,3.95-3.11,0-5.31-2.2-5.31-5.19Z"/><path class="cls-3" d="m92.64,17.59h-3.89v-2.38h10.34v2.38h-3.89v10.68h-2.55v-10.68Z"/><path class="cls-3" d="m99.8,23.33c0-2.99,2.2-5.19,5.31-5.19s5.27,2.2,5.27,5.19v.84h-8.08c.32,1.44,1.42,2.2,2.81,2.2,1.06,0,1.84-.3,2.34-.94h2.54c-.74,1.88-2.54,3.09-4.87,3.09-3.11,0-5.31-2.2-5.31-5.19Zm8.06-1.06c-.38-1.32-1.46-1.98-2.75-1.98s-2.38.68-2.75,1.98h5.51Z"/><path class="cls-3" d="m111.53,23.13c0-3.29,1.96-4.99,4.87-4.99s4.87,1.68,4.87,4.99v5.13h-2.38v-5.13c0-1.88-1-2.77-2.5-2.77s-2.49.9-2.49,2.77v5.13h-2.38v-5.13Z"/><path class="cls-3" d="m122.44,25.35h2.4c.02.66.6,1.1,1.76,1.1,1.22,0,1.74-.5,1.74-1.1,0-.76-.88-.86-1.94-1-1.52-.2-3.75-.46-3.75-2.87,0-2.02,1.54-3.33,3.91-3.33s3.89,1.36,3.95,3.09h-2.36c-.06-.6-.62-1.02-1.56-1.02-1.04,0-1.56.5-1.56,1.08,0,.76.9.88,1.96,1.02,1.32.18,3.73.44,3.73,2.89,0,2-1.62,3.31-4.13,3.31s-4.09-1.34-4.15-3.17Z"/><path class="cls-3" d="m131.5,23.33c0-2.99,2.2-5.19,5.31-5.19s5.31,2.2,5.31,5.19-2.2,5.19-5.31,5.19-5.31-2.2-5.31-5.19Zm8.2,0c0-1.74-1.16-2.97-2.89-2.97s-2.91,1.24-2.91,2.97,1.18,2.97,2.91,2.97,2.89-1.24,2.89-2.97Z"/><path class="cls-3" d="m143.27,22.54c0-2.97,1.76-4.39,4.33-4.39s4.31,1.42,4.31,4.43v.06h-2.35v-.1c0-1.6-.8-2.17-1.96-2.17s-1.96.58-1.96,2.17v5.73h-2.38v-5.73Z"/><path class="cls-9" d="m65.88,23.23c0-3.37,2.52-5.09,4.91-5.09,1.42,0,2.59.6,3.29,1.7v-5.75h2.38v9.16c0,3.19-2.16,5.27-5.25,5.27s-5.33-2.16-5.33-5.29Zm8.2.1c0-1.74-1.16-2.97-2.89-2.97s-2.91,1.24-2.91,2.97,1.18,2.97,2.91,2.97,2.89-1.24,2.89-2.97Z"/><path class="cls-9" d="m77.61,23.33c0-2.99,2.2-5.19,5.31-5.19,2.67,0,4.63,1.62,5.11,3.95h-2.4c-.42-1.06-1.42-1.74-2.71-1.74-1.74,0-2.91,1.24-2.91,2.97s1.18,2.97,2.91,2.97c1.3,0,2.3-.68,2.71-1.74h2.4c-.48,2.33-2.43,3.95-5.11,3.95-3.11,0-5.31-2.2-5.31-5.19Z"/><path class="cls-9" d="m92.64,17.59h-3.89v-2.38h10.34v2.38h-3.89v10.68h-2.55v-10.68Z"/><path class="cls-9" d="m99.8,23.33c0-2.99,2.2-5.19,5.31-5.19s5.27,2.2,5.27,5.19v.84h-8.08c.32,1.44,1.42,2.2,2.81,2.2,1.06,0,1.84-.3,2.34-.94h2.54c-.74,1.88-2.54,3.09-4.87,3.09-3.11,0-5.31-2.2-5.31-5.19Zm8.06-1.06c-.38-1.32-1.46-1.98-2.75-1.98s-2.38.68-2.75,1.98h5.51Z"/><path class="cls-9" d="m111.53,23.13c0-3.29,1.96-4.99,4.87-4.99s4.87,1.68,4.87,4.99v5.13h-2.38v-5.13c0-1.88-1-2.77-2.5-2.77s-2.49.9-2.49,2.77v5.13h-2.38v-5.13Z"/><path class="cls-9" d="m122.44,25.35h2.4c.02.66.6,1.1,1.76,1.1,1.22,0,1.74-.5,1.74-1.1,0-.76-.88-.86-1.94-1-1.52-.2-3.75-.46-3.75-2.87,0-2.02,1.54-3.33,3.91-3.33s3.89,1.36,3.95,3.09h-2.36c-.06-.6-.62-1.02-1.56-1.02-1.04,0-1.56.5-1.56,1.08,0,.76.9.88,1.96,1.02,1.32.18,3.73.44,3.73,2.89,0,2-1.62,3.31-4.13,3.31s-4.09-1.34-4.15-3.17Z"/><path class="cls-9" d="m131.5,23.33c0-2.99,2.2-5.19,5.31-5.19s5.31,2.2,5.31,5.19-2.2,5.19-5.31,5.19-5.31-2.2-5.31-5.19Zm8.2,0c0-1.74-1.16-2.97-2.89-2.97s-2.91,1.24-2.91,2.97,1.18,2.97,2.91,2.97,2.89-1.24,2.89-2.97Z"/><path class="cls-9" d="m143.27,22.54c0-2.97,1.76-4.39,4.33-4.39s4.31,1.42,4.31,4.43v.06h-2.35v-.1c0-1.6-.8-2.17-1.96-2.17s-1.96.58-1.96,2.17v5.73h-2.38v-5.73Z"/><path class="cls-24" d="m65.88,23.23c0-3.37,2.52-5.09,4.91-5.09,1.42,0,2.59.6,3.29,1.7v-5.75h2.38v9.16c0,3.19-2.16,5.27-5.25,5.27s-5.33-2.16-5.33-5.29Zm8.2.1c0-1.74-1.16-2.97-2.89-2.97s-2.91,1.24-2.91,2.97,1.18,2.97,2.91,2.97,2.89-1.24,2.89-2.97Z"/><path class="cls-24" d="m77.61,23.33c0-2.99,2.2-5.19,5.31-5.19,2.67,0,4.63,1.62,5.11,3.95h-2.4c-.42-1.06-1.42-1.74-2.71-1.74-1.74,0-2.91,1.24-2.91,2.97s1.18,2.97,2.91,2.97c1.3,0,2.3-.68,2.71-1.74h2.4c-.48,2.33-2.43,3.95-5.11,3.95-3.11,0-5.31-2.2-5.31-5.19Z"/><path class="cls-24" d="m92.64,17.59h-3.89v-2.38h10.34v2.38h-3.89v10.68h-2.55v-10.68Z"/><path class="cls-24" d="m99.8,23.33c0-2.99,2.2-5.19,5.31-5.19s5.27,2.2,5.27,5.19v.84h-8.08c.32,1.44,1.42,2.2,2.81,2.2,1.06,0,1.84-.3,2.34-.94h2.54c-.74,1.88-2.54,3.09-4.87,3.09-3.11,0-5.31-2.2-5.31-5.19Zm8.06-1.06c-.38-1.32-1.46-1.98-2.75-1.98s-2.38.68-2.75,1.98h5.51Z"/><path class="cls-24" d="m111.53,23.13c0-3.29,1.96-4.99,4.87-4.99s4.87,1.68,4.87,4.99v5.13h-2.38v-5.13c0-1.88-1-2.77-2.5-2.77s-2.49.9-2.49,2.77v5.13h-2.38v-5.13Z"/><path class="cls-24" d="m122.44,25.35h2.4c.02.66.6,1.1,1.76,1.1,1.22,0,1.74-.5,1.74-1.1,0-.76-.88-.86-1.94-1-1.52-.2-3.75-.46-3.75-2.87,0-2.02,1.54-3.33,3.91-3.33s3.89,1.36,3.95,3.09h-2.36c-.06-.6-.62-1.02-1.56-1.02-1.04,0-1.56.5-1.56,1.08,0,.76.9.88,1.96,1.02,1.32.18,3.73.44,3.73,2.89,0,2-1.62,3.31-4.13,3.31s-4.09-1.34-4.15-3.17Z"/><path class="cls-24" d="m131.5,23.33c0-2.99,2.2-5.19,5.31-5.19s5.31,2.2,5.31,5.19-2.2,5.19-5.31,5.19-5.31-2.2-5.31-5.19Zm8.2,0c0-1.74-1.16-2.97-2.89-2.97s-2.91,1.24-2.91,2.97,1.18,2.97,2.91,2.97,2.89-1.24,2.89-2.97Z"/><path class="cls-24" d="m143.27,22.54c0-2.97,1.76-4.39,4.33-4.39s4.31,1.42,4.31,4.43v.06h-2.35v-.1c0-1.6-.8-2.17-1.96-2.17s-1.96.58-1.96,2.17v5.73h-2.38v-5.73Z"/><path class="cls-7" d="m88.98,38.08c-.17.08-.46.23-1.01.23-1.12,0-1.75-.69-1.75-1.72,0-1.11.77-1.76,1.72-1.76.39,0,.72.09,1.05.29l-.21.77c-.14-.1-.35-.26-.76-.26-.58,0-.93.39-.93.94,0,.42.2.95.94.95.49,0,.83-.21.96-.3v.87Z"/><path class="cls-7" d="m89.49,38.22v-3.3h.83v.32c.19-.27.5-.44.97-.4v.79c-.43-.03-.93.05-.93.76v1.84h-.87Z"/><path class="cls-7" d="m91.87,35.14c.38-.2.75-.31,1.18-.31.55,0,.95.18,1.19.46.17.2.24.46.24.86v1.23c0,.45.06.67.13.84h-.82c-.03-.08-.06-.15-.06-.3-.27.26-.61.39-.98.39-.61,0-1.12-.37-1.12-1.04,0-.84.73-1.03,1.33-1.12.58-.09.68-.1.68-.26,0-.14-.14-.29-.55-.29s-.78.14-1.14.36l-.07-.82Zm1.78,1.52c-.15.07-.3.1-.68.15-.34.04-.54.15-.54.43,0,.19.13.35.39.35.19,0,.55-.06.83-.49v-.44Z"/><path class="cls-7" d="m95.12,38.22v-3.3h.83v.32c.08-.1.33-.41.88-.41.58,0,.87.35.97.54.12.25.15.51.15.99v1.86h-.87v-1.89c0-.3,0-.71-.5-.71-.09,0-.6.02-.6.71v1.89h-.87Z"/><path class="cls-7" d="m99.55,37.25v.97h-.96v-.97h.96Z"/><path class="cls-7" d="m100.2,38.22v-3.3h.83v.32c.19-.27.5-.44.97-.4v.79c-.43-.03-.93.05-.93.76v1.84h-.87Z"/><path class="cls-7" d="m103.88,36.15v.83h-1.61v-.83h1.61Z"/><path class="cls-7" d="m105.16,35.24c.11-.12.39-.41.92-.41.93,0,1.45.82,1.45,1.74s-.49,1.74-1.46,1.74c-.44,0-.72-.2-.89-.35v1.73h-.87v-4.77h.84v.32Zm.77,2.28c.46,0,.73-.37.73-.95s-.27-.94-.73-.94c-.17,0-.76.07-.76.94s.58.95.76.95Z"/><path class="cls-7" d="m108,38.22v-3.3h.83v.32c.19-.27.5-.44.97-.4v.79c-.43-.03-.93.05-.93.76v1.84h-.87Z"/><path class="cls-7" d="m111.75,34.83c.88,0,1.64.67,1.64,1.74s-.76,1.74-1.64,1.74-1.63-.66-1.63-1.74.77-1.74,1.63-1.74Zm0,2.68c.5,0,.77-.4.77-.95,0-.94-.71-.94-.77-.94-.26,0-.77.16-.77.94,0,.55.27.95.77.95Z"/><path class="cls-7" d="m115.43,38.27c0,.62,0,1.42-1.06,1.42-.35,0-.58-.1-.73-.17l.06-.75c.1.04.28.13.5.13.32,0,.37-.24.37-.5v-3.47h.87v3.35Zm.04-3.73h-.94v-.89h.94v.89Z"/><path class="cls-7" d="m116.89,36.84c.02.21.08.72.89.72.48,0,.76-.13,1.04-.26v.81c-.17.07-.52.21-1.08.21-1.45,0-1.71-1.11-1.71-1.71,0-1.04.63-1.76,1.54-1.76.33,0,1.03.12,1.35.9.14.34.17.74.17,1.1h-2.19Zm1.33-.62c-.08-.64-.57-.64-.66-.64-.56,0-.64.52-.66.64h1.32Z"/><path class="cls-7" d="m122.23,38.08c-.17.08-.46.23-1.01.23-1.12,0-1.75-.69-1.75-1.72,0-1.11.77-1.76,1.72-1.76.39,0,.72.09,1.05.29l-.21.77c-.14-.1-.35-.26-.76-.26-.58,0-.93.39-.93.94,0,.42.2.95.94.95.49,0,.83-.21.96-.3v.87Z"/><path class="cls-7" d="m122.9,33.96h.87v.96h.88v.79h-.88v1.43c0,.28.07.37.37.37.18,0,.35-.02.46-.04v.78c-.1.01-.36.05-.68.05-1.01,0-1.01-.58-1.01-1.11v-1.49h-.37v-.79h.37v-.96Z"/><path class="cls-7" d="m126.04,37.25v.97h-.96v-.97h.96Z"/><path class="cls-7" d="m128.19,34.83c.88,0,1.64.67,1.64,1.74s-.76,1.74-1.64,1.74-1.63-.66-1.63-1.74.77-1.74,1.63-1.74Zm0,2.68c.5,0,.77-.4.77-.95,0-.94-.71-.94-.77-.94-.26,0-.77.16-.77.94,0,.55.27.95.77.95Z"/><path class="cls-7" d="m130.31,38.22v-3.3h.83v.32c.19-.27.5-.44.97-.4v.79c-.43-.03-.93.05-.93.76v1.84h-.87Z"/><path class="cls-7" d="m135.52,35.59c-.06-.02-.12-.04-.21-.04-.09,0-.15.02-.19.03.03.08.08.21.08.44,0,.78-.67,1.11-1.35,1.11-.09,0-.15,0-.2,0-.07.03-.15.1-.15.19,0,.13.21.15.58.17.75.03,1.49.17,1.49,1.05,0,1-1.11,1.14-1.68,1.14-1.05,0-1.49-.49-1.49-1.06,0-.52.37-.77.49-.84-.1-.07-.26-.2-.26-.45s.21-.43.27-.47c-.41-.32-.41-.77-.41-.87,0-.68.56-1.17,1.37-1.17.4,0,.62.1.73.16.26-.16.51-.16.58-.16.2,0,.29.03.38.07v.69Zm-1.69,2.56c-.32,0-.59.09-.59.41,0,.37.44.42.71.42.17,0,.74-.03.74-.44,0-.31-.36-.39-.86-.39Zm-.54-2.14c0,.28.23.46.53.46s.55-.19.55-.47c0-.24-.18-.47-.53-.47-.31,0-.55.19-.55.49Z"/><path d="m88.98,38.08c-.17.08-.46.23-1.01.23-1.12,0-1.75-.69-1.75-1.72,0-1.11.77-1.76,1.72-1.76.39,0,.72.09,1.05.29l-.21.77c-.14-.1-.35-.26-.76-.26-.58,0-.93.39-.93.94,0,.42.2.95.94.95.49,0,.83-.21.96-.3v.87Z"/><path d="m89.49,38.22v-3.3h.83v.32c.19-.27.5-.44.97-.4v.79c-.43-.03-.93.05-.93.76v1.84h-.87Z"/><path d="m91.87,35.14c.38-.2.75-.31,1.18-.31.55,0,.95.18,1.19.46.17.2.24.46.24.86v1.23c0,.45.06.67.13.84h-.82c-.03-.08-.06-.15-.06-.3-.27.26-.61.39-.98.39-.61,0-1.12-.37-1.12-1.04,0-.84.73-1.03,1.33-1.12.58-.09.68-.1.68-.26,0-.14-.14-.29-.55-.29s-.78.14-1.14.36l-.07-.82Zm1.78,1.52c-.15.07-.3.1-.68.15-.34.04-.54.15-.54.43,0,.19.13.35.39.35.19,0,.55-.06.83-.49v-.44Z"/><path d="m95.12,38.22v-3.3h.83v.32c.08-.1.33-.41.88-.41.58,0,.87.35.97.54.12.25.15.51.15.99v1.86h-.87v-1.89c0-.3,0-.71-.5-.71-.09,0-.6.02-.6.71v1.89h-.87Z"/><path d="m99.55,37.25v.97h-.96v-.97h.96Z"/><path d="m100.2,38.22v-3.3h.83v.32c.19-.27.5-.44.97-.4v.79c-.43-.03-.93.05-.93.76v1.84h-.87Z"/><path d="m103.88,36.15v.83h-1.61v-.83h1.61Z"/><path d="m105.16,35.24c.11-.12.39-.41.92-.41.93,0,1.45.82,1.45,1.74s-.49,1.74-1.46,1.74c-.44,0-.72-.2-.89-.35v1.73h-.87v-4.77h.84v.32Zm.77,2.28c.46,0,.73-.37.73-.95s-.27-.94-.73-.94c-.17,0-.76.07-.76.94s.58.95.76.95Z"/><path d="m108,38.22v-3.3h.83v.32c.19-.27.5-.44.97-.4v.79c-.43-.03-.93.05-.93.76v1.84h-.87Z"/><path d="m111.75,34.83c.88,0,1.64.67,1.64,1.74s-.76,1.74-1.64,1.74-1.63-.66-1.63-1.74.77-1.74,1.63-1.74Zm0,2.68c.5,0,.77-.4.77-.95,0-.94-.71-.94-.77-.94-.26,0-.77.16-.77.94,0,.55.27.95.77.95Z"/><path d="m115.43,38.27c0,.62,0,1.42-1.06,1.42-.35,0-.58-.1-.73-.17l.06-.75c.1.04.28.13.5.13.32,0,.37-.24.37-.5v-3.47h.87v3.35Zm.04-3.73h-.94v-.89h.94v.89Z"/><path d="m116.89,36.84c.02.21.08.72.89.72.48,0,.76-.13,1.04-.26v.81c-.17.07-.52.21-1.08.21-1.45,0-1.71-1.11-1.71-1.71,0-1.04.63-1.76,1.54-1.76.33,0,1.03.12,1.35.9.14.34.17.74.17,1.1h-2.19Zm1.33-.62c-.08-.64-.57-.64-.66-.64-.56,0-.64.52-.66.64h1.32Z"/><path d="m122.23,38.08c-.17.08-.46.23-1.01.23-1.12,0-1.75-.69-1.75-1.72,0-1.11.77-1.76,1.72-1.76.39,0,.72.09,1.05.29l-.21.77c-.14-.1-.35-.26-.76-.26-.58,0-.93.39-.93.94,0,.42.2.95.94.95.49,0,.83-.21.96-.3v.87Z"/><path d="m122.9,33.96h.87v.96h.88v.79h-.88v1.43c0,.28.07.37.37.37.18,0,.35-.02.46-.04v.78c-.1.01-.36.05-.68.05-1.01,0-1.01-.58-1.01-1.11v-1.49h-.37v-.79h.37v-.96Z"/><path d="m126.04,37.25v.97h-.96v-.97h.96Z"/><path d="m128.19,34.83c.88,0,1.64.67,1.64,1.74s-.76,1.74-1.64,1.74-1.63-.66-1.63-1.74.77-1.74,1.63-1.74Zm0,2.68c.5,0,.77-.4.77-.95,0-.94-.71-.94-.77-.94-.26,0-.77.16-.77.94,0,.55.27.95.77.95Z"/><path d="m130.31,38.22v-3.3h.83v.32c.19-.27.5-.44.97-.4v.79c-.43-.03-.93.05-.93.76v1.84h-.87Z"/><path d="m135.52,35.59c-.06-.02-.12-.04-.21-.04-.09,0-.15.02-.19.03.03.08.08.21.08.44,0,.78-.67,1.11-1.35,1.11-.09,0-.15,0-.2,0-.07.03-.15.1-.15.19,0,.13.21.15.58.17.75.03,1.49.17,1.49,1.05,0,1-1.11,1.14-1.68,1.14-1.05,0-1.49-.49-1.49-1.06,0-.52.37-.77.49-.84-.1-.07-.26-.2-.26-.45s.21-.43.27-.47c-.41-.32-.41-.77-.41-.87,0-.68.56-1.17,1.37-1.17.4,0,.62.1.73.16.26-.16.51-.16.58-.16.2,0,.29.03.38.07v.69Zm-1.69,2.56c-.32,0-.59.09-.59.41,0,.37.44.42.71.42.17,0,.74-.03.74-.44,0-.31-.36-.39-.86-.39Zm-.54-2.14c0,.28.23.46.53.46s.55-.19.55-.47c0-.24-.18-.47-.53-.47-.31,0-.55.19-.55.49Z"/><path class="cls-17" d="m88.98,38.08c-.17.08-.46.23-1.01.23-1.12,0-1.75-.69-1.75-1.72,0-1.11.77-1.76,1.72-1.76.39,0,.72.09,1.05.29l-.21.77c-.14-.1-.35-.26-.76-.26-.58,0-.93.39-.93.94,0,.42.2.95.94.95.49,0,.83-.21.96-.3v.87Z"/><path class="cls-17" d="m89.49,38.22v-3.3h.83v.32c.19-.27.5-.44.97-.4v.79c-.43-.03-.93.05-.93.76v1.84h-.87Z"/><path class="cls-17" d="m91.87,35.14c.38-.2.75-.31,1.18-.31.55,0,.95.18,1.19.46.17.2.24.46.24.86v1.23c0,.45.06.67.13.84h-.82c-.03-.08-.06-.15-.06-.3-.27.26-.61.39-.98.39-.61,0-1.12-.37-1.12-1.04,0-.84.73-1.03,1.33-1.12.58-.09.68-.1.68-.26,0-.14-.14-.29-.55-.29s-.78.14-1.14.36l-.07-.82Zm1.78,1.52c-.15.07-.3.1-.68.15-.34.04-.54.15-.54.43,0,.19.13.35.39.35.19,0,.55-.06.83-.49v-.44Z"/><path class="cls-17" d="m95.12,38.22v-3.3h.83v.32c.08-.1.33-.41.88-.41.58,0,.87.35.97.54.12.25.15.51.15.99v1.86h-.87v-1.89c0-.3,0-.71-.5-.71-.09,0-.6.02-.6.71v1.89h-.87Z"/><path class="cls-17" d="m99.55,37.25v.97h-.96v-.97h.96Z"/><path class="cls-17" d="m100.2,38.22v-3.3h.83v.32c.19-.27.5-.44.97-.4v.79c-.43-.03-.93.05-.93.76v1.84h-.87Z"/><path class="cls-17" d="m103.88,36.15v.83h-1.61v-.83h1.61Z"/><path class="cls-17" d="m105.16,35.24c.11-.12.39-.41.92-.41.93,0,1.45.82,1.45,1.74s-.49,1.74-1.46,1.74c-.44,0-.72-.2-.89-.35v1.73h-.87v-4.77h.84v.32Zm.77,2.28c.46,0,.73-.37.73-.95s-.27-.94-.73-.94c-.17,0-.76.07-.76.94s.58.95.76.95Z"/><path class="cls-17" d="m108,38.22v-3.3h.83v.32c.19-.27.5-.44.97-.4v.79c-.43-.03-.93.05-.93.76v1.84h-.87Z"/><path class="cls-17" d="m111.75,34.83c.88,0,1.64.67,1.64,1.74s-.76,1.74-1.64,1.74-1.63-.66-1.63-1.74.77-1.74,1.63-1.74Zm0,2.68c.5,0,.77-.4.77-.95,0-.94-.71-.94-.77-.94-.26,0-.77.16-.77.94,0,.55.27.95.77.95Z"/><path class="cls-17" d="m115.43,38.27c0,.62,0,1.42-1.06,1.42-.35,0-.58-.1-.73-.17l.06-.75c.1.04.28.13.5.13.32,0,.37-.24.37-.5v-3.47h.87v3.35Zm.04-3.73h-.94v-.89h.94v.89Z"/><path class="cls-17" d="m116.89,36.84c.02.21.08.72.89.72.48,0,.76-.13,1.04-.26v.81c-.17.07-.52.21-1.08.21-1.45,0-1.71-1.11-1.71-1.71,0-1.04.63-1.76,1.54-1.76.33,0,1.03.12,1.35.9.14.34.17.74.17,1.1h-2.19Zm1.33-.62c-.08-.64-.57-.64-.66-.64-.56,0-.64.52-.66.64h1.32Z"/><path class="cls-17" d="m122.23,38.08c-.17.08-.46.23-1.01.23-1.12,0-1.75-.69-1.75-1.72,0-1.11.77-1.76,1.72-1.76.39,0,.72.09,1.05.29l-.21.77c-.14-.1-.35-.26-.76-.26-.58,0-.93.39-.93.94,0,.42.2.95.94.95.49,0,.83-.21.96-.3v.87Z"/><path class="cls-17" d="m122.9,33.96h.87v.96h.88v.79h-.88v1.43c0,.28.07.37.37.37.18,0,.35-.02.46-.04v.78c-.1.01-.36.05-.68.05-1.01,0-1.01-.58-1.01-1.11v-1.49h-.37v-.79h.37v-.96Z"/><path class="cls-17" d="m126.04,37.25v.97h-.96v-.97h.96Z"/><path class="cls-17" d="m128.19,34.83c.88,0,1.64.67,1.64,1.74s-.76,1.74-1.64,1.74-1.63-.66-1.63-1.74.77-1.74,1.63-1.74Zm0,2.68c.5,0,.77-.4.77-.95,0-.94-.71-.94-.77-.94-.26,0-.77.16-.77.94,0,.55.27.95.77.95Z"/><path class="cls-17" d="m130.31,38.22v-3.3h.83v.32c.19-.27.5-.44.97-.4v.79c-.43-.03-.93.05-.93.76v1.84h-.87Z"/><path class="cls-17" d="m135.52,35.59c-.06-.02-.12-.04-.21-.04-.09,0-.15.02-.19.03.03.08.08.21.08.44,0,.78-.67,1.11-1.35,1.11-.09,0-.15,0-.2,0-.07.03-.15.1-.15.19,0,.13.21.15.58.17.75.03,1.49.17,1.49,1.05,0,1-1.11,1.14-1.68,1.14-1.05,0-1.49-.49-1.49-1.06,0-.52.37-.77.49-.84-.1-.07-.26-.2-.26-.45s.21-.43.27-.47c-.41-.32-.41-.77-.41-.87,0-.68.56-1.17,1.37-1.17.4,0,.62.1.73.16.26-.16.51-.16.58-.16.2,0,.29.03.38.07v.69Zm-1.69,2.56c-.32,0-.59.09-.59.41,0,.37.44.42.71.42.17,0,.74-.03.74-.44,0-.31-.36-.39-.86-.39Zm-.54-2.14c0,.28.23.46.53.46s.55-.19.55-.47c0-.24-.18-.47-.53-.47-.31,0-.55.19-.55.49Z"/><g class="cls-6"><g class="cls-2"><path class="cls-8" d="m24.88.33c-.43,0-1.04.15-1.04.15L2.15,7.95s-.93.49-1.38,1.09-.42,1.3-.42,1.3v30.61s-.1.73.17,1.22.64.63.64.63l21.95,9.24s.76.28,1.77.28h.06c1,0,1.77-.28,1.77-.28l21.95-9.24s.36-.14.64-.63.17-1.22.17-1.22V10.35s.03-.7-.42-1.3-1.38-1.09-1.38-1.09L25.98.48s-.61-.15-1.04-.15h-.06Z"/><path class="cls-23" d="m24.93,52.65h-.06c-1.05,0-1.84-.29-1.88-.3L1.03,43.11s-.47-.19-.8-.77c-.3-.53-.24-1.24-.22-1.4V10.35s-.03-.81.48-1.5c.49-.66,1.45-1.17,1.49-1.19l.04-.02L23.72.17c.06-.02.69-.17,1.15-.17h.06c.46,0,1.09.15,1.12.16l21.76,7.5s1,.53,1.49,1.19c.52.69.48,1.48.48,1.52v30.58c.02.16.09.87-.22,1.4-.33.57-.76.75-.8.77l-21.94,9.24s-.85.3-1.89.3Zm-1.7-.91s.72.25,1.64.25h.06c.93,0,1.65-.26,1.65-.26l21.93-9.24s.27-.12.48-.49c.18-.32.16-.83.13-1.01v-.05s0-30.61,0-30.61c0-.02.02-.61-.35-1.11-.37-.49-1.12-.92-1.25-.99L25.87.79h0s-.56-.13-.94-.13h-.06c-.32,0-.81.1-.97.14L2.28,8.25c-.13.07-.88.5-1.25.99-.37.5-.35,1.09-.35,1.09v30.65s0,.02,0,.02c-.02.17-.05.69.13,1.01.21.37.46.48.48.48l21.95,9.25h0Z"/><g class="cls-2"><path class="cls-13" d="m23.64,5.75l-5.39-1.88c-.42-.14-.4-.38.02-.53l5.3-1.85c.41-.14,1.09-.15,1.51-.01l5.43,1.77c.44.14.46.39.05.54l-5.34,1.95c-.43.16-1.14.16-1.58,0Z"/><path class="cls-13" d="m31.8,8.6l-5.79-2.01c-.45-.16-.46-.41-.02-.57l5.34-1.96c.41-.15,1.12-.16,1.57-.01l5.82,1.9c.47.15.52.41.11.57l-5.37,2.08c-.43.17-1.18.17-1.65,0Z"/><path class="cls-13" d="m40.6,11.65l-6.23-2.17c-.48-.17-.51-.44-.08-.61l5.38-2.09c.42-.16,1.15-.17,1.63,0l6.25,2.04c.51.17.59.44.17.61l-5.4,2.22c-.44.18-1.21.18-1.72,0Z"/><path class="cls-13" d="m15.89,8.57l-5.34-1.99c-.41-.15-.38-.41.07-.57l5.58-1.95c.43-.15,1.12-.16,1.54-.01l5.39,1.88c.44.15.44.41,0,.57l-5.63,2.06c-.45.17-1.18.17-1.62,0Z"/><path class="cls-13" d="m24,11.6l-5.75-2.15c-.44-.17-.43-.44.03-.6l5.63-2.07c.44-.16,1.16-.16,1.6,0l5.79,2.02c.47.16.5.44.06.61l-5.67,2.2c-.46.18-1.22.18-1.69,0Z"/><path class="cls-13" d="m32.73,14.86l-6.2-2.32c-.48-.18-.49-.47-.03-.65l5.68-2.21c.44-.17,1.19-.17,1.67,0l6.23,2.18c.51.18.56.47.12.65l-5.71,2.35c-.46.19-1.26.19-1.76,0Z"/><path class="cls-18" d="m7.72,11.54l-5.27-2.12c-.41-.16-.35-.43.13-.6l5.88-2.05c.46-.16,1.16-.16,1.57,0l5.34,2c.43.16.41.43-.05.6l-5.94,2.17c-.48.18-1.23.18-1.66,0Z"/><path class="cls-13" d="m15.74,14.77l-5.69-2.29c-.44-.18-.4-.46.08-.64l5.95-2.19c.46-.17,1.2-.17,1.64,0l5.74,2.16c.47.18.47.47,0,.65l-6,2.32c-.49.19-1.26.19-1.73,0Z"/><path class="cls-13" d="m24.4,18.26l-6.15-2.48c-.47-.19-.46-.5.03-.69l6.01-2.34c.46-.18,1.23-.18,1.71,0l6.2,2.33c.5.19.54.5.07.69l-6.05,2.49c-.49.2-1.3.2-1.81,0Z"/><path class="cls-13" d="m7.95,22.53l-5.64-2.34c-.45-.19-.81-.85-.81-1.48v-7.98c0-.63.36-1,.81-.81l5.64,2.34c.45.19.81.85.81,1.48v7.98c0,.63-.36,1-.81.81Z"/><path class="cls-13" d="m15.98,25.87l-5.64-2.34c-.45-.19-.81-.85-.81-1.48v-7.98c0-.63.36-1,.81-.81l5.64,2.34c.45.19.81.85.81,1.48v7.98c0,.63-.36,1-.81.81Z"/><path class="cls-18" d="m24.02,29.21l-5.64-2.34c-.45-.19-.81-.85-.81-1.48v-7.98c0-.63.36-1,.81-.81l5.64,2.34c.45.19.81.85.81,1.48v7.98c0,.63-.36,1-.81.81Z"/><path class="cls-12" d="m7.95,33.54l-5.64-2.34c-.45-.19-.81-.85-.81-1.48v-7.98c0-.63.36-1,.81-.81l5.64,2.34c.45.19.81.85.81,1.48v7.98c0,.63-.36,1-.81.81Z"/><path class="cls-12" d="m15.98,36.88l-5.64-2.34c-.45-.19-.81-.85-.81-1.48v-7.98c0-.63.36-1,.81-.81l5.64,2.34c.45.19.81.85.81,1.48v7.98c0,.63-.36,1-.81.81Z"/><path class="cls-12" d="m24.02,40.22l-5.64-2.34c-.45-.19-.81-.85-.81-1.48v-7.98c0-.63.36-1,.81-.81l5.64,2.34c.45.19.81.85.81,1.48v7.98c0,.63-.36,1-.81.81Z"/><path class="cls-18" d="m7.95,44.54l-5.64-2.34c-.45-.19-.81-.85-.81-1.48v-7.98c0-.63.36-1,.81-.81l5.64,2.34c.45.19.81.85.81,1.48v7.98c0,.63-.36,1-.81.81Z"/><path class="cls-16" d="m15.98,47.88l-5.64-2.34c-.45-.19-.81-.85-.81-1.48v-7.98c0-.63.36-1,.81-.81l5.64,2.34c.45.19.81.85.81,1.48v7.98c0,.63-.36,1-.81.81Z"/><path class="cls-16" d="m24.02,51.22l-5.64-2.34c-.45-.19-.81-.85-.81-1.48v-7.98c0-.63.36-1,.81-.81l5.64,2.34c.45.19.81.85.81,1.48v7.98c0,.63-.36,1-.81.81Z"/><path class="cls-13" d="m42.52,22.53l5.64-2.34c.45-.19.81-.85.81-1.48v-7.98c0-.63-.36-1-.81-.81l-5.64,2.34c-.45.19-.81.85-.81,1.48v7.98c0,.63.36,1,.81.81Z"/><path class="cls-13" d="m34.49,25.87l5.64-2.34c.45-.19.81-.85.81-1.48v-7.98c0-.63-.36-1-.81-.81l-5.64,2.34c-.45.19-.81.85-.81,1.48v7.98c0,.63.36,1,.81.81Z"/><path class="cls-13" d="m26.45,29.21l5.64-2.34c.45-.19.81-.85.81-1.48v-7.98c0-.63-.36-1-.81-.81l-5.64,2.34c-.45.19-.81.85-.81,1.48v7.98c0,.63.36,1,.81.81Z"/><path class="cls-12" d="m42.52,33.54l5.64-2.34c.45-.19.81-.85.81-1.48v-7.98c0-.63-.36-1-.81-.81l-5.64,2.34c-.45.19-.81.85-.81,1.48v7.98c0,.63.36,1,.81.81Z"/><path class="cls-18" d="m34.49,36.88l5.64-2.34c.45-.19.81-.85.81-1.48v-7.98c0-.63-.36-1-.81-.81l-5.64,2.34c-.45.19-.81.85-.81,1.48v7.98c0,.63.36,1,.81.81Z"/><path class="cls-12" d="m26.45,40.22l5.64-2.34c.45-.19.81-.85.81-1.48v-7.98c0-.63-.36-1-.81-.81l-5.64,2.34c-.45.19-.81.85-.81,1.48v7.98c0,.63.36,1,.81.81Z"/><path class="cls-18" d="m42.52,44.54l5.64-2.34c.45-.19.81-.85.81-1.48v-7.98c0-.63-.36-1-.81-.81l-5.64,2.34c-.45.19-.81.85-.81,1.48v7.98c0,.63.36,1,.81.81Z"/><path class="cls-16" d="m34.49,47.88l5.64-2.34c.45-.19.81-.85.81-1.48v-7.98c0-.63-.36-1-.81-.81l-5.64,2.34c-.45.19-.81.85-.81,1.48v7.98c0,.63.36,1,.81.81Z"/><path class="cls-16" d="m26.45,51.22l5.64-2.34c.45-.19.81-.85.81-1.48v-7.98c0-.63-.36-1-.81-.81l-5.64,2.34c-.45.19-.81.85-.81,1.48v7.98c0,.63.36,1,.81.81Z"/></g></g><g class="cls-1"><path class="cls-14" d="m24.29,8.69c-.12,0-.3.04-.3.04l-6.21,2.14s-.27.14-.4.31-.12.37-.12.37v8.77s-.03.21.05.35.18.18.18.18l6.29,2.65s.22.08.51.08h.02c.29,0,.51-.08.51-.08l6.29-2.65s.1-.04.18-.18.05-.35.05-.35v-8.77s0-.2-.12-.37-.4-.31-.4-.31l-6.21-2.14s-.18-.04-.3-.04h-.02Z"/></g><g class="cls-1"><path class="cls-14" d="m24.29,8.69c-.12,0-.3.04-.3.04l-6.21,2.14s-.27.14-.4.31-.12.37-.12.37v8.77s-.03.21.05.35.18.18.18.18l6.29,2.65s.22.08.51.08h.02c.29,0,.51-.08.51-.08l6.29-2.65s.1-.04.18-.18.05-.35.05-.35v-8.77s0-.2-.12-.37-.4-.31-.4-.31l-6.21-2.14s-.18-.04-.3-.04h-.02Z"/><path d="m24.3,23.93c-.36,0-.61-.09-.64-.1l-6.3-2.65s-.22-.1-.35-.33c-.12-.2-.11-.45-.1-.54v-8.75s0-.32.19-.58c.17-.23.46-.38.51-.41l.05-.02,6.21-2.14c.07-.02.26-.06.41-.06h.02c.16,0,.34.04.38.05l6.29,2.17c.06.03.35.19.51.41.19.26.19.54.19.6v8.73c0,.09.02.34-.1.54-.13.23-.31.31-.36.33l-6.28,2.64s-.3.11-.64.11Zm-.39-.75s.17.05.37.05c.23,0,.4-.06.4-.06l6.27-2.64s0,0,.02-.03c.01-.02.01-.1,0-.13v-.05s0-8.77,0-8.77c0-.01,0-.1-.05-.17-.05-.07-.17-.15-.26-.2l-6.18-2.13s-.13-.02-.19-.02h-.02c-.06,0-.16.02-.22.03l-6.15,2.12c-.08.05-.21.13-.26.2-.05.06-.05.15-.05.15v8.81s0,.02,0,.02c0,.04,0,.11,0,.13.01.03.03.04.03.04l6.27,2.64h0Z"/></g><g class="cls-1"><path class="cls-15" d="m38.46,18.73c-.12,0-.3.04-.3.04l-6.21,2.14s-.27.14-.4.31-.12.37-.12.37v8.77s-.03.21.05.35.18.18.18.18l6.29,2.65s.22.08.51.08h.02c.29,0,.51-.08.51-.08l6.29-2.65s.1-.04.18-.18.05-.35.05-.35v-8.77s0-.2-.12-.37-.4-.31-.4-.31l-6.21-2.14s-.18-.04-.3-.04h-.02Z"/><path class="cls-15" d="m38.48,33.97c-.36,0-.61-.09-.64-.1l-6.3-2.65s-.22-.1-.35-.33c-.12-.2-.11-.45-.1-.54v-8.75s0-.32.19-.58c.17-.23.46-.38.51-.41l.05-.02,6.21-2.14c.07-.02.26-.06.41-.06h.02c.16,0,.34.04.38.05l6.29,2.17c.06.03.35.19.51.41.19.26.19.54.19.6v8.73c0,.09.02.34-.1.54-.13.23-.31.31-.36.33l-6.28,2.64s-.3.11-.64.11Zm-.39-.75s.17.05.37.05c.23,0,.4-.06.4-.06l6.27-2.64s0,0,.02-.03c.01-.02.01-.1,0-.13v-.05s0-8.77,0-8.77c0-.01,0-.1-.05-.17-.05-.07-.17-.15-.26-.2l-6.18-2.13s-.13-.02-.19-.02h-.02c-.06,0-.16.02-.22.03l-6.15,2.12c-.08.05-.21.13-.26.2-.05.06-.05.15-.05.15v8.81s0,.02,0,.02c0,.04,0,.11,0,.13.01.03.03.04.03.04l6.27,2.64h0Z"/></g><polygon class="cls-17" points="31.53 21.23 38.45 23.83 38.44 33.63 31.46 30.72 31.53 21.23"/><polygon class="cls-17" points="45.5 21.23 38.45 23.83 38.44 33.63 45.43 30.72 45.5 21.23"/><polygon class="cls-17" points="45.5 21.23 38.45 23.83 31.46 21.29 38.45 18.73 45.5 21.23"/><polygon class="cls-8" points="17.38 11.19 24.3 13.79 24.29 23.58 17.31 20.68 17.38 11.19"/><polygon class="cls-8" points="31.35 11.19 24.3 13.79 24.29 23.58 31.28 20.68 31.35 11.19"/><polygon class="cls-8" points="31.35 11.19 24.3 13.79 17.31 11.25 24.3 8.69 31.35 11.19"/><path class="cls-11" d="m31.33,11.51l-.25-.65-6.78,2.56-6.8-2.56-.25.65,6.7,2.52v9.55h.7v-9.55l6.68-2.52Zm-7.03,2.28h0s0,0,0,0Z"/><path class="cls-11" d="m45.51,21.55l-.25-.65-6.78,2.56-6.8-2.56-.25.65,6.7,2.52v9.55h.7v-9.55l6.68-2.52Zm-7.03,2.28h0s0,0,0,0Z"/><path class="cls-21" d="m24.3,23.93c-.36,0-.61-.09-.64-.1l-6.3-2.65s-.22-.1-.35-.33c-.12-.2-.11-.45-.1-.54v-8.75s0-.32.19-.58c.17-.23.46-.38.51-.41l.05-.02,6.21-2.14c.07-.02.26-.06.41-.06h.02c.16,0,.34.04.38.05l6.29,2.17c.06.03.35.19.51.41.19.26.19.54.19.6v8.73c0,.09.02.34-.1.54-.13.23-.31.31-.36.33l-6.28,2.64s-.3.11-.64.11Zm-.39-.75s.17.05.37.05c.23,0,.4-.06.4-.06l6.27-2.64s0,0,.02-.03c.01-.02.01-.1,0-.13v-.05s0-8.77,0-8.77c0-.01,0-.1-.05-.17-.05-.07-.17-.15-.26-.2l-6.18-2.13s-.13-.02-.19-.02h-.02c-.06,0-.16.02-.22.03l-6.15,2.12c-.08.05-.21.13-.26.2-.05.06-.05.15-.05.15v8.81s0,.02,0,.02c0,.04,0,.11,0,.13.01.03.03.04.03.04l6.27,2.64h0Z"/><path class="cls-22" d="m38.49,33.97c-.36,0-.61-.09-.64-.1l-6.3-2.65s-.22-.1-.35-.33c-.12-.2-.11-.45-.1-.54v-8.75s0-.32.19-.58c.17-.23.46-.38.51-.41l.05-.02,6.21-2.14c.07-.02.26-.06.41-.06h.02c.16,0,.34.04.38.05l6.29,2.17c.06.03.35.19.51.41.19.26.19.54.19.6v8.73c0,.09.02.34-.1.54-.13.23-.31.31-.36.33l-6.28,2.64s-.3.11-.64.11Zm-.39-.75s.17.05.37.05c.23,0,.4-.06.4-.06l6.27-2.64s0,0,.02-.03c.01-.02.01-.1,0-.13v-.05s0-8.77,0-8.77c0-.01,0-.1-.05-.17-.05-.07-.17-.15-.26-.2l-6.18-2.13s-.13-.02-.19-.02h-.02c-.06,0-.16.02-.22.03l-6.15,2.12c-.08.05-.21.13-.26.2-.05.06-.05.15-.05.15v8.81s0,.02,0,.02c0,.04,0,.11,0,.13.01.03.03.04.03.04l6.27,2.64h0Z"/><g class="cls-1"><path class="cls-19" d="m52.75,28.5c-.12,0-.3.04-.3.04l-6.21,2.14s-.27.14-.4.31-.12.37-.12.37v8.77s-.03.21.05.35.18.18.18.18l6.29,2.65s.22.08.51.08h.02c.29,0,.51-.08.51-.08l6.29-2.65s.1-.04.18-.18.05-.35.05-.35v-8.77s0-.2-.12-.37-.4-.31-.4-.31l-6.21-2.14s-.18-.04-.3-.04h-.02Z"/><path class="cls-19" d="m52.76,43.74c-.36,0-.61-.09-.64-.1l-6.3-2.65s-.22-.1-.35-.33c-.12-.2-.11-.45-.1-.54v-8.75s0-.32.19-.58c.17-.23.46-.38.51-.41l.05-.02,6.21-2.14c.07-.02.26-.06.41-.06h.02c.16,0,.34.04.38.05l6.29,2.17c.06.03.35.19.51.41.19.26.19.54.19.6v8.73c0,.09.02.34-.1.54-.13.23-.31.31-.36.33l-6.28,2.64s-.3.11-.64.11Zm-.39-.75s.17.05.37.05c.23,0,.4-.06.4-.06l6.27-2.64s0,0,.02-.03c.01-.02.01-.1,0-.13v-.05s0-8.77,0-8.77c0-.01,0-.1-.05-.17-.05-.07-.17-.15-.26-.2l-6.18-2.13s-.13-.02-.19-.02h-.02c-.06,0-.16.02-.22.03l-6.15,2.12c-.08.05-.21.13-.26.2-.05.06-.05.15-.05.15v8.81s0,.02,0,.02c0,.04,0,.11,0,.13.01.03.03.04.03.04l6.27,2.64h0Z"/></g><polygon class="cls-10" points="45.81 30.99 52.74 33.6 52.72 43.39 45.75 40.48 45.81 30.99"/><polygon class="cls-10" points="59.78 30.99 52.74 33.6 52.72 43.39 59.71 40.48 59.78 30.99"/><polygon class="cls-10" points="59.78 30.99 52.74 33.6 45.74 31.05 52.74 28.5 59.78 30.99"/><path class="cls-11" d="m59.79,31.32l-.25-.65-6.78,2.56-6.8-2.56-.25.65,6.7,2.52v9.55h.7v-9.55l6.68-2.52Zm-7.03,2.28h0s0,0,0,0Z"/><path class="cls-20" d="m52.77,43.74c-.36,0-.61-.09-.64-.1l-6.3-2.65s-.22-.1-.35-.33c-.12-.2-.11-.45-.1-.54v-8.75s0-.32.19-.58c.17-.23.46-.38.51-.41l.05-.02,6.21-2.14c.07-.02.26-.06.41-.06h.02c.16,0,.34.04.38.05l6.29,2.17c.06.03.35.19.51.41.19.26.19.54.19.6v8.73c0,.09.02.34-.1.54-.13.23-.31.31-.36.33l-6.28,2.64s-.3.11-.64.11Zm-.39-.75s.17.05.37.05c.23,0,.4-.06.4-.06l6.27-2.64s0,0,.02-.03c.01-.02.01-.1,0-.13v-.05s0-8.77,0-8.77c0-.01,0-.1-.05-.17-.05-.07-.17-.15-.26-.2l-6.18-2.13s-.13-.02-.19-.02h-.02c-.06,0-.16.02-.22.03l-6.15,2.12c-.08.05-.21.13-.26.2-.05.06-.05.15-.05.15v8.81s0,.02,0,.02c0,.04,0,.11,0,.13.01.03.03.04.03.04l6.27,2.64h0Z"/></g></g></g></g></svg>