<?xml version="1.0" encoding="UTF-8"?><svg id="_レイヤー_2" xmlns="http://www.w3.org/2000/svg" viewBox="0 0 179.52 48.23"><defs><style>.cls-1{fill:#040000;}.cls-2{fill:#7b579b;}.cls-3{stroke:#fff;stroke-width:13.34px;}.cls-3,.cls-4{fill:none;stroke-linecap:round;stroke-linejoin:round;}.cls-4{stroke:#231815;stroke-width:7px;}</style></defs><g id="_レイヤー_1-2"><path class="cls-3" d="m1.95,33.38c-.28-.28-.42-.69-.42-1.22v-1.53c0-.53.14-.94.42-1.22.28-.28.69-.42,1.22-.42h7.14c.33,0,.63-.06.92-.19.29-.13.52-.34.7-.63.17-.29.26-.66.26-1.1v-1.29c0-.3-.06-.52-.17-.66-.12-.14-.24-.21-.38-.21s-.29.05-.45.14c-.16.09-.33.2-.49.31-.23.19-.46.34-.68.45s-.45.17-.68.17h-4.43c-1.04,0-1.93-.19-2.67-.56-.73-.37-1.29-.92-1.67-1.66-.38-.73-.58-1.63-.58-2.7v-9.58c0-1.67.44-2.96,1.32-3.87.88-.91,2.17-1.36,3.87-1.36h10.91c.53,0,.95.14,1.24.42.29.28.44.69.44,1.22v20.59c0,1.14-.2,2.1-.61,2.89-.41.79-1,1.39-1.79,1.79-.79.41-1.74.61-2.86.61H3.17c-.53,0-.94-.14-1.22-.42Zm9.32-13.05c.27-.15.49-.39.66-.71.17-.33.26-.72.26-1.19v-5.82c0-.26-.07-.46-.21-.61-.14-.15-.35-.23-.63-.23h-3.8c-.58,0-1.06.17-1.43.52-.37.35-.56.86-.56,1.53v4.7c0,.4.06.74.17,1.05.12.3.31.54.58.71.27.17.6.26.99.26h3.14c.28,0,.55-.07.82-.23Z"/><path class="cls-3" d="m38.24,6.71c.29.29.44.69.44,1.2v17.53c0,.53-.15.96-.44,1.27-.29.31-.69.47-1.2.47h-3c-.26,0-.45-.05-.58-.14-.13-.09-.23-.22-.3-.38l-.04-.1c-.12-.23-.21-.39-.3-.47-.08-.08-.18-.12-.3-.12s-.25.05-.4.14c-.15.09-.3.2-.44.31-.33.26-.62.45-.87.57-.26.13-.56.19-.91.19h-4.22c-1.58,0-2.78-.45-3.59-1.34-.81-.89-1.22-2.18-1.22-3.85V7.91c0-.53.14-.94.42-1.22.28-.28.69-.42,1.22-.42h2.3c.51,0,.91.15,1.2.44s.44.69.44,1.2v11.85c0,.6.15,1.06.44,1.38.29.31.67.47,1.13.47h3.45c.49,0,.88-.16,1.17-.47.29-.31.44-.77.44-1.38V7.91c0-.51.14-.91.42-1.2.28-.29.69-.44,1.22-.44h2.3c.51,0,.91.15,1.2.44Z"/><path class="cls-3" d="m42.58,3.75c-.28-.29-.42-.7-.42-1.24v-.87c0-.53.14-.94.44-1.22.29-.28.69-.42,1.2-.42h2.23c.53,0,.94.14,1.22.42.28.28.42.69.42,1.22v.87c0,.53-.14.95-.42,1.24-.28.29-.69.44-1.22.44h-2.23c-.53,0-.94-.14-1.22-.44Zm.02,23c-.29-.29-.44-.69-.44-1.2V7.91c0-.53.14-.94.44-1.22.29-.28.69-.42,1.2-.42h2.23c.53,0,.94.14,1.22.42.28.28.42.69.42,1.22v17.63c0,.53-.14.94-.42,1.22-.28.28-.69.42-1.22.42h-2.23c-.51,0-.91-.15-1.2-.44Z"/><path class="cls-3" d="m53.04,26.57c-.74-.41-1.3-1-1.67-1.78-.37-.78-.56-1.74-.56-2.87v-10.49c0-1.58.44-2.83,1.32-3.76.88-.93,2.13-1.39,3.73-1.39h6.31c.25,0,.46-.07.61-.21s.23-.34.23-.59v-2.47c0-.49.1-.88.3-1.19.2-.3.52-.53.96-.7l2.4-.91c.58-.23,1.04-.23,1.39,0,.35.23.52.65.52,1.25v24.08c0,.53-.15.94-.44,1.22-.29.28-.7.42-1.24.42h-2.27c-.26,0-.45-.05-.57-.14-.13-.09-.23-.22-.3-.38l-.03-.1c-.09-.23-.19-.39-.28-.47-.09-.08-.2-.12-.31-.12s-.25.05-.4.14c-.15.09-.3.2-.44.31-.33.26-.62.45-.87.57-.26.13-.56.19-.91.19h-4.74c-1.09,0-2.01-.2-2.75-.61Zm9.27-5.05c.25-.15.44-.35.54-.59.1-.24.16-.53.16-.85v-7.46c0-.26-.08-.46-.23-.61-.15-.15-.35-.23-.61-.23h-4.11c-.58,0-1,.16-1.27.49-.27.33-.4.76-.4,1.29v6.69c0,.37.06.67.19.89.13.22.31.38.54.47.23.09.52.14.87.14h3.31c.42,0,.75-.08,1.01-.23Z"/><path class="cls-3" d="m74.13,26.59c-.8-.4-1.41-.99-1.81-1.78-.41-.79-.61-1.79-.61-3v-10.04c0-1.74.47-3.1,1.41-4.06.94-.96,2.27-1.45,3.99-1.45h7.39c1.7,0,3.01.48,3.94,1.45.93.96,1.39,2.29,1.39,3.99v3.31c0,1.39-.34,2.4-1.01,3.03-.67.63-1.71.94-3.1.94h-7.6c-.26,0-.46.09-.61.26s-.23.39-.23.64v.73c0,.26.05.47.14.64.09.17.23.3.4.38.17.08.37.12.57.12h8.78c.53,0,.94.14,1.22.42.28.28.42.69.42,1.22v2.13c0,.51-.14.91-.42,1.2-.28.29-.69.44-1.22.44h-10.07c-1.18,0-2.18-.2-2.98-.59Zm9.79-12.44c.22-.21.33-.52.33-.94v-.31c0-.35-.08-.64-.24-.87-.16-.23-.45-.35-.87-.35h-4.6c-.4,0-.7.13-.92.4s-.33.6-.33.99v.56c0,.26.08.46.23.61.15.15.35.23.61.23h4.91c.37,0,.67-.1.89-.31Z"/><path class="cls-3" d="m94.85,26.57c-.74-.41-1.3-1-1.67-1.78-.37-.78-.56-1.74-.56-2.87v-10.49c0-1.58.44-2.83,1.32-3.76.88-.93,2.13-1.39,3.73-1.39h6.31c.25,0,.46-.07.61-.21s.23-.34.23-.59v-2.47c0-.49.1-.88.3-1.19.2-.3.52-.53.96-.7l2.4-.91c.58-.23,1.04-.23,1.39,0,.35.23.52.65.52,1.25v24.08c0,.53-.15.94-.44,1.22-.29.28-.7.42-1.24.42h-2.27c-.26,0-.45-.05-.57-.14-.13-.09-.23-.22-.3-.38l-.03-.1c-.09-.23-.19-.39-.28-.47-.09-.08-.2-.12-.31-.12s-.25.05-.4.14c-.15.09-.3.2-.44.31-.33.26-.62.45-.87.57-.26.13-.56.19-.91.19h-4.74c-1.09,0-2.01-.2-2.75-.61Zm9.27-5.05c.25-.15.44-.35.54-.59.1-.24.16-.53.16-.85v-7.46c0-.26-.08-.46-.23-.61-.15-.15-.35-.23-.61-.23h-4.11c-.58,0-1,.16-1.27.49-.27.33-.4.76-.4,1.29v6.69c0,.37.06.67.19.89.13.22.31.38.54.47.23.09.52.14.87.14h3.31c.42,0,.75-.08,1.01-.23Z"/><path class="cls-3" d="m114.31,26.75c-.29-.29-.44-.69-.44-1.2V3.03c0-.53.14-.94.44-1.22.29-.28.69-.42,1.2-.42h13.24c1.12,0,2.08.23,2.89.68.81.45,1.44,1.1,1.88,1.95.44.85.66,1.85.66,3.01v6.03c0,1.86-.48,3.28-1.45,4.27-.96.99-2.38,1.48-4.23,1.48h-7.77c-.26,0-.46.08-.61.23-.15.15-.23.35-.23.61v5.89c0,.53-.14.94-.42,1.22s-.69.42-1.22.42h-2.75c-.51,0-.91-.15-1.2-.44Zm13.45-14.15c.24-.24.37-.63.37-1.17v-2.75c0-.44-.16-.81-.47-1.1-.31-.29-.7-.44-1.17-.44h-5.75c-.26,0-.46.08-.61.23-.15.15-.23.35-.23.61v4.15c0,.26.08.46.23.61.15.15.35.23.61.23h5.75c.6,0,1.03-.12,1.27-.37Z"/><path class="cls-3" d="m137.76,26.75c-.29-.29-.44-.69-.44-1.2V3.03c0-.53.14-.94.44-1.22.29-.28.69-.42,1.2-.42h2.75c.53,0,.94.14,1.22.42s.42.69.42,1.22v17.56c0,.28.08.49.23.63.15.14.35.21.61.21h9.58c.53,0,.94.14,1.22.42.28.28.42.69.42,1.22v2.47c0,.53-.14.94-.42,1.22-.28.28-.69.42-1.22.42h-14.81c-.51,0-.91-.15-1.2-.44Z"/><path class="cls-3" d="m158.55,26.76c-.28-.28-.42-.69-.42-1.22v-2.47c0-.53.14-.94.42-1.22.28-.28.68-.42,1.22-.42h10.49c.46,0,.82-.16,1.06-.47.24-.31.37-.74.37-1.27v-.56c0-.26-.04-.48-.12-.68-.08-.2-.21-.33-.4-.4l-.14-.03-9.65-1.95c-.09-.02-.2-.05-.31-.07-1.18-.28-2.07-.78-2.67-1.52s-.89-1.76-.89-3.08v-4.98c0-1.09.2-2.02.59-2.77.39-.75.99-1.32,1.78-1.69.79-.37,1.75-.56,2.89-.56h12.13c.53,0,.95.14,1.24.42.29.28.44.69.44,1.22v2.47c0,.53-.15.94-.44,1.22-.29.28-.7.42-1.24.42h-9.9c-.51,0-.89.14-1.15.42s-.38.65-.38,1.11v.87c0,.21.06.42.19.64.13.22.34.35.64.4l9.69,1.99c1.16.23,2.06.75,2.7,1.55.64.8.96,1.86.96,3.19v4.98c0,1.02-.21,1.9-.63,2.63s-1.03,1.29-1.83,1.67c-.8.38-1.75.58-2.84.58h-12.58c-.54,0-.94-.14-1.22-.42Z"/><path class="cls-4" d="m1.95,33.38c-.28-.28-.42-.69-.42-1.22v-1.53c0-.53.14-.94.42-1.22.28-.28.69-.42,1.22-.42h7.14c.33,0,.63-.06.92-.19.29-.13.52-.34.7-.63.17-.29.26-.66.26-1.1v-1.29c0-.3-.06-.52-.17-.66-.12-.14-.24-.21-.38-.21s-.29.05-.45.14c-.16.09-.33.2-.49.31-.23.19-.46.34-.68.45s-.45.17-.68.17h-4.43c-1.04,0-1.93-.19-2.67-.56-.73-.37-1.29-.92-1.67-1.66-.38-.73-.58-1.63-.58-2.7v-9.58c0-1.67.44-2.96,1.32-3.87.88-.91,2.17-1.36,3.87-1.36h10.91c.53,0,.95.14,1.24.42.29.28.44.69.44,1.22v20.59c0,1.14-.2,2.1-.61,2.89-.41.79-1,1.39-1.79,1.79-.79.41-1.74.61-2.86.61H3.17c-.53,0-.94-.14-1.22-.42Zm9.32-13.05c.27-.15.49-.39.66-.71.17-.33.26-.72.26-1.19v-5.82c0-.26-.07-.46-.21-.61-.14-.15-.35-.23-.63-.23h-3.8c-.58,0-1.06.17-1.43.52-.37.35-.56.86-.56,1.53v4.7c0,.4.06.74.17,1.05.12.3.31.54.58.71.27.17.6.26.99.26h3.14c.28,0,.55-.07.82-.23Z"/><path class="cls-4" d="m38.24,6.71c.29.29.44.69.44,1.2v17.53c0,.53-.15.96-.44,1.27-.29.31-.69.47-1.2.47h-3c-.26,0-.45-.05-.58-.14-.13-.09-.23-.22-.3-.38l-.04-.1c-.12-.23-.21-.39-.3-.47-.08-.08-.18-.12-.3-.12s-.25.05-.4.14c-.15.09-.3.2-.44.31-.33.26-.62.45-.87.57-.26.13-.56.19-.91.19h-4.22c-1.58,0-2.78-.45-3.59-1.34-.81-.89-1.22-2.18-1.22-3.85V7.91c0-.53.14-.94.42-1.22.28-.28.69-.42,1.22-.42h2.3c.51,0,.91.15,1.2.44s.44.69.44,1.2v11.85c0,.6.15,1.06.44,1.38.29.31.67.47,1.13.47h3.45c.49,0,.88-.16,1.17-.47.29-.31.44-.77.44-1.38V7.91c0-.51.14-.91.42-1.2.28-.29.69-.44,1.22-.44h2.3c.51,0,.91.15,1.2.44Z"/><path class="cls-4" d="m42.58,3.75c-.28-.29-.42-.7-.42-1.24v-.87c0-.53.14-.94.44-1.22.29-.28.69-.42,1.2-.42h2.23c.53,0,.94.14,1.22.42.28.28.42.69.42,1.22v.87c0,.53-.14.95-.42,1.24-.28.29-.69.44-1.22.44h-2.23c-.53,0-.94-.14-1.22-.44Zm.02,23c-.29-.29-.44-.69-.44-1.2V7.91c0-.53.14-.94.44-1.22.29-.28.69-.42,1.2-.42h2.23c.53,0,.94.14,1.22.42.28.28.42.69.42,1.22v17.63c0,.53-.14.94-.42,1.22-.28.28-.69.42-1.22.42h-2.23c-.51,0-.91-.15-1.2-.44Z"/><path class="cls-4" d="m53.04,26.57c-.74-.41-1.3-1-1.67-1.78-.37-.78-.56-1.74-.56-2.87v-10.49c0-1.58.44-2.83,1.32-3.76.88-.93,2.13-1.39,3.73-1.39h6.31c.25,0,.46-.07.61-.21s.23-.34.23-.59v-2.47c0-.49.1-.88.3-1.19.2-.3.52-.53.96-.7l2.4-.91c.58-.23,1.04-.23,1.39,0,.35.23.52.65.52,1.25v24.08c0,.53-.15.94-.44,1.22-.29.28-.7.42-1.24.42h-2.27c-.26,0-.45-.05-.57-.14-.13-.09-.23-.22-.3-.38l-.03-.1c-.09-.23-.19-.39-.28-.47-.09-.08-.2-.12-.31-.12s-.25.05-.4.14c-.15.09-.3.2-.44.31-.33.26-.62.45-.87.57-.26.13-.56.19-.91.19h-4.74c-1.09,0-2.01-.2-2.75-.61Zm9.27-5.05c.25-.15.44-.35.54-.59.1-.24.16-.53.16-.85v-7.46c0-.26-.08-.46-.23-.61-.15-.15-.35-.23-.61-.23h-4.11c-.58,0-1,.16-1.27.49-.27.33-.4.76-.4,1.29v6.69c0,.37.06.67.19.89.13.22.31.38.54.47.23.09.52.14.87.14h3.31c.42,0,.75-.08,1.01-.23Z"/><path class="cls-4" d="m74.13,26.59c-.8-.4-1.41-.99-1.81-1.78-.41-.79-.61-1.79-.61-3v-10.04c0-1.74.47-3.1,1.41-4.06.94-.96,2.27-1.45,3.99-1.45h7.39c1.7,0,3.01.48,3.94,1.45.93.96,1.39,2.29,1.39,3.99v3.31c0,1.39-.34,2.4-1.01,3.03-.67.63-1.71.94-3.1.94h-7.6c-.26,0-.46.09-.61.26s-.23.39-.23.64v.73c0,.26.05.47.14.64.09.17.23.3.4.38.17.08.37.12.57.12h8.78c.53,0,.94.14,1.22.42.28.28.42.69.42,1.22v2.13c0,.51-.14.91-.42,1.2-.28.29-.69.44-1.22.44h-10.07c-1.18,0-2.18-.2-2.98-.59Zm9.79-12.44c.22-.21.33-.52.33-.94v-.31c0-.35-.08-.64-.24-.87-.16-.23-.45-.35-.87-.35h-4.6c-.4,0-.7.13-.92.4s-.33.6-.33.99v.56c0,.26.08.46.23.61.15.15.35.23.61.23h4.91c.37,0,.67-.1.89-.31Z"/><path class="cls-4" d="m94.85,26.57c-.74-.41-1.3-1-1.67-1.78-.37-.78-.56-1.74-.56-2.87v-10.49c0-1.58.44-2.83,1.32-3.76.88-.93,2.13-1.39,3.73-1.39h6.31c.25,0,.46-.07.61-.21s.23-.34.23-.59v-2.47c0-.49.1-.88.3-1.19.2-.3.52-.53.96-.7l2.4-.91c.58-.23,1.04-.23,1.39,0,.35.23.52.65.52,1.25v24.08c0,.53-.15.94-.44,1.22-.29.28-.7.42-1.24.42h-2.27c-.26,0-.45-.05-.57-.14-.13-.09-.23-.22-.3-.38l-.03-.1c-.09-.23-.19-.39-.28-.47-.09-.08-.2-.12-.31-.12s-.25.05-.4.14c-.15.09-.3.2-.44.31-.33.26-.62.45-.87.57-.26.13-.56.19-.91.19h-4.74c-1.09,0-2.01-.2-2.75-.61Zm9.27-5.05c.25-.15.44-.35.54-.59.1-.24.16-.53.16-.85v-7.46c0-.26-.08-.46-.23-.61-.15-.15-.35-.23-.61-.23h-4.11c-.58,0-1,.16-1.27.49-.27.33-.4.76-.4,1.29v6.69c0,.37.06.67.19.89.13.22.31.38.54.47.23.09.52.14.87.14h3.31c.42,0,.75-.08,1.01-.23Z"/><path class="cls-4" d="m114.31,26.75c-.29-.29-.44-.69-.44-1.2V3.03c0-.53.14-.94.44-1.22.29-.28.69-.42,1.2-.42h13.24c1.12,0,2.08.23,2.89.68.81.45,1.44,1.1,1.88,1.95.44.85.66,1.85.66,3.01v6.03c0,1.86-.48,3.28-1.45,4.27-.96.99-2.38,1.48-4.23,1.48h-7.77c-.26,0-.46.08-.61.23-.15.15-.23.35-.23.61v5.89c0,.53-.14.94-.42,1.22s-.69.42-1.22.42h-2.75c-.51,0-.91-.15-1.2-.44Zm13.45-14.15c.24-.24.37-.63.37-1.17v-2.75c0-.44-.16-.81-.47-1.1-.31-.29-.7-.44-1.17-.44h-5.75c-.26,0-.46.08-.61.23-.15.15-.23.35-.23.61v4.15c0,.26.08.46.23.61.15.15.35.23.61.23h5.75c.6,0,1.03-.12,1.27-.37Z"/><path class="cls-4" d="m137.76,26.75c-.29-.29-.44-.69-.44-1.2V3.03c0-.53.14-.94.44-1.22.29-.28.69-.42,1.2-.42h2.75c.53,0,.94.14,1.22.42s.42.69.42,1.22v17.56c0,.28.08.49.23.63.15.14.35.21.61.21h9.58c.53,0,.94.14,1.22.42.28.28.42.69.42,1.22v2.47c0,.53-.14.94-.42,1.22-.28.28-.69.42-1.22.42h-14.81c-.51,0-.91-.15-1.2-.44Z"/><path class="cls-4" d="m158.55,26.76c-.28-.28-.42-.69-.42-1.22v-2.47c0-.53.14-.94.42-1.22.28-.28.68-.42,1.22-.42h10.49c.46,0,.82-.16,1.06-.47.24-.31.37-.74.37-1.27v-.56c0-.26-.04-.48-.12-.68-.08-.2-.21-.33-.4-.4l-.14-.03-9.65-1.95c-.09-.02-.2-.05-.31-.07-1.18-.28-2.07-.78-2.67-1.52s-.89-1.76-.89-3.08v-4.98c0-1.09.2-2.02.59-2.77.39-.75.99-1.32,1.78-1.69.79-.37,1.75-.56,2.89-.56h12.13c.53,0,.95.14,1.24.42.29.28.44.69.44,1.22v2.47c0,.53-.15.94-.44,1.22-.29.28-.7.42-1.24.42h-9.9c-.51,0-.89.14-1.15.42s-.38.65-.38,1.11v.87c0,.21.06.42.19.64.13.22.34.35.64.4l9.69,1.99c1.16.23,2.06.75,2.7,1.55.64.8.96,1.86.96,3.19v4.98c0,1.02-.21,1.9-.63,2.63s-1.03,1.29-1.83,1.67c-.8.38-1.75.58-2.84.58h-12.58c-.54,0-.94-.14-1.22-.42Z"/><path class="cls-2" d="m1.95,33.38c-.28-.28-.42-.69-.42-1.22v-1.53c0-.53.14-.94.42-1.22.28-.28.69-.42,1.22-.42h7.14c.33,0,.63-.06.92-.19.29-.13.52-.34.7-.63.17-.29.26-.66.26-1.1v-1.29c0-.3-.06-.52-.17-.66-.12-.14-.24-.21-.38-.21s-.29.05-.45.14c-.16.09-.33.2-.49.31-.23.19-.46.34-.68.45s-.45.17-.68.17h-4.43c-1.04,0-1.93-.19-2.67-.56-.73-.37-1.29-.92-1.67-1.66-.38-.73-.58-1.63-.58-2.7v-9.58c0-1.67.44-2.96,1.32-3.87.88-.91,2.17-1.36,3.87-1.36h10.91c.53,0,.95.14,1.24.42.29.28.44.69.44,1.22v20.59c0,1.14-.2,2.1-.61,2.89-.41.79-1,1.39-1.79,1.79-.79.41-1.74.61-2.86.61H3.17c-.53,0-.94-.14-1.22-.42Zm9.32-13.05c.27-.15.49-.39.66-.71.17-.33.26-.72.26-1.19v-5.82c0-.26-.07-.46-.21-.61-.14-.15-.35-.23-.63-.23h-3.8c-.58,0-1.06.17-1.43.52-.37.35-.56.86-.56,1.53v4.7c0,.4.06.74.17,1.05.12.3.31.54.58.71.27.17.6.26.99.26h3.14c.28,0,.55-.07.82-.23Z"/><path class="cls-2" d="m38.24,6.71c.29.29.44.69.44,1.2v17.53c0,.53-.15.96-.44,1.27-.29.31-.69.47-1.2.47h-3c-.26,0-.45-.05-.58-.14-.13-.09-.23-.22-.3-.38l-.04-.1c-.12-.23-.21-.39-.3-.47-.08-.08-.18-.12-.3-.12s-.25.05-.4.14c-.15.09-.3.2-.44.31-.33.26-.62.45-.87.57-.26.13-.56.19-.91.19h-4.22c-1.58,0-2.78-.45-3.59-1.34-.81-.89-1.22-2.18-1.22-3.85V7.91c0-.53.14-.94.42-1.22.28-.28.69-.42,1.22-.42h2.3c.51,0,.91.15,1.2.44s.44.69.44,1.2v11.85c0,.6.15,1.06.44,1.38.29.31.67.47,1.13.47h3.45c.49,0,.88-.16,1.17-.47.29-.31.44-.77.44-1.38V7.91c0-.51.14-.91.42-1.2.28-.29.69-.44,1.22-.44h2.3c.51,0,.91.15,1.2.44Z"/><path class="cls-2" d="m42.58,3.75c-.28-.29-.42-.7-.42-1.24v-.87c0-.53.14-.94.44-1.22.29-.28.69-.42,1.2-.42h2.23c.53,0,.94.14,1.22.42.28.28.42.69.42,1.22v.87c0,.53-.14.95-.42,1.24-.28.29-.69.44-1.22.44h-2.23c-.53,0-.94-.14-1.22-.44Zm.02,23c-.29-.29-.44-.69-.44-1.2V7.91c0-.53.14-.94.44-1.22.29-.28.69-.42,1.2-.42h2.23c.53,0,.94.14,1.22.42.28.28.42.69.42,1.22v17.63c0,.53-.14.94-.42,1.22-.28.28-.69.42-1.22.42h-2.23c-.51,0-.91-.15-1.2-.44Z"/><path class="cls-2" d="m53.04,26.57c-.74-.41-1.3-1-1.67-1.78-.37-.78-.56-1.74-.56-2.87v-10.49c0-1.58.44-2.83,1.32-3.76.88-.93,2.13-1.39,3.73-1.39h6.31c.25,0,.46-.07.61-.21s.23-.34.23-.59v-2.47c0-.49.1-.88.3-1.19.2-.3.52-.53.96-.7l2.4-.91c.58-.23,1.04-.23,1.39,0,.35.23.52.65.52,1.25v24.08c0,.53-.15.94-.44,1.22-.29.28-.7.42-1.24.42h-2.27c-.26,0-.45-.05-.57-.14-.13-.09-.23-.22-.3-.38l-.03-.1c-.09-.23-.19-.39-.28-.47-.09-.08-.2-.12-.31-.12s-.25.05-.4.14c-.15.09-.3.2-.44.31-.33.26-.62.45-.87.57-.26.13-.56.19-.91.19h-4.74c-1.09,0-2.01-.2-2.75-.61Zm9.27-5.05c.25-.15.44-.35.54-.59.1-.24.16-.53.16-.85v-7.46c0-.26-.08-.46-.23-.61-.15-.15-.35-.23-.61-.23h-4.11c-.58,0-1,.16-1.27.49-.27.33-.4.76-.4,1.29v6.69c0,.37.06.67.19.89.13.22.31.38.54.47.23.09.52.14.87.14h3.31c.42,0,.75-.08,1.01-.23Z"/><path class="cls-2" d="m74.13,26.59c-.8-.4-1.41-.99-1.81-1.78-.41-.79-.61-1.79-.61-3v-10.04c0-1.74.47-3.1,1.41-4.06.94-.96,2.27-1.45,3.99-1.45h7.39c1.7,0,3.01.48,3.94,1.45.93.96,1.39,2.29,1.39,3.99v3.31c0,1.39-.34,2.4-1.01,3.03-.67.63-1.71.94-3.1.94h-7.6c-.26,0-.46.09-.61.26s-.23.39-.23.64v.73c0,.26.05.47.14.64.09.17.23.3.4.38.17.08.37.12.57.12h8.78c.53,0,.94.14,1.22.42.28.28.42.69.42,1.22v2.13c0,.51-.14.91-.42,1.2-.28.29-.69.44-1.22.44h-10.07c-1.18,0-2.18-.2-2.98-.59Zm9.79-12.44c.22-.21.33-.52.33-.94v-.31c0-.35-.08-.64-.24-.87-.16-.23-.45-.35-.87-.35h-4.6c-.4,0-.7.13-.92.4s-.33.6-.33.99v.56c0,.26.08.46.23.61.15.15.35.23.61.23h4.91c.37,0,.67-.1.89-.31Z"/><path class="cls-2" d="m94.85,26.57c-.74-.41-1.3-1-1.67-1.78-.37-.78-.56-1.74-.56-2.87v-10.49c0-1.58.44-2.83,1.32-3.76.88-.93,2.13-1.39,3.73-1.39h6.31c.25,0,.46-.07.61-.21s.23-.34.23-.59v-2.47c0-.49.1-.88.3-1.19.2-.3.52-.53.96-.7l2.4-.91c.58-.23,1.04-.23,1.39,0,.35.23.52.65.52,1.25v24.08c0,.53-.15.94-.44,1.22-.29.28-.7.42-1.24.42h-2.27c-.26,0-.45-.05-.57-.14-.13-.09-.23-.22-.3-.38l-.03-.1c-.09-.23-.19-.39-.28-.47-.09-.08-.2-.12-.31-.12s-.25.05-.4.14c-.15.09-.3.2-.44.31-.33.26-.62.45-.87.57-.26.13-.56.19-.91.19h-4.74c-1.09,0-2.01-.2-2.75-.61Zm9.27-5.05c.25-.15.44-.35.54-.59.1-.24.16-.53.16-.85v-7.46c0-.26-.08-.46-.23-.61-.15-.15-.35-.23-.61-.23h-4.11c-.58,0-1,.16-1.27.49-.27.33-.4.76-.4,1.29v6.69c0,.37.06.67.19.89.13.22.31.38.54.47.23.09.52.14.87.14h3.31c.42,0,.75-.08,1.01-.23Z"/><path class="cls-2" d="m114.31,26.75c-.29-.29-.44-.69-.44-1.2V3.03c0-.53.14-.94.44-1.22.29-.28.69-.42,1.2-.42h13.24c1.12,0,2.08.23,2.89.68.81.45,1.44,1.1,1.88,1.95.44.85.66,1.85.66,3.01v6.03c0,1.86-.48,3.28-1.45,4.27-.96.99-2.38,1.48-4.23,1.48h-7.77c-.26,0-.46.08-.61.23-.15.15-.23.35-.23.61v5.89c0,.53-.14.94-.42,1.22s-.69.42-1.22.42h-2.75c-.51,0-.91-.15-1.2-.44Zm13.45-14.15c.24-.24.37-.63.37-1.17v-2.75c0-.44-.16-.81-.47-1.1-.31-.29-.7-.44-1.17-.44h-5.75c-.26,0-.46.08-.61.23-.15.15-.23.35-.23.61v4.15c0,.26.08.46.23.61.15.15.35.23.61.23h5.75c.6,0,1.03-.12,1.27-.37Z"/><path class="cls-2" d="m137.76,26.75c-.29-.29-.44-.69-.44-1.2V3.03c0-.53.14-.94.44-1.22.29-.28.69-.42,1.2-.42h2.75c.53,0,.94.14,1.22.42s.42.69.42,1.22v17.56c0,.28.08.49.23.63.15.14.35.21.61.21h9.58c.53,0,.94.14,1.22.42.28.28.42.69.42,1.22v2.47c0,.53-.14.94-.42,1.22-.28.28-.69.42-1.22.42h-14.81c-.51,0-.91-.15-1.2-.44Z"/><path class="cls-2" d="m158.55,26.76c-.28-.28-.42-.69-.42-1.22v-2.47c0-.53.14-.94.42-1.22.28-.28.68-.42,1.22-.42h10.49c.46,0,.82-.16,1.06-.47.24-.31.37-.74.37-1.27v-.56c0-.26-.04-.48-.12-.68-.08-.2-.21-.33-.4-.4l-.14-.03-9.65-1.95c-.09-.02-.2-.05-.31-.07-1.18-.28-2.07-.78-2.67-1.52s-.89-1.76-.89-3.08v-4.98c0-1.09.2-2.02.59-2.77.39-.75.99-1.32,1.78-1.69.79-.37,1.75-.56,2.89-.56h12.13c.53,0,.95.14,1.24.42.29.28.44.69.44,1.22v2.47c0,.53-.15.94-.44,1.22-.29.28-.7.42-1.24.42h-9.9c-.51,0-.89.14-1.15.42s-.38.65-.38,1.11v.87c0,.21.06.42.19.64.13.22.34.35.64.4l9.69,1.99c1.16.23,2.06.75,2.7,1.55.64.8.96,1.86.96,3.19v4.98c0,1.02-.21,1.9-.63,2.63s-1.03,1.29-1.83,1.67c-.8.38-1.75.58-2.84.58h-12.58c-.54,0-.94-.14-1.22-.42Z"/><path class="cls-1" d="m60.94,45.5c-.29-.15-.52-.36-.68-.64-.16-.28-.24-.62-.24-1.02v-4.04c0-.63.18-1.13.53-1.48.35-.35.84-.53,1.47-.53h3.55c.2,0,.36.05.46.16.11.11.16.26.16.46v.83c0,.2-.05.36-.16.46-.11.11-.26.16-.46.16h-2.91c-.18,0-.32.05-.42.14-.09.09-.14.23-.14.4v2.74c0,.11.02.2.07.28.04.08.11.14.19.18.08.04.18.06.3.06h2.97c.2,0,.36.05.46.16.11.11.16.26.16.46v.82c0,.2-.05.36-.16.46-.11.11-.26.16-.46.16h-3.65c-.41,0-.76-.07-1.05-.22Z"/><path class="cls-1" d="m67.62,45.55c-.11-.11-.17-.26-.17-.46v-6.65c0-.2.05-.36.17-.48.11-.12.26-.18.46-.18h1.14c.1,0,.17.02.22.05s.09.08.11.15v.04c.06.09.09.15.13.18.03.03.07.05.11.05s.09-.02.15-.05c.06-.04.11-.07.17-.12.12-.1.23-.17.33-.22.1-.05.21-.07.34-.07h1.97c.2,0,.36.05.46.16.11.11.16.26.16.46v.81c0,.2-.05.36-.16.46-.11.11-.26.16-.46.16h-2.23c-.3,0-.54.1-.71.3s-.26.47-.26.83v4.14c0,.2-.05.36-.16.46-.11.11-.26.16-.46.16h-.85c-.19,0-.35-.05-.46-.17Z"/><path class="cls-1" d="m74.9,45.53c-.24-.12-.43-.31-.55-.56s-.19-.56-.19-.92v-1.49c0-.33.05-.63.17-.87.11-.25.29-.44.54-.58.25-.14.58-.21.98-.21h2.75c.1,0,.17-.03.23-.08.06-.05.09-.13.09-.24v-.26c0-.13-.04-.24-.13-.34-.09-.09-.21-.14-.37-.14h-3.26c-.2,0-.36-.05-.47-.16-.11-.11-.17-.26-.17-.46v-.81c0-.2.05-.36.17-.46.11-.11.27-.16.47-.16h3.96c.63,0,1.1.17,1.43.5.33.33.49.81.49,1.45v5.37c0,.2-.05.36-.16.46-.11.11-.26.16-.46.16h-.82c-.13,0-.25-.02-.34-.05-.09-.04-.16-.08-.2-.15h-.01c-.05-.08-.09-.12-.12-.13s-.07.02-.14.07c-.1.08-.21.14-.33.19s-.25.07-.38.07h-2.3c-.33,0-.61-.06-.85-.19Zm3.81-1.92c.07-.04.12-.1.15-.17.04-.07.05-.17.05-.28v-.22c0-.1-.03-.17-.08-.23-.05-.06-.13-.09-.22-.09h-1.93c-.11,0-.21.03-.29.1-.08.07-.12.15-.12.24v.34c0,.11.03.21.1.27.07.07.16.1.27.1h1.81c.11,0,.19-.02.26-.06Z"/><path class="cls-1" d="m82.38,45.55c-.11-.11-.17-.26-.17-.46v-6.65c0-.2.05-.36.17-.48.11-.12.26-.18.46-.18h1.14c.1,0,.17.02.22.05s.09.08.11.15v.04c.06.09.09.15.13.18.03.03.07.05.11.05s.09-.02.15-.05c.06-.04.11-.07.17-.12.12-.1.23-.17.33-.22.1-.05.21-.07.34-.07h1.6c.6,0,1.05.17,1.36.51s.46.83.46,1.46v5.34c0,.2-.05.36-.16.46-.11.11-.26.16-.46.16h-.87c-.19,0-.35-.05-.46-.17-.11-.11-.17-.26-.17-.46v-4.49c0-.23-.05-.4-.17-.52-.11-.12-.25-.18-.43-.18h-1.31c-.19,0-.33.06-.44.18-.11.12-.17.29-.17.52v4.49c0,.19-.05.35-.16.46s-.26.17-.46.17h-.87c-.19,0-.35-.05-.46-.17Z"/><path class="cls-1" d="m90.31,45.55c-.11-.11-.17-.26-.17-.46v-.94c0-.2.05-.36.16-.46.11-.11.26-.16.46-.16h.99c.2,0,.36.05.46.16.11.11.16.26.16.46v.94c0,.19-.05.35-.16.46-.11.11-.26.17-.46.17h-.99c-.19,0-.35-.05-.46-.17Z"/><path class="cls-1" d="m93.86,45.55c-.11-.11-.17-.26-.17-.46v-6.65c0-.2.05-.36.17-.48.11-.12.26-.18.46-.18h1.14c.1,0,.17.02.22.05s.09.08.11.15v.04c.06.09.09.15.13.18.03.03.07.05.11.05s.09-.02.15-.05c.06-.04.11-.07.17-.12.12-.1.23-.17.33-.22.1-.05.21-.07.34-.07h1.97c.2,0,.36.05.46.16.11.11.16.26.16.46v.81c0,.2-.05.36-.16.46-.11.11-.26.16-.46.16h-2.23c-.3,0-.54.1-.71.3s-.26.47-.26.83v4.14c0,.2-.05.36-.16.46-.11.11-.26.16-.46.16h-.85c-.19,0-.35-.05-.46-.17Z"/><path class="cls-1" d="m100.69,41.81c-.11-.11-.17-.26-.17-.46v-.99c0-.2.05-.36.17-.46.11-.11.26-.16.46-.16h3.25c.2,0,.36.05.46.16.11.11.16.26.16.46v.99c0,.19-.05.35-.16.46-.11.11-.26.17-.46.17h-3.25c-.19,0-.35-.05-.46-.17Z"/><path class="cls-1" d="m112.24,38.02c.28.15.49.38.63.67.14.29.21.66.21,1.09v3.98c0,.6-.17,1.08-.5,1.43-.33.35-.81.53-1.41.53h-2.39c-.1,0-.17.03-.23.08-.06.05-.09.13-.09.23v.94c0,.19-.04.33-.11.45-.08.11-.2.2-.36.26l-.91.34c-.22.09-.4.09-.53,0-.13-.09-.2-.25-.2-.48v-9.13c0-.2.05-.36.17-.46.11-.11.27-.16.47-.16h.86c.1,0,.17.02.22.05.05.04.09.08.11.15v.04c.05.09.08.15.12.18.04.03.08.05.12.05s.09-.02.15-.05c.06-.04.11-.07.17-.12.12-.1.23-.17.33-.22s.21-.07.34-.07h1.8c.41,0,.76.08,1.04.23Zm-3.52,1.92c-.1.06-.17.13-.21.22s-.06.2-.06.32v2.83c0,.1.03.17.09.23s.13.09.23.09h1.56c.22,0,.38-.06.48-.19.1-.12.15-.29.15-.49v-2.54c0-.14-.02-.25-.07-.34-.05-.08-.12-.14-.21-.18-.09-.04-.2-.05-.33-.05h-1.26c-.16,0-.29.03-.38.09Z"/><path class="cls-1" d="m114.44,45.55c-.11-.11-.17-.26-.17-.46v-6.65c0-.2.05-.36.17-.48.11-.12.26-.18.46-.18h1.14c.1,0,.17.02.22.05s.09.08.11.15v.04c.06.09.09.15.13.18.03.03.07.05.11.05s.09-.02.15-.05c.06-.04.11-.07.17-.12.12-.1.23-.17.33-.22.1-.05.21-.07.34-.07h1.97c.2,0,.36.05.46.16.11.11.16.26.16.46v.81c0,.2-.05.36-.16.46-.11.11-.26.16-.46.16h-2.23c-.3,0-.54.1-.71.3s-.26.47-.26.83v4.14c0,.2-.05.36-.16.46-.11.11-.26.16-.46.16h-.85c-.19,0-.35-.05-.46-.17Z"/><path class="cls-1" d="m121.94,45.5c-.32-.15-.56-.36-.72-.65-.16-.29-.24-.65-.24-1.09v-3.96c0-.63.18-1.13.55-1.48.37-.35.89-.53,1.58-.53h2.62c.66,0,1.18.18,1.56.54s.57.85.57,1.47v3.96c0,.41-.09.77-.26,1.06-.17.29-.42.51-.73.67-.32.15-.69.23-1.12.23h-2.63c-.46,0-.85-.07-1.16-.22Zm3.58-1.89c.07-.04.12-.09.16-.17s.05-.15.05-.25v-2.83c0-.17-.04-.3-.12-.39-.08-.09-.19-.14-.34-.14h-1.73c-.15,0-.26.05-.34.15-.08.1-.11.22-.11.38v2.83c0,.09.02.17.05.24.04.08.09.13.16.17s.15.06.25.06h1.72c.1,0,.18-.02.25-.06Z"/><path class="cls-1" d="m126.31,48.07c-.11-.11-.16-.26-.16-.46v-.58c0-.2.05-.36.16-.46.11-.11.26-.16.46-.16h1.65c.22,0,.38-.06.48-.17.1-.11.14-.28.14-.5v-7.32c0-.2.06-.36.17-.46.11-.11.26-.16.46-.16h.83c.2,0,.36.05.46.16.11.11.16.26.16.46v7.67c0,.44-.08.82-.25,1.14-.17.32-.41.57-.72.75-.31.18-.68.26-1.1.26h-2.27c-.2,0-.36-.05-.46-.16Zm2.89-11.25c-.11-.12-.17-.27-.17-.46v-.33c0-.2.05-.36.17-.46.11-.11.26-.16.46-.16h.85c.2,0,.36.05.46.16.11.11.16.26.16.46v.33c0,.19-.05.35-.16.46-.11.11-.26.17-.46.17h-.85c-.19,0-.35-.06-.46-.18Z"/><path class="cls-1" d="m133.23,45.49c-.3-.15-.53-.37-.69-.67-.15-.3-.23-.68-.23-1.14v-3.81c0-.66.18-1.17.54-1.54.36-.37.86-.55,1.51-.55h2.8c.64,0,1.14.18,1.49.55s.53.87.53,1.51v1.26c0,.53-.13.91-.38,1.15s-.65.36-1.18.36h-2.88c-.1,0-.17.03-.23.1-.06.07-.09.15-.09.24v.28c0,.1.02.18.05.24.04.07.09.11.15.15.07.03.14.05.22.05h3.33c.2,0,.36.05.46.16.11.11.16.26.16.46v.81c0,.19-.05.35-.16.46s-.26.17-.46.17h-3.82c-.45,0-.83-.07-1.13-.22Zm3.71-4.72c.08-.08.12-.2.12-.36v-.12c0-.13-.03-.24-.09-.33-.06-.09-.17-.13-.33-.13h-1.74c-.15,0-.27.05-.35.15-.08.1-.12.23-.12.38v.21c0,.1.03.17.09.23.06.06.13.09.23.09h1.86c.14,0,.25-.04.34-.12Z"/><path class="cls-1" d="m141.16,45.5c-.29-.15-.52-.36-.68-.64-.16-.28-.24-.62-.24-1.02v-4.04c0-.63.18-1.13.53-1.48.35-.35.84-.53,1.47-.53h3.55c.2,0,.36.05.46.16.11.11.16.26.16.46v.83c0,.2-.05.36-.16.46-.11.11-.26.16-.46.16h-2.91c-.18,0-.32.05-.42.14-.09.09-.14.23-.14.4v2.74c0,.11.02.2.07.28.04.08.11.14.19.18.08.04.18.06.3.06h2.97c.2,0,.36.05.46.16.11.11.16.26.16.46v.82c0,.2-.05.36-.16.46-.11.11-.26.16-.46.16h-3.65c-.41,0-.76-.07-1.05-.22Z"/><path class="cls-1" d="m149.98,45.49c-.29-.15-.51-.37-.66-.66-.15-.29-.23-.65-.23-1.07v-3.61c0-.11-.03-.18-.08-.24-.05-.05-.13-.08-.22-.08h-.88c-.2,0-.36-.05-.47-.16-.11-.11-.17-.26-.17-.46v-.81c0-.2.05-.36.17-.46.11-.11.27-.16.47-.16h.88c.1,0,.17-.03.22-.08.05-.05.08-.13.08-.22v-.42c0-.18.04-.32.12-.44.08-.12.2-.21.37-.27l.92-.36c.22-.09.39-.09.52,0s.19.25.19.48v1.02c0,.1.03.17.08.22.05.05.13.08.24.08h1.41c.2,0,.36.05.46.16.11.11.16.26.16.46v.81c0,.2-.05.36-.16.46-.11.11-.26.16-.46.16h-1.41c-.11,0-.18.03-.24.08-.05.05-.08.13-.08.24v2.93c0,.12.02.23.06.32.04.09.1.15.18.19s.18.06.3.06h1.28c.2,0,.36.05.46.16.11.11.16.26.16.46v.82c0,.2-.05.36-.16.46-.11.11-.26.16-.46.16h-2c-.42,0-.78-.07-1.07-.22Z"/><path class="cls-1" d="m154.76,45.55c-.11-.11-.17-.26-.17-.46v-.94c0-.2.05-.36.16-.46.11-.11.26-.16.46-.16h.99c.2,0,.36.05.46.16.11.11.16.26.16.46v.94c0,.19-.05.35-.16.46-.11.11-.26.17-.46.17h-.99c-.19,0-.35-.05-.46-.17Z"/><path class="cls-1" d="m158.98,45.5c-.32-.15-.56-.36-.72-.65-.16-.29-.24-.65-.24-1.09v-3.96c0-.63.18-1.13.55-1.48.37-.35.89-.53,1.58-.53h2.62c.66,0,1.18.18,1.56.54s.57.85.57,1.47v3.96c0,.41-.09.77-.26,1.06-.17.29-.42.51-.73.67-.32.15-.69.23-1.12.23h-2.63c-.46,0-.85-.07-1.16-.22Zm3.58-1.89c.07-.04.12-.09.16-.17s.05-.15.05-.25v-2.83c0-.17-.04-.3-.12-.39-.08-.09-.19-.14-.34-.14h-1.73c-.15,0-.26.05-.34.15-.08.1-.11.22-.11.38v2.83c0,.09.02.17.05.24.04.08.09.13.16.17s.15.06.25.06h1.72c.1,0,.18-.02.25-.06Z"/><path class="cls-1" d="m166.24,45.55c-.11-.11-.17-.26-.17-.46v-6.65c0-.2.05-.36.17-.48.11-.12.26-.18.46-.18h1.14c.1,0,.17.02.22.05s.09.08.11.15v.04c.06.09.09.15.13.18.03.03.07.05.11.05s.09-.02.15-.05c.06-.04.11-.07.17-.12.12-.1.23-.17.33-.22.1-.05.21-.07.34-.07h1.97c.2,0,.36.05.46.16.11.11.16.26.16.46v.81c0,.2-.05.36-.16.46-.11.11-.26.16-.46.16h-2.23c-.3,0-.54.1-.71.3s-.26.47-.26.83v4.14c0,.2-.05.36-.16.46-.11.11-.26.16-.46.16h-.85c-.19,0-.35-.05-.46-.17Z"/><path class="cls-1" d="m173.52,48.07c-.11-.11-.16-.26-.16-.46v-.58c0-.2.05-.36.16-.46.11-.11.26-.16.46-.16h2.71c.12,0,.24-.02.35-.07.11-.05.2-.13.26-.24.07-.11.1-.25.1-.42v-.49c0-.11-.02-.2-.07-.25s-.09-.08-.14-.08-.11.02-.17.05c-.06.04-.12.08-.19.12-.09.07-.17.13-.26.17-.08.04-.17.07-.26.07h-1.68c-.4,0-.73-.07-1.01-.21-.28-.14-.49-.35-.63-.63s-.22-.62-.22-1.02v-3.63c0-.63.17-1.12.5-1.47.33-.34.82-.52,1.47-.52h4.14c.2,0,.36.05.47.16.11.11.17.26.17.46v7.81c0,.43-.08.8-.23,1.1-.15.3-.38.53-.68.68-.3.15-.66.23-1.08.23h-3.54c-.2,0-.36-.05-.46-.16Zm3.54-4.95c.1-.06.19-.15.25-.27.07-.12.1-.27.1-.45v-2.21c0-.1-.03-.17-.08-.23-.05-.06-.13-.09-.24-.09h-1.44c-.22,0-.4.07-.54.2-.14.13-.21.33-.21.58v1.78c0,.15.02.28.07.4.04.11.12.2.22.27.1.07.23.1.38.1h1.19c.11,0,.21-.03.31-.09Z"/></g></svg>