<?xml version="1.0" encoding="UTF-8"?><svg id="_レイヤー_2" xmlns="http://www.w3.org/2000/svg" xmlns:xlink="http://www.w3.org/1999/xlink" viewBox="0 0 121.89 141.73"><defs><style>.cls-1,.cls-2,.cls-3,.cls-4,.cls-5,.cls-6,.cls-7,.cls-8,.cls-9,.cls-10,.cls-11{fill:none;}.cls-12{fill:url(#_新規パターンスウォッチ_2);opacity:.4;}.cls-13{fill:#f7f8f8;}.cls-14{fill:#f8b62d;}.cls-15{fill:#fff;}.cls-16{fill:#f39800;}.cls-17{fill:#815ba4;}.cls-18{fill:#85559f;}.cls-19{fill:#a73736;}.cls-20{fill:#3779a6;}.cls-21{fill:#45b035;}.cls-2{stroke-width:2px;}.cls-2,.cls-3,.cls-5,.cls-7,.cls-8,.cls-11{stroke:#fff;}.cls-2,.cls-4,.cls-6,.cls-7,.cls-8,.cls-9{stroke-miterlimit:2;}.cls-22{fill:url(#_名称未設定グラデーション_12-2);}.cls-3{stroke-dasharray:0 0 1.98 1.98;}.cls-3,.cls-5,.cls-11{stroke-miterlimit:10;stroke-width:.25px;}.cls-4{stroke-width:5px;}.cls-4,.cls-9{stroke:#c9a063;}.cls-23{fill:url(#_名称未設定グラデーション_12);}.cls-5{stroke-dasharray:0 0 1.98 1.98;}.cls-6{stroke:#231815;stroke-width:3.34px;}.cls-7{stroke-width:5.71px;}.cls-8{stroke-width:2.94px;}.cls-9{stroke-width:3px;}.cls-10{clip-path:url(#clippath);}</style><clipPath id="clippath"><polygon class="cls-1" points="5.67 103.04 5.67 38.69 60.95 6.56 116.22 38.69 116.22 103.04 60.95 135.17 5.67 103.04"/></clipPath><linearGradient id="_名称未設定グラデーション_12" x1="12.76" y1="119.06" x2="109.13" y2="22.68" gradientUnits="userSpaceOnUse"><stop offset=".01" stop-color="#009cdf"/><stop offset="1" stop-color="#f19cc1"/></linearGradient><pattern id="_新規パターンスウォッチ_2" x="0" y="0" width="31.83" height="31.83" patternTransform="translate(2399.19 -10803.41) rotate(-60)" patternUnits="userSpaceOnUse" viewBox="0 0 31.83 31.83"><rect class="cls-1" x="0" width="31.83" height="31.83"/><rect class="cls-11" x="16.04" y="16.04" width="63.4" height="63.4"/><rect class="cls-11" x="-15.79" y="16.04" width="63.4" height="63.4"/><line class="cls-3" x1="0" y1="31.95" x2="31.83" y2="31.95"/><line class="cls-11" x1="15.91" y1="16.04" x2="15.91" y2="17.04"/><rect class="cls-11" x="-47.61" y="16.04" width="63.4" height="63.4"/><rect class="cls-11" x="16.04" y="-15.79" width="63.4" height="63.4"/><line class="cls-11" x1="16.04" y1="15.91" x2="17.04" y2="15.91"/><line class="cls-5" x1="31.83" y1=".12" x2="31.83" y2="31.95"/><rect class="cls-11" x="-15.79" y="-15.79" width="63.4" height="63.4"/><line class="cls-11" x1="-15.79" y1="15.91" x2="-14.79" y2="15.91"/><line class="cls-3" x1="0" y1=".12" x2="31.83" y2=".12"/><line class="cls-11" x1="46.61" y1="15.91" x2="47.61" y2="15.91"/><line class="cls-11" x1="15.91" y1="-15.79" x2="15.91" y2="-14.79"/><line class="cls-5" x1="0" y1=".12" x2="0" y2="31.95"/><line class="cls-11" x1="15.91" y1="46.61" x2="15.91" y2="47.61"/><rect class="cls-11" x="-47.61" y="-15.79" width="63.4" height="63.4"/><line class="cls-11" x1="14.79" y1="15.91" x2="15.79" y2="15.91"/><rect class="cls-11" x="16.04" y="-47.61" width="63.4" height="63.4"/><line class="cls-5" x1="31.83" y1="-31.7" x2="31.83" y2=".12"/><rect class="cls-11" x="-15.79" y="-47.61" width="63.4" height="63.4"/><line class="cls-5" x1="0" y1="-31.7" x2="0" y2=".12"/><line class="cls-11" x1="15.91" y1="14.79" x2="15.91" y2="15.79"/><rect class="cls-11" x="-47.61" y="-47.61" width="63.4" height="63.4"/></pattern><linearGradient id="_名称未設定グラデーション_12-2" x1="116.23" y1="70.85" x2="5.66" y2="70.85" xlink:href="#_名称未設定グラデーション_12"/></defs><g id="_レイヤー_1-2"><g class="cls-10"><path d="m101.87,29.53c-.86-.23-1.74-.09-2.46.32s-1.28,1.1-1.5,1.96h0s0,0,0,0c-.18.65-.13,1.32.08,1.91l-3.1,1.79-.53-.92-6.37,3.68.53.92-.69.4c-.41-.48-.97-.85-1.62-1.03-.86-.23-1.74-.09-2.46.32-.71.41-1.28,1.1-1.51,1.96,0,0,0,0,0,0h0c-.23.86-.09,1.74.32,2.45.41.72,1.1,1.28,1.96,1.51.86.23,1.74.09,2.45-.32h0c.71-.42,1.27-1.11,1.5-1.96.18-.66.13-1.32-.08-1.92l.69-.4.53.92,1.33-.77,4.56,7.9,2.47.66c-.05.67.1,1.32.42,1.87.41.72,1.1,1.28,1.96,1.51.86.23,1.74.09,2.46-.32s1.28-1.1,1.51-1.96c.23-.86.09-1.74-.32-2.46s-1.11-1.28-1.97-1.51c-.86-.23-1.74-.09-2.46.32-.55.32-1.01.81-1.3,1.41l-2-.53-4.32-7.48,4.02-2.32-.53-.92,3.1-1.79c.41.48.96.85,1.62,1.03.86.23,1.74.09,2.45-.33h0c.71-.42,1.27-1.1,1.5-1.96.23-.86.09-1.74-.33-2.45s-1.11-1.28-1.96-1.51Zm-14.51,12.7c-.15.55-.5.98-.96,1.25s-1.01.35-1.56.21c-.55-.15-.99-.5-1.25-.96-.26-.46-.35-1.01-.2-1.56l-.57-.15.57.15c.15-.55.5-.98.96-1.25.46-.26,1.01-.35,1.56-.2.55.15.99.5,1.25.96s.35,1.01.21,1.56Zm11.31,6.28l.57.15c.14-.55.5-.98.96-1.25s1.01-.35,1.56-.2c.55.14.98.5,1.25.96.26.46.35,1.01.2,1.56-.15.55-.5.99-.96,1.25s-1.01.35-1.56.21c-.55-.15-.99-.5-1.25-.96s-.35-1.01-.21-1.56l-.57-.15Zm4.36-15.32c-.15.55-.5.98-.96,1.25s-1.01.35-1.56.21c-.55-.15-.99-.5-1.25-.96-.26-.46-.35-1.01-.2-1.56l-.57-.15.57.15c.14-.55.5-.98.96-1.25.46-.26,1.01-.35,1.56-.2.55.15.98.5,1.25.96s.35,1.01.21,1.56Z"/><path d="m92.25,80.91c.16-.59-.19-1.19-.78-1.35-.59-.16-1.19.19-1.35.78-.16.59.19,1.19.78,1.35.59.16,1.19-.19,1.35-.78Z"/><path d="m61.04,66.15c-.16.59.19,1.19.78,1.35.59.16,1.19-.19,1.35-.78.16-.59-.19-1.19-.78-1.35-.59-.16-1.19.19-1.35.78Z"/><path d="m69.76,56.92c.16-.59-.19-1.19-.78-1.35-.59-.16-1.19.19-1.35.78-.16.59.19,1.19.78,1.35.59.16,1.19-.19,1.35-.78Z"/><path d="m37.19,85.07c-.16.59.19,1.19.78,1.35.59.16,1.19-.19,1.35-.78.16-.59-.19-1.19-.78-1.35-.59-.16-1.19.19-1.35.78Z"/><path d="m99.97,32.36c-.16.59.19,1.19.78,1.35.59.16,1.2-.19,1.35-.78.16-.59-.19-1.19-.78-1.35-.59-.16-1.19.19-1.35.78Z"/><path d="m84.3,41.41c-.16.59.19,1.19.78,1.35.59.16,1.19-.19,1.35-.78.16-.59-.19-1.19-.78-1.35-.59-.16-1.19.19-1.35.78Z"/><path d="m102.29,49.47c.16-.59-.19-1.19-.78-1.35-.59-.16-1.19.19-1.35.78-.16.59.19,1.19.78,1.35.59.16,1.19-.19,1.35-.78Z"/><path d="m33.67,61.86c-.16.59.19,1.19.78,1.35.59.16,1.19-.19,1.35-.78.16-.59-.19-1.19-.78-1.35-.59-.16-1.19.19-1.35.78Z"/><path d="m39.9,49.22c-.16.59.19,1.19.78,1.35.59.16,1.19-.19,1.35-.78.16-.59-.19-1.19-.78-1.35-.59-.16-1.19.19-1.35.78Z"/><path d="m60.73,120.55c-.16.59.19,1.19.78,1.35.59.16,1.19-.19,1.35-.78.16-.59-.19-1.19-.78-1.35-.59-.16-1.19.19-1.35.78Z"/><path d="m57.12,113.13c-.16.59.19,1.19.78,1.35.59.16,1.19-.19,1.35-.78.16-.59-.19-1.19-.78-1.35-.59-.16-1.19.19-1.35.78Z"/><path d="m28.66,26.52c-.16.59.19,1.19.78,1.35.59.16,1.19-.19,1.35-.78.16-.59-.19-1.19-.78-1.35-.59-.16-1.19.19-1.35.78Z"/><path d="m53.39,41.67c-.16.59.19,1.19.78,1.35.59.16,1.19-.19,1.35-.78.16-.59-.19-1.19-.78-1.35-.59-.16-1.19.19-1.35.78Z"/><path d="m87.22,100.26c-.16.59.19,1.19.78,1.35.59.16,1.19-.19,1.35-.78.16-.59-.19-1.19-.78-1.35-.59-.16-1.19.19-1.35.78Z"/><path d="m46.73,76.6l.13.22-1.61.93c-.42-.47-1.13-.59-1.7-.27-.66.38-.88,1.22-.5,1.87s1.22.88,1.87.5c.57-.33.81-1,.62-1.6l1.61-.93.13.22,4.39-2.54-.13-.22,1.13-.65,3.42.92.2-.11.15.25,2.62-1.51-.15-.25.6-.35,1.95,3.37.43-.25.22.38.97-.56,1.27,2.21-.22.84-3.06,1.77c-.43-.47-1.13-.59-1.7-.27-.66.38-.88,1.22-.5,1.88.38.66,1.22.88,1.88.5.57-.33.81-1,.62-1.6l2.55-1.47-.46,1.7.37.65c-.47.43-.59,1.13-.26,1.7.38.66,1.22.88,1.87.5s.88-1.22.5-1.87c-.33-.57-1-.81-1.6-.62l-.25-.43.9-3.35-1.4-2.42,1.44-.83,1.64,2.84,1.31.35-.26.97c-.25-.01-.51.04-.75.18-.66.38-.88,1.22-.5,1.88s1.22.88,1.88.5.88-1.22.5-1.87c-.14-.24-.33-.41-.56-.53l.26-.97,1.59.43,4.77,1.28.93-3.48,1.04.28c-.01.25.04.51.18.75.38.66,1.22.88,1.88.5s.88-1.22.5-1.87-1.22-.88-1.87-.5c-.24.14-.41.33-.53.56l-1.6-.43-.94,3.48-3.92-1.05.63-2.34,2-1.16c.42.47,1.13.59,1.7.26.66-.38.88-1.22.5-1.87s-1.22-.88-1.88-.5c-.57.33-.81,1-.62,1.6l-2.22,1.28-.69,2.58-2.95-.79-1.52-2.63,2.34-1.35,1.1.3,1.49-.86c.42.47,1.13.59,1.7.26.66-.38.88-1.22.5-1.88s-1.22-.88-1.87-.5c-.57.33-.81,1-.62,1.6l-1.28.74-.5-.13-.66-1.15-6.28,3.63-1.73-2.99-1.11.64-.15-.25-2.62,1.51.14.24-6.8-1.82-2.39,1.38c-.43-.47-1.13-.59-1.7-.26-.66.38-.88,1.22-.5,1.88s1.22.88,1.88.5c.57-.33.81-1,.62-1.6l2.17-1.25,2.61.7-.63.36-.13-.22-4.39,2.54Zm-2.1,2.76c-.38.22-.85.09-1.07-.29-.22-.38-.09-.86.29-1.07s.85-.09,1.07.29.09.85-.29,1.07Zm15.82,3.09c-.38.21-.86.09-1.07-.29s-.09-.86.29-1.07.85-.09,1.07.29c.21.38.09.85-.29,1.07Zm4.99.4c.22.37.09.85-.29,1.07s-.85.09-1.07-.29-.09-.86.29-1.07.86-.09,1.07.29Zm2.62-1.74c-.38.22-.86.09-1.07-.28-.22-.38-.09-.85.29-1.07.38-.21.85-.09,1.07.29.21.37.09.85-.29,1.07Zm9.8-4.98c.37-.22.85-.09,1.07.29.21.38.09.86-.29,1.07s-.86.09-1.07-.29c-.22-.38-.09-.86.29-1.07Zm-4.03-3.05c.38-.22.85-.09,1.07.29.21.38.09.85-.29,1.07s-.85.09-1.07-.29c-.22-.38-.09-.86.29-1.07Zm-2.73-1.99c.37-.22.85-.09,1.07.29.21.38.09.85-.29,1.07-.38.21-.86.09-1.07-.29s-.09-.86.29-1.07Zm-24.92,4.48c-.38.22-.86.09-1.07-.29s-.09-.85.29-1.07.85-.09,1.07.29.09.85-.29,1.07Z"/><path d="m101.24,67.16l2.43.65-.69,2.57-1.44,5.38-.36.21,1.86-6.94-4.19-1.12.27-.99,1.89-7.05-1.27-2.19.29-.17-3.68-6.37-.29.17-.92-1.59-11.65-3.12-5.18-8.97-2.78-4.81c.48-.41.85-.96,1.03-1.62.23-.86.09-1.74-.33-2.46-.41-.72-1.1-1.28-1.96-1.51-.86-.23-1.75-.09-2.46.32-.71.41-1.28,1.1-1.51,1.96h0s0,0,0,0c-.23.86-.09,1.74.33,2.45.41.72,1.1,1.28,1.96,1.51.65.18,1.32.14,1.92-.08l2.78,4.81,1.3,2.25-8.7,5.03-8.29-2.22,1.55-5.79,2.98.8.86-3.2-7.1-1.9-.28,1.03-16.9-4.53-9.78-2.62c.05-.63-.08-1.28-.42-1.87-.89-1.55-2.87-2.08-4.42-1.19s-2.08,2.87-1.18,4.42,2.87,2.08,4.42,1.18c.59-.34,1.03-.84,1.3-1.41l7.88,2.11-2.5,9.32,3.4,5.88-.21.77c-.67-.05-1.32.1-1.87.42-.72.41-1.28,1.1-1.5,1.96h0c-.23.86-.09,1.74.32,2.45.41.72,1.1,1.28,1.96,1.51.86.23,1.74.09,2.45-.32s1.28-1.1,1.51-1.96c.23-.86.09-1.74-.33-2.46-.32-.55-.81-1.01-1.41-1.3l.33-1.24-3.4-5.88.34-1.27,1.31.35,1.97,3.42.94,1.63,2.85.76,2.23,3.86.76,1.32c-.41.37-.58.96-.36,1.5.02.06.05.13.08.18.34.58,1.05.84,1.7.59.06-.02.12-.05.18-.09.58-.34.84-1.05.59-1.7l-.27.11.27-.12c-.02-.05-.05-.11-.09-.17-.32-.55-.98-.8-1.59-.61l-.76-1.31-2.35-4.07-.77-.21,1.17-.68,1.49.4,1.48,2.56c-.41.37-.58.96-.36,1.5.02.06.06.13.09.18.33.58,1.05.85,1.7.59.06-.02.12-.05.18-.09.58-.33.84-1.05.59-1.69l-.27.11.27-.12c-.02-.06-.05-.11-.09-.17-.32-.55-.98-.8-1.59-.61l-1.6-2.77-1.96-.52-1.89,1.09-1.27-.34-.82-1.42-2.1-3.63-1.55-.41.76-2.82,2.18.58.77,1.34.06.11,3.67.98,3.81,1.02,3.53-2.04,3.23-1.87h0s1.54.41,1.54.41l-.28,1.03,2.98.8-.47,1.77-1.15-.31-1.11-1.93-.51.29,1.23,2.14.1.03-.93,3.45-1.52-.41c.05-.67-.1-1.32-.42-1.87-.41-.72-1.1-1.28-1.96-1.51-.86-.23-1.74-.09-2.46.32s-1.28,1.1-1.51,1.96c0,0,0,0,0,0h0s0,0,0,0c-.23.86-.09,1.74.33,2.45.41.71,1.1,1.28,1.96,1.51.86.23,1.74.09,2.45-.32.55-.32,1.01-.81,1.3-1.41l.91.25-3.18,11.88-1.63.94-6.11-1.64-1.5,5.59-6.29-1.69-2.38,1.38c-.41-.48-.97-.85-1.62-1.03-.86-.23-1.74-.09-2.46.32-.72.41-1.28,1.1-1.5,1.96,0,0,0,0,0,0,0,0,0,0,0,0-.23.86-.09,1.74.32,2.45s1.1,1.28,1.96,1.51c.86.23,1.74.09,2.46-.32s1.28-1.1,1.51-1.96c.18-.66.13-1.32-.08-1.92l1.96-1.13,6.96,1.86,1.5-5.58,5.44,1.46,3.47-2,.91,1.58,1.68-.97,1.4.38,2.46,4.26-.64,2.39c-.85-.22-1.72-.08-2.43.33-.72.41-1.28,1.1-1.51,1.97h0c-.23.86-.09,1.74.32,2.45.03.06.08.1.11.16l-2.67,1.54-2.04,1.18-1.56-2.7,2.59-1.5.63-2.36,2.13-1.23.5-1.87,1.26.34c-.01.25.04.51.18.75.38.66,1.22.88,1.88.5s.88-1.22.5-1.87-1.22-.88-1.87-.5c-.24.14-.41.33-.53.56l-3.09-.83c.01-.25-.04-.51-.18-.75-.38-.66-1.22-.88-1.87-.5s-.88,1.22-.5,1.88,1.22.88,1.88.5c.24-.14.41-.33.53-.56l1.26.34-.44,1.63-2.13,1.23-.63,2.36-2.38,1.37-1.68-2.91-7.21,4.17-2.44-4.23.72-.42-.74-1.27-6.37,3.68.74,1.27,2.67-1.54,3.03,5.25,6.13-3.54-.39,1.44-.31-.53-5.09,2.94.4.7-1.42.82-1.86-.5-4.28,2.47c-.37-.41-.96-.58-1.5-.36-.06.02-.13.06-.18.09-.58.34-.84,1.06-.59,1.7.02.06.06.12.09.18.34.58,1.05.84,1.7.59.06-.03.12-.06.18-.09.55-.32.8-.98.61-1.59l4.06-2.35,1.86.5,1.64-.94.16.27-.44,1.63-2.52,1.46c-.42-.47-1.13-.59-1.7-.26-.66.38-.88,1.22-.5,1.87s1.22.88,1.88.5c.57-.33.81-1,.62-1.6l2.74-1.58.47-1.76,4.8-2.77-.4-.7.04-.02.67-2.51,2.31-1.33,3.53,6.11,3.06-1.76,2.93-1.69c.3.21.63.38,1,.48.86.23,1.74.09,2.45-.32h0c.55-.32,1-.81,1.29-1.41l6.59,1.77,11.36,3.04-3.27,12.21-8.76-2.35-9.57,5.53-.9.52-2.16-3.74-2.47-4.29-7.1-1.9-8.03,4.64c-.99-1.16-2.7-1.5-4.07-.7-1.55.89-2.08,2.87-1.18,4.42.89,1.55,2.87,2.08,4.42,1.18,1.37-.79,1.94-2.44,1.43-3.88l7.61-4.39,6.16,1.65,2.09,3.61-2.21,1.28-1.78-3.08-3.31-.89-2.85,1.65c-.42-.47-1.13-.59-1.7-.26-.66.38-.88,1.22-.5,1.87s1.22.88,1.88.5c.57-.33.81-1,.62-1.6l2.64-1.52,2.85.76.38.66-1.42.82-1.67-.45-4.85,2.8c-.42-.47-1.13-.59-1.7-.27-.66.38-.88,1.22-.5,1.88s1.22.88,1.88.5c.57-.33.81-1,.62-1.6l1.2-.69c-.65.38-.86,1.21-.49,1.86s1.22.88,1.87.5c.57-.33.81-1,.62-1.6l.73-.42,1.16.31.4.11-.07.25,4.9,1.31.07-.25.88.24.38.66-8.04,4.64-4.76,2.75-2.58-4.47c.47-.43.59-1.13.26-1.7-.38-.66-1.22-.88-1.88-.5s-.88,1.22-.5,1.87c.33.57,1,.81,1.6.62l3.61,6.25c-.25.41-.28.95-.02,1.39.38.66,1.22.88,1.87.5.57-.33.81-1,.62-1.6l1.85-1.07,2.88.77,1.41,2.44,3.5-2.02.64,1.1-.94-.25-.97.56-.13-.22-4.24,2.45-1.86-3.22-3.93,2.27c-.42-.47-1.13-.59-1.7-.27-.66.38-.88,1.22-.5,1.88s1.22.88,1.88.5c.57-.33.81-1,.62-1.6l3.43-1.98,1.99,3.44.35-.2.13.22,4.39-2.54-.13-.22.75-.43,3.63.97-.54,2.02-1.44,5.37c-.63-.05-1.28.08-1.87.42-1.55.89-2.08,2.87-1.18,4.42.89,1.55,2.87,2.08,4.42,1.18s2.08-2.87,1.19-4.42c-.34-.59-.84-1.03-1.41-1.3l1.07-3.99,2.99,5.18-1.59,5.94c-.63-.05-1.28.08-1.87.42-1.55.89-2.08,2.87-1.18,4.42.89,1.55,2.87,2.08,4.42,1.18,1.55-.89,2.08-2.87,1.18-4.42-.34-.59-.84-1.03-1.41-1.3l1.72-6.4-3.82-6.62,1.49-5.56.04-.02.53.93,6.37-3.68-1.66-2.87h0s-3.48-6.03-3.48-6.03l6.74-3.89,3.86,1.03.76,1.33,5.09,1.36,3.44.92,2.08-1.2.89-3.33-1.69-2.93,1.64-6.11.42.72-1.51,5.64,1.69,2.93-.88,3.28-2.28,1.32-4.27-1.14-.57,2.15-1.85-.49.42-1.56-3.12-.84-3.38-.91-2.46,1.42-.54,2.02c-.25-.01-.51.04-.75.18-.66.38-.88,1.22-.5,1.87s1.22.88,1.87.5.88-1.22.5-1.87c-.14-.23-.33-.41-.56-.53l.48-1.79,2.04-1.18,3.15.84,2.55.68-.6,2.25,1.47,2.55,6.86,1.84.79-2.94,4.2-2.43,5.14,1.38-.15.57-5.09-1.36-4.08,2.36-.74,2.74-7-1.88-2.97,1.72-2.35-.63c.01-.25-.04-.51-.18-.75-.38-.66-1.22-.88-1.87-.5s-.88,1.22-.5,1.87,1.22.88,1.88.5c.24-.14.41-.33.53-.56l2.59.69,2.97-1.71,7.34,1.97.83-3.08,3.66-2.11,4.85,1.3-1.27,4.73-3.16,1.82c-.41-.48-.97-.85-1.62-1.03-.86-.23-1.74-.09-2.45.32-.72.41-1.28,1.1-1.51,1.96t0,0h0c-.23.86-.09,1.74.32,2.45.41.72,1.1,1.28,1.96,1.51.86.23,1.74.09,2.45-.32h0c.71-.42,1.27-1.11,1.5-1.96.17-.65.14-1.31-.07-1.9v-.03s3.56-2.05,3.56-2.05l1.26,2.18-1.46,5.45-1.62.94-1.12,4.2c-.25-.01-.51.04-.75.18-.66.38-.88,1.22-.5,1.88s1.22.88,1.87.5.88-1.22.5-1.87c-.14-.24-.33-.41-.56-.53l1.06-3.97,1.62-.94,1.59-5.91-1.38-2.39.84-.49,1.31,2.27-1.85,6.89.42.11-.15.55-1.33.77-.1.06-1.97,7.34c-.25-.01-.51.04-.75.18-.66.38-.88,1.22-.5,1.87s1.22.88,1.87.5.88-1.22.5-1.88c-.14-.24-.33-.41-.56-.53l1.9-7.1,1.33-.77.1-.06.21-.79.43.11,1.9-7.1-.84-.22-1.44-2.5,1.76-1.01.33-1.23,1.59.43.81,1.41-.81,3.01,1.52.41c-.01.25.04.51.18.75.38.66,1.22.88,1.88.5s.88-1.22.5-1.87-1.22-.88-1.87-.5c-.24.14-.41.33-.53.56l-.95-.26.72-2.67-1.06-1.84-1.82-.49.15-.57,1.82.49,1.92-1.11.61-2.29-1.02-1.77-1.03-1.78c.46-.43.58-1.12.25-1.69-.38-.66-1.22-.88-1.88-.5s-.88,1.22-.5,1.87c.33.57,1.01.82,1.62.62l1.02,1.77.9,1.56-.49,1.83-1.5.87-1.59-.43.63-2.37-3.22-5.58,1.43-5.35,4.41-2.55,1.57-5.85.69-2.57,2.43.65.15-.57-6-1.61-.16.57ZM30.76,28.59c-.99.57-2.24.23-2.81-.75-.57-.99-.23-2.24.75-2.81.98-.57,2.24-.23,2.81.76.57.98.23,2.24-.75,2.81Zm12.2,21.45c-.15.55-.5.99-.96,1.25s-1.01.35-1.56.21c-.55-.15-.99-.5-1.25-.96-.26-.46-.35-1.01-.21-1.56l-.57-.15.57.15c.15-.55.5-.98.96-1.25s1.01-.35,1.56-.21h0c.54.15.98.5,1.25.96s.35,1.01.21,1.56Zm8.12-3.83c.37-.15.78,0,.97.33.02.03.04.07.06.12.14.36-.01.77-.34.95-.03.02-.07.04-.11.05-.36.15-.78,0-.97-.34-.02-.04-.04-.07-.04-.09-.15-.38,0-.79.33-.99.04-.02.07-.03.1-.05Zm-.86,3.66s.06-.03.1-.04c.37-.15.78,0,.98.33.02.03.04.07.06.11.14.36-.01.77-.34.96-.03.02-.07.04-.11.05-.36.15-.78,0-.97-.34-.02-.04-.03-.07-.04-.08-.15-.39,0-.8.33-.99Zm-8.55-19.25l.76.2,12.44,3.33-1.38.8-2.69,1.55-5.45-1.46-.94-1.62-3.27-.88.52-1.92Zm12.6,5.68l-3.31,1.91-3.58-.96-3.43-.92-.77-1.33-.06-.11-2.42-.65.3-1.14,3.04.81.93,1.62,5.91,1.59,2.9-1.67,1.89-1.09,1.33.36-2.73,1.57Zm2.18,6.2c-.15.55-.5.99-.96,1.25s-1.01.35-1.56.2c-.55-.15-.99-.5-1.25-.96s-.35-1.01-.21-1.56l-.57-.15.57.15c.14-.55.5-.98.96-1.25.46-.26,1.01-.35,1.56-.21.55.15.99.5,1.25.96s.35,1.01.21,1.56Zm-19.72,20.19c-.15.55-.5.99-.96,1.25s-1.01.35-1.56.21c-.55-.15-.99-.5-1.25-.96s-.35-1.01-.21-1.56l-.57-.15.57.15c.14-.55.5-.98.95-1.25.46-.26,1.01-.35,1.56-.2.55.15.98.5,1.25.96.26.46.35,1.01.2,1.56Zm24.52-1.68c.37-.22.85-.09,1.07.29.22.38.09.85-.29,1.07-.38.22-.86.09-1.08-.29-.21-.38-.09-.85.29-1.07Zm-4.89-.16c-.38.22-.86.09-1.07-.29-.22-.38-.09-.85.29-1.07.38-.21.85-.09,1.07.29.22.38.09.85-.29,1.07Zm-13.83,8.98l-.51.29-2.44-4.23.51-.29,2.44,4.23Zm.93-.54l-.42.24-2.44-4.23.42-.24,2.44,4.23Zm-8.95,6.87h0c.15.36,0,.77-.33.96-.03.02-.07.04-.11.05-.36.14-.78,0-.97-.34-.02-.04-.04-.07-.05-.09-.15-.37,0-.79.33-.98.04-.02.07-.04.1-.05.38-.15.78,0,.98.33.02.03.03.06.05.11Zm.38-.15l-.1.04.1-.04h0Zm4.33,2.2c-.38.22-.86.09-1.07-.29-.21-.38-.09-.85.29-1.07s.85-.09,1.07.29.09.85-.29,1.07Zm24.88-11.23c-.15.55-.5.98-.96,1.25-.46.26-1.01.35-1.56.21-.55-.15-.98-.5-1.25-.96s-.35-1.01-.21-1.56l-.57-.15.57.15c.14-.55.5-.98.95-1.25.46-.26,1.01-.35,1.57-.2.55.15.98.5,1.25.96.26.46.35,1.01.2,1.56Zm-24.81,20.17c-.98.57-2.24.23-2.81-.75-.57-.99-.23-2.24.75-2.81.99-.57,2.24-.23,2.81.75.57.99.23,2.24-.76,2.81Zm7.1-1.44c-.38.22-.86.09-1.07-.29-.21-.38-.09-.86.29-1.07s.85-.09,1.07.29.09.85-.29,1.07Zm-1.78,3.58c-.38.22-.86.09-1.07-.29s-.09-.85.29-1.07c.38-.21.85-.09,1.07.29s.09.85-.29,1.07Zm.37,15.35c-.38.22-.85.09-1.07-.29-.21-.38-.09-.85.29-1.07.38-.21.85-.09,1.07.29s.09.85-.29,1.07Zm14.25,10.56c-.99.57-2.24.23-2.81-.75-.57-.99-.23-2.24.75-2.81.98-.57,2.24-.23,2.81.75.56.98.23,2.24-.76,2.81Zm3.61,7.43c-.99.57-2.24.23-2.81-.75-.57-.99-.23-2.24.75-2.81.98-.57,2.24-.23,2.81.75.57.98.23,2.24-.75,2.81Zm-15.02-33.27c-.38.21-.85.09-1.07-.29-.22-.38-.09-.85.29-1.07.38-.22.86-.09,1.07.29s.09.85-.29,1.07Zm8.25-.36l.07-.25-4.9-1.31-.07.25-.39-.11-1.39-.37-.94.54c-.42-.46-1.12-.59-1.69-.27l3.4-1.96,1.67.45,1.64-.94,1.27,2.21,2.72-1.57,2.01,3.49-1.78,1.03-.44-.77-.06-.11-1.11-.3Zm-15.87,3.77c-.21-.38-.09-.85.29-1.07s.85-.09,1.07.29c.22.38.09.85-.29,1.07-.38.22-.85.09-1.07-.29Zm6.27,8.55c-.38.21-.86.09-1.07-.29s-.09-.85.29-1.07c.38-.22.85-.09,1.07.29.21.38.09.85-.29,1.07Zm16.7-4.9l-1.66.96.53.92-.47.27-.98,3.67-2.13-.57-1.22-2.12-3.5,2.02-1.24-2.14-3.35-.9-2.06,1.19c-.42-.47-1.13-.59-1.7-.27-.02.01-.04.03-.06.04l-.35-.61,4.76-2.75,10.9-6.3.44.76-1.13,4.22-.98.56-3.45-.92-2.49,1.44c-.42-.47-1.13-.59-1.7-.26-.66.38-.88,1.22-.51,1.88s1.22.88,1.88.5c.57-.33.81-1,.62-1.6l2.28-1.32,2.65.71-.52.3c-.42-.47-1.13-.59-1.7-.27-.66.38-.88,1.22-.51,1.88s1.22.88,1.88.5c.57-.33.81-1,.62-1.6l2.43-1.4,1.04-3.89.78,1.36-.4,1.51,1.29,2.24Zm-10.47,0c.22.38.09.86-.29,1.07s-.86.09-1.07-.29c-.21-.38-.09-.85.29-1.07s.85-.09,1.07.29Zm4.7.2c.22.38.09.85-.29,1.07s-.86.09-1.07-.29-.09-.85.29-1.07.85-.09,1.07.29Zm7.04-.94l-.77.44-1.17-2.03.41-1.51-1.76-3.05.83-.48.19-.11,1.53,2.81-.48,1.81,1.22,2.11Zm2.42-1.4l-1.91,1.1-1.1-1.9.48-1.8-1.65-3.03.69-.4,3.48,6.03Zm2.32-2.85c-.38.22-.86.09-1.07-.29s-.09-.85.29-1.07.85-.09,1.07.29.09.86-.29,1.07Zm2.96,3.46c-.38.22-.86.09-1.07-.29s-.09-.86.29-1.07.85-.09,1.07.29.09.85-.29,1.07Zm18.16,6.2c-.15.55-.5.98-.96,1.25-.46.26-1.01.35-1.56.2-.55-.15-.99-.5-1.25-.96s-.35-1.01-.21-1.56l-.57-.15.57.15c.15-.55.5-.98.96-1.25s1.01-.35,1.56-.21c.55.15.99.5,1.25.96s.35,1.01.2,1.56Zm2.01,11.14c-.38.21-.86.09-1.07-.29s-.09-.86.29-1.07.85-.09,1.07.29c.21.38.09.85-.29,1.07Zm.64,4.44c-.38.22-.85.09-1.07-.29-.21-.38-.09-.85.29-1.07s.85-.09,1.07.29c.21.38.09.85-.29,1.07Zm10.02-17.94c.38-.22.85-.09,1.07.29s.09.85-.29,1.07c-.38.22-.86.09-1.07-.29-.21-.37-.09-.86.29-1.07Zm-3.09-12.84c-.22-.37-.09-.85.29-1.07.38-.22.86-.09,1.07.29s.09.85-.29,1.07c-.38.21-.85.09-1.07-.29Zm-1.86-19.27l-1.07,3.98-3.41-.91-.76,2.84-2.03-.55-1.04-1.8,8.7-5.03-.39,1.47Zm-7.88,10.96l-2.9-5.02-4.64-1.24,1.3-4.85,1.72-.99,1.93,3.35,2.41,4.17,2.51.67-.61,2.27-.4,1.48c-.46-.04-.91.02-1.33.17Zm-23.97-21.63l.57.15c.14-.55.5-.98.96-1.25s1.01-.35,1.56-.2c.55.15.98.5,1.25.96s.35,1.01.21,1.56c-.15.55-.5.98-.96,1.25-.46.26-1.01.35-1.56.21-.55-.15-.99-.5-1.25-.96s-.35-1.01-.2-1.56l-.57-.15Zm11.75,4.98l-.15.57-.41,1.54,1.78,3.09,3.95,1.06-.23.85-5-1.34-2.11-3.66.6-2.23-2.06-.55.38-1.42,1.7.46-.3,1.13,1.85.5Zm-1.12-.91l.15-.57,2.7.72,3.45.93,2.23,3.86-1.94,1.12-.15.54-3.72-1-1.54-2.67.35-1.3.23-.85.08-.29-1.85-.5Zm-3.22.66l2.06.55-.51,1.89.16.27-5.21-1.39-.45-.78.44-1.66c.09-.04.19-.07.27-.12.55-.32,1.01-.81,1.29-1.41l2.47.66-.53,1.99Zm-4.88-.82c.24,0,.48-.02.71-.07l-.41,1.51.63,1.1.06.1,6.02,1.61.8,1.38-7.53-2.02-.86-1.48.58-2.14Zm.83,4.38l7.26,1.95.04-.13.67,1.15,5.23,1.4-.11.41-10.32-2.76-2.62-.7-.34-.58.19-.72Zm29.31-.7l-9.72,5.61-.54-.93-.33-.57,11.22-6.48-.64,2.37Zm.77-3.8l-11.95,6.9-.55-.95,11.95-6.9.55.95Zm-26.66-27.39c-.55-.15-.99-.5-1.25-.96s-.35-1.01-.21-1.56l-.57-.15.57.15c.14-.55.5-.98.96-1.25s1.01-.35,1.56-.21c.55.15.98.5,1.25.96s.35,1.01.21,1.56c-.09.34-.27.63-.5.87l-.53-.91c.03-.07.08-.13.1-.21.16-.59-.19-1.19-.78-1.35-.59-.16-1.19.19-1.35.78-.16.59.19,1.19.78,1.35.08.02.15,0,.23.01l.53.91c-.32.08-.66.09-1,0Zm-12.23,6.98l.72.19-.92,3.45-.72-.19.92-3.45Zm1.57,5.33l-2.12,7.91-1.42.82,2.42-9.03,1.13.3Zm-1.69-.45l-2.57,9.6-.72.42,2.72-10.17.57.15Zm-4.74,10.85l3.03-11.31.57.15-2.88,10.74-.72.42Zm3.79.59l-1.38.8-.62-1.07,3.53-2.04,2.24-8.38,6.67,1.79,4.93-2.84,1.14,1.98-4.74,2.73-4.72-1.26-1.33,4.95-1.07-.29-.28-.07-.4,1.5c-.33-.08-.69-.04-1.01.14-.66.38-.88,1.22-.5,1.87.14.24.33.41.56.53l-.12.43-2.91-.78Zm14.95-8.18l.69,1.19-2.12,1.22-1.25.72-5.09-1.36.31-1.17,4.39,1.18,3.08-1.78Zm-10.61,6.92c.21.38.09.85-.29,1.07-.38.21-.86.09-1.07-.29s-.09-.85.29-1.07.85-.09,1.07.29Zm.02,7.25l.54.14-.23.87-.31,1.15c-.16-.11-.32-.21-.5-.29l.5-1.87Zm1.35,5.05c.05-.67-.1-1.32-.42-1.87-.12-.21-.27-.4-.44-.58l.38-1.43.38-1.44-1.11-.29.06-.24-2.29-3.96,1.04.28.27-1c.25.01.51-.04.75-.18.66-.38.88-1.22.5-1.88-.09-.15-.2-.28-.33-.38l.28-1.05,1.35.36.86-3.21,5.32,1.43,1.46-.85,2.63-1.52-.98-1.7,1.87-1.08-1.43-2.48.68-.39,1.64,2.85,2.14.57.66,1.15-.69,2.58.69.18-.11.43,7.1,1.9.11-.43.41.11,1.05,1.82-.05.2c-.25-.01-.51.04-.75.18-.66.38-.88,1.22-.5,1.88.38.65,1.22.88,1.87.5s.88-1.22.5-1.87c-.14-.24-.33-.41-.56-.53l.08-.31.03-.12-1.3-2.25-.65-.17.11-.43-7.1-1.9-.11.43-.12-.03.39-1.44.29.51,4.13,1.11,4.3,1.15,2.08,3.61-.36,1.34c-.25-.01-.51.04-.75.18-.66.38-.88,1.22-.5,1.88s1.22.88,1.87.5.88-1.22.5-1.88c-.14-.24-.33-.41-.56-.53l.42-1.57-2.33-4.03-4.53-1.21-3.9-1.04-1.37-2.38-2.14-.57-1.52-2.63,2.51-1.45,3.54,6.12,11.65,3.12.67,1.17-.29.17,3.68,6.37.29-.17h0s-11.95,6.91-11.95,6.91l-2.94-5.09-3.93-1.05-8.01-2.15c.05-.67-.1-1.32-.42-1.87-.41-.72-1.11-1.28-1.97-1.51-.86-.23-1.74-.09-2.45.32-.72.41-1.28,1.1-1.51,1.96t0,0s0,0,0,0c-.23.86-.09,1.74.32,2.45s1.1,1.28,1.96,1.51c.07.02.14.02.21.04l-.61,2.28,1.1,1.91.37.1-.26.96.52.9.06.11,2.85.76,10.32,2.76-.14.51-9.57-2.56-2.21-.59-2.18-.58-1.36.78-1.65-.44Zm24.43-11.13c.22.37.09.85-.29,1.07s-.85.09-1.07-.29c-.22-.38-.09-.86.29-1.07s.85-.09,1.07.29Zm2.36,1.64c.22.38.09.85-.29,1.07s-.86.09-1.07-.29c-.22-.38-.09-.86.29-1.07.37-.21.85-.09,1.07.29Zm-10.12,13.96l-10.08-2.7-4.14-1.11.64-.37,1.94.52,2.21.59,9.57,2.56-.14.5Zm2.91,9.89l1.69,2.92-.76,2.85-1.66.96-3.2-.86-4.85-1.3-.35-.61,4.76,1.28,3.58-13.35,2.32.62.33.57-1.85,6.92Zm5.25-2.21c.46-.26,1.01-.35,1.56-.21.55.15.99.5,1.25.96.26.46.35,1.01.2,1.56-.15.55-.5.98-.96,1.25-.46.26-1.01.35-1.56.2-.56-.15-.99-.5-1.25-.96-.26-.46-.35-1.01-.21-1.56l-.57-.15.57.15c.15-.55.5-.98.96-1.25Zm8.51,11.35l-1.17,4.36-2.16,1.25,2.08-7.76,1.25,2.16Zm-3.22-5.58l1.14,1.98-.96,3.6-5.37-1.44-4.63,2.67-.7,2.6-6.06-1.62-1.23-2.13.12-.45,2.42.65.57-2.15,3.93,1.05,2.71-1.56,1.01-3.75-1.69-2.93,1.3-4.83,1.08,1.87c-.48.41-.85.96-1.03,1.62h0c-.23.86-.09,1.74.32,2.45.41.71,1.1,1.28,1.97,1.51.86.23,1.74.09,2.45-.32h0c.55-.32,1-.81,1.29-1.41l1.9.51-.56,2.08Zm2.72-6.89l-1.04.6-.82,3.07-1.9-.51c.05-.67-.1-1.32-.42-1.87-.11-.19-.25-.37-.4-.54l.44-1.65.65-2.41,1.87.5,1.62,2.81Zm.51-.29l-1.74-3.02-2.67-.72-.8,2.98-.36,1.36c-.16-.12-.34-.23-.52-.32l.4-1.48,1.37-5.11,3.41.91.38-1.42,2.7.72-1.54,5.73-.61.35Zm1.33-.77l1.54-5.73-3.26-.87.42-1.56,3.62.97-1.86,6.94-.45.26Z"/></g><path d="m60.94,134.11c-1.14,0-2.28-.3-3.3-.89l-48.69-28.31c-2.03-1.18-3.3-3.39-3.3-5.75v-56.63c0-2.36,1.26-4.57,3.3-5.75L57.65,8.47c2.03-1.18,4.56-1.18,6.59,0l48.69,28.31c2.03,1.18,3.3,3.39,3.3,5.75v56.63c0,2.36-1.26,4.57-3.3,5.75l-48.69,28.31c-1.02.59-2.16.89-3.3.89Zm0-124.64c-.82,0-1.63.21-2.36.64L9.89,38.42c-1.46.85-2.36,2.42-2.36,4.12v56.63c0,1.69.9,3.27,2.36,4.12l48.69,28.31c1.46.85,3.26.85,4.72,0l48.69-28.31c1.46-.85,2.36-2.42,2.36-4.12v-56.63c0-1.69-.9-3.27-2.36-4.12L63.3,10.1c-.73-.42-1.54-.64-2.36-.64Z"/><polygon class="cls-23" points="0 106.3 0 35.43 60.94 0 121.89 35.43 121.89 106.3 60.94 141.73 0 106.3"/><polygon class="cls-12" points="5.45 102.65 5.25 38.71 60.72 6.91 116.44 39.08 116.64 103.02 61.17 134.82 5.45 102.65"/><polygon class="cls-12" points="6.3 102.16 6.1 39.2 60.72 7.89 115.6 39.57 115.79 102.53 61.17 133.84 6.3 102.16"/><path class="cls-13" d="m66.42,119.69c-.1.15-.27.4-.72.67-.91.53-1.76.27-2.25-.57-.53-.91-.21-1.8.57-2.25.32-.18.63-.27.99-.26l.19.73c-.16-.02-.41-.05-.75.15-.47.28-.57.76-.31,1.21.2.35.61.68,1.22.33.4-.23.57-.57.64-.7l.41.71Z"/><path class="cls-13" d="m66.9,119.56l-1.57-2.7.68-.39.15.26c.02-.31.2-.6.6-.79l.38.65c-.36.18-.74.48-.4,1.06l.87,1.5-.71.41Z"/><path class="cls-13" d="m67.38,115.91c.21-.34.47-.61.82-.81.45-.26.86-.31,1.19-.19.24.09.42.26.61.59l.59,1.01c.21.36.36.52.5.62l-.67.39c-.06-.05-.12-.1-.19-.21-.1.34-.31.6-.62.78-.5.29-1.09.23-1.41-.32-.4-.69.1-1.19.55-1.55.43-.35.5-.41.43-.54-.07-.11-.25-.17-.59.03s-.57.48-.76.84l-.45-.64Zm2.17.4c-.09.13-.2.22-.48.44-.26.2-.37.38-.24.61.09.16.27.22.48.1.15-.09.42-.31.45-.8l-.21-.36Z"/><path class="cls-13" d="m71.5,116.88l-1.57-2.7.68-.39.15.26c.02-.13.08-.49.53-.75.47-.28.88-.13,1.05-.02.22.14.36.35.59.74l.88,1.52-.71.41-.9-1.54c-.14-.24-.34-.58-.74-.35-.08.04-.48.3-.15.86l.9,1.54-.71.41Z"/><path class="cls-13" d="m74.66,113.99l.46.79-.79.46-.46-.79.79-.46Z"/><path class="cls-13" d="m75.65,114.47l-1.57-2.7.68-.39.15.26c.02-.31.2-.6.6-.79l.38.65c-.36.18-.74.48-.4,1.06l.87,1.5-.71.41Z"/><path class="cls-13" d="m77.68,111.03l.4.68-1.32.76-.4-.68,1.32-.76Z"/><path class="cls-13" d="m78.29,109.68c.04-.15.12-.52.56-.77.76-.44,1.57-.02,2.01.73s.43,1.65-.36,2.12c-.36.21-.68.17-.89.13l.82,1.41-.71.41-2.27-3.9.68-.4.15.26Zm1.71,1.49c.37-.22.42-.65.15-1.12s-.67-.64-1.05-.42c-.14.08-.59.41-.17,1.13s.93.5,1.07.42Z"/><path class="cls-13" d="m82.03,110.76l-1.57-2.7.68-.39.15.26c.02-.31.2-.6.6-.79l.38.65c-.36.18-.74.48-.4,1.06l.87,1.5-.71.41Z"/><path class="cls-13" d="m83.48,106.21c.72-.42,1.65-.23,2.16.64s.21,1.79-.51,2.2-1.65.23-2.16-.65-.2-1.78.51-2.19Zm1.28,2.19c.41-.24.44-.69.18-1.14-.45-.77-1.03-.43-1.08-.4-.22.13-.55.49-.18,1.13.26.45.67.65,1.08.41Z"/><path class="cls-13" d="m88.12,107.27c.3.51.67,1.16-.2,1.66-.29.17-.52.19-.68.21l-.31-.64c.11-.01.29-.03.47-.13.27-.15.19-.37.06-.59l-1.65-2.84.71-.41,1.59,2.74Zm-1.74-3.06l-.77.45-.42-.73.77-.45.42.73Z"/><path class="cls-13" d="m88.64,105.41c.12.16.41.55,1.07.16.39-.23.56-.46.72-.71l.39.66c-.11.13-.33.42-.78.68-1.18.69-1.93-.1-2.22-.59-.49-.85-.32-1.74.42-2.17.27-.16.89-.39,1.53.1.28.21.49.53.66.82l-1.79,1.04Zm.79-1.14c-.37-.48-.77-.25-.84-.21-.45.26-.28.73-.24.84l1.08-.63Z"/><path class="cls-13" d="m93.59,103.89c-.1.15-.27.4-.72.67-.91.53-1.76.27-2.25-.57-.53-.91-.21-1.8.57-2.25.32-.18.63-.27.99-.26l.19.73c-.16-.02-.41-.05-.75.15-.47.28-.57.76-.31,1.21.2.35.61.68,1.22.33.4-.23.57-.57.64-.7l.41.71Z"/><path class="cls-13" d="m92.18,100.2l.71-.41.46.78.72-.42.38.65-.72.42.68,1.17c.13.22.23.27.48.13.15-.09.28-.19.36-.25l.37.64c-.08.06-.27.21-.53.36-.83.48-1.1,0-1.36-.42l-.71-1.22-.31.18-.38-.65.31-.18-.46-.78Z"/><path class="cls-13" d="m96.31,101.4l.46.79-.79.46-.46-.79.79-.46Z"/><path class="cls-13" d="m96.92,98.4c.72-.42,1.65-.23,2.16.64s.21,1.79-.51,2.2-1.65.23-2.16-.65-.2-1.78.51-2.19Zm1.28,2.19c.41-.24.44-.69.18-1.14-.45-.77-1.03-.43-1.08-.4-.22.13-.55.49-.18,1.13.26.45.67.65,1.08.41Z"/><path class="cls-13" d="m100.26,100.16l-1.57-2.7.68-.39.15.26c.02-.31.2-.6.6-.79l.38.65c-.36.18-.74.48-.4,1.06l.87,1.5-.71.41Z"/><path class="cls-13" d="m103.27,95.54c-.06,0-.12.03-.19.07-.07.04-.11.08-.14.12.06.05.17.13.28.32.37.63-.02,1.23-.57,1.55-.07.04-.13.07-.17.09-.04.06-.08.16-.04.23.06.11.24.03.55-.13.63-.33,1.29-.57,1.72.15.47.82-.36,1.46-.83,1.73-.86.5-1.45.31-1.73-.16-.25-.43-.06-.8,0-.92-.12-.01-.31-.04-.43-.24s-.03-.45,0-.52c-.49-.06-.7-.43-.75-.51-.32-.56-.1-1.22.56-1.6.32-.19.55-.21.68-.22.14-.25.34-.37.4-.41.17-.1.25-.11.35-.12l.33.56Zm-.17,2.9c-.27.15-.44.35-.29.61.18.3.56.13.78,0,.14-.08.59-.37.39-.71-.15-.26-.48-.14-.89.09Zm-1.46-1.5c.13.23.4.27.65.12s.35-.42.22-.65c-.12-.2-.37-.3-.66-.13-.25.15-.36.41-.22.66Z"/><path class="cls-22" d="m60.94,134.11c-1.14,0-2.28-.3-3.3-.89l-48.69-28.31c-2.03-1.18-3.3-3.39-3.3-5.75v-56.63c0-2.36,1.26-4.57,3.3-5.75L57.65,8.47c2.03-1.18,4.56-1.18,6.59,0l48.69,28.31c2.03,1.18,3.3,3.39,3.3,5.75v56.63c0,2.36-1.26,4.57-3.3,5.75l-48.69,28.31c-1.02.59-2.16.89-3.3.89Zm0-124.64c-.82,0-1.63.21-2.36.64L9.89,38.42c-1.46.85-2.36,2.42-2.36,4.12v56.63c0,1.69.9,3.27,2.36,4.12l48.69,28.31c1.46.85,3.26.85,4.72,0l48.69-28.31c1.46-.85,2.36-2.42,2.36-4.12v-56.63c0-1.69-.9-3.27-2.36-4.12L63.3,10.1c-.73-.42-1.54-.64-2.36-.64Z"/><path class="cls-7" d="m46.73,123.78c-.17-.05-.32-.17-.44-.38l-.34-.6c-.12-.21-.16-.4-.11-.57.05-.17.17-.32.38-.44l2.78-1.61c.12-.07.23-.17.32-.28s.13-.25.13-.4c0-.15-.04-.32-.14-.49l-.29-.5c-.07-.12-.14-.19-.22-.22-.08-.03-.14-.03-.2,0s-.1.08-.14.16c-.04.07-.08.15-.12.23-.05.12-.1.24-.16.33-.06.1-.13.17-.22.22l-1.72,1c-.41.23-.79.36-1.16.38-.37.02-.71-.07-1.02-.27-.31-.2-.59-.51-.83-.92l-2.15-3.73c-.38-.65-.49-1.25-.35-1.8.14-.55.54-1.02,1.2-1.4l4.25-2.45c.21-.12.4-.16.58-.12.18.04.32.17.44.38l4.63,8.02c.26.44.39.87.41,1.26s-.08.77-.29,1.1c-.22.34-.54.63-.98.88l-3.64,2.1c-.21.12-.4.16-.57.11Zm.7-7.18c.07-.12.1-.26.1-.43,0-.17-.06-.34-.16-.52l-1.31-2.27c-.06-.1-.13-.16-.22-.19-.09-.03-.19,0-.29.05l-1.48.85c-.23.13-.37.31-.44.52-.07.22-.02.46.13.72l1.06,1.83c.09.16.19.28.3.37.11.09.24.14.38.15.14,0,.29-.03.45-.12l1.22-.71c.11-.06.2-.15.27-.27Z"/><path class="cls-7" d="m54.87,105.23c.18.05.32.17.44.37l3.94,6.83c.12.21.16.41.12.59s-.16.34-.36.45l-1.17.67c-.1.06-.19.08-.26.08s-.14-.04-.2-.08l-.04-.03c-.1-.06-.17-.1-.22-.12s-.1,0-.14.02-.09.07-.12.14-.07.14-.1.22c-.07.17-.14.31-.21.42s-.17.2-.31.28l-1.64.95c-.62.35-1.18.45-1.7.28-.52-.17-.96-.57-1.34-1.23l-3.17-5.48c-.12-.21-.16-.4-.11-.57.04-.17.17-.32.38-.44l.9-.52c.2-.11.39-.15.57-.1.18.05.33.17.44.37l2.66,4.62c.14.24.29.38.48.44.18.06.37.03.55-.07l1.34-.78c.19-.11.31-.26.35-.45s0-.4-.14-.63l-2.67-4.62c-.11-.2-.15-.39-.11-.56.04-.17.17-.32.38-.44l.9-.52c.2-.11.39-.15.57-.1Z"/><path class="cls-7" d="m55.89,103.1c-.17-.05-.32-.18-.44-.39l-.2-.34c-.12-.21-.15-.4-.11-.57.05-.17.18-.32.38-.43l.87-.5c.21-.12.4-.16.57-.11.17.05.32.17.44.38l.2.34c.12.21.16.4.12.58-.04.18-.17.32-.38.44l-.87.5c-.21.12-.4.15-.57.1Zm5.18,8.96c-.18-.05-.33-.17-.44-.37l-3.97-6.87c-.12-.21-.15-.4-.1-.57.05-.17.17-.32.37-.43l.87-.5c.21-.12.4-.16.57-.11.17.05.32.17.44.38l3.97,6.87c.12.21.16.4.11.57-.05.17-.17.32-.38.44l-.87.5c-.2.11-.39.15-.57.1Z"/><path class="cls-7" d="m65.09,109.64c-.38,0-.73-.1-1.05-.32s-.61-.55-.86-.99l-2.36-4.09c-.36-.62-.46-1.2-.33-1.76.13-.56.51-1.02,1.14-1.38l2.46-1.42c.1-.06.16-.13.19-.22.03-.09.01-.18-.04-.28l-.56-.96c-.11-.19-.16-.37-.15-.53,0-.16.08-.32.22-.49l.73-.89c.17-.22.36-.33.54-.31.19.01.35.14.49.37l5.42,9.38c.12.21.15.4.1.57-.05.17-.18.32-.39.44l-.88.51c-.1.06-.18.08-.26.08-.07,0-.14-.04-.2-.08l-.04-.03c-.09-.07-.16-.11-.21-.12-.05,0-.1,0-.15.02-.05.03-.09.08-.12.15-.04.07-.07.14-.1.22-.07.17-.14.31-.21.42-.07.11-.18.2-.31.28l-1.85,1.07c-.43.25-.83.37-1.21.38Zm2.47-4.05c.07-.12.09-.23.08-.35s-.06-.24-.13-.37l-1.68-2.91c-.06-.1-.13-.16-.22-.19-.09-.02-.19,0-.29.05l-1.6.92c-.23.13-.36.29-.39.48-.03.19.01.38.13.59l1.5,2.61c.08.14.18.25.28.3.1.06.21.08.32.06s.23-.06.37-.14l1.29-.74c.16-.09.28-.2.34-.32Z"/><path class="cls-7" d="m73.32,104.9c-.4.03-.77-.07-1.11-.29-.34-.22-.64-.56-.91-1.03l-2.26-3.91c-.39-.68-.51-1.31-.36-1.9.15-.59.56-1.07,1.23-1.46l2.88-1.66c.66-.38,1.28-.49,1.86-.32.58.17,1.06.58,1.44,1.24l.74,1.29c.31.54.41,1.01.29,1.41-.12.4-.45.75-1,1.06l-2.96,1.71c-.1.06-.16.14-.18.24-.02.1,0,.2.06.3l.17.29c.06.1.12.17.2.22.08.05.16.07.24.06.09,0,.17-.04.25-.08l3.42-1.98c.21-.12.4-.16.57-.11s.32.17.44.38l.48.83c.11.2.15.39.11.56-.04.18-.17.32-.38.44l-3.92,2.27c-.46.27-.89.41-1.29.44Zm1.02-7.05c.04-.13.01-.28-.08-.44l-.07-.12c-.08-.14-.18-.23-.29-.28-.12-.05-.26-.03-.42.06l-1.79,1.03c-.15.09-.24.21-.27.36-.03.15,0,.31.1.46l.12.22c.06.1.13.16.22.19.09.02.19,0,.29-.05l1.91-1.11c.14-.08.24-.19.28-.32Z"/><path class="cls-7" d="m81.38,100.24c-.38,0-.73-.1-1.05-.32-.32-.22-.61-.55-.86-1l-2.36-4.09c-.36-.62-.46-1.2-.33-1.76.13-.56.51-1.02,1.14-1.38l2.46-1.42c.1-.06.16-.13.19-.22.03-.09.01-.18-.04-.28l-.56-.96c-.11-.19-.16-.37-.15-.53,0-.16.08-.32.22-.49l.73-.89c.17-.22.36-.33.54-.31.19.01.35.14.49.37l5.42,9.38c.12.21.15.4.1.57-.05.17-.18.32-.39.44l-.88.51c-.1.06-.18.08-.26.08-.07,0-.14-.04-.2-.08l-.04-.03c-.09-.07-.16-.11-.21-.12-.05-.01-.1,0-.15.02-.05.03-.09.08-.12.15-.04.07-.07.14-.1.22-.07.17-.14.31-.21.42-.07.11-.18.2-.31.28l-1.85,1.07c-.43.25-.83.37-1.21.38Zm2.47-4.05c.07-.12.09-.23.08-.35-.01-.12-.06-.24-.13-.37l-1.68-2.91c-.06-.1-.13-.16-.22-.19-.09-.02-.19,0-.29.05l-1.6.92c-.23.13-.36.29-.39.48-.03.19.01.38.13.59l1.5,2.61c.08.14.18.25.28.3.1.06.21.08.32.06.11-.02.23-.06.37-.14l1.29-.74c.16-.09.28-.2.34-.32Z"/><path class="cls-7" d="m89,95.93c-.18-.05-.32-.17-.44-.37l-5.06-8.77c-.12-.21-.16-.4-.11-.57.05-.17.18-.32.38-.43l5.16-2.98c.43-.25.86-.38,1.28-.39.42,0,.81.11,1.17.34.36.23.67.57.94,1.03l1.36,2.35c.42.72.55,1.39.4,1.99-.15.6-.59,1.11-1.32,1.53l-3.03,1.75c-.1.06-.16.13-.19.22-.03.09,0,.19.05.29l1.32,2.29c.12.21.16.4.11.57-.04.17-.17.32-.38.44l-1.07.62c-.2.11-.39.15-.57.1Zm2.06-8.54c.04-.15,0-.33-.12-.54l-.62-1.07c-.1-.17-.24-.28-.43-.32-.19-.04-.37-.01-.55.09l-2.24,1.29c-.1.06-.16.13-.19.22-.03.09,0,.19.05.29l.93,1.62c.06.1.13.16.23.19.09.03.19,0,.29-.05l2.24-1.29c.24-.14.37-.28.41-.43Z"/><path class="cls-7" d="m98.14,90.65c-.18-.05-.32-.17-.44-.37l-5.06-8.77c-.12-.21-.15-.4-.11-.57.05-.17.18-.32.38-.43l1.07-.62c.21-.12.4-.16.57-.11.17.05.32.17.44.38l3.95,6.84c.06.11.14.17.23.19.09.02.19,0,.29-.05l3.73-2.16c.21-.12.4-.16.57-.11.17.05.32.17.44.38l.56.96c.12.21.16.4.11.57-.04.17-.17.32-.38.44l-5.77,3.33c-.2.11-.39.15-.57.1Z"/><path class="cls-7" d="m106.24,85.99c-.17-.05-.32-.17-.44-.38l-.56-.96c-.12-.21-.16-.4-.11-.57.05-.17.17-.32.38-.44l4.09-2.36c.18-.1.28-.25.31-.42.03-.18-.02-.37-.14-.58l-.13-.22c-.06-.1-.12-.18-.2-.24-.08-.06-.16-.08-.25-.07l-.06.02-4.2,1.41s-.09.03-.14.04c-.53.16-.98.16-1.38,0-.4-.15-.74-.49-1.04-1l-1.12-1.94c-.25-.43-.38-.83-.39-1.21-.02-.38.09-.73.31-1.06.22-.32.56-.61,1-.87l4.72-2.73c.21-.12.4-.16.57-.12.18.04.32.17.45.38l.56.96c.12.21.15.4.1.57-.05.17-.18.32-.39.44l-3.86,2.23c-.2.12-.32.26-.35.42-.04.17,0,.34.1.52l.2.34c.05.08.12.15.22.21.1.06.21.06.34.01l4.22-1.41c.5-.17.97-.17,1.4,0,.43.17.79.51,1.09,1.03l1.12,1.94c.23.4.35.79.35,1.17,0,.38-.11.73-.34,1.06-.23.33-.55.62-.98.86l-4.9,2.83c-.21.12-.4.16-.57.11Z"/><path class="cls-6" d="m46.73,123.78c-.17-.05-.32-.17-.44-.38l-.34-.6c-.12-.21-.16-.4-.11-.57.05-.17.17-.32.38-.44l2.78-1.61c.12-.07.23-.17.32-.28s.13-.25.13-.4c0-.15-.04-.32-.14-.49l-.29-.5c-.07-.12-.14-.19-.22-.22-.08-.03-.14-.03-.2,0s-.1.08-.14.16c-.04.07-.08.15-.12.23-.05.12-.1.24-.16.33-.06.1-.13.17-.22.22l-1.72,1c-.41.23-.79.36-1.16.38-.37.02-.71-.07-1.02-.27-.31-.2-.59-.51-.83-.92l-2.15-3.73c-.38-.65-.49-1.25-.35-1.8.14-.55.54-1.02,1.2-1.4l4.25-2.45c.21-.12.4-.16.58-.12.18.04.32.17.44.38l4.63,8.02c.26.44.39.87.41,1.26s-.08.77-.29,1.1c-.22.34-.54.63-.98.88l-3.64,2.1c-.21.12-.4.16-.57.11Zm.7-7.18c.07-.12.1-.26.1-.43,0-.17-.06-.34-.16-.52l-1.31-2.27c-.06-.1-.13-.16-.22-.19-.09-.03-.19,0-.29.05l-1.48.85c-.23.13-.37.31-.44.52-.07.22-.02.46.13.72l1.06,1.83c.09.16.19.28.3.37.11.09.24.14.38.15.14,0,.29-.03.45-.12l1.22-.71c.11-.06.2-.15.27-.27Z"/><path class="cls-6" d="m54.87,105.23c.18.05.32.17.44.37l3.94,6.83c.12.21.16.41.12.59s-.16.34-.36.45l-1.17.67c-.1.06-.19.08-.26.08s-.14-.04-.2-.08l-.04-.03c-.1-.06-.17-.1-.22-.12s-.1,0-.14.02-.09.07-.12.14-.07.14-.1.22c-.07.17-.14.31-.21.42s-.17.2-.31.28l-1.64.95c-.62.35-1.18.45-1.7.28-.52-.17-.96-.57-1.34-1.23l-3.17-5.48c-.12-.21-.16-.4-.11-.57.04-.17.17-.32.38-.44l.9-.52c.2-.11.39-.15.57-.1.18.05.33.17.44.37l2.66,4.62c.14.24.29.38.48.44.18.06.37.03.55-.07l1.34-.78c.19-.11.31-.26.35-.45s0-.4-.14-.63l-2.67-4.62c-.11-.2-.15-.39-.11-.56.04-.17.17-.32.38-.44l.9-.52c.2-.11.39-.15.57-.1Z"/><path class="cls-6" d="m55.89,103.1c-.17-.05-.32-.18-.44-.39l-.2-.34c-.12-.21-.15-.4-.11-.57.05-.17.18-.32.38-.43l.87-.5c.21-.12.4-.16.57-.11.17.05.32.17.44.38l.2.34c.12.21.16.4.12.58-.04.18-.17.32-.38.44l-.87.5c-.21.12-.4.15-.57.1Zm5.18,8.96c-.18-.05-.33-.17-.44-.37l-3.97-6.87c-.12-.21-.15-.4-.1-.57.05-.17.17-.32.37-.43l.87-.5c.21-.12.4-.16.57-.11.17.05.32.17.44.38l3.97,6.87c.12.21.16.4.11.57-.05.17-.17.32-.38.44l-.87.5c-.2.11-.39.15-.57.1Z"/><path class="cls-6" d="m65.09,109.64c-.38,0-.73-.1-1.05-.32s-.61-.55-.86-.99l-2.36-4.09c-.36-.62-.46-1.2-.33-1.76.13-.56.51-1.02,1.14-1.38l2.46-1.42c.1-.06.16-.13.19-.22.03-.09.01-.18-.04-.28l-.56-.96c-.11-.19-.16-.37-.15-.53,0-.16.08-.32.22-.49l.73-.89c.17-.22.36-.33.54-.31.19.01.35.14.49.37l5.42,9.38c.12.21.15.4.1.57-.05.17-.18.32-.39.44l-.88.51c-.1.06-.18.08-.26.08-.07,0-.14-.04-.2-.08l-.04-.03c-.09-.07-.16-.11-.21-.12-.05,0-.1,0-.15.02-.05.03-.09.08-.12.15-.04.07-.07.14-.1.22-.07.17-.14.31-.21.42-.07.11-.18.2-.31.28l-1.85,1.07c-.43.25-.83.37-1.21.38Zm2.47-4.05c.07-.12.09-.23.08-.35s-.06-.24-.13-.37l-1.68-2.91c-.06-.1-.13-.16-.22-.19-.09-.02-.19,0-.29.05l-1.6.92c-.23.13-.36.29-.39.48-.03.19.01.38.13.59l1.5,2.61c.08.14.18.25.28.3.1.06.21.08.32.06s.23-.06.37-.14l1.29-.74c.16-.09.28-.2.34-.32Z"/><path class="cls-6" d="m73.32,104.9c-.4.03-.77-.07-1.11-.29-.34-.22-.64-.56-.91-1.03l-2.26-3.91c-.39-.68-.51-1.31-.36-1.9.15-.59.56-1.07,1.23-1.46l2.88-1.66c.66-.38,1.28-.49,1.86-.32.58.17,1.06.58,1.44,1.24l.74,1.29c.31.54.41,1.01.29,1.41-.12.4-.45.75-1,1.06l-2.96,1.71c-.1.06-.16.14-.18.24-.02.1,0,.2.06.3l.17.29c.06.1.12.17.2.22.08.05.16.07.24.06.09,0,.17-.04.25-.08l3.42-1.98c.21-.12.4-.16.57-.11s.32.17.44.38l.48.83c.11.2.15.39.11.56-.04.18-.17.32-.38.44l-3.92,2.27c-.46.27-.89.41-1.29.44Zm1.02-7.05c.04-.13.01-.28-.08-.44l-.07-.12c-.08-.14-.18-.23-.29-.28-.12-.05-.26-.03-.42.06l-1.79,1.03c-.15.09-.24.21-.27.36-.03.15,0,.31.1.46l.12.22c.06.1.13.16.22.19.09.02.19,0,.29-.05l1.91-1.11c.14-.08.24-.19.28-.32Z"/><path class="cls-6" d="m81.38,100.24c-.38,0-.73-.1-1.05-.32-.32-.22-.61-.55-.86-1l-2.36-4.09c-.36-.62-.46-1.2-.33-1.76.13-.56.51-1.02,1.14-1.38l2.46-1.42c.1-.06.16-.13.19-.22.03-.09.01-.18-.04-.28l-.56-.96c-.11-.19-.16-.37-.15-.53,0-.16.08-.32.22-.49l.73-.89c.17-.22.36-.33.54-.31.19.01.35.14.49.37l5.42,9.38c.12.21.15.4.1.57-.05.17-.18.32-.39.44l-.88.51c-.1.06-.18.08-.26.08-.07,0-.14-.04-.2-.08l-.04-.03c-.09-.07-.16-.11-.21-.12-.05-.01-.1,0-.15.02-.05.03-.09.08-.12.15-.04.07-.07.14-.1.22-.07.17-.14.31-.21.42-.07.11-.18.2-.31.28l-1.85,1.07c-.43.25-.83.37-1.21.38Zm2.47-4.05c.07-.12.09-.23.08-.35-.01-.12-.06-.24-.13-.37l-1.68-2.91c-.06-.1-.13-.16-.22-.19-.09-.02-.19,0-.29.05l-1.6.92c-.23.13-.36.29-.39.48-.03.19.01.38.13.59l1.5,2.61c.08.14.18.25.28.3.1.06.21.08.32.06.11-.02.23-.06.37-.14l1.29-.74c.16-.09.28-.2.34-.32Z"/><path class="cls-6" d="m89,95.93c-.18-.05-.32-.17-.44-.37l-5.06-8.77c-.12-.21-.16-.4-.11-.57.05-.17.18-.32.38-.43l5.16-2.98c.43-.25.86-.38,1.28-.39.42,0,.81.11,1.17.34.36.23.67.57.94,1.03l1.36,2.35c.42.72.55,1.39.4,1.99-.15.6-.59,1.11-1.32,1.53l-3.03,1.75c-.1.06-.16.13-.19.22-.03.09,0,.19.05.29l1.32,2.29c.12.21.16.4.11.57-.04.17-.17.32-.38.44l-1.07.62c-.2.11-.39.15-.57.1Zm2.06-8.54c.04-.15,0-.33-.12-.54l-.62-1.07c-.1-.17-.24-.28-.43-.32-.19-.04-.37-.01-.55.09l-2.24,1.29c-.1.06-.16.13-.19.22-.03.09,0,.19.05.29l.93,1.62c.06.1.13.16.23.19.09.03.19,0,.29-.05l2.24-1.29c.24-.14.37-.28.41-.43Z"/><path class="cls-6" d="m98.14,90.65c-.18-.05-.32-.17-.44-.37l-5.06-8.77c-.12-.21-.15-.4-.11-.57.05-.17.18-.32.38-.43l1.07-.62c.21-.12.4-.16.57-.11.17.05.32.17.44.38l3.95,6.84c.06.11.14.17.23.19.09.02.19,0,.29-.05l3.73-2.16c.21-.12.4-.16.57-.11.17.05.32.17.44.38l.56.96c.12.21.16.4.11.57-.04.17-.17.32-.38.44l-5.77,3.33c-.2.11-.39.15-.57.1Z"/><path class="cls-6" d="m106.24,85.99c-.17-.05-.32-.17-.44-.38l-.56-.96c-.12-.21-.16-.4-.11-.57.05-.17.17-.32.38-.44l4.09-2.36c.18-.1.28-.25.31-.42.03-.18-.02-.37-.14-.58l-.13-.22c-.06-.1-.12-.18-.2-.24-.08-.06-.16-.08-.25-.07l-.06.02-4.2,1.41s-.09.03-.14.04c-.53.16-.98.16-1.38,0-.4-.15-.74-.49-1.04-1l-1.12-1.94c-.25-.43-.38-.83-.39-1.21-.02-.38.09-.73.31-1.06.22-.32.56-.61,1-.87l4.72-2.73c.21-.12.4-.16.57-.12.18.04.32.17.45.38l.56.96c.12.21.15.4.1.57-.05.17-.18.32-.39.44l-3.86,2.23c-.2.12-.32.26-.35.42-.04.17,0,.34.1.52l.2.34c.05.08.12.15.22.21.1.06.21.06.34.01l4.22-1.41c.5-.17.97-.17,1.4,0,.43.17.79.51,1.09,1.03l1.12,1.94c.23.4.35.79.35,1.17,0,.38-.11.73-.34,1.06-.23.33-.55.62-.98.86l-4.9,2.83c-.21.12-.4.16-.57.11Z"/><path class="cls-16" d="m46.73,123.78c-.17-.05-.32-.17-.44-.38l-.34-.6c-.12-.21-.16-.4-.11-.57.05-.17.17-.32.38-.44l2.78-1.61c.12-.07.23-.17.32-.28s.13-.25.13-.4c0-.15-.04-.32-.14-.49l-.29-.5c-.07-.12-.14-.19-.22-.22-.08-.03-.14-.03-.2,0s-.1.08-.14.16c-.04.07-.08.15-.12.23-.05.12-.1.24-.16.33-.06.1-.13.17-.22.22l-1.72,1c-.41.23-.79.36-1.16.38-.37.02-.71-.07-1.02-.27-.31-.2-.59-.51-.83-.92l-2.15-3.73c-.38-.65-.49-1.25-.35-1.8.14-.55.54-1.02,1.2-1.4l4.25-2.45c.21-.12.4-.16.58-.12.18.04.32.17.44.38l4.63,8.02c.26.44.39.87.41,1.26s-.08.77-.29,1.1c-.22.34-.54.63-.98.88l-3.64,2.1c-.21.12-.4.16-.57.11Zm.7-7.18c.07-.12.1-.26.1-.43,0-.17-.06-.34-.16-.52l-1.31-2.27c-.06-.1-.13-.16-.22-.19-.09-.03-.19,0-.29.05l-1.48.85c-.23.13-.37.31-.44.52-.07.22-.02.46.13.72l1.06,1.83c.09.16.19.28.3.37.11.09.24.14.38.15.14,0,.29-.03.45-.12l1.22-.71c.11-.06.2-.15.27-.27Z"/><path class="cls-16" d="m54.87,105.23c.18.05.32.17.44.37l3.94,6.83c.12.21.16.41.12.59s-.16.34-.36.45l-1.17.67c-.1.06-.19.08-.26.08s-.14-.04-.2-.08l-.04-.03c-.1-.06-.17-.1-.22-.12s-.1,0-.14.02-.09.07-.12.14-.07.14-.1.22c-.07.17-.14.31-.21.42s-.17.2-.31.28l-1.64.95c-.62.35-1.18.45-1.7.28-.52-.17-.96-.57-1.34-1.23l-3.17-5.48c-.12-.21-.16-.4-.11-.57.04-.17.17-.32.38-.44l.9-.52c.2-.11.39-.15.57-.1.18.05.33.17.44.37l2.66,4.62c.14.24.29.38.48.44.18.06.37.03.55-.07l1.34-.78c.19-.11.31-.26.35-.45s0-.4-.14-.63l-2.67-4.62c-.11-.2-.15-.39-.11-.56.04-.17.17-.32.38-.44l.9-.52c.2-.11.39-.15.57-.1Z"/><path class="cls-16" d="m55.89,103.1c-.17-.05-.32-.18-.44-.39l-.2-.34c-.12-.21-.15-.4-.11-.57.05-.17.18-.32.38-.43l.87-.5c.21-.12.4-.16.57-.11.17.05.32.17.44.38l.2.34c.12.21.16.4.12.58-.04.18-.17.32-.38.44l-.87.5c-.21.12-.4.15-.57.1Zm5.18,8.96c-.18-.05-.33-.17-.44-.37l-3.97-6.87c-.12-.21-.15-.4-.1-.57.05-.17.17-.32.37-.43l.87-.5c.21-.12.4-.16.57-.11.17.05.32.17.44.38l3.97,6.87c.12.21.16.4.11.57-.05.17-.17.32-.38.44l-.87.5c-.2.11-.39.15-.57.1Z"/><path class="cls-16" d="m65.09,109.64c-.38,0-.73-.1-1.05-.32s-.61-.55-.86-.99l-2.36-4.09c-.36-.62-.46-1.2-.33-1.76.13-.56.51-1.02,1.14-1.38l2.46-1.42c.1-.06.16-.13.19-.22.03-.09.01-.18-.04-.28l-.56-.96c-.11-.19-.16-.37-.15-.53,0-.16.08-.32.22-.49l.73-.89c.17-.22.36-.33.54-.31.19.01.35.14.49.37l5.42,9.38c.12.21.15.4.1.57-.05.17-.18.32-.39.44l-.88.51c-.1.06-.18.08-.26.08-.07,0-.14-.04-.2-.08l-.04-.03c-.09-.07-.16-.11-.21-.12-.05,0-.1,0-.15.02-.05.03-.09.08-.12.15-.04.07-.07.14-.1.22-.07.17-.14.31-.21.42-.07.11-.18.2-.31.28l-1.85,1.07c-.43.25-.83.37-1.21.38Zm2.47-4.05c.07-.12.09-.23.08-.35s-.06-.24-.13-.37l-1.68-2.91c-.06-.1-.13-.16-.22-.19-.09-.02-.19,0-.29.05l-1.6.92c-.23.13-.36.29-.39.48-.03.19.01.38.13.59l1.5,2.61c.08.14.18.25.28.3.1.06.21.08.32.06s.23-.06.37-.14l1.29-.74c.16-.09.28-.2.34-.32Z"/><path class="cls-16" d="m73.32,104.9c-.4.03-.77-.07-1.11-.29-.34-.22-.64-.56-.91-1.03l-2.26-3.91c-.39-.68-.51-1.31-.36-1.9.15-.59.56-1.07,1.23-1.46l2.88-1.66c.66-.38,1.28-.49,1.86-.32.58.17,1.06.58,1.44,1.24l.74,1.29c.31.54.41,1.01.29,1.41-.12.4-.45.75-1,1.06l-2.96,1.71c-.1.06-.16.14-.18.24-.02.1,0,.2.06.3l.17.29c.06.1.12.17.2.22.08.05.16.07.24.06.09,0,.17-.04.25-.08l3.42-1.98c.21-.12.4-.16.57-.11s.32.17.44.38l.48.83c.11.2.15.39.11.56-.04.18-.17.32-.38.44l-3.92,2.27c-.46.27-.89.41-1.29.44Zm1.02-7.05c.04-.13.01-.28-.08-.44l-.07-.12c-.08-.14-.18-.23-.29-.28-.12-.05-.26-.03-.42.06l-1.79,1.03c-.15.09-.24.21-.27.36-.03.15,0,.31.1.46l.12.22c.06.1.13.16.22.19.09.02.19,0,.29-.05l1.91-1.11c.14-.08.24-.19.28-.32Z"/><path class="cls-16" d="m81.38,100.24c-.38,0-.73-.1-1.05-.32-.32-.22-.61-.55-.86-1l-2.36-4.09c-.36-.62-.46-1.2-.33-1.76.13-.56.51-1.02,1.14-1.38l2.46-1.42c.1-.06.16-.13.19-.22.03-.09.01-.18-.04-.28l-.56-.96c-.11-.19-.16-.37-.15-.53,0-.16.08-.32.22-.49l.73-.89c.17-.22.36-.33.54-.31.19.01.35.14.49.37l5.42,9.38c.12.21.15.4.1.57-.05.17-.18.32-.39.44l-.88.51c-.1.06-.18.08-.26.08-.07,0-.14-.04-.2-.08l-.04-.03c-.09-.07-.16-.11-.21-.12-.05-.01-.1,0-.15.02-.05.03-.09.08-.12.15-.04.07-.07.14-.1.22-.07.17-.14.31-.21.42-.07.11-.18.2-.31.28l-1.85,1.07c-.43.25-.83.37-1.21.38Zm2.47-4.05c.07-.12.09-.23.08-.35-.01-.12-.06-.24-.13-.37l-1.68-2.91c-.06-.1-.13-.16-.22-.19-.09-.02-.19,0-.29.05l-1.6.92c-.23.13-.36.29-.39.48-.03.19.01.38.13.59l1.5,2.61c.08.14.18.25.28.3.1.06.21.08.32.06.11-.02.23-.06.37-.14l1.29-.74c.16-.09.28-.2.34-.32Z"/><path class="cls-16" d="m89,95.93c-.18-.05-.32-.17-.44-.37l-5.06-8.77c-.12-.21-.16-.4-.11-.57.05-.17.18-.32.38-.43l5.16-2.98c.43-.25.86-.38,1.28-.39.42,0,.81.11,1.17.34.36.23.67.57.94,1.03l1.36,2.35c.42.72.55,1.39.4,1.99-.15.6-.59,1.11-1.32,1.53l-3.03,1.75c-.1.06-.16.13-.19.22-.03.09,0,.19.05.29l1.32,2.29c.12.21.16.4.11.57-.04.17-.17.32-.38.44l-1.07.62c-.2.11-.39.15-.57.1Zm2.06-8.54c.04-.15,0-.33-.12-.54l-.62-1.07c-.1-.17-.24-.28-.43-.32-.19-.04-.37-.01-.55.09l-2.24,1.29c-.1.06-.16.13-.19.22-.03.09,0,.19.05.29l.93,1.62c.06.1.13.16.23.19.09.03.19,0,.29-.05l2.24-1.29c.24-.14.37-.28.41-.43Z"/><path class="cls-16" d="m98.14,90.65c-.18-.05-.32-.17-.44-.37l-5.06-8.77c-.12-.21-.15-.4-.11-.57.05-.17.18-.32.38-.43l1.07-.62c.21-.12.4-.16.57-.11.17.05.32.17.44.38l3.95,6.84c.06.11.14.17.23.19.09.02.19,0,.29-.05l3.73-2.16c.21-.12.4-.16.57-.11.17.05.32.17.44.38l.56.96c.12.21.16.4.11.57-.04.17-.17.32-.38.44l-5.77,3.33c-.2.11-.39.15-.57.1Z"/><path class="cls-16" d="m106.24,85.99c-.17-.05-.32-.17-.44-.38l-.56-.96c-.12-.21-.16-.4-.11-.57.05-.17.17-.32.38-.44l4.09-2.36c.18-.1.28-.25.31-.42.03-.18-.02-.37-.14-.58l-.13-.22c-.06-.1-.12-.18-.2-.24-.08-.06-.16-.08-.25-.07l-.06.02-4.2,1.41s-.09.03-.14.04c-.53.16-.98.16-1.38,0-.4-.15-.74-.49-1.04-1l-1.12-1.94c-.25-.43-.38-.83-.39-1.21-.02-.38.09-.73.31-1.06.22-.32.56-.61,1-.87l4.72-2.73c.21-.12.4-.16.57-.12.18.04.32.17.45.38l.56.96c.12.21.15.4.1.57-.05.17-.18.32-.39.44l-3.86,2.23c-.2.12-.32.26-.35.42-.04.17,0,.34.1.52l.2.34c.05.08.12.15.22.21.1.06.21.06.34.01l4.22-1.41c.5-.17.97-.17,1.4,0,.43.17.79.51,1.09,1.03l1.12,1.94c.23.4.35.79.35,1.17,0,.38-.11.73-.34,1.06-.23.33-.55.62-.98.86l-4.9,2.83c-.21.12-.4.16-.57.11Z"/><path class="cls-17" d="m46.73,123.78c-.17-.05-.32-.17-.44-.38l-.34-.6c-.12-.21-.16-.4-.11-.57.05-.17.17-.32.38-.44l2.78-1.61c.12-.07.23-.17.32-.28s.13-.25.13-.4c0-.15-.04-.32-.14-.49l-.29-.5c-.07-.12-.14-.19-.22-.22-.08-.03-.14-.03-.2,0s-.1.08-.14.16c-.04.07-.08.15-.12.23-.05.12-.1.24-.16.33-.06.1-.13.17-.22.22l-1.72,1c-.41.23-.79.36-1.16.38-.37.02-.71-.07-1.02-.27-.31-.2-.59-.51-.83-.92l-2.15-3.73c-.38-.65-.49-1.25-.35-1.8.14-.55.54-1.02,1.2-1.4l4.25-2.45c.21-.12.4-.16.58-.12.18.04.32.17.44.38l4.63,8.02c.26.44.39.87.41,1.26s-.08.77-.29,1.1c-.22.34-.54.63-.98.88l-3.64,2.1c-.21.12-.4.16-.57.11Zm.7-7.18c.07-.12.1-.26.1-.43,0-.17-.06-.34-.16-.52l-1.31-2.27c-.06-.1-.13-.16-.22-.19-.09-.03-.19,0-.29.05l-1.48.85c-.23.13-.37.31-.44.52-.07.22-.02.46.13.72l1.06,1.83c.09.16.19.28.3.37.11.09.24.14.38.15.14,0,.29-.03.45-.12l1.22-.71c.11-.06.2-.15.27-.27Z"/><path class="cls-17" d="m54.87,105.23c.18.05.32.17.44.37l3.94,6.83c.12.21.16.41.12.59s-.16.34-.36.45l-1.17.67c-.1.06-.19.08-.26.08s-.14-.04-.2-.08l-.04-.03c-.1-.06-.17-.1-.22-.12s-.1,0-.14.02-.09.07-.12.14-.07.14-.1.22c-.07.17-.14.31-.21.42s-.17.2-.31.28l-1.64.95c-.62.35-1.18.45-1.7.28-.52-.17-.96-.57-1.34-1.23l-3.17-5.48c-.12-.21-.16-.4-.11-.57.04-.17.17-.32.38-.44l.9-.52c.2-.11.39-.15.57-.1.18.05.33.17.44.37l2.66,4.62c.14.24.29.38.48.44.18.06.37.03.55-.07l1.34-.78c.19-.11.31-.26.35-.45s0-.4-.14-.63l-2.67-4.62c-.11-.2-.15-.39-.11-.56.04-.17.17-.32.38-.44l.9-.52c.2-.11.39-.15.57-.1Z"/><path class="cls-17" d="m55.89,103.1c-.17-.05-.32-.18-.44-.39l-.2-.34c-.12-.21-.15-.4-.11-.57.05-.17.18-.32.38-.43l.87-.5c.21-.12.4-.16.57-.11.17.05.32.17.44.38l.2.34c.12.21.16.4.12.58-.04.18-.17.32-.38.44l-.87.5c-.21.12-.4.15-.57.1Zm5.18,8.96c-.18-.05-.33-.17-.44-.37l-3.97-6.87c-.12-.21-.15-.4-.1-.57.05-.17.17-.32.37-.43l.87-.5c.21-.12.4-.16.57-.11.17.05.32.17.44.38l3.97,6.87c.12.21.16.4.11.57-.05.17-.17.32-.38.44l-.87.5c-.2.11-.39.15-.57.1Z"/><path class="cls-17" d="m65.09,109.64c-.38,0-.73-.1-1.05-.32s-.61-.55-.86-.99l-2.36-4.09c-.36-.62-.46-1.2-.33-1.76.13-.56.51-1.02,1.14-1.38l2.46-1.42c.1-.06.16-.13.19-.22.03-.09.01-.18-.04-.28l-.56-.96c-.11-.19-.16-.37-.15-.53,0-.16.08-.32.22-.49l.73-.89c.17-.22.36-.33.54-.31.19.01.35.14.49.37l5.42,9.38c.12.21.15.4.1.57-.05.17-.18.32-.39.44l-.88.51c-.1.06-.18.08-.26.08-.07,0-.14-.04-.2-.08l-.04-.03c-.09-.07-.16-.11-.21-.12-.05,0-.1,0-.15.02-.05.03-.09.08-.12.15-.04.07-.07.14-.1.22-.07.17-.14.31-.21.42-.07.11-.18.2-.31.28l-1.85,1.07c-.43.25-.83.37-1.21.38Zm2.47-4.05c.07-.12.09-.23.08-.35s-.06-.24-.13-.37l-1.68-2.91c-.06-.1-.13-.16-.22-.19-.09-.02-.19,0-.29.05l-1.6.92c-.23.13-.36.29-.39.48-.03.19.01.38.13.59l1.5,2.61c.08.14.18.25.28.3.1.06.21.08.32.06s.23-.06.37-.14l1.29-.74c.16-.09.28-.2.34-.32Z"/><path class="cls-17" d="m73.32,104.9c-.4.03-.77-.07-1.11-.29-.34-.22-.64-.56-.91-1.03l-2.26-3.91c-.39-.68-.51-1.31-.36-1.9.15-.59.56-1.07,1.23-1.46l2.88-1.66c.66-.38,1.28-.49,1.86-.32.58.17,1.06.58,1.44,1.24l.74,1.29c.31.54.41,1.01.29,1.41-.12.4-.45.75-1,1.06l-2.96,1.71c-.1.06-.16.14-.18.24-.02.1,0,.2.06.3l.17.29c.06.1.12.17.2.22.08.05.16.07.24.06.09,0,.17-.04.25-.08l3.42-1.98c.21-.12.4-.16.57-.11s.32.17.44.38l.48.83c.11.2.15.39.11.56-.04.18-.17.32-.38.44l-3.92,2.27c-.46.27-.89.41-1.29.44Zm1.02-7.05c.04-.13.01-.28-.08-.44l-.07-.12c-.08-.14-.18-.23-.29-.28-.12-.05-.26-.03-.42.06l-1.79,1.03c-.15.09-.24.21-.27.36-.03.15,0,.31.1.46l.12.22c.06.1.13.16.22.19.09.02.19,0,.29-.05l1.91-1.11c.14-.08.24-.19.28-.32Z"/><path class="cls-17" d="m81.38,100.24c-.38,0-.73-.1-1.05-.32-.32-.22-.61-.55-.86-1l-2.36-4.09c-.36-.62-.46-1.2-.33-1.76.13-.56.51-1.02,1.14-1.38l2.46-1.42c.1-.06.16-.13.19-.22.03-.09.01-.18-.04-.28l-.56-.96c-.11-.19-.16-.37-.15-.53,0-.16.08-.32.22-.49l.73-.89c.17-.22.36-.33.54-.31.19.01.35.14.49.37l5.42,9.38c.12.21.15.4.1.57-.05.17-.18.32-.39.44l-.88.51c-.1.06-.18.08-.26.08-.07,0-.14-.04-.2-.08l-.04-.03c-.09-.07-.16-.11-.21-.12-.05-.01-.1,0-.15.02-.05.03-.09.08-.12.15-.04.07-.07.14-.1.22-.07.17-.14.31-.21.42-.07.11-.18.2-.31.28l-1.85,1.07c-.43.25-.83.37-1.21.38Zm2.47-4.05c.07-.12.09-.23.08-.35-.01-.12-.06-.24-.13-.37l-1.68-2.91c-.06-.1-.13-.16-.22-.19-.09-.02-.19,0-.29.05l-1.6.92c-.23.13-.36.29-.39.48-.03.19.01.38.13.59l1.5,2.61c.08.14.18.25.28.3.1.06.21.08.32.06.11-.02.23-.06.37-.14l1.29-.74c.16-.09.28-.2.34-.32Z"/><path class="cls-17" d="m89,95.93c-.18-.05-.32-.17-.44-.37l-5.06-8.77c-.12-.21-.16-.4-.11-.57.05-.17.18-.32.38-.43l5.16-2.98c.43-.25.86-.38,1.28-.39.42,0,.81.11,1.17.34.36.23.67.57.94,1.03l1.36,2.35c.42.72.55,1.39.4,1.99-.15.6-.59,1.11-1.32,1.53l-3.03,1.75c-.1.06-.16.13-.19.22-.03.09,0,.19.05.29l1.32,2.29c.12.21.16.4.11.57-.04.17-.17.32-.38.44l-1.07.62c-.2.11-.39.15-.57.1Zm2.06-8.54c.04-.15,0-.33-.12-.54l-.62-1.07c-.1-.17-.24-.28-.43-.32-.19-.04-.37-.01-.55.09l-2.24,1.29c-.1.06-.16.13-.19.22-.03.09,0,.19.05.29l.93,1.62c.06.1.13.16.23.19.09.03.19,0,.29-.05l2.24-1.29c.24-.14.37-.28.41-.43Z"/><path class="cls-17" d="m98.14,90.65c-.18-.05-.32-.17-.44-.37l-5.06-8.77c-.12-.21-.15-.4-.11-.57.05-.17.18-.32.38-.43l1.07-.62c.21-.12.4-.16.57-.11.17.05.32.17.44.38l3.95,6.84c.06.11.14.17.23.19.09.02.19,0,.29-.05l3.73-2.16c.21-.12.4-.16.57-.11.17.05.32.17.44.38l.56.96c.12.21.16.4.11.57-.04.17-.17.32-.38.44l-5.77,3.33c-.2.11-.39.15-.57.1Z"/><path class="cls-17" d="m106.24,85.99c-.17-.05-.32-.17-.44-.38l-.56-.96c-.12-.21-.16-.4-.11-.57.05-.17.17-.32.38-.44l4.09-2.36c.18-.1.28-.25.31-.42.03-.18-.02-.37-.14-.58l-.13-.22c-.06-.1-.12-.18-.2-.24-.08-.06-.16-.08-.25-.07l-.06.02-4.2,1.41s-.09.03-.14.04c-.53.16-.98.16-1.38,0-.4-.15-.74-.49-1.04-1l-1.12-1.94c-.25-.43-.38-.83-.39-1.21-.02-.38.09-.73.31-1.06.22-.32.56-.61,1-.87l4.72-2.73c.21-.12.4-.16.57-.12.18.04.32.17.45.38l.56.96c.12.21.15.4.1.57-.05.17-.18.32-.39.44l-3.86,2.23c-.2.12-.32.26-.35.42-.04.17,0,.34.1.52l.2.34c.05.08.12.15.22.21.1.06.21.06.34.01l4.22-1.41c.5-.17.97-.17,1.4,0,.43.17.79.51,1.09,1.03l1.12,1.94c.23.4.35.79.35,1.17,0,.38-.11.73-.34,1.06-.23.33-.55.62-.98.86l-4.9,2.83c-.21.12-.4.16-.57.11Z"/><rect class="cls-8" x="22.03" y="56.4" width="33.41" height="21.49" transform="translate(-29.64 30.62) rotate(-31.91)"/><rect class="cls-15" x="6.39" y="31.66" width="67.12" height="11.11" rx="1.44" ry="1.44" transform="translate(-13.63 26.74) rotate(-31.91)"/><rect class="cls-8" x="62.13" y="57.04" width="33.41" height="21.49" transform="translate(-23.92 51.92) rotate(-31.91)"/><polygon class="cls-19" points="22.02 82.12 15.99 81.62 16.21 79.02 19.65 79.3 13.15 68.88 15.37 67.5 24.62 82.35 22.02 82.12"/><polygon class="cls-21" points="28.57 54.82 22.94 52.61 21.99 55.04 25.2 56.3 14.77 62.79 16.15 65.01 31 55.76 28.57 54.82"/><polygon class="cls-18" points="71.95 52.24 66.32 50.04 65.37 52.47 68.58 53.72 58.15 60.22 59.53 62.43 74.38 53.19 71.95 52.24"/><polygon class="cls-20" points="64.08 86.92 58.05 86.42 58.27 83.81 61.71 84.1 55.21 73.68 57.43 72.3 66.68 87.15 64.08 86.92"/><line class="cls-4" x1="21.24" y1="69.74" x2="48.08" y2="53.07"/><line class="cls-2" x1="22.1" y1="72.92" x2="50.26" y2="55.42"/><line class="cls-9" x1="61.27" y1="69.56" x2="88.27" y2="52.57"/><line class="cls-2" x1="25.87" y1="78.9" x2="54.03" y2="61.41"/><line class="cls-2" x1="39.34" y1="53.63" x2="50.76" y2="72.03"/><line class="cls-2" x1="32.51" y1="58.16" x2="43.93" y2="76.57"/><line class="cls-2" x1="25.6" y1="62.56" x2="37.02" y2="80.97"/><line class="cls-2" x1="62.4" y1="71.55" x2="90.56" y2="54.06"/><line class="cls-2" x1="65.76" y1="75.76" x2="93.93" y2="58.27"/><line class="cls-2" x1="68.1" y1="80.73" x2="96.26" y2="63.24"/><line class="cls-2" x1="77.52" y1="55.86" x2="88.94" y2="74.26"/><line class="cls-2" x1="67.69" y1="61.65" x2="79.11" y2="80.05"/><rect class="cls-14" x="41.44" y="41.38" width="6.13" height="7.06" transform="translate(-17.04 30.45) rotate(-32.04)"/><polygon class="cls-14" points="49.41 52.73 40.79 50.75 51.39 44.11 49.41 52.73"/></g></svg>