<?xml version="1.0" encoding="UTF-8"?><svg id="_レイヤー_2" xmlns="http://www.w3.org/2000/svg" viewBox="0 0 176.36 143.9"><defs><style>.cls-1{fill:#f8b62d;}.cls-2{fill:#fff;}.cls-3{fill:#a73736;}.cls-4{fill:#c9a063;}.cls-5{fill:#45b035;}</style></defs><g id="_レイヤー_1-2"><rect class="cls-4" x="21.9" y="44.03" width="75.81" height="15.48"/><rect class="cls-4" x="97.79" y="91.81" width="75.81" height="12.65"/><rect class="cls-2" x="22.82" width="149.79" height="25.36" rx="3.76" ry="3.76"/><path class="cls-2" d="m19.48,40.99v54.34h81.32v-54.34H19.48Zm75.66,16.17h-13.26v-10.51h13.26v10.51Zm-51.09,5.65h13.26v10.55h-13.26v-10.55Zm-5.65,10.55h-13.26v-10.55h13.26v10.55Zm18.92-16.2h-13.26v-10.51h13.26v10.51Zm5.65-10.51h13.26v10.51h-13.26v-10.51Zm0,16.17h13.26v10.55h-13.26v-10.55Zm18.92,0h13.26v10.55h-13.26v-10.55Zm-43.49-16.17v10.51h-13.26v-10.51h13.26Zm-13.26,43.03v-10.66h13.26v10.66h-13.26Zm18.92,0v-10.66h13.26v10.66h-13.26Zm18.92,0v-10.66h13.26v10.66h-13.26Zm18.92,0v-10.66h13.26v10.66h-13.26Z"/><rect class="cls-2" x="132.97" y="55.98" width="5.65" height="72.75" transform="translate(228.15 -43.44) rotate(90)"/><rect class="cls-2" x="132.97" y="104.4" width="5.65" height="72.75" transform="translate(276.57 4.98) rotate(90)"/><path class="cls-2" d="m95.04,89.56v54.34h81.32v-54.34h-81.32Zm75.66,12.07h-19.67v-6.42h19.67v6.42Zm-25.32,5.65v6.45h-19.5v-6.45h19.5Zm-19.5-5.65v-6.42h19.5v6.42h-19.5Zm-5.65,12.1h-19.53v-6.45h19.53v6.45Zm0,5.65v6.45h-19.53v-6.45h19.53Zm5.65,0h19.5v6.45h-19.5v-6.45Zm25.15,0h19.67v6.45h-19.67v-6.45Zm0-5.65v-6.45h19.67v6.45h-19.67Zm-30.81-18.52v6.42h-19.53v-6.42h19.53Zm-19.53,43.03v-6.75h19.53v6.75h-19.53Zm25.19,0v-6.75h19.5v6.75h-19.5Zm25.15,0v-6.75h19.67v6.75h-19.67Z"/><rect class="cls-1" x="90.84" y="25.36" width="13.75" height="13.75"/><polygon class="cls-1" points="97.71 53.18 83.71 39.18 111.71 39.18 97.71 53.18"/><polygon class="cls-5" points="54.42 31.98 47.25 22.11 42.73 25.39 47.51 31.98 19.48 31.98 19.48 37.56 51.57 37.56 58.47 37.56 54.42 31.98"/><polygon class="cls-3" points="9.87 76.35 0 69.18 3.28 64.66 9.87 69.44 9.87 41.41 15.45 41.41 15.45 73.5 15.45 80.4 9.87 76.35"/><polygon class="cls-5" points="140.16 78.86 132.99 68.99 128.47 72.27 133.26 78.86 105.22 78.86 105.22 84.44 137.31 84.44 144.22 84.44 140.16 78.86"/><polygon class="cls-3" points="84.02 134.87 74.16 127.7 77.44 123.18 84.02 127.96 84.02 99.93 89.61 99.93 89.61 132.02 89.61 138.92 84.02 134.87"/></g></svg>