<?xml version="1.0" encoding="UTF-8"?><svg id="_レイヤー_2" xmlns="http://www.w3.org/2000/svg" viewBox="0 0 235.47 43.03"><defs><style>.cls-1{fill:#fff;}.cls-2{fill:#e71f19;}.cls-3{fill:#7cc055;}.cls-4{fill:#231815;}.cls-5{fill:#54c3f1;}</style></defs><g id="_レイヤー_1-2"><rect class="cls-1" width="235.47" height="43.03"/><path class="cls-4" d="m34.18,13.58H9.87l.29-1.37h34.45l-.29,1.37h-8.54l-2.47,11.63h-1.6l2.47-11.63Z"/><path class="cls-4" d="m46.53,24.79c-.53-.28-.9-.69-1.13-1.23-.23-.54-.26-1.2-.09-1.96l.66-3.15c.25-1.16.8-2.08,1.65-2.75.85-.67,1.88-1.01,3.08-1.01h8.91c1.19,0,2.07.33,2.63.97.57.65.73,1.56.48,2.74l-.46,2.18h-15.42l.29-1.37h13.91l.1-.54c.18-.83.08-1.47-.29-1.92-.37-.45-.99-.67-1.84-.67h-8.37c-.87,0-1.58.24-2.12.73-.55.48-.9,1.12-1.07,1.91l-.58,2.69c-.08.39-.06.77.06,1.14.12.37.36.68.71.91.34.23.79.35,1.33.35h12.17l-.29,1.39h-12.41c-.73,0-1.36-.14-1.89-.41Z"/><path class="cls-4" d="m67.03,14.72h1.49l-.21.95.21-.19c.25-.19.5-.35.76-.48.26-.12.52-.21.8-.27.28-.06.57-.08.87-.08h8.85c1.19,0,2.06.33,2.61.99s.71,1.58.46,2.77l-1.45,6.8h-1.49l1.39-6.53c.18-.84.09-1.49-.27-1.94-.36-.45-.97-.67-1.82-.67h-8.33c-.87,0-1.58.24-2.13.73-.55.48-.91,1.11-1.08,1.89l-1.39,6.53h-1.49l2.24-10.49Z"/><path class="cls-4" d="m85.12,23.82h13.35c.39,0,.73-.1,1.04-.3.3-.2.5-.47.58-.82l.1-.46c.05-.26.01-.5-.13-.71s-.43-.33-.84-.37l-11.75-1.14c-.51-.06-.9-.27-1.17-.65-.27-.38-.33-.89-.2-1.52l.15-.73c.17-.76.54-1.35,1.12-1.78s1.26-.64,2.03-.64h13.49l-.29,1.39-13.31.02c-.44,0-.8.09-1.07.28-.27.19-.45.46-.53.82l-.08.44c-.06.23-.02.46.11.66s.38.33.74.37l11.83,1.16c.5.04.88.28,1.16.73.28.44.35.95.23,1.53l-.17.79c-.08.41-.28.8-.59,1.15s-.69.64-1.13.85c-.44.21-.88.32-1.33.32h-13.64l.29-1.39Z"/><path class="cls-4" d="m105.44,24.26c-.59-.63-.77-1.52-.54-2.66l.66-3.15c.25-1.16.8-2.08,1.65-2.75.85-.67,1.88-1.01,3.08-1.01h8.91c1.17,0,2.04.33,2.61,1s.73,1.58.48,2.76l-.66,3.15c-.24,1.09-.78,1.96-1.65,2.62-.86.66-1.85.99-2.97.99h-8.99c-1.12,0-1.98-.31-2.57-.94Zm13.06-.82c.44-.25.81-.56,1.1-.93.29-.37.48-.74.56-1.1l.58-2.71c.18-.84.08-1.49-.29-1.94-.37-.45-.99-.67-1.84-.67h-8.37c-.87,0-1.58.24-2.12.72-.55.48-.9,1.11-1.07,1.9l-.58,2.71c-.08.39-.06.76.07,1.13.13.37.37.67.7.91.34.24.78.36,1.32.36h8.5c.52,0,1.01-.12,1.45-.37Z"/><path class="cls-4" d="m126.6,14.74h1.49l-.21.99c.39-.37.79-.64,1.22-.8.43-.16.9-.24,1.43-.24h10.76l-.29,1.39h-10.53c-.87,0-1.58.24-2.13.73-.55.48-.91,1.12-1.08,1.91l-1.39,6.49h-1.49l2.22-10.47Z"/><path class="cls-2" d="m144.71,12.21h1.6l-2.47,11.63h16.31l-.29,1.37h-17.91l2.76-13Z"/><path class="cls-2" d="m31.21,27.14h135.55c.54,0,.99-.09,1.35-.26.36-.17.77-.48,1.24-.92l.81-.79h-.5l-5.7-10.47h1.68l5.56,9.99h-.62l8.95-9.99h1.85l-10.49,11.61c-.72.8-1.38,1.37-1.98,1.7-.6.33-1.23.5-1.88.5H30.92l.29-1.37Z"/><path class="cls-2" d="m183.91,24.7c-.6-.34-1.03-.81-1.3-1.43-.26-.61-.3-1.33-.12-2.15l.99-4.7c.18-.84.53-1.58,1.04-2.22s1.13-1.13,1.87-1.47c.73-.35,1.51-.52,2.34-.52h12.42l-.29,1.37h-11.9c-1.13,0-2.03.3-2.68.9s-1.08,1.36-1.28,2.27l-.85,3.94c-.21.98-.08,1.75.38,2.31.46.56,1.16.84,2.08.84h12.06l-.29,1.37h-12.37c-.8,0-1.5-.17-2.1-.51Z"/><path class="cls-2" d="m203.01,12.21h1.76l5.66,11.73h-.64l10.72-11.73h1.87l-11.9,13h-1.1l-6.36-13Z"/><polyline class="cls-5" points="172.14 22.33 170.33 22.33 164.63 11.87 166.28 11.87"/><polyline class="cls-3" points="173.06 19.93 171.25 19.93 165.55 9.47 167.2 9.47"/><path class="cls-4" d="m32.43,31.78h-1.29l.33-.47h1.57l-.98,4.63h-.51l.89-4.16Z"/><path class="cls-4" d="m34.13,35.76c-.21-.12-.37-.29-.46-.51-.09-.22-.11-.47-.04-.76l.35-1.68c.06-.3.19-.56.37-.79s.4-.4.67-.53c.26-.12.54-.18.83-.18h3.68c.29,0,.53.06.74.18.21.12.36.29.45.52s.1.49.04.8l-.35,1.68c-.06.3-.19.55-.37.77-.18.22-.4.39-.67.51-.26.12-.54.18-.83.18h-3.65c-.29,0-.54-.06-.75-.18Zm5.29-.6c.23-.19.38-.47.45-.83l.3-1.4c.07-.36.03-.63-.12-.83-.16-.2-.43-.3-.82-.3h-3.3c-.4,0-.72.11-.96.32-.23.21-.39.48-.46.81l-.3,1.4c-.07.35-.03.62.14.82s.41.3.74.3h3.42c.38,0,.67-.1.9-.29Z"/><path class="cls-4" d="m41.45,35.45h.81l-.1.5h-.81l.1-.5Z"/><path class="cls-4" d="m43.52,35.45h5.06c.3,0,.56-.07.78-.2.22-.13.36-.31.41-.53l.03-.12c.06-.29,0-.49-.15-.61-.16-.12-.4-.18-.72-.18h-5.03l.53-2.51h6.38l-.1.49h-5.82l-.33,1.53h4.75c.22,0,.42.05.6.15.18.1.31.24.4.43.09.19.1.41.05.66l-.04.18c-.04.22-.15.42-.31.6s-.35.33-.58.44-.46.16-.69.16h-5.33l.1-.49Z"/><path class="cls-4" d="m51.85,34.12c.18-.17.4-.28.65-.31l4.98-.76c.14-.03.27-.08.39-.18.12-.1.2-.21.24-.36,0,0,0,0,0-.01,0,0,0,0,0-.01l.02-.11c.04-.18.01-.32-.08-.42s-.24-.16-.44-.16h-5.17l.1-.49h5.35c.16,0,.32.04.46.12.14.08.25.19.32.33.07.14.09.31.05.5l-.07.3c-.04.19-.13.37-.27.54-.14.17-.31.29-.5.35-.04,0-.09.02-.14.03l-5.06.78c-.2.03-.36.11-.48.23-.12.13-.19.25-.22.38l-.13.58h6.05l-.1.49h-6.57l.26-1.23c.05-.23.17-.43.35-.6Z"/><path class="cls-4" d="m59.75,35.79c-.16-.1-.27-.24-.34-.41-.07-.17-.08-.36-.04-.55l.04-.16c.04-.2.12-.38.26-.54.13-.17.28-.3.44-.4.16-.1.31-.16.44-.17v.07c-.14-.01-.26-.07-.37-.16-.11-.09-.18-.22-.23-.37-.05-.15-.05-.32-.01-.5l.02-.13c.04-.2.14-.38.29-.56s.33-.32.54-.42c.21-.11.43-.16.65-.16h4.15c.22,0,.42.05.58.16.17.11.29.25.36.42s.08.36.04.56l-.02.13c-.04.18-.12.35-.23.5-.11.15-.24.28-.39.37s-.29.15-.42.16l.02-.07c.12,0,.24.07.36.17.12.1.21.24.27.4.06.17.07.35.03.54l-.04.16c-.04.2-.13.39-.27.56s-.3.31-.5.41c-.2.1-.41.16-.64.16h-4.45c-.21,0-.39-.05-.55-.16Zm5.52-.54c.17-.13.28-.31.33-.51l.03-.13c.02-.13,0-.25-.06-.37s-.16-.21-.29-.28-.25-.11-.39-.11h-3.86c-.15,0-.3.04-.45.11-.15.07-.29.16-.4.28-.11.12-.18.24-.21.37l-.03.13c-.04.21,0,.38.11.51.12.14.29.2.52.2h4.09c.23,0,.43-.07.61-.2Zm.36-2.09c.17-.13.28-.31.33-.54l.02-.1c.02-.12,0-.24-.05-.35-.06-.11-.14-.2-.26-.27-.12-.07-.25-.1-.39-.1h-3.78c-.14,0-.29.03-.43.1-.14.07-.27.16-.37.27-.1.11-.17.23-.19.35l-.02.1c-.03.13-.02.25.03.36.05.11.12.21.23.27.11.07.24.1.39.1h3.86c.25,0,.46-.07.63-.2Z"/><path class="cls-4" d="m69.04,31.78h-1.29l.33-.47h1.57l-.98,4.63h-.51l.89-4.16Z"/><path class="cls-4" d="m74.35,30.77h.49l-4.97,5.79h-.48l4.97-5.79Z"/><path class="cls-4" d="m74.54,35.53l5.33-2.96v.13s-4.71,0-4.71,0l.11-.5h5.62l-.09.41-5.36,2.96v-.12s4.75,0,4.75,0l-.1.5h-5.64l.09-.41Z"/><path class="cls-4" d="m81.91,35.79c-.19-.1-.32-.25-.4-.44-.08-.19-.09-.43-.03-.7l.24-1.12c.09-.41.28-.74.59-.98.3-.24.67-.36,1.1-.36h3.18c.42,0,.74.12.94.35s.26.56.17.98l-.16.78h-5.5l.1-.49h4.96l.04-.19c.06-.29.03-.52-.1-.68s-.35-.24-.66-.24h-2.99c-.31,0-.56.09-.76.26-.19.17-.32.4-.38.68l-.21.96c-.03.14-.02.27.02.41.04.13.13.24.25.33.12.08.28.13.47.13h4.34l-.1.5h-4.43c-.26,0-.49-.05-.67-.15Z"/><path class="cls-4" d="m89.22,32.2h.53l-.07.34.07-.07c.09-.07.18-.13.27-.17.09-.04.19-.08.28-.1.1-.02.2-.03.31-.03h3.16c.42,0,.73.12.93.35.2.23.25.56.16.99l-.52,2.42h-.53l.5-2.33c.06-.3.03-.53-.1-.69s-.34-.24-.65-.24h-2.97c-.31,0-.56.09-.76.26-.2.17-.33.4-.38.67l-.5,2.33h-.53l.8-3.74Z"/><path class="cls-4" d="m95.99,35.61c-.21-.22-.28-.54-.19-.95l.24-1.12c.09-.41.28-.74.59-.98.3-.24.67-.36,1.1-.36h3.18c.42,0,.73.12.93.36.2.24.26.56.17.98l-.24,1.12c-.08.39-.28.7-.59.94-.31.23-.66.35-1.06.35h-3.21c-.4,0-.71-.11-.92-.34Zm4.66-.29c.16-.09.29-.2.39-.33s.17-.26.2-.39l.21-.97c.06-.3.03-.53-.1-.69s-.35-.24-.66-.24h-2.99c-.31,0-.56.08-.76.25s-.32.4-.38.68l-.21.97c-.03.14-.02.27.03.4.05.13.13.24.25.33.12.09.28.13.47.13h3.03c.19,0,.36-.04.52-.13Z"/><path class="cls-4" d="m103.14,35.61c-.21-.22-.28-.54-.19-.95l.24-1.14c.09-.41.28-.74.58-.98.3-.24.67-.36,1.09-.36h4.04l.2-.92.57-.17-1.03,4.86h-.53l.08-.38c-.08.1-.2.19-.37.26-.17.08-.34.11-.51.11h-3.26c-.4,0-.71-.11-.92-.34Zm4.59-.29c.18-.09.33-.2.46-.34.13-.14.21-.29.24-.45l.37-1.85h-3.95c-.31,0-.56.08-.75.25-.19.17-.32.4-.38.68l-.21.98c-.03.14-.02.27.03.4.05.13.13.24.25.33.12.09.28.13.47.13h2.98c.16,0,.33-.04.5-.13Z"/><path class="cls-4" d="m110.36,35.61c-.21-.22-.28-.54-.19-.95l.24-1.12c.09-.41.28-.74.59-.98.3-.24.67-.36,1.1-.36h3.18c.42,0,.73.12.93.36.2.24.26.56.17.98l-.24,1.12c-.08.39-.28.7-.59.94-.31.23-.66.35-1.06.35h-3.21c-.4,0-.71-.11-.92-.34Zm4.66-.29c.16-.09.29-.2.39-.33s.17-.26.2-.39l.21-.97c.06-.3.03-.53-.1-.69s-.35-.24-.66-.24h-2.99c-.31,0-.56.08-.76.25s-.32.4-.38.68l-.21.97c-.03.14-.02.27.03.4.05.13.13.24.25.33.12.09.28.13.47.13h3.03c.19,0,.36-.04.52-.13Z"/><path class="cls-4" d="m117.22,35.45h.81l-.1.5h-.81l.1-.5Z"/><path class="cls-4" d="m122.32,34.2c.41-.56.92-1.05,1.53-1.48.61-.43,1.29-.77,2.04-1.01l.09.09h-5.92l.1-.49h6.44l-.13.61c-.73.26-1.4.58-2.02.97-.62.39-1.14.84-1.57,1.36-.43.52-.73,1.08-.88,1.69h-.52c.15-.61.43-1.19.84-1.74Z"/><path class="cls-4" d="m129.73,34.2c.41-.56.92-1.05,1.53-1.48.61-.43,1.29-.77,2.04-1.01l.09.09h-5.92l.1-.49h6.44l-.13.61c-.73.26-1.4.58-2.02.97-.62.39-1.14.84-1.57,1.36-.43.52-.73,1.08-.88,1.69h-.52c.15-.61.43-1.19.84-1.74Z"/><path class="cls-4" d="m134.6,34.12c.18-.17.4-.28.65-.31l4.98-.76c.14-.03.27-.08.39-.18.12-.1.2-.21.24-.36,0,0,0,0,0-.01,0,0,0,0,0-.01l.02-.11c.04-.18.01-.32-.08-.42s-.24-.16-.44-.16h-5.17l.1-.49h5.35c.16,0,.32.04.46.12.14.08.25.19.32.33.07.14.09.31.05.5l-.07.3c-.04.19-.13.37-.27.54-.14.17-.31.29-.5.35-.04,0-.09.02-.14.03l-5.06.78c-.2.03-.36.11-.48.23-.12.13-.19.25-.22.38l-.13.58h6.05l-.1.49h-6.57l.26-1.23c.05-.23.17-.43.35-.6Z"/><path class="cls-4" d="m142.49,35.79c-.16-.1-.27-.24-.34-.41-.07-.17-.08-.36-.04-.55l.04-.16c.04-.2.12-.38.26-.54.13-.17.28-.3.44-.4.16-.1.31-.16.44-.17v.07c-.14-.01-.26-.07-.37-.16-.11-.09-.18-.22-.23-.37-.05-.15-.05-.32-.01-.5l.02-.13c.04-.2.14-.38.29-.56s.33-.32.54-.42c.21-.11.43-.16.65-.16h4.15c.22,0,.42.05.58.16.17.11.29.25.36.42s.08.36.04.56l-.02.13c-.04.18-.12.35-.23.5-.11.15-.24.28-.39.37s-.29.15-.42.16l.02-.07c.12,0,.24.07.36.17.12.1.21.24.27.4.06.17.07.35.03.54l-.04.16c-.04.2-.13.39-.27.56s-.3.31-.5.41c-.2.1-.41.16-.64.16h-4.45c-.21,0-.39-.05-.55-.16Zm5.52-.54c.17-.13.28-.31.33-.51l.03-.13c.02-.13,0-.25-.06-.37s-.16-.21-.29-.28-.25-.11-.39-.11h-3.86c-.15,0-.3.04-.45.11-.15.07-.29.16-.4.28-.11.12-.18.24-.21.37l-.03.13c-.04.21,0,.38.11.51.12.14.29.2.52.2h4.09c.23,0,.43-.07.61-.2Zm.36-2.09c.17-.13.28-.31.33-.54l.02-.1c.02-.12,0-.24-.05-.35-.06-.11-.14-.2-.26-.27-.12-.07-.25-.1-.39-.1h-3.78c-.14,0-.29.03-.43.1-.14.07-.27.16-.37.27-.1.11-.17.23-.19.35l-.02.1c-.03.13-.02.25.03.36.05.11.12.21.23.27.11.07.24.1.39.1h3.86c.25,0,.46-.07.63-.2Z"/><path class="cls-4" d="m151.78,31.78h-1.29l.33-.47h1.57l-.98,4.63h-.51l.89-4.16Z"/><path class="cls-4" d="m159.96,31.67c.21.24.27.58.17,1.02l-.37,1.74c-.06.3-.19.56-.37.79-.18.23-.4.4-.67.52-.26.12-.54.18-.84.18h-4.85l.1-.49h4.67c.4,0,.72-.11.96-.32.23-.21.39-.48.46-.81l.31-1.47c.08-.35.05-.62-.08-.79s-.36-.26-.68-.26h-3.64c-.36,0-.63.06-.81.17-.18.11-.3.3-.35.56l-.02.1c-.05.25,0,.44.12.58.13.14.36.21.7.21h4.84l-.1.49h-5.1c-.4,0-.69-.11-.88-.33-.19-.22-.24-.51-.17-.86v-.07c.11-.44.31-.77.62-1s.68-.34,1.11-.34h3.91c.43,0,.75.12.96.37Z"/><path class="cls-4" d="m161.24,35.79c-.16-.1-.27-.24-.34-.41-.07-.17-.08-.36-.04-.55l.04-.16c.04-.2.12-.38.26-.54.13-.17.28-.3.44-.4.16-.1.31-.16.44-.17v.07c-.14-.01-.26-.07-.37-.16-.11-.09-.18-.22-.23-.37-.05-.15-.05-.32-.01-.5l.02-.13c.04-.2.14-.38.29-.56s.33-.32.54-.42c.21-.11.43-.16.65-.16h4.15c.22,0,.42.05.58.16.17.11.29.25.36.42s.08.36.04.56l-.02.13c-.04.18-.12.35-.23.5-.11.15-.24.28-.39.37-.15.09-.29.15-.42.16l.02-.07c.12,0,.24.07.36.17.12.1.21.24.27.4.06.17.07.35.03.54l-.04.16c-.04.2-.13.39-.27.56s-.3.31-.5.41c-.2.1-.41.16-.64.16h-4.45c-.21,0-.39-.05-.55-.16Zm5.52-.54c.17-.13.28-.31.33-.51l.03-.13c.02-.13,0-.25-.06-.37s-.16-.21-.29-.28-.25-.11-.39-.11h-3.86c-.15,0-.3.04-.45.11-.15.07-.29.16-.4.28-.11.12-.18.24-.21.37l-.03.13c-.04.21,0,.38.11.51.12.14.29.2.52.2h4.09c.23,0,.43-.07.61-.2Zm.36-2.09c.17-.13.28-.31.33-.54l.02-.1c.02-.12,0-.24-.05-.35-.06-.11-.14-.2-.26-.27-.12-.07-.25-.1-.39-.1h-3.78c-.14,0-.29.03-.43.1-.14.07-.27.16-.37.27-.1.11-.17.23-.19.35l-.02.1c-.03.13-.02.25.03.36.05.11.12.21.23.27.11.07.24.1.39.1h3.86c.25,0,.46-.07.63-.2Z"/></g></svg>