<?xml version="1.0" encoding="UTF-8"?><svg id="_レイヤー_2" xmlns="http://www.w3.org/2000/svg" viewBox="0 0 123.04 15.68"><defs><style>.cls-1{fill:#e71f19;}.cls-2{fill:#7cc055;}.cls-3{fill:#231815;}.cls-4{fill:#54c3f1;}</style></defs><g id="_レイヤー_1-2"><path class="cls-3" d="m14.08,2.38H0l.17-.79h19.95l-.17.79h-4.94l-1.43,6.73h-.92l1.43-6.73Z"/><path class="cls-3" d="m21.23,8.87c-.3-.16-.52-.4-.65-.71-.13-.32-.15-.69-.05-1.13l.38-1.82c.14-.67.46-1.2.95-1.59.49-.39,1.09-.58,1.78-.58h5.16c.69,0,1.2.19,1.52.56.33.38.42.9.28,1.58l-.26,1.26h-8.93l.17-.79h8.05l.06-.31c.1-.48.05-.85-.17-1.11-.22-.26-.57-.39-1.07-.39h-4.85c-.5,0-.91.14-1.23.42-.32.28-.52.65-.62,1.1l-.34,1.56c-.05.22-.04.44.04.66.07.22.21.39.41.53.2.14.46.2.77.2h7.04l-.17.8h-7.19c-.42,0-.79-.08-1.09-.24Z"/><path class="cls-3" d="m33.1,3.04h.86l-.12.55.12-.11c.14-.11.29-.2.44-.28.15-.07.3-.12.46-.16.16-.03.33-.05.5-.05h5.12c.69,0,1.19.19,1.51.57s.41.91.26,1.6l-.84,3.94h-.86l.8-3.78c.1-.49.05-.86-.16-1.12-.21-.26-.56-.39-1.06-.39h-4.82c-.5,0-.92.14-1.24.42-.32.28-.53.64-.62,1.09l-.8,3.78h-.86l1.3-6.07Z"/><path class="cls-3" d="m43.57,8.31h7.73c.22,0,.42-.06.6-.17.18-.12.29-.27.34-.47l.06-.26c.03-.15,0-.29-.08-.41s-.25-.19-.49-.22l-6.8-.66c-.3-.03-.52-.16-.68-.38-.16-.22-.19-.51-.11-.88l.08-.42c.1-.44.31-.78.65-1.03s.73-.37,1.18-.37h7.81l-.17.8h-7.7c-.26.01-.46.07-.62.17-.16.11-.26.27-.31.47l-.05.25c-.03.14-.01.26.07.38s.22.19.43.22l6.85.67c.29.02.51.16.67.42.16.26.2.55.13.89l-.1.46c-.05.24-.16.46-.34.67s-.4.37-.65.49c-.26.12-.51.19-.77.19h-7.9l.17-.8Z"/><path class="cls-3" d="m55.33,8.57c-.34-.36-.45-.88-.31-1.54l.38-1.82c.14-.67.46-1.2.95-1.59.49-.39,1.09-.58,1.78-.58h5.16c.68,0,1.18.19,1.51.58s.42.92.28,1.6l-.38,1.82c-.14.63-.45,1.14-.95,1.52-.5.38-1.07.57-1.72.57h-5.21c-.65,0-1.14-.18-1.49-.55Zm7.56-.47c.26-.14.47-.32.64-.54.17-.22.28-.43.32-.64l.34-1.57c.1-.49.05-.86-.17-1.12-.22-.26-.57-.39-1.07-.39h-4.85c-.5,0-.91.14-1.23.41-.32.28-.52.64-.62,1.1l-.34,1.57c-.05.22-.03.44.04.65.08.21.21.39.41.53.2.14.45.21.76.21h4.92c.3,0,.58-.07.84-.22Z"/><path class="cls-3" d="m67.58,3.05h.86l-.12.58c.22-.22.46-.37.71-.46.25-.09.52-.14.83-.14h6.23l-.17.8h-6.1c-.5,0-.92.14-1.24.42-.32.28-.53.65-.62,1.1l-.8,3.76h-.86l1.28-6.06Z"/><path class="cls-1" d="m78.07,1.59h.92l-1.43,6.73h9.44l-.17.79h-10.37l1.6-7.52Z"/><path class="cls-1" d="m12.36,10.23h78.48c.31,0,.57-.05.78-.15.21-.1.45-.28.72-.53l.47-.46h-.29l-3.3-6.06h.97l3.22,5.78h-.36l5.18-5.78h1.07l-6.07,6.72c-.42.46-.8.79-1.15.98-.35.19-.71.29-1.09.29H12.19l.17-.79Z"/><path class="cls-1" d="m100.77,8.82c-.35-.2-.6-.47-.75-.83-.15-.36-.18-.77-.07-1.24l.58-2.72c.1-.49.3-.92.6-1.28s.66-.65,1.08-.85c.42-.2.88-.3,1.36-.3h7.19l-.17.79h-6.89c-.66,0-1.17.17-1.55.52s-.63.79-.74,1.31l-.49,2.28c-.12.57-.05,1.01.22,1.34.27.32.67.49,1.21.49h6.98l-.17.79h-7.16c-.46,0-.87-.1-1.22-.29Z"/><path class="cls-1" d="m111.83,1.59h1.02l3.28,6.79h-.37l6.2-6.79h1.08l-6.89,7.52h-.64l-3.68-7.52Z"/><polyline class="cls-4" points="93.96 7.45 92.91 7.45 89.61 1.39 90.56 1.39"/><polyline class="cls-2" points="94.49 6.06 93.44 6.06 90.14 0 91.09 0"/><path class="cls-3" d="m13.07,12.92h-.74l.19-.27h.91l-.57,2.68h-.29l.51-2.41Z"/><path class="cls-3" d="m14.05,15.22c-.12-.07-.21-.17-.27-.3s-.06-.27-.03-.44l.21-.97c.04-.17.11-.33.21-.46.11-.13.23-.23.38-.3.15-.07.31-.11.48-.11h2.13c.17,0,.31.04.43.1.12.07.21.17.26.3s.06.29.02.46l-.21.97c-.04.17-.11.32-.21.45s-.23.22-.38.29c-.15.07-.31.1-.48.1h-2.11c-.17,0-.31-.04-.43-.1Zm3.06-.34c.13-.11.22-.27.26-.48l.18-.81c.04-.21.02-.37-.07-.48-.09-.12-.25-.17-.47-.17h-1.91c-.23,0-.42.06-.55.19s-.22.28-.26.47l-.18.81c-.04.2-.02.36.08.48.1.12.24.17.43.17h1.98c.22,0,.39-.06.52-.17Z"/><path class="cls-3" d="m18.29,15.04h.47l-.06.29h-.47l.06-.29Z"/><path class="cls-3" d="m19.48,15.05h2.93c.17,0,.33-.04.45-.12.13-.08.21-.18.24-.31l.02-.07c.03-.17,0-.28-.09-.35s-.23-.1-.42-.1h-2.91l.31-1.45h3.69l-.06.28h-3.37l-.19.89h2.75c.13,0,.24.03.35.09.1.06.18.14.23.25s.06.24.03.38l-.02.11c-.03.13-.08.24-.18.35-.09.11-.2.19-.34.25-.13.06-.27.09-.4.09h-3.08l.06-.28Z"/><path class="cls-3" d="m24.31,14.27c.11-.1.23-.16.38-.18l2.88-.44c.08-.01.16-.05.23-.1s.11-.12.14-.21c0,0,0,0,0,0,0,0,0,0,0,0v-.06c.04-.1.02-.18-.04-.24s-.14-.09-.25-.09h-3l.06-.28h3.1c.09,0,.18.02.27.07.08.04.14.11.19.19.04.08.05.18.03.29l-.04.17c-.02.11-.07.22-.16.31-.08.1-.18.17-.29.2-.03,0-.05.01-.08.02l-2.93.45c-.11.02-.21.06-.28.13-.07.07-.11.15-.13.22l-.07.34h3.5l-.06.28h-3.8l.15-.71c.03-.13.1-.25.2-.35Z"/><path class="cls-3" d="m28.88,15.24c-.09-.06-.16-.14-.2-.24-.04-.1-.05-.21-.03-.32l.02-.09c.02-.11.07-.22.15-.31.08-.1.16-.17.26-.23.09-.06.18-.09.25-.1v.04c-.08,0-.15-.04-.21-.09-.06-.05-.11-.12-.13-.21-.03-.09-.03-.18,0-.29v-.07c.04-.11.09-.22.18-.33.09-.1.19-.18.31-.25.12-.06.25-.09.38-.09h2.4c.13,0,.24.03.34.09s.17.14.21.25.05.21.02.33v.07c-.04.11-.08.2-.15.29-.07.09-.14.16-.22.21-.08.05-.17.09-.25.09v-.04c.08,0,.15.04.22.1.07.06.12.14.16.23.03.1.04.2.02.31l-.02.09c-.03.12-.08.22-.15.32-.08.1-.17.18-.29.24s-.24.09-.37.09h-2.58c-.12,0-.23-.03-.32-.09Zm3.2-.31c.1-.08.17-.18.19-.3l.02-.08c.01-.07,0-.15-.04-.21s-.09-.12-.17-.17c-.07-.04-.15-.06-.23-.06h-2.23c-.09,0-.17.02-.26.06-.09.04-.17.09-.23.16-.07.07-.11.14-.12.22l-.02.08c-.03.12,0,.22.06.3.07.08.17.12.3.12h2.37c.13,0,.25-.04.35-.12Zm.21-1.21c.1-.08.16-.18.19-.31v-.06c.03-.07.02-.14-.01-.2s-.08-.12-.15-.15c-.07-.04-.14-.06-.23-.06h-2.19c-.08,0-.17.02-.25.06-.08.04-.15.09-.21.15s-.1.13-.11.2v.06c-.03.07-.02.14,0,.21.03.07.07.12.13.16.06.04.14.06.23.06h2.23c.14,0,.26-.04.36-.12Z"/><path class="cls-3" d="m34.26,12.92h-.74l.19-.27h.91l-.57,2.68h-.29l.51-2.41Z"/><path class="cls-3" d="m37.34,12.33h.28l-2.88,3.35h-.28l2.88-3.35Z"/><path class="cls-3" d="m37.45,15.09l3.08-1.72v.07s-2.73,0-2.73,0l.06-.29h3.25l-.05.24-3.1,1.71v-.07s2.75,0,2.75,0l-.06.29h-3.26l.05-.24Z"/><path class="cls-3" d="m41.71,15.24c-.11-.06-.19-.14-.23-.25-.05-.11-.05-.25-.02-.4l.14-.65c.05-.24.17-.43.34-.57s.39-.21.64-.21h1.84c.25,0,.43.07.54.2.12.13.15.32.1.56l-.09.45h-3.18l.06-.28h2.87l.02-.11c.04-.17.02-.3-.06-.4s-.2-.14-.38-.14h-1.73c-.18,0-.33.05-.44.15-.11.1-.19.23-.22.39l-.12.56c-.02.08-.01.16.01.24.03.08.07.14.15.19.07.05.16.07.27.07h2.51l-.06.29h-2.56c-.15,0-.28-.03-.39-.09Z"/><path class="cls-3" d="m45.94,13.16h.31l-.04.2.04-.04c.05-.04.1-.07.16-.1.05-.03.11-.04.16-.06.06-.01.12-.02.18-.02h1.83c.25,0,.42.07.54.2.11.14.15.33.09.57l-.3,1.4h-.31l.29-1.35c.04-.17.02-.31-.06-.4-.07-.09-.2-.14-.38-.14h-1.72c-.18,0-.33.05-.44.15s-.19.23-.22.39l-.29,1.35h-.31l.46-2.17Z"/><path class="cls-3" d="m49.87,15.13c-.12-.13-.16-.31-.11-.55l.14-.65c.05-.24.17-.43.34-.57s.39-.21.64-.21h1.84c.24,0,.42.07.54.21.12.14.15.33.1.57l-.14.65c-.05.22-.16.41-.34.54s-.38.2-.61.2h-1.86c-.23,0-.41-.06-.53-.19Zm2.7-.17c.09-.05.17-.12.23-.19.06-.08.1-.15.12-.23l.12-.56c.04-.17.02-.31-.06-.4s-.2-.14-.38-.14h-1.73c-.18,0-.33.05-.44.15-.11.1-.19.23-.22.39l-.12.56c-.02.08-.01.16.02.23.03.08.08.14.15.19s.16.07.27.07h1.75c.11,0,.21-.03.3-.08Z"/><path class="cls-3" d="m54,15.13c-.12-.13-.16-.31-.11-.55l.14-.66c.05-.24.16-.43.34-.57.17-.14.38-.21.63-.21h2.34l.12-.54.33-.1-.6,2.81h-.3l.05-.22c-.05.06-.12.11-.21.15-.1.04-.2.07-.3.07h-1.89c-.23,0-.41-.06-.53-.19Zm2.66-.17c.1-.05.19-.12.27-.2s.12-.17.14-.26l.21-1.07h-2.29c-.18,0-.33.05-.44.15-.11.1-.19.23-.22.4l-.12.56c-.02.08-.01.16.02.23.03.08.08.14.15.19s.16.07.27.07h1.72c.09,0,.19-.02.29-.07Z"/><path class="cls-3" d="m58.19,15.13c-.12-.13-.16-.31-.11-.55l.14-.65c.05-.24.17-.43.34-.57s.39-.21.64-.21h1.84c.24,0,.42.07.54.21.12.14.15.33.1.57l-.14.65c-.05.22-.16.41-.34.54s-.38.2-.61.2h-1.86c-.23,0-.41-.06-.53-.19Zm2.7-.17c.09-.05.17-.12.23-.19.06-.08.1-.15.12-.23l.12-.56c.04-.17.02-.31-.06-.4s-.2-.14-.38-.14h-1.73c-.18,0-.33.05-.44.15-.11.1-.19.23-.22.39l-.12.56c-.02.08-.01.16.02.23.03.08.08.14.15.19s.16.07.27.07h1.75c.11,0,.21-.03.3-.08Z"/><path class="cls-3" d="m62.16,15.04h.47l-.06.29h-.47l.06-.29Z"/><path class="cls-3" d="m65.11,14.32c.24-.32.53-.61.89-.86.36-.25.75-.44,1.18-.58l.05.05h-3.43l.06-.28h3.73l-.07.36c-.42.15-.81.33-1.17.56-.36.23-.66.49-.91.79-.25.3-.42.63-.51.98h-.3c.09-.35.25-.69.49-1.01Z"/><path class="cls-3" d="m69.4,14.32c.24-.32.53-.61.89-.86.36-.25.75-.44,1.18-.58l.05.05h-3.43l.06-.28h3.73l-.07.36c-.42.15-.81.33-1.17.56-.36.23-.66.49-.91.79-.25.3-.42.63-.51.98h-.3c.09-.35.25-.69.49-1.01Z"/><path class="cls-3" d="m72.22,14.27c.11-.1.23-.16.38-.18l2.88-.44c.08-.01.16-.05.23-.1s.11-.12.14-.21c0,0,0,0,0,0,0,0,0,0,0,0v-.06c.04-.1.02-.18-.04-.24s-.14-.09-.25-.09h-3l.06-.28h3.1c.09,0,.18.02.27.07.08.04.14.11.19.19.04.08.05.18.03.29l-.04.17c-.02.11-.07.22-.16.31-.08.1-.18.17-.29.2-.03,0-.05.01-.08.02l-2.93.45c-.11.02-.21.06-.28.13-.07.07-.11.15-.13.22l-.07.34h3.5l-.06.28h-3.8l.15-.71c.03-.13.1-.25.2-.35Z"/><path class="cls-3" d="m76.79,15.24c-.09-.06-.16-.14-.2-.24-.04-.1-.05-.21-.03-.32l.02-.09c.02-.11.07-.22.15-.31.08-.1.16-.17.26-.23.09-.06.18-.09.25-.1v.04c-.08,0-.15-.04-.21-.09-.06-.05-.11-.12-.13-.21-.03-.09-.03-.18,0-.29v-.07c.04-.11.09-.22.18-.33.09-.1.19-.18.31-.25.12-.06.25-.09.38-.09h2.4c.13,0,.24.03.34.09s.17.14.21.25.05.21.02.33v.07c-.04.11-.08.2-.15.29-.07.09-.14.16-.22.21-.08.05-.17.09-.25.09v-.04c.08,0,.15.04.22.1.07.06.12.14.16.23.03.1.04.2.02.31l-.02.09c-.03.12-.08.22-.15.32-.08.1-.17.18-.29.24s-.24.09-.37.09h-2.58c-.12,0-.23-.03-.32-.09Zm3.2-.31c.1-.08.17-.18.19-.3l.02-.08c.01-.07,0-.15-.04-.21s-.09-.12-.17-.17c-.07-.04-.15-.06-.23-.06h-2.23c-.09,0-.17.02-.26.06-.09.04-.17.09-.23.16-.07.07-.11.14-.12.22l-.02.08c-.03.12,0,.22.06.3.07.08.17.12.3.12h2.37c.13,0,.25-.04.35-.12Zm.21-1.21c.1-.08.16-.18.19-.31v-.06c.03-.07.02-.14-.01-.2s-.08-.12-.15-.15c-.07-.04-.14-.06-.23-.06h-2.19c-.08,0-.17.02-.25.06-.08.04-.15.09-.21.15s-.1.13-.11.2v.06c-.03.07-.02.14,0,.21.03.07.07.12.13.16.06.04.14.06.23.06h2.23c.14,0,.26-.04.36-.12Z"/><path class="cls-3" d="m82.17,12.92h-.74l.19-.27h.91l-.57,2.68h-.29l.51-2.41Z"/><path class="cls-3" d="m86.9,12.86c.12.14.15.34.1.59l-.21,1.01c-.04.17-.11.33-.21.46-.11.13-.23.23-.39.3-.15.07-.31.11-.48.11h-2.81l.06-.28h2.7c.23,0,.42-.06.55-.19.14-.12.22-.28.26-.47l.18-.85c.05-.21.03-.36-.04-.46-.08-.1-.21-.15-.4-.15h-2.11c-.21,0-.37.03-.47.1s-.17.17-.21.33v.06c-.04.14-.02.26.06.34.07.08.21.12.41.12h2.8l-.06.28h-2.95c-.23,0-.4-.06-.51-.19-.11-.13-.14-.29-.1-.5v-.04c.06-.25.18-.45.36-.58.18-.13.4-.2.64-.2h2.26c.25,0,.44.07.56.21Z"/><path class="cls-3" d="m87.64,15.24c-.09-.06-.16-.14-.2-.24-.04-.1-.05-.21-.03-.32l.02-.09c.02-.11.07-.22.15-.31.08-.1.16-.17.26-.23.09-.06.18-.09.25-.1v.04c-.08,0-.15-.04-.21-.09-.06-.05-.11-.12-.13-.21-.03-.09-.03-.18,0-.29v-.07c.04-.11.09-.22.18-.33.09-.1.19-.18.31-.25.12-.06.25-.09.38-.09h2.4c.13,0,.24.03.34.09s.17.14.21.25.05.21.02.33v.07c-.04.11-.08.2-.15.29-.07.09-.14.16-.22.21-.08.05-.17.09-.25.09v-.04c.08,0,.15.04.22.1.07.06.12.14.16.23.03.1.04.2.02.31l-.02.09c-.03.12-.08.22-.15.32-.08.1-.17.18-.29.24s-.24.09-.37.09h-2.58c-.12,0-.23-.03-.32-.09Zm3.2-.31c.1-.08.17-.18.19-.3l.02-.08c.01-.07,0-.15-.04-.21s-.09-.12-.17-.17c-.07-.04-.15-.06-.23-.06h-2.23c-.09,0-.17.02-.26.06-.09.04-.17.09-.23.16-.07.07-.11.14-.12.22l-.02.08c-.03.12,0,.22.06.3.07.08.17.12.3.12h2.37c.13,0,.25-.04.35-.12Zm.21-1.21c.1-.08.16-.18.19-.31v-.06c.03-.07.02-.14-.01-.2s-.08-.12-.15-.15c-.07-.04-.14-.06-.23-.06h-2.19c-.08,0-.17.02-.25.06-.08.04-.15.09-.21.15s-.1.13-.11.2v.06c-.03.07-.02.14,0,.21.03.07.07.12.13.16.06.04.14.06.23.06h2.23c.14,0,.26-.04.36-.12Z"/></g></svg>