<?xml version="1.0" encoding="UTF-8"?><svg id="_レイヤー_2" xmlns="http://www.w3.org/2000/svg" viewBox="0 0 235.47 43.03"><defs><style>.cls-1{fill:#fff;}.cls-2{fill:#e71f19;}.cls-3{fill:#7cc055;}.cls-4{fill:#231815;}.cls-5{fill:#54c3f1;}</style></defs><g id="_レイヤー_1-2"><rect class="cls-1" width="235.47" height="43.03"/><path class="cls-4" d="m12.06,30.56h-1.32l.33-.48h1.6l-1.01,4.74h-.52l.91-4.26Z"/><path class="cls-4" d="m13.8,34.63c-.22-.12-.38-.3-.47-.52s-.11-.49-.04-.78l.36-1.72c.07-.31.19-.58.38-.81.19-.23.41-.41.68-.54.27-.13.55-.19.85-.19h3.77c.29,0,.55.06.76.19.21.12.37.3.46.53.09.23.1.5.04.82l-.36,1.72c-.07.3-.19.57-.38.79-.19.22-.41.4-.68.52-.27.12-.55.18-.86.18h-3.74c-.29,0-.55-.06-.77-.19Zm5.41-.61c.23-.2.39-.48.46-.85l.31-1.44c.08-.36.03-.65-.12-.85s-.44-.31-.84-.31h-3.38c-.41,0-.74.11-.98.33-.24.22-.39.5-.46.83l-.31,1.44c-.08.36-.03.64.14.84s.42.31.76.31h3.5c.38,0,.69-.1.92-.29Z"/><path class="cls-4" d="m21.29,34.31h.83l-.11.51h-.83l.11-.51Z"/><path class="cls-4" d="m23.41,34.32h5.18c.31,0,.58-.07.8-.2.23-.14.37-.32.42-.54l.03-.13c.06-.29,0-.5-.15-.62s-.41-.18-.73-.18h-5.15l.54-2.56h6.53l-.11.5h-5.95l-.33,1.57h4.86c.23,0,.43.05.62.15.18.1.32.25.41.44.09.19.11.42.05.67l-.04.19c-.04.22-.15.43-.31.61-.16.19-.36.33-.59.45-.23.11-.47.17-.71.17h-5.45l.11-.5Z"/><path class="cls-4" d="m31.94,32.95c.19-.18.41-.28.67-.32l5.1-.78c.15-.03.28-.09.4-.19s.2-.22.24-.37c0,0,0,0,0-.01,0,0,0,0,0-.01l.02-.11c.04-.18.01-.33-.09-.43-.1-.11-.25-.16-.45-.16h-5.29l.11-.5h5.48c.17,0,.32.04.47.12s.26.19.33.34c.07.15.09.32.05.51l-.07.31c-.04.2-.13.38-.28.56s-.31.29-.51.36c-.04,0-.09.02-.14.03l-5.18.79c-.2.03-.36.11-.49.24-.12.13-.2.26-.22.39l-.13.6h6.19l-.11.5h-6.72l.26-1.26c.05-.23.17-.44.36-.61Z"/><path class="cls-4" d="m40.02,34.66c-.16-.11-.28-.25-.35-.42-.07-.18-.09-.37-.05-.57l.04-.16c.04-.2.13-.39.26-.56s.29-.31.45-.41c.17-.11.31-.16.45-.17v.07c-.14-.01-.27-.07-.38-.17s-.19-.22-.24-.38c-.05-.16-.06-.33-.01-.51l.02-.13c.05-.2.14-.39.29-.57s.33-.33.55-.44c.21-.11.44-.16.67-.16h4.25c.23,0,.43.05.6.16.17.11.29.25.37.44s.09.37.04.57l-.02.13c-.04.19-.12.36-.23.51-.12.16-.25.28-.4.38s-.29.15-.43.17l.02-.07c.12,0,.24.07.37.17.12.11.21.24.28.41s.07.35.03.56l-.04.16c-.05.21-.14.4-.27.57-.14.17-.31.31-.51.42-.2.11-.42.16-.65.16h-4.55c-.21,0-.4-.05-.56-.16Zm5.65-.55c.18-.14.29-.31.34-.53l.03-.14c.03-.13,0-.26-.06-.38-.07-.12-.17-.22-.29-.29s-.26-.11-.4-.11h-3.95c-.15,0-.31.04-.46.11-.16.07-.29.17-.41.28s-.19.25-.21.38l-.03.14c-.04.21,0,.39.11.53.12.14.3.21.53.21h4.18c.24,0,.45-.07.62-.21Zm.37-2.14c.18-.14.29-.32.34-.55l.02-.11c.03-.13,0-.25-.05-.36-.06-.11-.15-.2-.27-.27-.12-.07-.25-.1-.4-.1h-3.87c-.15,0-.29.03-.44.1-.15.07-.27.16-.38.27-.11.11-.17.23-.2.36l-.02.11c-.03.13-.02.25.03.37s.13.21.24.28c.11.07.25.11.4.11h3.95c.25,0,.47-.07.64-.2Z"/><path class="cls-4" d="m49.52,30.56h-1.32l.33-.48h1.6l-1.01,4.74h-.52l.91-4.26Z"/><path class="cls-4" d="m54.96,29.52h.5l-5.09,5.92h-.49l5.08-5.92Z"/><path class="cls-4" d="m55.16,34.4l5.45-3.03v.13s-4.82,0-4.82,0l.11-.51h5.75l-.09.42-5.48,3.03-.02-.12h4.88l-.11.51h-5.77l.09-.42Z"/><path class="cls-4" d="m62.7,34.66c-.19-.1-.33-.25-.41-.45-.08-.2-.09-.44-.03-.71l.24-1.15c.09-.42.29-.76.6-1,.31-.25.68-.37,1.12-.37h3.25c.43,0,.75.12.96.36.21.24.26.57.17,1l-.17.79h-5.63l.11-.5h5.08l.04-.2c.07-.3.03-.54-.11-.7-.14-.16-.36-.25-.67-.25h-3.06c-.32,0-.58.09-.77.26-.2.18-.33.41-.39.7l-.21.98c-.03.14-.02.28.02.42.05.14.13.25.26.33.13.09.29.13.48.13h4.44l-.11.51h-4.53c-.27,0-.5-.05-.69-.15Z"/><path class="cls-4" d="m70.18,30.99h.54l-.08.35.08-.07c.09-.07.18-.13.28-.17.09-.04.19-.08.29-.1.1-.02.21-.03.32-.03h3.23c.43,0,.75.12.95.36.2.24.26.58.17,1.01l-.53,2.48h-.54l.51-2.38c.07-.31.03-.54-.1-.71-.13-.16-.35-.25-.67-.25h-3.04c-.32,0-.58.09-.78.26-.2.18-.33.41-.39.69l-.51,2.38h-.54l.82-3.83Z"/><path class="cls-4" d="m77.12,34.47c-.22-.23-.28-.55-.2-.97l.24-1.15c.09-.42.29-.76.6-1,.31-.25.68-.37,1.12-.37h3.25c.43,0,.75.12.95.36s.26.58.17,1.01l-.24,1.15c-.09.4-.29.72-.6.96-.32.24-.68.36-1.09.36h-3.28c-.41,0-.72-.11-.94-.34Zm4.77-.3c.16-.09.29-.2.4-.34.11-.14.17-.27.2-.4l.21-.99c.07-.31.03-.54-.11-.71-.14-.16-.36-.25-.67-.25h-3.06c-.32,0-.58.09-.77.26-.2.17-.33.41-.39.69l-.21.99c-.03.14-.02.28.03.41s.13.24.26.33c.12.09.28.13.48.13h3.1c.19,0,.37-.04.53-.14Z"/><path class="cls-4" d="m84.43,34.47c-.22-.23-.28-.55-.2-.97l.25-1.16c.09-.42.29-.76.6-1,.31-.24.68-.37,1.12-.37h4.13l.2-.95.58-.17-1.06,4.97h-.54l.08-.39c-.08.1-.21.19-.38.27-.17.08-.35.12-.52.12h-3.33c-.41,0-.72-.11-.94-.34Zm4.7-.29c.18-.09.34-.21.47-.35.13-.15.22-.3.25-.46l.38-1.89h-4.05c-.32,0-.57.09-.77.26-.2.17-.33.41-.39.7l-.21,1c-.03.14-.02.28.03.41s.13.24.26.33c.12.09.28.13.48.13h3.05c.16,0,.33-.04.51-.13Z"/><path class="cls-4" d="m91.82,34.47c-.22-.23-.28-.55-.2-.97l.24-1.15c.09-.42.29-.76.6-1,.31-.25.68-.37,1.12-.37h3.25c.43,0,.75.12.95.36s.26.58.17,1.01l-.24,1.15c-.09.4-.29.72-.6.96-.32.24-.68.36-1.09.36h-3.28c-.41,0-.72-.11-.94-.34Zm4.77-.3c.16-.09.29-.2.4-.34.11-.14.17-.27.2-.4l.21-.99c.07-.31.03-.54-.11-.71-.14-.16-.36-.25-.67-.25h-3.06c-.32,0-.58.09-.77.26-.2.17-.33.41-.39.69l-.21.99c-.03.14-.02.28.03.41s.13.24.26.33c.12.09.28.13.48.13h3.1c.19,0,.37-.04.53-.14Z"/><path class="cls-4" d="m98.84,34.31h.83l-.11.51h-.83l.11-.51Z"/><path class="cls-4" d="m101.49,34.66c-.16-.11-.28-.25-.35-.42-.07-.18-.09-.37-.05-.57l.04-.16c.04-.2.13-.39.26-.56s.29-.31.45-.41c.17-.11.31-.16.45-.17v.07c-.14-.01-.27-.07-.38-.17s-.19-.22-.24-.38c-.05-.16-.06-.33-.01-.51l.02-.13c.05-.2.14-.39.29-.57s.33-.33.55-.44c.21-.11.44-.16.67-.16h4.25c.23,0,.43.05.6.16.17.11.29.25.37.44s.09.37.04.57l-.02.13c-.04.19-.12.36-.23.51-.12.16-.25.28-.4.38s-.29.15-.43.17l.02-.07c.12,0,.24.07.37.17.12.11.21.24.28.41s.07.35.03.56l-.04.16c-.05.21-.14.4-.27.57-.14.17-.31.31-.51.42-.2.11-.42.16-.65.16h-4.55c-.21,0-.4-.05-.56-.16Zm5.65-.55c.18-.14.29-.31.34-.53l.03-.14c.03-.13,0-.26-.06-.38-.07-.12-.17-.22-.29-.29s-.26-.11-.4-.11h-3.95c-.15,0-.31.04-.46.11-.16.07-.29.17-.41.28s-.19.25-.21.38l-.03.14c-.04.21,0,.39.11.53.12.14.3.21.53.21h4.18c.24,0,.45-.07.62-.21Zm.37-2.14c.18-.14.29-.32.34-.55l.02-.11c.03-.13,0-.25-.05-.36-.06-.11-.15-.2-.27-.27-.12-.07-.25-.1-.4-.1h-3.87c-.15,0-.29.03-.44.1-.15.07-.27.16-.38.27-.11.11-.17.23-.2.36l-.02.11c-.03.13-.02.25.03.37s.13.21.24.28c.11.07.25.11.4.11h3.95c.25,0,.47-.07.64-.2Z"/><path class="cls-4" d="m110.99,30.56h-1.32l.33-.48h1.6l-1.01,4.74h-.52l.91-4.26Z"/><path class="cls-4" d="m112.53,34.66c-.16-.11-.28-.25-.35-.42-.07-.18-.09-.37-.05-.57l.04-.16c.04-.2.13-.39.26-.56s.29-.31.45-.41c.17-.11.31-.16.45-.17v.07c-.14-.01-.27-.07-.38-.17s-.19-.22-.24-.38c-.05-.16-.06-.33-.01-.51l.02-.13c.05-.2.14-.39.29-.57s.33-.33.55-.44c.21-.11.44-.16.67-.16h4.25c.23,0,.43.05.6.16.17.11.29.25.37.44s.09.37.04.57l-.02.13c-.04.19-.12.36-.23.51-.12.16-.25.28-.4.38s-.29.15-.43.17l.02-.07c.12,0,.24.07.37.17.12.11.21.24.28.41s.07.35.03.56l-.04.16c-.05.21-.14.4-.27.57-.14.17-.31.31-.51.42-.2.11-.42.16-.65.16h-4.55c-.21,0-.4-.05-.56-.16Zm5.65-.55c.18-.14.29-.31.34-.53l.03-.14c.03-.13,0-.26-.06-.38-.07-.12-.17-.22-.29-.29s-.26-.11-.4-.11h-3.95c-.15,0-.31.04-.46.11-.16.07-.29.17-.41.28s-.19.25-.21.38l-.03.14c-.04.21,0,.39.11.53.12.14.3.21.53.21h4.18c.24,0,.45-.07.62-.21Zm.37-2.14c.18-.14.29-.32.34-.55l.02-.11c.03-.13,0-.25-.05-.36-.06-.11-.15-.2-.27-.27-.12-.07-.25-.1-.4-.1h-3.87c-.15,0-.29.03-.44.1-.15.07-.27.16-.38.27-.11.11-.17.23-.2.36l-.02.11c-.03.13-.02.25.03.37s.13.21.24.28c.11.07.25.11.4.11h3.95c.25,0,.47-.07.64-.2Z"/><path class="cls-4" d="m127.51,30.45c.21.25.27.6.18,1.05l-.38,1.79c-.07.31-.19.58-.38.81-.19.23-.41.41-.68.54s-.55.19-.85.19h-4.97l.11-.5h4.78c.41,0,.74-.11.98-.33.24-.22.39-.5.46-.83l.32-1.5c.08-.36.05-.63-.08-.81s-.37-.27-.7-.27h-3.73c-.37,0-.65.06-.83.17s-.31.31-.36.58l-.02.11c-.05.25,0,.45.12.6s.37.22.72.22h4.95l-.11.5h-5.22c-.41,0-.71-.11-.9-.34-.19-.23-.25-.52-.17-.88v-.08c.11-.45.32-.79.64-1.02.32-.23.7-.35,1.14-.35h4c.44,0,.77.12.99.37Z"/><path class="cls-4" d="m128.67,34.44c-.21-.25-.27-.6-.18-1.05l.38-1.79c.07-.31.19-.58.38-.81.19-.23.41-.41.68-.54.27-.13.55-.19.85-.19h4.97l-.11.5h-4.78c-.41,0-.74.11-.98.33-.24.22-.39.5-.46.83l-.32,1.5c-.08.36-.05.63.08.81s.37.27.7.27h3.73c.37,0,.65-.06.83-.17s.31-.31.36-.58l.02-.11c.05-.25,0-.45-.12-.6-.13-.15-.37-.22-.72-.22h-4.95l.11-.5h5.22c.41,0,.71.11.9.34.19.23.25.52.17.89v.08c-.11.45-.32.79-.64,1.02-.32.23-.7.35-1.14.35h-4c-.44,0-.77-.12-.99-.37Z"/><path class="cls-4" d="m141.91,33.76h-5.58l.11-.5,6.16-3.18h.66l-.67,3.16h1.08l-.11.52h-1.08l-.23,1.06h-.56l.23-1.06Zm-4.72-.52h4.83l.54-2.59h-.08l-5.29,2.75v-.16Z"/><path class="cls-4" d="m149.89,33.76h-5.58l.11-.5,6.16-3.18h.66l-.67,3.16h1.08l-.11.52h-1.08l-.23,1.06h-.56l.23-1.06Zm-4.72-.52h4.83l.54-2.59h-.08l-5.29,2.75v-.16Z"/><path class="cls-4" d="m11.34,25.4h46.73c.73,0,1.31-.15,1.76-.45s.73-.72.84-1.25l.13-.55c.08-.36,0-.69-.24-.98s-.6-.47-1.06-.53c-.03,0-.05,0-.05-.01,0,0-.02-.01-.05-.01l-12.58-1.19c-.14-.03-.28-.05-.42-.06-.77-.15-1.34-.48-1.72-.96-.38-.49-.49-1.08-.34-1.78l.21-1.03c.13-.57.38-1.09.78-1.54.39-.45.86-.8,1.42-1.05.55-.24,1.13-.37,1.73-.37h15.08l-.29,1.38h-14.77c-.66,0-1.19.17-1.6.5-.41.34-.66.71-.75,1.13l-.15.63c-.1.47-.02.87.24,1.17.26.31.65.5,1.16.56h.04l12.86,1.24h.06c.78.09,1.36.38,1.74.87.38.5.49,1.1.34,1.81l-.21.99c-.11.56-.36,1.05-.76,1.49s-.86.77-1.42,1.01-1.14.36-1.75.36H11.05l.29-1.38Z"/><path class="cls-4" d="m67.97,13.63h15.88c.64,0,1.19.14,1.64.41s.76.64.94,1.11c.18.47.21.99.08,1.56l-.06.33c-.11.52-.35,1.01-.7,1.48-.36.47-.77.85-1.23,1.14-.46.29-.88.46-1.26.5l.06-.19c.34.03.67.19,1.02.48.34.29.6.68.77,1.14.17.47.2.98.08,1.54l-.1.44c-.11.56-.37,1.08-.78,1.57s-.9.88-1.47,1.17c-.57.29-1.15.44-1.74.44h-15.92l2.79-13.15Zm14.65,11.19c.5-.38.81-.87.93-1.46l.08-.38c.07-.38.01-.74-.17-1.08s-.45-.62-.8-.83c-.35-.21-.73-.32-1.15-.32h-13.44l-.99,4.64h13.8c.66,0,1.23-.19,1.73-.58Zm.43-5.77c.45-.22.83-.5,1.15-.84.32-.34.52-.69.59-1.04l.08-.31c.1-.52-.03-.95-.39-1.31s-.84-.54-1.46-.54h-13.74l-.92,4.36h13.36c.43,0,.87-.11,1.32-.32Z"/><path class="cls-2" d="m90.77,13.63h1.45l8.81,9.63h-1.05l12.88-9.63h1.49l-2.79,13.15h-1.53l2.52-11.87.57.25-11.87,8.87h-1.53l-8.12-8.93.44-.19-2.52,11.87h-1.53l2.79-13.15Z"/><path class="cls-2" d="m118.12,13.63h18.06l-.29,1.38h-16.44l-.94,4.49h15.18l-.29,1.38h-15.18l-1.26,5.89h-1.61l2.79-13.15Z"/><path class="cls-2" d="m138.43,26.27c-.61-.34-1.04-.82-1.31-1.45-.26-.62-.31-1.35-.12-2.17l1.01-4.76c.18-.85.53-1.6,1.05-2.24s1.15-1.14,1.89-1.49c.74-.35,1.53-.53,2.37-.53h12.56l-.29,1.38h-12.04c-1.15,0-2.05.31-2.72.91s-1.09,1.37-1.29,2.3l-.86,3.99c-.21.99-.08,1.77.39,2.34.47.57,1.17.85,2.11.85h12.21l-.3,1.38h-12.52c-.81,0-1.52-.17-2.13-.51Z"/><path class="cls-2" d="m157.75,13.63h1.78l5.72,11.87h-.65l10.84-11.87h1.89l-12.04,13.15h-1.11l-6.44-13.15Z"/><polyline class="cls-2" points="175.12 13.63 222.37 13.63 222.07 15.01 175.35 15.01"/><polygon class="cls-5" points="160.51 10.63 158.73 10.63 163.91 21.22 165.62 21.22 160.51 10.63"/><polygon class="cls-3" points="161.48 7.64 159.7 7.64 164.89 18.23 166.59 18.23 161.48 7.64"/></g></svg>