<?xml version="1.0" encoding="UTF-8"?><svg id="_レイヤー_2" xmlns="http://www.w3.org/2000/svg" xmlns:xlink="http://www.w3.org/1999/xlink" viewBox="0 0 147 127.3"><defs><style>.cls-1,.cls-2,.cls-3{fill:none;}.cls-4{fill:#fff;}.cls-5{fill:#e71f19;}.cls-6{fill:#7cc055;}.cls-7{fill:#231815;}.cls-8{fill:#54c3f1;}.cls-9{fill:url(#_新規パターンスウォッチ_3);}.cls-2{stroke:#e71f19;}.cls-2,.cls-3{stroke-miterlimit:10;stroke-width:.75px;}.cls-3{stroke:#efefef;}</style><pattern id="_新規パターンスウォッチ_3" x="0" y="0" width="15.88" height="27.51" patternTransform="translate(-365.31 -439.81)" patternUnits="userSpaceOnUse" viewBox="0 0 15.88 27.51"><rect class="cls-1" width="15.88" height="27.51"/><polygon class="cls-3" points="19.64 21.01 12.13 21.01 8.37 27.51 12.13 34.01 19.64 34.01 23.39 27.51 19.64 21.01"/><polygon class="cls-3" points="3.75 21.01 -3.75 21.01 -7.51 27.51 -3.75 34.01 3.75 34.01 7.51 27.51 3.75 21.01"/><polygon class="cls-3" points="11.7 7.25 4.19 7.25 .43 13.76 4.19 20.26 11.7 20.26 15.45 13.76 11.7 7.25"/><polygon class="cls-3" points="19.64 -6.5 12.13 -6.5 8.37 0 12.13 6.5 19.64 6.5 23.39 0 19.64 -6.5"/><polygon class="cls-3" points="3.75 -6.5 -3.75 -6.5 -7.51 0 -3.75 6.5 3.75 6.5 7.51 0 3.75 -6.5"/></pattern></defs><g id="_レイヤー_1-2"><polygon class="cls-4" points="36.75 127.3 0 63.65 36.75 0 110.25 0 147 63.65 110.25 127.3 36.75 127.3"/><polygon class="cls-9" points="108.61 2.83 38.39 2.83 3.27 63.65 38.39 124.47 108.61 124.47 143.72 63.65 108.61 2.83"/><path class="cls-7" d="m17.98,68.68h-.84l.21-.31h1.02l-.64,3.02h-.33l.58-2.71Z"/><path class="cls-7" d="m19.09,71.27c-.14-.08-.24-.19-.3-.33-.06-.14-.07-.31-.03-.5l.23-1.09c.04-.2.12-.37.24-.51s.26-.26.43-.34c.17-.08.35-.12.54-.12h2.4c.19,0,.35.04.48.12.14.08.23.19.29.34.06.15.07.32.02.52l-.23,1.09c-.04.19-.12.36-.24.5-.12.14-.26.25-.43.33-.17.08-.35.12-.54.12h-2.38c-.19,0-.35-.04-.49-.12Zm3.44-.39c.15-.12.25-.31.29-.54l.2-.91c.05-.23.02-.41-.08-.54s-.28-.19-.53-.19h-2.15c-.26,0-.47.07-.62.21s-.25.32-.3.53l-.2.91c-.05.23-.02.41.09.54s.27.19.48.19h2.23c.24,0,.44-.06.59-.19Z"/><path class="cls-7" d="m23.86,71.07h.53l-.07.32h-.53l.07-.32Z"/><path class="cls-7" d="m25.2,71.07h3.3c.2,0,.37-.04.51-.13.14-.09.23-.2.27-.35l.02-.08c.04-.19,0-.32-.1-.39-.1-.08-.26-.12-.47-.12h-3.28l.35-1.63h4.15l-.07.32h-3.79l-.21,1h3.09c.14,0,.28.03.39.1.12.06.2.16.26.28.06.12.07.27.03.43l-.02.12c-.03.14-.1.27-.2.39-.1.12-.23.21-.38.28-.15.07-.3.11-.45.11h-3.47l.07-.32Z"/><path class="cls-7" d="m30.63,70.2c.12-.11.26-.18.42-.2l3.24-.5c.09-.02.18-.06.25-.12.08-.06.13-.14.15-.23,0,0,0,0,0,0,0,0,0,0,0,0v-.07c.04-.12.02-.21-.04-.27s-.16-.1-.29-.1h-3.37l.07-.32h3.48c.11,0,.21.03.3.08s.16.12.21.21c.05.09.06.2.03.33l-.04.2c-.03.13-.08.24-.18.35-.09.11-.2.19-.32.23-.03,0-.06.01-.09.02l-3.3.5c-.13.02-.23.07-.31.15s-.13.17-.14.25l-.08.38h3.94l-.07.32h-4.28l.17-.8c.03-.15.11-.28.23-.39Z"/><path class="cls-7" d="m35.77,71.29c-.1-.07-.18-.16-.22-.27s-.05-.23-.03-.36l.02-.1c.03-.13.08-.25.17-.35s.18-.2.29-.26c.11-.07.2-.1.28-.11v.04c-.09,0-.17-.04-.24-.11-.07-.06-.12-.14-.15-.24-.03-.1-.04-.21,0-.33v-.08c.04-.13.11-.25.2-.37s.21-.21.35-.28c.14-.07.28-.1.43-.1h2.71c.14,0,.27.04.38.1.11.07.19.16.23.28.05.12.06.24.03.37v.08c-.04.12-.09.23-.16.33-.07.1-.16.18-.25.24-.09.06-.19.1-.28.11v-.04c.09,0,.17.04.25.11s.14.16.18.26.04.23.02.35l-.02.1c-.03.13-.09.25-.17.36-.09.11-.19.2-.32.27-.13.07-.27.1-.41.1h-2.9c-.13,0-.25-.03-.36-.1Zm3.6-.35c.11-.09.19-.2.21-.33l.02-.09c.02-.08,0-.16-.04-.24s-.1-.14-.19-.19c-.08-.05-.17-.07-.25-.07h-2.51c-.1,0-.19.03-.29.07s-.19.11-.26.18-.12.16-.13.24l-.02.09c-.03.13,0,.25.07.33.08.09.19.13.34.13h2.66c.15,0,.28-.04.4-.13Zm.23-1.36c.11-.09.18-.2.22-.35v-.07c.03-.08.02-.16-.02-.23-.04-.07-.09-.13-.17-.17-.08-.04-.16-.06-.26-.06h-2.46c-.09,0-.19.02-.28.06-.09.04-.17.1-.24.17s-.11.15-.13.23v.07c-.03.08-.03.16,0,.24.03.07.08.13.15.18.07.04.16.07.25.07h2.51c.16,0,.3-.04.41-.13Z"/><path class="cls-7" d="m41.82,68.68h-.84l.21-.31h1.02l-.64,3.02h-.33l.58-2.71Z"/><path class="cls-7" d="m45.28,68.02h.32l-3.24,3.77h-.31l3.23-3.77Z"/><path class="cls-7" d="m45.41,71.12l3.47-1.93v.08s-3.07,0-3.07,0l.07-.33h3.66l-.06.27-3.49,1.92v-.08s3.09,0,3.09,0l-.07.32h-3.67l.06-.26Z"/><path class="cls-7" d="m50.21,71.29c-.12-.06-.21-.16-.26-.29-.05-.13-.06-.28-.02-.46l.15-.73c.06-.27.19-.48.38-.64s.44-.23.71-.23h2.07c.28,0,.48.08.61.23.13.15.17.36.11.63l-.11.51h-3.58l.07-.32h3.23l.02-.12c.04-.19.02-.34-.07-.45-.09-.1-.23-.16-.43-.16h-1.94c-.2,0-.37.06-.49.17-.13.11-.21.26-.25.44l-.13.63c-.02.09-.01.18.01.26s.08.16.16.21.18.08.31.08h2.83l-.07.32h-2.88c-.17,0-.32-.03-.44-.1Z"/><path class="cls-7" d="m54.97,68.95h.35l-.05.22.05-.04c.06-.04.12-.08.18-.11.06-.03.12-.05.19-.06.06-.01.13-.02.2-.02h2.06c.28,0,.48.08.61.23.13.15.16.37.11.64l-.34,1.58h-.35l.32-1.52c.04-.2.02-.35-.06-.45-.08-.1-.22-.16-.42-.16h-1.94c-.2,0-.37.06-.5.17-.13.11-.21.26-.25.44l-.32,1.52h-.35l.52-2.44Z"/><path class="cls-7" d="m59.38,71.17c-.14-.15-.18-.35-.12-.62l.15-.73c.06-.27.19-.48.38-.64s.44-.23.71-.23h2.07c.27,0,.48.08.61.23.13.15.17.37.11.64l-.15.73c-.05.25-.18.46-.38.61s-.43.23-.69.23h-2.09c-.26,0-.46-.07-.6-.22Zm3.03-.19c.1-.06.19-.13.25-.22s.11-.17.13-.25l.13-.63c.04-.2.02-.35-.07-.45-.09-.1-.23-.16-.43-.16h-1.94c-.2,0-.37.06-.49.17-.13.11-.21.26-.25.44l-.13.63c-.02.09-.01.18.02.26.03.09.08.16.16.21.08.06.18.08.31.08h1.97c.12,0,.23-.03.34-.09Z"/><path class="cls-7" d="m64.04,71.17c-.14-.15-.18-.35-.12-.62l.16-.74c.06-.27.18-.48.38-.64.2-.16.43-.23.71-.23h2.63l.13-.6.37-.11-.67,3.16h-.34l.05-.25c-.05.06-.13.12-.24.17-.11.05-.22.08-.33.08h-2.12c-.26,0-.46-.07-.6-.22Zm2.99-.19c.12-.06.22-.13.3-.22s.14-.19.16-.29l.24-1.2h-2.58c-.2,0-.37.06-.49.17-.12.11-.21.26-.25.45l-.13.64c-.02.09-.01.18.02.26.03.09.08.16.16.21.08.06.18.08.31.08h1.94c.1,0,.21-.03.33-.08Z"/><path class="cls-7" d="m68.74,71.17c-.14-.15-.18-.35-.12-.62l.15-.73c.06-.27.19-.48.38-.64s.44-.23.71-.23h2.07c.27,0,.48.08.61.23.13.15.17.37.11.64l-.15.73c-.05.25-.18.46-.38.61s-.43.23-.69.23h-2.09c-.26,0-.46-.07-.6-.22Zm3.03-.19c.1-.06.19-.13.25-.22s.11-.17.13-.25l.13-.63c.04-.2.02-.35-.07-.45-.09-.1-.23-.16-.43-.16h-1.94c-.2,0-.37.06-.49.17-.13.11-.21.26-.25.44l-.13.63c-.02.09-.01.18.02.26.03.09.08.16.16.21.08.06.18.08.31.08h1.97c.12,0,.23-.03.34-.09Z"/><path class="cls-7" d="m73.2,71.07h.53l-.07.32h-.53l.07-.32Z"/><path class="cls-7" d="m74.89,71.29c-.1-.07-.18-.16-.22-.27s-.05-.23-.03-.36l.02-.1c.03-.13.08-.25.17-.35s.18-.2.29-.26c.11-.07.2-.1.28-.11v.04c-.09,0-.17-.04-.24-.11-.07-.06-.12-.14-.15-.24-.03-.1-.04-.21,0-.33v-.08c.04-.13.11-.25.2-.37.1-.12.21-.21.35-.28.14-.07.28-.1.43-.1h2.71c.14,0,.27.04.38.1.11.07.19.16.23.28.05.12.06.24.03.37v.08c-.04.12-.09.23-.16.33-.07.1-.16.18-.25.24-.09.06-.19.1-.28.11v-.04c.09,0,.17.04.25.11.08.07.14.16.18.26.04.11.04.23.02.35l-.02.1c-.03.13-.09.25-.17.36-.09.11-.19.2-.32.27-.13.07-.27.1-.41.1h-2.9c-.13,0-.25-.03-.36-.1Zm3.6-.35c.11-.09.19-.2.21-.33l.02-.09c.02-.08,0-.16-.04-.24-.04-.08-.1-.14-.18-.19-.08-.05-.17-.07-.26-.07h-2.51c-.1,0-.19.03-.29.07s-.19.11-.26.18c-.07.08-.12.16-.13.24l-.02.09c-.03.13,0,.25.07.33.08.09.19.13.34.13h2.66c.15,0,.28-.04.4-.13Zm.23-1.36c.11-.09.18-.2.22-.35v-.07c.03-.08.02-.16-.02-.23s-.09-.13-.17-.17c-.08-.04-.16-.06-.25-.06h-2.46c-.09,0-.19.02-.28.06-.09.04-.17.1-.24.17s-.11.15-.12.23v.07c-.03.08-.03.16,0,.24.03.07.08.13.15.18.07.04.16.07.26.07h2.51c.16,0,.3-.04.41-.13Z"/><path class="cls-7" d="m80.94,68.68h-.84l.21-.31h1.02l-.64,3.02h-.33l.58-2.71Z"/><path class="cls-7" d="m81.92,71.29c-.1-.07-.18-.16-.22-.27s-.05-.23-.03-.36l.02-.1c.03-.13.08-.25.17-.35s.18-.2.29-.26c.11-.07.2-.1.28-.11v.04c-.09,0-.17-.04-.24-.11-.07-.06-.12-.14-.15-.24-.03-.1-.04-.21,0-.33v-.08c.04-.13.11-.25.2-.37.1-.12.21-.21.35-.28.14-.07.28-.1.43-.1h2.71c.14,0,.27.04.38.1.11.07.19.16.23.28.05.12.06.24.03.37v.08c-.04.12-.09.23-.16.33-.07.1-.16.18-.25.24-.09.06-.19.1-.28.11v-.04c.09,0,.17.04.25.11.08.07.14.16.18.26.04.11.04.23.02.35l-.02.1c-.03.13-.09.25-.17.36-.09.11-.19.2-.32.27-.13.07-.27.1-.41.1h-2.9c-.13,0-.25-.03-.36-.1Zm3.6-.35c.11-.09.19-.2.21-.33l.02-.09c.02-.08,0-.16-.04-.24-.04-.08-.1-.14-.18-.19-.08-.05-.17-.07-.26-.07h-2.51c-.1,0-.19.03-.29.07s-.19.11-.26.18c-.07.08-.12.16-.13.24l-.02.09c-.03.13,0,.25.07.33.08.09.19.13.34.13h2.66c.15,0,.28-.04.4-.13Zm.23-1.36c.11-.09.18-.2.22-.35v-.07c.03-.08.02-.16-.02-.23s-.09-.13-.17-.17c-.08-.04-.16-.06-.25-.06h-2.46c-.09,0-.19.02-.28.06-.09.04-.17.1-.24.17s-.11.15-.12.23v.07c-.03.08-.03.16,0,.24.03.07.08.13.15.18.07.04.16.07.26.07h2.51c.16,0,.3-.04.41-.13Z"/><path class="cls-7" d="m91.45,68.61c.14.16.17.38.11.67l-.24,1.14c-.04.2-.12.37-.24.52-.12.15-.26.26-.43.34-.17.08-.35.12-.54.12h-3.16l.07-.32h3.04c.26,0,.47-.07.62-.21s.25-.32.3-.53l.2-.96c.05-.23.03-.4-.05-.52-.08-.11-.23-.17-.45-.17h-2.37c-.23,0-.41.04-.53.11-.12.07-.2.2-.23.37v.07c-.05.16-.02.29.06.38.08.09.24.14.46.14h3.15l-.07.32h-3.32c-.26,0-.45-.07-.57-.22-.12-.14-.16-.33-.11-.56v-.05c.07-.29.2-.5.41-.65s.45-.22.72-.22h2.55c.28,0,.49.08.63.24Z"/><path class="cls-7" d="m92.18,71.15c-.14-.16-.17-.38-.11-.67l.24-1.14c.04-.2.12-.37.24-.51.12-.15.26-.26.43-.34.17-.08.35-.12.54-.12h3.16l-.07.32h-3.04c-.26,0-.47.07-.62.21s-.25.32-.3.53l-.2.96c-.05.23-.04.4.05.52.08.11.23.17.45.17h2.37c.23,0,.41-.04.53-.11.12-.07.2-.2.23-.37v-.07c.05-.16.02-.29-.06-.38-.08-.09-.24-.14-.46-.14h-3.15l.07-.32h3.32c.26,0,.45.07.57.22.12.14.16.33.11.56v.05c-.07.29-.2.5-.41.65-.2.15-.45.22-.72.22h-2.55c-.28,0-.49-.08-.63-.24Z"/><path class="cls-7" d="m100.61,70.71h-3.55l.07-.32,3.92-2.03h.42l-.42,2.01h.69l-.07.33h-.69l-.14.67h-.36l.14-.67Zm-3-.33h3.08l.35-1.65h-.05l-3.37,1.75v-.1Z"/><path class="cls-7" d="m105.69,70.71h-3.55l.07-.32,3.92-2.03h.42l-.42,2.01h.69l-.07.33h-.69l-.14.67h-.36l.14-.67Zm-3-.33h3.08l.35-1.65h-.05l-3.37,1.75v-.1Z"/><path class="cls-7" d="m11.23,65.39h36.03c.46,0,.84-.1,1.12-.29s.46-.46.53-.79l.08-.35c.05-.23,0-.44-.15-.63s-.38-.3-.67-.33c-.02,0-.03,0-.03,0,0,0-.02,0-.03,0l-8.01-.76c-.09-.02-.18-.03-.27-.04-.49-.1-.85-.3-1.09-.61-.24-.31-.31-.69-.21-1.14l.13-.65c.08-.36.24-.69.49-.98.25-.29.55-.51.9-.67.35-.16.72-.23,1.1-.23h9.6l-.19.88h-9.4c-.42,0-.76.11-1.02.32-.26.21-.42.45-.47.72l-.09.4c-.06.3-.01.55.15.75.16.2.41.32.74.36h.03l8.18.79h.04c.5.05.87.24,1.11.55.24.32.31.7.21,1.15l-.13.63c-.07.36-.23.67-.48.95s-.55.49-.9.64-.72.23-1.11.23H11.04l.19-.88Z"/><path class="cls-7" d="m53.56,57.91h10.1c.41,0,.76.09,1.04.26s.48.41.6.71c.12.3.13.63.05.99l-.04.21c-.07.33-.22.64-.45.94-.23.3-.49.54-.78.73-.29.19-.56.29-.8.32l.04-.12c.21.02.43.12.65.31.22.19.38.43.49.73.11.3.12.63.05.98l-.07.28c-.07.36-.24.69-.49,1s-.57.56-.93.75c-.36.19-.73.28-1.11.28h-10.13l1.77-8.37Zm9.32,7.12c.32-.24.51-.55.59-.93l.05-.24c.04-.24,0-.47-.11-.69s-.29-.39-.51-.53c-.22-.13-.47-.2-.73-.2h-8.56l-.63,2.95h8.78c.42,0,.79-.12,1.1-.37Zm.27-3.67c.29-.14.53-.32.73-.53.2-.22.33-.44.37-.66l.05-.2c.06-.33-.02-.61-.25-.83s-.54-.34-.93-.34h-8.74l-.59,2.78h8.5c.28,0,.56-.07.84-.21Z"/><path class="cls-5" d="m68.07,57.91h.92l5.61,6.13h-.67l8.2-6.13h.95l-1.78,8.37h-.97l1.6-7.55.36.16-7.55,5.65h-.97l-5.17-5.69.28-.12-1.6,7.55h-.97l1.77-8.37Z"/><path class="cls-5" d="m85.47,57.91h11.49l-.19.88h-10.46l-.6,2.86h9.66l-.19.88h-9.66l-.8,3.75h-1.03l1.78-8.37Z"/><path class="cls-5" d="m98.4,65.95c-.39-.22-.66-.52-.83-.92-.17-.4-.2-.86-.08-1.38l.64-3.03c.12-.54.34-1.02.67-1.43s.73-.73,1.2-.95c.47-.22.97-.33,1.51-.33h8l-.19.88h-7.66c-.73,0-1.31.19-1.73.58s-.7.87-.82,1.46l-.55,2.54c-.13.63-.05,1.13.25,1.49.3.36.75.54,1.34.54h7.77l-.19.88h-7.97c-.52,0-.97-.11-1.36-.33Z"/><path class="cls-5" d="m110.7,57.91h1.14l3.64,7.55h-.41l6.9-7.55h1.2l-7.66,8.37h-.71l-4.1-8.37Z"/><polyline class="cls-5" points="121.75 57.91 134.34 57.91 134.16 58.79 121.89 58.79"/><polygon class="cls-8" points="112.45 56 111.32 56 114.62 62.74 115.7 62.74 112.45 56"/><polygon class="cls-6" points="113.07 54.09 111.94 54.09 115.24 60.83 116.32 60.83 113.07 54.09"/><polygon class="cls-2" points="41.66 118.8 9.82 63.65 41.66 8.5 105.34 8.5 137.18 63.65 105.34 118.8 41.66 118.8"/></g></svg>