<?xml version="1.0" encoding="UTF-8"?><svg id="_レイヤー_2" xmlns="http://www.w3.org/2000/svg" viewBox="0 0 121.08 15.91"><defs><style>.cls-1{fill:#e71f19;}.cls-2{fill:#7cc055;}.cls-3{fill:#231815;}.cls-4{fill:#54c3f1;}</style></defs><g id="_レイヤー_1-2"><path class="cls-3" d="m.75,13.11h-.75l.19-.28h.92l-.58,2.71H.23l.52-2.44Z"/><path class="cls-3" d="m1.75,15.44c-.13-.07-.22-.17-.27-.3-.05-.13-.06-.28-.03-.45l.21-.98c.04-.18.11-.33.22-.46.11-.13.24-.24.39-.31.15-.07.32-.11.49-.11h2.16c.17,0,.31.04.43.11.12.07.21.17.26.31.05.13.06.29.02.47l-.21.98c-.04.17-.11.32-.22.45-.11.13-.24.23-.39.3s-.32.1-.49.1h-2.14c-.17,0-.31-.04-.44-.11Zm3.1-.35c.13-.11.22-.28.26-.49l.18-.82c.04-.21.02-.37-.07-.49-.09-.12-.25-.18-.48-.18h-1.93c-.24,0-.42.06-.56.19-.14.12-.23.28-.27.47l-.18.82c-.04.21-.02.37.08.48.1.12.24.18.43.18h2c.22,0,.4-.06.53-.17Z"/><path class="cls-3" d="m6.03,15.26h.48l-.06.29h-.48l.06-.29Z"/><path class="cls-3" d="m7.24,15.27h2.96c.18,0,.33-.04.46-.12s.21-.18.24-.31l.02-.07c.03-.17,0-.29-.09-.36s-.23-.1-.42-.1h-2.95l.31-1.47h3.73l-.06.29h-3.41l-.19.9h2.78c.13,0,.25.03.35.09s.18.14.23.25c.05.11.06.24.03.38l-.02.11c-.03.13-.09.24-.18.35s-.21.19-.34.26c-.13.06-.27.09-.41.09h-3.12l.06-.29Z"/><path class="cls-3" d="m12.12,14.48c.11-.1.23-.16.38-.18l2.92-.45c.08-.01.16-.05.23-.11.07-.06.12-.13.14-.21,0,0,0,0,0,0,0,0,0,0,0,0v-.06c.04-.1.02-.19-.04-.25s-.14-.09-.26-.09h-3.03l.06-.29h3.13c.1,0,.18.02.27.07.08.04.15.11.19.19.04.08.05.18.03.29l-.04.18c-.02.11-.08.22-.16.32s-.18.17-.29.21c-.03,0-.05.01-.08.02l-2.96.46c-.12.02-.21.06-.28.14-.07.07-.11.15-.13.22l-.07.34h3.54l-.06.29h-3.85l.15-.72c.03-.13.1-.25.2-.35Z"/><path class="cls-3" d="m16.75,15.46c-.09-.06-.16-.14-.2-.24-.04-.1-.05-.21-.03-.33l.02-.09c.02-.12.07-.22.15-.32.08-.1.16-.18.26-.24s.18-.09.26-.1v.04c-.08,0-.15-.04-.21-.09s-.11-.13-.14-.22c-.03-.09-.03-.19,0-.29v-.07c.04-.12.1-.22.18-.33.09-.1.19-.19.31-.25.12-.06.25-.09.38-.09h2.43c.13,0,.24.03.34.09.1.06.17.14.21.25.04.1.05.21.02.33v.07c-.04.11-.08.21-.15.29-.07.09-.14.16-.23.22-.09.05-.17.09-.25.09v-.04c.08,0,.15.04.22.1s.12.14.16.24.04.2.02.32l-.02.09c-.03.12-.08.23-.16.33-.08.1-.17.18-.29.24s-.24.09-.37.09h-2.6c-.12,0-.23-.03-.32-.09Zm3.23-.31c.1-.08.17-.18.19-.3l.02-.08c.01-.08,0-.15-.04-.22s-.09-.12-.17-.17-.15-.06-.23-.06h-2.26c-.09,0-.17.02-.26.06s-.17.09-.23.16c-.07.07-.11.14-.12.22l-.02.08c-.03.12,0,.22.06.3.07.08.17.12.3.12h2.39c.14,0,.25-.04.36-.12Zm.21-1.23c.1-.08.17-.18.19-.32v-.06c.03-.07.02-.14-.02-.21-.03-.06-.08-.12-.15-.16-.07-.04-.15-.06-.23-.06h-2.21c-.08,0-.17.02-.25.06s-.16.09-.22.16c-.06.07-.1.13-.11.21v.06c-.03.08-.03.15,0,.21s.07.12.14.16.14.06.23.06h2.26c.14,0,.27-.04.37-.12Z"/><path class="cls-3" d="m22.19,13.11h-.75l.19-.28h.92l-.58,2.71h-.3l.52-2.44Z"/><path class="cls-3" d="m25.3,12.52h.29l-2.91,3.39h-.28l2.91-3.39Z"/><path class="cls-3" d="m25.41,15.31l3.12-1.74v.07s-2.76,0-2.76,0l.06-.29h3.29l-.05.24-3.14,1.73v-.07s2.78,0,2.78,0l-.06.29h-3.3l.05-.24Z"/><path class="cls-3" d="m29.72,15.46c-.11-.06-.19-.14-.24-.26-.05-.11-.05-.25-.02-.41l.14-.66c.05-.24.17-.43.34-.57.18-.14.39-.21.64-.21h1.86c.25,0,.43.07.55.2s.15.33.1.57l-.1.45h-3.22l.06-.29h2.9l.02-.11c.04-.17.02-.31-.06-.4-.08-.09-.21-.14-.39-.14h-1.75c-.18,0-.33.05-.44.15-.11.1-.19.23-.22.4l-.12.56c-.02.08-.01.16.01.24.03.08.07.14.15.19s.16.07.28.07h2.54l-.06.29h-2.59c-.15,0-.28-.03-.39-.09Z"/><path class="cls-3" d="m34,13.36h.31l-.04.2.04-.04c.05-.04.1-.07.16-.1.05-.03.11-.04.17-.06s.12-.02.18-.02h1.85c.25,0,.43.07.54.21s.15.33.1.58l-.3,1.42h-.31l.29-1.36c.04-.18.02-.31-.06-.4-.07-.09-.2-.14-.38-.14h-1.74c-.18,0-.33.05-.45.15-.12.1-.19.23-.23.39l-.29,1.36h-.31l.47-2.19Z"/><path class="cls-3" d="m37.97,15.35c-.12-.13-.16-.32-.11-.56l.14-.66c.05-.24.17-.43.34-.57.18-.14.39-.21.64-.21h1.86c.25,0,.43.07.55.21s.15.33.1.58l-.14.66c-.05.23-.16.41-.34.55-.18.14-.39.21-.62.21h-1.88c-.23,0-.41-.07-.54-.2Zm2.73-.17c.09-.05.17-.12.23-.19s.1-.15.12-.23l.12-.57c.04-.18.02-.31-.06-.41-.08-.09-.21-.14-.39-.14h-1.75c-.18,0-.33.05-.44.15-.11.1-.19.23-.22.4l-.12.57c-.02.08-.01.16.02.24.03.08.08.14.15.19.07.05.16.08.27.08h1.77c.11,0,.21-.03.3-.08Z"/><path class="cls-3" d="m42.16,15.35c-.12-.13-.16-.32-.11-.56l.14-.67c.05-.24.17-.43.34-.57.18-.14.39-.21.64-.21h2.36l.12-.54.33-.1-.61,2.84h-.31l.05-.22c-.05.06-.12.11-.22.15-.1.04-.2.07-.3.07h-1.91c-.23,0-.41-.07-.54-.2Zm2.69-.17c.1-.05.19-.12.27-.2.08-.08.12-.17.14-.26l.22-1.08h-2.31c-.18,0-.33.05-.44.15s-.19.23-.23.4l-.12.57c-.02.08-.01.16.02.24.03.08.08.14.15.19.07.05.16.08.27.08h1.74c.09,0,.19-.03.29-.08Z"/><path class="cls-3" d="m46.38,15.35c-.12-.13-.16-.32-.11-.56l.14-.66c.05-.24.17-.43.34-.57.18-.14.39-.21.64-.21h1.86c.25,0,.43.07.55.21s.15.33.1.58l-.14.66c-.05.23-.16.41-.34.55-.18.14-.39.21-.62.21h-1.88c-.23,0-.41-.07-.54-.2Zm2.73-.17c.09-.05.17-.12.23-.19s.1-.15.12-.23l.12-.57c.04-.18.02-.31-.06-.41-.08-.09-.21-.14-.39-.14h-1.75c-.18,0-.33.05-.44.15-.11.1-.19.23-.22.4l-.12.57c-.02.08-.01.16.02.24.03.08.08.14.15.19.07.05.16.08.27.08h1.77c.11,0,.21-.03.3-.08Z"/><path class="cls-3" d="m50.4,15.26h.48l-.06.29h-.48l.06-.29Z"/><path class="cls-3" d="m51.92,15.46c-.09-.06-.16-.14-.2-.24-.04-.1-.05-.21-.03-.33l.02-.09c.02-.12.07-.22.15-.32.08-.1.16-.18.26-.24s.18-.09.26-.1v.04c-.08,0-.15-.04-.21-.09s-.11-.13-.14-.22c-.03-.09-.03-.19,0-.29v-.07c.04-.12.1-.22.18-.33.09-.1.19-.19.31-.25.12-.06.25-.09.38-.09h2.43c.13,0,.24.03.34.09.1.06.17.14.21.25.04.1.05.21.02.33v.07c-.04.11-.08.21-.15.29-.07.09-.14.16-.23.22-.09.05-.17.09-.25.09v-.04c.08,0,.15.04.22.1s.12.14.16.24.04.2.02.32l-.02.09c-.03.12-.08.23-.16.33-.08.1-.17.18-.29.24s-.24.09-.37.09h-2.6c-.12,0-.23-.03-.32-.09Zm3.23-.31c.1-.08.17-.18.19-.3l.02-.08c.01-.08,0-.15-.04-.22s-.09-.12-.17-.17-.15-.06-.23-.06h-2.26c-.09,0-.17.02-.26.06s-.17.09-.23.16c-.07.07-.11.14-.12.22l-.02.08c-.03.12,0,.22.06.3.07.08.17.12.3.12h2.39c.14,0,.25-.04.36-.12Zm.21-1.23c.1-.08.17-.18.19-.32v-.06c.03-.07.02-.14-.02-.21-.03-.06-.08-.12-.15-.16-.07-.04-.15-.06-.23-.06h-2.21c-.08,0-.17.02-.25.06s-.16.09-.22.16c-.06.07-.1.13-.11.21v.06c-.03.08-.03.15,0,.21s.07.12.14.16.14.06.23.06h2.26c.14,0,.27-.04.37-.12Z"/><path class="cls-3" d="m57.35,13.11h-.75l.19-.28h.92l-.58,2.71h-.3l.52-2.44Z"/><path class="cls-3" d="m58.23,15.46c-.09-.06-.16-.14-.2-.24-.04-.1-.05-.21-.03-.33l.02-.09c.02-.12.07-.22.15-.32.08-.1.16-.18.26-.24s.18-.09.26-.1v.04c-.08,0-.15-.04-.21-.09s-.11-.13-.14-.22c-.03-.09-.03-.19,0-.29v-.07c.04-.12.1-.22.18-.33.09-.1.19-.19.31-.25.12-.06.25-.09.38-.09h2.43c.13,0,.24.03.34.09.1.06.17.14.21.25.04.1.05.21.02.33v.07c-.04.11-.08.21-.15.29-.07.09-.14.16-.23.22-.09.05-.17.09-.25.09v-.04c.08,0,.15.04.22.1.07.06.12.14.16.24s.04.2.02.32l-.02.09c-.03.12-.08.23-.16.33-.08.1-.17.18-.29.24s-.24.09-.37.09h-2.6c-.12,0-.23-.03-.32-.09Zm3.23-.31c.1-.08.17-.18.19-.3l.02-.08c.01-.08,0-.15-.04-.22s-.09-.12-.17-.17-.15-.06-.23-.06h-2.26c-.09,0-.17.02-.26.06s-.17.09-.23.16c-.07.07-.11.14-.12.22l-.02.08c-.03.12,0,.22.06.3.07.08.17.12.3.12h2.39c.14,0,.25-.04.36-.12Zm.21-1.23c.1-.08.17-.18.19-.32v-.06c.03-.07.02-.14-.02-.21-.03-.06-.08-.12-.15-.16-.07-.04-.15-.06-.23-.06h-2.21c-.08,0-.17.02-.25.06s-.16.09-.22.16c-.06.07-.1.13-.11.21v.06c-.03.08-.03.15,0,.21s.07.12.14.16.14.06.23.06h2.26c.14,0,.27-.04.37-.12Z"/><path class="cls-3" d="m66.8,13.05c.12.14.16.34.1.6l-.22,1.02c-.04.18-.11.33-.22.46-.11.13-.24.23-.39.31-.15.07-.32.11-.49.11h-2.84l.06-.29h2.74c.24,0,.42-.06.56-.19.14-.13.23-.28.27-.47l.18-.86c.05-.21.03-.36-.05-.47-.08-.1-.21-.15-.4-.15h-2.13c-.21,0-.37.03-.48.1-.11.07-.18.18-.21.33v.06c-.04.14-.02.26.06.34.08.08.21.12.41.12h2.83l-.06.29h-2.99c-.23,0-.41-.07-.52-.2-.11-.13-.14-.3-.1-.51v-.04c.06-.26.18-.45.37-.58.18-.13.4-.2.65-.2h2.29c.25,0,.44.07.56.21Z"/><path class="cls-3" d="m67.47,15.34c-.12-.14-.16-.34-.1-.6l.22-1.02c.04-.18.11-.33.22-.46.11-.13.24-.24.39-.31.15-.07.32-.11.49-.11h2.84l-.06.29h-2.73c-.24,0-.42.06-.56.19-.14.12-.23.28-.27.47l-.18.86c-.05.21-.03.36.05.46.08.1.21.15.4.15h2.13c.21,0,.37-.03.48-.1.11-.07.18-.18.21-.33v-.06c.04-.14.02-.26-.06-.34-.08-.08-.21-.13-.41-.13h-2.83l.06-.29h2.99c.23,0,.41.06.52.19.11.13.14.3.1.51v.04c-.06.26-.18.45-.37.58s-.4.2-.65.2h-2.29c-.25,0-.44-.07-.56-.21Z"/><path class="cls-3" d="m75.04,14.95h-3.19l.06-.29,3.52-1.82h.38l-.38,1.81h.62l-.06.3h-.62l-.13.61h-.32l.13-.61Zm-2.7-.3h2.77l.31-1.48h-.04l-3.03,1.57v-.09Z"/><path class="cls-3" d="m79.61,14.95h-3.19l.06-.29,3.52-1.82h.38l-.38,1.81h.62l-.06.3h-.62l-.13.61h-.32l.13-.61Zm-2.7-.3h2.77l.31-1.48h-.04l-3.03,1.57v-.09Z"/><path class="cls-3" d="m.34,10.16h26.73c.42,0,.75-.09,1.01-.26s.42-.41.48-.71l.07-.31c.05-.21,0-.4-.14-.56s-.34-.27-.61-.3c-.02,0-.03,0-.03,0,0,0-.01,0-.03,0l-7.2-.68c-.08-.02-.16-.03-.24-.04-.44-.09-.77-.27-.98-.55-.22-.28-.28-.62-.19-1.02l.12-.59c.07-.33.22-.62.44-.88.22-.26.49-.46.81-.6.32-.14.65-.21.99-.21h8.63l-.17.79h-8.45c-.38,0-.68.1-.92.29-.24.19-.38.41-.43.65l-.08.36c-.06.27-.01.5.14.67.15.18.37.28.67.32h.02l7.36.71h.04c.45.05.78.21,1,.5.22.28.28.63.19,1.04l-.12.56c-.06.32-.21.6-.43.85s-.49.44-.81.58-.65.2-1,.2H.17l.17-.79Z"/><path class="cls-3" d="m32.74,3.43h9.08c.37,0,.68.08.94.23s.44.37.54.64c.1.27.12.57.05.89l-.04.19c-.06.3-.2.58-.4.85-.2.27-.44.49-.7.65-.26.17-.5.26-.72.29l.04-.11c.19.02.39.11.58.28.2.17.34.39.44.65.1.27.11.56.05.88l-.06.25c-.06.32-.21.62-.44.9s-.51.5-.84.67c-.33.17-.66.25-1,.25h-9.11l1.6-7.52Zm8.38,6.4c.28-.22.46-.5.53-.83l.05-.22c.04-.22,0-.42-.1-.62s-.26-.35-.46-.47c-.2-.12-.42-.18-.66-.18h-7.69l-.56,2.65h7.9c.38,0,.71-.11.99-.33Zm.25-3.3c.26-.12.48-.28.66-.48.18-.2.3-.39.34-.59l.05-.18c.06-.3-.02-.55-.22-.75s-.48-.31-.83-.31h-7.86l-.53,2.5h7.64c.25,0,.5-.06.76-.19Z"/><path class="cls-1" d="m45.78,3.43h.83l5.04,5.51h-.6l7.37-5.51h.85l-1.6,7.52h-.88l1.44-6.79.32.14-6.79,5.08h-.88l-4.64-5.11.25-.11-1.44,6.79h-.88l1.6-7.52Z"/><path class="cls-1" d="m61.43,3.43h10.33l-.17.79h-9.41l-.54,2.57h8.69l-.17.79h-8.69l-.72,3.37h-.92l1.6-7.52Z"/><path class="cls-1" d="m73.05,10.66c-.35-.2-.6-.47-.75-.83-.15-.36-.18-.77-.07-1.24l.58-2.72c.1-.49.3-.92.6-1.28s.66-.65,1.08-.85c.42-.2.88-.3,1.36-.3h7.19l-.17.79h-6.89c-.66,0-1.17.17-1.55.52s-.63.79-.74,1.31l-.49,2.28c-.12.57-.05,1.01.22,1.34.27.32.67.49,1.21.49h6.98l-.17.79h-7.16c-.46,0-.87-.1-1.22-.29Z"/><path class="cls-1" d="m84.11,3.43h1.02l3.28,6.79h-.37l6.2-6.79h1.08l-6.89,7.52h-.64l-3.68-7.52Z"/><polyline class="cls-1" points="94.04 3.43 121.08 3.43 120.91 4.22 94.18 4.22"/><polygon class="cls-4" points="85.69 1.71 84.67 1.71 87.63 7.77 88.61 7.77 85.69 1.71"/><polygon class="cls-2" points="86.24 0 85.22 0 88.19 6.06 89.17 6.06 86.24 0"/></g></svg>