<?xml version="1.0" encoding="UTF-8"?><svg id="_レイヤー_2" xmlns="http://www.w3.org/2000/svg" xmlns:xlink="http://www.w3.org/1999/xlink" viewBox="0 0 147 127.3"><defs><style>.cls-1,.cls-2,.cls-3{fill:none;}.cls-4{fill:#fff;}.cls-5{fill:#e71f19;}.cls-6{fill:#939393;}.cls-7{fill:#d3d1d1;}.cls-8{fill:#231815;}.cls-9{fill:#373838;}.cls-10{fill:#494747;}.cls-11{fill:#5d5b5a;}.cls-12{fill:url(#_新規パターンスウォッチ_3);}.cls-2{stroke:#e71f19;}.cls-2,.cls-3{stroke-miterlimit:10;stroke-width:.75px;}.cls-3{stroke:#efefef;}</style><pattern id="_新規パターンスウォッチ_3" x="0" y="0" width="15.88" height="27.51" patternTransform="translate(-524.15 -439.81)" patternUnits="userSpaceOnUse" viewBox="0 0 15.88 27.51"><rect class="cls-1" width="15.88" height="27.51"/><polygon class="cls-3" points="19.64 21.01 12.13 21.01 8.37 27.51 12.13 34.01 19.64 34.01 23.39 27.51 19.64 21.01"/><polygon class="cls-3" points="3.75 21.01 -3.75 21.01 -7.51 27.51 -3.75 34.01 3.75 34.01 7.51 27.51 3.75 21.01"/><polygon class="cls-3" points="11.7 7.25 4.19 7.25 .43 13.76 4.19 20.26 11.7 20.26 15.45 13.76 11.7 7.25"/><polygon class="cls-3" points="19.64 -6.5 12.13 -6.5 8.37 0 12.13 6.5 19.64 6.5 23.39 0 19.64 -6.5"/><polygon class="cls-3" points="3.75 -6.5 -3.75 -6.5 -7.51 0 -3.75 6.5 3.75 6.5 7.51 0 3.75 -6.5"/></pattern></defs><g id="_レイヤー_1-2"><polygon class="cls-4" points="36.75 127.3 0 63.65 36.75 0 110.25 0 147 63.65 110.25 127.3 36.75 127.3"/><polygon class="cls-12" points="108.61 2.83 38.39 2.83 3.27 63.65 38.39 124.47 108.61 124.47 143.72 63.65 108.61 2.83"/><polygon class="cls-2" points="41.66 118.8 9.82 63.65 41.66 8.5 105.34 8.5 137.18 63.65 105.34 118.8 41.66 118.8"/><polygon class="cls-8" points="129.77 69.08 61.34 69.08 63.39 58.35 131.81 58.35 129.77 69.08"/><path class="cls-8" d="m61.56,70.81h-.64l.16-.24h.78l-.49,2.3h-.25l.44-2.06Z"/><path class="cls-8" d="m62.4,72.79c-.11-.06-.18-.14-.23-.25-.05-.11-.05-.24-.02-.38l.18-.83c.03-.15.09-.28.18-.39.09-.11.2-.2.33-.26.13-.06.27-.09.41-.09h1.83c.14,0,.26.03.37.09.1.06.18.15.22.26s.05.24.02.4l-.18.83c-.03.15-.09.27-.18.38-.09.11-.2.19-.33.25-.13.06-.27.09-.42.09h-1.81c-.14,0-.27-.03-.37-.09Zm2.62-.29c.11-.1.19-.23.22-.42l.15-.7c.04-.18.02-.31-.06-.41-.08-.1-.21-.15-.41-.15h-1.64c-.2,0-.36.05-.47.16-.12.11-.19.24-.23.4l-.15.7c-.04.17-.01.31.07.41.08.1.2.15.37.15h1.7c.19,0,.33-.05.45-.14Z"/><path class="cls-8" d="m66.04,72.63h.4l-.05.25h-.4l.05-.25Z"/><path class="cls-8" d="m67.06,72.63h2.51c.15,0,.28-.03.39-.1.11-.07.18-.15.2-.26v-.06c.04-.14.02-.24-.06-.3-.08-.06-.2-.09-.36-.09h-2.5l.26-1.24h3.17l-.05.24h-2.89l-.16.76h2.35c.11,0,.21.02.3.07s.16.12.2.21c.04.09.05.2.02.33l-.02.09c-.02.11-.07.21-.15.3-.08.09-.18.16-.29.22s-.23.08-.34.08h-2.64l.05-.24Z"/><path class="cls-8" d="m71.2,71.97c.09-.08.2-.14.32-.15l2.47-.38c.07-.01.14-.04.19-.09s.1-.11.12-.18c0,0,0,0,0,0,0,0,0,0,0,0v-.05c.03-.09.02-.16-.03-.21s-.12-.08-.22-.08h-2.57l.05-.24h2.66c.08,0,.16.02.23.06.07.04.12.09.16.16.04.07.04.15.02.25l-.03.15c-.02.1-.06.19-.13.27-.07.08-.15.14-.25.17-.02,0-.04,0-.07.01l-2.51.39c-.1.01-.18.05-.24.12s-.1.12-.11.19l-.06.29h3l-.05.24h-3.26l.13-.61c.02-.11.08-.21.17-.3Z"/><path class="cls-8" d="m75.12,72.8c-.08-.05-.13-.12-.17-.21-.03-.09-.04-.18-.02-.28l.02-.08c.02-.1.06-.19.13-.27.07-.08.14-.15.22-.2.08-.05.15-.08.22-.08v.03c-.07,0-.13-.03-.18-.08-.05-.05-.09-.11-.12-.18-.03-.08-.03-.16,0-.25v-.06c.03-.1.08-.19.15-.28s.16-.16.27-.21.21-.08.32-.08h2.06c.11,0,.21.03.29.08s.14.12.18.21.04.18.02.28v.06c-.03.09-.07.17-.12.25-.06.08-.12.14-.19.18-.07.05-.14.07-.21.08v-.03c.07,0,.13.03.19.08.06.05.1.12.13.2s.03.17.01.27l-.02.08c-.02.1-.07.19-.13.28-.07.08-.15.15-.25.2-.1.05-.2.08-.32.08h-2.21c-.1,0-.19-.03-.27-.08Zm2.74-.27c.09-.07.14-.15.16-.25v-.07c.03-.06.02-.12-.02-.18-.03-.06-.08-.11-.14-.14-.06-.04-.13-.05-.19-.05h-1.92c-.07,0-.15.02-.22.06-.08.03-.14.08-.2.14-.06.06-.09.12-.1.18v.07c-.04.1-.02.19.04.25s.14.1.26.1h2.03c.12,0,.22-.03.3-.1Zm.18-1.04c.09-.07.14-.16.17-.27v-.05c.02-.06.02-.12-.01-.17s-.07-.1-.13-.13-.12-.05-.19-.05h-1.87c-.07,0-.14.02-.21.05-.07.03-.13.08-.18.13-.05.05-.08.11-.1.17v.05c-.03.06-.02.12,0,.18.02.06.06.1.12.14s.12.05.19.05h1.91c.12,0,.23-.03.31-.1Z"/><path class="cls-8" d="m79.73,70.81h-.64l.16-.24h.78l-.49,2.3h-.25l.44-2.06Z"/><path class="cls-8" d="m82.37,70.31h.24l-2.47,2.87h-.24l2.46-2.87Z"/><path class="cls-8" d="m82.46,72.67l2.64-1.47v.06s-2.34,0-2.34,0l.06-.25h2.79l-.04.21-2.66,1.47v-.06s2.36,0,2.36,0l-.05.25h-2.8l.04-.2Z"/><path class="cls-8" d="m86.12,72.8c-.09-.05-.16-.12-.2-.22-.04-.1-.05-.21-.02-.35l.12-.56c.04-.21.14-.37.29-.49.15-.12.33-.18.54-.18h1.58c.21,0,.37.06.47.17.1.12.13.28.08.48l-.08.38h-2.73l.05-.24h2.46l.02-.1c.03-.15.01-.26-.05-.34-.07-.08-.17-.12-.33-.12h-1.48c-.15,0-.28.04-.38.13s-.16.2-.19.34l-.1.48c-.01.07-.01.14.01.2.02.07.06.12.12.16.06.04.14.06.24.06h2.15l-.05.25h-2.2c-.13,0-.24-.02-.33-.07Z"/><path class="cls-8" d="m89.75,71.02h.26l-.04.17.04-.03s.09-.06.13-.08c.04-.02.09-.04.14-.05s.1-.01.15-.01h1.57c.21,0,.36.06.46.17s.12.28.08.49l-.26,1.2h-.26l.25-1.16c.03-.15.02-.26-.05-.34-.06-.08-.17-.12-.32-.12h-1.47c-.15,0-.28.04-.38.13-.1.09-.16.2-.19.33l-.25,1.16h-.26l.4-1.86Z"/><path class="cls-8" d="m93.11,72.71c-.11-.11-.14-.27-.1-.47l.12-.56c.04-.21.14-.37.29-.49.15-.12.33-.18.54-.18h1.58c.21,0,.36.06.46.18.1.12.13.28.08.49l-.12.56c-.04.19-.14.35-.29.46-.15.12-.33.17-.53.17h-1.59c-.2,0-.35-.06-.45-.17Zm2.31-.14c.08-.04.14-.1.19-.17.05-.07.08-.13.1-.19l.1-.48c.03-.15.01-.26-.05-.34-.07-.08-.17-.12-.33-.12h-1.48c-.15,0-.28.04-.38.13s-.16.2-.19.34l-.1.48c-.01.07-.01.13.01.2.02.07.06.12.12.16.06.04.14.06.23.06h1.5c.09,0,.18-.02.26-.07Z"/><path class="cls-8" d="m96.65,72.71c-.11-.11-.14-.27-.1-.47l.12-.57c.04-.21.14-.37.29-.49.15-.12.33-.18.54-.18h2l.1-.46.28-.08-.51,2.41h-.26l.04-.19s-.1.09-.18.13-.17.06-.25.06h-1.62c-.2,0-.35-.06-.46-.17Zm2.28-.14c.09-.04.17-.1.23-.17s.1-.15.12-.22l.18-.92h-1.96c-.15,0-.28.04-.38.13-.09.08-.16.2-.19.34l-.1.48c-.01.07-.01.13.01.2.02.07.06.12.12.16.06.04.14.06.23.06h1.48c.08,0,.16-.02.25-.06Z"/><path class="cls-8" d="m100.24,72.71c-.11-.11-.14-.27-.1-.47l.12-.56c.04-.21.14-.37.29-.49.15-.12.33-.18.54-.18h1.58c.21,0,.36.06.46.18s.13.28.08.49l-.12.56c-.04.19-.14.35-.29.46-.15.12-.33.17-.53.17h-1.59c-.2,0-.35-.06-.46-.17Zm2.31-.14c.08-.04.14-.1.19-.17.05-.07.08-.13.1-.19l.1-.48c.03-.15.01-.26-.05-.34-.07-.08-.17-.12-.33-.12h-1.48c-.15,0-.28.04-.38.13-.1.08-.16.2-.19.34l-.1.48c-.01.07-.01.13.01.2.02.07.06.12.12.16.06.04.14.06.23.06h1.5c.09,0,.18-.02.26-.07Z"/><path class="cls-8" d="m103.64,72.63h.4l-.05.25h-.4l.05-.25Z"/><path class="cls-8" d="m104.92,72.8c-.08-.05-.13-.12-.17-.21-.03-.09-.04-.18-.02-.28l.02-.08c.02-.1.06-.19.13-.27s.14-.15.22-.2c.08-.05.15-.08.22-.08v.03c-.07,0-.13-.03-.18-.08-.05-.05-.09-.11-.12-.18-.02-.08-.03-.16,0-.25v-.06c.03-.1.08-.19.15-.28s.16-.16.27-.21c.1-.05.21-.08.33-.08h2.06c.11,0,.21.03.29.08s.14.12.18.21.04.18.02.28v.06c-.03.09-.07.17-.12.25-.06.08-.12.14-.19.18-.07.05-.14.07-.21.08v-.03c.07,0,.13.03.19.08.06.05.1.12.13.2.03.08.03.17.01.27l-.02.08c-.02.1-.07.19-.13.28-.07.08-.15.15-.25.2-.1.05-.2.08-.32.08h-2.21c-.1,0-.19-.03-.27-.08Zm2.74-.27c.09-.07.14-.15.16-.25v-.07c.03-.06.02-.12-.02-.18-.03-.06-.08-.11-.14-.14s-.13-.05-.19-.05h-1.91c-.07,0-.15.02-.22.06-.08.03-.14.08-.2.14-.06.06-.09.12-.1.18v.07c-.04.1-.02.19.04.25s.14.1.26.1h2.03c.11,0,.22-.03.3-.1Zm.18-1.04c.08-.07.14-.16.17-.27v-.05c.02-.06.01-.12-.01-.17-.03-.05-.07-.1-.13-.13s-.12-.05-.19-.05h-1.87c-.07,0-.14.02-.21.05s-.13.08-.18.13c-.05.05-.08.11-.09.17v.05c-.03.06-.02.12,0,.18.02.06.06.1.12.14s.12.05.19.05h1.91c.12,0,.23-.03.31-.1Z"/><path class="cls-8" d="m109.54,70.81h-.64l.16-.24h.78l-.49,2.3h-.25l.44-2.06Z"/><path class="cls-8" d="m109.91,72.64h2.67c.11,0,.21-.04.3-.1.09-.07.14-.15.16-.25v-.07c.03-.07.02-.13-.01-.19s-.08-.11-.14-.14c-.06-.03-.13-.05-.2-.05h-2.02l.05-.25h2.02c.08,0,.15-.01.23-.05.07-.04.14-.09.19-.15.05-.06.08-.12.1-.18v-.05c.03-.09.01-.17-.05-.23s-.15-.09-.26-.09h-2.65l.05-.24h2.75c.11,0,.21.02.29.07.08.05.13.11.16.19.03.08.04.17.01.27v.06c-.03.09-.07.18-.13.26-.06.08-.13.15-.21.2-.08.05-.15.08-.22.09v-.03c.07,0,.13.03.19.08.06.05.1.12.13.2s.03.17.01.27l-.02.08c-.02.1-.06.19-.14.28-.07.08-.16.15-.25.21-.1.05-.2.08-.3.08h-2.75l.05-.24Z"/><path class="cls-8" d="m117.4,70.76c.1.12.13.29.09.51l-.18.87c-.03.15-.09.28-.18.39-.09.11-.2.2-.33.26-.13.06-.27.09-.41.09h-2.41l.05-.24h2.32c.2,0,.36-.05.48-.16s.19-.24.23-.4l.15-.73c.04-.18.03-.31-.04-.39-.06-.09-.18-.13-.34-.13h-1.81c-.18,0-.31.03-.4.08-.09.06-.15.15-.18.28v.05c-.04.12-.02.22.05.29.06.07.18.11.35.11h2.4l-.05.24h-2.53c-.2,0-.34-.05-.44-.17s-.12-.25-.08-.43v-.04c.05-.22.15-.38.31-.5s.34-.17.55-.17h1.94c.22,0,.38.06.48.18Z"/><path class="cls-8" d="m117.67,72.64h2.67c.11,0,.21-.04.3-.1s.14-.15.16-.25v-.07c.03-.07.02-.13-.01-.19s-.08-.11-.14-.14c-.06-.03-.13-.05-.2-.05h-2.02l.05-.25h2.02c.08,0,.15-.01.23-.05.07-.04.14-.09.19-.15.05-.06.08-.12.1-.18v-.05c.03-.09.01-.17-.05-.23s-.15-.09-.26-.09h-2.65l.05-.24h2.75c.11,0,.21.02.29.07.08.05.13.11.16.19.03.08.04.17.01.27v.06c-.03.09-.07.18-.13.26-.06.08-.13.15-.21.2-.08.05-.15.08-.22.09v-.03c.07,0,.13.03.19.08.06.05.1.12.13.2s.03.17.01.27l-.02.08c-.02.1-.06.19-.14.28-.07.08-.16.15-.25.21-.1.05-.2.08-.3.08h-2.75l.05-.24Z"/><path class="cls-8" d="m121.84,71.97c.09-.08.2-.14.32-.15l2.47-.38c.07-.01.14-.04.19-.09.06-.05.1-.11.12-.18,0,0,0,0,0,0,0,0,0,0,0,0v-.05c.03-.09.02-.16-.03-.21-.05-.05-.12-.08-.22-.08h-2.57l.05-.24h2.66c.08,0,.16.02.23.06.07.04.12.09.16.16.04.07.04.15.02.25l-.03.15c-.02.1-.06.19-.13.27-.07.08-.15.14-.25.17-.02,0-.04,0-.07.01l-2.51.39c-.1.01-.18.05-.24.12-.06.06-.1.12-.11.19l-.06.29h3l-.05.24h-3.26l.13-.61c.02-.11.08-.21.17-.3Z"/><path class="cls-8" d="m125.68,72.69c-.1-.12-.13-.29-.09-.51l.18-.87c.03-.15.09-.28.18-.39.09-.11.2-.2.33-.26.13-.06.27-.09.42-.09h2.41l-.05.24h-2.32c-.2,0-.36.05-.47.16-.12.11-.19.24-.23.4l-.15.73c-.04.18-.03.31.04.39.06.09.18.13.34.13h1.81c.18,0,.31-.03.4-.08.09-.06.15-.15.18-.28v-.05c.04-.12.02-.22-.05-.29s-.18-.11-.35-.11h-2.4l.05-.24h2.53c.2,0,.34.06.44.17.09.11.12.25.08.43v.04c-.05.22-.16.38-.31.5s-.34.17-.55.17h-1.94c-.21,0-.37-.06-.48-.18Z"/><path class="cls-8" d="m17.21,59.54h.92l-1.43,6.73h9.44l-.17.79h-10.37l1.6-7.52Z"/><path class="cls-8" d="m28.35,66.91c-.24-.1-.41-.27-.53-.49-.12-.22-.14-.51-.07-.86l.1-.43c.06-.28.18-.54.37-.78.19-.24.43-.43.72-.58.29-.15.6-.22.92-.22h7.15l.11-.5c.08-.4.01-.71-.2-.92s-.52-.32-.93-.32h-7.04l.17-.8h7.18c.66,0,1.15.16,1.45.49.3.32.39.78.26,1.37l-.9,4.22h-.85l.12-.56c-.09.15-.26.28-.51.4-.25.11-.53.17-.85.17h-5.92c-.26,0-.51-.05-.75-.16Zm7.42-.85c.26-.13.46-.3.62-.49.16-.2.25-.39.29-.59l.13-.64h-6.92c-.31,0-.58.09-.8.26-.22.17-.36.39-.42.64l-.02.16c-.06.28-.01.49.15.64.16.15.38.22.65.22h5.46c.32,0,.61-.07.86-.2Z"/><path class="cls-8" d="m40.44,60.99h.86l-.12.55.12-.11c.14-.11.29-.2.44-.28.15-.07.3-.12.46-.16.16-.03.33-.05.5-.05h5.12c.69,0,1.19.19,1.51.57.32.38.41.91.26,1.6l-.84,3.94h-.86l.8-3.78c.1-.49.05-.86-.16-1.12-.21-.26-.56-.39-1.06-.39h-4.82c-.5,0-.92.14-1.24.42s-.53.64-.62,1.09l-.8,3.78h-.86l1.3-6.07Z"/><path class="cls-8" d="m51.45,66.52c-.34-.36-.45-.88-.31-1.54l.4-1.85c.14-.67.46-1.2.95-1.59.49-.39,1.08-.58,1.78-.58h6.55l.32-1.5.92-.28-1.68,7.88h-.85l.13-.61c-.13.16-.33.3-.6.43-.27.12-.55.19-.83.19h-5.29c-.65,0-1.14-.18-1.49-.55Zm7.45-.47c.29-.14.54-.33.75-.56.21-.23.34-.48.39-.73l.6-3h-6.42c-.5,0-.91.14-1.22.41-.31.28-.52.65-.62,1.11l-.34,1.58c-.05.22-.03.44.04.65s.21.39.41.53c.2.14.45.21.76.21h4.84c.26,0,.53-.07.82-.21Z"/><path class="cls-5" d="m63.12,66.26h7.73c.22,0,.42-.06.6-.17.18-.12.29-.27.34-.47l.06-.26c.03-.15,0-.29-.08-.41s-.25-.19-.49-.22l-6.8-.66c-.3-.03-.52-.16-.68-.38s-.19-.51-.11-.88l.08-.42c.1-.44.31-.78.65-1.03s.73-.37,1.18-.37h7.81l-.17.8h-7.7c-.26.01-.46.07-.62.17-.16.11-.26.27-.31.47l-.05.25c-.03.14,0,.26.07.38.08.12.22.19.43.22l6.85.67c.29.02.51.16.67.42.16.26.2.55.13.89l-.1.46c-.05.24-.16.46-.34.67-.18.2-.4.37-.65.49-.26.12-.51.19-.77.19h-7.9l.17-.8Z"/><path class="cls-5" d="m74.88,66.52c-.34-.36-.45-.88-.31-1.54l.38-1.82c.14-.67.46-1.2.95-1.59.49-.39,1.09-.58,1.78-.58h6.86l-.17.8h-6.73c-.5,0-.91.14-1.23.41-.32.28-.52.64-.62,1.1l-.34,1.57c-.05.22-.03.44.04.65s.21.39.41.53c.2.14.45.21.76.21h6.79l-.17.8h-6.94c-.65,0-1.14-.18-1.49-.55Z"/><path class="cls-5" d="m85.68,66.91c-.24-.1-.41-.27-.53-.49-.12-.22-.14-.51-.07-.86l.1-.43c.06-.28.18-.54.37-.78.19-.24.43-.43.72-.58.29-.15.6-.22.92-.22h7.15l.11-.5c.08-.4.01-.71-.2-.92-.21-.22-.52-.32-.93-.32h-7.04l.17-.8h7.18c.66,0,1.15.16,1.45.49.3.32.39.78.27,1.37l-.9,4.22h-.85l.12-.56c-.09.15-.26.28-.51.4s-.54.17-.85.17h-5.92c-.26,0-.51-.05-.75-.16Zm7.42-.85c.26-.13.46-.3.62-.49.16-.2.25-.39.29-.59l.13-.64h-6.92c-.31,0-.58.09-.8.26-.22.17-.36.39-.42.64l-.02.16c-.06.28-.01.49.15.64.16.15.38.22.65.22h5.46c.32,0,.61-.07.87-.2Z"/><path class="cls-5" d="m97.75,61.01h.86l-.12.58c.22-.22.46-.37.71-.46.25-.09.52-.14.83-.14h5.15c.69,0,1.2.19,1.52.58s.42.92.28,1.6l-.38,1.82c-.09.42-.26.79-.53,1.11-.26.32-.58.56-.95.73s-.77.25-1.19.25h-6.59l-.34,1.61-.94.31,1.69-7.98Zm7.04,5.03c.26-.14.47-.32.64-.53s.27-.43.32-.64l.34-1.56c.1-.49.05-.86-.17-1.12-.22-.26-.58-.39-1.07-.39h-4.85c-.5,0-.91.14-1.23.41-.32.28-.52.64-.62,1.1l-.62,2.94h6.43c.3,0,.59-.07.85-.21Z"/><path class="cls-5" d="m109.22,66.83c-.3-.16-.52-.4-.65-.71-.13-.32-.15-.69-.05-1.13l.38-1.82c.14-.67.46-1.2.95-1.59s1.09-.58,1.78-.58h5.16c.69,0,1.2.19,1.52.56s.42.9.28,1.58l-.26,1.26h-8.93l.17-.79h8.05l.06-.31c.1-.48.05-.85-.17-1.11s-.57-.39-1.07-.39h-4.85c-.5,0-.91.14-1.23.42-.32.28-.52.65-.62,1.1l-.34,1.56c-.05.22-.04.44.04.66.07.22.21.39.41.53.2.14.46.2.77.2h7.04l-.17.8h-7.19c-.42,0-.79-.08-1.09-.24Z"/><path class="cls-5" d="m121.08,61.01h.86l-.12.58c.22-.22.46-.37.71-.46.25-.09.52-.14.83-.14h6.23l-.17.8h-6.1c-.5,0-.92.14-1.24.42-.32.28-.53.65-.62,1.1l-.8,3.76h-.86l1.28-6.06Z"/><path class="cls-7" d="m97.69,50.88c-2.24-1.82-5.63-1.53-7.53.64-.27.31-.57.61-.87.92,2.8-.35,5.76-1,8.6-1.41-.06-.05-.13-.1-.19-.15Z"/><path class="cls-6" d="m97.88,51.03c-2.84.41-5.79,1.06-8.6,1.41-.84.82-1.78,1.59-2.71,2.23,4.49-.04,9.35-.3,13.84-1.88-.77-.45-1.65-1.05-2.53-1.75Z"/><path class="cls-11" d="m110.54,54.2c-2.37.47-4.61.48-5.32-.06-.86-.64-1.99-.9-2.51-.56-.3.19-1.18-.14-2.29-.79-4.49,1.58-9.35,1.84-13.84,1.88-.77.53-1.53.96-2.19,1.24,8.94,1.01,17.9,2.62,26.16-1.71Z"/><path class="cls-10" d="m124.54,55.05c-.75-.28-1.48-.55-2.14-.79-2.87-1.02-7.55-1.2-10.41-.4-.48.13-.96.24-1.44.34-8.26,4.33-17.22,2.71-26.16,1.71-.29.12-.58.23-.82.29-1.73.4-3.9.4-4.84,0s-1.86-.58-2.05-.42c-.2.17-.66.57-1.04.89-.38.32-2.43.15-4.55-.38,0,0,0,0-.37.22,17.95,3.64,35.89,1.23,53.84-1.45Z"/><path class="cls-9" d="m131.21,57.77c-1.52-.7-4.2-1.79-6.67-2.72-17.95,2.68-35.89,5.09-53.84,1.45-.23.14-.61.37-1.24.74l-1.61.97c-2.46.08.63.22,6.87.32l48.75.73c6.24.09,9.72-.58,7.74-1.49Z"/></g></svg>