<?xml version="1.0" encoding="UTF-8"?><svg id="_レイヤー_2" xmlns="http://www.w3.org/2000/svg" viewBox="0 0 235.47 43.03"><defs><style>.cls-1{fill:#fff;}.cls-2{fill:#e71f19;}.cls-3{fill:#939393;}.cls-4{fill:#d3d1d1;}.cls-5{fill:#231815;}.cls-6{fill:#373838;}.cls-7{fill:#494747;}.cls-8{fill:#5d5b5a;}</style></defs><g id="_レイヤー_1-2"><rect class="cls-1" width="235.47" height="43.03"/><polygon class="cls-5" points="199.07 35.53 100.16 35.53 103.12 20.03 202.03 20.03 199.07 35.53"/><path class="cls-5" d="m38.22,9.08h-.92l.23-.34h1.12l-.71,3.32h-.37l.64-2.99Z"/><path class="cls-5" d="m39.43,11.94c-.15-.09-.26-.21-.33-.37-.07-.16-.08-.34-.03-.55l.25-1.2c.05-.22.13-.4.26-.57.13-.16.29-.29.48-.38.19-.09.39-.13.6-.13h2.64c.21,0,.38.04.53.13.15.09.26.21.32.37.06.16.07.35.03.57l-.25,1.2c-.05.21-.13.4-.27.55s-.29.28-.48.36c-.19.08-.39.13-.6.13h-2.62c-.21,0-.38-.04-.54-.13Zm3.79-.43c.16-.14.27-.34.32-.6l.22-1.01c.05-.25.02-.45-.09-.6-.11-.14-.31-.21-.59-.21h-2.37c-.29,0-.52.08-.69.23-.17.15-.28.35-.33.58l-.22,1.01c-.05.25-.02.45.1.59.12.14.3.21.53.21h2.45c.27,0,.48-.07.65-.21Z"/><path class="cls-5" d="m44.68,11.71h.58l-.07.36h-.58l.07-.36Z"/><path class="cls-5" d="m46.17,11.72h3.63c.22,0,.4-.05.56-.14.16-.1.26-.22.29-.38l.02-.09c.04-.21,0-.35-.11-.43s-.28-.13-.51-.13h-3.61l.38-1.8h4.58l-.07.35h-4.17l-.23,1.1h3.4c.16,0,.3.04.43.11.13.07.22.17.29.31.06.13.07.29.03.47l-.03.13c-.03.16-.1.3-.22.43s-.25.24-.42.31c-.16.08-.33.12-.5.12h-3.82l.07-.35Z"/><path class="cls-5" d="m52.15,10.76c.13-.12.29-.2.47-.22l3.57-.55c.1-.02.2-.06.28-.13.08-.07.14-.15.17-.26,0,0,0,0,0,0,0,0,0,0,0,0l.02-.08c.03-.13,0-.23-.06-.3s-.17-.11-.32-.11h-3.71l.07-.35h3.84c.12,0,.23.03.33.08s.18.13.23.24.06.22.03.36l-.05.22c-.03.14-.09.27-.19.39-.1.12-.22.21-.36.25-.03,0-.07.01-.1.02l-3.63.56c-.14.02-.26.08-.34.17-.09.09-.14.18-.16.27l-.09.42h4.34l-.07.35h-4.71l.19-.88c.04-.16.12-.31.25-.43Z"/><path class="cls-5" d="m57.81,11.96c-.11-.07-.19-.17-.24-.3-.05-.12-.06-.26-.03-.4l.03-.11c.03-.14.09-.27.19-.39s.2-.21.32-.29c.12-.07.22-.12.31-.12v.05c-.1-.01-.19-.05-.26-.12-.08-.07-.13-.16-.17-.26s-.04-.23-.01-.36l.02-.09c.03-.14.1-.28.21-.4.11-.13.23-.23.38-.3s.31-.11.47-.11h2.98c.16,0,.3.04.42.11s.21.18.26.3c.05.13.06.26.03.4l-.02.09c-.03.13-.08.25-.16.36s-.17.2-.28.26c-.1.07-.21.11-.3.12l.02-.05c.08,0,.17.05.26.12.09.07.15.17.19.29.04.12.05.25.02.39l-.03.11c-.03.14-.09.28-.19.4s-.21.22-.36.29-.29.11-.46.11h-3.19c-.15,0-.28-.04-.39-.11Zm3.96-.38c.13-.1.2-.22.24-.37l.02-.1c.02-.09,0-.18-.04-.26-.05-.08-.12-.15-.2-.2-.09-.05-.18-.08-.28-.08h-2.77c-.11,0-.21.03-.32.08-.11.05-.21.12-.29.2-.08.08-.13.17-.15.27l-.02.1c-.03.15,0,.27.08.37.08.1.21.15.37.15h2.93c.17,0,.31-.05.44-.15Zm.26-1.5c.12-.09.2-.22.24-.39l.02-.07c.02-.09,0-.17-.03-.25s-.1-.14-.19-.19c-.08-.05-.18-.07-.28-.07h-2.71c-.1,0-.21.02-.31.07-.1.05-.19.11-.26.19s-.12.16-.14.25l-.02.07c-.02.09-.02.18.02.26.03.08.09.15.17.2.08.05.17.07.28.07h2.77c.18,0,.33-.05.45-.14Z"/><path class="cls-5" d="m64.47,9.08h-.92l.23-.34h1.12l-.71,3.32h-.37l.64-2.99Z"/><path class="cls-5" d="m68.29,8.36h.35l-3.57,4.15h-.34l3.56-4.15Z"/><path class="cls-5" d="m68.42,11.78l3.82-2.13v.09s-3.38,0-3.38,0l.08-.36h4.03l-.06.3-3.84,2.12v-.08s3.41,0,3.41,0l-.07.36h-4.04l.06-.29Z"/><path class="cls-5" d="m73.71,11.96c-.13-.07-.23-.18-.29-.32-.06-.14-.07-.31-.02-.5l.17-.81c.06-.3.2-.53.42-.7.22-.17.48-.26.79-.26h2.28c.3,0,.53.08.67.25.14.17.19.4.12.7l-.12.56h-3.94l.07-.35h3.56l.03-.14c.05-.21.02-.38-.07-.49-.1-.12-.25-.17-.47-.17h-2.14c-.22,0-.4.06-.54.19-.14.12-.23.29-.27.49l-.15.69c-.02.1-.02.2.02.29.03.1.09.17.18.23.09.06.2.09.34.09h3.11l-.07.36h-3.18c-.19,0-.35-.04-.48-.11Z"/><path class="cls-5" d="m78.95,9.38h.38l-.05.24.05-.05c.06-.05.13-.09.19-.12.07-.03.13-.05.2-.07.07-.01.14-.02.22-.02h2.26c.3,0,.53.08.67.25.14.17.18.4.12.71l-.37,1.74h-.38l.35-1.67c.05-.22.02-.38-.07-.5-.09-.11-.25-.17-.47-.17h-2.13c-.22,0-.41.06-.55.19-.14.12-.23.28-.28.48l-.36,1.67h-.38l.57-2.68Z"/><path class="cls-5" d="m83.82,11.83c-.15-.16-.2-.39-.14-.68l.17-.81c.06-.3.2-.53.42-.7.22-.17.48-.26.79-.26h2.28c.3,0,.52.08.67.25.15.17.19.41.12.71l-.17.81c-.06.28-.2.5-.42.67-.22.17-.47.25-.76.25h-2.3c-.29,0-.5-.08-.66-.24Zm3.34-.21c.11-.06.21-.14.28-.24.07-.09.12-.19.14-.28l.15-.69c.05-.21.02-.38-.07-.5-.1-.12-.25-.17-.47-.17h-2.14c-.22,0-.4.06-.54.18-.14.12-.23.28-.27.48l-.15.69c-.02.1-.01.2.02.29.03.09.09.17.18.23.09.06.2.09.34.09h2.17c.13,0,.26-.03.37-.09Z"/><path class="cls-5" d="m88.94,11.83c-.15-.16-.2-.39-.14-.68l.17-.82c.06-.3.2-.53.42-.7s.48-.26.79-.26h2.89l.14-.66.41-.12-.74,3.48h-.38l.06-.27c-.06.07-.15.13-.27.19s-.24.08-.37.08h-2.34c-.29,0-.5-.08-.66-.24Zm3.29-.21c.13-.06.24-.14.33-.25s.15-.21.17-.32l.27-1.33h-2.84c-.22,0-.4.06-.54.18-.14.12-.23.29-.28.49l-.15.7c-.02.1-.01.2.02.29.03.09.09.17.18.23.09.06.2.09.34.09h2.14c.11,0,.23-.03.36-.09Z"/><path class="cls-5" d="m94.12,11.83c-.15-.16-.2-.39-.14-.68l.17-.81c.06-.3.2-.53.42-.7.22-.17.48-.26.79-.26h2.28c.3,0,.52.08.67.25.15.17.19.41.12.71l-.17.81c-.06.28-.2.5-.42.67-.22.17-.47.25-.76.25h-2.3c-.29,0-.5-.08-.66-.24Zm3.34-.21c.11-.06.21-.14.28-.24.07-.09.12-.19.14-.28l.15-.69c.05-.21.02-.38-.07-.5-.1-.12-.25-.17-.47-.17h-2.14c-.22,0-.4.06-.54.18-.14.12-.23.28-.27.48l-.15.69c-.02.1-.01.2.02.29.03.09.09.17.18.23.09.06.2.09.34.09h2.17c.13,0,.26-.03.37-.09Z"/><path class="cls-5" d="m99.04,11.71h.58l-.07.36h-.58l.07-.36Z"/><path class="cls-5" d="m100.9,11.96c-.11-.07-.19-.17-.24-.3-.05-.12-.06-.26-.03-.4l.03-.11c.03-.14.09-.27.19-.39s.2-.21.32-.29c.12-.07.22-.12.31-.12v.05c-.1-.01-.19-.05-.26-.12-.08-.07-.13-.16-.17-.26s-.04-.23-.01-.36l.02-.09c.03-.14.1-.28.21-.4.11-.13.23-.23.38-.3s.31-.11.47-.11h2.98c.16,0,.3.04.42.11s.21.18.26.3c.05.13.06.26.03.4l-.02.09c-.03.13-.08.25-.16.36s-.17.2-.28.26c-.1.07-.21.11-.3.12l.02-.05c.08,0,.17.05.26.12.09.07.15.17.19.29.04.12.05.25.02.39l-.03.11c-.03.14-.09.28-.19.4s-.21.22-.36.29-.29.11-.46.11h-3.19c-.15,0-.28-.04-.39-.11Zm3.96-.38c.13-.1.2-.22.24-.37l.02-.1c.02-.09,0-.18-.04-.26-.05-.08-.12-.15-.2-.2-.09-.05-.18-.08-.28-.08h-2.77c-.11,0-.21.03-.32.08-.11.05-.21.12-.29.2-.08.08-.13.17-.15.27l-.02.1c-.03.15,0,.27.08.37.08.1.21.15.37.15h2.93c.17,0,.31-.05.44-.15Zm.26-1.5c.12-.09.2-.22.24-.39l.02-.07c.02-.09,0-.17-.03-.25s-.1-.14-.19-.19c-.08-.05-.18-.07-.28-.07h-2.71c-.1,0-.21.02-.31.07-.1.05-.19.11-.26.19s-.12.16-.14.25l-.02.07c-.02.09-.02.18.02.26.03.08.09.15.17.2.08.05.17.07.28.07h2.77c.18,0,.33-.05.45-.14Z"/><path class="cls-5" d="m107.56,9.08h-.92l.23-.34h1.12l-.71,3.32h-.37l.64-2.99Z"/><path class="cls-5" d="m108.11,11.72h3.85c.16,0,.31-.05.43-.15.12-.1.2-.22.24-.37l.02-.1c.02-.09,0-.19-.04-.27-.04-.08-.11-.15-.2-.2-.09-.05-.19-.07-.29-.07h-2.92l.08-.36h2.92c.11.01.22-.02.33-.08.11-.06.2-.13.28-.22s.12-.18.14-.27l.02-.08c.03-.13,0-.25-.09-.33-.09-.09-.21-.13-.37-.13h-3.83l.07-.34h3.97c.16,0,.3.03.41.1.11.07.19.16.24.28.05.12.05.25.02.39l-.02.08c-.03.13-.09.25-.18.37-.09.12-.19.21-.31.29s-.22.12-.32.13l.02-.05c.09,0,.17.05.26.12.08.07.15.17.19.29s.05.25.02.39l-.03.11c-.03.14-.09.27-.2.4s-.23.22-.37.3c-.14.07-.29.11-.44.11h-3.98l.07-.34Z"/><path class="cls-5" d="m118.93,9.01c.15.17.19.42.12.73l-.27,1.25c-.05.22-.13.4-.26.57-.13.16-.29.29-.48.38-.19.09-.39.13-.6.13h-3.48l.07-.35h3.35c.29,0,.52-.08.69-.23.17-.15.28-.35.33-.58l.22-1.05c.06-.25.04-.44-.06-.57-.09-.12-.26-.19-.49-.19h-2.61c-.26,0-.45.04-.58.12s-.22.22-.25.4l-.02.07c-.04.18,0,.32.08.42s.26.15.5.15h3.47l-.07.35h-3.66c-.29,0-.5-.08-.63-.24-.13-.16-.17-.37-.12-.62v-.05c.08-.31.22-.55.45-.72.22-.16.49-.24.8-.24h2.8c.31,0,.54.09.69.26Z"/><path class="cls-5" d="m119.32,11.72h3.85c.16,0,.31-.05.43-.15.12-.1.2-.22.24-.37l.02-.1c.02-.09,0-.19-.04-.27-.04-.08-.11-.15-.2-.2-.09-.05-.19-.07-.29-.07h-2.92l.08-.36h2.92c.11.01.22-.02.33-.08.11-.06.2-.13.28-.22s.12-.18.14-.27l.02-.08c.03-.13,0-.25-.09-.33-.09-.09-.21-.13-.37-.13h-3.83l.07-.34h3.97c.16,0,.3.03.41.1.11.07.19.16.24.28.05.12.05.25.02.39l-.02.08c-.03.13-.09.25-.18.37-.09.12-.19.21-.31.29s-.22.12-.32.13l.02-.05c.09,0,.17.05.26.12.08.07.15.17.19.29s.05.25.02.39l-.03.11c-.03.14-.09.27-.2.4s-.23.22-.37.3c-.14.07-.29.11-.44.11h-3.98l.07-.34Z"/><path class="cls-5" d="m125.34,10.76c.13-.12.29-.2.47-.22l3.57-.55c.1-.02.2-.06.28-.13.08-.07.14-.15.17-.26,0,0,0,0,0,0,0,0,0,0,0,0l.02-.08c.03-.13,0-.23-.06-.3s-.17-.11-.32-.11h-3.71l.07-.35h3.84c.12,0,.23.03.33.08s.18.13.23.24.06.22.03.36l-.05.22c-.03.14-.09.27-.19.39-.1.12-.22.21-.36.25-.03,0-.07.01-.1.02l-3.63.56c-.14.02-.26.08-.34.17-.09.09-.14.18-.16.27l-.09.42h4.34l-.07.35h-4.71l.19-.88c.04-.16.12-.31.25-.43Z"/><path class="cls-5" d="m130.9,11.8c-.15-.17-.19-.42-.12-.73l.27-1.25c.05-.22.13-.4.26-.57.13-.16.29-.29.48-.38.19-.09.39-.13.6-.13h3.48l-.07.35h-3.35c-.29,0-.52.08-.69.23-.17.15-.28.35-.33.58l-.22,1.05c-.06.25-.04.45.06.57s.26.19.49.19h2.61c.26,0,.45-.04.58-.12s.22-.22.25-.4l.02-.07c.04-.18,0-.32-.08-.42s-.26-.15-.5-.15h-3.47l.07-.35h3.66c.29,0,.5.08.63.24.13.16.17.37.12.62v.05c-.08.32-.22.55-.45.72-.22.16-.49.24-.8.24h-2.8c-.31,0-.54-.09-.69-.26Z"/><path class="cls-5" d="m36.37,21.75h1.34l-2.06,9.73h13.65l-.24,1.14h-14.99l2.31-10.88Z"/><path class="cls-5" d="m52.47,32.4c-.34-.15-.6-.39-.77-.71-.17-.32-.21-.74-.1-1.25l.14-.62c.08-.4.26-.78.54-1.13.28-.35.62-.63,1.04-.84.42-.21.86-.32,1.34-.32h10.34l.16-.73c.12-.58.02-1.02-.29-1.34-.31-.31-.75-.47-1.34-.47h-10.18l.24-1.16h10.37c.96,0,1.66.23,2.1.7.44.47.57,1.13.38,1.99l-1.3,6.11h-1.23l.17-.82c-.13.22-.37.41-.74.57-.36.16-.77.24-1.22.24h-8.55c-.38,0-.74-.08-1.08-.23Zm10.73-1.22c.37-.19.67-.43.89-.71.23-.28.37-.57.42-.86l.19-.92h-10.01c-.45,0-.84.12-1.16.37-.32.25-.53.56-.61.93l-.04.23c-.09.41-.02.71.22.93.24.21.55.32.95.32h7.89c.46,0,.88-.1,1.25-.29Z"/><path class="cls-5" d="m69.95,23.84h1.25l-.17.8.17-.16c.21-.16.42-.29.63-.4.21-.1.44-.18.67-.23.23-.05.47-.07.73-.07h7.41c.99,0,1.72.27,2.19.82.46.55.59,1.32.38,2.32l-1.21,5.69h-1.25l1.16-5.46c.15-.71.08-1.25-.23-1.62s-.81-.56-1.53-.56h-6.97c-.73,0-1.32.2-1.79.61-.46.41-.76.93-.9,1.58l-1.16,5.46h-1.25l1.87-8.78Z"/><path class="cls-5" d="m85.86,31.83c-.5-.53-.65-1.27-.45-2.23l.57-2.67c.21-.97.67-1.74,1.37-2.3.71-.56,1.56-.84,2.57-.84h9.47l.47-2.17,1.34-.4-2.43,11.4h-1.23l.19-.88c-.19.23-.47.44-.87.62-.39.18-.79.27-1.2.27h-7.65c-.94,0-1.65-.26-2.15-.79Zm10.77-.68c.42-.2.78-.47,1.08-.81.31-.33.49-.69.56-1.06l.87-4.34h-9.28c-.73,0-1.32.2-1.77.6-.45.4-.75.93-.9,1.61l-.49,2.29c-.07.32-.05.64.06.95.11.31.31.56.59.76s.65.3,1.1.3h6.99c.37,0,.76-.1,1.18-.3Z"/><path class="cls-2" d="m102.74,31.46h11.17c.32,0,.61-.08.87-.25.25-.17.42-.4.49-.68l.09-.38c.05-.22,0-.42-.11-.59-.12-.17-.36-.28-.7-.31l-9.83-.95c-.43-.05-.75-.23-.98-.55s-.28-.74-.17-1.28l.12-.61c.14-.64.45-1.13.94-1.49.49-.36,1.05-.54,1.7-.54h11.29l-.24,1.16-11.14.02c-.37,0-.67.08-.89.23s-.37.38-.44.68l-.07.36c-.05.2-.01.38.1.56.11.17.31.28.62.31l9.91.97c.42.04.74.24.97.61s.29.8.19,1.28l-.14.66c-.07.35-.23.67-.49.96-.26.29-.58.53-.95.71-.37.18-.74.27-1.11.27h-11.41l.24-1.16Z"/><path class="cls-2" d="m119.74,31.83c-.5-.53-.65-1.27-.45-2.23l.56-2.64c.21-.97.67-1.74,1.38-2.3.71-.56,1.57-.84,2.58-.84h9.92l-.24,1.16h-9.73c-.73,0-1.32.2-1.78.6-.46.4-.75.93-.89,1.59l-.49,2.27c-.07.32-.05.64.06.95.11.31.31.56.59.76s.65.3,1.1.3h9.82l-.24,1.16h-10.03c-.94,0-1.65-.26-2.15-.79Z"/><path class="cls-2" d="m135.34,32.4c-.34-.15-.6-.39-.77-.71-.17-.32-.21-.74-.1-1.25l.14-.62c.08-.4.26-.78.54-1.13.28-.35.62-.63,1.04-.84.42-.21.86-.32,1.34-.32h10.34l.16-.73c.12-.58.02-1.02-.29-1.34-.31-.31-.75-.47-1.34-.47h-10.18l.24-1.16h10.37c.96,0,1.66.23,2.1.7.44.47.57,1.13.38,1.99l-1.3,6.11h-1.23l.17-.82c-.13.22-.37.41-.74.57-.36.16-.77.24-1.22.24h-8.55c-.38,0-.74-.08-1.08-.23Zm10.73-1.22c.37-.19.67-.43.89-.71.23-.28.37-.57.42-.86l.19-.92h-10.01c-.45,0-.84.12-1.16.37-.32.25-.53.56-.61.93l-.04.23c-.09.41-.02.71.22.93.24.21.55.32.95.32h7.89c.46,0,.88-.1,1.25-.29Z"/><path class="cls-2" d="m152.8,23.86h1.25l-.17.83c.32-.31.67-.53,1.02-.67.36-.13.76-.2,1.2-.2h7.44c.99,0,1.73.28,2.2.83.47.55.61,1.32.4,2.31l-.55,2.64c-.13.61-.38,1.15-.76,1.6-.38.46-.84.81-1.38,1.05s-1.11.36-1.73.36h-9.52l-.49,2.32-1.35.45,2.45-11.54Zm10.17,7.28c.38-.2.68-.46.92-.76.24-.31.39-.62.46-.93l.49-2.25c.15-.71.07-1.25-.25-1.62-.32-.38-.83-.56-1.55-.56h-7.01c-.73,0-1.32.2-1.78.6-.46.4-.75.93-.89,1.59l-.9,4.25h9.3c.44,0,.85-.1,1.22-.3Z"/><path class="cls-2" d="m169.38,32.28c-.44-.23-.75-.58-.95-1.03s-.22-1-.08-1.64l.56-2.64c.21-.97.67-1.74,1.38-2.3.71-.56,1.57-.84,2.58-.84h7.46c.99,0,1.73.27,2.2.82.47.54.61,1.31.4,2.29l-.38,1.82h-12.91l.24-1.15h11.64l.09-.45c.15-.69.07-1.23-.24-1.61-.31-.38-.83-.56-1.54-.56h-7.01c-.73,0-1.32.2-1.78.61-.46.41-.75.94-.89,1.6l-.49,2.25c-.07.32-.05.64.05.95.1.31.3.57.59.76.29.2.66.29,1.11.29h10.18l-.24,1.16h-10.39c-.61,0-1.14-.12-1.58-.35Z"/><path class="cls-2" d="m186.52,23.86h1.25l-.17.83c.32-.31.67-.53,1.02-.67.36-.13.76-.2,1.2-.2h9l-.24,1.16h-8.81c-.73,0-1.32.2-1.79.61-.46.41-.76.94-.9,1.6l-1.16,5.43h-1.25l1.86-8.76Z"/><path class="cls-4" d="m152.7,9.22c-3.24-2.63-8.14-2.21-10.89.93-.39.45-.82.89-1.26,1.32,4.05-.5,8.33-1.44,12.43-2.04-.09-.07-.19-.14-.28-.22Z"/><path class="cls-3" d="m152.98,9.44c-4.1.6-8.38,1.54-12.43,2.04-1.21,1.19-2.58,2.3-3.92,3.22,6.49-.06,13.51-.43,20.01-2.72-1.11-.65-2.38-1.52-3.66-2.54Z"/><path class="cls-8" d="m171.28,14.02c-3.43.68-6.66.69-7.7-.09-1.25-.93-2.88-1.3-3.63-.81-.43.28-1.7-.2-3.31-1.14-6.5,2.29-13.52,2.66-20.01,2.72-1.12.77-2.21,1.39-3.16,1.79,12.92,1.45,25.88,3.78,37.82-2.47Z"/><path class="cls-7" d="m191.52,15.25c-1.08-.41-2.14-.8-3.1-1.14-4.14-1.47-10.92-1.73-15.05-.58-.7.19-1.39.35-2.09.49-11.94,6.25-24.89,3.92-37.82,2.47-.43.18-.83.33-1.19.41-2.5.57-5.64.57-6.99,0s-2.68-.85-2.97-.6c-.28.24-.96.82-1.51,1.28-.55.46-3.51.21-6.58-.55,0,0,0,0-.53.32,25.94,5.26,51.88,1.78,77.83-2.09Z"/><path class="cls-6" d="m201.16,19.18c-2.2-1.01-6.08-2.59-9.64-3.93-25.94,3.87-51.88,7.35-77.83,2.09-.34.2-.89.53-1.79,1.08l-2.33,1.4c-3.55.12.92.32,9.93.46l70.47,1.06c9.01.14,14.05-.83,11.19-2.15Z"/></g></svg>