<?xml version="1.0" encoding="UTF-8"?><svg id="_レイヤー_2" xmlns="http://www.w3.org/2000/svg" xmlns:xlink="http://www.w3.org/1999/xlink" viewBox="0 0 234.33 89.18"><defs><style>.cls-1{opacity:.83;}.cls-1,.cls-2,.cls-3,.cls-4,.cls-5{fill:none;}.cls-2{opacity:.85;}.cls-3{stroke-miterlimit:3;stroke-width:10.26px;}.cls-3,.cls-4{stroke:#fff;}.cls-6{fill:#fff;}.cls-7{fill:#989898;}.cls-8{fill:#c2c2c2;}.cls-9{fill:#b3b3b3;}.cls-10{fill:#d5d5d5;}.cls-11{fill:url(#_名称未設定グラデーション_14-14);}.cls-12{fill:url(#_名称未設定グラデーション_14-13);}.cls-13{fill:url(#_名称未設定グラデーション_14-15);}.cls-14{fill:url(#_名称未設定グラデーション_14-10);}.cls-15{fill:url(#_名称未設定グラデーション_14-12);}.cls-16{fill:url(#_名称未設定グラデーション_14-11);}.cls-17{fill:url(#_名称未設定グラデーション_14-4);}.cls-18{fill:url(#_名称未設定グラデーション_14-8);}.cls-19{fill:url(#_名称未設定グラデーション_14-5);}.cls-20{fill:url(#_名称未設定グラデーション_14-6);}.cls-21{fill:url(#_名称未設定グラデーション_14-9);}.cls-22{fill:url(#_名称未設定グラデーション_14-7);}.cls-23{fill:url(#_名称未設定グラデーション_14-3);}.cls-24{fill:url(#_名称未設定グラデーション_14-2);}.cls-4{stroke-linecap:round;stroke-linejoin:round;stroke-width:2px;}.cls-25{fill:url(#_名称未設定グラデーション_14);}.cls-5{stroke:#231815;stroke-miterlimit:2;stroke-width:6.84px;}.cls-26{fill:url(#_名称未設定グラデーション_3);}.cls-27{fill:url(#_名称未設定グラデーション_2);}</style><linearGradient id="_名称未設定グラデーション_14" x1="44.6" y1="42.33" x2="83.03" y2="82.46" gradientUnits="userSpaceOnUse"><stop offset="0" stop-color="#ee87b4"/><stop offset="1" stop-color="#00b9ef"/></linearGradient><linearGradient id="_名称未設定グラデーション_14-2" x1="10.78" y1="10.94" x2="64.78" y2="67.33" xlink:href="#_名称未設定グラデーション_14"/><linearGradient id="_名称未設定グラデーション_14-3" x1="2.83" y1="11.94" x2="20.43" y2="11.94" xlink:href="#_名称未設定グラデーション_14"/><linearGradient id="_名称未設定グラデーション_14-4" x1="22.9" y1="29.86" x2="32.36" y2="29.86" xlink:href="#_名称未設定グラデーション_14"/><linearGradient id="_名称未設定グラデーション_14-5" x1="1.95" y1="49.83" x2="11.41" y2="49.83" xlink:href="#_名称未設定グラデーション_14"/><linearGradient id="_名称未設定グラデーション_14-6" x1="43.89" y1="39.85" x2="53.35" y2="39.85" xlink:href="#_名称未設定グラデーション_14"/><linearGradient id="_名称未設定グラデーション_14-7" x1="54.37" y1="49.83" x2="63.83" y2="49.83" xlink:href="#_名称未設定グラデーション_14"/><linearGradient id="_名称未設定グラデーション_3" x1="36.11" y1="69.1" x2="85.31" y2="51.82" gradientUnits="userSpaceOnUse"><stop offset="0" stop-color="#ee87b4"/><stop offset="1" stop-color="#00b9ef" stop-opacity="0"/></linearGradient><linearGradient id="_名称未設定グラデーション_2" x1="1.35" y1="48.45" x2="82.83" y2="48.45" gradientUnits="userSpaceOnUse"><stop offset="0" stop-color="#ee87b4"/><stop offset="1" stop-color="#00b9ef" stop-opacity=".2"/></linearGradient><linearGradient id="_名称未設定グラデーション_14-8" x1="107.5" y1="88.3" x2="220.28" y2="35.7" xlink:href="#_名称未設定グラデーション_14"/><linearGradient id="_名称未設定グラデーション_14-9" x1="107.5" y1="88.3" x2="220.28" y2="35.7" xlink:href="#_名称未設定グラデーション_14"/><linearGradient id="_名称未設定グラデーション_14-10" x1="107.5" y1="88.3" x2="220.28" y2="35.7" xlink:href="#_名称未設定グラデーション_14"/><linearGradient id="_名称未設定グラデーション_14-11" x1="107.5" y1="88.3" x2="220.28" y2="35.7" xlink:href="#_名称未設定グラデーション_14"/><linearGradient id="_名称未設定グラデーション_14-12" x1="107.5" y1="88.3" x2="220.28" y2="35.7" xlink:href="#_名称未設定グラデーション_14"/><linearGradient id="_名称未設定グラデーション_14-13" x1="107.5" y1="88.3" x2="220.28" y2="35.7" xlink:href="#_名称未設定グラデーション_14"/><linearGradient id="_名称未設定グラデーション_14-14" x1="107.5" y1="88.3" x2="220.28" y2="35.7" xlink:href="#_名称未設定グラデーション_14"/><linearGradient id="_名称未設定グラデーション_14-15" x1="107.5" y1="88.3" x2="220.28" y2="35.7" xlink:href="#_名称未設定グラデーション_14"/></defs><g id="_レイヤー_2-2"><g class="cls-2"><path class="cls-6" d="m60,34.85c-.4,0-.97.14-.97.14l-20.12,6.93s-.86.45-1.28,1.02-.39,1.21-.39,1.21v28.4s-.1.68.16,1.13.59.58.59.58l20.36,8.58s.71.26,1.64.26h.05c.93,0,1.64-.26,1.64-.26l20.36-8.58s.33-.13.59-.58.16-1.13.16-1.13v-28.4s.03-.65-.39-1.21-1.28-1.02-1.28-1.02l-20.12-6.93s-.57-.14-.97-.14h-.05Z"/><path class="cls-25" d="m60.06,83.39h-.05c-.97,0-1.71-.27-1.74-.28l-20.38-8.58s-.44-.18-.74-.71c-.28-.49-.22-1.15-.2-1.3v-28.38s-.03-.75.45-1.39c.46-.61,1.35-1.08,1.39-1.1l.04-.02,20.11-6.93c.05-.01.64-.15,1.07-.15h.05c.43,0,1.02.14,1.04.15l20.19,6.96s.93.49,1.39,1.1c.48.64.45,1.38.45,1.41v28.37c.02.15.08.81-.2,1.3-.3.53-.7.7-.75.71l-20.35,8.57s-.78.28-1.76.28Zm-1.57-.84s.67.23,1.52.23h.05c.86,0,1.53-.24,1.53-.24l20.35-8.57s.25-.11.44-.45c.17-.29.15-.77.12-.93v-.04s0-28.4,0-28.4c0-.02.02-.56-.33-1.03-.34-.46-1.04-.85-1.16-.92l-20.09-6.92h0s-.52-.12-.87-.12h-.05c-.3,0-.75.09-.9.13l-20.06,6.91c-.12.07-.82.46-1.16.92-.34.46-.33,1.01-.33,1.01v28.44s0,.02,0,.02c-.02.16-.04.64.12.93.19.34.43.44.44.45l20.37,8.58h0Z"/><g class="cls-1"><path class="cls-9" d="m71.15,47.04l-4.33-1.5c-.33-.12-.36-.31-.05-.42l3.74-1.46c.29-.11.8-.12,1.13,0l4.34,1.42c.35.12.41.31.12.43l-3.75,1.54c-.3.12-.84.13-1.19,0Z"/><path class="cls-9" d="m76.36,44.93l-4.24-1.39c-.33-.11-.35-.29-.05-.42l3.72-1.51c.29-.12.79-.13,1.12-.03l4.26,1.31c.35.11.39.29.11.42l-3.73,1.6c-.3.13-.83.14-1.18.03Z"/><path class="cls-9" d="m65.69,49.27l-4.31-1.61c-.33-.12-.34-.33-.02-.45l3.95-1.54c.31-.12.83-.12,1.16,0l4.33,1.51c.35.12.39.33.08.45l-3.97,1.63c-.32.13-.87.13-1.22,0Z"/><path class="cls-9" d="m59.9,51.64l-4.27-1.72c-.33-.13-.32-.35.02-.48l4.18-1.63c.32-.13.86-.13,1.19,0l4.3,1.61c.35.13.37.35.05.48l-4.21,1.73c-.34.14-.91.14-1.26,0Z"/><path class="cls-9" d="m65.67,45l-4.28-1.51c-.33-.12-.35-.31-.05-.42l3.74-1.43c.29-.11.8-.11,1.13,0l4.3,1.42c.35.12.4.31.11.42l-3.75,1.52c-.3.12-.84.12-1.19,0Z"/><path class="cls-9" d="m70.88,42.92l-4.2-1.4c-.32-.11-.34-.29-.04-.41l3.72-1.49c.29-.12.79-.13,1.11-.03l4.21,1.31c.34.11.39.29.1.42l-3.73,1.58c-.3.13-.83.14-1.17.02Z"/><path class="cls-9" d="m60.2,47.2l-4.26-1.61c-.33-.12-.33-.33-.01-.45l3.95-1.52c.31-.12.82-.12,1.15,0l4.28,1.52c.35.12.38.33.08.45l-3.97,1.61c-.32.13-.87.13-1.22,0Z"/><path class="cls-9" d="m54.41,49.54l-4.22-1.72c-.32-.13-.31-.35.03-.48l4.18-1.6c.32-.12.85-.12,1.18,0l4.26,1.62c.35.13.37.35.04.48l-4.21,1.71c-.34.14-.9.14-1.25,0Z"/><path class="cls-9" d="m60.19,42.96l-4.24-1.51c-.33-.12-.34-.31-.04-.42l3.74-1.41c.29-.11.79-.11,1.12,0l4.25,1.43c.35.12.39.31.1.42l-3.75,1.5c-.3.12-.84.12-1.18,0Z"/><path class="cls-9" d="m65.4,40.91l-4.15-1.41c-.32-.11-.33-.29-.03-.41l3.72-1.47c.29-.11.78-.12,1.11-.02l4.17,1.32c.34.11.38.29.09.41l-3.74,1.55c-.3.13-.83.13-1.17.02Z"/><path class="cls-9" d="m54.72,45.13l-4.21-1.62c-.32-.12-.33-.32,0-.45l3.95-1.49c.31-.12.82-.11,1.15,0l4.23,1.52c.34.12.38.33.07.45l-3.97,1.59c-.32.13-.87.13-1.21,0Z"/><path class="cls-9" d="m48.92,47.43l-4.17-1.73c-.32-.13-.3-.35.03-.47l4.18-1.58c.32-.12.85-.12,1.17,0l4.21,1.62c.34.13.36.35.03.48l-4.21,1.68c-.34.14-.9.13-1.24,0Z"/><path class="cls-9" d="m54.7,40.92l-4.19-1.52c-.32-.12-.34-.3-.03-.42l3.74-1.39c.29-.11.79-.11,1.11,0l4.21,1.43c.34.12.39.31.1.42l-3.76,1.48c-.3.12-.83.12-1.17,0Z"/><path class="cls-9" d="m59.92,38.9l-4.11-1.41c-.32-.11-.33-.29-.03-.41l3.72-1.45c.29-.11.78-.12,1.1-.02l4.13,1.33c.34.11.38.29.09.41l-3.74,1.53c-.3.12-.83.13-1.16.02Z"/><path class="cls-9" d="m49.23,43.06l-4.16-1.62c-.32-.12-.32-.32,0-.44l3.95-1.47c.31-.11.82-.11,1.14,0l4.19,1.53c.34.12.37.33.06.45l-3.98,1.56c-.32.13-.86.12-1.2-.01Z"/><path class="cls-9" d="m43.43,45.32l-4.12-1.73c-.32-.13-.3-.34.04-.47l4.18-1.56c.32-.12.85-.12,1.17,0l4.16,1.63c.34.13.35.35.03.47l-4.21,1.66c-.34.13-.9.13-1.23-.01Z"/><path class="cls-7" d="m72.31,54.5l3.87-1.58c.31-.12.56-.57.56-1v-5.37c0-.43-.25-.67-.56-.55l-3.87,1.58c-.31.12-.56.57-.56,1v5.37c0,.43.25.67.56.55Z"/><path class="cls-7" d="m77.66,52.35l3.87-1.58c.31-.12.56-.57.56-1v-5.37c0-.43-.25-.67-.56-.55l-3.87,1.58c-.31.12-.56.57-.56,1v5.37c0,.43.25.67.56.55Z"/><path class="cls-7" d="m66.79,56.75l3.87-1.58c.31-.12.56-.57.56-1v-5.37c0-.43-.25-.67-.56-.55l-3.87,1.58c-.31.12-.56.57-.56,1v5.37c0,.43.25.67.56.55Z"/><path class="cls-7" d="m61.27,59l3.87-1.58c.31-.12.56-.57.56-1v-5.37c0-.43-.25-.67-.56-.55l-3.87,1.58c-.31.12-.56.57-.56,1v5.37c0,.43.25.67.56.55Z"/><path class="cls-7" d="m72.31,62.1l3.87-1.58c.31-.12.56-.57.56-1v-5.37c0-.43-.25-.67-.56-.55l-3.87,1.58c-.31.12-.56.57-.56,1v5.37c0,.43.25.67.56.55Z"/><path class="cls-7" d="m77.66,59.95l3.87-1.58c.31-.12.56-.57.56-1v-5.37c0-.43-.25-.67-.56-.55l-3.87,1.58c-.31.12-.56.57-.56,1v5.37c0,.43.25.67.56.55Z"/><path class="cls-7" d="m66.79,64.35l3.87-1.58c.31-.12.56-.57.56-1v-5.37c0-.43-.25-.67-.56-.55l-3.87,1.58c-.31.12-.56.57-.56,1v5.37c0,.43.25.67.56.55Z"/><path class="cls-7" d="m61.27,66.6l3.87-1.58c.31-.12.56-.57.56-1v-5.37c0-.43-.25-.67-.56-.55l-3.87,1.58c-.31.12-.56.57-.56,1v5.37c0,.43.25.67.56.55Z"/><path class="cls-7" d="m72.31,69.71l3.87-1.58c.31-.12.56-.57.56-1v-5.37c0-.43-.25-.67-.56-.55l-3.87,1.58c-.31.12-.56.57-.56,1v5.37c0,.43.25.67.56.55Z"/><path class="cls-7" d="m77.66,67.56l3.87-1.58c.31-.12.56-.57.56-1v-5.37c0-.43-.25-.67-.56-.55l-3.87,1.58c-.31.12-.56.57-.56,1v5.37c0,.43.25.67.56.55Z"/><path class="cls-7" d="m66.79,71.96l3.87-1.58c.31-.12.56-.57.56-1v-5.37c0-.43-.25-.67-.56-.55l-3.87,1.58c-.31.12-.56.57-.56,1v5.37c0,.43.25.67.56.55Z"/><path class="cls-7" d="m61.27,74.21l3.87-1.58c.31-.12.56-.57.56-1v-5.37c0-.43-.25-.67-.56-.55l-3.87,1.58c-.31.12-.56.57-.56,1v5.37c0,.43.25.67.56.55Z"/><path class="cls-7" d="m72.31,77.31l3.87-1.58c.31-.12.56-.57.56-1v-5.37c0-.43-.25-.67-.56-.55l-3.87,1.58c-.31.12-.56.57-.56,1v5.37c0,.43.25.67.56.55Z"/><path class="cls-7" d="m77.66,75.16l3.87-1.58c.31-.12.56-.57.56-1v-5.37c0-.43-.25-.67-.56-.55l-3.87,1.58c-.31.12-.56.57-.56,1v5.37c0,.43.25.67.56.55Z"/><path class="cls-7" d="m66.79,79.56l3.87-1.58c.31-.12.56-.57.56-1v-5.37c0-.43-.25-.67-.56-.55l-3.87,1.58c-.31.12-.56.57-.56,1v5.37c0,.43.25.67.56.55Z"/><path class="cls-7" d="m61.27,81.81l3.87-1.58c.31-.12.56-.57.56-1v-5.37c0-.43-.25-.67-.56-.55l-3.87,1.58c-.31.12-.56.57-.56,1v5.37c0,.43.25.67.56.55Z"/><path class="cls-7" d="m48.04,54.31l-3.87-1.58c-.31-.12-.56-.57-.56-1v-5.37c0-.43.25-.67.56-.55l3.87,1.58c.31.12.56.57.56,1v5.37c0,.43-.25.67-.56.55Z"/><path class="cls-7" d="m42.7,52.15l-3.87-1.58c-.31-.12-.56-.57-.56-1v-5.37c0-.43.25-.67.56-.55l3.87,1.58c.31.12.56.57.56,1v5.37c0,.43-.25.67-.56.55Z"/><path class="cls-7" d="m53.57,56.56l-3.87-1.58c-.31-.12-.56-.57-.56-1v-5.37c0-.43.25-.67.56-.55l3.87,1.58c.31.12.56.57.56,1v5.37c0,.43-.25.67-.56.55Z"/><path class="cls-7" d="m59.09,58.8l-3.87-1.58c-.31-.12-.56-.57-.56-1v-5.37c0-.43.25-.67.56-.55l3.87,1.58c.31.12.56.57.56,1v5.37c0,.43-.25.67-.56.55Z"/><path class="cls-7" d="m48.04,61.91l-3.87-1.58c-.31-.12-.56-.57-.56-1v-5.37c0-.43.25-.67.56-.55l3.87,1.58c.31.12.56.57.56,1v5.37c0,.43-.25.67-.56.55Z"/><path class="cls-7" d="m42.7,59.76l-3.87-1.58c-.31-.12-.56-.57-.56-1v-5.37c0-.43.25-.67.56-.55l3.87,1.58c.31.12.56.57.56,1v5.37c0,.43-.25.67-.56.55Z"/><path class="cls-7" d="m53.57,64.16l-3.87-1.58c-.31-.12-.56-.57-.56-1v-5.37c0-.43.25-.67.56-.55l3.87,1.58c.31.12.56.57.56,1v5.37c0,.43-.25.67-.56.55Z"/><path class="cls-7" d="m59.09,66.41l-3.87-1.58c-.31-.12-.56-.57-.56-1v-5.37c0-.43.25-.67.56-.55l3.87,1.58c.31.12.56.57.56,1v5.37c0,.43-.25.67-.56.55Z"/><path class="cls-7" d="m48.04,69.52l-3.87-1.58c-.31-.12-.56-.57-.56-1v-5.37c0-.43.25-.67.56-.55l3.87,1.58c.31.12.56.57.56,1v5.37c0,.43-.25.67-.56.55Z"/><path class="cls-7" d="m42.7,67.36l-3.87-1.58c-.31-.12-.56-.57-.56-1v-5.37c0-.43.25-.67.56-.55l3.87,1.58c.31.12.56.57.56,1v5.37c0,.43-.25.67-.56.55Z"/><path class="cls-7" d="m53.57,71.77l-3.87-1.58c-.31-.12-.56-.57-.56-1v-5.37c0-.43.25-.67.56-.55l3.87,1.58c.31.12.56.57.56,1v5.37c0,.43-.25.67-.56.55Z"/><path class="cls-7" d="m59.09,74.01l-3.87-1.58c-.31-.12-.56-.57-.56-1v-5.37c0-.43.25-.67.56-.55l3.87,1.58c.31.12.56.57.56,1v5.37c0,.43-.25.67-.56.55Z"/><path class="cls-7" d="m48.04,77.12l-3.87-1.58c-.31-.12-.56-.57-.56-1v-5.37c0-.43.25-.67.56-.55l3.87,1.58c.31.12.56.57.56,1v5.37c0,.43-.25.67-.56.55Z"/><path class="cls-7" d="m42.7,74.97l-3.87-1.58c-.31-.12-.56-.57-.56-1v-5.37c0-.43.25-.67.56-.55l3.87,1.58c.31.12.56.57.56,1v5.37c0,.43-.25.67-.56.55Z"/><path class="cls-7" d="m53.57,79.37l-3.87-1.58c-.31-.12-.56-.57-.56-1v-5.37c0-.43.25-.67.56-.55l3.87,1.58c.31.12.56.57.56,1v5.37c0,.43-.25.67-.56.55Z"/><path class="cls-7" d="m59.09,81.62l-3.87-1.58c-.31-.12-.56-.57-.56-1v-5.37c0-.43.25-.67.56-.55l3.87,1.58c.31.12.56.57.56,1v5.37c0,.43-.25.67-.56.55Z"/></g></g><path class="cls-6" d="m32.42.43c-.56,0-1.36.19-1.36.19L2.8,10.36s-1.21.63-1.8,1.43-.54,1.7-.54,1.7v39.9s-.14.95.23,1.59.83.82.83.82l28.61,12.05s1,.36,2.3.36h.08c1.3,0,2.3-.36,2.3-.36l28.61-12.05s.47-.18.83-.82.23-1.59.23-1.59V13.48s.05-.91-.54-1.7c-.59-.79-1.8-1.43-1.8-1.43L33.86.62s-.8-.19-1.36-.19h-.08Z"/><path class="cls-24" d="m32.5,68.63h-.08c-1.36,0-2.4-.37-2.45-.39L1.35,56.19c-.05-.02-.61-.25-1.04-1-.4-.69-.31-1.62-.28-1.83V13.48s-.05-1.05.63-1.95c.64-.86,1.89-1.52,1.95-1.55l.06-.03L30.92.22c.07-.02.9-.22,1.5-.22h.08c.61,0,1.43.2,1.46.2l28.36,9.78c.05.03,1.31.69,1.95,1.55.67.9.63,1.93.63,1.98v39.85c.03.21.11,1.13-.28,1.83-.43.74-.99.98-1.05,1l-28.6,12.04c-.06.02-1.1.4-2.47.4Zm-2.21-1.19s.94.33,2.13.33h.08c1.21,0,2.15-.33,2.15-.34l28.59-12.04s.35-.15.63-.63c.23-.41.21-1.09.17-1.31v-.06s0-39.9,0-39.9c0-.03.03-.79-.46-1.44-.48-.64-1.46-1.19-1.63-1.29L33.72,1.03h0s-.73-.17-1.22-.17h-.08c-.42,0-1.05.13-1.26.18L2.97,10.75c-.17.09-1.15.65-1.63,1.29-.48.65-.46,1.42-.46,1.42v39.95s0,.03,0,.03c-.03.22-.06.9.17,1.31.27.48.61.62.62.63l28.62,12.05h0Z"/><g class="cls-1"><path class="cls-9" d="m30.81,7.5l-7.03-2.44c-.54-.19-.53-.5.03-.7l6.91-2.41c.54-.19,1.42-.19,1.96-.02l7.08,2.31c.57.19.61.5.07.7l-6.96,2.55c-.56.21-1.49.21-2.06.01Z"/><path class="cls-9" d="m41.45,11.2l-7.55-2.62c-.58-.2-.59-.54-.03-.74l6.96-2.56c.54-.2,1.46-.21,2.04-.01l7.58,2.48c.62.2.68.54.14.75l-7,2.71c-.57.22-1.53.22-2.15,0Z"/><path class="cls-9" d="m52.91,15.19l-8.12-2.83c-.62-.22-.67-.58-.1-.8l7.01-2.73c.54-.21,1.5-.22,2.12-.01l8.15,2.66c.66.22.76.58.22.8l-7.03,2.89c-.57.23-1.58.24-2.24,0Z"/><path class="cls-9" d="m20.71,11.17l-6.96-2.6c-.54-.2-.49-.53.1-.74l7.27-2.54c.56-.2,1.47-.2,2.01-.01l7.02,2.45c.57.2.58.53,0,.74l-7.34,2.68c-.59.22-1.54.22-2.11,0Z"/><path class="cls-9" d="m31.28,15.12l-7.49-2.8c-.58-.22-.56-.57.03-.79l7.34-2.7c.57-.21,1.51-.21,2.09-.01l7.54,2.64c.61.21.65.57.08.79l-7.4,2.86c-.6.23-1.59.23-2.2,0Z"/><path class="cls-9" d="m42.67,19.37l-8.08-3.02c-.62-.23-.64-.61-.04-.84l7.4-2.88c.57-.22,1.55-.23,2.17,0l8.12,2.84c.66.23.73.61.16.85l-7.44,3.06c-.6.25-1.64.25-2.3,0Z"/><path class="cls-23" d="m10.06,15.05l-6.88-2.77c-.53-.21-.45-.56.17-.78l7.66-2.67c.59-.21,1.52-.21,2.05-.01l6.96,2.61c.57.21.54.57-.06.78l-7.74,2.83c-.63.23-1.6.23-2.16,0Z"/><path class="cls-9" d="m20.51,19.26l-7.41-2.99c-.57-.23-.52-.61.11-.84l7.75-2.85c.6-.22,1.56-.22,2.14,0l7.48,2.81c.61.23.62.61.01.84l-7.82,3.03c-.63.24-1.65.25-2.25,0Z"/><path class="cls-9" d="m31.81,23.81l-8.02-3.23c-.62-.25-.6-.65.04-.9l7.83-3.05c.61-.24,1.61-.24,2.23,0l8.08,3.03c.66.25.7.65.09.91l-7.89,3.24c-.64.26-1.7.26-2.35,0Z"/><path class="cls-9" d="m10.36,29.37l-7.35-3.05c-.58-.24-1.06-1.11-1.06-1.94v-10.4c0-.82.48-1.3,1.06-1.06l7.35,3.05c.58.24,1.06,1.11,1.06,1.94v10.4c0,.82-.48,1.3-1.06,1.06Z"/><path class="cls-9" d="m20.83,33.72l-7.35-3.05c-.58-.24-1.06-1.11-1.06-1.94v-10.4c0-.82.48-1.3,1.06-1.06l7.35,3.05c.58.24,1.06,1.11,1.06,1.94v10.4c0,.82-.48,1.3-1.06,1.06Z"/><path class="cls-17" d="m31.31,38.08l-7.35-3.05c-.58-.24-1.06-1.11-1.06-1.94v-10.4c0-.82.48-1.3,1.06-1.06l7.35,3.05c.58.24,1.06,1.11,1.06,1.94v10.4c0,.82-.48,1.3-1.06,1.06Z"/><path class="cls-8" d="m10.36,43.71l-7.35-3.05c-.58-.24-1.06-1.11-1.06-1.94v-10.4c0-.82.48-1.3,1.06-1.06l7.35,3.05c.58.24,1.06,1.11,1.06,1.94v10.4c0,.82-.48,1.3-1.06,1.06Z"/><path class="cls-8" d="m20.83,48.07l-7.35-3.05c-.58-.24-1.06-1.11-1.06-1.94v-10.4c0-.82.48-1.3,1.06-1.06l7.35,3.05c.58.24,1.06,1.11,1.06,1.94v10.4c0,.82-.48,1.3-1.06,1.06Z"/><path class="cls-8" d="m31.31,52.42l-7.35-3.05c-.58-.24-1.06-1.11-1.06-1.94v-10.4c0-.82.48-1.3,1.06-1.06l7.35,3.05c.58.24,1.06,1.11,1.06,1.94v10.4c0,.82-.48,1.3-1.06,1.06Z"/><path class="cls-19" d="m10.36,58.06l-7.35-3.05c-.58-.24-1.06-1.11-1.06-1.94v-10.4c0-.82.48-1.3,1.06-1.06l7.35,3.05c.58.24,1.06,1.11,1.06,1.94v10.4c0,.82-.48,1.3-1.06,1.06Z"/><path class="cls-10" d="m20.83,62.41l-7.35-3.05c-.58-.24-1.06-1.11-1.06-1.94v-10.4c0-.82.48-1.3,1.06-1.06l7.35,3.05c.58.24,1.06,1.11,1.06,1.94v10.4c0,.82-.48,1.3-1.06,1.06Z"/><path class="cls-10" d="m31.31,66.76l-7.35-3.05c-.58-.24-1.06-1.11-1.06-1.94v-10.4c0-.82.48-1.3,1.06-1.06l7.35,3.05c.58.24,1.06,1.11,1.06,1.94v10.4c0,.82-.48,1.3-1.06,1.06Z"/><path class="cls-9" d="m55.43,29.37l7.35-3.05c.58-.24,1.06-1.11,1.06-1.94v-10.4c0-.82-.48-1.3-1.06-1.06l-7.35,3.05c-.58.24-1.06,1.11-1.06,1.94v10.4c0,.82.48,1.3,1.06,1.06Z"/><path class="cls-9" d="m44.95,33.72l7.35-3.05c.58-.24,1.06-1.11,1.06-1.94v-10.4c0-.82-.48-1.3-1.06-1.06l-7.35,3.05c-.58.24-1.06,1.11-1.06,1.94v10.4c0,.82.48,1.3,1.06,1.06Z"/><path class="cls-9" d="m34.48,38.08l7.35-3.05c.58-.24,1.06-1.11,1.06-1.94v-10.4c0-.82-.48-1.3-1.06-1.06l-7.35,3.05c-.58.24-1.06,1.11-1.06,1.94v10.4c0,.82.48,1.3,1.06,1.06Z"/><path class="cls-8" d="m55.43,43.71l7.35-3.05c.58-.24,1.06-1.11,1.06-1.94v-10.4c0-.82-.48-1.3-1.06-1.06l-7.35,3.05c-.58.24-1.06,1.11-1.06,1.94v10.4c0,.82.48,1.3,1.06,1.06Z"/><path class="cls-20" d="m44.95,48.07l7.35-3.05c.58-.24,1.06-1.11,1.06-1.94v-10.4c0-.82-.48-1.3-1.06-1.06l-7.35,3.05c-.58.24-1.06,1.11-1.06,1.94v10.4c0,.82.48,1.3,1.06,1.06Z"/><path class="cls-8" d="m34.48,52.42l7.35-3.05c.58-.24,1.06-1.11,1.06-1.94v-10.4c0-.82-.48-1.3-1.06-1.06l-7.35,3.05c-.58.24-1.06,1.11-1.06,1.94v10.4c0,.82.48,1.3,1.06,1.06Z"/><path class="cls-22" d="m55.43,58.06l7.35-3.05c.58-.24,1.06-1.11,1.06-1.94v-10.4c0-.82-.48-1.3-1.06-1.06l-7.35,3.05c-.58.24-1.06,1.11-1.06,1.94v10.4c0,.82.48,1.3,1.06,1.06Z"/><path class="cls-10" d="m44.95,62.41l7.35-3.05c.58-.24,1.06-1.11,1.06-1.94v-10.4c0-.82-.48-1.3-1.06-1.06l-7.35,3.05c-.58.24-1.06,1.11-1.06,1.94v10.4c0,.82.48,1.3,1.06,1.06Z"/><path class="cls-10" d="m34.48,66.76l7.35-3.05c.58-.24,1.06-1.11,1.06-1.94v-10.4c0-.82-.48-1.3-1.06-1.06l-7.35,3.05c-.58.24-1.06,1.11-1.06,1.94v10.4c0,.82.48,1.3,1.06,1.06Z"/></g><path class="cls-26" d="m38.42,74.09c.76.32,21.59,8.99,21.59,8.99l22.65-9.41-.14-29.01s.15-.88-.33-1.55-1.32-.97-1.32-.97l-15.96-5.53v16.75s.12,1.02-.21,1.68-.94,1.07-.94,1.07l-26.19,11.03s0,4.65,0,5.42c0,.84,0,1.17.86,1.53Z"/><path class="cls-27" d="m64.9,13.51l17.93,30.06-.18,30.1-22.59,9.72-22.06-9.14L1.35,56.19l28.06,11.81s1.18.59,3.02.63c1.35,0,2.54-.4,2.54-.4l28.05-11.87s1.21-.54,1.54-.95c.39-.76.37-2.03.37-2.03l-.03-39.88Z"/><path class="cls-3" d="m96.64,63c0-4.82,3.54-8.36,8.55-8.36s8.55,3.54,8.55,8.36-3.54,8.36-8.55,8.36-8.55-3.54-8.55-8.36Zm13.21,0c0-2.8-1.87-4.79-4.66-4.79s-4.69,1.99-4.69,4.79,1.9,4.79,4.69,4.79,4.66-1.99,4.66-4.79Z"/><path class="cls-3" d="m115.6,64.83v-15.4h3.83v5.62h8.2v3.47h-8.2v6.3c0,2.12,1.09,2.96,2.67,2.96s2.67-.8,2.67-2.96v-.42h3.83v.42c0,4.4-2.64,6.53-6.49,6.53s-6.49-2.12-6.49-6.53Z"/><path class="cls-3" d="m135.95,53.74h-6.27v-3.83h16.65v3.83h-6.27v17.2h-4.11v-17.2Z"/><path class="cls-3" d="m147.49,63c0-4.82,3.54-8.36,8.55-8.36s8.49,3.54,8.49,8.36v1.35h-13.02c.52,2.31,2.28,3.54,4.53,3.54,1.7,0,2.96-.48,3.76-1.51h4.08c-1.19,3.02-4.08,4.98-7.84,4.98-5.01,0-8.55-3.54-8.55-8.36Zm12.99-1.7c-.61-2.12-2.35-3.18-4.44-3.18s-3.83,1.09-4.44,3.18h8.87Z"/><path class="cls-3" d="m166.39,62.68c0-5.3,3.15-8.04,7.84-8.04s7.84,2.7,7.84,8.04v8.26h-3.83v-8.26c0-3.02-1.61-4.47-4.02-4.47s-4.02,1.45-4.02,4.47v8.26h-3.83v-8.26Z"/><path class="cls-3" d="m183.97,66.25h3.86c.03,1.06.96,1.77,2.83,1.77,1.96,0,2.8-.8,2.8-1.77,0-1.22-1.41-1.38-3.12-1.61-2.44-.32-6.04-.74-6.04-4.63,0-3.25,2.48-5.37,6.3-5.37s6.27,2.19,6.37,4.98h-3.79c-.1-.97-1-1.64-2.51-1.64-1.67,0-2.51.8-2.51,1.74,0,1.22,1.45,1.41,3.15,1.64,2.12.29,6.01.71,6.01,4.66,0,3.22-2.6,5.34-6.65,5.34s-6.59-2.15-6.69-5.11Z"/><path class="cls-3" d="m198.56,63c0-4.82,3.54-8.36,8.55-8.36s8.55,3.54,8.55,8.36-3.54,8.36-8.55,8.36-8.55-3.54-8.55-8.36Zm13.21,0c0-2.8-1.87-4.79-4.66-4.79s-4.69,1.99-4.69,4.79,1.9,4.79,4.69,4.79,4.66-1.99,4.66-4.79Z"/><path class="cls-3" d="m217.52,61.71c0-4.79,2.83-7.07,6.98-7.07s6.94,2.28,6.94,7.14v.1h-3.79v-.16c0-2.57-1.29-3.5-3.15-3.5s-3.15.93-3.15,3.5v9.23h-3.83v-9.23Z"/><path class="cls-5" d="m96.64,63c0-4.82,3.54-8.36,8.55-8.36s8.55,3.54,8.55,8.36-3.54,8.36-8.55,8.36-8.55-3.54-8.55-8.36Zm13.21,0c0-2.8-1.87-4.79-4.66-4.79s-4.69,1.99-4.69,4.79,1.9,4.79,4.69,4.79,4.66-1.99,4.66-4.79Z"/><path class="cls-5" d="m115.6,64.83v-15.4h3.83v5.62h8.2v3.47h-8.2v6.3c0,2.12,1.09,2.96,2.67,2.96s2.67-.8,2.67-2.96v-.42h3.83v.42c0,4.4-2.64,6.53-6.49,6.53s-6.49-2.12-6.49-6.53Z"/><path class="cls-5" d="m135.95,53.74h-6.27v-3.83h16.65v3.83h-6.27v17.2h-4.11v-17.2Z"/><path class="cls-5" d="m147.49,63c0-4.82,3.54-8.36,8.55-8.36s8.49,3.54,8.49,8.36v1.35h-13.02c.52,2.31,2.28,3.54,4.53,3.54,1.7,0,2.96-.48,3.76-1.51h4.08c-1.19,3.02-4.08,4.98-7.84,4.98-5.01,0-8.55-3.54-8.55-8.36Zm12.99-1.7c-.61-2.12-2.35-3.18-4.44-3.18s-3.83,1.09-4.44,3.18h8.87Z"/><path class="cls-5" d="m166.39,62.68c0-5.3,3.15-8.04,7.84-8.04s7.84,2.7,7.84,8.04v8.26h-3.83v-8.26c0-3.02-1.61-4.47-4.02-4.47s-4.02,1.45-4.02,4.47v8.26h-3.83v-8.26Z"/><path class="cls-5" d="m183.97,66.25h3.86c.03,1.06.96,1.77,2.83,1.77,1.96,0,2.8-.8,2.8-1.77,0-1.22-1.41-1.38-3.12-1.61-2.44-.32-6.04-.74-6.04-4.63,0-3.25,2.48-5.37,6.3-5.37s6.27,2.19,6.37,4.98h-3.79c-.1-.97-1-1.64-2.51-1.64-1.67,0-2.51.8-2.51,1.74,0,1.22,1.45,1.41,3.15,1.64,2.12.29,6.01.71,6.01,4.66,0,3.22-2.6,5.34-6.65,5.34s-6.59-2.15-6.69-5.11Z"/><path class="cls-5" d="m198.56,63c0-4.82,3.54-8.36,8.55-8.36s8.55,3.54,8.55,8.36-3.54,8.36-8.55,8.36-8.55-3.54-8.55-8.36Zm13.21,0c0-2.8-1.87-4.79-4.66-4.79s-4.69,1.99-4.69,4.79,1.9,4.79,4.69,4.79,4.66-1.99,4.66-4.79Z"/><path class="cls-5" d="m217.52,61.71c0-4.79,2.83-7.07,6.98-7.07s6.94,2.28,6.94,7.14v.1h-3.79v-.16c0-2.57-1.29-3.5-3.15-3.5s-3.15.93-3.15,3.5v9.23h-3.83v-9.23Z"/><path class="cls-18" d="m96.64,63c0-4.82,3.54-8.36,8.55-8.36s8.55,3.54,8.55,8.36-3.54,8.36-8.55,8.36-8.55-3.54-8.55-8.36Zm13.21,0c0-2.8-1.87-4.79-4.66-4.79s-4.69,1.99-4.69,4.79,1.9,4.79,4.69,4.79,4.66-1.99,4.66-4.79Z"/><path class="cls-21" d="m115.6,64.83v-15.4h3.83v5.62h8.2v3.47h-8.2v6.3c0,2.12,1.09,2.96,2.67,2.96s2.67-.8,2.67-2.96v-.42h3.83v.42c0,4.4-2.64,6.53-6.49,6.53s-6.49-2.12-6.49-6.53Z"/><path class="cls-14" d="m135.95,53.74h-6.27v-3.83h16.65v3.83h-6.27v17.2h-4.11v-17.2Z"/><path class="cls-16" d="m147.49,63c0-4.82,3.54-8.36,8.55-8.36s8.49,3.54,8.49,8.36v1.35h-13.02c.52,2.31,2.28,3.54,4.53,3.54,1.7,0,2.96-.48,3.76-1.51h4.08c-1.19,3.02-4.08,4.98-7.84,4.98-5.01,0-8.55-3.54-8.55-8.36Zm12.99-1.7c-.61-2.12-2.35-3.18-4.44-3.18s-3.83,1.09-4.44,3.18h8.87Z"/><path class="cls-15" d="m166.39,62.68c0-5.3,3.15-8.04,7.84-8.04s7.84,2.7,7.84,8.04v8.26h-3.83v-8.26c0-3.02-1.61-4.47-4.02-4.47s-4.02,1.45-4.02,4.47v8.26h-3.83v-8.26Z"/><path class="cls-12" d="m183.97,66.25h3.86c.03,1.06.96,1.77,2.83,1.77,1.96,0,2.8-.8,2.8-1.77,0-1.22-1.41-1.38-3.12-1.61-2.44-.32-6.04-.74-6.04-4.63,0-3.25,2.48-5.37,6.3-5.37s6.27,2.19,6.37,4.98h-3.79c-.1-.97-1-1.64-2.51-1.64-1.67,0-2.51.8-2.51,1.74,0,1.22,1.45,1.41,3.15,1.64,2.12.29,6.01.71,6.01,4.66,0,3.22-2.6,5.34-6.65,5.34s-6.59-2.15-6.69-5.11Z"/><path class="cls-11" d="m198.56,63c0-4.82,3.54-8.36,8.55-8.36s8.55,3.54,8.55,8.36-3.54,8.36-8.55,8.36-8.55-3.54-8.55-8.36Zm13.21,0c0-2.8-1.87-4.79-4.66-4.79s-4.69,1.99-4.69,4.79,1.9,4.79,4.69,4.79,4.66-1.99,4.66-4.79Z"/><path class="cls-13" d="m217.52,61.71c0-4.79,2.83-7.07,6.98-7.07s6.94,2.28,6.94,7.14v.1h-3.79v-.16c0-2.57-1.29-3.5-3.15-3.5s-3.15.93-3.15,3.5v9.23h-3.83v-9.23Z"/><path class="cls-4" d="m161.65,86.67c-.26.13-.72.35-1.58.35-1.75,0-2.74-1.07-2.74-2.68,0-1.74,1.2-2.74,2.68-2.74.6,0,1.13.14,1.63.46l-.34,1.2c-.22-.16-.55-.41-1.19-.41-.9,0-1.45.61-1.45,1.47,0,.66.31,1.48,1.47,1.48.76,0,1.29-.34,1.5-.46v1.35Z"/><path class="cls-4" d="m162.45,86.89v-5.15h1.29v.5c.29-.42.78-.69,1.51-.63v1.24c-.67-.04-1.45.08-1.45,1.18v2.86h-1.35Z"/><path class="cls-4" d="m166.15,82.08c.59-.32,1.17-.48,1.84-.48.85,0,1.48.28,1.85.71.27.32.38.71.38,1.34v1.93c0,.7.09,1.05.2,1.31h-1.28c-.05-.12-.09-.23-.09-.46-.42.41-.95.6-1.53.6-.95,0-1.75-.58-1.75-1.62,0-1.32,1.14-1.61,2.07-1.75.9-.14,1.06-.16,1.06-.41,0-.22-.22-.45-.86-.45s-1.22.22-1.77.57l-.11-1.28Zm2.77,2.37c-.23.11-.47.16-1.06.23-.53.07-.84.24-.84.67,0,.3.2.54.6.54.29,0,.86-.09,1.3-.77v-.68Z"/><path class="cls-4" d="m171.23,86.89v-5.15h1.29v.5c.13-.16.52-.64,1.38-.64.9,0,1.36.54,1.51.84.19.39.23.8.23,1.55v2.9h-1.35v-2.94c0-.47,0-1.11-.77-1.11-.15,0-.93.03-.93,1.11v2.94h-1.35Z"/><path class="cls-4" d="m178.14,85.37v1.51h-1.51v-1.51h1.51Z"/><path class="cls-4" d="m179.15,86.89v-5.15h1.29v.5c.29-.42.78-.69,1.51-.63v1.24c-.67-.04-1.45.08-1.45,1.18v2.86h-1.35Z"/><path class="cls-4" d="m184.9,83.66v1.3h-2.51v-1.3h2.51Z"/><path class="cls-4" d="m186.9,82.23c.17-.18.6-.64,1.44-.64,1.45,0,2.26,1.27,2.26,2.71s-.76,2.72-2.27,2.72c-.69,0-1.12-.32-1.39-.55v2.7h-1.35v-7.44h1.31v.5Zm1.2,3.55c.71,0,1.14-.58,1.14-1.48s-.42-1.47-1.14-1.47c-.26,0-1.18.1-1.18,1.47s.91,1.48,1.18,1.48Z"/><path class="cls-4" d="m191.34,86.89v-5.15h1.29v.5c.29-.42.78-.69,1.51-.63v1.24c-.67-.04-1.45.08-1.45,1.18v2.86h-1.35Z"/><path class="cls-4" d="m197.18,81.6c1.37,0,2.56,1.04,2.56,2.71s-1.19,2.72-2.56,2.72-2.55-1.03-2.55-2.72,1.2-2.71,2.55-2.71Zm0,4.19c.78,0,1.2-.62,1.2-1.48,0-1.47-1.11-1.47-1.2-1.47-.41,0-1.2.25-1.2,1.47,0,.86.42,1.48,1.2,1.48Z"/><path class="cls-4" d="m202.93,86.96c0,.97,0,2.21-1.66,2.21-.55,0-.9-.16-1.14-.27l.09-1.17c.16.07.44.2.77.2.51,0,.58-.38.58-.78v-5.42h1.35v5.23Zm.06-5.82h-1.47v-1.39h1.47v1.39Z"/><path class="cls-4" d="m205.21,84.73c.03.33.13,1.12,1.39,1.12.75,0,1.18-.2,1.62-.41v1.26c-.27.1-.82.33-1.68.33-2.26,0-2.68-1.74-2.68-2.68,0-1.62.99-2.75,2.4-2.75.52,0,1.6.18,2.11,1.41.22.53.26,1.16.26,1.72h-3.42Zm2.07-.97c-.13-1-.89-1-1.02-1-.87,0-1,.81-1.03,1h2.06Z"/><path class="cls-4" d="m213.54,86.67c-.26.13-.72.35-1.58.35-1.75,0-2.74-1.07-2.74-2.68,0-1.74,1.2-2.74,2.68-2.74.6,0,1.13.14,1.63.46l-.34,1.2c-.22-.16-.55-.41-1.19-.41-.9,0-1.45.61-1.45,1.47,0,.66.31,1.48,1.47,1.48.76,0,1.29-.34,1.5-.46v1.35Z"/><path class="cls-4" d="m214.59,80.24h1.35v1.5h1.37v1.24h-1.37v2.23c0,.43.1.58.58.58.28,0,.55-.03.71-.06v1.22c-.16.02-.57.08-1.06.08-1.58,0-1.58-.9-1.58-1.73v-2.32h-.58v-1.24h.58v-1.5Z"/><path class="cls-4" d="m219.49,85.37v1.51h-1.51v-1.51h1.51Z"/><path class="cls-4" d="m222.85,81.6c1.37,0,2.56,1.04,2.56,2.71s-1.19,2.72-2.56,2.72-2.55-1.03-2.55-2.72,1.2-2.71,2.55-2.71Zm0,4.19c.78,0,1.2-.62,1.2-1.48,0-1.47-1.11-1.47-1.2-1.47-.41,0-1.2.25-1.2,1.47,0,.86.42,1.48,1.2,1.48Z"/><path class="cls-4" d="m226.15,86.89v-5.15h1.29v.5c.29-.42.78-.69,1.51-.63v1.24c-.67-.04-1.45.08-1.45,1.18v2.86h-1.35Z"/><path class="cls-4" d="m234.28,82.78c-.09-.03-.19-.06-.34-.06-.14,0-.23.03-.3.05.05.12.13.33.13.69,0,1.21-1.04,1.74-2.11,1.74-.14,0-.24,0-.32,0-.11.05-.24.16-.24.29,0,.21.33.24.9.27,1.17.05,2.32.26,2.32,1.64,0,1.56-1.73,1.78-2.62,1.78-1.63,0-2.33-.76-2.33-1.66,0-.82.58-1.2.76-1.31-.16-.11-.41-.31-.41-.7s.33-.67.42-.74c-.65-.5-.65-1.2-.65-1.35,0-1.07.88-1.82,2.13-1.82.62,0,.96.16,1.14.25.4-.25.8-.25.91-.25.32,0,.45.05.59.11v1.08Zm-2.64,4c-.51,0-.92.14-.92.64,0,.58.69.65,1.11.65.27,0,1.15-.04,1.15-.69,0-.49-.57-.6-1.34-.6Zm-.84-3.35c0,.43.35.71.83.71s.85-.3.85-.74c0-.38-.28-.73-.83-.73-.48,0-.85.29-.85.76Z"/><path d="m161.65,86.67c-.26.13-.72.35-1.58.35-1.75,0-2.74-1.07-2.74-2.68,0-1.74,1.2-2.74,2.68-2.74.6,0,1.13.14,1.63.46l-.34,1.2c-.22-.16-.55-.41-1.19-.41-.9,0-1.45.61-1.45,1.47,0,.66.31,1.48,1.47,1.48.76,0,1.29-.34,1.5-.46v1.35Z"/><path d="m162.45,86.89v-5.15h1.29v.5c.29-.42.78-.69,1.51-.63v1.24c-.67-.04-1.45.08-1.45,1.18v2.86h-1.35Z"/><path d="m166.15,82.08c.59-.32,1.17-.48,1.84-.48.85,0,1.48.28,1.85.71.27.32.38.71.38,1.34v1.93c0,.7.09,1.05.2,1.31h-1.28c-.05-.12-.09-.23-.09-.46-.42.41-.95.6-1.53.6-.95,0-1.75-.58-1.75-1.62,0-1.32,1.14-1.61,2.07-1.75.9-.14,1.06-.16,1.06-.41,0-.22-.22-.45-.86-.45s-1.22.22-1.77.57l-.11-1.28Zm2.77,2.37c-.23.11-.47.16-1.06.23-.53.07-.84.24-.84.67,0,.3.2.54.6.54.29,0,.86-.09,1.3-.77v-.68Z"/><path d="m171.23,86.89v-5.15h1.29v.5c.13-.16.52-.64,1.38-.64.9,0,1.36.54,1.51.84.19.39.23.8.23,1.55v2.9h-1.35v-2.94c0-.47,0-1.11-.77-1.11-.15,0-.93.03-.93,1.11v2.94h-1.35Z"/><path d="m178.14,85.37v1.51h-1.51v-1.51h1.51Z"/><path d="m179.15,86.89v-5.15h1.29v.5c.29-.42.78-.69,1.51-.63v1.24c-.67-.04-1.45.08-1.45,1.18v2.86h-1.35Z"/><path d="m184.9,83.66v1.3h-2.51v-1.3h2.51Z"/><path d="m186.9,82.23c.17-.18.6-.64,1.44-.64,1.45,0,2.26,1.27,2.26,2.71s-.76,2.72-2.27,2.72c-.69,0-1.12-.32-1.39-.55v2.7h-1.35v-7.44h1.31v.5Zm1.2,3.55c.71,0,1.14-.58,1.14-1.48s-.42-1.47-1.14-1.47c-.26,0-1.18.1-1.18,1.47s.91,1.48,1.18,1.48Z"/><path d="m191.34,86.89v-5.15h1.29v.5c.29-.42.78-.69,1.51-.63v1.24c-.67-.04-1.45.08-1.45,1.18v2.86h-1.35Z"/><path d="m197.18,81.6c1.37,0,2.56,1.04,2.56,2.71s-1.19,2.72-2.56,2.72-2.55-1.03-2.55-2.72,1.2-2.71,2.55-2.71Zm0,4.19c.78,0,1.2-.62,1.2-1.48,0-1.47-1.11-1.47-1.2-1.47-.41,0-1.2.25-1.2,1.47,0,.86.42,1.48,1.2,1.48Z"/><path d="m202.93,86.96c0,.97,0,2.21-1.66,2.21-.55,0-.9-.16-1.14-.27l.09-1.17c.16.07.44.2.77.2.51,0,.58-.38.58-.78v-5.42h1.35v5.23Zm.06-5.82h-1.47v-1.39h1.47v1.39Z"/><path d="m205.21,84.73c.03.33.13,1.12,1.39,1.12.75,0,1.18-.2,1.62-.41v1.26c-.27.1-.82.33-1.68.33-2.26,0-2.68-1.74-2.68-2.68,0-1.62.99-2.75,2.4-2.75.52,0,1.6.18,2.11,1.41.22.53.26,1.16.26,1.72h-3.42Zm2.07-.97c-.13-1-.89-1-1.02-1-.87,0-1,.81-1.03,1h2.06Z"/><path d="m213.54,86.67c-.26.13-.72.35-1.58.35-1.75,0-2.74-1.07-2.74-2.68,0-1.74,1.2-2.74,2.68-2.74.6,0,1.13.14,1.63.46l-.34,1.2c-.22-.16-.55-.41-1.19-.41-.9,0-1.45.61-1.45,1.47,0,.66.31,1.48,1.47,1.48.76,0,1.29-.34,1.5-.46v1.35Z"/><path d="m214.59,80.24h1.35v1.5h1.37v1.24h-1.37v2.23c0,.43.1.58.58.58.28,0,.55-.03.71-.06v1.22c-.16.02-.57.08-1.06.08-1.58,0-1.58-.9-1.58-1.73v-2.32h-.58v-1.24h.58v-1.5Z"/><path d="m219.49,85.37v1.51h-1.51v-1.51h1.51Z"/><path d="m222.85,81.6c1.37,0,2.56,1.04,2.56,2.71s-1.19,2.72-2.56,2.72-2.55-1.03-2.55-2.72,1.2-2.71,2.55-2.71Zm0,4.19c.78,0,1.2-.62,1.2-1.48,0-1.47-1.11-1.47-1.2-1.47-.41,0-1.2.25-1.2,1.47,0,.86.42,1.48,1.2,1.48Z"/><path d="m226.15,86.89v-5.15h1.29v.5c.29-.42.78-.69,1.51-.63v1.24c-.67-.04-1.45.08-1.45,1.18v2.86h-1.35Z"/><path d="m234.28,82.78c-.09-.03-.19-.06-.34-.06-.14,0-.23.03-.3.05.05.12.13.33.13.69,0,1.21-1.04,1.74-2.11,1.74-.14,0-.24,0-.32,0-.11.05-.24.16-.24.29,0,.21.33.24.9.27,1.17.05,2.32.26,2.32,1.64,0,1.56-1.73,1.78-2.62,1.78-1.63,0-2.33-.76-2.33-1.66,0-.82.58-1.2.76-1.31-.16-.11-.41-.31-.41-.7s.33-.67.42-.74c-.65-.5-.65-1.2-.65-1.35,0-1.07.88-1.82,2.13-1.82.62,0,.96.16,1.14.25.4-.25.8-.25.91-.25.32,0,.45.05.59.11v1.08Zm-2.64,4c-.51,0-.92.14-.92.64,0,.58.69.65,1.11.65.27,0,1.15-.04,1.15-.69,0-.49-.57-.6-1.34-.6Zm-.84-3.35c0,.43.35.71.83.71s.85-.3.85-.74c0-.38-.28-.73-.83-.73-.48,0-.85.29-.85.76Z"/></g></svg>