<?xml version="1.0" encoding="UTF-8"?><svg id="_レイヤー_2" xmlns="http://www.w3.org/2000/svg" xmlns:xlink="http://www.w3.org/1999/xlink" viewBox="0 0 121.89 141.73"><defs><style>.cls-1{opacity:.83;}.cls-1,.cls-2,.cls-3,.cls-4{fill:none;}.cls-2{opacity:.85;}.cls-3{stroke:#fff;stroke-miterlimit:3;stroke-width:6.29px;}.cls-5{fill:#040000;}.cls-6{fill:#fff;}.cls-7{fill:#f39800;}.cls-8{fill:#989898;}.cls-9{fill:#c2c2c2;}.cls-10{fill:#b3b3b3;}.cls-11{fill:#d5d5d5;}.cls-12{fill:url(#_名称未設定グラデーション_14-14);}.cls-13{fill:url(#_名称未設定グラデーション_14-13);}.cls-14{fill:url(#_名称未設定グラデーション_14-16);}.cls-15{fill:url(#_名称未設定グラデーション_14-15);}.cls-16{fill:url(#_名称未設定グラデーション_14-10);}.cls-17{fill:url(#_名称未設定グラデーション_14-12);}.cls-18{fill:url(#_名称未設定グラデーション_14-11);}.cls-4{stroke:#231815;stroke-miterlimit:2;stroke-width:4.19px;}.cls-19{fill:url(#_名称未設定グラデーション_14-4);}.cls-20{fill:url(#_名称未設定グラデーション_14-8);}.cls-21{fill:url(#_名称未設定グラデーション_14-5);}.cls-22{fill:url(#_名称未設定グラデーション_14-6);}.cls-23{fill:url(#_名称未設定グラデーション_14-9);}.cls-24{fill:url(#_名称未設定グラデーション_14-7);}.cls-25{fill:url(#_名称未設定グラデーション_14-3);}.cls-26{fill:url(#_名称未設定グラデーション_14-2);}.cls-27{fill:url(#_名称未設定グラデーション_14);}.cls-28{fill:url(#_名称未設定グラデーション_3);}.cls-29{fill:url(#_名称未設定グラデーション_2);}</style><linearGradient id="_名称未設定グラデーション_14" x1="5.66" y1="70.85" x2="116.23" y2="70.85" gradientUnits="userSpaceOnUse"><stop offset="0" stop-color="#ee87b4"/><stop offset="1" stop-color="#00b9ef"/></linearGradient><linearGradient id="_名称未設定グラデーション_14-2" x1="64.08" y1="63.17" x2="102.51" y2="103.3" xlink:href="#_名称未設定グラデーション_14"/><linearGradient id="_名称未設定グラデーション_14-3" x1="30.27" y1="31.78" x2="84.26" y2="88.17" xlink:href="#_名称未設定グラデーション_14"/><linearGradient id="_名称未設定グラデーション_14-4" x1="22.32" y1="32.78" x2="39.92" y2="32.78" xlink:href="#_名称未設定グラデーション_14"/><linearGradient id="_名称未設定グラデーション_14-5" x1="42.39" y1="50.7" x2="51.85" y2="50.7" xlink:href="#_名称未設定グラデーション_14"/><linearGradient id="_名称未設定グラデーション_14-6" x1="21.44" y1="70.67" x2="30.9" y2="70.67" xlink:href="#_名称未設定グラデーション_14"/><linearGradient id="_名称未設定グラデーション_14-7" x1="63.38" y1="60.69" x2="72.84" y2="60.69" xlink:href="#_名称未設定グラデーション_14"/><linearGradient id="_名称未設定グラデーション_14-8" x1="73.85" y1="70.67" x2="83.31" y2="70.67" xlink:href="#_名称未設定グラデーション_14"/><linearGradient id="_名称未設定グラデーション_3" x1="55.59" y1="89.94" x2="104.79" y2="72.66" gradientUnits="userSpaceOnUse"><stop offset="0" stop-color="#ee87b4"/><stop offset="1" stop-color="#00b9ef" stop-opacity="0"/></linearGradient><linearGradient id="_名称未設定グラデーション_2" x1="20.83" y1="69.29" x2="102.31" y2="69.29" gradientUnits="userSpaceOnUse"><stop offset="0" stop-color="#ee87b4"/><stop offset="1" stop-color="#00b9ef" stop-opacity=".2"/></linearGradient><linearGradient id="_名称未設定グラデーション_14-9" x1="26.76" y1="120.35" x2="95.93" y2="88.1" xlink:href="#_名称未設定グラデーション_14"/><linearGradient id="_名称未設定グラデーション_14-10" x1="26.76" y1="120.35" x2="95.93" y2="88.1" xlink:href="#_名称未設定グラデーション_14"/><linearGradient id="_名称未設定グラデーション_14-11" x1="26.76" y1="120.35" x2="95.93" y2="88.1" xlink:href="#_名称未設定グラデーション_14"/><linearGradient id="_名称未設定グラデーション_14-12" x1="26.76" y1="120.35" x2="95.93" y2="88.1" xlink:href="#_名称未設定グラデーション_14"/><linearGradient id="_名称未設定グラデーション_14-13" x1="26.76" y1="120.35" x2="95.93" y2="88.1" xlink:href="#_名称未設定グラデーション_14"/><linearGradient id="_名称未設定グラデーション_14-14" x1="26.76" y1="120.35" x2="95.93" y2="88.1" xlink:href="#_名称未設定グラデーション_14"/><linearGradient id="_名称未設定グラデーション_14-15" x1="26.76" y1="120.35" x2="95.93" y2="88.1" xlink:href="#_名称未設定グラデーション_14"/><linearGradient id="_名称未設定グラデーション_14-16" x1="26.76" y1="120.35" x2="95.93" y2="88.1" xlink:href="#_名称未設定グラデーション_14"/></defs><g id="_レイヤー_2-2"><path class="cls-6" d="m9.65,53.2c-.07-.14-.18-.38-.18-.83,0-.91.56-1.43,1.41-1.43.91,0,1.44.63,1.44,1.41,0,.32-.07.59-.24.86l-.63-.18c.09-.11.22-.29.22-.62,0-.47-.32-.76-.77-.76-.35,0-.78.16-.78.77,0,.4.18.68.24.78h-.71Z"/><path class="cls-6" d="m9.54,53.62h2.7v.68h-.26c.22.15.36.41.33.79h-.65c.02-.35-.04-.76-.62-.76h-1.5v-.71Z"/><path class="cls-6" d="m12.05,55.56c.17.31.25.61.25.96,0,.45-.14.78-.37.97-.17.14-.37.2-.7.2h-1.01c-.37,0-.55.05-.68.1v-.67c.06-.03.12-.05.24-.05-.22-.22-.32-.5-.32-.8,0-.5.3-.91.85-.91.69,0,.84.59.92,1.09.07.47.09.55.22.55.11,0,.23-.11.23-.45s-.11-.64-.3-.93l.67-.06Zm-1.24,1.45c-.06-.12-.08-.24-.12-.55-.04-.28-.13-.44-.35-.44-.16,0-.28.1-.28.32,0,.15.05.45.4.68h.36Z"/><path class="cls-6" d="m9.54,58.22h2.7v.68h-.26c.09.07.33.27.33.72,0,.47-.28.71-.44.79-.2.1-.42.12-.81.12h-1.52v-.71h1.54c.24,0,.58,0,.58-.41,0-.08-.02-.49-.58-.49h-1.54v-.71Z"/><path class="cls-6" d="m10.33,61.84h-.79v-.79h.79v.79Z"/><path class="cls-6" d="m9.54,62.37h2.7v.68h-.26c.22.15.36.41.33.79h-.65c.02-.35-.04-.76-.62-.76h-1.5v-.71Z"/><path class="cls-6" d="m11.22,65.38h-.68v-1.32h.68v1.32Z"/><path class="cls-6" d="m11.97,66.43c.09.09.33.32.33.75,0,.76-.67,1.19-1.42,1.19s-1.42-.4-1.42-1.19c0-.36.17-.59.29-.73h-1.42v-.71h3.9v.68h-.26Zm-1.86.63c0,.37.3.6.78.6s.77-.22.77-.6c0-.14-.05-.62-.77-.62s-.78.48-.78.62Z"/><path class="cls-6" d="m9.54,68.75h2.7v.68h-.26c.22.15.36.41.33.79h-.65c.02-.35-.04-.76-.62-.76h-1.5v-.71Z"/><path class="cls-6" d="m12.31,71.81c0,.72-.55,1.34-1.42,1.34s-1.42-.62-1.42-1.34.54-1.33,1.42-1.33,1.42.63,1.42,1.33Zm-2.19,0c0,.41.32.63.78.63.77,0,.77-.58.77-.63,0-.22-.13-.63-.77-.63-.45,0-.78.22-.78.63Z"/><path class="cls-6" d="m9.49,74.82c-.51,0-1.16,0-1.16-.87,0-.29.09-.47.14-.6l.61.05c-.04.09-.1.23-.1.41,0,.27.2.3.41.3h2.84v.71h-2.74Zm3.05.03v-.77h.73v.77h-.73Z"/><path class="cls-6" d="m10.67,76.02c-.17.02-.59.07-.59.73,0,.39.1.62.22.85h-.66c-.05-.14-.17-.43-.17-.88,0-1.19.91-1.4,1.4-1.4.85,0,1.44.52,1.44,1.26,0,.27-.09.84-.74,1.1-.28.11-.61.14-.9.14v-1.79Zm.51,1.09c.52-.07.52-.47.52-.54,0-.45-.42-.52-.52-.54v1.08Z"/><path class="cls-6" d="m9.65,80.38c-.07-.14-.18-.38-.18-.83,0-.91.56-1.43,1.41-1.43.91,0,1.44.63,1.44,1.41,0,.32-.07.59-.24.86l-.63-.18c.09-.11.22-.29.22-.62,0-.47-.32-.76-.77-.76-.35,0-.78.16-.78.77,0,.4.18.68.24.78h-.71Z"/><path class="cls-6" d="m13.02,80.93v.71h-.78v.72h-.65v-.72h-1.17c-.22,0-.31.05-.31.3,0,.15.02.29.03.37h-.64c0-.08-.04-.3-.04-.55,0-.83.47-.83.91-.83h1.22v-.31h.65v.31h.78Z"/><path class="cls-6" d="m10.33,83.5h-.79v-.79h.79v.79Z"/><path class="cls-6" d="m12.31,85.26c0,.72-.55,1.34-1.42,1.34s-1.42-.62-1.42-1.34.54-1.33,1.42-1.33,1.42.63,1.42,1.33Zm-2.19,0c0,.41.32.63.78.63.77,0,.77-.58.77-.63,0-.22-.13-.63-.77-.63-.45,0-.78.22-.78.63Z"/><path class="cls-6" d="m9.54,86.99h2.7v.68h-.26c.22.15.36.41.33.79h-.65c.02-.35-.04-.76-.62-.76h-1.5v-.71Z"/><path class="cls-6" d="m11.68,91.25s.03-.1.03-.18c0-.07-.01-.12-.03-.16-.06.03-.17.07-.36.07-.64,0-.91-.55-.91-1.1,0-.07,0-.13,0-.17-.03-.06-.09-.13-.15-.13-.11,0-.13.17-.14.47-.03.61-.14,1.22-.86,1.22-.82,0-.93-.91-.93-1.37,0-.86.4-1.22.87-1.22.43,0,.63.31.68.4.06-.08.16-.22.37-.22s.35.17.39.22c.26-.34.63-.34.71-.34.56,0,.96.46.96,1.12,0,.32-.09.5-.13.6.13.21.13.42.13.48,0,.17-.03.23-.06.31h-.56Zm-2.09-1.38c0-.27-.07-.48-.33-.48-.3,0-.34.36-.34.58,0,.14.02.6.36.6.26,0,.32-.3.32-.7Zm1.75-.44c-.23,0-.37.18-.37.44s.16.45.39.45c.2,0,.38-.14.38-.44,0-.25-.15-.45-.4-.45Z"/><path d="m60.94,134.11c-1.14,0-2.28-.3-3.3-.89l-48.69-28.31c-2.03-1.18-3.3-3.39-3.3-5.75v-56.63c0-2.36,1.26-4.57,3.3-5.75L57.65,8.47c2.03-1.18,4.56-1.18,6.59,0l48.69,28.31c2.03,1.18,3.3,3.39,3.3,5.75v56.63c0,2.36-1.26,4.57-3.3,5.75l-48.69,28.31c-1.02.59-2.16.89-3.3.89Zm0-124.64c-.82,0-1.63.21-2.36.64L9.89,38.42c-1.46.85-2.36,2.42-2.36,4.12v56.63c0,1.69.9,3.27,2.36,4.12l48.69,28.31c1.46.85,3.26.85,4.72,0l48.69-28.31c1.46-.85,2.36-2.42,2.36-4.12v-56.63c0-1.69-.9-3.27-2.36-4.12L63.3,10.1c-.73-.42-1.54-.64-2.36-.64Z"/><polygon class="cls-5" points="0 106.3 0 35.43 60.94 0 121.89 35.43 121.89 106.3 60.94 141.73 0 106.3"/><path class="cls-27" d="m60.94,134.11c-1.14,0-2.28-.3-3.3-.89l-48.69-28.31c-2.03-1.18-3.3-3.39-3.3-5.75v-56.63c0-2.36,1.26-4.57,3.3-5.75L57.65,8.47c2.03-1.18,4.56-1.18,6.59,0l48.69,28.31c2.03,1.18,3.3,3.39,3.3,5.75v56.63c0,2.36-1.26,4.57-3.3,5.75l-48.69,28.31c-1.02.59-2.16.89-3.3.89Zm0-124.64c-.82,0-1.63.21-2.36.64L9.89,38.42c-1.46.85-2.36,2.42-2.36,4.12v56.63c0,1.69.9,3.27,2.36,4.12l48.69,28.31c1.46.85,3.26.85,4.72,0l48.69-28.31c1.46-.85,2.36-2.42,2.36-4.12v-56.63c0-1.69-.9-3.27-2.36-4.12L63.3,10.1c-.73-.42-1.54-.64-2.36-.64Z"/><g class="cls-2"><path class="cls-6" d="m79.49,55.68c-.4,0-.97.14-.97.14l-20.12,6.93s-.86.45-1.28,1.02-.39,1.21-.39,1.21v28.4s-.1.68.16,1.13.59.58.59.58l20.36,8.58s.71.26,1.64.26h.05c.93,0,1.64-.26,1.64-.26l20.36-8.58s.33-.13.59-.58.16-1.13.16-1.13v-28.4s.03-.65-.39-1.21-1.28-1.02-1.28-1.02l-20.12-6.93s-.57-.14-.97-.14h-.05Z"/><path class="cls-26" d="m79.54,104.23h-.05c-.97,0-1.71-.27-1.74-.28l-20.38-8.58s-.44-.18-.74-.71c-.28-.49-.22-1.15-.2-1.3v-28.38s-.03-.75.45-1.39c.46-.61,1.35-1.08,1.39-1.1l.04-.02,20.11-6.93c.05-.01.64-.15,1.07-.15h.05c.43,0,1.02.14,1.04.15l20.19,6.96s.93.49,1.39,1.1c.48.64.45,1.38.45,1.41v28.37c.02.15.08.81-.2,1.3-.3.53-.7.7-.75.71l-20.35,8.57s-.78.28-1.76.28Zm-1.57-.84s.67.23,1.52.23h.05c.86,0,1.53-.24,1.53-.24l20.35-8.57s.25-.11.44-.45c.17-.29.15-.77.12-.93v-.04s0-28.4,0-28.4c0-.02.02-.56-.33-1.03-.34-.46-1.04-.85-1.16-.92l-20.09-6.92h0s-.52-.12-.87-.12h-.05c-.3,0-.75.09-.9.13l-20.06,6.91c-.12.07-.82.46-1.16.92-.34.46-.33,1.01-.33,1.01v28.44s0,.02,0,.02c-.02.16-.04.64.12.93.19.34.43.44.44.45l20.37,8.58h0Z"/><g class="cls-1"><path class="cls-10" d="m90.64,67.88l-4.33-1.5c-.33-.12-.36-.31-.05-.42l3.74-1.46c.29-.11.8-.12,1.13,0l4.34,1.42c.35.12.41.31.12.43l-3.75,1.54c-.3.12-.84.13-1.19,0Z"/><path class="cls-10" d="m95.85,65.77l-4.24-1.39c-.33-.11-.35-.29-.05-.42l3.72-1.51c.29-.12.79-.13,1.12-.03l4.26,1.31c.35.11.39.29.11.42l-3.73,1.6c-.3.13-.83.14-1.18.03Z"/><path class="cls-10" d="m85.18,70.11l-4.31-1.61c-.33-.12-.34-.33-.02-.45l3.95-1.54c.31-.12.83-.12,1.16,0l4.33,1.51c.35.12.39.33.08.45l-3.97,1.63c-.32.13-.87.13-1.22,0Z"/><path class="cls-10" d="m79.39,72.48l-4.27-1.72c-.33-.13-.32-.35.02-.48l4.18-1.63c.32-.13.86-.13,1.19,0l4.3,1.61c.35.13.37.35.05.48l-4.21,1.73c-.34.14-.91.14-1.26,0Z"/><path class="cls-10" d="m85.16,65.84l-4.28-1.51c-.33-.12-.35-.31-.05-.42l3.74-1.43c.29-.11.8-.11,1.13,0l4.3,1.42c.35.12.4.31.11.42l-3.75,1.52c-.3.12-.84.12-1.19,0Z"/><path class="cls-10" d="m90.37,63.76l-4.2-1.4c-.32-.11-.34-.29-.04-.41l3.72-1.49c.29-.12.79-.13,1.11-.03l4.21,1.31c.34.11.39.29.1.42l-3.73,1.58c-.3.13-.83.14-1.17.02Z"/><path class="cls-10" d="m79.69,68.04l-4.26-1.61c-.33-.12-.33-.33-.01-.45l3.95-1.52c.31-.12.82-.12,1.15,0l4.28,1.52c.35.12.38.33.08.45l-3.97,1.61c-.32.13-.87.13-1.22,0Z"/><path class="cls-10" d="m73.9,70.38l-4.22-1.72c-.32-.13-.31-.35.03-.48l4.18-1.6c.32-.12.85-.12,1.18,0l4.26,1.62c.35.13.37.35.04.48l-4.21,1.71c-.34.14-.9.14-1.25,0Z"/><path class="cls-10" d="m79.67,63.8l-4.24-1.51c-.33-.12-.34-.31-.04-.42l3.74-1.41c.29-.11.79-.11,1.12,0l4.25,1.43c.35.12.39.31.1.42l-3.75,1.5c-.3.12-.84.12-1.18,0Z"/><path class="cls-10" d="m84.88,61.75l-4.15-1.41c-.32-.11-.33-.29-.03-.41l3.72-1.47c.29-.11.78-.12,1.11-.02l4.17,1.32c.34.11.38.29.09.41l-3.74,1.55c-.3.13-.83.13-1.17.02Z"/><path class="cls-10" d="m74.2,65.97l-4.21-1.62c-.32-.12-.33-.32,0-.45l3.95-1.49c.31-.12.82-.11,1.15,0l4.23,1.52c.34.12.38.33.07.45l-3.97,1.59c-.32.13-.87.13-1.21,0Z"/><path class="cls-10" d="m68.41,68.27l-4.17-1.73c-.32-.13-.3-.35.03-.47l4.18-1.58c.32-.12.85-.12,1.17,0l4.21,1.62c.34.13.36.35.03.48l-4.21,1.68c-.34.14-.9.13-1.24,0Z"/><path class="cls-10" d="m74.19,61.76l-4.19-1.52c-.32-.12-.34-.3-.03-.42l3.74-1.39c.29-.11.79-.11,1.11,0l4.21,1.43c.34.12.39.31.1.42l-3.76,1.48c-.3.12-.83.12-1.17,0Z"/><path class="cls-10" d="m79.4,59.74l-4.11-1.41c-.32-.11-.33-.29-.03-.41l3.72-1.45c.29-.11.78-.12,1.1-.02l4.13,1.33c.34.11.38.29.09.41l-3.74,1.53c-.3.12-.83.13-1.16.02Z"/><path class="cls-10" d="m68.72,63.9l-4.16-1.62c-.32-.12-.32-.32,0-.44l3.95-1.47c.31-.11.82-.11,1.14,0l4.19,1.53c.34.12.37.33.06.45l-3.98,1.56c-.32.13-.86.12-1.2-.01Z"/><path class="cls-10" d="m62.92,66.16l-4.12-1.73c-.32-.13-.3-.34.04-.47l4.18-1.56c.32-.12.85-.12,1.17,0l4.16,1.63c.34.13.35.35.03.47l-4.21,1.66c-.34.13-.9.13-1.23-.01Z"/><path class="cls-8" d="m91.8,75.34l3.87-1.58c.31-.12.56-.57.56-1v-5.37c0-.43-.25-.67-.56-.55l-3.87,1.58c-.31.12-.56.57-.56,1v5.37c0,.43.25.67.56.55Z"/><path class="cls-8" d="m97.14,73.19l3.87-1.58c.31-.12.56-.57.56-1v-5.37c0-.43-.25-.67-.56-.55l-3.87,1.58c-.31.12-.56.57-.56,1v5.37c0,.43.25.67.56.55Z"/><path class="cls-8" d="m86.28,77.59l3.87-1.58c.31-.12.56-.57.56-1v-5.37c0-.43-.25-.67-.56-.55l-3.87,1.58c-.31.12-.56.57-.56,1v5.37c0,.43.25.67.56.55Z"/><path class="cls-8" d="m80.75,79.84l3.87-1.58c.31-.12.56-.57.56-1v-5.37c0-.43-.25-.67-.56-.55l-3.87,1.58c-.31.12-.56.57-.56,1v5.37c0,.43.25.67.56.55Z"/><path class="cls-8" d="m91.8,82.94l3.87-1.58c.31-.12.56-.57.56-1v-5.37c0-.43-.25-.67-.56-.55l-3.87,1.58c-.31.12-.56.57-.56,1v5.37c0,.43.25.67.56.55Z"/><path class="cls-8" d="m97.14,80.79l3.87-1.58c.31-.12.56-.57.56-1v-5.37c0-.43-.25-.67-.56-.55l-3.87,1.58c-.31.12-.56.57-.56,1v5.37c0,.43.25.67.56.55Z"/><path class="cls-8" d="m86.28,85.19l3.87-1.58c.31-.12.56-.57.56-1v-5.37c0-.43-.25-.67-.56-.55l-3.87,1.58c-.31.12-.56.57-.56,1v5.37c0,.43.25.67.56.55Z"/><path class="cls-8" d="m80.75,87.44l3.87-1.58c.31-.12.56-.57.56-1v-5.37c0-.43-.25-.67-.56-.55l-3.87,1.58c-.31.12-.56.57-.56,1v5.37c0,.43.25.67.56.55Z"/><path class="cls-8" d="m91.8,90.55l3.87-1.58c.31-.12.56-.57.56-1v-5.37c0-.43-.25-.67-.56-.55l-3.87,1.58c-.31.12-.56.57-.56,1v5.37c0,.43.25.67.56.55Z"/><path class="cls-8" d="m97.14,88.4l3.87-1.58c.31-.12.56-.57.56-1v-5.37c0-.43-.25-.67-.56-.55l-3.87,1.58c-.31.12-.56.57-.56,1v5.37c0,.43.25.67.56.55Z"/><path class="cls-8" d="m86.28,92.8l3.87-1.58c.31-.12.56-.57.56-1v-5.37c0-.43-.25-.67-.56-.55l-3.87,1.58c-.31.12-.56.57-.56,1v5.37c0,.43.25.67.56.55Z"/><path class="cls-8" d="m80.75,95.05l3.87-1.58c.31-.12.56-.57.56-1v-5.37c0-.43-.25-.67-.56-.55l-3.87,1.58c-.31.12-.56.57-.56,1v5.37c0,.43.25.67.56.55Z"/><path class="cls-8" d="m91.8,98.15l3.87-1.58c.31-.12.56-.57.56-1v-5.37c0-.43-.25-.67-.56-.55l-3.87,1.58c-.31.12-.56.57-.56,1v5.37c0,.43.25.67.56.55Z"/><path class="cls-8" d="m97.14,96l3.87-1.58c.31-.12.56-.57.56-1v-5.37c0-.43-.25-.67-.56-.55l-3.87,1.58c-.31.12-.56.57-.56,1v5.37c0,.43.25.67.56.55Z"/><path class="cls-8" d="m86.28,100.4l3.87-1.58c.31-.12.56-.57.56-1v-5.37c0-.43-.25-.67-.56-.55l-3.87,1.58c-.31.12-.56.57-.56,1v5.37c0,.43.25.67.56.55Z"/><path class="cls-8" d="m80.75,102.65l3.87-1.58c.31-.12.56-.57.56-1v-5.37c0-.43-.25-.67-.56-.55l-3.87,1.58c-.31.12-.56.57-.56,1v5.37c0,.43.25.67.56.55Z"/><path class="cls-8" d="m67.53,75.15l-3.87-1.58c-.31-.12-.56-.57-.56-1v-5.37c0-.43.25-.67.56-.55l3.87,1.58c.31.12.56.57.56,1v5.37c0,.43-.25.67-.56.55Z"/><path class="cls-8" d="m62.18,72.99l-3.87-1.58c-.31-.12-.56-.57-.56-1v-5.37c0-.43.25-.67.56-.55l3.87,1.58c.31.12.56.57.56,1v5.37c0,.43-.25.67-.56.55Z"/><path class="cls-8" d="m73.05,77.39l-3.87-1.58c-.31-.12-.56-.57-.56-1v-5.37c0-.43.25-.67.56-.55l3.87,1.58c.31.12.56.57.56,1v5.37c0,.43-.25.67-.56.55Z"/><path class="cls-8" d="m78.57,79.64l-3.87-1.58c-.31-.12-.56-.57-.56-1v-5.37c0-.43.25-.67.56-.55l3.87,1.58c.31.12.56.57.56,1v5.37c0,.43-.25.67-.56.55Z"/><path class="cls-8" d="m67.53,82.75l-3.87-1.58c-.31-.12-.56-.57-.56-1v-5.37c0-.43.25-.67.56-.55l3.87,1.58c.31.12.56.57.56,1v5.37c0,.43-.25.67-.56.55Z"/><path class="cls-8" d="m62.18,80.6l-3.87-1.58c-.31-.12-.56-.57-.56-1v-5.37c0-.43.25-.67.56-.55l3.87,1.58c.31.12.56.57.56,1v5.37c0,.43-.25.67-.56.55Z"/><path class="cls-8" d="m73.05,85l-3.87-1.58c-.31-.12-.56-.57-.56-1v-5.37c0-.43.25-.67.56-.55l3.87,1.58c.31.12.56.57.56,1v5.37c0,.43-.25.67-.56.55Z"/><path class="cls-8" d="m78.57,87.25l-3.87-1.58c-.31-.12-.56-.57-.56-1v-5.37c0-.43.25-.67.56-.55l3.87,1.58c.31.12.56.57.56,1v5.37c0,.43-.25.67-.56.55Z"/><path class="cls-8" d="m67.53,90.36l-3.87-1.58c-.31-.12-.56-.57-.56-1v-5.37c0-.43.25-.67.56-.55l3.87,1.58c.31.12.56.57.56,1v5.37c0,.43-.25.67-.56.55Z"/><path class="cls-8" d="m62.18,88.2l-3.87-1.58c-.31-.12-.56-.57-.56-1v-5.37c0-.43.25-.67.56-.55l3.87,1.58c.31.12.56.57.56,1v5.37c0,.43-.25.67-.56.55Z"/><path class="cls-8" d="m73.05,92.6l-3.87-1.58c-.31-.12-.56-.57-.56-1v-5.37c0-.43.25-.67.56-.55l3.87,1.58c.31.12.56.57.56,1v5.37c0,.43-.25.67-.56.55Z"/><path class="cls-8" d="m78.57,94.85l-3.87-1.58c-.31-.12-.56-.57-.56-1v-5.37c0-.43.25-.67.56-.55l3.87,1.58c.31.12.56.57.56,1v5.37c0,.43-.25.67-.56.55Z"/><path class="cls-8" d="m67.53,97.96l-3.87-1.58c-.31-.12-.56-.57-.56-1v-5.37c0-.43.25-.67.56-.55l3.87,1.58c.31.12.56.57.56,1v5.37c0,.43-.25.67-.56.55Z"/><path class="cls-8" d="m62.18,95.81l-3.87-1.58c-.31-.12-.56-.57-.56-1v-5.37c0-.43.25-.67.56-.55l3.87,1.58c.31.12.56.57.56,1v5.37c0,.43-.25.67-.56.55Z"/><path class="cls-8" d="m73.05,100.21l-3.87-1.58c-.31-.12-.56-.57-.56-1v-5.37c0-.43.25-.67.56-.55l3.87,1.58c.31.12.56.57.56,1v5.37c0,.43-.25.67-.56.55Z"/><path class="cls-8" d="m78.57,102.46l-3.87-1.58c-.31-.12-.56-.57-.56-1v-5.37c0-.43.25-.67.56-.55l3.87,1.58c.31.12.56.57.56,1v5.37c0,.43-.25.67-.56.55Z"/></g></g><path class="cls-6" d="m51.91,21.27c-.56,0-1.36.19-1.36.19l-28.26,9.74s-1.21.63-1.8,1.43-.54,1.7-.54,1.7v39.9s-.14.95.23,1.59.83.82.83.82l28.61,12.05s1,.36,2.3.36h.08c1.3,0,2.3-.36,2.3-.36l28.61-12.05s.47-.18.83-.82.23-1.59.23-1.59v-39.9s.05-.91-.54-1.7c-.59-.79-1.8-1.43-1.8-1.43l-28.26-9.74s-.8-.19-1.36-.19h-.08Z"/><path class="cls-25" d="m51.99,89.47h-.08c-1.36,0-2.4-.37-2.45-.39l-28.63-12.06c-.05-.02-.61-.25-1.04-1-.4-.69-.31-1.62-.28-1.83v-39.88s-.05-1.05.63-1.95c.64-.86,1.89-1.52,1.95-1.55l.06-.03,28.26-9.74c.07-.02.9-.22,1.5-.22h.08c.61,0,1.43.2,1.46.2l28.36,9.78c.05.03,1.31.69,1.95,1.55.67.9.63,1.93.63,1.98v39.85c.03.21.11,1.13-.28,1.83-.43.74-.99.98-1.05,1l-28.6,12.04c-.06.02-1.1.4-2.47.4Zm-2.21-1.19s.94.33,2.13.33h.08c1.21,0,2.15-.33,2.15-.34l28.59-12.04s.35-.15.63-.63c.23-.41.21-1.09.17-1.31v-.06s0-39.9,0-39.9c0-.03.03-.79-.46-1.44-.48-.64-1.46-1.19-1.63-1.29l-28.23-9.73h0s-.73-.17-1.22-.17h-.08c-.42,0-1.05.13-1.26.18l-28.19,9.72c-.17.09-1.15.65-1.63,1.29-.48.65-.46,1.42-.46,1.42v39.95s0,.03,0,.03c-.03.22-.06.9.17,1.31.27.48.61.62.62.63l28.62,12.05h0Z"/><g class="cls-1"><path class="cls-10" d="m50.29,28.34l-7.03-2.44c-.54-.19-.53-.5.03-.7l6.91-2.41c.54-.19,1.42-.19,1.96-.02l7.08,2.31c.57.19.61.5.07.7l-6.96,2.55c-.56.21-1.49.21-2.06.01Z"/><path class="cls-10" d="m60.94,32.04l-7.55-2.62c-.58-.2-.59-.54-.03-.74l6.96-2.56c.54-.2,1.46-.21,2.04-.01l7.58,2.48c.62.2.68.54.14.75l-7,2.71c-.57.22-1.53.22-2.15,0Z"/><path class="cls-10" d="m72.4,36.03l-8.12-2.83c-.62-.22-.67-.58-.1-.8l7.01-2.73c.54-.21,1.5-.22,2.12-.01l8.15,2.66c.66.22.76.58.22.8l-7.03,2.89c-.57.23-1.58.24-2.24,0Z"/><path class="cls-10" d="m40.2,32.01l-6.96-2.6c-.54-.2-.49-.53.1-.74l7.27-2.54c.56-.2,1.47-.2,2.01-.01l7.02,2.45c.57.2.58.53,0,.74l-7.34,2.68c-.59.22-1.54.22-2.11,0Z"/><path class="cls-10" d="m50.76,35.96l-7.49-2.8c-.58-.22-.56-.57.03-.79l7.34-2.7c.57-.21,1.51-.21,2.09-.01l7.54,2.64c.61.21.65.57.08.79l-7.4,2.86c-.6.23-1.59.23-2.2,0Z"/><path class="cls-10" d="m62.15,40.21l-8.08-3.02c-.62-.23-.64-.61-.04-.84l7.4-2.88c.57-.22,1.55-.23,2.17,0l8.12,2.84c.66.23.73.61.16.85l-7.44,3.06c-.6.25-1.64.25-2.3,0Z"/><path class="cls-19" d="m29.55,35.89l-6.88-2.77c-.53-.21-.45-.56.17-.78l7.66-2.67c.59-.21,1.52-.21,2.05-.01l6.96,2.61c.57.21.54.57-.06.78l-7.74,2.83c-.63.23-1.6.23-2.16,0Z"/><path class="cls-10" d="m40,40.1l-7.41-2.99c-.57-.23-.52-.61.11-.84l7.75-2.85c.6-.22,1.56-.22,2.14,0l7.48,2.81c.61.23.62.61.01.84l-7.82,3.03c-.63.24-1.65.25-2.25,0Z"/><path class="cls-10" d="m51.3,44.65l-8.02-3.23c-.62-.25-.6-.65.04-.9l7.83-3.05c.61-.24,1.61-.24,2.23,0l8.08,3.03c.66.25.7.65.09.91l-7.89,3.24c-.64.26-1.7.26-2.35,0Z"/><path class="cls-10" d="m29.84,50.21l-7.35-3.05c-.58-.24-1.06-1.11-1.06-1.94v-10.4c0-.82.48-1.3,1.06-1.06l7.35,3.05c.58.24,1.06,1.11,1.06,1.94v10.4c0,.82-.48,1.3-1.06,1.06Z"/><path class="cls-10" d="m40.32,54.56l-7.35-3.05c-.58-.24-1.06-1.11-1.06-1.94v-10.4c0-.82.48-1.3,1.06-1.06l7.35,3.05c.58.24,1.06,1.11,1.06,1.94v10.4c0,.82-.48,1.3-1.06,1.06Z"/><path class="cls-21" d="m50.79,58.92l-7.35-3.05c-.58-.24-1.06-1.11-1.06-1.94v-10.4c0-.82.48-1.3,1.06-1.06l7.35,3.05c.58.24,1.06,1.11,1.06,1.94v10.4c0,.82-.48,1.3-1.06,1.06Z"/><path class="cls-9" d="m29.84,64.55l-7.35-3.05c-.58-.24-1.06-1.11-1.06-1.94v-10.4c0-.82.48-1.3,1.06-1.06l7.35,3.05c.58.24,1.06,1.11,1.06,1.94v10.4c0,.82-.48,1.3-1.06,1.06Z"/><path class="cls-9" d="m40.32,68.91l-7.35-3.05c-.58-.24-1.06-1.11-1.06-1.94v-10.4c0-.82.48-1.3,1.06-1.06l7.35,3.05c.58.24,1.06,1.11,1.06,1.94v10.4c0,.82-.48,1.3-1.06,1.06Z"/><path class="cls-9" d="m50.79,73.26l-7.35-3.05c-.58-.24-1.06-1.11-1.06-1.94v-10.4c0-.82.48-1.3,1.06-1.06l7.35,3.05c.58.24,1.06,1.11,1.06,1.94v10.4c0,.82-.48,1.3-1.06,1.06Z"/><path class="cls-22" d="m29.84,78.9l-7.35-3.05c-.58-.24-1.06-1.11-1.06-1.94v-10.4c0-.82.48-1.3,1.06-1.06l7.35,3.05c.58.24,1.06,1.11,1.06,1.94v10.4c0,.82-.48,1.3-1.06,1.06Z"/><path class="cls-11" d="m40.32,83.25l-7.35-3.05c-.58-.24-1.06-1.11-1.06-1.94v-10.4c0-.82.48-1.3,1.06-1.06l7.35,3.05c.58.24,1.06,1.11,1.06,1.94v10.4c0,.82-.48,1.3-1.06,1.06Z"/><path class="cls-11" d="m50.79,87.6l-7.35-3.05c-.58-.24-1.06-1.11-1.06-1.94v-10.4c0-.82.48-1.3,1.06-1.06l7.35,3.05c.58.24,1.06,1.11,1.06,1.94v10.4c0,.82-.48,1.3-1.06,1.06Z"/><path class="cls-10" d="m74.91,50.21l7.35-3.05c.58-.24,1.06-1.11,1.06-1.94v-10.4c0-.82-.48-1.3-1.06-1.06l-7.35,3.05c-.58.24-1.06,1.11-1.06,1.94v10.4c0,.82.48,1.3,1.06,1.06Z"/><path class="cls-10" d="m64.44,54.56l7.35-3.05c.58-.24,1.06-1.11,1.06-1.94v-10.4c0-.82-.48-1.3-1.06-1.06l-7.35,3.05c-.58.24-1.06,1.11-1.06,1.94v10.4c0,.82.48,1.3,1.06,1.06Z"/><path class="cls-10" d="m53.96,58.92l7.35-3.05c.58-.24,1.06-1.11,1.06-1.94v-10.4c0-.82-.48-1.3-1.06-1.06l-7.35,3.05c-.58.24-1.06,1.11-1.06,1.94v10.4c0,.82.48,1.3,1.06,1.06Z"/><path class="cls-9" d="m74.91,64.55l7.35-3.05c.58-.24,1.06-1.11,1.06-1.94v-10.4c0-.82-.48-1.3-1.06-1.06l-7.35,3.05c-.58.24-1.06,1.11-1.06,1.94v10.4c0,.82.48,1.3,1.06,1.06Z"/><path class="cls-24" d="m64.44,68.91l7.35-3.05c.58-.24,1.06-1.11,1.06-1.94v-10.4c0-.82-.48-1.3-1.06-1.06l-7.35,3.05c-.58.24-1.06,1.11-1.06,1.94v10.4c0,.82.48,1.3,1.06,1.06Z"/><path class="cls-9" d="m53.96,73.26l7.35-3.05c.58-.24,1.06-1.11,1.06-1.94v-10.4c0-.82-.48-1.3-1.06-1.06l-7.35,3.05c-.58.24-1.06,1.11-1.06,1.94v10.4c0,.82.48,1.3,1.06,1.06Z"/><path class="cls-20" d="m74.91,78.9l7.35-3.05c.58-.24,1.06-1.11,1.06-1.94v-10.4c0-.82-.48-1.3-1.06-1.06l-7.35,3.05c-.58.24-1.06,1.11-1.06,1.94v10.4c0,.82.48,1.3,1.06,1.06Z"/><path class="cls-11" d="m64.44,83.25l7.35-3.05c.58-.24,1.06-1.11,1.06-1.94v-10.4c0-.82-.48-1.3-1.06-1.06l-7.35,3.05c-.58.24-1.06,1.11-1.06,1.94v10.4c0,.82.48,1.3,1.06,1.06Z"/><path class="cls-11" d="m53.96,87.6l7.35-3.05c.58-.24,1.06-1.11,1.06-1.94v-10.4c0-.82-.48-1.3-1.06-1.06l-7.35,3.05c-.58.24-1.06,1.11-1.06,1.94v10.4c0,.82.48,1.3,1.06,1.06Z"/></g><path class="cls-28" d="m57.9,94.93c.76.32,21.59,8.99,21.59,8.99l22.65-9.41-.14-29.01s.15-.88-.33-1.55-1.32-.97-1.32-.97l-15.96-5.53v16.75s.12,1.02-.21,1.68-.94,1.07-.94,1.07l-26.19,11.03s0,4.65,0,5.42c0,.84,0,1.17.86,1.53Z"/><path class="cls-29" d="m84.38,34.35l17.93,30.06-.18,30.1-22.59,9.72-19.75-2.07-38.96-25.13,28.06,11.81s1.18.59,3.02.63c1.35,0,2.54-.4,2.54-.4l28.05-11.87s1.21-.54,1.54-.95c.39-.76.37-2.03.37-2.03l-.03-39.88Z"/><path class="cls-3" d="m20.1,104.84c0-2.96,2.17-5.13,5.24-5.13s5.24,2.17,5.24,5.13-2.17,5.12-5.24,5.12-5.24-2.17-5.24-5.12Zm8.1,0c0-1.72-1.14-2.94-2.86-2.94s-2.88,1.22-2.88,2.94,1.16,2.94,2.88,2.94,2.86-1.22,2.86-2.94Z"/><path class="cls-3" d="m31.73,105.96v-9.44h2.35v3.45h5.03v2.13h-5.03v3.86c0,1.3.67,1.81,1.64,1.81s1.64-.49,1.64-1.81v-.26h2.35v.26c0,2.7-1.62,4-3.98,4s-3.98-1.3-3.98-4Z"/><path class="cls-3" d="m44.21,99.16h-3.84v-2.35h10.21v2.35h-3.84v10.55h-2.52v-10.55Z"/><path class="cls-3" d="m51.29,104.84c0-2.96,2.17-5.13,5.24-5.13s5.2,2.17,5.2,5.13v.83h-7.98c.32,1.42,1.4,2.17,2.78,2.17,1.04,0,1.81-.3,2.31-.93h2.5c-.73,1.85-2.5,3.06-4.81,3.06-3.08,0-5.24-2.17-5.24-5.12Zm7.96-1.04c-.37-1.3-1.44-1.95-2.72-1.95s-2.35.67-2.72,1.95h5.44Z"/><path class="cls-3" d="m62.88,104.64c0-3.25,1.93-4.93,4.81-4.93s4.81,1.66,4.81,4.93v5.07h-2.35v-5.07c0-1.85-.99-2.74-2.46-2.74s-2.46.89-2.46,2.74v5.07h-2.35v-5.07Z"/><path class="cls-3" d="m73.66,106.83h2.37c.02.65.59,1.08,1.73,1.08,1.2,0,1.72-.49,1.72-1.08,0-.75-.87-.85-1.91-.99-1.5-.2-3.71-.45-3.71-2.84,0-1.99,1.52-3.29,3.86-3.29s3.84,1.34,3.9,3.06h-2.33c-.06-.59-.61-1.01-1.54-1.01-1.02,0-1.54.49-1.54,1.07,0,.75.89.87,1.93,1,1.3.18,3.69.43,3.69,2.86,0,1.97-1.6,3.27-4.08,3.27s-4.04-1.32-4.1-3.13Z"/><path class="cls-3" d="m82.61,104.84c0-2.96,2.17-5.13,5.24-5.13s5.24,2.17,5.24,5.13-2.17,5.12-5.24,5.12-5.24-2.17-5.24-5.12Zm8.1,0c0-1.72-1.14-2.94-2.86-2.94s-2.88,1.22-2.88,2.94,1.16,2.94,2.88,2.94,2.86-1.22,2.86-2.94Z"/><path class="cls-3" d="m94.23,104.05c0-2.94,1.74-4.34,4.28-4.34s4.26,1.4,4.26,4.38v.06h-2.33v-.1c0-1.58-.79-2.15-1.93-2.15s-1.93.57-1.93,2.15v5.66h-2.35v-5.66Z"/><path class="cls-4" d="m20.1,104.84c0-2.96,2.17-5.13,5.24-5.13s5.24,2.17,5.24,5.13-2.17,5.12-5.24,5.12-5.24-2.17-5.24-5.12Zm8.1,0c0-1.72-1.14-2.94-2.86-2.94s-2.88,1.22-2.88,2.94,1.16,2.94,2.88,2.94,2.86-1.22,2.86-2.94Z"/><path class="cls-4" d="m31.73,105.96v-9.44h2.35v3.45h5.03v2.13h-5.03v3.86c0,1.3.67,1.81,1.64,1.81s1.64-.49,1.64-1.81v-.26h2.35v.26c0,2.7-1.62,4-3.98,4s-3.98-1.3-3.98-4Z"/><path class="cls-4" d="m44.21,99.16h-3.84v-2.35h10.21v2.35h-3.84v10.55h-2.52v-10.55Z"/><path class="cls-4" d="m51.29,104.84c0-2.96,2.17-5.13,5.24-5.13s5.2,2.17,5.2,5.13v.83h-7.98c.32,1.42,1.4,2.17,2.78,2.17,1.04,0,1.81-.3,2.31-.93h2.5c-.73,1.85-2.5,3.06-4.81,3.06-3.08,0-5.24-2.17-5.24-5.12Zm7.96-1.04c-.37-1.3-1.44-1.95-2.72-1.95s-2.35.67-2.72,1.95h5.44Z"/><path class="cls-4" d="m62.88,104.64c0-3.25,1.93-4.93,4.81-4.93s4.81,1.66,4.81,4.93v5.07h-2.35v-5.07c0-1.85-.99-2.74-2.46-2.74s-2.46.89-2.46,2.74v5.07h-2.35v-5.07Z"/><path class="cls-4" d="m73.66,106.83h2.37c.02.65.59,1.08,1.73,1.08,1.2,0,1.72-.49,1.72-1.08,0-.75-.87-.85-1.91-.99-1.5-.2-3.71-.45-3.71-2.84,0-1.99,1.52-3.29,3.86-3.29s3.84,1.34,3.9,3.06h-2.33c-.06-.59-.61-1.01-1.54-1.01-1.02,0-1.54.49-1.54,1.07,0,.75.89.87,1.93,1,1.3.18,3.69.43,3.69,2.86,0,1.97-1.6,3.27-4.08,3.27s-4.04-1.32-4.1-3.13Z"/><path class="cls-4" d="m82.61,104.84c0-2.96,2.17-5.13,5.24-5.13s5.24,2.17,5.24,5.13-2.17,5.12-5.24,5.12-5.24-2.17-5.24-5.12Zm8.1,0c0-1.72-1.14-2.94-2.86-2.94s-2.88,1.22-2.88,2.94,1.16,2.94,2.88,2.94,2.86-1.22,2.86-2.94Z"/><path class="cls-4" d="m94.23,104.05c0-2.94,1.74-4.34,4.28-4.34s4.26,1.4,4.26,4.38v.06h-2.33v-.1c0-1.58-.79-2.15-1.93-2.15s-1.93.57-1.93,2.15v5.66h-2.35v-5.66Z"/><path class="cls-7" d="m20.1,104.84c0-2.96,2.17-5.13,5.24-5.13s5.24,2.17,5.24,5.13-2.17,5.12-5.24,5.12-5.24-2.17-5.24-5.12Zm8.1,0c0-1.72-1.14-2.94-2.86-2.94s-2.88,1.22-2.88,2.94,1.16,2.94,2.88,2.94,2.86-1.22,2.86-2.94Z"/><path class="cls-7" d="m31.73,105.96v-9.44h2.35v3.45h5.03v2.13h-5.03v3.86c0,1.3.67,1.81,1.64,1.81s1.64-.49,1.64-1.81v-.26h2.35v.26c0,2.7-1.62,4-3.98,4s-3.98-1.3-3.98-4Z"/><path class="cls-7" d="m44.21,99.16h-3.84v-2.35h10.21v2.35h-3.84v10.55h-2.52v-10.55Z"/><path class="cls-7" d="m51.29,104.84c0-2.96,2.17-5.13,5.24-5.13s5.2,2.17,5.2,5.13v.83h-7.98c.32,1.42,1.4,2.17,2.78,2.17,1.04,0,1.81-.3,2.31-.93h2.5c-.73,1.85-2.5,3.06-4.81,3.06-3.08,0-5.24-2.17-5.24-5.12Zm7.96-1.04c-.37-1.3-1.44-1.95-2.72-1.95s-2.35.67-2.72,1.95h5.44Z"/><path class="cls-7" d="m62.88,104.64c0-3.25,1.93-4.93,4.81-4.93s4.81,1.66,4.81,4.93v5.07h-2.35v-5.07c0-1.85-.99-2.74-2.46-2.74s-2.46.89-2.46,2.74v5.07h-2.35v-5.07Z"/><path class="cls-7" d="m73.66,106.83h2.37c.02.65.59,1.08,1.73,1.08,1.2,0,1.72-.49,1.72-1.08,0-.75-.87-.85-1.91-.99-1.5-.2-3.71-.45-3.71-2.84,0-1.99,1.52-3.29,3.86-3.29s3.84,1.34,3.9,3.06h-2.33c-.06-.59-.61-1.01-1.54-1.01-1.02,0-1.54.49-1.54,1.07,0,.75.89.87,1.93,1,1.3.18,3.69.43,3.69,2.86,0,1.97-1.6,3.27-4.08,3.27s-4.04-1.32-4.1-3.13Z"/><path class="cls-7" d="m82.61,104.84c0-2.96,2.17-5.13,5.24-5.13s5.24,2.17,5.24,5.13-2.17,5.12-5.24,5.12-5.24-2.17-5.24-5.12Zm8.1,0c0-1.72-1.14-2.94-2.86-2.94s-2.88,1.22-2.88,2.94,1.16,2.94,2.88,2.94,2.86-1.22,2.86-2.94Z"/><path class="cls-7" d="m94.23,104.05c0-2.94,1.74-4.34,4.28-4.34s4.26,1.4,4.26,4.38v.06h-2.33v-.1c0-1.58-.79-2.15-1.93-2.15s-1.93.57-1.93,2.15v5.66h-2.35v-5.66Z"/><path class="cls-23" d="m20.1,104.84c0-2.96,2.17-5.13,5.24-5.13s5.24,2.17,5.24,5.13-2.17,5.12-5.24,5.12-5.24-2.17-5.24-5.12Zm8.1,0c0-1.72-1.14-2.94-2.86-2.94s-2.88,1.22-2.88,2.94,1.16,2.94,2.88,2.94,2.86-1.22,2.86-2.94Z"/><path class="cls-16" d="m31.73,105.96v-9.44h2.35v3.45h5.03v2.13h-5.03v3.86c0,1.3.67,1.81,1.64,1.81s1.64-.49,1.64-1.81v-.26h2.35v.26c0,2.7-1.62,4-3.98,4s-3.98-1.3-3.98-4Z"/><path class="cls-18" d="m44.21,99.16h-3.84v-2.35h10.21v2.35h-3.84v10.55h-2.52v-10.55Z"/><path class="cls-17" d="m51.29,104.84c0-2.96,2.17-5.13,5.24-5.13s5.2,2.17,5.2,5.13v.83h-7.98c.32,1.42,1.4,2.17,2.78,2.17,1.04,0,1.81-.3,2.31-.93h2.5c-.73,1.85-2.5,3.06-4.81,3.06-3.08,0-5.24-2.17-5.24-5.12Zm7.96-1.04c-.37-1.3-1.44-1.95-2.72-1.95s-2.35.67-2.72,1.95h5.44Z"/><path class="cls-13" d="m62.88,104.64c0-3.25,1.93-4.93,4.81-4.93s4.81,1.66,4.81,4.93v5.07h-2.35v-5.07c0-1.85-.99-2.74-2.46-2.74s-2.46.89-2.46,2.74v5.07h-2.35v-5.07Z"/><path class="cls-12" d="m73.66,106.83h2.37c.02.65.59,1.08,1.73,1.08,1.2,0,1.72-.49,1.72-1.08,0-.75-.87-.85-1.91-.99-1.5-.2-3.71-.45-3.71-2.84,0-1.99,1.52-3.29,3.86-3.29s3.84,1.34,3.9,3.06h-2.33c-.06-.59-.61-1.01-1.54-1.01-1.02,0-1.54.49-1.54,1.07,0,.75.89.87,1.93,1,1.3.18,3.69.43,3.69,2.86,0,1.97-1.6,3.27-4.08,3.27s-4.04-1.32-4.1-3.13Z"/><path class="cls-15" d="m82.61,104.84c0-2.96,2.17-5.13,5.24-5.13s5.24,2.17,5.24,5.13-2.17,5.12-5.24,5.12-5.24-2.17-5.24-5.12Zm8.1,0c0-1.72-1.14-2.94-2.86-2.94s-2.88,1.22-2.88,2.94,1.16,2.94,2.88,2.94,2.86-1.22,2.86-2.94Z"/><path class="cls-14" d="m94.23,104.05c0-2.94,1.74-4.34,4.28-4.34s4.26,1.4,4.26,4.38v.06h-2.33v-.1c0-1.58-.79-2.15-1.93-2.15s-1.93.57-1.93,2.15v5.66h-2.35v-5.66Z"/><path class="cls-6" d="m10.27,52.96c-.07-.14-.18-.38-.18-.83,0-.91.56-1.43,1.41-1.43.91,0,1.44.63,1.44,1.41,0,.32-.07.59-.24.86l-.63-.18c.09-.11.22-.29.22-.62,0-.47-.32-.76-.77-.76-.35,0-.78.16-.78.77,0,.4.18.68.24.78h-.71Z"/><path class="cls-6" d="m10.15,53.38h2.7v.68h-.26c.22.15.36.41.33.79h-.65c.02-.35-.04-.76-.62-.76h-1.5v-.71Z"/><path class="cls-6" d="m12.67,55.32c.17.31.25.61.25.96,0,.45-.14.78-.37.97-.17.14-.37.2-.7.2h-1.01c-.37,0-.55.05-.68.1v-.67c.06-.03.12-.05.24-.05-.22-.22-.32-.5-.32-.8,0-.5.3-.91.85-.91.69,0,.84.59.92,1.09.07.47.09.55.22.55.11,0,.23-.11.23-.45s-.11-.64-.3-.93l.67-.06Zm-1.24,1.45c-.06-.12-.08-.24-.12-.55-.04-.28-.13-.44-.35-.44-.16,0-.28.1-.28.32,0,.15.05.45.4.68h.36Z"/><path class="cls-6" d="m10.15,57.98h2.7v.68h-.26c.09.07.33.27.33.72,0,.47-.28.71-.44.79-.2.1-.42.12-.81.12h-1.52v-.71h1.54c.24,0,.58,0,.58-.41,0-.08-.02-.49-.58-.49h-1.54v-.71Z"/><path class="cls-6" d="m10.95,61.6h-.79v-.79h.79v.79Z"/><path class="cls-6" d="m10.15,62.13h2.7v.68h-.26c.22.15.36.41.33.79h-.65c.02-.35-.04-.76-.62-.76h-1.5v-.71Z"/><path class="cls-6" d="m11.84,65.14h-.68v-1.32h.68v1.32Z"/><path class="cls-6" d="m12.59,66.19c.09.09.33.32.33.75,0,.76-.67,1.19-1.42,1.19s-1.42-.4-1.42-1.19c0-.36.17-.59.29-.73h-1.42v-.71h3.9v.68h-.26Zm-1.86.63c0,.37.3.6.78.6s.77-.22.77-.6c0-.14-.05-.62-.77-.62s-.78.48-.78.62Z"/><path class="cls-6" d="m10.15,68.51h2.7v.68h-.26c.22.15.36.41.33.79h-.65c.02-.35-.04-.76-.62-.76h-1.5v-.71Z"/><path class="cls-6" d="m12.92,71.57c0,.72-.55,1.34-1.42,1.34s-1.42-.62-1.42-1.34.54-1.33,1.42-1.33,1.42.63,1.42,1.33Zm-2.19,0c0,.41.32.63.78.63.77,0,.77-.58.77-.63,0-.22-.13-.63-.77-.63-.45,0-.78.22-.78.63Z"/><path class="cls-6" d="m10.11,74.59c-.51,0-1.16,0-1.16-.87,0-.29.09-.47.14-.6l.61.05c-.04.09-.1.23-.1.41,0,.27.2.3.41.3h2.84v.71h-2.74Zm3.05.03v-.77h.73v.77h-.73Z"/><path class="cls-6" d="m11.28,75.78c-.17.02-.59.07-.59.73,0,.39.1.62.22.85h-.66c-.05-.14-.17-.43-.17-.88,0-1.19.91-1.4,1.4-1.4.85,0,1.44.52,1.44,1.26,0,.27-.09.84-.74,1.1-.28.11-.61.14-.9.14v-1.79Zm.51,1.09c.52-.07.52-.47.52-.54,0-.45-.42-.52-.52-.54v1.08Z"/><path class="cls-6" d="m10.27,80.14c-.07-.14-.18-.38-.18-.83,0-.91.56-1.43,1.41-1.43.91,0,1.44.63,1.44,1.41,0,.32-.07.59-.24.86l-.63-.18c.09-.11.22-.29.22-.62,0-.47-.32-.76-.77-.76-.35,0-.78.16-.78.77,0,.4.18.68.24.78h-.71Z"/><path class="cls-6" d="m13.64,80.69v.71h-.78v.72h-.65v-.72h-1.17c-.22,0-.31.05-.31.3,0,.15.02.29.03.37h-.64c0-.08-.04-.3-.04-.55,0-.83.47-.83.91-.83h1.22v-.31h.65v.31h.78Z"/><path class="cls-6" d="m10.95,83.26h-.79v-.79h.79v.79Z"/><path class="cls-6" d="m12.92,85.02c0,.72-.55,1.34-1.42,1.34s-1.42-.62-1.42-1.34.54-1.33,1.42-1.33,1.42.63,1.42,1.33Zm-2.19,0c0,.41.32.63.78.63.77,0,.77-.58.77-.63,0-.22-.13-.63-.77-.63-.45,0-.78.22-.78.63Z"/><path class="cls-6" d="m10.15,86.75h2.7v.68h-.26c.22.15.36.41.33.79h-.65c.02-.35-.04-.76-.62-.76h-1.5v-.71Z"/><path class="cls-6" d="m12.3,91.01s.03-.1.03-.18c0-.07-.01-.12-.03-.16-.06.03-.17.07-.36.07-.64,0-.91-.55-.91-1.1,0-.07,0-.13,0-.17-.03-.06-.09-.13-.15-.13-.11,0-.13.17-.14.47-.03.61-.14,1.22-.86,1.22-.82,0-.93-.91-.93-1.37,0-.86.4-1.22.87-1.22.43,0,.63.31.68.4.06-.08.16-.22.37-.22s.35.17.39.22c.26-.34.63-.34.71-.34.56,0,.96.46.96,1.12,0,.32-.09.5-.13.6.13.21.13.42.13.48,0,.17-.03.23-.06.31h-.56Zm-2.09-1.38c0-.27-.07-.48-.33-.48-.3,0-.34.36-.34.58,0,.14.02.6.36.6.26,0,.32-.3.32-.7Zm1.75-.44c-.23,0-.37.18-.37.44s.16.45.39.45c.2,0,.38-.14.38-.44,0-.25-.15-.45-.4-.45Z"/></g></svg>