<?xml version="1.0" encoding="UTF-8"?><svg id="_レイヤー_2" xmlns="http://www.w3.org/2000/svg" xmlns:xlink="http://www.w3.org/1999/xlink" viewBox="0 0 144.94 140.74"><defs><style>.cls-1{opacity:.83;}.cls-1,.cls-2{fill:none;}.cls-2{opacity:.85;}.cls-3{fill:#fff;}.cls-4{fill:#989898;}.cls-5{fill:#c2c2c2;}.cls-6{fill:#b3b3b3;}.cls-7{fill:#d5d5d5;}.cls-8{fill:url(#_名称未設定グラデーション_14-4);}.cls-9{fill:url(#_名称未設定グラデーション_14-5);}.cls-10{fill:url(#_名称未設定グラデーション_14-6);}.cls-11{fill:url(#_名称未設定グラデーション_14-7);}.cls-12{fill:url(#_名称未設定グラデーション_14-3);}.cls-13{fill:url(#_名称未設定グラデーション_14-2);}.cls-14{fill:url(#_名称未設定グラデーション_14);}.cls-15{fill:url(#_名称未設定グラデーション_3);}.cls-16{fill:url(#_名称未設定グラデーション_2);}</style><linearGradient id="_名称未設定グラデーション_14" x1="75.27" y1="71.44" x2="140.14" y2="139.18" gradientUnits="userSpaceOnUse"><stop offset="0" stop-color="#ee87b4"/><stop offset="1" stop-color="#00b9ef"/></linearGradient><linearGradient id="_名称未設定グラデーション_14-2" x1="18.2" y1="18.46" x2="109.34" y2="113.64" xlink:href="#_名称未設定グラデーション_14"/><linearGradient id="_名称未設定グラデーション_14-3" x1="4.78" y1="20.15" x2="34.48" y2="20.15" xlink:href="#_名称未設定グラデーション_14"/><linearGradient id="_名称未設定グラデーション_14-4" x1="38.66" y1="50.39" x2="54.62" y2="50.39" xlink:href="#_名称未設定グラデーション_14"/><linearGradient id="_名称未設定グラデーション_14-5" x1="3.3" y1="84.11" x2="19.26" y2="84.11" xlink:href="#_名称未設定グラデーション_14"/><linearGradient id="_名称未設定グラデーション_14-6" x1="74.09" y1="67.25" x2="90.05" y2="67.25" xlink:href="#_名称未設定グラデーション_14"/><linearGradient id="_名称未設定グラデーション_14-7" x1="91.76" y1="84.11" x2="107.73" y2="84.11" xlink:href="#_名称未設定グラデーション_14"/><linearGradient id="_名称未設定グラデーション_3" x1="60.95" y1="116.63" x2="143.98" y2="87.46" gradientUnits="userSpaceOnUse"><stop offset="0" stop-color="#ee87b4"/><stop offset="1" stop-color="#00b9ef" stop-opacity="0"/></linearGradient><linearGradient id="_名称未設定グラデーション_2" x1="2.27" y1="81.77" x2="139.8" y2="81.77" gradientUnits="userSpaceOnUse"><stop offset="0" stop-color="#ee87b4"/><stop offset="1" stop-color="#00b9ef" stop-opacity=".2"/></linearGradient></defs><g id="_レイヤー_1-2"><g class="cls-2"><path class="cls-3" d="m101.27,58.81c-.67,0-1.64.23-1.64.23l-33.95,11.7s-1.46.76-2.16,1.71c-.71.95-.65,2.04-.65,2.04v47.94s-.16,1.14.27,1.9,1,.98,1,.98l34.37,14.47s1.2.44,2.76.44h.09c1.57,0,2.76-.44,2.76-.44l34.37-14.47s.56-.22,1-.98.27-1.9.27-1.9v-47.94s.05-1.09-.65-2.04c-.71-.95-2.16-1.71-2.16-1.71l-33.95-11.7s-.96-.23-1.64-.23h-.09Z"/><path class="cls-14" d="m101.36,140.74h-.09c-1.64,0-2.89-.45-2.94-.47l-34.39-14.48c-.06-.02-.73-.3-1.25-1.2-.48-.83-.37-1.94-.34-2.19v-47.9s-.05-1.26.75-2.35c.77-1.03,2.28-1.83,2.34-1.86l.07-.03,33.95-11.7c.09-.02,1.08-.26,1.8-.26h.09c.73,0,1.71.23,1.76.24l34.07,11.74c.06.03,1.57.83,2.34,1.86.81,1.09.76,2.32.75,2.37v47.88c.03.25.14,1.36-.34,2.19-.51.89-1.18,1.17-1.26,1.2l-34.36,14.47c-.08.03-1.32.48-2.96.48Zm-2.66-1.43s1.13.4,2.56.4h.09c1.45,0,2.58-.4,2.59-.4l34.35-14.46s.42-.18.75-.76c.28-.49.25-1.31.21-1.58v-.07s0-47.94,0-47.94c0-.03.03-.95-.55-1.73-.57-.77-1.75-1.43-1.96-1.55l-33.91-11.68h0s-.88-.2-1.47-.2h-.09c-.5,0-1.26.16-1.52.22l-33.86,11.67c-.21.11-1.39.78-1.96,1.55-.58.78-.55,1.7-.55,1.71v48s0,.04,0,.04c-.04.27-.07,1.08.21,1.58.33.58.73.75.74.76l34.38,14.48h0Z"/><g class="cls-1"><path class="cls-6" d="m120.1,79.39l-7.31-2.54c-.56-.2-.6-.52-.09-.72l6.31-2.46c.49-.19,1.35-.2,1.91-.01l7.33,2.39c.6.19.69.52.2.72l-6.33,2.61c-.51.21-1.42.21-2.02,0Z"/><path class="cls-6" d="m128.89,75.83l-7.16-2.35c-.55-.18-.58-.5-.08-.7l6.27-2.55c.49-.2,1.33-.22,1.89-.05l7.18,2.21c.58.18.67.5.18.71l-6.3,2.7c-.51.22-1.41.24-1.99.05Z"/><path class="cls-6" d="m110.87,83.17l-7.27-2.71c-.56-.21-.57-.55-.03-.76l6.66-2.6c.52-.2,1.39-.21,1.96,0l7.31,2.55c.59.21.66.55.14.77l-6.7,2.76c-.54.22-1.47.23-2.07,0Z"/><path class="cls-6" d="m101.1,87.16l-7.21-2.9c-.55-.22-.54-.59.03-.81l7.05-2.75c.55-.21,1.45-.22,2,0l7.26,2.72c.59.22.63.59.08.81l-7.1,2.92c-.58.24-1.53.24-2.12,0Z"/><path class="cls-6" d="m110.84,75.95l-7.23-2.55c-.56-.2-.59-.52-.08-.71l6.31-2.42c.49-.19,1.34-.19,1.9,0l7.26,2.4c.59.2.68.52.18.72l-6.33,2.57c-.51.21-1.42.21-2,0Z"/><path class="cls-6" d="m119.63,72.44l-7.08-2.36c-.54-.18-.57-.5-.07-.7l6.27-2.52c.49-.19,1.33-.21,1.88-.04l7.11,2.22c.58.18.66.5.17.7l-6.3,2.66c-.51.22-1.4.23-1.98.04Z"/><path class="cls-6" d="m101.61,79.67l-7.19-2.72c-.55-.21-.56-.55-.02-.76l6.66-2.56c.52-.2,1.39-.2,1.95,0l7.23,2.56c.59.21.65.55.13.76l-6.7,2.72c-.54.22-1.47.22-2.05,0Z"/><path class="cls-6" d="m91.84,83.61l-7.13-2.91c-.55-.22-.52-.58.05-.8l7.05-2.71c.55-.21,1.44-.21,1.99,0l7.18,2.73c.59.22.62.59.07.81l-7.11,2.88c-.58.23-1.53.23-2.11,0Z"/><path class="cls-6" d="m101.58,72.51l-7.15-2.56c-.55-.2-.58-.52-.07-.71l6.31-2.39c.49-.18,1.34-.18,1.89,0l7.18,2.41c.58.2.66.52.17.71l-6.34,2.53c-.51.2-1.41.2-1.99,0Z"/><path class="cls-6" d="m110.38,69.04l-7.01-2.37c-.54-.18-.56-.5-.05-.7l6.28-2.48c.49-.19,1.32-.21,1.87-.04l7.04,2.23c.57.18.64.5.16.7l-6.31,2.62c-.51.21-1.4.23-1.97.03Z"/><path class="cls-6" d="m92.35,76.17l-7.1-2.73c-.55-.21-.55-.55,0-.75l6.66-2.52c.52-.2,1.38-.19,1.93,0l7.15,2.57c.58.21.64.55.12.76l-6.71,2.68c-.54.22-1.46.21-2.04-.01Z"/><path class="cls-6" d="m82.57,80.05l-7.04-2.91c-.54-.22-.51-.58.06-.8l7.05-2.67c.55-.21,1.44-.2,1.98,0l7.1,2.74c.58.22.61.59.06.81l-7.11,2.84c-.58.23-1.52.22-2.09-.01Z"/><path class="cls-6" d="m92.33,69.07l-7.07-2.57c-.54-.2-.57-.51-.06-.7l6.31-2.35c.49-.18,1.33-.18,1.88,0l7.1,2.42c.58.2.65.52.16.71l-6.34,2.49c-.51.2-1.41.2-1.98-.01Z"/><path class="cls-6" d="m101.13,65.65l-6.93-2.39c-.53-.18-.55-.49-.04-.69l6.28-2.44c.49-.19,1.32-.2,1.86-.03l6.96,2.24c.57.18.63.5.14.7l-6.31,2.59c-.51.21-1.39.22-1.96.03Z"/><path class="cls-6" d="m83.09,72.67l-7.02-2.74c-.54-.21-.54-.55,0-.75l6.66-2.48c.52-.19,1.38-.19,1.92.01l7.07,2.58c.58.21.62.55.11.75l-6.71,2.64c-.54.21-1.46.21-2.03-.02Z"/><path class="cls-6" d="m73.31,76.5l-6.96-2.92c-.53-.22-.5-.58.07-.79l7.05-2.62c.55-.2,1.43-.2,1.97.01l7.02,2.75c.57.22.59.58.04.8l-7.11,2.8c-.58.23-1.51.22-2.08-.02Z"/><path class="cls-4" d="m122.05,91.98l6.54-2.66c.52-.21.94-.97.94-1.69v-9.07c0-.72-.42-1.13-.94-.92l-6.54,2.66c-.52.21-.94.97-.94,1.69v9.07c0,.72.42,1.13.94.92Z"/><path class="cls-4" d="m131.07,88.35l6.54-2.66c.52-.21.94-.97.94-1.69v-9.07c0-.72-.42-1.13-.94-.92l-6.54,2.66c-.52.21-.94.97-.94,1.69v9.07c0,.72.42,1.13.94.92Z"/><path class="cls-4" d="m112.73,95.78l6.54-2.66c.52-.21.94-.97.94-1.69v-9.07c0-.72-.42-1.13-.94-.92l-6.54,2.66c-.52.21-.94.97-.94,1.69v9.07c0,.72.42,1.13.94.92Z"/><path class="cls-4" d="m103.41,99.58l6.54-2.66c.52-.21.94-.97.94-1.69v-9.07c0-.72-.42-1.13-.94-.92l-6.54,2.66c-.52.21-.94.97-.94,1.69v9.07c0,.72.42,1.13.94.92Z"/><path class="cls-4" d="m122.05,104.82l6.54-2.66c.52-.21.94-.97.94-1.69v-9.07c0-.72-.42-1.13-.94-.92l-6.54,2.66c-.52.21-.94.97-.94,1.69v9.07c0,.72.42,1.13.94.92Z"/><path class="cls-4" d="m131.07,101.19l6.54-2.66c.52-.21.94-.97.94-1.69v-9.07c0-.72-.42-1.13-.94-.92l-6.54,2.66c-.52.21-.94.97-.94,1.69v9.07c0,.72.42,1.13.94.92Z"/><path class="cls-4" d="m112.73,108.62l6.54-2.66c.52-.21.94-.97.94-1.69v-9.07c0-.72-.42-1.13-.94-.92l-6.54,2.66c-.52.21-.94.97-.94,1.69v9.07c0,.72.42,1.13.94.92Z"/><path class="cls-4" d="m103.41,112.41l6.54-2.66c.52-.21.94-.97.94-1.69v-9.07c0-.72-.42-1.13-.94-.92l-6.54,2.66c-.52.21-.94.97-.94,1.69v9.07c0,.72.42,1.13.94.92Z"/><path class="cls-4" d="m122.05,117.66l6.54-2.66c.52-.21.94-.97.94-1.69v-9.07c0-.72-.42-1.13-.94-.92l-6.54,2.66c-.52.21-.94.97-.94,1.69v9.07c0,.72.42,1.13.94.92Z"/><path class="cls-4" d="m131.07,114.02l6.54-2.66c.52-.21.94-.97.94-1.69v-9.07c0-.72-.42-1.13-.94-.92l-6.54,2.66c-.52.21-.94.97-.94,1.69v9.07c0,.72.42,1.13.94.92Z"/><path class="cls-4" d="m112.73,121.45l6.54-2.66c.52-.21.94-.97.94-1.69v-9.07c0-.72-.42-1.13-.94-.92l-6.54,2.66c-.52.21-.94.97-.94,1.69v9.07c0,.72.42,1.13.94.92Z"/><path class="cls-4" d="m103.41,125.25l6.54-2.66c.52-.21.94-.97.94-1.69v-9.07c0-.72-.42-1.13-.94-.92l-6.54,2.66c-.52.21-.94.97-.94,1.69v9.07c0,.72.42,1.13.94.92Z"/><path class="cls-4" d="m122.05,130.49l6.54-2.66c.52-.21.94-.97.94-1.69v-9.07c0-.72-.42-1.13-.94-.92l-6.54,2.66c-.52.21-.94.97-.94,1.69v9.07c0,.72.42,1.13.94.92Z"/><path class="cls-4" d="m131.07,126.86l6.54-2.66c.52-.21.94-.97.94-1.69v-9.07c0-.72-.42-1.13-.94-.92l-6.54,2.66c-.52.21-.94.97-.94,1.69v9.07c0,.72.42,1.13.94.92Z"/><path class="cls-4" d="m112.73,134.29l6.54-2.66c.52-.21.94-.97.94-1.69v-9.07c0-.72-.42-1.13-.94-.92l-6.54,2.66c-.52.21-.94.97-.94,1.69v9.07c0,.72.42,1.13.94.92Z"/><path class="cls-4" d="m103.41,138.08l6.54-2.66c.52-.21.94-.97.94-1.69v-9.07c0-.72-.42-1.13-.94-.92l-6.54,2.66c-.52.21-.94.97-.94,1.69v9.07c0,.72.42,1.13.94.92Z"/><path class="cls-4" d="m81.09,91.66l-6.54-2.66c-.52-.21-.94-.97-.94-1.69v-9.07c0-.72.42-1.13.94-.92l6.54,2.66c.52.21.94.97.94,1.69v9.07c0,.72-.42,1.13-.94.92Z"/><path class="cls-4" d="m72.07,88.03l-6.54-2.66c-.52-.21-.94-.97-.94-1.69v-9.07c0-.72.42-1.13.94-.92l6.54,2.66c.52.21.94.97.94,1.69v9.07c0,.72-.42,1.13-.94.92Z"/><path class="cls-4" d="m90.41,95.46l-6.54-2.66c-.52-.21-.94-.97-.94-1.69v-9.07c0-.72.42-1.13.94-.92l6.54,2.66c.52.21.94.97.94,1.69v9.07c0,.72-.42,1.13-.94.92Z"/><path class="cls-4" d="m99.73,99.25l-6.54-2.66c-.52-.21-.94-.97-.94-1.69v-9.07c0-.72.42-1.13.94-.92l6.54,2.66c.52.21.94.97.94,1.69v9.07c0,.72-.42,1.13-.94.92Z"/><path class="cls-4" d="m81.09,104.49l-6.54-2.66c-.52-.21-.94-.97-.94-1.69v-9.07c0-.72.42-1.13.94-.92l6.54,2.66c.52.21.94.97.94,1.69v9.07c0,.72-.42,1.13-.94.92Z"/><path class="cls-4" d="m72.07,100.86l-6.54-2.66c-.52-.21-.94-.97-.94-1.69v-9.07c0-.72.42-1.13.94-.92l6.54,2.66c.52.21.94.97.94,1.69v9.07c0,.72-.42,1.13-.94.92Z"/><path class="cls-4" d="m90.41,108.29l-6.54-2.66c-.52-.21-.94-.97-.94-1.69v-9.07c0-.72.42-1.13.94-.92l6.54,2.66c.52.21.94.97.94,1.69v9.07c0,.72-.42,1.13-.94.92Z"/><path class="cls-4" d="m99.73,112.09l-6.54-2.66c-.52-.21-.94-.97-.94-1.69v-9.07c0-.72.42-1.13.94-.92l6.54,2.66c.52.21.94.97.94,1.69v9.07c0,.72-.42,1.13-.94.92Z"/><path class="cls-4" d="m81.09,117.33l-6.54-2.66c-.52-.21-.94-.97-.94-1.69v-9.07c0-.72.42-1.13.94-.92l6.54,2.66c.52.21.94.97.94,1.69v9.07c0,.72-.42,1.13-.94.92Z"/><path class="cls-4" d="m72.07,113.7l-6.54-2.66c-.52-.21-.94-.97-.94-1.69v-9.07c0-.72.42-1.13.94-.92l6.54,2.66c.52.21.94.97.94,1.69v9.07c0,.72-.42,1.13-.94.92Z"/><path class="cls-4" d="m90.41,121.13l-6.54-2.66c-.52-.21-.94-.97-.94-1.69v-9.07c0-.72.42-1.13.94-.92l6.54,2.66c.52.21.94.97.94,1.69v9.07c0,.72-.42,1.13-.94.92Z"/><path class="cls-4" d="m99.73,124.92l-6.54-2.66c-.52-.21-.94-.97-.94-1.69v-9.07c0-.72.42-1.13.94-.92l6.54,2.66c.52.21.94.97.94,1.69v9.07c0,.72-.42,1.13-.94.92Z"/><path class="cls-4" d="m81.09,130.17l-6.54-2.66c-.52-.21-.94-.97-.94-1.69v-9.07c0-.72.42-1.13.94-.92l6.54,2.66c.52.21.94.97.94,1.69v9.07c0,.72-.42,1.13-.94.92Z"/><path class="cls-4" d="m72.07,126.53l-6.54-2.66c-.52-.21-.94-.97-.94-1.69v-9.07c0-.72.42-1.13.94-.92l6.54,2.66c.52.21.94.97.94,1.69v9.07c0,.72-.42,1.13-.94.92Z"/><path class="cls-4" d="m90.41,133.96l-6.54-2.66c-.52-.21-.94-.97-.94-1.69v-9.07c0-.72.42-1.13.94-.92l6.54,2.66c.52.21.94.97.94,1.69v9.07c0,.72-.42,1.13-.94.92Z"/><path class="cls-4" d="m99.73,137.76l-6.54-2.66c-.52-.21-.94-.97-.94-1.69v-9.07c0-.72.42-1.13.94-.92l6.54,2.66c.52.21.94.97.94,1.69v9.07c0,.72-.42,1.13-.94.92Z"/></g></g><path class="cls-3" d="m54.73.72c-.95,0-2.3.32-2.3.32L4.73,17.48s-2.05,1.07-3.04,2.41c-.99,1.34-.92,2.87-.92,2.87v67.35s-.23,1.61.38,2.68,1.4,1.38,1.4,1.38l48.29,20.34s1.68.61,3.88.61h.13c2.2,0,3.88-.61,3.88-.61l48.29-20.34s.79-.31,1.4-1.38c.61-1.07.38-2.68.38-2.68V22.76s.08-1.53-.92-2.87c-.99-1.34-3.04-2.41-3.04-2.41L57.15,1.05s-1.35-.32-2.3-.32h-.13Z"/><path class="cls-13" d="m54.86,115.83h-.13c-2.3,0-4.06-.63-4.13-.66L2.27,94.83c-.09-.03-1.03-.43-1.75-1.68-.67-1.17-.52-2.73-.48-3.08V22.76s-.08-1.77,1.06-3.3c1.08-1.45,3.2-2.57,3.29-2.62l.1-.04L52.19.36c.13-.03,1.51-.36,2.53-.36h.13c1.02,0,2.41.33,2.47.34l47.87,16.5c.09.05,2.21,1.16,3.29,2.62,1.14,1.53,1.06,3.26,1.06,3.34v67.27c.04.35.19,1.91-.48,3.08-.72,1.26-1.66,1.65-1.77,1.69l-48.27,20.33c-.11.04-1.86.67-4.16.67Zm-3.73-2s1.58.56,3.6.56h.13c2.04,0,3.62-.56,3.64-.57l48.26-20.32s.59-.26,1.06-1.07c.4-.69.35-1.84.29-2.22v-.1s0-67.35,0-67.35c0-.05.04-1.34-.77-2.44-.81-1.08-2.46-2.01-2.75-2.17L56.92,1.73h0s-1.24-.29-2.06-.29h-.13c-.71,0-1.78.22-2.13.3L5.02,18.15c-.29.16-1.95,1.09-2.75,2.17-.82,1.1-.78,2.39-.78,2.4v67.44s0,.05,0,.05c-.05.38-.1,1.52.29,2.21.46.81,1.02,1.05,1.05,1.06l48.3,20.34h0Z"/><g class="cls-1"><path class="cls-6" d="m52,12.66l-11.86-4.13c-.91-.32-.89-.85.05-1.18l11.67-4.07c.91-.32,2.39-.33,3.32-.03l11.94,3.9c.97.32,1.02.85.11,1.18l-11.75,4.3c-.95.35-2.52.36-3.48.02Z"/><path class="cls-6" d="m69.97,18.91l-12.74-4.43c-.98-.34-1-.91-.05-1.25l11.76-4.32c.91-.34,2.46-.35,3.45-.02l12.8,4.18c1.04.34,1.15.91.23,1.26l-11.82,4.57c-.96.37-2.59.38-3.63.02Z"/><path class="cls-6" d="m89.31,25.64l-13.71-4.77c-1.05-.37-1.13-.97-.17-1.34l11.83-4.6c.92-.36,2.53-.37,3.59-.02l13.76,4.49c1.12.37,1.29.97.37,1.35l-11.87,4.88c-.96.39-2.67.4-3.78.01Z"/><path class="cls-6" d="m34.96,18.86l-11.75-4.39c-.9-.34-.83-.9.16-1.24l12.28-4.28c.95-.33,2.47-.34,3.39-.02l11.85,4.14c.96.34.97.9.01,1.25l-12.38,4.53c-1,.37-2.61.37-3.56.02Z"/><path class="cls-6" d="m52.79,25.52l-12.64-4.72c-.97-.36-.94-.96.06-1.33l12.39-4.56c.96-.35,2.54-.36,3.52-.02l12.73,4.45c1.04.36,1.1.96.13,1.34l-12.48,4.83c-1.01.39-2.68.4-3.71.01Z"/><path class="cls-6" d="m72.02,32.7l-13.64-5.09c-1.05-.39-1.07-1.03-.06-1.43l12.49-4.86c.97-.38,2.62-.38,3.67-.01l13.71,4.79c1.12.39,1.24,1.04.27,1.44l-12.56,5.16c-1.02.42-2.76.42-3.88,0Z"/><path class="cls-12" d="m16.98,25.4l-11.6-4.67c-.89-.36-.76-.95.28-1.32l12.94-4.51c1-.35,2.56-.36,3.46-.02l11.74,4.41c.95.36.91.95-.1,1.32l-13.07,4.78c-1.06.39-2.7.39-3.64.01Z"/><path class="cls-6" d="m34.62,32.5l-12.51-5.04c-.96-.39-.88-1.02.18-1.41l13.08-4.81c1.01-.37,2.63-.38,3.6-.01l12.63,4.74c1.03.39,1.04,1.03.02,1.42l-13.21,5.11c-1.07.41-2.78.42-3.8,0Z"/><path class="cls-6" d="m53.69,40.18l-13.53-5.45c-1.04-.42-1.01-1.1.06-1.52l13.22-5.14c1.02-.4,2.71-.4,3.76,0l13.63,5.12c1.11.42,1.18,1.1.15,1.53l-13.32,5.47c-1.08.44-2.87.44-3.97,0Z"/><path class="cls-6" d="m17.48,49.57l-12.4-5.15c-.98-.41-1.78-1.88-1.78-3.27v-17.55c0-1.39.8-2.19,1.78-1.78l12.4,5.15c.98.41,1.78,1.88,1.78,3.27v17.55c0,1.39-.8,2.19-1.78,1.78Z"/><path class="cls-6" d="m35.16,56.92l-12.4-5.15c-.98-.41-1.78-1.88-1.78-3.27v-17.55c0-1.39.8-2.19,1.78-1.78l12.4,5.15c.98.41,1.78,1.88,1.78,3.27v17.55c0,1.39-.8,2.19-1.78,1.78Z"/><path class="cls-8" d="m52.84,64.27l-12.4-5.15c-.98-.41-1.78-1.88-1.78-3.27v-17.55c0-1.39.8-2.19,1.78-1.78l12.4,5.15c.98.41,1.78,1.88,1.78,3.27v17.55c0,1.39-.8,2.19-1.78,1.78Z"/><path class="cls-5" d="m17.48,73.78l-12.4-5.15c-.98-.41-1.78-1.88-1.78-3.27v-17.55c0-1.39.8-2.19,1.78-1.78l12.4,5.15c.98.41,1.78,1.88,1.78,3.27v17.55c0,1.39-.8,2.19-1.78,1.78Z"/><path class="cls-5" d="m35.16,81.13l-12.4-5.15c-.98-.41-1.78-1.88-1.78-3.27v-17.55c0-1.39.8-2.19,1.78-1.78l12.4,5.15c.98.41,1.78,1.88,1.78,3.27v17.55c0,1.39-.8,2.19-1.78,1.78Z"/><path class="cls-5" d="m52.84,88.48l-12.4-5.15c-.98-.41-1.78-1.88-1.78-3.27v-17.55c0-1.39.8-2.19,1.78-1.78l12.4,5.15c.98.41,1.78,1.88,1.78,3.27v17.55c0,1.39-.8,2.19-1.78,1.78Z"/><path class="cls-9" d="m17.48,97.99l-12.4-5.15c-.98-.41-1.78-1.88-1.78-3.27v-17.55c0-1.39.8-2.19,1.78-1.78l12.4,5.15c.98.41,1.78,1.88,1.78,3.27v17.55c0,1.39-.8,2.19-1.78,1.78Z"/><path class="cls-7" d="m35.16,105.34l-12.4-5.15c-.98-.41-1.78-1.88-1.78-3.27v-17.55c0-1.39.8-2.19,1.78-1.78l12.4,5.15c.98.41,1.78,1.88,1.78,3.27v17.55c0,1.39-.8,2.19-1.78,1.78Z"/><path class="cls-7" d="m52.84,112.69l-12.4-5.15c-.98-.41-1.78-1.88-1.78-3.27v-17.55c0-1.39.8-2.19,1.78-1.78l12.4,5.15c.98.41,1.78,1.88,1.78,3.27v17.55c0,1.39-.8,2.19-1.78,1.78Z"/><path class="cls-6" d="m93.55,49.57l12.4-5.15c.98-.41,1.78-1.88,1.78-3.27v-17.55c0-1.39-.8-2.19-1.78-1.78l-12.4,5.15c-.98.41-1.78,1.88-1.78,3.27v17.55c0,1.39.8,2.19,1.78,1.78Z"/><path class="cls-6" d="m75.87,56.92l12.4-5.15c.98-.41,1.78-1.88,1.78-3.27v-17.55c0-1.39-.8-2.19-1.78-1.78l-12.4,5.15c-.98.41-1.78,1.88-1.78,3.27v17.55c0,1.39.8,2.19,1.78,1.78Z"/><path class="cls-6" d="m58.19,64.27l12.4-5.15c.98-.41,1.78-1.88,1.78-3.27v-17.55c0-1.39-.8-2.19-1.78-1.78l-12.4,5.15c-.98.41-1.78,1.88-1.78,3.27v17.55c0,1.39.8,2.19,1.78,1.78Z"/><path class="cls-5" d="m93.55,73.78l12.4-5.15c.98-.41,1.78-1.88,1.78-3.27v-17.55c0-1.39-.8-2.19-1.78-1.78l-12.4,5.15c-.98.41-1.78,1.88-1.78,3.27v17.55c0,1.39.8,2.19,1.78,1.78Z"/><path class="cls-10" d="m75.87,81.13l12.4-5.15c.98-.41,1.78-1.88,1.78-3.27v-17.55c0-1.39-.8-2.19-1.78-1.78l-12.4,5.15c-.98.41-1.78,1.88-1.78,3.27v17.55c0,1.39.8,2.19,1.78,1.78Z"/><path class="cls-5" d="m58.19,88.48l12.4-5.15c.98-.41,1.78-1.88,1.78-3.27v-17.55c0-1.39-.8-2.19-1.78-1.78l-12.4,5.15c-.98.41-1.78,1.88-1.78,3.27v17.55c0,1.39.8,2.19,1.78,1.78Z"/><path class="cls-11" d="m93.55,97.99l12.4-5.15c.98-.41,1.78-1.88,1.78-3.27v-17.55c0-1.39-.8-2.19-1.78-1.78l-12.4,5.15c-.98.41-1.78,1.88-1.78,3.27v17.55c0,1.39.8,2.19,1.78,1.78Z"/><path class="cls-7" d="m75.87,105.34l12.4-5.15c.98-.41,1.78-1.88,1.78-3.27v-17.55c0-1.39-.8-2.19-1.78-1.78l-12.4,5.15c-.98.41-1.78,1.88-1.78,3.27v17.55c0,1.39.8,2.19,1.78,1.78Z"/><path class="cls-7" d="m58.19,112.69l12.4-5.15c.98-.41,1.78-1.88,1.78-3.27v-17.55c0-1.39-.8-2.19-1.78-1.78l-12.4,5.15c-.98.41-1.78,1.88-1.78,3.27v17.55c0,1.39.8,2.19,1.78,1.78Z"/></g><path class="cls-15" d="m64.84,125.05c1.28.53,36.43,15.18,36.43,15.18l38.22-15.89-.24-48.96s.26-1.48-.55-2.62-2.23-1.64-2.23-1.64l-26.93-9.33v28.27s.21,1.73-.36,2.84-1.59,1.81-1.59,1.81l-44.21,18.62s0,7.85,0,9.14c0,1.42,0,1.97,1.46,2.58Z"/><path class="cls-16" d="m109.54,22.8l30.26,50.74-.3,50.8-38.13,16.4-37.23-15.42L2.27,94.83l47.35,19.94s1.99,1,5.1,1.06c2.28,0,4.29-.67,4.29-.67l47.34-20.03s2.04-.91,2.61-1.6c.66-1.29.62-3.43.62-3.43l-.04-67.31Z"/></g></svg>