<?xml version="1.0" encoding="UTF-8"?><svg id="_レイヤー_2" xmlns="http://www.w3.org/2000/svg" xmlns:xlink="http://www.w3.org/1999/xlink" viewBox="0 0 134.81 38.79"><defs><style>.cls-1{stroke-miterlimit:3;stroke-width:10.26px;}.cls-1,.cls-2{stroke:#fff;}.cls-1,.cls-2,.cls-3{fill:none;}.cls-4{fill:#f39800;}.cls-2{stroke-linecap:round;stroke-linejoin:round;stroke-width:2px;}.cls-5{fill:url(#_名称未設定グラデーション_14);}.cls-3{stroke:#231815;stroke-miterlimit:2;stroke-width:6.84px;}</style><linearGradient id="_名称未設定グラデーション_14" x1="10.86" y1="38.86" x2="123.65" y2="-13.73" gradientUnits="userSpaceOnUse"><stop offset="0" stop-color="#ee87b4"/><stop offset="1" stop-color="#00b9ef"/></linearGradient></defs><g id="_レイヤー_2-2"><path class="cls-1" d="m0,13.57C0,8.74,3.54,5.21,8.55,5.21s8.55,3.54,8.55,8.36-3.54,8.36-8.55,8.36S0,18.39,0,13.57Zm13.21,0c0-2.8-1.87-4.79-4.66-4.79s-4.69,1.99-4.69,4.79,1.9,4.79,4.69,4.79,4.66-1.99,4.66-4.79Z"/><path class="cls-1" d="m18.96,15.4V0h3.83v5.62h8.2v3.47h-8.2v6.3c0,2.12,1.09,2.96,2.67,2.96s2.67-.8,2.67-2.96v-.42h3.83v.42c0,4.4-2.64,6.53-6.49,6.53s-6.49-2.12-6.49-6.53Z"/><path class="cls-1" d="m39.31,4.31h-6.27V.48h16.65v3.83h-6.27v17.2h-4.11V4.31Z"/><path class="cls-1" d="m50.85,13.57c0-4.82,3.54-8.36,8.55-8.36s8.49,3.54,8.49,8.36v1.35h-13.02c.52,2.31,2.28,3.54,4.53,3.54,1.7,0,2.96-.48,3.76-1.51h4.08c-1.19,3.02-4.08,4.98-7.84,4.98-5.01,0-8.55-3.54-8.55-8.36Zm12.99-1.7c-.61-2.12-2.35-3.18-4.44-3.18s-3.83,1.09-4.44,3.18h8.87Z"/><path class="cls-1" d="m69.75,13.24c0-5.3,3.15-8.04,7.84-8.04s7.84,2.7,7.84,8.04v8.26h-3.83v-8.26c0-3.02-1.61-4.47-4.02-4.47s-4.02,1.45-4.02,4.47v8.26h-3.83v-8.26Z"/><path class="cls-1" d="m87.33,16.81h3.86c.03,1.06.96,1.77,2.83,1.77,1.96,0,2.8-.8,2.8-1.77,0-1.22-1.41-1.38-3.12-1.61-2.44-.32-6.04-.74-6.04-4.63,0-3.25,2.48-5.37,6.3-5.37s6.27,2.19,6.37,4.98h-3.79c-.1-.97-1-1.64-2.51-1.64-1.67,0-2.51.8-2.51,1.74,0,1.22,1.45,1.41,3.15,1.64,2.12.29,6.01.71,6.01,4.66,0,3.22-2.6,5.34-6.65,5.34s-6.59-2.15-6.69-5.11Z"/><path class="cls-1" d="m101.92,13.57c0-4.82,3.54-8.36,8.55-8.36s8.55,3.54,8.55,8.36-3.54,8.36-8.55,8.36-8.55-3.54-8.55-8.36Zm13.21,0c0-2.8-1.87-4.79-4.66-4.79s-4.69,1.99-4.69,4.79,1.9,4.79,4.69,4.79,4.66-1.99,4.66-4.79Z"/><path class="cls-1" d="m120.89,12.28c0-4.79,2.83-7.07,6.98-7.07s6.94,2.28,6.94,7.14v.1h-3.79v-.16c0-2.57-1.29-3.5-3.15-3.5s-3.15.93-3.15,3.5v9.23h-3.83v-9.23Z"/><path class="cls-3" d="m0,13.57C0,8.74,3.54,5.21,8.55,5.21s8.55,3.54,8.55,8.36-3.54,8.36-8.55,8.36S0,18.39,0,13.57Zm13.21,0c0-2.8-1.87-4.79-4.66-4.79s-4.69,1.99-4.69,4.79,1.9,4.79,4.69,4.79,4.66-1.99,4.66-4.79Z"/><path class="cls-3" d="m18.96,15.4V0h3.83v5.62h8.2v3.47h-8.2v6.3c0,2.12,1.09,2.96,2.67,2.96s2.67-.8,2.67-2.96v-.42h3.83v.42c0,4.4-2.64,6.53-6.49,6.53s-6.49-2.12-6.49-6.53Z"/><path class="cls-3" d="m39.31,4.31h-6.27V.48h16.65v3.83h-6.27v17.2h-4.11V4.31Z"/><path class="cls-3" d="m50.85,13.57c0-4.82,3.54-8.36,8.55-8.36s8.49,3.54,8.49,8.36v1.35h-13.02c.52,2.31,2.28,3.54,4.53,3.54,1.7,0,2.96-.48,3.76-1.51h4.08c-1.19,3.02-4.08,4.98-7.84,4.98-5.01,0-8.55-3.54-8.55-8.36Zm12.99-1.7c-.61-2.12-2.35-3.18-4.44-3.18s-3.83,1.09-4.44,3.18h8.87Z"/><path class="cls-3" d="m69.75,13.24c0-5.3,3.15-8.04,7.84-8.04s7.84,2.7,7.84,8.04v8.26h-3.83v-8.26c0-3.02-1.61-4.47-4.02-4.47s-4.02,1.45-4.02,4.47v8.26h-3.83v-8.26Z"/><path class="cls-3" d="m87.33,16.81h3.86c.03,1.06.96,1.77,2.83,1.77,1.96,0,2.8-.8,2.8-1.77,0-1.22-1.41-1.38-3.12-1.61-2.44-.32-6.04-.74-6.04-4.63,0-3.25,2.48-5.37,6.3-5.37s6.27,2.19,6.37,4.98h-3.79c-.1-.97-1-1.64-2.51-1.64-1.67,0-2.51.8-2.51,1.74,0,1.22,1.45,1.41,3.15,1.64,2.12.29,6.01.71,6.01,4.66,0,3.22-2.6,5.34-6.65,5.34s-6.59-2.15-6.69-5.11Z"/><path class="cls-3" d="m101.92,13.57c0-4.82,3.54-8.36,8.55-8.36s8.55,3.54,8.55,8.36-3.54,8.36-8.55,8.36-8.55-3.54-8.55-8.36Zm13.21,0c0-2.8-1.87-4.79-4.66-4.79s-4.69,1.99-4.69,4.79,1.9,4.79,4.69,4.79,4.66-1.99,4.66-4.79Z"/><path class="cls-3" d="m120.89,12.28c0-4.79,2.83-7.07,6.98-7.07s6.94,2.28,6.94,7.14v.1h-3.79v-.16c0-2.57-1.29-3.5-3.15-3.5s-3.15.93-3.15,3.5v9.23h-3.83v-9.23Z"/><path class="cls-4" d="m0,13.57C0,8.74,3.54,5.21,8.55,5.21s8.55,3.54,8.55,8.36-3.54,8.36-8.55,8.36S0,18.39,0,13.57Zm13.21,0c0-2.8-1.87-4.79-4.66-4.79s-4.69,1.99-4.69,4.79,1.9,4.79,4.69,4.79,4.66-1.99,4.66-4.79Z"/><path class="cls-4" d="m18.96,15.4V0h3.83v5.62h8.2v3.47h-8.2v6.3c0,2.12,1.09,2.96,2.67,2.96s2.67-.8,2.67-2.96v-.42h3.83v.42c0,4.4-2.64,6.53-6.49,6.53s-6.49-2.12-6.49-6.53Z"/><path class="cls-4" d="m39.31,4.31h-6.27V.48h16.65v3.83h-6.27v17.2h-4.11V4.31Z"/><path class="cls-4" d="m50.85,13.57c0-4.82,3.54-8.36,8.55-8.36s8.49,3.54,8.49,8.36v1.35h-13.02c.52,2.31,2.28,3.54,4.53,3.54,1.7,0,2.96-.48,3.76-1.51h4.08c-1.19,3.02-4.08,4.98-7.84,4.98-5.01,0-8.55-3.54-8.55-8.36Zm12.99-1.7c-.61-2.12-2.35-3.18-4.44-3.18s-3.83,1.09-4.44,3.18h8.87Z"/><path class="cls-4" d="m69.75,13.24c0-5.3,3.15-8.04,7.84-8.04s7.84,2.7,7.84,8.04v8.26h-3.83v-8.26c0-3.02-1.61-4.47-4.02-4.47s-4.02,1.45-4.02,4.47v8.26h-3.83v-8.26Z"/><path class="cls-4" d="m87.33,16.81h3.86c.03,1.06.96,1.77,2.83,1.77,1.96,0,2.8-.8,2.8-1.77,0-1.22-1.41-1.38-3.12-1.61-2.44-.32-6.04-.74-6.04-4.63,0-3.25,2.48-5.37,6.3-5.37s6.27,2.19,6.37,4.98h-3.79c-.1-.97-1-1.64-2.51-1.64-1.67,0-2.51.8-2.51,1.74,0,1.22,1.45,1.41,3.15,1.64,2.12.29,6.01.71,6.01,4.66,0,3.22-2.6,5.34-6.65,5.34s-6.59-2.15-6.69-5.11Z"/><path class="cls-4" d="m101.92,13.57c0-4.82,3.54-8.36,8.55-8.36s8.55,3.54,8.55,8.36-3.54,8.36-8.55,8.36-8.55-3.54-8.55-8.36Zm13.21,0c0-2.8-1.87-4.79-4.66-4.79s-4.69,1.99-4.69,4.79,1.9,4.79,4.69,4.79,4.66-1.99,4.66-4.79Z"/><path class="cls-4" d="m120.89,12.28c0-4.79,2.83-7.07,6.98-7.07s6.94,2.28,6.94,7.14v.1h-3.79v-.16c0-2.57-1.29-3.5-3.15-3.5s-3.15.93-3.15,3.5v9.23h-3.83v-9.23Z"/><path class="cls-5" d="m0,13.57C0,8.74,3.54,5.21,8.55,5.21s8.55,3.54,8.55,8.36-3.54,8.36-8.55,8.36S0,18.39,0,13.57Zm13.21,0c0-2.8-1.87-4.79-4.66-4.79s-4.69,1.99-4.69,4.79,1.9,4.79,4.69,4.79,4.66-1.99,4.66-4.79Z"/><path class="cls-5" d="m18.96,15.4V0h3.83v5.62h8.2v3.47h-8.2v6.3c0,2.12,1.09,2.96,2.67,2.96s2.67-.8,2.67-2.96v-.42h3.83v.42c0,4.4-2.64,6.53-6.49,6.53s-6.49-2.12-6.49-6.53Z"/><path class="cls-5" d="m39.31,4.31h-6.27V.48h16.65v3.83h-6.27v17.2h-4.11V4.31Z"/><path class="cls-5" d="m50.85,13.57c0-4.82,3.54-8.36,8.55-8.36s8.49,3.54,8.49,8.36v1.35h-13.02c.52,2.31,2.28,3.54,4.53,3.54,1.7,0,2.96-.48,3.76-1.51h4.08c-1.19,3.02-4.08,4.98-7.84,4.98-5.01,0-8.55-3.54-8.55-8.36Zm12.99-1.7c-.61-2.12-2.35-3.18-4.44-3.18s-3.83,1.09-4.44,3.18h8.87Z"/><path class="cls-5" d="m69.75,13.24c0-5.3,3.15-8.04,7.84-8.04s7.84,2.7,7.84,8.04v8.26h-3.83v-8.26c0-3.02-1.61-4.47-4.02-4.47s-4.02,1.45-4.02,4.47v8.26h-3.83v-8.26Z"/><path class="cls-5" d="m87.33,16.81h3.86c.03,1.06.96,1.77,2.83,1.77,1.96,0,2.8-.8,2.8-1.77,0-1.22-1.41-1.38-3.12-1.61-2.44-.32-6.04-.74-6.04-4.63,0-3.25,2.48-5.37,6.3-5.37s6.27,2.19,6.37,4.98h-3.79c-.1-.97-1-1.64-2.51-1.64-1.67,0-2.51.8-2.51,1.74,0,1.22,1.45,1.41,3.15,1.64,2.12.29,6.01.71,6.01,4.66,0,3.22-2.6,5.34-6.65,5.34s-6.59-2.15-6.69-5.11Z"/><path class="cls-5" d="m101.92,13.57c0-4.82,3.54-8.36,8.55-8.36s8.55,3.54,8.55,8.36-3.54,8.36-8.55,8.36-8.55-3.54-8.55-8.36Zm13.21,0c0-2.8-1.87-4.79-4.66-4.79s-4.69,1.99-4.69,4.79,1.9,4.79,4.69,4.79,4.66-1.99,4.66-4.79Z"/><path class="cls-5" d="m120.89,12.28c0-4.79,2.83-7.07,6.98-7.07s6.94,2.28,6.94,7.14v.1h-3.79v-.16c0-2.57-1.29-3.5-3.15-3.5s-3.15.93-3.15,3.5v9.23h-3.83v-9.23Z"/><path class="cls-2" d="m33.7,36.29c-.26.13-.72.35-1.58.35-1.75,0-2.74-1.07-2.74-2.68,0-1.74,1.2-2.74,2.68-2.74.6,0,1.13.14,1.63.46l-.34,1.2c-.22-.16-.55-.41-1.19-.41-.9,0-1.45.61-1.45,1.47,0,.66.31,1.48,1.47,1.48.76,0,1.29-.34,1.5-.46v1.35Z"/><path class="cls-2" d="m34.5,36.51v-5.15h1.29v.5c.29-.42.78-.69,1.51-.63v1.24c-.67-.04-1.45.08-1.45,1.18v2.86h-1.35Z"/><path class="cls-2" d="m38.21,31.7c.59-.32,1.17-.48,1.84-.48.85,0,1.48.28,1.85.71.27.32.38.71.38,1.34v1.93c0,.7.09,1.05.2,1.31h-1.28c-.05-.12-.09-.23-.09-.46-.42.41-.95.6-1.53.6-.95,0-1.75-.58-1.75-1.62,0-1.32,1.14-1.61,2.07-1.75.9-.14,1.06-.16,1.06-.41,0-.22-.22-.45-.86-.45s-1.22.22-1.77.57l-.11-1.28Zm2.77,2.37c-.23.11-.47.16-1.06.23-.53.07-.84.24-.84.67,0,.3.2.54.6.54.29,0,.86-.09,1.3-.77v-.68Z"/><path class="cls-2" d="m43.29,36.51v-5.15h1.29v.5c.13-.16.52-.64,1.38-.64.9,0,1.36.54,1.51.84.19.39.23.8.23,1.55v2.9h-1.35v-2.94c0-.47,0-1.11-.77-1.11-.15,0-.93.03-.93,1.11v2.94h-1.35Z"/><path class="cls-2" d="m50.19,34.99v1.51h-1.51v-1.51h1.51Z"/><path class="cls-2" d="m51.21,36.51v-5.15h1.29v.5c.29-.42.78-.69,1.51-.63v1.24c-.67-.04-1.45.08-1.45,1.18v2.86h-1.35Z"/><path class="cls-2" d="m56.95,33.28v1.3h-2.51v-1.3h2.51Z"/><path class="cls-2" d="m58.96,31.85c.17-.18.6-.64,1.44-.64,1.45,0,2.26,1.27,2.26,2.71s-.76,2.72-2.27,2.72c-.69,0-1.12-.32-1.39-.55v2.7h-1.35v-7.44h1.31v.5Zm1.2,3.55c.71,0,1.14-.58,1.14-1.48s-.42-1.47-1.14-1.47c-.26,0-1.18.1-1.18,1.47s.91,1.48,1.18,1.48Z"/><path class="cls-2" d="m63.39,36.51v-5.15h1.29v.5c.29-.42.78-.69,1.51-.63v1.24c-.67-.04-1.45.08-1.45,1.18v2.86h-1.35Z"/><path class="cls-2" d="m69.23,31.22c1.37,0,2.56,1.04,2.56,2.71s-1.19,2.72-2.56,2.72-2.55-1.03-2.55-2.72,1.2-2.71,2.55-2.71Zm0,4.19c.78,0,1.2-.62,1.2-1.48,0-1.47-1.11-1.47-1.2-1.47-.41,0-1.2.25-1.2,1.47,0,.86.42,1.48,1.2,1.48Z"/><path class="cls-2" d="m74.99,36.58c0,.97,0,2.21-1.66,2.21-.55,0-.9-.16-1.14-.27l.09-1.17c.16.07.44.2.77.2.51,0,.58-.38.58-.78v-5.42h1.35v5.23Zm.06-5.82h-1.47v-1.39h1.47v1.39Z"/><path class="cls-2" d="m77.26,34.35c.03.33.13,1.12,1.39,1.12.75,0,1.18-.2,1.62-.41v1.26c-.27.1-.82.33-1.68.33-2.26,0-2.68-1.74-2.68-2.68,0-1.62.99-2.75,2.4-2.75.52,0,1.6.18,2.11,1.41.22.53.26,1.16.26,1.72h-3.42Zm2.07-.97c-.13-1-.89-1-1.02-1-.87,0-1,.81-1.03,1h2.06Z"/><path class="cls-2" d="m85.6,36.29c-.26.13-.72.35-1.58.35-1.75,0-2.74-1.07-2.74-2.68,0-1.74,1.2-2.74,2.68-2.74.6,0,1.13.14,1.63.46l-.34,1.2c-.22-.16-.55-.41-1.19-.41-.9,0-1.45.61-1.45,1.47,0,.66.31,1.48,1.47,1.48.76,0,1.29-.34,1.5-.46v1.35Z"/><path class="cls-2" d="m86.64,29.86h1.35v1.5h1.37v1.24h-1.37v2.23c0,.43.1.58.58.58.28,0,.55-.03.71-.06v1.22c-.16.02-.57.08-1.06.08-1.58,0-1.58-.9-1.58-1.73v-2.32h-.58v-1.24h.58v-1.5Z"/><path class="cls-2" d="m91.55,34.99v1.51h-1.51v-1.51h1.51Z"/><path class="cls-2" d="m94.9,31.22c1.37,0,2.56,1.04,2.56,2.71s-1.19,2.72-2.56,2.72-2.55-1.03-2.55-2.72,1.2-2.71,2.55-2.71Zm0,4.19c.78,0,1.2-.62,1.2-1.48,0-1.47-1.11-1.47-1.2-1.47-.41,0-1.2.25-1.2,1.47,0,.86.42,1.48,1.2,1.48Z"/><path class="cls-2" d="m98.21,36.51v-5.15h1.29v.5c.29-.42.78-.69,1.51-.63v1.24c-.67-.04-1.45.08-1.45,1.18v2.86h-1.35Z"/><path class="cls-2" d="m106.34,32.4c-.09-.03-.19-.06-.34-.06-.14,0-.23.03-.3.05.05.12.13.33.13.69,0,1.21-1.04,1.74-2.11,1.74-.14,0-.24,0-.32,0-.11.05-.24.16-.24.29,0,.21.33.24.9.27,1.17.05,2.32.26,2.32,1.64,0,1.56-1.73,1.78-2.62,1.78-1.63,0-2.33-.76-2.33-1.66,0-.82.58-1.2.76-1.31-.16-.11-.41-.31-.41-.7s.33-.67.42-.74c-.65-.5-.65-1.2-.65-1.35,0-1.07.88-1.82,2.13-1.82.62,0,.96.16,1.14.25.4-.25.8-.25.91-.25.32,0,.45.05.59.11v1.08Zm-2.64,4c-.51,0-.92.14-.92.64,0,.58.69.65,1.11.65.27,0,1.15-.04,1.15-.69,0-.49-.57-.6-1.34-.6Zm-.84-3.35c0,.43.35.71.83.71s.85-.3.85-.74c0-.38-.28-.73-.83-.73-.48,0-.85.29-.85.76Z"/><path d="m33.7,36.29c-.26.13-.72.35-1.58.35-1.75,0-2.74-1.07-2.74-2.68,0-1.74,1.2-2.74,2.68-2.74.6,0,1.13.14,1.63.46l-.34,1.2c-.22-.16-.55-.41-1.19-.41-.9,0-1.45.61-1.45,1.47,0,.66.31,1.48,1.47,1.48.76,0,1.29-.34,1.5-.46v1.35Z"/><path d="m34.5,36.51v-5.15h1.29v.5c.29-.42.78-.69,1.51-.63v1.24c-.67-.04-1.45.08-1.45,1.18v2.86h-1.35Z"/><path d="m38.21,31.7c.59-.32,1.17-.48,1.84-.48.85,0,1.48.28,1.85.71.27.32.38.71.38,1.34v1.93c0,.7.09,1.05.2,1.31h-1.28c-.05-.12-.09-.23-.09-.46-.42.41-.95.6-1.53.6-.95,0-1.75-.58-1.75-1.62,0-1.32,1.14-1.61,2.07-1.75.9-.14,1.06-.16,1.06-.41,0-.22-.22-.45-.86-.45s-1.22.22-1.77.57l-.11-1.28Zm2.77,2.37c-.23.11-.47.16-1.06.23-.53.07-.84.24-.84.67,0,.3.2.54.6.54.29,0,.86-.09,1.3-.77v-.68Z"/><path d="m43.29,36.51v-5.15h1.29v.5c.13-.16.52-.64,1.38-.64.9,0,1.36.54,1.51.84.19.39.23.8.23,1.55v2.9h-1.35v-2.94c0-.47,0-1.11-.77-1.11-.15,0-.93.03-.93,1.11v2.94h-1.35Z"/><path d="m50.19,34.99v1.51h-1.51v-1.51h1.51Z"/><path d="m51.21,36.51v-5.15h1.29v.5c.29-.42.78-.69,1.51-.63v1.24c-.67-.04-1.45.08-1.45,1.18v2.86h-1.35Z"/><path d="m56.95,33.28v1.3h-2.51v-1.3h2.51Z"/><path d="m58.96,31.85c.17-.18.6-.64,1.44-.64,1.45,0,2.26,1.27,2.26,2.71s-.76,2.72-2.27,2.72c-.69,0-1.12-.32-1.39-.55v2.7h-1.35v-7.44h1.31v.5Zm1.2,3.55c.71,0,1.14-.58,1.14-1.48s-.42-1.47-1.14-1.47c-.26,0-1.18.1-1.18,1.47s.91,1.48,1.18,1.48Z"/><path d="m63.39,36.51v-5.15h1.29v.5c.29-.42.78-.69,1.51-.63v1.24c-.67-.04-1.45.08-1.45,1.18v2.86h-1.35Z"/><path d="m69.23,31.22c1.37,0,2.56,1.04,2.56,2.71s-1.19,2.72-2.56,2.72-2.55-1.03-2.55-2.72,1.2-2.71,2.55-2.71Zm0,4.19c.78,0,1.2-.62,1.2-1.48,0-1.47-1.11-1.47-1.2-1.47-.41,0-1.2.25-1.2,1.47,0,.86.42,1.48,1.2,1.48Z"/><path d="m74.99,36.58c0,.97,0,2.21-1.66,2.21-.55,0-.9-.16-1.14-.27l.09-1.17c.16.07.44.2.77.2.51,0,.58-.38.58-.78v-5.42h1.35v5.23Zm.06-5.82h-1.47v-1.39h1.47v1.39Z"/><path d="m77.26,34.35c.03.33.13,1.12,1.39,1.12.75,0,1.18-.2,1.62-.41v1.26c-.27.1-.82.33-1.68.33-2.26,0-2.68-1.74-2.68-2.68,0-1.62.99-2.75,2.4-2.75.52,0,1.6.18,2.11,1.41.22.53.26,1.16.26,1.72h-3.42Zm2.07-.97c-.13-1-.89-1-1.02-1-.87,0-1,.81-1.03,1h2.06Z"/><path d="m85.6,36.29c-.26.13-.72.35-1.58.35-1.75,0-2.74-1.07-2.74-2.68,0-1.74,1.2-2.74,2.68-2.74.6,0,1.13.14,1.63.46l-.34,1.2c-.22-.16-.55-.41-1.19-.41-.9,0-1.45.61-1.45,1.47,0,.66.31,1.48,1.47,1.48.76,0,1.29-.34,1.5-.46v1.35Z"/><path d="m86.64,29.86h1.35v1.5h1.37v1.24h-1.37v2.23c0,.43.1.58.58.58.28,0,.55-.03.71-.06v1.22c-.16.02-.57.08-1.06.08-1.58,0-1.58-.9-1.58-1.73v-2.32h-.58v-1.24h.58v-1.5Z"/><path d="m91.55,34.99v1.51h-1.51v-1.51h1.51Z"/><path d="m94.9,31.22c1.37,0,2.56,1.04,2.56,2.71s-1.19,2.72-2.56,2.72-2.55-1.03-2.55-2.72,1.2-2.71,2.55-2.71Zm0,4.19c.78,0,1.2-.62,1.2-1.48,0-1.47-1.11-1.47-1.2-1.47-.41,0-1.2.25-1.2,1.47,0,.86.42,1.48,1.2,1.48Z"/><path d="m98.21,36.51v-5.15h1.29v.5c.29-.42.78-.69,1.51-.63v1.24c-.67-.04-1.45.08-1.45,1.18v2.86h-1.35Z"/><path d="m106.34,32.4c-.09-.03-.19-.06-.34-.06-.14,0-.23.03-.3.05.05.12.13.33.13.69,0,1.21-1.04,1.74-2.11,1.74-.14,0-.24,0-.32,0-.11.05-.24.16-.24.29,0,.21.33.24.9.27,1.17.05,2.32.26,2.32,1.64,0,1.56-1.73,1.78-2.62,1.78-1.63,0-2.33-.76-2.33-1.66,0-.82.58-1.2.76-1.31-.16-.11-.41-.31-.41-.7s.33-.67.42-.74c-.65-.5-.65-1.2-.65-1.35,0-1.07.88-1.82,2.13-1.82.62,0,.96.16,1.14.25.4-.25.8-.25.91-.25.32,0,.45.05.59.11v1.08Zm-2.64,4c-.51,0-.92.14-.92.64,0,.58.69.65,1.11.65.27,0,1.15-.04,1.15-.69,0-.49-.57-.6-1.34-.6Zm-.84-3.35c0,.43.35.71.83.71s.85-.3.85-.74c0-.38-.28-.73-.83-.73-.48,0-.85.29-.85.76Z"/></g></svg>