<?xml version="1.0" encoding="UTF-8"?><svg id="_レイヤー_2" xmlns="http://www.w3.org/2000/svg" xmlns:xlink="http://www.w3.org/1999/xlink" viewBox="0 0 248.13 78.57"><defs><style>.cls-1{stroke-miterlimit:3;stroke-width:10.2px;}.cls-1,.cls-2{stroke:#fff;}.cls-1,.cls-2,.cls-3{fill:none;}.cls-4{fill:#040000;}.cls-5{fill:#f39800;}.cls-6{fill:#a9a9aa;}.cls-7{fill:#9493a3;}.cls-8{fill:#555559;}.cls-2{stroke-linecap:round;stroke-linejoin:round;stroke-width:1.9px;}.cls-9{fill:url(#_名称未設定グラデーション_77);}.cls-10{fill:url(#_名称未設定グラデーション_14);}.cls-11{fill:url(#_名称未設定グラデーション_81);}.cls-12{fill:url(#_名称未設定グラデーション_80);}.cls-3{stroke:#231815;stroke-miterlimit:2;stroke-width:6.8px;}</style><linearGradient id="_名称未設定グラデーション_14" x1="98.5" y1="71.9" x2="233.49" y2="8.95" gradientUnits="userSpaceOnUse"><stop offset="0" stop-color="#ee87b4"/><stop offset="1" stop-color="#00b9ef"/></linearGradient><linearGradient id="_名称未設定グラデーション_77" x1="0" y1="60.8" x2="68" y2="60.8" gradientUnits="userSpaceOnUse"><stop offset="0" stop-color="#65afb5"/><stop offset="1" stop-color="#7d7d85"/></linearGradient><linearGradient id="_名称未設定グラデーション_81" x1="3.91" y1="17.47" x2="35.96" y2="39.88" gradientUnits="userSpaceOnUse"><stop offset="0" stop-color="#7ab8e4" stop-opacity=".1"/><stop offset="1" stop-color="#7d7d85"/></linearGradient><linearGradient id="_名称未設定グラデーション_80" x1="93.39" y1="17.36" x2="125.4" y2="39.74" gradientTransform="translate(158.03) rotate(-180) scale(1 -1)" gradientUnits="userSpaceOnUse"><stop offset="0" stop-color="#7ab8e4" stop-opacity=".3"/><stop offset="1" stop-color="#7d7d85"/></linearGradient></defs><g id="_レイヤー_1-2"><path class="cls-1" d="m86.29,44.77h3.83c.03,1.05.96,1.76,2.81,1.76,1.95,0,2.78-.8,2.78-1.76,0-1.21-1.41-1.37-3.1-1.6-2.43-.32-6.01-.73-6.01-4.6,0-3.23,2.46-5.34,6.26-5.34s6.23,2.17,6.33,4.95h-3.77c-.1-.96-.99-1.63-2.49-1.63-1.66,0-2.49.8-2.49,1.73,0,1.21,1.44,1.41,3.13,1.63,2.11.29,5.98.7,5.98,4.63,0,3.2-2.59,5.3-6.61,5.3s-6.55-2.14-6.65-5.08Z"/><path class="cls-1" d="m101.56,51.16h3.8c.64,1.47,1.88,2.14,3.8,2.14,2.59,0,4.06-1.25,4.06-4.31v-1.98c-.96,1.73-2.62,2.65-4.7,2.65-3.64,0-7.09-2.36-7.09-7.99v-8.02h3.8v8.02c0,3,1.6,4.44,3.99,4.44s3.99-1.5,3.99-4.44v-8.02h3.8v15.24c0,5.5-3.48,7.7-7.86,7.7-3.67,0-6.71-1.69-7.6-5.43Z"/><path class="cls-1" d="m120.03,40.42c0-4.95,2.88-7.19,6.61-7.19,2.36,0,4.31.99,5.46,2.84,1.12-1.85,3.07-2.84,5.46-2.84,3.74,0,6.61,2.24,6.61,7.19v9.01h-3.8v-9.01c0-2.59-1.34-3.64-3.2-3.64s-3.16,1.09-3.16,3.64v9.01h-3.8v-9.01c0-2.56-1.37-3.64-3.2-3.64s-3.2,1.05-3.2,3.64v9.01h-3.8v-9.01Z"/><path class="cls-1" d="m152.2,32.34h-6.23v-3.8h16.55v3.8h-6.23v17.09h-4.09v-17.09Z"/><path class="cls-1" d="m163.67,41.54c0-4.79,3.51-8.31,8.5-8.31s8.44,3.51,8.44,8.31v1.34h-12.94c.51,2.3,2.27,3.51,4.5,3.51,1.69,0,2.94-.48,3.74-1.5h4.06c-1.18,3-4.06,4.95-7.8,4.95-4.98,0-8.5-3.51-8.5-8.31Zm12.91-1.69c-.61-2.11-2.33-3.16-4.41-3.16s-3.8,1.09-4.41,3.16h8.82Z"/><path class="cls-1" d="m182.46,41.22c0-5.27,3.13-7.99,7.8-7.99s7.8,2.68,7.8,7.99v8.21h-3.8v-8.21c0-3-1.6-4.44-3.99-4.44s-3.99,1.44-3.99,4.44v8.21h-3.8v-8.21Z"/><path class="cls-1" d="m199.94,44.77h3.83c.03,1.05.96,1.76,2.81,1.76,1.95,0,2.78-.8,2.78-1.76,0-1.21-1.41-1.37-3.1-1.6-2.43-.32-6.01-.73-6.01-4.6,0-3.23,2.46-5.34,6.26-5.34s6.23,2.17,6.33,4.95h-3.77c-.1-.96-.99-1.63-2.49-1.63-1.66,0-2.49.8-2.49,1.73,0,1.21,1.44,1.41,3.13,1.63,2.11.29,5.98.7,5.98,4.63,0,3.2-2.59,5.3-6.61,5.3s-6.55-2.14-6.65-5.08Z"/><path class="cls-1" d="m214.44,41.54c0-4.79,3.51-8.31,8.5-8.31s8.5,3.51,8.5,8.31-3.51,8.31-8.5,8.31-8.5-3.51-8.5-8.31Zm13.13,0c0-2.78-1.85-4.76-4.63-4.76s-4.67,1.98-4.67,4.76,1.88,4.76,4.67,4.76,4.63-1.98,4.63-4.76Z"/><path class="cls-1" d="m233.3,40.26c0-4.76,2.81-7.03,6.93-7.03s6.9,2.27,6.9,7.09v.1h-3.77v-.16c0-2.56-1.28-3.48-3.13-3.48s-3.13.93-3.13,3.48v9.17h-3.8v-9.17Z"/><path class="cls-3" d="m86.29,44.77h3.83c.03,1.05.96,1.76,2.81,1.76,1.95,0,2.78-.8,2.78-1.76,0-1.21-1.41-1.37-3.1-1.6-2.43-.32-6.01-.73-6.01-4.6,0-3.23,2.46-5.34,6.26-5.34s6.23,2.17,6.33,4.95h-3.77c-.1-.96-.99-1.63-2.49-1.63-1.66,0-2.49.8-2.49,1.73,0,1.21,1.44,1.41,3.13,1.63,2.11.29,5.98.7,5.98,4.63,0,3.2-2.59,5.3-6.61,5.3s-6.55-2.14-6.65-5.08Z"/><path class="cls-3" d="m101.56,51.16h3.8c.64,1.47,1.88,2.14,3.8,2.14,2.59,0,4.06-1.25,4.06-4.31v-1.98c-.96,1.73-2.62,2.65-4.7,2.65-3.64,0-7.09-2.36-7.09-7.99v-8.02h3.8v8.02c0,3,1.6,4.44,3.99,4.44s3.99-1.5,3.99-4.44v-8.02h3.8v15.24c0,5.5-3.48,7.7-7.86,7.7-3.67,0-6.71-1.69-7.6-5.43Z"/><path class="cls-3" d="m120.03,40.42c0-4.95,2.88-7.19,6.61-7.19,2.36,0,4.31.99,5.46,2.84,1.12-1.85,3.07-2.84,5.46-2.84,3.74,0,6.61,2.24,6.61,7.19v9.01h-3.8v-9.01c0-2.59-1.34-3.64-3.2-3.64s-3.16,1.09-3.16,3.64v9.01h-3.8v-9.01c0-2.56-1.37-3.64-3.2-3.64s-3.2,1.05-3.2,3.64v9.01h-3.8v-9.01Z"/><path class="cls-3" d="m152.2,32.34h-6.23v-3.8h16.55v3.8h-6.23v17.09h-4.09v-17.09Z"/><path class="cls-3" d="m163.67,41.54c0-4.79,3.51-8.31,8.5-8.31s8.44,3.51,8.44,8.31v1.34h-12.94c.51,2.3,2.27,3.51,4.5,3.51,1.69,0,2.94-.48,3.74-1.5h4.06c-1.18,3-4.06,4.95-7.8,4.95-4.98,0-8.5-3.51-8.5-8.31Zm12.91-1.69c-.61-2.11-2.33-3.16-4.41-3.16s-3.8,1.09-4.41,3.16h8.82Z"/><path class="cls-3" d="m182.46,41.22c0-5.27,3.13-7.99,7.8-7.99s7.8,2.68,7.8,7.99v8.21h-3.8v-8.21c0-3-1.6-4.44-3.99-4.44s-3.99,1.44-3.99,4.44v8.21h-3.8v-8.21Z"/><path class="cls-3" d="m199.94,44.77h3.83c.03,1.05.96,1.76,2.81,1.76,1.95,0,2.78-.8,2.78-1.76,0-1.21-1.41-1.37-3.1-1.6-2.43-.32-6.01-.73-6.01-4.6,0-3.23,2.46-5.34,6.26-5.34s6.23,2.17,6.33,4.95h-3.77c-.1-.96-.99-1.63-2.49-1.63-1.66,0-2.49.8-2.49,1.73,0,1.21,1.44,1.41,3.13,1.63,2.11.29,5.98.7,5.98,4.63,0,3.2-2.59,5.3-6.61,5.3s-6.55-2.14-6.65-5.08Z"/><path class="cls-3" d="m214.44,41.54c0-4.79,3.51-8.31,8.5-8.31s8.5,3.51,8.5,8.31-3.51,8.31-8.5,8.31-8.5-3.51-8.5-8.31Zm13.13,0c0-2.78-1.85-4.76-4.63-4.76s-4.67,1.98-4.67,4.76,1.88,4.76,4.67,4.76,4.63-1.98,4.63-4.76Z"/><path class="cls-3" d="m233.3,40.26c0-4.76,2.81-7.03,6.93-7.03s6.9,2.27,6.9,7.09v.1h-3.77v-.16c0-2.56-1.28-3.48-3.13-3.48s-3.13.93-3.13,3.48v9.17h-3.8v-9.17Z"/><path class="cls-5" d="m86.29,44.77h3.83c.03,1.05.96,1.76,2.81,1.76,1.95,0,2.78-.8,2.78-1.76,0-1.21-1.41-1.37-3.1-1.6-2.43-.32-6.01-.73-6.01-4.6,0-3.23,2.46-5.34,6.26-5.34s6.23,2.17,6.33,4.95h-3.77c-.1-.96-.99-1.63-2.49-1.63-1.66,0-2.49.8-2.49,1.73,0,1.21,1.44,1.41,3.13,1.63,2.11.29,5.98.7,5.98,4.63,0,3.2-2.59,5.3-6.61,5.3s-6.55-2.14-6.65-5.08Z"/><path class="cls-5" d="m101.56,51.16h3.8c.64,1.47,1.88,2.14,3.8,2.14,2.59,0,4.06-1.25,4.06-4.31v-1.98c-.96,1.73-2.62,2.65-4.7,2.65-3.64,0-7.09-2.36-7.09-7.99v-8.02h3.8v8.02c0,3,1.6,4.44,3.99,4.44s3.99-1.5,3.99-4.44v-8.02h3.8v15.24c0,5.5-3.48,7.7-7.86,7.7-3.67,0-6.71-1.69-7.6-5.43Z"/><path class="cls-5" d="m120.03,40.42c0-4.95,2.88-7.19,6.61-7.19,2.36,0,4.31.99,5.46,2.84,1.12-1.85,3.07-2.84,5.46-2.84,3.74,0,6.61,2.24,6.61,7.19v9.01h-3.8v-9.01c0-2.59-1.34-3.64-3.2-3.64s-3.16,1.09-3.16,3.64v9.01h-3.8v-9.01c0-2.56-1.37-3.64-3.2-3.64s-3.2,1.05-3.2,3.64v9.01h-3.8v-9.01Z"/><path class="cls-5" d="m152.2,32.34h-6.23v-3.8h16.55v3.8h-6.23v17.09h-4.09v-17.09Z"/><path class="cls-5" d="m163.67,41.54c0-4.79,3.51-8.31,8.5-8.31s8.44,3.51,8.44,8.31v1.34h-12.94c.51,2.3,2.27,3.51,4.5,3.51,1.69,0,2.94-.48,3.74-1.5h4.06c-1.18,3-4.06,4.95-7.8,4.95-4.98,0-8.5-3.51-8.5-8.31Zm12.91-1.69c-.61-2.11-2.33-3.16-4.41-3.16s-3.8,1.09-4.41,3.16h8.82Z"/><path class="cls-5" d="m182.46,41.22c0-5.27,3.13-7.99,7.8-7.99s7.8,2.68,7.8,7.99v8.21h-3.8v-8.21c0-3-1.6-4.44-3.99-4.44s-3.99,1.44-3.99,4.44v8.21h-3.8v-8.21Z"/><path class="cls-5" d="m199.94,44.77h3.83c.03,1.05.96,1.76,2.81,1.76,1.95,0,2.78-.8,2.78-1.76,0-1.21-1.41-1.37-3.1-1.6-2.43-.32-6.01-.73-6.01-4.6,0-3.23,2.46-5.34,6.26-5.34s6.23,2.17,6.33,4.95h-3.77c-.1-.96-.99-1.63-2.49-1.63-1.66,0-2.49.8-2.49,1.73,0,1.21,1.44,1.41,3.13,1.63,2.11.29,5.98.7,5.98,4.63,0,3.2-2.59,5.3-6.61,5.3s-6.55-2.14-6.65-5.08Z"/><path class="cls-5" d="m214.44,41.54c0-4.79,3.51-8.31,8.5-8.31s8.5,3.51,8.5,8.31-3.51,8.31-8.5,8.31-8.5-3.51-8.5-8.31Zm13.13,0c0-2.78-1.85-4.76-4.63-4.76s-4.67,1.98-4.67,4.76,1.88,4.76,4.67,4.76,4.63-1.98,4.63-4.76Z"/><path class="cls-5" d="m233.3,40.26c0-4.76,2.81-7.03,6.93-7.03s6.9,2.27,6.9,7.09v.1h-3.77v-.16c0-2.56-1.28-3.48-3.13-3.48s-3.13.93-3.13,3.48v9.17h-3.8v-9.17Z"/><path class="cls-10" d="m86.29,44.77h3.83c.03,1.05.96,1.76,2.81,1.76,1.95,0,2.78-.8,2.78-1.76,0-1.21-1.41-1.37-3.1-1.6-2.43-.32-6.01-.73-6.01-4.6,0-3.23,2.46-5.34,6.26-5.34s6.23,2.17,6.33,4.95h-3.77c-.1-.96-.99-1.63-2.49-1.63-1.66,0-2.49.8-2.49,1.73,0,1.21,1.44,1.41,3.13,1.63,2.11.29,5.98.7,5.98,4.63,0,3.2-2.59,5.3-6.61,5.3s-6.55-2.14-6.65-5.08Z"/><path class="cls-10" d="m101.56,51.16h3.8c.64,1.47,1.88,2.14,3.8,2.14,2.59,0,4.06-1.25,4.06-4.31v-1.98c-.96,1.73-2.62,2.65-4.7,2.65-3.64,0-7.09-2.36-7.09-7.99v-8.02h3.8v8.02c0,3,1.6,4.44,3.99,4.44s3.99-1.5,3.99-4.44v-8.02h3.8v15.24c0,5.5-3.48,7.7-7.86,7.7-3.67,0-6.71-1.69-7.6-5.43Z"/><path class="cls-10" d="m120.03,40.42c0-4.95,2.88-7.19,6.61-7.19,2.36,0,4.31.99,5.46,2.84,1.12-1.85,3.07-2.84,5.46-2.84,3.74,0,6.61,2.24,6.61,7.19v9.01h-3.8v-9.01c0-2.59-1.34-3.64-3.2-3.64s-3.16,1.09-3.16,3.64v9.01h-3.8v-9.01c0-2.56-1.37-3.64-3.2-3.64s-3.2,1.05-3.2,3.64v9.01h-3.8v-9.01Z"/><path class="cls-10" d="m152.2,32.34h-6.23v-3.8h16.55v3.8h-6.23v17.09h-4.09v-17.09Z"/><path class="cls-10" d="m163.67,41.54c0-4.79,3.51-8.31,8.5-8.31s8.44,3.51,8.44,8.31v1.34h-12.94c.51,2.3,2.27,3.51,4.5,3.51,1.69,0,2.94-.48,3.74-1.5h4.06c-1.18,3-4.06,4.95-7.8,4.95-4.98,0-8.5-3.51-8.5-8.31Zm12.91-1.69c-.61-2.11-2.33-3.16-4.41-3.16s-3.8,1.09-4.41,3.16h8.82Z"/><path class="cls-10" d="m182.46,41.22c0-5.27,3.13-7.99,7.8-7.99s7.8,2.68,7.8,7.99v8.21h-3.8v-8.21c0-3-1.6-4.44-3.99-4.44s-3.99,1.44-3.99,4.44v8.21h-3.8v-8.21Z"/><path class="cls-10" d="m199.94,44.77h3.83c.03,1.05.96,1.76,2.81,1.76,1.95,0,2.78-.8,2.78-1.76,0-1.21-1.41-1.37-3.1-1.6-2.43-.32-6.01-.73-6.01-4.6,0-3.23,2.46-5.34,6.26-5.34s6.23,2.17,6.33,4.95h-3.77c-.1-.96-.99-1.63-2.49-1.63-1.66,0-2.49.8-2.49,1.73,0,1.21,1.44,1.41,3.13,1.63,2.11.29,5.98.7,5.98,4.63,0,3.2-2.59,5.3-6.61,5.3s-6.55-2.14-6.65-5.08Z"/><path class="cls-10" d="m214.44,41.54c0-4.79,3.51-8.31,8.5-8.31s8.5,3.51,8.5,8.31-3.51,8.31-8.5,8.31-8.5-3.51-8.5-8.31Zm13.13,0c0-2.78-1.85-4.76-4.63-4.76s-4.67,1.98-4.67,4.76,1.88,4.76,4.67,4.76,4.63-1.98,4.63-4.76Z"/><path class="cls-10" d="m233.3,40.26c0-4.76,2.81-7.03,6.93-7.03s6.9,2.27,6.9,7.09v.1h-3.77v-.16c0-2.56-1.28-3.48-3.13-3.48s-3.13.93-3.13,3.48v9.17h-3.8v-9.17Z"/><polygon class="cls-9" points="34.35 78.57 0 57.99 0 53.49 34.35 43.03 68 53.28 68 58.85 34.35 78.57"/><polygon class="cls-11" points=".62 20 0 53.49 34.35 43.03 34.35 0 .62 20"/><polygon class="cls-12" points="68 20 68 53.28 34.35 43.03 34.35 .27 68 20"/><polygon class="cls-7" points="19.08 55.65 6.79 49.83 20.57 45.63 32.36 50.7 19.08 55.65"/><polygon class="cls-7" points="6.79 33.4 6.79 49.83 20.57 45.63 20.57 30.09 6.79 33.4"/><polygon class="cls-7" points="7.88 34.05 7.88 50.49 21.65 46.29 21.65 30.74 7.88 34.05"/><polygon class="cls-6" points="6.79 49.83 6.79 51.45 19.08 57.26 19.08 55.65 6.79 49.83"/><polygon class="cls-8" points="32.36 50.64 32.36 52.26 19.08 57.26 19.08 55.65 32.36 50.64"/><polygon class="cls-6" points="6.79 33.4 7.88 34.05 7.88 50.49 6.79 51.45 6.79 33.4"/><polygon class="cls-7" points="49.62 55.65 61.9 49.83 48.12 45.63 36.33 50.7 49.62 55.65"/><polygon class="cls-7" points="61.9 33.4 61.9 49.83 48.12 45.63 48.12 30.09 61.9 33.4"/><polygon class="cls-8" points="60.82 34.05 60.82 50.49 47.04 46.29 47.04 30.74 60.82 34.05"/><polygon class="cls-6" points="61.9 49.83 61.9 51.45 49.62 57.26 49.62 55.65 61.9 49.83"/><polygon class="cls-8" points="36.33 50.64 36.33 52.26 49.62 57.26 49.62 55.65 36.33 50.64"/><polygon class="cls-6" points="61.9 33.4 60.82 34.05 60.82 50.49 61.9 51.45 61.9 33.4"/><polygon class="cls-7" points="21.65 15.55 21.65 30.74 34.35 27.04 34.35 11.07 21.65 15.55"/><polygon class="cls-6" points="34.35 10.2 34.35 11.07 21.65 15.55 20.57 14.9 34.35 10.2"/><polygon class="cls-6" points="20.57 14.9 21.65 15.55 21.65 30.74 20.57 30.09 20.57 14.9"/><polygon class="cls-8" points="47.04 15.55 47.04 30.74 34.35 27.04 34.35 11.07 47.04 15.55"/><polygon class="cls-6" points="34.35 10.2 34.35 11.07 47.04 15.55 48.12 14.9 34.35 10.2"/><polygon class="cls-8" points="48.12 14.9 47.04 15.55 47.04 30.74 48.12 30.09 48.12 14.9"/><path class="cls-2" d="m174.48,64.04c-.26.13-.73.36-1.6.36-1.77,0-2.77-1.09-2.77-2.72,0-1.76,1.21-2.78,2.72-2.78.61,0,1.14.14,1.66.46l-.34,1.21c-.22-.17-.56-.42-1.2-.42-.92,0-1.46.62-1.46,1.49,0,.67.31,1.5,1.49,1.5.77,0,1.31-.34,1.52-.47v1.37Z"/><path class="cls-2" d="m175.28,64.26v-5.22h1.31v.51c.3-.43.79-.7,1.53-.64v1.26c-.68-.04-1.47.08-1.47,1.19v2.9h-1.37Z"/><path class="cls-2" d="m179.04,59.39c.59-.32,1.19-.49,1.87-.49.86,0,1.5.28,1.87.72.27.32.38.72.38,1.36v1.95c0,.71.09,1.06.2,1.32h-1.3c-.05-.12-.09-.24-.1-.47-.43.42-.96.61-1.55.61-.97,0-1.77-.58-1.77-1.64,0-1.33,1.15-1.63,2.1-1.78.91-.14,1.07-.17,1.07-.42,0-.22-.22-.45-.87-.45s-1.24.22-1.8.58l-.11-1.3Zm2.81,2.41c-.24.11-.47.16-1.07.24-.54.07-.85.24-.85.68,0,.31.2.55.61.55.3,0,.87-.1,1.32-.78v-.69Z"/><path class="cls-2" d="m184.19,64.26v-5.22h1.31v.51c.13-.17.52-.65,1.39-.65.92,0,1.38.55,1.53.85.19.39.23.81.23,1.57v2.94h-1.37v-2.98c0-.47,0-1.12-.78-1.12-.15,0-.94.03-.94,1.12v2.98h-1.37Z"/><path class="cls-2" d="m191.19,62.72v1.53h-1.53v-1.53h1.53Z"/><path class="cls-2" d="m192.21,64.26v-5.22h1.31v.51c.3-.43.79-.7,1.53-.64v1.26c-.68-.04-1.47.08-1.47,1.19v2.9h-1.37Z"/><path class="cls-2" d="m198.03,60.99v1.32h-2.54v-1.32h2.54Z"/><path class="cls-2" d="m200.06,59.54c.17-.18.61-.65,1.46-.65,1.47,0,2.29,1.29,2.29,2.75s-.77,2.75-2.3,2.75c-.7,0-1.13-.32-1.4-.56v2.74h-1.37v-7.54h1.32v.51Zm1.22,3.6c.72,0,1.16-.58,1.16-1.5s-.43-1.49-1.16-1.49c-.26,0-1.19.1-1.19,1.49s.92,1.5,1.19,1.5Z"/><path class="cls-2" d="m204.56,64.26v-5.22h1.31v.51c.3-.43.79-.7,1.53-.64v1.26c-.68-.04-1.47.08-1.47,1.19v2.9h-1.37Z"/><path class="cls-2" d="m210.48,58.9c1.39,0,2.59,1.05,2.59,2.75s-1.2,2.75-2.59,2.75-2.58-1.05-2.58-2.75,1.21-2.75,2.58-2.75Zm0,4.24c.79,0,1.22-.63,1.22-1.5,0-1.49-1.12-1.49-1.22-1.49-.42,0-1.21.25-1.21,1.49,0,.87.43,1.5,1.21,1.5Z"/><path class="cls-2" d="m216.31,64.34c0,.99,0,2.24-1.68,2.24-.56,0-.92-.17-1.15-.27l.1-1.19c.17.07.44.2.78.2.51,0,.58-.38.58-.79v-5.49h1.37v5.3Zm.06-5.89h-1.49v-1.4h1.49v1.4Z"/><path class="cls-2" d="m218.61,62.07c.04.33.13,1.13,1.4,1.13.76,0,1.19-.2,1.64-.42v1.28c-.27.1-.83.33-1.7.33-2.29,0-2.71-1.76-2.71-2.71,0-1.64,1-2.79,2.43-2.79.52,0,1.62.18,2.14,1.43.22.54.26,1.18.26,1.74h-3.46Zm2.1-.99c-.13-1.01-.91-1.01-1.04-1.01-.88,0-1.01.82-1.05,1.01h2.08Z"/><path class="cls-2" d="m227.06,64.04c-.26.13-.73.36-1.6.36-1.77,0-2.77-1.09-2.77-2.72,0-1.76,1.21-2.78,2.72-2.78.61,0,1.14.14,1.66.46l-.34,1.21c-.22-.17-.56-.42-1.2-.42-.92,0-1.46.62-1.46,1.49,0,.67.31,1.5,1.49,1.5.77,0,1.31-.34,1.52-.47v1.37Z"/><path class="cls-2" d="m228.12,57.52h1.37v1.52h1.39v1.26h-1.39v2.26c0,.44.1.59.58.59.29,0,.56-.03.72-.06v1.24c-.16.02-.58.08-1.07.08-1.6,0-1.6-.92-1.6-1.75v-2.35h-.59v-1.26h.59v-1.52Z"/><path class="cls-2" d="m233.09,62.72v1.53h-1.53v-1.53h1.53Z"/><path class="cls-2" d="m236.48,58.9c1.39,0,2.59,1.05,2.59,2.75s-1.2,2.75-2.59,2.75-2.58-1.05-2.58-2.75,1.21-2.75,2.58-2.75Zm0,4.24c.79,0,1.22-.63,1.22-1.5,0-1.49-1.12-1.49-1.22-1.49-.42,0-1.21.25-1.21,1.49,0,.87.43,1.5,1.21,1.5Z"/><path class="cls-2" d="m239.84,64.26v-5.22h1.31v.51c.3-.43.79-.7,1.53-.64v1.26c-.68-.04-1.47.08-1.47,1.19v2.9h-1.37Z"/><path class="cls-2" d="m248.07,60.1c-.09-.04-.19-.06-.34-.06-.14,0-.24.03-.31.05.05.12.13.33.13.7,0,1.23-1.05,1.76-2.14,1.76-.14,0-.24,0-.32,0-.11.05-.24.17-.24.3,0,.21.33.24.92.27,1.19.05,2.35.26,2.35,1.66,0,1.58-1.75,1.8-2.66,1.8-1.66,0-2.36-.77-2.36-1.68,0-.83.59-1.21.77-1.32-.16-.11-.42-.31-.42-.71s.33-.68.43-.75c-.65-.51-.65-1.21-.65-1.37,0-1.08.89-1.85,2.16-1.85.63,0,.98.17,1.16.25.41-.25.81-.25.92-.25.32,0,.45.05.6.11v1.09Zm-2.68,4.05c-.51,0-.93.14-.93.65,0,.58.7.66,1.12.66.27,0,1.17-.04,1.17-.7,0-.5-.58-.61-1.36-.61Zm-.85-3.39c0,.44.36.72.85.72s.86-.31.86-.75c0-.38-.28-.74-.85-.74-.49,0-.86.3-.86.77Z"/><path class="cls-4" d="m174.48,64.04c-.26.13-.73.36-1.6.36-1.77,0-2.77-1.09-2.77-2.72,0-1.76,1.21-2.78,2.72-2.78.61,0,1.14.14,1.66.46l-.34,1.21c-.22-.17-.56-.42-1.2-.42-.92,0-1.46.62-1.46,1.49,0,.67.31,1.5,1.49,1.5.77,0,1.31-.34,1.52-.47v1.37Z"/><path class="cls-4" d="m175.28,64.26v-5.22h1.31v.51c.3-.43.79-.7,1.53-.64v1.26c-.68-.04-1.47.08-1.47,1.19v2.9h-1.37Z"/><path class="cls-4" d="m179.04,59.39c.59-.32,1.19-.49,1.87-.49.86,0,1.5.28,1.87.72.27.32.38.72.38,1.36v1.95c0,.71.09,1.06.2,1.32h-1.3c-.05-.12-.09-.24-.1-.47-.43.42-.96.61-1.55.61-.97,0-1.77-.58-1.77-1.64,0-1.33,1.15-1.63,2.1-1.78.91-.14,1.07-.17,1.07-.42,0-.22-.22-.45-.87-.45s-1.24.22-1.8.58l-.11-1.3Zm2.81,2.41c-.24.11-.47.16-1.07.24-.54.07-.85.24-.85.68,0,.31.2.55.61.55.3,0,.87-.1,1.32-.78v-.69Z"/><path class="cls-4" d="m184.19,64.26v-5.22h1.31v.51c.13-.17.52-.65,1.39-.65.92,0,1.38.55,1.53.85.19.39.23.81.23,1.57v2.94h-1.37v-2.98c0-.47,0-1.12-.78-1.12-.15,0-.94.03-.94,1.12v2.98h-1.37Z"/><path class="cls-4" d="m191.19,62.72v1.53h-1.53v-1.53h1.53Z"/><path class="cls-4" d="m192.21,64.26v-5.22h1.31v.51c.3-.43.79-.7,1.53-.64v1.26c-.68-.04-1.47.08-1.47,1.19v2.9h-1.37Z"/><path class="cls-4" d="m198.03,60.99v1.32h-2.54v-1.32h2.54Z"/><path class="cls-4" d="m200.06,59.54c.17-.18.61-.65,1.46-.65,1.47,0,2.29,1.29,2.29,2.75s-.77,2.75-2.3,2.75c-.7,0-1.13-.32-1.4-.56v2.74h-1.37v-7.54h1.32v.51Zm1.22,3.6c.72,0,1.16-.58,1.16-1.5s-.43-1.49-1.16-1.49c-.26,0-1.19.1-1.19,1.49s.92,1.5,1.19,1.5Z"/><path class="cls-4" d="m204.56,64.26v-5.22h1.31v.51c.3-.43.79-.7,1.53-.64v1.26c-.68-.04-1.47.08-1.47,1.19v2.9h-1.37Z"/><path class="cls-4" d="m210.48,58.9c1.39,0,2.59,1.05,2.59,2.75s-1.2,2.75-2.59,2.75-2.58-1.05-2.58-2.75,1.21-2.75,2.58-2.75Zm0,4.24c.79,0,1.22-.63,1.22-1.5,0-1.49-1.12-1.49-1.22-1.49-.42,0-1.21.25-1.21,1.49,0,.87.43,1.5,1.21,1.5Z"/><path class="cls-4" d="m216.31,64.34c0,.99,0,2.24-1.68,2.24-.56,0-.92-.17-1.15-.27l.1-1.19c.17.07.44.2.78.2.51,0,.58-.38.58-.79v-5.49h1.37v5.3Zm.06-5.89h-1.49v-1.4h1.49v1.4Z"/><path class="cls-4" d="m218.61,62.07c.04.33.13,1.13,1.4,1.13.76,0,1.19-.2,1.64-.42v1.28c-.27.1-.83.33-1.7.33-2.29,0-2.71-1.76-2.71-2.71,0-1.64,1-2.79,2.43-2.79.52,0,1.62.18,2.14,1.43.22.54.26,1.18.26,1.74h-3.46Zm2.1-.99c-.13-1.01-.91-1.01-1.04-1.01-.88,0-1.01.82-1.05,1.01h2.08Z"/><path class="cls-4" d="m227.06,64.04c-.26.13-.73.36-1.6.36-1.77,0-2.77-1.09-2.77-2.72,0-1.76,1.21-2.78,2.72-2.78.61,0,1.14.14,1.66.46l-.34,1.21c-.22-.17-.56-.42-1.2-.42-.92,0-1.46.62-1.46,1.49,0,.67.31,1.5,1.49,1.5.77,0,1.31-.34,1.52-.47v1.37Z"/><path class="cls-4" d="m228.12,57.52h1.37v1.52h1.39v1.26h-1.39v2.26c0,.44.1.59.58.59.29,0,.56-.03.72-.06v1.24c-.16.02-.58.08-1.07.08-1.6,0-1.6-.92-1.6-1.75v-2.35h-.59v-1.26h.59v-1.52Z"/><path class="cls-4" d="m233.09,62.72v1.53h-1.53v-1.53h1.53Z"/><path class="cls-4" d="m236.48,58.9c1.39,0,2.59,1.05,2.59,2.75s-1.2,2.75-2.59,2.75-2.58-1.05-2.58-2.75,1.21-2.75,2.58-2.75Zm0,4.24c.79,0,1.22-.63,1.22-1.5,0-1.49-1.12-1.49-1.22-1.49-.42,0-1.21.25-1.21,1.49,0,.87.43,1.5,1.21,1.5Z"/><path class="cls-4" d="m239.84,64.26v-5.22h1.31v.51c.3-.43.79-.7,1.53-.64v1.26c-.68-.04-1.47.08-1.47,1.19v2.9h-1.37Z"/><path class="cls-4" d="m248.07,60.1c-.09-.04-.19-.06-.34-.06-.14,0-.24.03-.31.05.05.12.13.33.13.7,0,1.23-1.05,1.76-2.14,1.76-.14,0-.24,0-.32,0-.11.05-.24.17-.24.3,0,.21.33.24.92.27,1.19.05,2.35.26,2.35,1.66,0,1.58-1.75,1.8-2.66,1.8-1.66,0-2.36-.77-2.36-1.68,0-.83.59-1.21.77-1.32-.16-.11-.42-.31-.42-.71s.33-.68.43-.75c-.65-.51-.65-1.21-.65-1.37,0-1.08.89-1.85,2.16-1.85.63,0,.98.17,1.16.25.41-.25.81-.25.92-.25.32,0,.45.05.6.11v1.09Zm-2.68,4.05c-.51,0-.93.14-.93.65,0,.58.7.66,1.12.66.27,0,1.17-.04,1.17-.7,0-.5-.58-.61-1.36-.61Zm-.85-3.39c0,.44.36.72.85.72s.86-.31.86-.75c0-.38-.28-.74-.85-.74-.49,0-.86.3-.86.77Z"/></g></svg>