<?xml version="1.0" encoding="UTF-8"?><svg id="_レイヤー_2" xmlns="http://www.w3.org/2000/svg" xmlns:xlink="http://www.w3.org/1999/xlink" viewBox="0 0 109.34 126.33"><defs><style>.cls-1{fill:#a9a9aa;}.cls-2{fill:#9493a3;}.cls-3{fill:#555559;}.cls-4{fill:url(#_名称未設定グラデーション_77);}.cls-5{fill:url(#_名称未設定グラデーション_81);}.cls-6{fill:url(#_名称未設定グラデーション_80);}</style><linearGradient id="_名称未設定グラデーション_77" x1="0" y1="97.76" x2="109.34" y2="97.76" gradientUnits="userSpaceOnUse"><stop offset="0" stop-color="#65afb5"/><stop offset="1" stop-color="#7d7d85"/></linearGradient><linearGradient id="_名称未設定グラデーション_81" x1="6.28" y1="28.09" x2="57.82" y2="64.13" gradientUnits="userSpaceOnUse"><stop offset="0" stop-color="#7ab8e4" stop-opacity=".1"/><stop offset="1" stop-color="#7d7d85"/></linearGradient><linearGradient id="_名称未設定グラデーション_80" x1="-61.23" y1="27.91" x2="-9.76" y2="63.9" gradientTransform="translate(42.7) rotate(-180) scale(1 -1)" gradientUnits="userSpaceOnUse"><stop offset="0" stop-color="#7ab8e4" stop-opacity=".3"/><stop offset="1" stop-color="#7d7d85"/></linearGradient></defs><g id="_レイヤー_1-2"><polygon class="cls-4" points="55.22 126.33 0 93.24 0 86.01 55.22 69.18 109.34 85.68 109.34 94.63 55.22 126.33"/><polygon class="cls-5" points="1 32.17 0 86.01 55.22 69.18 55.22 0 1 32.17"/><polygon class="cls-6" points="109.34 32.17 109.34 85.68 55.22 69.18 55.22 .43 109.34 32.17"/><polygon class="cls-2" points="30.67 89.47 10.91 80.13 33.07 73.38 52.03 81.51 30.67 89.47"/><polygon class="cls-2" points="10.91 53.7 10.91 80.13 33.07 73.38 33.07 48.38 10.91 53.7"/><polygon class="cls-2" points="12.66 54.75 12.66 81.18 34.82 74.43 34.82 49.43 12.66 54.75"/><polygon class="cls-1" points="10.91 80.13 10.91 82.73 30.67 92.07 30.67 89.47 10.91 80.13"/><polygon class="cls-3" points="52.03 81.43 52.03 84.03 30.67 92.07 30.67 89.47 52.03 81.43"/><polygon class="cls-1" points="10.91 53.7 12.66 54.75 12.66 81.18 10.91 82.73 10.91 53.7"/><polygon class="cls-2" points="79.78 89.47 99.54 80.13 77.38 73.38 58.42 81.51 79.78 89.47"/><polygon class="cls-2" points="99.54 53.7 99.54 80.13 77.38 73.38 77.38 48.38 99.54 53.7"/><polygon class="cls-3" points="97.79 54.75 97.79 81.18 75.63 74.43 75.63 49.43 97.79 54.75"/><polygon class="cls-1" points="99.54 80.13 99.54 82.73 79.78 92.07 79.78 89.47 99.54 80.13"/><polygon class="cls-3" points="58.42 81.43 58.42 84.03 79.78 92.07 79.78 89.47 58.42 81.43"/><polygon class="cls-1" points="99.54 53.7 97.79 54.75 97.79 81.18 99.54 82.73 99.54 53.7"/><polygon class="cls-2" points="34.82 25.01 34.82 49.43 55.22 43.47 55.22 17.8 34.82 25.01"/><polygon class="cls-1" points="55.22 16.4 55.22 17.8 34.82 25.01 33.07 23.96 55.22 16.4"/><polygon class="cls-1" points="33.07 23.96 34.82 25.01 34.82 49.43 33.07 48.38 33.07 23.96"/><polygon class="cls-3" points="75.63 25.01 75.63 49.43 55.22 43.47 55.22 17.8 75.63 25.01"/><polygon class="cls-1" points="55.22 16.4 55.22 17.8 75.63 25.01 77.38 23.96 55.22 16.4"/><polygon class="cls-3" points="77.38 23.96 75.63 25.01 75.63 49.43 77.38 48.38 77.38 23.96"/></g></svg>