<?xml version="1.0" encoding="UTF-8"?><svg id="_レイヤー_2" xmlns="http://www.w3.org/2000/svg" viewBox="0 0 185.94 155.49"><defs><style>.cls-1{fill:#bbd762;}.cls-2,.cls-3,.cls-4,.cls-5,.cls-6{fill:#4b275c;}.cls-3{opacity:.15;}.cls-4{opacity:.5;}.cls-5{opacity:.75;}.cls-6{opacity:.35;}</style></defs><g id="design"><path class="cls-2" d="m177.69,144.37h-23.85l2.06,5.48h16.35c3,0,5.44-2.43,5.44-5.44v-.05Z"/><rect class="cls-2" x="16.57" width="17.41" height="17.41"/><rect class="cls-2" x="37.95" width="17.41" height="17.41"/><rect class="cls-2" x="59.33" width="17.41" height="17.41"/><rect class="cls-2" x="80.72" width="17.41" height="17.41"/><rect class="cls-2" x="102.1" width="17.41" height="17.41"/><rect class="cls-2" x="123.49" width="17.41" height="17.41"/><rect class="cls-2" x="144.87" width="17.41" height="17.41"/><rect class="cls-5" x="16.57" y="21.93" width="17.41" height="17.41"/><rect class="cls-5" x="37.95" y="21.93" width="17.41" height="17.41"/><rect class="cls-5" x="59.33" y="21.93" width="17.41" height="17.41"/><rect class="cls-5" x="80.72" y="21.93" width="17.41" height="17.41"/><rect class="cls-5" x="102.1" y="21.93" width="17.41" height="17.41"/><rect class="cls-5" x="123.49" y="21.93" width="17.41" height="17.41"/><rect class="cls-5" x="144.87" y="21.93" width="17.41" height="17.41"/><rect class="cls-4" x="16.57" y="43.86" width="17.41" height="17.41"/><rect class="cls-4" x="37.95" y="43.86" width="17.41" height="17.41"/><rect class="cls-4" x="59.33" y="43.86" width="17.41" height="17.41"/><rect class="cls-4" x="80.72" y="43.86" width="17.41" height="17.41"/><rect class="cls-4" x="102.1" y="43.86" width="17.41" height="17.41"/><rect class="cls-4" x="123.49" y="43.86" width="17.41" height="17.41"/><rect class="cls-4" x="144.87" y="43.86" width="17.41" height="17.41"/><rect class="cls-6" x="16.57" y="65.78" width="17.41" height="17.41"/><rect class="cls-6" x="37.95" y="65.78" width="17.41" height="17.41"/><rect class="cls-6" x="59.33" y="65.78" width="17.41" height="17.41"/><rect class="cls-6" x="80.72" y="65.78" width="17.41" height="17.41"/><rect class="cls-6" x="102.1" y="65.78" width="17.41" height="17.41"/><rect class="cls-6" x="123.49" y="65.78" width="17.41" height="17.41"/><rect class="cls-6" x="144.87" y="65.78" width="17.41" height="17.41"/><rect class="cls-3" x="16.57" y="87.71" width="17.41" height="17.41"/><rect class="cls-3" x="37.95" y="87.71" width="17.41" height="17.41"/><rect class="cls-3" x="59.33" y="87.71" width="17.41" height="17.41"/><rect class="cls-3" x="80.72" y="87.71" width="17.41" height="17.41"/><rect class="cls-3" x="102.1" y="87.71" width="17.41" height="17.41"/><rect class="cls-3" x="123.49" y="87.71" width="17.41" height="17.41"/><rect class="cls-3" x="144.87" y="87.71" width="17.41" height="17.41"/><polygon class="cls-1" points="11.3 103.28 0 83.48 1.79 82.45 9.23 95.5 9.23 5.74 11.3 5.74 11.3 103.28"/><path class="cls-2" d="m1.61,127.49c0-1.51.28-2.93.84-4.23.56-1.31,1.34-2.45,2.33-3.42.99-.97,2.18-1.74,3.56-2.29s2.9-.83,4.56-.83,3.16.28,4.54.83c1.39.55,2.58,1.31,3.59,2.29,1,.97,1.78,2.11,2.34,3.42s.84,2.72.84,4.23-.28,2.92-.84,4.23-1.34,2.45-2.34,3.42c-1,.97-2.2,1.73-3.59,2.28-1.39.55-2.9.83-4.54.83s-3.18-.28-4.56-.83-2.57-1.31-3.56-2.28c-.99-.97-1.77-2.12-2.33-3.42-.56-1.31-.84-2.72-.84-4.23Zm5.55,0c0,.81.15,1.56.46,2.24s.72,1.28,1.24,1.78c.52.51,1.13.9,1.82,1.18.69.28,1.43.42,2.2.42s1.51-.14,2.21-.42c.69-.28,1.31-.67,1.84-1.18.53-.5.95-1.1,1.26-1.78s.46-1.43.46-2.24-.16-1.56-.46-2.25-.73-1.28-1.26-1.78-1.15-.9-1.84-1.18c-.69-.28-1.43-.42-2.21-.42s-1.51.14-2.2.42-1.3.67-1.82,1.18c-.52.51-.94,1.1-1.24,1.78s-.46,1.43-.46,2.25Z"/><path class="cls-2" d="m27.09,123.81h4.89v1.76c.67-.81,1.34-1.36,2.03-1.64s1.49-.42,2.41-.42c.97,0,1.81.16,2.5.47.69.31,1.28.76,1.77,1.34.4.47.67.99.81,1.57.14.58.22,1.24.22,1.97v8.82h-4.89v-7.01c0-.68-.05-1.24-.15-1.66-.1-.42-.28-.76-.53-1.01-.22-.22-.46-.37-.73-.46-.27-.09-.56-.14-.87-.14-.83,0-1.47.25-1.91.75s-.66,1.2-.66,2.12v7.41h-4.89v-13.88Z"/><path class="cls-2" d="m49.95,115.24v22.45h-4.89v-22.45h4.89Z"/><path class="cls-2" d="m52.98,118.48c0-.38.07-.74.22-1.07.14-.33.34-.63.59-.88.25-.25.55-.45.88-.59.33-.15.69-.22,1.07-.22s.73.07,1.07.22.63.34.88.59c.25.25.45.55.59.88.15.33.22.69.22,1.07s-.07.74-.22,1.07c-.15.33-.34.63-.59.88-.25.25-.55.45-.88.59-.33.15-.69.22-1.07.22s-.74-.07-1.07-.22c-.33-.14-.63-.34-.88-.59s-.45-.55-.59-.88c-.15-.33-.22-.69-.22-1.07Zm5.22,5.33v13.88h-4.9v-13.88h4.9Z"/><path class="cls-2" d="m61.55,123.81h4.89v1.76c.67-.81,1.34-1.36,2.03-1.64s1.49-.42,2.41-.42c.97,0,1.81.16,2.5.47.69.31,1.28.76,1.77,1.34.4.47.67.99.81,1.57.14.58.22,1.24.22,1.97v8.82h-4.89v-7.01c0-.68-.05-1.24-.15-1.66-.1-.42-.28-.76-.53-1.01-.22-.22-.46-.37-.73-.46-.27-.09-.56-.14-.87-.14-.83,0-1.47.25-1.91.75s-.66,1.2-.66,2.12v7.41h-4.89v-13.88Z"/><path class="cls-2" d="m83.92,131.57c0,2.11.99,3.16,2.98,3.16,1.06,0,1.87-.43,2.41-1.3h4.73c-.96,3.17-3.35,4.76-7.17,4.76-1.17,0-2.24-.18-3.22-.53-.97-.35-1.81-.85-2.5-1.5s-1.23-1.42-1.61-2.33c-.38-.9-.57-1.91-.57-3.03s.18-2.19.54-3.12c.36-.93.87-1.72,1.54-2.37.67-.65,1.47-1.15,2.42-1.5.95-.35,2.01-.53,3.2-.53s2.23.18,3.16.53c.94.35,1.73.86,2.38,1.53s1.14,1.48,1.49,2.45.52,2.05.52,3.26v.51h-10.31Zm5.73-2.84c-.16-.68-.5-1.23-1-1.65-.5-.41-1.12-.62-1.84-.62-.76,0-1.37.2-1.85.6-.48.4-.78.95-.91,1.68h5.6Z"/><path class="cls-2" d="m97.47,137.69v-20.39h5.3l9.79,12.47v-12.47h5.28v20.39h-5.28l-9.79-12.47v12.47h-5.3Z"/><path class="cls-2" d="m121.19,137.69l3.46-20.39h5.25l4.08,10.87,4.06-10.87h5.25l3.46,20.39h-5.27l-1.76-11.74-4.81,11.74h-2.11l-4.57-11.74-1.76,11.74h-5.27Z"/><path class="cls-2" d="m161.79,121.78h-6.38v3.41h5.82v4.49h-5.82v8.01h-5.3v-20.39h11.68v4.49Z"/><path class="cls-2" d="m163.36,135.09c0-.43.08-.84.24-1.23.16-.39.39-.73.67-1.02.29-.29.63-.51,1.02-.67.39-.16.8-.24,1.23-.24s.84.08,1.23.24c.39.16.73.39,1.02.67.29.29.51.63.67,1.02.16.39.24.8.24,1.23s-.08.84-.24,1.23c-.16.39-.39.73-.67,1.01s-.63.52-1.02.68c-.39.16-.8.24-1.23.24s-.84-.08-1.23-.24c-.39-.16-.73-.39-1.02-.68s-.51-.63-.67-1.01c-.16-.39-.24-.8-.24-1.23Z"/><path class="cls-2" d="m172.47,118.48c0-.38.07-.74.22-1.07.14-.33.34-.63.59-.88.25-.25.55-.45.88-.59.33-.15.69-.22,1.07-.22s.73.07,1.07.22.63.34.88.59c.25.25.45.55.59.88.15.33.22.69.22,1.07s-.07.74-.22,1.07c-.15.33-.34.63-.59.88-.25.25-.55.45-.88.59-.33.15-.69.22-1.07.22s-.74-.07-1.07-.22c-.33-.14-.63-.34-.88-.59s-.45-.55-.59-.88c-.15-.33-.22-.69-.22-1.07Z"/><rect class="cls-2" x="172.8" y="123.81" width="4.9" height="20.8"/><path class="cls-2" d="m185.94,115.24v22.45h-4.89v-22.45h4.89Z"/><path class="cls-2" d="m26.32,152.89h-2.22v-6.28h-.89v-1.93h3.1v8.2Z"/><path class="cls-2" d="m33.79,148.85c0,1.28-.26,2.3-.77,3.06-.51.75-1.2,1.13-2.06,1.13-.93,0-1.66-.38-2.19-1.14-.52-.76-.79-1.82-.79-3.18,0-1.29.26-2.3.79-3.05.53-.75,1.24-1.13,2.14-1.13s1.61.38,2.12,1.14c.51.76.76,1.82.76,3.16Zm-2.19-.02c0-1.58-.24-2.38-.72-2.38s-.71.71-.71,2.13c0,1.69.23,2.54.7,2.54.25,0,.44-.19.56-.56.12-.37.18-.95.18-1.73Z"/><path class="cls-2" d="m37.04,151.8c0,.33-.12.62-.37.86-.24.24-.53.36-.87.36s-.64-.12-.89-.36c-.25-.25-.37-.54-.37-.89s.12-.63.36-.87c.24-.24.53-.36.87-.36s.65.12.89.37c.24.24.37.54.37.9Z"/><path class="cls-2" d="m38.02,152.4l.26-1.94c.66.38,1.24.57,1.76.57.34,0,.61-.08.82-.25.21-.17.32-.39.32-.67,0-.29-.12-.52-.35-.68s-.55-.24-.97-.24c-.46,0-.94.1-1.44.29l.64-4.78h4.08v1.93h-2.34l-.17.92c.15-.01.28-.02.37-.02.67,0,1.24.24,1.71.73.46.48.69,1.08.69,1.81,0,.85-.3,1.56-.89,2.12-.59.57-1.33.85-2.23.85-.77,0-1.52-.21-2.25-.64Z"/><path class="cls-2" d="m49.98,152.89h-5.65l2.24-2.99c.25-.34.47-.64.64-.91.17-.27.31-.5.41-.71.19-.39.29-.78.29-1.19,0-.22-.05-.4-.14-.53-.09-.13-.22-.2-.38-.2-.35,0-.53.33-.53,1,0,.04,0,.08,0,.13,0,.05,0,.11,0,.18h-2.15v-.3c-.01-.83.24-1.5.75-2.03.51-.53,1.17-.8,1.97-.8s1.4.25,1.89.75c.49.49.74,1.14.74,1.93,0,.64-.17,1.26-.5,1.86-.17.3-.39.62-.66.95-.27.33-.6.68-.99,1.04.33-.02.67-.04,1.01-.05.34-.01.68-.02,1.04-.02v1.89Z"/><path class="cls-2" d="m55.33,148.62c.85.37,1.27,1.01,1.27,1.93,0,.72-.27,1.31-.8,1.78-.53.47-1.2.7-2,.7s-1.44-.24-1.98-.72c-.54-.48-.81-1.07-.81-1.76,0-.92.47-1.57,1.4-1.94-.82-.28-1.23-.85-1.23-1.72,0-.68.25-1.25.73-1.7.49-.45,1.11-.67,1.87-.67s1.41.22,1.91.66c.51.44.77.99.77,1.64,0,.42-.09.78-.27,1.06-.18.28-.46.52-.86.72Zm-.99,1.7c0-.55-.18-.83-.54-.83-.08,0-.15.02-.22.06-.07.04-.12.1-.17.17s-.08.16-.11.27-.04.22-.04.34c0,.24.05.44.15.59.1.15.23.22.4.22.08,0,.15-.02.21-.06.07-.04.12-.1.17-.17.05-.07.08-.16.11-.26.03-.1.04-.21.04-.34Zm-.07-3.29c0-.22-.04-.39-.13-.52-.08-.13-.2-.2-.34-.2s-.25.06-.33.19c-.08.12-.12.29-.12.49,0,.5.15.75.46.75s.46-.24.46-.71Z"/><path class="cls-2" d="m61.06,152.89h-2.22v-6.28h-.89v-1.93h3.1v8.2Z"/><path class="cls-2" d="m64.06,155.49l-1.15-.65,5.87-10.96,1.16.62-5.87,10.99Z"/><path class="cls-2" d="m74.94,152.89h-4.6l1.39-2.98c.07-.15.15-.31.24-.48.09-.17.19-.36.31-.57h-1.62v-1.72h4.63l-1.35,2.93c-.16.34-.35.7-.56,1.08h1.58v1.74Z"/><path class="cls-2" d="m78.92,150.95l2.08.04c-.15.67-.44,1.17-.87,1.51-.43.34-.99.51-1.69.51-.82,0-1.47-.25-1.93-.77-.46-.52-.7-1.22-.7-2.12s.25-1.65.75-2.23c.5-.58,1.14-.87,1.93-.87s1.41.28,1.88.83c.47.56.7,1.3.7,2.23v.38h-3.14c.03.59.19.88.5.88.24,0,.4-.13.47-.4Zm.05-1.63c0-.11-.01-.2-.04-.29-.03-.09-.06-.16-.1-.23-.04-.06-.1-.11-.16-.15-.06-.04-.13-.06-.2-.06-.15,0-.27.07-.36.21-.09.14-.14.31-.14.52h.99Z"/><path class="cls-2" d="m86.96,152.89h-2.13v-3.04c0-.26-.03-.45-.08-.55-.05-.1-.14-.15-.27-.15-.3,0-.45.28-.45.85v2.9h-2.13v-5.74h2.13c0,.14,0,.27-.01.39,0,.12,0,.23-.02.33l-.02.37c.34-.81.85-1.22,1.51-1.22.46,0,.82.17,1.07.52.26.34.39.82.39,1.43v3.92Z"/><path class="cls-2" d="m93.12,150.11c0,.89-.25,1.59-.73,2.11-.49.52-1.14.79-1.97.79s-1.45-.27-1.93-.8c-.47-.54-.71-1.26-.71-2.17s.24-1.63.73-2.18c.48-.55,1.12-.83,1.92-.83.84,0,1.5.27,1.98.82.48.55.72,1.3.72,2.26Zm-2.07-.07c0-.21-.01-.4-.04-.58s-.07-.32-.12-.44c-.05-.12-.12-.22-.19-.28-.08-.07-.16-.1-.25-.1-.18,0-.33.13-.44.38-.11.22-.17.56-.17,1s.05.77.17,1c.11.25.26.38.44.38.17,0,.32-.13.43-.38.11-.28.17-.61.17-.99Z"/><path class="cls-2" d="m96.89,152.89c0-.06,0-.13.01-.21,0-.08,0-.17.02-.27,0-.06.01-.16.02-.29-.21.33-.41.57-.6.7-.19.13-.43.19-.71.19-.58,0-1.03-.26-1.36-.78-.33-.52-.49-1.24-.49-2.16,0-.97.16-1.72.48-2.25.32-.54.77-.8,1.35-.8.32,0,.58.07.77.21.21.14.4.39.59.74,0-.18-.02-.3-.02-.33l-.02-.58v-3.15h2.14v8.97h-2.18Zm-.91-2.9c0,.79.18,1.18.53,1.18.33,0,.49-.41.49-1.22s-.16-1.16-.48-1.16c-.36,0-.54.4-.54,1.2Z"/><path class="cls-2" d="m105.23,150.11c0,.89-.25,1.59-.73,2.11-.49.52-1.14.79-1.97.79s-1.45-.27-1.93-.8c-.47-.54-.71-1.26-.71-2.17s.24-1.63.73-2.18c.48-.55,1.12-.83,1.92-.83.84,0,1.5.27,1.98.82.48.55.72,1.3.72,2.26Zm-2.07-.07c0-.21-.01-.4-.04-.58s-.07-.32-.12-.44c-.05-.12-.12-.22-.19-.28-.08-.07-.16-.1-.25-.1-.18,0-.33.13-.44.38-.11.22-.17.56-.17,1s.05.77.17,1c.11.25.26.38.44.38.17,0,.32-.13.43-.38.11-.28.17-.61.17-.99Z"/><path class="cls-2" d="m108.44,151.8c0,.33-.12.62-.37.86-.24.24-.53.36-.87.36s-.64-.12-.89-.36c-.25-.25-.37-.54-.37-.89s.12-.63.36-.87c.24-.24.53-.36.87-.36s.65.12.89.37c.24.24.37.54.37.9Z"/><path class="cls-2" d="m113.63,148.62c.85.37,1.27,1.01,1.27,1.93,0,.72-.27,1.31-.8,1.78-.53.47-1.2.7-2,.7s-1.44-.24-1.98-.72c-.54-.48-.81-1.07-.81-1.76,0-.92.47-1.57,1.4-1.94-.82-.28-1.23-.85-1.23-1.72,0-.68.25-1.25.73-1.7.49-.45,1.11-.67,1.87-.67s1.41.22,1.91.66c.51.44.77.99.77,1.64,0,.42-.09.78-.27,1.06-.18.28-.46.52-.86.72Zm-.99,1.7c0-.55-.18-.83-.54-.83-.08,0-.15.02-.22.06-.07.04-.12.1-.17.17s-.08.16-.11.27-.04.22-.04.34c0,.24.05.44.15.59.1.15.23.22.4.22.08,0,.15-.02.21-.06.07-.04.12-.1.17-.17.05-.07.08-.16.11-.26.03-.1.04-.21.04-.34Zm-.07-3.29c0-.22-.04-.39-.13-.52-.08-.13-.2-.2-.34-.2s-.25.06-.33.19c-.08.12-.12.29-.12.49,0,.5.15.75.46.75s.46-.24.46-.71Z"/><path class="cls-2" d="m119.36,152.89h-2.22v-6.28h-.89v-1.93h3.1v8.2Z"/><path class="cls-2" d="m122,152.89l1.31-2.33c.05-.09.11-.19.18-.29.07-.11.15-.23.23-.35-.29.16-.55.23-.78.23-.56,0-1.04-.25-1.43-.76-.39-.52-.58-1.14-.58-1.87,0-.88.26-1.59.79-2.15.52-.55,1.21-.83,2.06-.83.8,0,1.45.27,1.95.82.49.55.74,1.26.74,2.15,0,.95-.44,2.27-1.33,3.95l-.75,1.43h-2.38Zm1.05-5.44c0,.73.21,1.09.64,1.09s.61-.37.61-1.1-.2-1.14-.61-1.14-.63.38-.63,1.15Z"/><path class="cls-2" d="m128.55,152.89l1.31-2.33c.05-.09.11-.19.18-.29.07-.11.15-.23.23-.35-.29.16-.55.23-.78.23-.56,0-1.04-.25-1.43-.76-.39-.52-.58-1.14-.58-1.87,0-.88.26-1.59.79-2.15.52-.55,1.21-.83,2.06-.83.8,0,1.45.27,1.95.82.49.55.74,1.26.74,2.15,0,.95-.44,2.27-1.33,3.95l-.75,1.43h-2.38Zm1.05-5.44c0,.73.21,1.09.64,1.09s.61-.37.61-1.1-.2-1.14-.61-1.14-.63.38-.63,1.15Z"/><path class="cls-2" d="m138.79,152.89h-2.21v-1.66h-2.98v-1.73l2.48-4.81h2.71v4.78h.7v1.76h-.7v1.66Zm-2.11-3.43v-1.54c0-.07,0-.18.01-.34,0-.16.02-.36.04-.6l-.33.7c-.16.34-.33.66-.49.96s-.33.57-.49.82h1.25Z"/><path class="cls-2" d="m143.79,152.89h-2.22v-6.28h-.89v-1.93h3.1v8.2Z"/><path class="cls-2" d="m150.48,152.89h-2.21v-1.66h-2.98v-1.73l2.48-4.81h2.71v4.78h.7v1.76h-.7v1.66Zm-2.11-3.43v-1.54c0-.07,0-.18.01-.34,0-.16.02-.36.04-.6l-.33.7c-.16.34-.33.66-.49.96s-.33.57-.49.82h1.25Z"/></g></svg>