<?xml version="1.0" encoding="UTF-8"?><svg id="_レイヤー_2" xmlns="http://www.w3.org/2000/svg" viewBox="0 0 162.29 105.13"><defs><style>.cls-1{fill:#bbd762;}.cls-2,.cls-3,.cls-4,.cls-5,.cls-6{fill:#4b275c;}.cls-3{opacity:.15;}.cls-4{opacity:.5;}.cls-5{opacity:.75;}.cls-6{opacity:.35;}</style></defs><g id="design"><rect class="cls-2" x="16.57" width="17.41" height="17.41"/><rect class="cls-2" x="37.95" width="17.41" height="17.41"/><rect class="cls-2" x="59.33" width="17.41" height="17.41"/><rect class="cls-2" x="80.72" width="17.41" height="17.41"/><rect class="cls-2" x="102.1" width="17.41" height="17.41"/><rect class="cls-2" x="123.49" width="17.41" height="17.41"/><rect class="cls-2" x="144.87" width="17.41" height="17.41"/><rect class="cls-5" x="16.57" y="21.93" width="17.41" height="17.41"/><rect class="cls-5" x="37.95" y="21.93" width="17.41" height="17.41"/><rect class="cls-5" x="59.33" y="21.93" width="17.41" height="17.41"/><rect class="cls-5" x="80.72" y="21.93" width="17.41" height="17.41"/><rect class="cls-5" x="102.1" y="21.93" width="17.41" height="17.41"/><rect class="cls-5" x="123.49" y="21.93" width="17.41" height="17.41"/><rect class="cls-5" x="144.87" y="21.93" width="17.41" height="17.41"/><rect class="cls-4" x="16.57" y="43.86" width="17.41" height="17.41"/><rect class="cls-4" x="37.95" y="43.86" width="17.41" height="17.41"/><rect class="cls-4" x="59.33" y="43.86" width="17.41" height="17.41"/><rect class="cls-4" x="80.72" y="43.86" width="17.41" height="17.41"/><rect class="cls-4" x="102.1" y="43.86" width="17.41" height="17.41"/><rect class="cls-4" x="123.49" y="43.86" width="17.41" height="17.41"/><rect class="cls-4" x="144.87" y="43.86" width="17.41" height="17.41"/><rect class="cls-6" x="16.57" y="65.78" width="17.41" height="17.41"/><rect class="cls-6" x="37.95" y="65.78" width="17.41" height="17.41"/><rect class="cls-6" x="59.33" y="65.78" width="17.41" height="17.41"/><rect class="cls-6" x="80.72" y="65.78" width="17.41" height="17.41"/><rect class="cls-6" x="102.1" y="65.78" width="17.41" height="17.41"/><rect class="cls-6" x="123.49" y="65.78" width="17.41" height="17.41"/><rect class="cls-6" x="144.87" y="65.78" width="17.41" height="17.41"/><rect class="cls-3" x="16.57" y="87.71" width="17.41" height="17.41"/><rect class="cls-3" x="37.95" y="87.71" width="17.41" height="17.41"/><rect class="cls-3" x="59.33" y="87.71" width="17.41" height="17.41"/><rect class="cls-3" x="80.72" y="87.71" width="17.41" height="17.41"/><rect class="cls-3" x="102.1" y="87.71" width="17.41" height="17.41"/><rect class="cls-3" x="123.49" y="87.71" width="17.41" height="17.41"/><rect class="cls-3" x="144.87" y="87.71" width="17.41" height="17.41"/><polygon class="cls-1" points="11.3 103.28 0 83.48 1.79 82.45 9.23 95.5 9.23 5.74 11.3 5.74 11.3 103.28"/></g></svg>