<?xml version="1.0" encoding="UTF-8"?><svg id="_レイヤー_2" xmlns="http://www.w3.org/2000/svg" xmlns:xlink="http://www.w3.org/1999/xlink" viewBox="0 0 122.11 141.9"><defs><style>.cls-1{fill:none;}.cls-2{fill:#fff;}.cls-3{fill:#bbd762;}.cls-4,.cls-5,.cls-6,.cls-7,.cls-8{fill:#4b275c;}.cls-5{opacity:.15;}.cls-6{opacity:.5;}.cls-7{opacity:.75;}.cls-8{opacity:.35;}.cls-9{fill:url(#_名称未設定グラデーション_7);}</style><linearGradient id="_名称未設定グラデーション_7" x1="104.23" y1="27.8" x2="17.88" y2="114.14" gradientUnits="userSpaceOnUse"><stop offset="0" stop-color="#bbd762"/><stop offset="1" stop-color="#f9d3e3"/></linearGradient></defs><g id="design"><polygon class="cls-2" points="0 106.36 0 35.54 61.05 .04 122.11 35.54 122.11 106.36 61.05 141.86 0 106.36"/><polygon class="cls-1" points="0 106.4 0 35.5 61.05 0 122.11 35.5 122.11 106.4 61.05 141.9 0 106.4"/><path class="cls-9" d="m61.06,134.22c-1.14,0-2.28-.3-3.3-.89l-48.68-28.31c-2.03-1.18-3.3-3.38-3.3-5.75v-56.61c0-2.36,1.26-4.57,3.3-5.75L57.76,8.61c2.03-1.18,4.56-1.18,6.59,0l48.68,28.31c2.03,1.18,3.3,3.38,3.3,5.75v56.61c0,2.36-1.26,4.57-3.3,5.75l-48.68,28.31c-1.02.59-2.16.89-3.3.89Zm-2.36-123.97L10.01,38.55c-1.46.85-2.36,2.42-2.36,4.12v56.61c0,1.69.9,3.27,2.36,4.12l48.68,28.31c1.46.85,3.26.85,4.72,0l48.68-28.31c1.46-.85,2.36-2.42,2.36-4.11v-56.61c0-1.69-.9-3.27-2.36-4.11L63.41,10.25c-1.45-.85-3.26-.85-4.72,0h0Z"/><path class="cls-4" d="m103.88,103.36h-11.56l1,2.66h7.93c1.46,0,2.64-1.18,2.64-2.64v-.02Z"/><rect class="cls-4" x="25.73" y="33.37" width="8.44" height="8.44"/><rect class="cls-4" x="36.1" y="33.37" width="8.44" height="8.44"/><rect class="cls-4" x="46.47" y="33.37" width="8.44" height="8.44"/><rect class="cls-4" x="56.83" y="33.37" width="8.44" height="8.44"/><rect class="cls-4" x="67.2" y="33.37" width="8.44" height="8.44"/><rect class="cls-4" x="77.57" y="33.37" width="8.44" height="8.44"/><rect class="cls-4" x="87.94" y="33.37" width="8.44" height="8.44"/><rect class="cls-7" x="25.73" y="44" width="8.44" height="8.44"/><rect class="cls-7" x="36.1" y="44" width="8.44" height="8.44"/><rect class="cls-7" x="46.47" y="44" width="8.44" height="8.44"/><rect class="cls-7" x="56.83" y="44" width="8.44" height="8.44"/><rect class="cls-7" x="67.2" y="44" width="8.44" height="8.44"/><rect class="cls-7" x="77.57" y="44" width="8.44" height="8.44"/><rect class="cls-7" x="87.94" y="44" width="8.44" height="8.44"/><rect class="cls-6" x="25.73" y="54.63" width="8.44" height="8.44"/><rect class="cls-6" x="36.1" y="54.63" width="8.44" height="8.44"/><rect class="cls-6" x="46.47" y="54.63" width="8.44" height="8.44"/><rect class="cls-6" x="56.83" y="54.63" width="8.44" height="8.44"/><rect class="cls-6" x="67.2" y="54.63" width="8.44" height="8.44"/><rect class="cls-6" x="77.57" y="54.63" width="8.44" height="8.44"/><rect class="cls-6" x="87.94" y="54.63" width="8.44" height="8.44"/><rect class="cls-8" x="25.73" y="65.26" width="8.44" height="8.44"/><rect class="cls-8" x="36.1" y="65.26" width="8.44" height="8.44"/><rect class="cls-8" x="46.47" y="65.26" width="8.44" height="8.44"/><rect class="cls-8" x="56.83" y="65.26" width="8.44" height="8.44"/><rect class="cls-8" x="67.2" y="65.26" width="8.44" height="8.44"/><rect class="cls-8" x="77.57" y="65.26" width="8.44" height="8.44"/><rect class="cls-8" x="87.94" y="65.26" width="8.44" height="8.44"/><rect class="cls-5" x="25.73" y="75.89" width="8.44" height="8.44"/><rect class="cls-5" x="36.1" y="75.89" width="8.44" height="8.44"/><rect class="cls-5" x="46.47" y="75.89" width="8.44" height="8.44"/><rect class="cls-5" x="56.83" y="75.89" width="8.44" height="8.44"/><rect class="cls-5" x="67.2" y="75.89" width="8.44" height="8.44"/><rect class="cls-5" x="77.57" y="75.89" width="8.44" height="8.44"/><rect class="cls-5" x="87.94" y="75.89" width="8.44" height="8.44"/><polygon class="cls-3" points="23.18 83.44 17.7 73.84 18.57 73.35 22.18 79.67 22.18 36.15 23.18 36.15 23.18 83.44"/><path class="cls-4" d="m30.33,107.58h-1.08v-3.06h-.43v-.94h1.51v4Z"/><path class="cls-4" d="m33.97,105.61c0,.62-.12,1.12-.37,1.49-.25.37-.58.55-1,.55-.45,0-.81-.19-1.07-.56-.26-.37-.38-.89-.38-1.55,0-.63.13-1.12.38-1.49.26-.37.6-.55,1.04-.55s.78.19,1.03.56c.25.37.37.88.37,1.54Zm-1.07,0c0-.77-.12-1.16-.35-1.16s-.35.35-.35,1.04c0,.82.11,1.24.34,1.24.12,0,.21-.09.27-.27.06-.18.09-.46.09-.84Z"/><path class="cls-4" d="m35.55,107.05c0,.16-.06.3-.18.42-.12.12-.26.17-.42.17s-.31-.06-.43-.18c-.12-.12-.18-.26-.18-.43s.06-.31.18-.42c.12-.12.26-.18.42-.18s.32.06.43.18c.12.12.18.26.18.44Z"/><path class="cls-4" d="m36.03,107.34l.13-.95c.32.18.61.28.86.28.16,0,.3-.04.4-.12.1-.08.16-.19.16-.32,0-.14-.06-.25-.17-.33s-.27-.12-.47-.12c-.22,0-.46.05-.7.14l.31-2.33h1.99v.94h-1.14l-.09.45c.07,0,.13,0,.18,0,.33,0,.6.12.83.36.22.23.34.53.34.88,0,.41-.15.76-.44,1.04-.29.28-.65.41-1.08.41-.37,0-.74-.1-1.1-.31Z"/><path class="cls-4" d="m41.86,107.58h-2.75l1.09-1.46c.12-.17.23-.31.31-.44.08-.13.15-.25.2-.35.09-.19.14-.38.14-.58,0-.11-.02-.2-.07-.26-.04-.06-.11-.1-.18-.1-.17,0-.26.16-.26.49,0,.02,0,.04,0,.06,0,.02,0,.05,0,.09h-1.05v-.15c0-.4.12-.73.37-.99.25-.26.57-.39.96-.39s.68.12.92.37c.24.24.36.55.36.94,0,.31-.08.61-.25.91-.08.15-.19.3-.32.46-.13.16-.29.33-.48.51.16-.01.33-.02.49-.03.17,0,.33,0,.51,0v.92Z"/><path class="cls-4" d="m44.46,105.5c.41.18.62.49.62.94,0,.35-.13.64-.39.87-.26.23-.58.34-.98.34s-.7-.12-.97-.35c-.26-.23-.4-.52-.4-.86,0-.45.23-.76.68-.94-.4-.14-.6-.41-.6-.84,0-.33.12-.61.36-.83.24-.22.54-.33.91-.33s.69.11.93.32c.25.21.38.48.38.8,0,.21-.04.38-.13.52-.09.14-.23.25-.42.35Zm-.48.83c0-.27-.09-.4-.26-.4-.04,0-.07.01-.11.03-.03.02-.06.05-.08.09s-.04.08-.05.13-.02.11-.02.17c0,.12.02.21.07.29.05.07.11.11.19.11.04,0,.07,0,.1-.03.03-.02.06-.05.08-.08.02-.04.04-.08.05-.13.01-.05.02-.1.02-.16Zm-.03-1.6c0-.11-.02-.19-.06-.25-.04-.06-.1-.1-.17-.1s-.12.03-.16.09c-.04.06-.06.14-.06.24,0,.24.07.37.23.37s.22-.12.22-.35Z"/><path class="cls-4" d="m47.25,107.58h-1.08v-3.06h-.43v-.94h1.51v4Z"/><path class="cls-4" d="m48.71,108.85l-.56-.32,2.86-5.34.56.3-2.86,5.36Z"/><path class="cls-4" d="m54.01,107.58h-2.24l.68-1.45c.03-.07.07-.15.12-.23.04-.08.09-.18.15-.28h-.79v-.84h2.25l-.66,1.43c-.08.17-.17.34-.27.53h.77v.85Z"/><path class="cls-4" d="m55.95,106.64l1.01.02c-.07.33-.21.57-.42.74-.21.17-.48.25-.82.25-.4,0-.71-.12-.94-.37-.23-.25-.34-.6-.34-1.03s.12-.8.37-1.08c.24-.28.56-.42.94-.42s.69.14.92.41c.23.27.34.63.34,1.08v.18h-1.53c.01.29.09.43.24.43.12,0,.19-.07.23-.2Zm.02-.79c0-.05,0-.1-.02-.14-.01-.04-.03-.08-.05-.11-.02-.03-.05-.06-.08-.07-.03-.02-.06-.03-.1-.03-.07,0-.13.03-.18.1-.04.07-.07.15-.07.25h.48Z"/><path class="cls-4" d="m59.87,107.58h-1.04v-1.48c0-.13-.01-.22-.04-.27-.03-.05-.07-.08-.13-.08-.15,0-.22.14-.22.41v1.41h-1.04v-2.8h1.04c0,.07,0,.13,0,.19,0,.06,0,.11,0,.16v.18c.16-.4.4-.59.72-.59.22,0,.4.08.52.25.13.17.19.4.19.7v1.91Z"/><path class="cls-4" d="m62.87,106.23c0,.43-.12.77-.36,1.03-.24.26-.56.38-.96.38s-.71-.13-.94-.39c-.23-.26-.35-.61-.35-1.06s.12-.8.35-1.06c.23-.27.55-.4.93-.4.41,0,.73.13.96.4.23.27.35.63.35,1.1Zm-1.01-.03c0-.1,0-.2-.02-.28s-.03-.16-.06-.22c-.03-.06-.06-.11-.09-.14-.04-.03-.08-.05-.12-.05-.09,0-.16.06-.21.19-.05.11-.08.27-.08.49s.03.38.08.49c.05.12.13.19.21.19.08,0,.15-.06.21-.18.06-.14.08-.3.08-.48Z"/><path class="cls-4" d="m64.71,107.58s0-.06,0-.1c0-.04,0-.08,0-.13,0-.03,0-.08,0-.14-.1.16-.2.28-.29.34-.09.06-.21.09-.34.09-.28,0-.5-.13-.66-.38-.16-.25-.24-.6-.24-1.05,0-.47.08-.84.23-1.09.16-.26.37-.39.66-.39.16,0,.28.03.38.1.1.07.2.19.29.36,0-.09,0-.14,0-.16v-.28s-.01-1.53-.01-1.53h1.04v4.37h-1.06Zm-.44-1.41c0,.38.09.57.26.57.16,0,.24-.2.24-.59s-.08-.57-.23-.57c-.18,0-.26.2-.26.59Z"/><path class="cls-4" d="m68.77,106.23c0,.43-.12.77-.36,1.03-.24.26-.56.38-.96.38s-.71-.13-.94-.39c-.23-.26-.35-.61-.35-1.06s.12-.8.35-1.06c.23-.27.55-.4.93-.4.41,0,.73.13.96.4.23.27.35.63.35,1.1Zm-1.01-.03c0-.1,0-.2-.02-.28s-.03-.16-.06-.22c-.03-.06-.06-.11-.09-.14-.04-.03-.08-.05-.12-.05-.09,0-.16.06-.21.19-.05.11-.08.27-.08.49s.03.38.08.49c.05.12.13.19.21.19.08,0,.15-.06.21-.18.06-.14.08-.3.08-.48Z"/><path class="cls-4" d="m70.33,107.05c0,.16-.06.3-.18.42-.12.12-.26.17-.42.17s-.31-.06-.43-.18c-.12-.12-.18-.26-.18-.43s.06-.31.18-.42c.12-.12.26-.18.42-.18s.32.06.43.18c.12.12.18.26.18.44Z"/><path class="cls-4" d="m72.86,105.5c.41.18.62.49.62.94,0,.35-.13.64-.39.87-.26.23-.58.34-.98.34s-.7-.12-.97-.35c-.26-.23-.4-.52-.4-.86,0-.45.23-.76.68-.94-.4-.14-.6-.41-.6-.84,0-.33.12-.61.36-.83.24-.22.54-.33.91-.33s.69.11.93.32c.25.21.38.48.38.8,0,.21-.04.38-.13.52-.09.14-.23.25-.42.35Zm-.48.83c0-.27-.09-.4-.26-.4-.04,0-.07.01-.11.03-.03.02-.06.05-.08.09s-.04.08-.05.13-.02.11-.02.17c0,.12.02.21.07.29.05.07.11.11.19.11.04,0,.07,0,.1-.03.03-.02.06-.05.08-.08.02-.04.04-.08.05-.13.01-.05.02-.1.02-.16Zm-.03-1.6c0-.11-.02-.19-.06-.25-.04-.06-.1-.1-.17-.1s-.12.03-.16.09c-.04.06-.06.14-.06.24,0,.24.07.37.23.37s.22-.12.22-.35Z"/><path class="cls-4" d="m75.65,107.58h-1.08v-3.06h-.43v-.94h1.51v4Z"/><path class="cls-4" d="m76.94,107.58l.64-1.14s.05-.09.09-.14c.03-.05.07-.11.11-.17-.14.08-.27.11-.38.11-.27,0-.51-.12-.7-.37-.19-.25-.28-.55-.28-.91,0-.43.13-.78.39-1.05.26-.27.59-.4,1-.4.39,0,.71.13.95.4.24.27.36.62.36,1.05,0,.46-.22,1.1-.65,1.92l-.36.7h-1.16Zm.51-2.65c0,.35.1.53.31.53s.3-.18.3-.54-.1-.56-.3-.56-.31.19-.31.56Z"/><path class="cls-4" d="m80.13,107.58l.64-1.14s.05-.09.09-.14c.03-.05.07-.11.11-.17-.14.08-.27.11-.38.11-.27,0-.51-.12-.7-.37-.19-.25-.28-.55-.28-.91,0-.43.13-.78.39-1.05.26-.27.59-.4,1-.4.39,0,.71.13.95.4.24.27.36.62.36,1.05,0,.46-.22,1.1-.65,1.92l-.36.7h-1.16Zm.51-2.65c0,.35.1.53.31.53s.3-.18.3-.54-.1-.56-.3-.56-.31.19-.31.56Z"/><path class="cls-4" d="m85.11,107.58h-1.08v-.81h-1.45v-.84l1.21-2.34h1.32v2.33h.34v.86h-.34v.81Zm-1.03-1.67v-.75s0-.09,0-.17c0-.08.01-.17.02-.29l-.16.34c-.08.17-.16.32-.24.47s-.16.28-.24.4h.61Z"/><path class="cls-4" d="m87.55,107.58h-1.08v-3.06h-.43v-.94h1.51v4Z"/><path class="cls-4" d="m90.81,107.58h-1.08v-.81h-1.45v-.84l1.21-2.34h1.32v2.33h.34v.86h-.34v.81Zm-1.03-1.67v-.75s0-.09,0-.17c0-.08.01-.17.02-.29l-.16.34c-.08.17-.16.32-.24.47s-.16.28-.24.4h.61Z"/><path class="cls-4" d="m18.48,95.18c0-.73.14-1.42.41-2.05s.65-1.19,1.13-1.66c.48-.47,1.06-.84,1.72-1.11.67-.27,1.41-.4,2.21-.4s1.53.13,2.2.4,1.25.64,1.74,1.11c.48.47.86,1.02,1.13,1.66.27.63.41,1.32.41,2.05s-.14,1.42-.41,2.05c-.27.63-.65,1.19-1.13,1.66-.49.47-1.06.84-1.74,1.11s-1.41.4-2.2.4-1.54-.13-2.21-.4c-.67-.27-1.24-.64-1.72-1.11-.48-.47-.86-1.03-1.13-1.66s-.41-1.32-.41-2.05Zm2.69,0c0,.39.07.76.22,1.09.15.33.35.62.6.87.25.25.55.44.89.57.34.13.69.2,1.07.2s.73-.07,1.07-.2c.34-.14.63-.33.89-.57.26-.24.46-.53.61-.87s.22-.7.22-1.09-.07-.76-.22-1.09-.35-.62-.61-.87-.56-.43-.89-.57-.69-.2-1.07-.2-.73.07-1.07.2c-.34.14-.63.33-.89.57-.25.25-.45.53-.6.87-.15.33-.22.7-.22,1.09Z"/><path class="cls-4" d="m30.83,93.4h2.37v.85c.32-.39.65-.66.98-.79s.72-.2,1.17-.2c.47,0,.88.08,1.21.23.34.15.62.37.86.65.19.23.32.48.39.76.07.28.1.6.1.96v4.28h-2.37v-3.4c0-.33-.02-.6-.07-.81-.05-.21-.13-.37-.26-.49-.1-.11-.22-.18-.35-.22-.13-.04-.27-.07-.42-.07-.4,0-.71.12-.92.36-.21.24-.32.58-.32,1.03v3.59h-2.37v-6.73Z"/><path class="cls-4" d="m41.92,89.24v10.88h-2.37v-10.88h2.37Z"/><path class="cls-4" d="m43.38,90.81c0-.18.03-.36.1-.52.07-.16.17-.3.29-.43.12-.12.26-.22.43-.29.16-.07.33-.11.52-.11s.36.04.52.11c.16.07.3.17.43.29.12.12.22.26.29.43.07.16.1.33.1.52s-.04.36-.1.52c-.07.16-.17.3-.29.43s-.26.22-.43.29c-.16.07-.33.11-.52.11s-.36-.04-.52-.11c-.16-.07-.3-.17-.43-.29-.12-.12-.22-.26-.29-.43-.07-.16-.1-.33-.1-.52Zm2.53,2.58v6.73h-2.37v-6.73h2.37Z"/><path class="cls-4" d="m47.54,93.4h2.37v.85c.32-.39.65-.66.98-.79s.72-.2,1.17-.2c.47,0,.88.08,1.21.23.34.15.62.37.86.65.19.23.32.48.39.76.07.28.11.6.11.96v4.28h-2.37v-3.4c0-.33-.02-.6-.07-.81-.05-.21-.13-.37-.25-.49-.11-.11-.22-.18-.35-.22-.13-.04-.27-.07-.42-.07-.4,0-.71.12-.92.36-.21.24-.32.58-.32,1.03v3.59h-2.37v-6.73Z"/><path class="cls-4" d="m58.39,97.16c0,1.02.48,1.53,1.44,1.53.52,0,.91-.21,1.17-.63h2.29c-.46,1.54-1.62,2.31-3.47,2.31-.57,0-1.09-.08-1.56-.26-.47-.17-.88-.41-1.21-.73-.34-.31-.6-.69-.78-1.13-.18-.44-.28-.93-.28-1.47s.09-1.06.26-1.51c.17-.45.42-.83.75-1.15.32-.31.71-.56,1.17-.73.46-.17.98-.26,1.55-.26s1.08.09,1.53.26c.45.17.84.42,1.15.74.32.32.56.72.72,1.19s.25,1,.25,1.58v.25h-5Zm2.78-1.38c-.08-.33-.24-.6-.49-.8-.25-.2-.54-.3-.89-.3-.37,0-.67.1-.9.29s-.38.46-.44.81h2.71Z"/><path class="cls-4" d="m64.95,100.12v-9.89h2.57l4.75,6.05v-6.05h2.56v9.89h-2.56l-4.75-6.04v6.04h-2.57Z"/><path class="cls-4" d="m76.46,100.12l1.68-9.89h2.54l1.98,5.27,1.97-5.27h2.54l1.68,9.89h-2.56l-.85-5.69-2.33,5.69h-1.02l-2.22-5.69-.85,5.69h-2.56Z"/><path class="cls-4" d="m96.14,92.41h-3.09v1.65h2.82v2.18h-2.82v3.88h-2.57v-9.89h5.67v2.18Z"/><path class="cls-4" d="m96.9,98.87c0-.21.04-.41.12-.6.08-.19.19-.35.33-.49.14-.14.3-.25.49-.33.19-.08.39-.12.6-.12s.41.04.6.12c.19.08.35.19.49.33.14.14.25.3.33.49.08.19.12.39.12.6s-.04.41-.12.6c-.08.19-.19.35-.33.49-.14.14-.3.25-.49.33-.19.08-.39.12-.6.12s-.41-.04-.6-.12c-.19-.08-.35-.19-.49-.33-.14-.14-.25-.3-.33-.49-.08-.19-.12-.39-.12-.6Z"/><path class="cls-4" d="m101.32,90.81c0-.18.03-.36.1-.52.07-.16.17-.3.29-.43.12-.12.26-.22.43-.29.16-.07.33-.11.52-.11s.36.04.52.11c.16.07.3.17.43.29.12.12.22.26.29.43.07.16.1.33.1.52s-.04.36-.1.52c-.07.16-.17.3-.29.43s-.26.22-.43.29c-.16.07-.33.11-.52.11s-.36-.04-.52-.11c-.16-.07-.3-.17-.43-.29-.12-.12-.22-.26-.29-.43-.07-.16-.1-.33-.1-.52Zm2.53,2.58v10.08h-2.37v-10.08h2.37Z"/><path class="cls-4" d="m107.85,89.24v10.88h-2.37v-10.88h2.37Z"/></g></svg>